G04 #@! TF.FileFunction,Legend,Top*
%FSLAX46Y46*%
G04 Gerber Fmt 4.6, Leading zero omitted, Abs format (unit mm)*
G04 Created by KiCad (PCBNEW 4.0.7) date 05/21/21 15:04:17*
%MOMM*%
%LPD*%
G01*
G04 APERTURE LIST*
%ADD10C,0.100000*%
%ADD11C,0.150000*%
%ADD12C,0.400000*%
%ADD13C,0.200000*%
%ADD14C,0.300000*%
%ADD15C,0.120000*%
%ADD16C,0.031750*%
%ADD17C,0.375000*%
G04 APERTURE END LIST*
D10*
D11*
X75825000Y-101450000D02*
X76775000Y-100500000D01*
D10*
X242540477Y-89675000D02*
X242464286Y-89636905D01*
X242350001Y-89636905D01*
X242235715Y-89675000D01*
X242159524Y-89751190D01*
X242121429Y-89827381D01*
X242083334Y-89979762D01*
X242083334Y-90094048D01*
X242121429Y-90246429D01*
X242159524Y-90322619D01*
X242235715Y-90398810D01*
X242350001Y-90436905D01*
X242426191Y-90436905D01*
X242540477Y-90398810D01*
X242578572Y-90360714D01*
X242578572Y-90094048D01*
X242426191Y-90094048D01*
X242921429Y-90436905D02*
X242921429Y-89636905D01*
X243378572Y-90436905D01*
X243378572Y-89636905D01*
X243759524Y-90436905D02*
X243759524Y-89636905D01*
X243950000Y-89636905D01*
X244064286Y-89675000D01*
X244140477Y-89751190D01*
X244178572Y-89827381D01*
X244216667Y-89979762D01*
X244216667Y-90094048D01*
X244178572Y-90246429D01*
X244140477Y-90322619D01*
X244064286Y-90398810D01*
X243950000Y-90436905D01*
X243759524Y-90436905D01*
X238590476Y-90132143D02*
X239200000Y-90132143D01*
X238895238Y-90436905D02*
X238895238Y-89827381D01*
X240000000Y-90436905D02*
X239542857Y-90436905D01*
X239771428Y-90436905D02*
X239771428Y-89636905D01*
X239695238Y-89751190D01*
X239619047Y-89827381D01*
X239542857Y-89865476D01*
X240304762Y-89713095D02*
X240342857Y-89675000D01*
X240419048Y-89636905D01*
X240609524Y-89636905D01*
X240685714Y-89675000D01*
X240723810Y-89713095D01*
X240761905Y-89789286D01*
X240761905Y-89865476D01*
X240723810Y-89979762D01*
X240266667Y-90436905D01*
X240761905Y-90436905D01*
X240990476Y-89636905D02*
X241257143Y-90436905D01*
X241523810Y-89636905D01*
X245121429Y-90157143D02*
X245730953Y-90157143D01*
X245426191Y-90461905D02*
X245426191Y-89852381D01*
X246492858Y-89661905D02*
X246111905Y-89661905D01*
X246073810Y-90042857D01*
X246111905Y-90004762D01*
X246188096Y-89966667D01*
X246378572Y-89966667D01*
X246454762Y-90004762D01*
X246492858Y-90042857D01*
X246530953Y-90119048D01*
X246530953Y-90309524D01*
X246492858Y-90385714D01*
X246454762Y-90423810D01*
X246378572Y-90461905D01*
X246188096Y-90461905D01*
X246111905Y-90423810D01*
X246073810Y-90385714D01*
X246759524Y-89661905D02*
X247026191Y-90461905D01*
X247292858Y-89661905D01*
D11*
X84932000Y-114035667D02*
X85265334Y-114035667D01*
X84865334Y-114235667D02*
X85098667Y-113535667D01*
X85332000Y-114235667D01*
X85898667Y-114235667D02*
X85565334Y-114235667D01*
X85565334Y-113535667D01*
X77245333Y-114111667D02*
X77578667Y-114111667D01*
X77178667Y-114311667D02*
X77412000Y-113611667D01*
X77645333Y-114311667D01*
X78278667Y-114311667D02*
X78045333Y-113978333D01*
X77878667Y-114311667D02*
X77878667Y-113611667D01*
X78145333Y-113611667D01*
X78212000Y-113645000D01*
X78245333Y-113678333D01*
X78278667Y-113745000D01*
X78278667Y-113845000D01*
X78245333Y-113911667D01*
X78212000Y-113945000D01*
X78145333Y-113978333D01*
X77878667Y-113978333D01*
D12*
X176263952Y-100972810D02*
X176263952Y-99372810D01*
X177178238Y-100972810D02*
X176492524Y-100058524D01*
X177178238Y-99372810D02*
X176263952Y-100287095D01*
X177863952Y-100972810D02*
X177863952Y-99372810D01*
X179540143Y-100820429D02*
X179463953Y-100896619D01*
X179235381Y-100972810D01*
X179083000Y-100972810D01*
X178854429Y-100896619D01*
X178702048Y-100744238D01*
X178625857Y-100591857D01*
X178549667Y-100287095D01*
X178549667Y-100058524D01*
X178625857Y-99753762D01*
X178702048Y-99601381D01*
X178854429Y-99449000D01*
X179083000Y-99372810D01*
X179235381Y-99372810D01*
X179463953Y-99449000D01*
X179540143Y-99525190D01*
X180225857Y-100972810D02*
X180225857Y-99372810D01*
X181140143Y-100972810D02*
X180454429Y-100058524D01*
X181140143Y-99372810D02*
X180225857Y-100287095D01*
X183044905Y-100972810D02*
X183044905Y-99372810D01*
X183044905Y-100134714D02*
X183959191Y-100134714D01*
X183959191Y-100972810D02*
X183959191Y-99372810D01*
X184644905Y-100515667D02*
X185406810Y-100515667D01*
X184492524Y-100972810D02*
X185025857Y-99372810D01*
X185559191Y-100972810D01*
X187006810Y-100972810D02*
X186473477Y-100210905D01*
X186092524Y-100972810D02*
X186092524Y-99372810D01*
X186702048Y-99372810D01*
X186854429Y-99449000D01*
X186930620Y-99525190D01*
X187006810Y-99677571D01*
X187006810Y-99906143D01*
X186930620Y-100058524D01*
X186854429Y-100134714D01*
X186702048Y-100210905D01*
X186092524Y-100210905D01*
X187692524Y-100972810D02*
X187692524Y-99372810D01*
X188606810Y-100972810D01*
X188606810Y-99372810D01*
X189368714Y-100134714D02*
X189902048Y-100134714D01*
X190130619Y-100972810D02*
X189368714Y-100972810D01*
X189368714Y-99372810D01*
X190130619Y-99372810D01*
X190740143Y-100896619D02*
X190968714Y-100972810D01*
X191349667Y-100972810D01*
X191502048Y-100896619D01*
X191578238Y-100820429D01*
X191654429Y-100668048D01*
X191654429Y-100515667D01*
X191578238Y-100363286D01*
X191502048Y-100287095D01*
X191349667Y-100210905D01*
X191044905Y-100134714D01*
X190892524Y-100058524D01*
X190816333Y-99982333D01*
X190740143Y-99829952D01*
X190740143Y-99677571D01*
X190816333Y-99525190D01*
X190892524Y-99449000D01*
X191044905Y-99372810D01*
X191425857Y-99372810D01*
X191654429Y-99449000D01*
X192263953Y-100896619D02*
X192492524Y-100972810D01*
X192873477Y-100972810D01*
X193025858Y-100896619D01*
X193102048Y-100820429D01*
X193178239Y-100668048D01*
X193178239Y-100515667D01*
X193102048Y-100363286D01*
X193025858Y-100287095D01*
X192873477Y-100210905D01*
X192568715Y-100134714D01*
X192416334Y-100058524D01*
X192340143Y-99982333D01*
X192263953Y-99829952D01*
X192263953Y-99677571D01*
X192340143Y-99525190D01*
X192416334Y-99449000D01*
X192568715Y-99372810D01*
X192949667Y-99372810D01*
X193178239Y-99449000D01*
D13*
X189220905Y-106713381D02*
X189220905Y-105713381D01*
X189792334Y-106713381D02*
X189363762Y-106141952D01*
X189792334Y-105713381D02*
X189220905Y-106284810D01*
X190125667Y-105713381D02*
X190744715Y-105713381D01*
X190411381Y-106094333D01*
X190554239Y-106094333D01*
X190649477Y-106141952D01*
X190697096Y-106189571D01*
X190744715Y-106284810D01*
X190744715Y-106522905D01*
X190697096Y-106618143D01*
X190649477Y-106665762D01*
X190554239Y-106713381D01*
X190268524Y-106713381D01*
X190173286Y-106665762D01*
X190125667Y-106618143D01*
X184168905Y-106702381D02*
X184168905Y-105702381D01*
X184740334Y-106702381D02*
X184311762Y-106130952D01*
X184740334Y-105702381D02*
X184168905Y-106273810D01*
X185121286Y-105797619D02*
X185168905Y-105750000D01*
X185264143Y-105702381D01*
X185502239Y-105702381D01*
X185597477Y-105750000D01*
X185645096Y-105797619D01*
X185692715Y-105892857D01*
X185692715Y-105988095D01*
X185645096Y-106130952D01*
X185073667Y-106702381D01*
X185692715Y-106702381D01*
X179112905Y-106717381D02*
X179112905Y-105717381D01*
X179684334Y-106717381D02*
X179255762Y-106145952D01*
X179684334Y-105717381D02*
X179112905Y-106288810D01*
X180636715Y-106717381D02*
X180065286Y-106717381D01*
X180351000Y-106717381D02*
X180351000Y-105717381D01*
X180255762Y-105860238D01*
X180160524Y-105955476D01*
X180065286Y-106003095D01*
D11*
X178714000Y-105332000D02*
X178714000Y-105103000D01*
X183774000Y-105345000D02*
X183774000Y-105132000D01*
X188802000Y-105339000D02*
X190889000Y-105339000D01*
X190900000Y-105339000D02*
X190900000Y-105126000D01*
X180779000Y-105339000D02*
X180779000Y-105110000D01*
X185841000Y-105345000D02*
X185841000Y-105132000D01*
X188806000Y-105331000D02*
X188806000Y-105118000D01*
X183769000Y-105345000D02*
X185841000Y-105345000D01*
X178721000Y-105339000D02*
X180764000Y-105339000D01*
X96969667Y-90575667D02*
X96736333Y-90242333D01*
X96569667Y-90575667D02*
X96569667Y-89875667D01*
X96836333Y-89875667D01*
X96903000Y-89909000D01*
X96936333Y-89942333D01*
X96969667Y-90009000D01*
X96969667Y-90109000D01*
X96936333Y-90175667D01*
X96903000Y-90209000D01*
X96836333Y-90242333D01*
X96569667Y-90242333D01*
X96274000Y-96739333D02*
X96374000Y-96772667D01*
X96540667Y-96772667D01*
X96607334Y-96739333D01*
X96640667Y-96706000D01*
X96674000Y-96639333D01*
X96674000Y-96572667D01*
X96640667Y-96506000D01*
X96607334Y-96472667D01*
X96540667Y-96439333D01*
X96407334Y-96406000D01*
X96340667Y-96372667D01*
X96307334Y-96339333D01*
X96274000Y-96272667D01*
X96274000Y-96206000D01*
X96307334Y-96139333D01*
X96340667Y-96106000D01*
X96407334Y-96072667D01*
X96574000Y-96072667D01*
X96674000Y-96106000D01*
X97107334Y-96439333D02*
X97107334Y-96772667D01*
X96874001Y-96072667D02*
X97107334Y-96439333D01*
X97340667Y-96072667D01*
X91704000Y-90207000D02*
X91804000Y-90240333D01*
X91837333Y-90273667D01*
X91870667Y-90340333D01*
X91870667Y-90440333D01*
X91837333Y-90507000D01*
X91804000Y-90540333D01*
X91737333Y-90573667D01*
X91470667Y-90573667D01*
X91470667Y-89873667D01*
X91704000Y-89873667D01*
X91770667Y-89907000D01*
X91804000Y-89940333D01*
X91837333Y-90007000D01*
X91837333Y-90073667D01*
X91804000Y-90140333D01*
X91770667Y-90173667D01*
X91704000Y-90207000D01*
X91470667Y-90207000D01*
X91180333Y-96595667D02*
X91513667Y-96595667D01*
X91113667Y-96795667D02*
X91347000Y-96095667D01*
X91580333Y-96795667D01*
X92213667Y-96795667D02*
X91980333Y-96462333D01*
X91813667Y-96795667D02*
X91813667Y-96095667D01*
X92080333Y-96095667D01*
X92147000Y-96129000D01*
X92180333Y-96162333D01*
X92213667Y-96229000D01*
X92213667Y-96329000D01*
X92180333Y-96395667D01*
X92147000Y-96429000D01*
X92080333Y-96462333D01*
X91813667Y-96462333D01*
X93789000Y-96608667D02*
X94122334Y-96608667D01*
X93722334Y-96808667D02*
X93955667Y-96108667D01*
X94189000Y-96808667D01*
X94755667Y-96808667D02*
X94422334Y-96808667D01*
X94422334Y-96108667D01*
X99079667Y-96095667D02*
X98746334Y-96095667D01*
X98713000Y-96429000D01*
X98746334Y-96395667D01*
X98813000Y-96362333D01*
X98979667Y-96362333D01*
X99046334Y-96395667D01*
X99079667Y-96429000D01*
X99113000Y-96495667D01*
X99113000Y-96662333D01*
X99079667Y-96729000D01*
X99046334Y-96762333D01*
X98979667Y-96795667D01*
X98813000Y-96795667D01*
X98746334Y-96762333D01*
X98713000Y-96729000D01*
X99313001Y-96095667D02*
X99546334Y-96795667D01*
X99779667Y-96095667D01*
X98714667Y-89919000D02*
X98648001Y-89885667D01*
X98548001Y-89885667D01*
X98448001Y-89919000D01*
X98381334Y-89985667D01*
X98348001Y-90052333D01*
X98314667Y-90185667D01*
X98314667Y-90285667D01*
X98348001Y-90419000D01*
X98381334Y-90485667D01*
X98448001Y-90552333D01*
X98548001Y-90585667D01*
X98614667Y-90585667D01*
X98714667Y-90552333D01*
X98748001Y-90519000D01*
X98748001Y-90285667D01*
X98614667Y-90285667D01*
X99048001Y-90585667D02*
X99048001Y-89885667D01*
X99448001Y-90585667D01*
X99448001Y-89885667D01*
X99781334Y-90585667D02*
X99781334Y-89885667D01*
X99948000Y-89885667D01*
X100048000Y-89919000D01*
X100114667Y-89985667D01*
X100148000Y-90052333D01*
X100181334Y-90185667D01*
X100181334Y-90285667D01*
X100148000Y-90419000D01*
X100114667Y-90485667D01*
X100048000Y-90552333D01*
X99948000Y-90585667D01*
X99781334Y-90585667D01*
X94390333Y-89919000D02*
X94323667Y-89885667D01*
X94223667Y-89885667D01*
X94123667Y-89919000D01*
X94057000Y-89985667D01*
X94023667Y-90052333D01*
X93990333Y-90185667D01*
X93990333Y-90285667D01*
X94023667Y-90419000D01*
X94057000Y-90485667D01*
X94123667Y-90552333D01*
X94223667Y-90585667D01*
X94290333Y-90585667D01*
X94390333Y-90552333D01*
X94423667Y-90519000D01*
X94423667Y-90285667D01*
X94290333Y-90285667D01*
D13*
X91963809Y-88977667D02*
X92440000Y-88977667D01*
X91868571Y-89263381D02*
X92201904Y-88263381D01*
X92535238Y-89263381D01*
X93582857Y-88215762D02*
X92725714Y-89501476D01*
X93773333Y-88263381D02*
X94106666Y-89263381D01*
X94440000Y-88263381D01*
X95535238Y-89263381D02*
X95535238Y-88263381D01*
X95916191Y-88263381D01*
X96011429Y-88311000D01*
X96059048Y-88358619D01*
X96106667Y-88453857D01*
X96106667Y-88596714D01*
X96059048Y-88691952D01*
X96011429Y-88739571D01*
X95916191Y-88787190D01*
X95535238Y-88787190D01*
X96725714Y-88263381D02*
X96916191Y-88263381D01*
X97011429Y-88311000D01*
X97106667Y-88406238D01*
X97154286Y-88596714D01*
X97154286Y-88930048D01*
X97106667Y-89120524D01*
X97011429Y-89215762D01*
X96916191Y-89263381D01*
X96725714Y-89263381D01*
X96630476Y-89215762D01*
X96535238Y-89120524D01*
X96487619Y-88930048D01*
X96487619Y-88596714D01*
X96535238Y-88406238D01*
X96630476Y-88311000D01*
X96725714Y-88263381D01*
X98154286Y-89263381D02*
X97820952Y-88787190D01*
X97582857Y-89263381D02*
X97582857Y-88263381D01*
X97963810Y-88263381D01*
X98059048Y-88311000D01*
X98106667Y-88358619D01*
X98154286Y-88453857D01*
X98154286Y-88596714D01*
X98106667Y-88691952D01*
X98059048Y-88739571D01*
X97963810Y-88787190D01*
X97582857Y-88787190D01*
X98440000Y-88263381D02*
X99011429Y-88263381D01*
X98725714Y-89263381D02*
X98725714Y-88263381D01*
D11*
X112634000Y-91394000D02*
X112234000Y-91394000D01*
X106553000Y-91383000D02*
X106153000Y-91383000D01*
D13*
X101328667Y-91816381D02*
X101328667Y-90816381D01*
X101566762Y-90816381D01*
X101709620Y-90864000D01*
X101804858Y-90959238D01*
X101852477Y-91054476D01*
X101900096Y-91244952D01*
X101900096Y-91387810D01*
X101852477Y-91578286D01*
X101804858Y-91673524D01*
X101709620Y-91768762D01*
X101566762Y-91816381D01*
X101328667Y-91816381D01*
X102328667Y-91816381D02*
X102328667Y-90816381D01*
X103376286Y-91816381D02*
X103042952Y-91340190D01*
X102804857Y-91816381D02*
X102804857Y-90816381D01*
X103185810Y-90816381D01*
X103281048Y-90864000D01*
X103328667Y-90911619D01*
X103376286Y-91006857D01*
X103376286Y-91149714D01*
X103328667Y-91244952D01*
X103281048Y-91292571D01*
X103185810Y-91340190D01*
X102804857Y-91340190D01*
X103804857Y-91292571D02*
X104138191Y-91292571D01*
X104281048Y-91816381D02*
X103804857Y-91816381D01*
X103804857Y-90816381D01*
X104281048Y-90816381D01*
X105281048Y-91721143D02*
X105233429Y-91768762D01*
X105090572Y-91816381D01*
X104995334Y-91816381D01*
X104852476Y-91768762D01*
X104757238Y-91673524D01*
X104709619Y-91578286D01*
X104662000Y-91387810D01*
X104662000Y-91244952D01*
X104709619Y-91054476D01*
X104757238Y-90959238D01*
X104852476Y-90864000D01*
X104995334Y-90816381D01*
X105090572Y-90816381D01*
X105233429Y-90864000D01*
X105281048Y-90911619D01*
X105566762Y-90816381D02*
X106138191Y-90816381D01*
X105852476Y-91816381D02*
X105852476Y-90816381D01*
D11*
X112635000Y-93979000D02*
X112235000Y-93979000D01*
X112642000Y-93986000D02*
X112642000Y-96466000D01*
X112258000Y-96467000D02*
X112635000Y-96467000D01*
X106142000Y-96435000D02*
X106519000Y-96435000D01*
X106142000Y-93955000D02*
X106142000Y-96435000D01*
X106542000Y-93955000D02*
X106142000Y-93955000D01*
D10*
X251157477Y-96217000D02*
X251081286Y-96178905D01*
X250967001Y-96178905D01*
X250852715Y-96217000D01*
X250776524Y-96293190D01*
X250738429Y-96369381D01*
X250700334Y-96521762D01*
X250700334Y-96636048D01*
X250738429Y-96788429D01*
X250776524Y-96864619D01*
X250852715Y-96940810D01*
X250967001Y-96978905D01*
X251043191Y-96978905D01*
X251157477Y-96940810D01*
X251195572Y-96902714D01*
X251195572Y-96636048D01*
X251043191Y-96636048D01*
X251538429Y-96978905D02*
X251538429Y-96178905D01*
X251995572Y-96978905D01*
X251995572Y-96178905D01*
X252376524Y-96978905D02*
X252376524Y-96178905D01*
X252567000Y-96178905D01*
X252681286Y-96217000D01*
X252757477Y-96293190D01*
X252795572Y-96369381D01*
X252833667Y-96521762D01*
X252833667Y-96636048D01*
X252795572Y-96788429D01*
X252757477Y-96864619D01*
X252681286Y-96940810D01*
X252567000Y-96978905D01*
X252376524Y-96978905D01*
D11*
X244827000Y-120403000D02*
X77789000Y-120403000D01*
X255937000Y-84980000D02*
X255937000Y-109124000D01*
X238205000Y-84963000D02*
X255937000Y-84963000D01*
X238174000Y-90527000D02*
X238174000Y-84957000D01*
X244851000Y-120412000D02*
G75*
G03X255943000Y-109264000I-28000J11120000D01*
G01*
X66349000Y-109342000D02*
G75*
G03X77749000Y-120406000I11232000J168000D01*
G01*
D13*
X108395143Y-103258381D02*
X108061809Y-102782190D01*
X107823714Y-103258381D02*
X107823714Y-102258381D01*
X108204667Y-102258381D01*
X108299905Y-102306000D01*
X108347524Y-102353619D01*
X108395143Y-102448857D01*
X108395143Y-102591714D01*
X108347524Y-102686952D01*
X108299905Y-102734571D01*
X108204667Y-102782190D01*
X107823714Y-102782190D01*
X108823714Y-102734571D02*
X109157048Y-102734571D01*
X109299905Y-103258381D02*
X108823714Y-103258381D01*
X108823714Y-102258381D01*
X109299905Y-102258381D01*
X109728476Y-103258381D02*
X109728476Y-102258381D01*
X109966571Y-102258381D01*
X110109429Y-102306000D01*
X110204667Y-102401238D01*
X110252286Y-102496476D01*
X110299905Y-102686952D01*
X110299905Y-102829810D01*
X110252286Y-103020286D01*
X110204667Y-103115524D01*
X110109429Y-103210762D01*
X109966571Y-103258381D01*
X109728476Y-103258381D01*
X98761334Y-102290000D02*
X98666096Y-102242381D01*
X98523239Y-102242381D01*
X98380381Y-102290000D01*
X98285143Y-102385238D01*
X98237524Y-102480476D01*
X98189905Y-102670952D01*
X98189905Y-102813810D01*
X98237524Y-103004286D01*
X98285143Y-103099524D01*
X98380381Y-103194762D01*
X98523239Y-103242381D01*
X98618477Y-103242381D01*
X98761334Y-103194762D01*
X98808953Y-103147143D01*
X98808953Y-102813810D01*
X98618477Y-102813810D01*
X99808953Y-103242381D02*
X99475619Y-102766190D01*
X99237524Y-103242381D02*
X99237524Y-102242381D01*
X99618477Y-102242381D01*
X99713715Y-102290000D01*
X99761334Y-102337619D01*
X99808953Y-102432857D01*
X99808953Y-102575714D01*
X99761334Y-102670952D01*
X99713715Y-102718571D01*
X99618477Y-102766190D01*
X99237524Y-102766190D01*
X100237524Y-102718571D02*
X100570858Y-102718571D01*
X100713715Y-103242381D02*
X100237524Y-103242381D01*
X100237524Y-102242381D01*
X100713715Y-102242381D01*
X101142286Y-102718571D02*
X101475620Y-102718571D01*
X101618477Y-103242381D02*
X101142286Y-103242381D01*
X101142286Y-102242381D01*
X101618477Y-102242381D01*
X102047048Y-103242381D02*
X102047048Y-102242381D01*
X102618477Y-103242381D01*
X102618477Y-102242381D01*
X90537477Y-102688571D02*
X90680334Y-102736190D01*
X90727953Y-102783810D01*
X90775572Y-102879048D01*
X90775572Y-103021905D01*
X90727953Y-103117143D01*
X90680334Y-103164762D01*
X90585096Y-103212381D01*
X90204143Y-103212381D01*
X90204143Y-102212381D01*
X90537477Y-102212381D01*
X90632715Y-102260000D01*
X90680334Y-102307619D01*
X90727953Y-102402857D01*
X90727953Y-102498095D01*
X90680334Y-102593333D01*
X90632715Y-102640952D01*
X90537477Y-102688571D01*
X90204143Y-102688571D01*
X91680334Y-103212381D02*
X91204143Y-103212381D01*
X91204143Y-102212381D01*
X92013667Y-102212381D02*
X92013667Y-103021905D01*
X92061286Y-103117143D01*
X92108905Y-103164762D01*
X92204143Y-103212381D01*
X92394620Y-103212381D01*
X92489858Y-103164762D01*
X92537477Y-103117143D01*
X92585096Y-103021905D01*
X92585096Y-102212381D01*
X93061286Y-102688571D02*
X93394620Y-102688571D01*
X93537477Y-103212381D02*
X93061286Y-103212381D01*
X93061286Y-102212381D01*
X93537477Y-102212381D01*
D11*
X66349000Y-84935000D02*
X66349000Y-109258000D01*
X234151000Y-90527000D02*
X234151000Y-84957000D01*
X121369000Y-84970000D02*
X121369000Y-90500000D01*
X117402000Y-84931000D02*
X117402000Y-90497000D01*
X117398000Y-84931000D02*
X66355000Y-84931000D01*
D12*
X155333619Y-94525810D02*
X156247905Y-94525810D01*
X155790762Y-96125810D02*
X155790762Y-94525810D01*
X156781238Y-95287714D02*
X157314572Y-95287714D01*
X157543143Y-96125810D02*
X156781238Y-96125810D01*
X156781238Y-94525810D01*
X157543143Y-94525810D01*
X158152667Y-96049619D02*
X158381238Y-96125810D01*
X158762191Y-96125810D01*
X158914572Y-96049619D01*
X158990762Y-95973429D01*
X159066953Y-95821048D01*
X159066953Y-95668667D01*
X158990762Y-95516286D01*
X158914572Y-95440095D01*
X158762191Y-95363905D01*
X158457429Y-95287714D01*
X158305048Y-95211524D01*
X158228857Y-95135333D01*
X158152667Y-94982952D01*
X158152667Y-94830571D01*
X158228857Y-94678190D01*
X158305048Y-94602000D01*
X158457429Y-94525810D01*
X158838381Y-94525810D01*
X159066953Y-94602000D01*
X159524096Y-94525810D02*
X160438382Y-94525810D01*
X159981239Y-96125810D02*
X159981239Y-94525810D01*
D11*
X238164000Y-90525000D02*
X234144000Y-90525000D01*
D10*
X241363429Y-116216143D02*
X241972953Y-116216143D01*
X241668191Y-116520905D02*
X241668191Y-115911381D01*
X242734858Y-115720905D02*
X242353905Y-115720905D01*
X242315810Y-116101857D01*
X242353905Y-116063762D01*
X242430096Y-116025667D01*
X242620572Y-116025667D01*
X242696762Y-116063762D01*
X242734858Y-116101857D01*
X242772953Y-116178048D01*
X242772953Y-116368524D01*
X242734858Y-116444714D01*
X242696762Y-116482810D01*
X242620572Y-116520905D01*
X242430096Y-116520905D01*
X242353905Y-116482810D01*
X242315810Y-116444714D01*
X243001524Y-115720905D02*
X243268191Y-116520905D01*
X243534858Y-115720905D01*
X250050476Y-91573143D02*
X250660000Y-91573143D01*
X250355238Y-91877905D02*
X250355238Y-91268381D01*
X251460000Y-91877905D02*
X251002857Y-91877905D01*
X251231428Y-91877905D02*
X251231428Y-91077905D01*
X251155238Y-91192190D01*
X251079047Y-91268381D01*
X251002857Y-91306476D01*
X251764762Y-91154095D02*
X251802857Y-91116000D01*
X251879048Y-91077905D01*
X252069524Y-91077905D01*
X252145714Y-91116000D01*
X252183810Y-91154095D01*
X252221905Y-91230286D01*
X252221905Y-91306476D01*
X252183810Y-91420762D01*
X251726667Y-91877905D01*
X252221905Y-91877905D01*
X252450476Y-91077905D02*
X252717143Y-91877905D01*
X252983810Y-91077905D01*
X251155477Y-101261000D02*
X251079286Y-101222905D01*
X250965001Y-101222905D01*
X250850715Y-101261000D01*
X250774524Y-101337190D01*
X250736429Y-101413381D01*
X250698334Y-101565762D01*
X250698334Y-101680048D01*
X250736429Y-101832429D01*
X250774524Y-101908619D01*
X250850715Y-101984810D01*
X250965001Y-102022905D01*
X251041191Y-102022905D01*
X251155477Y-101984810D01*
X251193572Y-101946714D01*
X251193572Y-101680048D01*
X251041191Y-101680048D01*
X251536429Y-102022905D02*
X251536429Y-101222905D01*
X251993572Y-102022905D01*
X251993572Y-101222905D01*
X252374524Y-102022905D02*
X252374524Y-101222905D01*
X252565000Y-101222905D01*
X252679286Y-101261000D01*
X252755477Y-101337190D01*
X252793572Y-101413381D01*
X252831667Y-101565762D01*
X252831667Y-101680048D01*
X252793572Y-101832429D01*
X252755477Y-101908619D01*
X252679286Y-101984810D01*
X252565000Y-102022905D01*
X252374524Y-102022905D01*
X250431429Y-106839143D02*
X251040953Y-106839143D01*
X250736191Y-107143905D02*
X250736191Y-106534381D01*
X251802858Y-106343905D02*
X251421905Y-106343905D01*
X251383810Y-106724857D01*
X251421905Y-106686762D01*
X251498096Y-106648667D01*
X251688572Y-106648667D01*
X251764762Y-106686762D01*
X251802858Y-106724857D01*
X251840953Y-106801048D01*
X251840953Y-106991524D01*
X251802858Y-107067714D01*
X251764762Y-107105810D01*
X251688572Y-107143905D01*
X251498096Y-107143905D01*
X251421905Y-107105810D01*
X251383810Y-107067714D01*
X252069524Y-106343905D02*
X252336191Y-107143905D01*
X252602858Y-106343905D01*
D11*
X121369000Y-84960000D02*
X234149000Y-84960000D01*
X117399000Y-90500000D02*
X121369000Y-90500000D01*
D10*
X247589477Y-115744000D02*
X247513286Y-115705905D01*
X247399001Y-115705905D01*
X247284715Y-115744000D01*
X247208524Y-115820190D01*
X247170429Y-115896381D01*
X247132334Y-116048762D01*
X247132334Y-116163048D01*
X247170429Y-116315429D01*
X247208524Y-116391619D01*
X247284715Y-116467810D01*
X247399001Y-116505905D01*
X247475191Y-116505905D01*
X247589477Y-116467810D01*
X247627572Y-116429714D01*
X247627572Y-116163048D01*
X247475191Y-116163048D01*
X247970429Y-116505905D02*
X247970429Y-115705905D01*
X248427572Y-116505905D01*
X248427572Y-115705905D01*
X248808524Y-116505905D02*
X248808524Y-115705905D01*
X248999000Y-115705905D01*
X249113286Y-115744000D01*
X249189477Y-115820190D01*
X249227572Y-115896381D01*
X249265667Y-116048762D01*
X249265667Y-116163048D01*
X249227572Y-116315429D01*
X249189477Y-116391619D01*
X249113286Y-116467810D01*
X248999000Y-116505905D01*
X248808524Y-116505905D01*
X76543619Y-103822905D02*
X76276952Y-103441952D01*
X76086476Y-103822905D02*
X76086476Y-103022905D01*
X76391238Y-103022905D01*
X76467429Y-103061000D01*
X76505524Y-103099095D01*
X76543619Y-103175286D01*
X76543619Y-103289571D01*
X76505524Y-103365762D01*
X76467429Y-103403857D01*
X76391238Y-103441952D01*
X76086476Y-103441952D01*
X76992524Y-94284333D02*
X77373476Y-94284333D01*
X76916333Y-94512905D02*
X77183000Y-93712905D01*
X77449667Y-94512905D01*
X78173476Y-94512905D02*
X77906809Y-94131952D01*
X77716333Y-94512905D02*
X77716333Y-93712905D01*
X78021095Y-93712905D01*
X78097286Y-93751000D01*
X78135381Y-93789095D01*
X78173476Y-93865286D01*
X78173476Y-93979571D01*
X78135381Y-94055762D01*
X78097286Y-94093857D01*
X78021095Y-94131952D01*
X77716333Y-94131952D01*
X73243620Y-98493905D02*
X72862667Y-98493905D01*
X72824572Y-98874857D01*
X72862667Y-98836762D01*
X72938858Y-98798667D01*
X73129334Y-98798667D01*
X73205524Y-98836762D01*
X73243620Y-98874857D01*
X73281715Y-98951048D01*
X73281715Y-99141524D01*
X73243620Y-99217714D01*
X73205524Y-99255810D01*
X73129334Y-99293905D01*
X72938858Y-99293905D01*
X72862667Y-99255810D01*
X72824572Y-99217714D01*
X73510286Y-98493905D02*
X73776953Y-99293905D01*
X74043620Y-98493905D01*
X73821143Y-100730857D02*
X73935429Y-100768952D01*
X73973524Y-100807048D01*
X74011619Y-100883238D01*
X74011619Y-100997524D01*
X73973524Y-101073714D01*
X73935429Y-101111810D01*
X73859238Y-101149905D01*
X73554476Y-101149905D01*
X73554476Y-100349905D01*
X73821143Y-100349905D01*
X73897333Y-100388000D01*
X73935429Y-100426095D01*
X73973524Y-100502286D01*
X73973524Y-100578476D01*
X73935429Y-100654667D01*
X73897333Y-100692762D01*
X73821143Y-100730857D01*
X73554476Y-100730857D01*
X70572477Y-101266000D02*
X70496286Y-101227905D01*
X70382001Y-101227905D01*
X70267715Y-101266000D01*
X70191524Y-101342190D01*
X70153429Y-101418381D01*
X70115334Y-101570762D01*
X70115334Y-101685048D01*
X70153429Y-101837429D01*
X70191524Y-101913619D01*
X70267715Y-101989810D01*
X70382001Y-102027905D01*
X70458191Y-102027905D01*
X70572477Y-101989810D01*
X70610572Y-101951714D01*
X70610572Y-101685048D01*
X70458191Y-101685048D01*
X70953429Y-102027905D02*
X70953429Y-101227905D01*
X71410572Y-102027905D01*
X71410572Y-101227905D01*
X71791524Y-102027905D02*
X71791524Y-101227905D01*
X71982000Y-101227905D01*
X72096286Y-101266000D01*
X72172477Y-101342190D01*
X72210572Y-101418381D01*
X72248667Y-101570762D01*
X72248667Y-101685048D01*
X72210572Y-101837429D01*
X72172477Y-101913619D01*
X72096286Y-101989810D01*
X71982000Y-102027905D01*
X71791524Y-102027905D01*
X75503715Y-97471333D02*
X75884667Y-97471333D01*
X75427524Y-97699905D02*
X75694191Y-96899905D01*
X75960858Y-97699905D01*
X76608477Y-97699905D02*
X76227524Y-97699905D01*
X76227524Y-96899905D01*
X73991524Y-103062000D02*
X73915333Y-103023905D01*
X73801048Y-103023905D01*
X73686762Y-103062000D01*
X73610571Y-103138190D01*
X73572476Y-103214381D01*
X73534381Y-103366762D01*
X73534381Y-103481048D01*
X73572476Y-103633429D01*
X73610571Y-103709619D01*
X73686762Y-103785810D01*
X73801048Y-103823905D01*
X73877238Y-103823905D01*
X73991524Y-103785810D01*
X74029619Y-103747714D01*
X74029619Y-103481048D01*
X73877238Y-103481048D01*
X75163572Y-102421810D02*
X75277858Y-102459905D01*
X75468334Y-102459905D01*
X75544524Y-102421810D01*
X75582620Y-102383714D01*
X75620715Y-102307524D01*
X75620715Y-102231333D01*
X75582620Y-102155143D01*
X75544524Y-102117048D01*
X75468334Y-102078952D01*
X75315953Y-102040857D01*
X75239762Y-102002762D01*
X75201667Y-101964667D01*
X75163572Y-101888476D01*
X75163572Y-101812286D01*
X75201667Y-101736095D01*
X75239762Y-101698000D01*
X75315953Y-101659905D01*
X75506429Y-101659905D01*
X75620715Y-101698000D01*
X76115953Y-102078952D02*
X76115953Y-102459905D01*
X75849286Y-101659905D02*
X76115953Y-102078952D01*
X76382620Y-101659905D01*
D13*
X130923524Y-101920381D02*
X130447333Y-101920381D01*
X130399714Y-102396571D01*
X130447333Y-102348952D01*
X130542571Y-102301333D01*
X130780667Y-102301333D01*
X130875905Y-102348952D01*
X130923524Y-102396571D01*
X130971143Y-102491810D01*
X130971143Y-102729905D01*
X130923524Y-102825143D01*
X130875905Y-102872762D01*
X130780667Y-102920381D01*
X130542571Y-102920381D01*
X130447333Y-102872762D01*
X130399714Y-102825143D01*
X131256857Y-101920381D02*
X131590190Y-102920381D01*
X131923524Y-101920381D01*
X130019953Y-98785381D02*
X129448524Y-98785381D01*
X129734238Y-98785381D02*
X129734238Y-97785381D01*
X129639000Y-97928238D01*
X129543762Y-98023476D01*
X129448524Y-98071095D01*
X130400905Y-97880619D02*
X130448524Y-97833000D01*
X130543762Y-97785381D01*
X130781858Y-97785381D01*
X130877096Y-97833000D01*
X130924715Y-97880619D01*
X130972334Y-97975857D01*
X130972334Y-98071095D01*
X130924715Y-98213952D01*
X130353286Y-98785381D01*
X130972334Y-98785381D01*
X131258048Y-97785381D02*
X131591381Y-98785381D01*
X131924715Y-97785381D01*
X133120952Y-96702571D02*
X132359047Y-96702571D01*
X132739999Y-96321619D02*
X132739999Y-97083524D01*
X133136952Y-100817571D02*
X132375047Y-100817571D01*
X132755999Y-100436619D02*
X132755999Y-101198524D01*
D12*
X241820238Y-118373810D02*
X241058333Y-118373810D01*
X240982143Y-119135714D01*
X241058333Y-119059524D01*
X241210714Y-118983333D01*
X241591667Y-118983333D01*
X241744048Y-119059524D01*
X241820238Y-119135714D01*
X241896429Y-119288095D01*
X241896429Y-119669048D01*
X241820238Y-119821429D01*
X241744048Y-119897619D01*
X241591667Y-119973810D01*
X241210714Y-119973810D01*
X241058333Y-119897619D01*
X240982143Y-119821429D01*
X242353572Y-118373810D02*
X242886905Y-119973810D01*
X243420239Y-118373810D01*
X192197333Y-118366429D02*
X192121143Y-118442619D01*
X191892571Y-118518810D01*
X191740190Y-118518810D01*
X191511619Y-118442619D01*
X191359238Y-118290238D01*
X191283047Y-118137857D01*
X191206857Y-117833095D01*
X191206857Y-117604524D01*
X191283047Y-117299762D01*
X191359238Y-117147381D01*
X191511619Y-116995000D01*
X191740190Y-116918810D01*
X191892571Y-116918810D01*
X192121143Y-116995000D01*
X192197333Y-117071190D01*
X192883047Y-118518810D02*
X192883047Y-116918810D01*
X193492571Y-116918810D01*
X193644952Y-116995000D01*
X193721143Y-117071190D01*
X193797333Y-117223571D01*
X193797333Y-117452143D01*
X193721143Y-117604524D01*
X193644952Y-117680714D01*
X193492571Y-117756905D01*
X192883047Y-117756905D01*
X194406857Y-117071190D02*
X194483047Y-116995000D01*
X194635428Y-116918810D01*
X195016381Y-116918810D01*
X195168762Y-116995000D01*
X195244952Y-117071190D01*
X195321143Y-117223571D01*
X195321143Y-117375952D01*
X195244952Y-117604524D01*
X194330666Y-118518810D01*
X195321143Y-118518810D01*
X175392333Y-118366429D02*
X175316143Y-118442619D01*
X175087571Y-118518810D01*
X174935190Y-118518810D01*
X174706619Y-118442619D01*
X174554238Y-118290238D01*
X174478047Y-118137857D01*
X174401857Y-117833095D01*
X174401857Y-117604524D01*
X174478047Y-117299762D01*
X174554238Y-117147381D01*
X174706619Y-116995000D01*
X174935190Y-116918810D01*
X175087571Y-116918810D01*
X175316143Y-116995000D01*
X175392333Y-117071190D01*
X176078047Y-118518810D02*
X176078047Y-116918810D01*
X176687571Y-116918810D01*
X176839952Y-116995000D01*
X176916143Y-117071190D01*
X176992333Y-117223571D01*
X176992333Y-117452143D01*
X176916143Y-117604524D01*
X176839952Y-117680714D01*
X176687571Y-117756905D01*
X176078047Y-117756905D01*
X178516143Y-118518810D02*
X177601857Y-118518810D01*
X178059000Y-118518810D02*
X178059000Y-116918810D01*
X177906619Y-117147381D01*
X177754238Y-117299762D01*
X177601857Y-117375952D01*
D13*
X107361191Y-87659667D02*
X107837382Y-87659667D01*
X107265953Y-87945381D02*
X107599286Y-86945381D01*
X107932620Y-87945381D01*
X108265953Y-86945381D02*
X108265953Y-87754905D01*
X108313572Y-87850143D01*
X108361191Y-87897762D01*
X108456429Y-87945381D01*
X108646906Y-87945381D01*
X108742144Y-87897762D01*
X108789763Y-87850143D01*
X108837382Y-87754905D01*
X108837382Y-86945381D01*
X109313572Y-87945381D02*
X109313572Y-86945381D01*
X109551667Y-86945381D01*
X109694525Y-86993000D01*
X109789763Y-87088238D01*
X109837382Y-87183476D01*
X109885001Y-87373952D01*
X109885001Y-87516810D01*
X109837382Y-87707286D01*
X109789763Y-87802524D01*
X109694525Y-87897762D01*
X109551667Y-87945381D01*
X109313572Y-87945381D01*
X110313572Y-87945381D02*
X110313572Y-86945381D01*
X110980238Y-86945381D02*
X111170715Y-86945381D01*
X111265953Y-86993000D01*
X111361191Y-87088238D01*
X111408810Y-87278714D01*
X111408810Y-87612048D01*
X111361191Y-87802524D01*
X111265953Y-87897762D01*
X111170715Y-87945381D01*
X110980238Y-87945381D01*
X110885000Y-87897762D01*
X110789762Y-87802524D01*
X110742143Y-87612048D01*
X110742143Y-87278714D01*
X110789762Y-87088238D01*
X110885000Y-86993000D01*
X110980238Y-86945381D01*
X105922619Y-89402381D02*
X105446428Y-89402381D01*
X105446428Y-88402381D01*
X106255952Y-88878571D02*
X106589286Y-88878571D01*
X106732143Y-89402381D02*
X106255952Y-89402381D01*
X106255952Y-88402381D01*
X106732143Y-88402381D01*
X107494048Y-88878571D02*
X107160714Y-88878571D01*
X107160714Y-89402381D02*
X107160714Y-88402381D01*
X107636905Y-88402381D01*
X107875000Y-88402381D02*
X108446429Y-88402381D01*
X108160714Y-89402381D02*
X108160714Y-88402381D01*
X111266667Y-89402381D02*
X110933333Y-88926190D01*
X110695238Y-89402381D02*
X110695238Y-88402381D01*
X111076191Y-88402381D01*
X111171429Y-88450000D01*
X111219048Y-88497619D01*
X111266667Y-88592857D01*
X111266667Y-88735714D01*
X111219048Y-88830952D01*
X111171429Y-88878571D01*
X111076191Y-88926190D01*
X110695238Y-88926190D01*
X111695238Y-89402381D02*
X111695238Y-88402381D01*
X112695238Y-88450000D02*
X112600000Y-88402381D01*
X112457143Y-88402381D01*
X112314285Y-88450000D01*
X112219047Y-88545238D01*
X112171428Y-88640476D01*
X112123809Y-88830952D01*
X112123809Y-88973810D01*
X112171428Y-89164286D01*
X112219047Y-89259524D01*
X112314285Y-89354762D01*
X112457143Y-89402381D01*
X112552381Y-89402381D01*
X112695238Y-89354762D01*
X112742857Y-89307143D01*
X112742857Y-88973810D01*
X112552381Y-88973810D01*
X113171428Y-89402381D02*
X113171428Y-88402381D01*
X113171428Y-88878571D02*
X113742857Y-88878571D01*
X113742857Y-89402381D02*
X113742857Y-88402381D01*
X114076190Y-88402381D02*
X114647619Y-88402381D01*
X114361904Y-89402381D02*
X114361904Y-88402381D01*
X101690858Y-94717381D02*
X101690858Y-95431667D01*
X101643238Y-95574524D01*
X101548000Y-95669762D01*
X101405143Y-95717381D01*
X101309905Y-95717381D01*
X102119429Y-95431667D02*
X102595620Y-95431667D01*
X102024191Y-95717381D02*
X102357524Y-94717381D01*
X102690858Y-95717381D01*
X103024191Y-95717381D02*
X103024191Y-94717381D01*
X103357525Y-95431667D01*
X103690858Y-94717381D01*
X103690858Y-95717381D01*
X104167048Y-95717381D02*
X104167048Y-94717381D01*
X104500382Y-95431667D01*
X104833715Y-94717381D01*
X104833715Y-95717381D01*
X105262286Y-95431667D02*
X105738477Y-95431667D01*
X105167048Y-95717381D02*
X105500381Y-94717381D01*
X105833715Y-95717381D01*
D11*
X75447000Y-120300000D02*
X75447000Y-109080000D01*
X85417000Y-119430000D02*
X85417000Y-116700000D01*
X77787000Y-119440000D02*
X77787000Y-116710000D01*
X87657000Y-109100000D02*
X87657000Y-120260000D01*
X76477000Y-120920000D02*
X76477000Y-120290000D01*
X84107000Y-123320000D02*
X84107000Y-120940000D01*
X79017000Y-123320000D02*
X79017000Y-120940000D01*
X86637000Y-120900000D02*
X86637000Y-120260000D01*
X83345000Y-116714000D02*
X85377000Y-116714000D01*
X85417000Y-119430000D02*
X77797000Y-119430000D01*
X77757000Y-116714000D02*
X79789000Y-116714000D01*
X86637000Y-120256000D02*
X87653000Y-120256000D01*
X75461000Y-120296000D02*
X76477000Y-120296000D01*
X84107000Y-122556000D02*
X79027000Y-122556000D01*
X86637000Y-120924000D02*
X76477000Y-120924000D01*
X84107000Y-123318000D02*
X79027000Y-123318000D01*
X75471000Y-109094000D02*
X87663000Y-109094000D01*
D14*
X248584000Y-105932000D02*
X250284000Y-107632000D01*
X248584000Y-87932000D02*
X250284000Y-86232000D01*
X248584000Y-87932000D02*
X248584000Y-105932000D01*
X254984000Y-86232000D02*
X254984000Y-107632000D01*
X247584000Y-106432000D02*
X249784000Y-108632000D01*
X247584000Y-87432000D02*
X249784000Y-85232000D01*
X247584000Y-87432000D02*
X247584000Y-106432000D01*
X254984000Y-107632000D02*
X250284000Y-107632000D01*
X254984000Y-86232000D02*
X250284000Y-86232000D01*
X255984000Y-85232000D02*
X255984000Y-108632000D01*
X255984000Y-85232000D02*
X249784000Y-85232000D01*
X255984000Y-108632000D02*
X249784000Y-108632000D01*
D15*
X247152000Y-108879000D02*
X255952000Y-108879000D01*
X255952000Y-108879000D02*
X255952000Y-118079000D01*
X241252000Y-111579000D02*
X241252000Y-108879000D01*
X241252000Y-108879000D02*
X243152000Y-108879000D01*
X255952000Y-118079000D02*
X241252000Y-118079000D01*
X241252000Y-118079000D02*
X241252000Y-115479000D01*
X90820864Y-111357180D02*
G75*
G03X90820000Y-117392482I1179136J-3017820D01*
G01*
X93179136Y-111357180D02*
G75*
G02X93180000Y-117392482I-1179136J-3017820D01*
G01*
X93179136Y-111357180D02*
G75*
G03X90820000Y-111357518I-1179136J-3017820D01*
G01*
X88800000Y-114375000D02*
X95200000Y-114375000D01*
X88800000Y-114335000D02*
X95200000Y-114335000D01*
X88800000Y-114295000D02*
X95200000Y-114295000D01*
X88802000Y-114255000D02*
X95198000Y-114255000D01*
X88803000Y-114215000D02*
X95197000Y-114215000D01*
X88806000Y-114175000D02*
X95194000Y-114175000D01*
X88808000Y-114135000D02*
X95192000Y-114135000D01*
X88812000Y-114095000D02*
X91020000Y-114095000D01*
X92980000Y-114095000D02*
X95188000Y-114095000D01*
X88815000Y-114055000D02*
X91020000Y-114055000D01*
X92980000Y-114055000D02*
X95185000Y-114055000D01*
X88820000Y-114015000D02*
X91020000Y-114015000D01*
X92980000Y-114015000D02*
X95180000Y-114015000D01*
X88824000Y-113975000D02*
X91020000Y-113975000D01*
X92980000Y-113975000D02*
X95176000Y-113975000D01*
X88830000Y-113935000D02*
X91020000Y-113935000D01*
X92980000Y-113935000D02*
X95170000Y-113935000D01*
X88835000Y-113895000D02*
X91020000Y-113895000D01*
X92980000Y-113895000D02*
X95165000Y-113895000D01*
X88842000Y-113855000D02*
X91020000Y-113855000D01*
X92980000Y-113855000D02*
X95158000Y-113855000D01*
X88848000Y-113815000D02*
X91020000Y-113815000D01*
X92980000Y-113815000D02*
X95152000Y-113815000D01*
X88856000Y-113775000D02*
X91020000Y-113775000D01*
X92980000Y-113775000D02*
X95144000Y-113775000D01*
X88863000Y-113735000D02*
X91020000Y-113735000D01*
X92980000Y-113735000D02*
X95137000Y-113735000D01*
X88872000Y-113695000D02*
X91020000Y-113695000D01*
X92980000Y-113695000D02*
X95128000Y-113695000D01*
X88881000Y-113654000D02*
X91020000Y-113654000D01*
X92980000Y-113654000D02*
X95119000Y-113654000D01*
X88890000Y-113614000D02*
X91020000Y-113614000D01*
X92980000Y-113614000D02*
X95110000Y-113614000D01*
X88900000Y-113574000D02*
X91020000Y-113574000D01*
X92980000Y-113574000D02*
X95100000Y-113574000D01*
X88910000Y-113534000D02*
X91020000Y-113534000D01*
X92980000Y-113534000D02*
X95090000Y-113534000D01*
X88921000Y-113494000D02*
X91020000Y-113494000D01*
X92980000Y-113494000D02*
X95079000Y-113494000D01*
X88933000Y-113454000D02*
X91020000Y-113454000D01*
X92980000Y-113454000D02*
X95067000Y-113454000D01*
X88945000Y-113414000D02*
X91020000Y-113414000D01*
X92980000Y-113414000D02*
X95055000Y-113414000D01*
X88958000Y-113374000D02*
X91020000Y-113374000D01*
X92980000Y-113374000D02*
X95042000Y-113374000D01*
X88971000Y-113334000D02*
X91020000Y-113334000D01*
X92980000Y-113334000D02*
X95029000Y-113334000D01*
X88985000Y-113294000D02*
X91020000Y-113294000D01*
X92980000Y-113294000D02*
X95015000Y-113294000D01*
X88999000Y-113254000D02*
X91020000Y-113254000D01*
X92980000Y-113254000D02*
X95001000Y-113254000D01*
X89014000Y-113214000D02*
X91020000Y-113214000D01*
X92980000Y-113214000D02*
X94986000Y-113214000D01*
X89030000Y-113174000D02*
X91020000Y-113174000D01*
X92980000Y-113174000D02*
X94970000Y-113174000D01*
X89046000Y-113134000D02*
X91020000Y-113134000D01*
X92980000Y-113134000D02*
X94954000Y-113134000D01*
X89063000Y-113094000D02*
X91020000Y-113094000D01*
X92980000Y-113094000D02*
X94937000Y-113094000D01*
X89081000Y-113054000D02*
X91020000Y-113054000D01*
X92980000Y-113054000D02*
X94919000Y-113054000D01*
X89099000Y-113014000D02*
X91020000Y-113014000D01*
X92980000Y-113014000D02*
X94901000Y-113014000D01*
X89118000Y-112974000D02*
X91020000Y-112974000D01*
X92980000Y-112974000D02*
X94882000Y-112974000D01*
X89137000Y-112934000D02*
X91020000Y-112934000D01*
X92980000Y-112934000D02*
X94863000Y-112934000D01*
X89157000Y-112894000D02*
X91020000Y-112894000D01*
X92980000Y-112894000D02*
X94843000Y-112894000D01*
X89178000Y-112854000D02*
X91020000Y-112854000D01*
X92980000Y-112854000D02*
X94822000Y-112854000D01*
X89200000Y-112814000D02*
X91020000Y-112814000D01*
X92980000Y-112814000D02*
X94800000Y-112814000D01*
X89222000Y-112774000D02*
X91020000Y-112774000D01*
X92980000Y-112774000D02*
X94778000Y-112774000D01*
X89245000Y-112734000D02*
X91020000Y-112734000D01*
X92980000Y-112734000D02*
X94755000Y-112734000D01*
X89269000Y-112694000D02*
X91020000Y-112694000D01*
X92980000Y-112694000D02*
X94731000Y-112694000D01*
X89294000Y-112654000D02*
X91020000Y-112654000D01*
X92980000Y-112654000D02*
X94706000Y-112654000D01*
X89319000Y-112614000D02*
X91020000Y-112614000D01*
X92980000Y-112614000D02*
X94681000Y-112614000D01*
X89346000Y-112574000D02*
X91020000Y-112574000D01*
X92980000Y-112574000D02*
X94654000Y-112574000D01*
X89373000Y-112534000D02*
X91020000Y-112534000D01*
X92980000Y-112534000D02*
X94627000Y-112534000D01*
X89401000Y-112494000D02*
X91020000Y-112494000D01*
X92980000Y-112494000D02*
X94599000Y-112494000D01*
X89430000Y-112454000D02*
X91020000Y-112454000D01*
X92980000Y-112454000D02*
X94570000Y-112454000D01*
X89460000Y-112414000D02*
X91020000Y-112414000D01*
X92980000Y-112414000D02*
X94540000Y-112414000D01*
X89490000Y-112374000D02*
X91020000Y-112374000D01*
X92980000Y-112374000D02*
X94510000Y-112374000D01*
X89522000Y-112334000D02*
X91020000Y-112334000D01*
X92980000Y-112334000D02*
X94478000Y-112334000D01*
X89555000Y-112294000D02*
X91020000Y-112294000D01*
X92980000Y-112294000D02*
X94445000Y-112294000D01*
X89589000Y-112254000D02*
X91020000Y-112254000D01*
X92980000Y-112254000D02*
X94411000Y-112254000D01*
X89625000Y-112214000D02*
X91020000Y-112214000D01*
X92980000Y-112214000D02*
X94375000Y-112214000D01*
X89661000Y-112174000D02*
X91020000Y-112174000D01*
X92980000Y-112174000D02*
X94339000Y-112174000D01*
X89699000Y-112134000D02*
X94301000Y-112134000D01*
X89738000Y-112094000D02*
X94262000Y-112094000D01*
X89778000Y-112054000D02*
X94222000Y-112054000D01*
X89820000Y-112014000D02*
X94180000Y-112014000D01*
X89863000Y-111974000D02*
X94137000Y-111974000D01*
X89908000Y-111934000D02*
X94092000Y-111934000D01*
X89955000Y-111894000D02*
X94045000Y-111894000D01*
X90003000Y-111854000D02*
X93997000Y-111854000D01*
X90054000Y-111814000D02*
X93946000Y-111814000D01*
X90106000Y-111774000D02*
X93894000Y-111774000D01*
X90161000Y-111734000D02*
X93839000Y-111734000D01*
X90219000Y-111694000D02*
X93781000Y-111694000D01*
X90279000Y-111654000D02*
X93721000Y-111654000D01*
X90342000Y-111614000D02*
X93658000Y-111614000D01*
X90409000Y-111574000D02*
X93591000Y-111574000D01*
X90480000Y-111534000D02*
X93520000Y-111534000D01*
X90555000Y-111494000D02*
X93445000Y-111494000D01*
X90636000Y-111454000D02*
X93364000Y-111454000D01*
X90722000Y-111414000D02*
X93278000Y-111414000D01*
X90816000Y-111374000D02*
X93184000Y-111374000D01*
X90919000Y-111334000D02*
X93081000Y-111334000D01*
X91034000Y-111294000D02*
X92966000Y-111294000D01*
X91166000Y-111254000D02*
X92834000Y-111254000D01*
X91324000Y-111214000D02*
X92676000Y-111214000D01*
X91532000Y-111174000D02*
X92468000Y-111174000D01*
X92000000Y-117825000D02*
X92000000Y-116625000D01*
X91350000Y-117225000D02*
X92650000Y-117225000D01*
X129972000Y-118174000D02*
X129972000Y-107694000D01*
X129972000Y-107694000D02*
X169292000Y-107694000D01*
X169292000Y-107694000D02*
X169292000Y-118174000D01*
X139687000Y-106799662D02*
X140187000Y-106799662D01*
X140187000Y-106799662D02*
X139937000Y-107232675D01*
X139937000Y-107232675D02*
X139687000Y-106799662D01*
X187268000Y-114175000D02*
G75*
G03X187268000Y-114175000I-2286000J0D01*
G01*
X200222000Y-118174000D02*
X200222000Y-107694000D01*
X200222000Y-107694000D02*
X239542000Y-107694000D01*
X239542000Y-107694000D02*
X239542000Y-118174000D01*
X209937000Y-106799662D02*
X210437000Y-106799662D01*
X210437000Y-106799662D02*
X210187000Y-107232675D01*
X210187000Y-107232675D02*
X209937000Y-106799662D01*
X99370864Y-111357180D02*
G75*
G03X99370000Y-117392482I1179136J-3017820D01*
G01*
X101729136Y-111357180D02*
G75*
G02X101730000Y-117392482I-1179136J-3017820D01*
G01*
X101729136Y-111357180D02*
G75*
G03X99370000Y-111357518I-1179136J-3017820D01*
G01*
X97350000Y-114375000D02*
X103750000Y-114375000D01*
X97350000Y-114335000D02*
X103750000Y-114335000D01*
X97350000Y-114295000D02*
X103750000Y-114295000D01*
X97352000Y-114255000D02*
X103748000Y-114255000D01*
X97353000Y-114215000D02*
X103747000Y-114215000D01*
X97356000Y-114175000D02*
X103744000Y-114175000D01*
X97358000Y-114135000D02*
X103742000Y-114135000D01*
X97362000Y-114095000D02*
X99570000Y-114095000D01*
X101530000Y-114095000D02*
X103738000Y-114095000D01*
X97365000Y-114055000D02*
X99570000Y-114055000D01*
X101530000Y-114055000D02*
X103735000Y-114055000D01*
X97370000Y-114015000D02*
X99570000Y-114015000D01*
X101530000Y-114015000D02*
X103730000Y-114015000D01*
X97374000Y-113975000D02*
X99570000Y-113975000D01*
X101530000Y-113975000D02*
X103726000Y-113975000D01*
X97380000Y-113935000D02*
X99570000Y-113935000D01*
X101530000Y-113935000D02*
X103720000Y-113935000D01*
X97385000Y-113895000D02*
X99570000Y-113895000D01*
X101530000Y-113895000D02*
X103715000Y-113895000D01*
X97392000Y-113855000D02*
X99570000Y-113855000D01*
X101530000Y-113855000D02*
X103708000Y-113855000D01*
X97398000Y-113815000D02*
X99570000Y-113815000D01*
X101530000Y-113815000D02*
X103702000Y-113815000D01*
X97406000Y-113775000D02*
X99570000Y-113775000D01*
X101530000Y-113775000D02*
X103694000Y-113775000D01*
X97413000Y-113735000D02*
X99570000Y-113735000D01*
X101530000Y-113735000D02*
X103687000Y-113735000D01*
X97422000Y-113695000D02*
X99570000Y-113695000D01*
X101530000Y-113695000D02*
X103678000Y-113695000D01*
X97431000Y-113654000D02*
X99570000Y-113654000D01*
X101530000Y-113654000D02*
X103669000Y-113654000D01*
X97440000Y-113614000D02*
X99570000Y-113614000D01*
X101530000Y-113614000D02*
X103660000Y-113614000D01*
X97450000Y-113574000D02*
X99570000Y-113574000D01*
X101530000Y-113574000D02*
X103650000Y-113574000D01*
X97460000Y-113534000D02*
X99570000Y-113534000D01*
X101530000Y-113534000D02*
X103640000Y-113534000D01*
X97471000Y-113494000D02*
X99570000Y-113494000D01*
X101530000Y-113494000D02*
X103629000Y-113494000D01*
X97483000Y-113454000D02*
X99570000Y-113454000D01*
X101530000Y-113454000D02*
X103617000Y-113454000D01*
X97495000Y-113414000D02*
X99570000Y-113414000D01*
X101530000Y-113414000D02*
X103605000Y-113414000D01*
X97508000Y-113374000D02*
X99570000Y-113374000D01*
X101530000Y-113374000D02*
X103592000Y-113374000D01*
X97521000Y-113334000D02*
X99570000Y-113334000D01*
X101530000Y-113334000D02*
X103579000Y-113334000D01*
X97535000Y-113294000D02*
X99570000Y-113294000D01*
X101530000Y-113294000D02*
X103565000Y-113294000D01*
X97549000Y-113254000D02*
X99570000Y-113254000D01*
X101530000Y-113254000D02*
X103551000Y-113254000D01*
X97564000Y-113214000D02*
X99570000Y-113214000D01*
X101530000Y-113214000D02*
X103536000Y-113214000D01*
X97580000Y-113174000D02*
X99570000Y-113174000D01*
X101530000Y-113174000D02*
X103520000Y-113174000D01*
X97596000Y-113134000D02*
X99570000Y-113134000D01*
X101530000Y-113134000D02*
X103504000Y-113134000D01*
X97613000Y-113094000D02*
X99570000Y-113094000D01*
X101530000Y-113094000D02*
X103487000Y-113094000D01*
X97631000Y-113054000D02*
X99570000Y-113054000D01*
X101530000Y-113054000D02*
X103469000Y-113054000D01*
X97649000Y-113014000D02*
X99570000Y-113014000D01*
X101530000Y-113014000D02*
X103451000Y-113014000D01*
X97668000Y-112974000D02*
X99570000Y-112974000D01*
X101530000Y-112974000D02*
X103432000Y-112974000D01*
X97687000Y-112934000D02*
X99570000Y-112934000D01*
X101530000Y-112934000D02*
X103413000Y-112934000D01*
X97707000Y-112894000D02*
X99570000Y-112894000D01*
X101530000Y-112894000D02*
X103393000Y-112894000D01*
X97728000Y-112854000D02*
X99570000Y-112854000D01*
X101530000Y-112854000D02*
X103372000Y-112854000D01*
X97750000Y-112814000D02*
X99570000Y-112814000D01*
X101530000Y-112814000D02*
X103350000Y-112814000D01*
X97772000Y-112774000D02*
X99570000Y-112774000D01*
X101530000Y-112774000D02*
X103328000Y-112774000D01*
X97795000Y-112734000D02*
X99570000Y-112734000D01*
X101530000Y-112734000D02*
X103305000Y-112734000D01*
X97819000Y-112694000D02*
X99570000Y-112694000D01*
X101530000Y-112694000D02*
X103281000Y-112694000D01*
X97844000Y-112654000D02*
X99570000Y-112654000D01*
X101530000Y-112654000D02*
X103256000Y-112654000D01*
X97869000Y-112614000D02*
X99570000Y-112614000D01*
X101530000Y-112614000D02*
X103231000Y-112614000D01*
X97896000Y-112574000D02*
X99570000Y-112574000D01*
X101530000Y-112574000D02*
X103204000Y-112574000D01*
X97923000Y-112534000D02*
X99570000Y-112534000D01*
X101530000Y-112534000D02*
X103177000Y-112534000D01*
X97951000Y-112494000D02*
X99570000Y-112494000D01*
X101530000Y-112494000D02*
X103149000Y-112494000D01*
X97980000Y-112454000D02*
X99570000Y-112454000D01*
X101530000Y-112454000D02*
X103120000Y-112454000D01*
X98010000Y-112414000D02*
X99570000Y-112414000D01*
X101530000Y-112414000D02*
X103090000Y-112414000D01*
X98040000Y-112374000D02*
X99570000Y-112374000D01*
X101530000Y-112374000D02*
X103060000Y-112374000D01*
X98072000Y-112334000D02*
X99570000Y-112334000D01*
X101530000Y-112334000D02*
X103028000Y-112334000D01*
X98105000Y-112294000D02*
X99570000Y-112294000D01*
X101530000Y-112294000D02*
X102995000Y-112294000D01*
X98139000Y-112254000D02*
X99570000Y-112254000D01*
X101530000Y-112254000D02*
X102961000Y-112254000D01*
X98175000Y-112214000D02*
X99570000Y-112214000D01*
X101530000Y-112214000D02*
X102925000Y-112214000D01*
X98211000Y-112174000D02*
X99570000Y-112174000D01*
X101530000Y-112174000D02*
X102889000Y-112174000D01*
X98249000Y-112134000D02*
X102851000Y-112134000D01*
X98288000Y-112094000D02*
X102812000Y-112094000D01*
X98328000Y-112054000D02*
X102772000Y-112054000D01*
X98370000Y-112014000D02*
X102730000Y-112014000D01*
X98413000Y-111974000D02*
X102687000Y-111974000D01*
X98458000Y-111934000D02*
X102642000Y-111934000D01*
X98505000Y-111894000D02*
X102595000Y-111894000D01*
X98553000Y-111854000D02*
X102547000Y-111854000D01*
X98604000Y-111814000D02*
X102496000Y-111814000D01*
X98656000Y-111774000D02*
X102444000Y-111774000D01*
X98711000Y-111734000D02*
X102389000Y-111734000D01*
X98769000Y-111694000D02*
X102331000Y-111694000D01*
X98829000Y-111654000D02*
X102271000Y-111654000D01*
X98892000Y-111614000D02*
X102208000Y-111614000D01*
X98959000Y-111574000D02*
X102141000Y-111574000D01*
X99030000Y-111534000D02*
X102070000Y-111534000D01*
X99105000Y-111494000D02*
X101995000Y-111494000D01*
X99186000Y-111454000D02*
X101914000Y-111454000D01*
X99272000Y-111414000D02*
X101828000Y-111414000D01*
X99366000Y-111374000D02*
X101734000Y-111374000D01*
X99469000Y-111334000D02*
X101631000Y-111334000D01*
X99584000Y-111294000D02*
X101516000Y-111294000D01*
X99716000Y-111254000D02*
X101384000Y-111254000D01*
X99874000Y-111214000D02*
X101226000Y-111214000D01*
X100082000Y-111174000D02*
X101018000Y-111174000D01*
X100550000Y-117825000D02*
X100550000Y-116625000D01*
X99900000Y-117225000D02*
X101200000Y-117225000D01*
X107870864Y-111332180D02*
G75*
G03X107870000Y-117367482I1179136J-3017820D01*
G01*
X110229136Y-111332180D02*
G75*
G02X110230000Y-117367482I-1179136J-3017820D01*
G01*
X110229136Y-111332180D02*
G75*
G03X107870000Y-111332518I-1179136J-3017820D01*
G01*
X105850000Y-114350000D02*
X112250000Y-114350000D01*
X105850000Y-114310000D02*
X112250000Y-114310000D01*
X105850000Y-114270000D02*
X112250000Y-114270000D01*
X105852000Y-114230000D02*
X112248000Y-114230000D01*
X105853000Y-114190000D02*
X112247000Y-114190000D01*
X105856000Y-114150000D02*
X112244000Y-114150000D01*
X105858000Y-114110000D02*
X112242000Y-114110000D01*
X105862000Y-114070000D02*
X108070000Y-114070000D01*
X110030000Y-114070000D02*
X112238000Y-114070000D01*
X105865000Y-114030000D02*
X108070000Y-114030000D01*
X110030000Y-114030000D02*
X112235000Y-114030000D01*
X105870000Y-113990000D02*
X108070000Y-113990000D01*
X110030000Y-113990000D02*
X112230000Y-113990000D01*
X105874000Y-113950000D02*
X108070000Y-113950000D01*
X110030000Y-113950000D02*
X112226000Y-113950000D01*
X105880000Y-113910000D02*
X108070000Y-113910000D01*
X110030000Y-113910000D02*
X112220000Y-113910000D01*
X105885000Y-113870000D02*
X108070000Y-113870000D01*
X110030000Y-113870000D02*
X112215000Y-113870000D01*
X105892000Y-113830000D02*
X108070000Y-113830000D01*
X110030000Y-113830000D02*
X112208000Y-113830000D01*
X105898000Y-113790000D02*
X108070000Y-113790000D01*
X110030000Y-113790000D02*
X112202000Y-113790000D01*
X105906000Y-113750000D02*
X108070000Y-113750000D01*
X110030000Y-113750000D02*
X112194000Y-113750000D01*
X105913000Y-113710000D02*
X108070000Y-113710000D01*
X110030000Y-113710000D02*
X112187000Y-113710000D01*
X105922000Y-113670000D02*
X108070000Y-113670000D01*
X110030000Y-113670000D02*
X112178000Y-113670000D01*
X105931000Y-113629000D02*
X108070000Y-113629000D01*
X110030000Y-113629000D02*
X112169000Y-113629000D01*
X105940000Y-113589000D02*
X108070000Y-113589000D01*
X110030000Y-113589000D02*
X112160000Y-113589000D01*
X105950000Y-113549000D02*
X108070000Y-113549000D01*
X110030000Y-113549000D02*
X112150000Y-113549000D01*
X105960000Y-113509000D02*
X108070000Y-113509000D01*
X110030000Y-113509000D02*
X112140000Y-113509000D01*
X105971000Y-113469000D02*
X108070000Y-113469000D01*
X110030000Y-113469000D02*
X112129000Y-113469000D01*
X105983000Y-113429000D02*
X108070000Y-113429000D01*
X110030000Y-113429000D02*
X112117000Y-113429000D01*
X105995000Y-113389000D02*
X108070000Y-113389000D01*
X110030000Y-113389000D02*
X112105000Y-113389000D01*
X106008000Y-113349000D02*
X108070000Y-113349000D01*
X110030000Y-113349000D02*
X112092000Y-113349000D01*
X106021000Y-113309000D02*
X108070000Y-113309000D01*
X110030000Y-113309000D02*
X112079000Y-113309000D01*
X106035000Y-113269000D02*
X108070000Y-113269000D01*
X110030000Y-113269000D02*
X112065000Y-113269000D01*
X106049000Y-113229000D02*
X108070000Y-113229000D01*
X110030000Y-113229000D02*
X112051000Y-113229000D01*
X106064000Y-113189000D02*
X108070000Y-113189000D01*
X110030000Y-113189000D02*
X112036000Y-113189000D01*
X106080000Y-113149000D02*
X108070000Y-113149000D01*
X110030000Y-113149000D02*
X112020000Y-113149000D01*
X106096000Y-113109000D02*
X108070000Y-113109000D01*
X110030000Y-113109000D02*
X112004000Y-113109000D01*
X106113000Y-113069000D02*
X108070000Y-113069000D01*
X110030000Y-113069000D02*
X111987000Y-113069000D01*
X106131000Y-113029000D02*
X108070000Y-113029000D01*
X110030000Y-113029000D02*
X111969000Y-113029000D01*
X106149000Y-112989000D02*
X108070000Y-112989000D01*
X110030000Y-112989000D02*
X111951000Y-112989000D01*
X106168000Y-112949000D02*
X108070000Y-112949000D01*
X110030000Y-112949000D02*
X111932000Y-112949000D01*
X106187000Y-112909000D02*
X108070000Y-112909000D01*
X110030000Y-112909000D02*
X111913000Y-112909000D01*
X106207000Y-112869000D02*
X108070000Y-112869000D01*
X110030000Y-112869000D02*
X111893000Y-112869000D01*
X106228000Y-112829000D02*
X108070000Y-112829000D01*
X110030000Y-112829000D02*
X111872000Y-112829000D01*
X106250000Y-112789000D02*
X108070000Y-112789000D01*
X110030000Y-112789000D02*
X111850000Y-112789000D01*
X106272000Y-112749000D02*
X108070000Y-112749000D01*
X110030000Y-112749000D02*
X111828000Y-112749000D01*
X106295000Y-112709000D02*
X108070000Y-112709000D01*
X110030000Y-112709000D02*
X111805000Y-112709000D01*
X106319000Y-112669000D02*
X108070000Y-112669000D01*
X110030000Y-112669000D02*
X111781000Y-112669000D01*
X106344000Y-112629000D02*
X108070000Y-112629000D01*
X110030000Y-112629000D02*
X111756000Y-112629000D01*
X106369000Y-112589000D02*
X108070000Y-112589000D01*
X110030000Y-112589000D02*
X111731000Y-112589000D01*
X106396000Y-112549000D02*
X108070000Y-112549000D01*
X110030000Y-112549000D02*
X111704000Y-112549000D01*
X106423000Y-112509000D02*
X108070000Y-112509000D01*
X110030000Y-112509000D02*
X111677000Y-112509000D01*
X106451000Y-112469000D02*
X108070000Y-112469000D01*
X110030000Y-112469000D02*
X111649000Y-112469000D01*
X106480000Y-112429000D02*
X108070000Y-112429000D01*
X110030000Y-112429000D02*
X111620000Y-112429000D01*
X106510000Y-112389000D02*
X108070000Y-112389000D01*
X110030000Y-112389000D02*
X111590000Y-112389000D01*
X106540000Y-112349000D02*
X108070000Y-112349000D01*
X110030000Y-112349000D02*
X111560000Y-112349000D01*
X106572000Y-112309000D02*
X108070000Y-112309000D01*
X110030000Y-112309000D02*
X111528000Y-112309000D01*
X106605000Y-112269000D02*
X108070000Y-112269000D01*
X110030000Y-112269000D02*
X111495000Y-112269000D01*
X106639000Y-112229000D02*
X108070000Y-112229000D01*
X110030000Y-112229000D02*
X111461000Y-112229000D01*
X106675000Y-112189000D02*
X108070000Y-112189000D01*
X110030000Y-112189000D02*
X111425000Y-112189000D01*
X106711000Y-112149000D02*
X108070000Y-112149000D01*
X110030000Y-112149000D02*
X111389000Y-112149000D01*
X106749000Y-112109000D02*
X111351000Y-112109000D01*
X106788000Y-112069000D02*
X111312000Y-112069000D01*
X106828000Y-112029000D02*
X111272000Y-112029000D01*
X106870000Y-111989000D02*
X111230000Y-111989000D01*
X106913000Y-111949000D02*
X111187000Y-111949000D01*
X106958000Y-111909000D02*
X111142000Y-111909000D01*
X107005000Y-111869000D02*
X111095000Y-111869000D01*
X107053000Y-111829000D02*
X111047000Y-111829000D01*
X107104000Y-111789000D02*
X110996000Y-111789000D01*
X107156000Y-111749000D02*
X110944000Y-111749000D01*
X107211000Y-111709000D02*
X110889000Y-111709000D01*
X107269000Y-111669000D02*
X110831000Y-111669000D01*
X107329000Y-111629000D02*
X110771000Y-111629000D01*
X107392000Y-111589000D02*
X110708000Y-111589000D01*
X107459000Y-111549000D02*
X110641000Y-111549000D01*
X107530000Y-111509000D02*
X110570000Y-111509000D01*
X107605000Y-111469000D02*
X110495000Y-111469000D01*
X107686000Y-111429000D02*
X110414000Y-111429000D01*
X107772000Y-111389000D02*
X110328000Y-111389000D01*
X107866000Y-111349000D02*
X110234000Y-111349000D01*
X107969000Y-111309000D02*
X110131000Y-111309000D01*
X108084000Y-111269000D02*
X110016000Y-111269000D01*
X108216000Y-111229000D02*
X109884000Y-111229000D01*
X108374000Y-111189000D02*
X109726000Y-111189000D01*
X108582000Y-111149000D02*
X109518000Y-111149000D01*
X109050000Y-117800000D02*
X109050000Y-116600000D01*
X108400000Y-117200000D02*
X109700000Y-117200000D01*
X133124665Y-103404608D02*
G75*
G03X136357000Y-103561516I1672335J1078608D01*
G01*
X133124665Y-101247392D02*
G75*
G02X136357000Y-101090484I1672335J-1078608D01*
G01*
X133755870Y-103405837D02*
G75*
G03X135837961Y-103406000I1041130J1079837D01*
G01*
X133755870Y-101246163D02*
G75*
G02X135837961Y-101246000I1041130J-1079837D01*
G01*
X136357000Y-103562000D02*
X136357000Y-103406000D01*
X136357000Y-101246000D02*
X136357000Y-101090000D01*
X146816000Y-103638000D02*
X146816000Y-101018000D01*
X146816000Y-101018000D02*
X140396000Y-101018000D01*
X140396000Y-101018000D02*
X140396000Y-103638000D01*
X140396000Y-103638000D02*
X146816000Y-103638000D01*
X147706000Y-102328000D02*
X146816000Y-102328000D01*
X139506000Y-102328000D02*
X140396000Y-102328000D01*
X146827000Y-99519000D02*
X146827000Y-96899000D01*
X146827000Y-96899000D02*
X140407000Y-96899000D01*
X140407000Y-96899000D02*
X140407000Y-99519000D01*
X140407000Y-99519000D02*
X146827000Y-99519000D01*
X147717000Y-98209000D02*
X146827000Y-98209000D01*
X139517000Y-98209000D02*
X140407000Y-98209000D01*
X119645000Y-98465000D02*
X119645000Y-101085000D01*
X119645000Y-101085000D02*
X126065000Y-101085000D01*
X126065000Y-101085000D02*
X126065000Y-98465000D01*
X126065000Y-98465000D02*
X119645000Y-98465000D01*
X118755000Y-99775000D02*
X119645000Y-99775000D01*
X126955000Y-99775000D02*
X126065000Y-99775000D01*
X126033000Y-107165000D02*
X126033000Y-104545000D01*
X126033000Y-104545000D02*
X119613000Y-104545000D01*
X119613000Y-104545000D02*
X119613000Y-107165000D01*
X119613000Y-107165000D02*
X126033000Y-107165000D01*
X126923000Y-105855000D02*
X126033000Y-105855000D01*
X118723000Y-105855000D02*
X119613000Y-105855000D01*
X126030000Y-104110000D02*
X126030000Y-101490000D01*
X126030000Y-101490000D02*
X119610000Y-101490000D01*
X119610000Y-101490000D02*
X119610000Y-104110000D01*
X119610000Y-104110000D02*
X126030000Y-104110000D01*
X126920000Y-102800000D02*
X126030000Y-102800000D01*
X118720000Y-102800000D02*
X119610000Y-102800000D01*
X126030000Y-110210000D02*
X126030000Y-107590000D01*
X126030000Y-107590000D02*
X119610000Y-107590000D01*
X119610000Y-107590000D02*
X119610000Y-110210000D01*
X119610000Y-110210000D02*
X126030000Y-110210000D01*
X126920000Y-108900000D02*
X126030000Y-108900000D01*
X118720000Y-108900000D02*
X119610000Y-108900000D01*
X133165665Y-99273608D02*
G75*
G03X136398000Y-99430516I1672335J1078608D01*
G01*
X133165665Y-97116392D02*
G75*
G02X136398000Y-96959484I1672335J-1078608D01*
G01*
X133796870Y-99274837D02*
G75*
G03X135878961Y-99275000I1041130J1079837D01*
G01*
X133796870Y-97115163D02*
G75*
G02X135878961Y-97115000I1041130J-1079837D01*
G01*
X136398000Y-99431000D02*
X136398000Y-99275000D01*
X136398000Y-97115000D02*
X136398000Y-96959000D01*
X119645000Y-95388000D02*
X119645000Y-98008000D01*
X119645000Y-98008000D02*
X126065000Y-98008000D01*
X126065000Y-98008000D02*
X126065000Y-95388000D01*
X126065000Y-95388000D02*
X119645000Y-95388000D01*
X118755000Y-96698000D02*
X119645000Y-96698000D01*
X126955000Y-96698000D02*
X126065000Y-96698000D01*
X116270864Y-111332180D02*
G75*
G03X116270000Y-117367482I1179136J-3017820D01*
G01*
X118629136Y-111332180D02*
G75*
G02X118630000Y-117367482I-1179136J-3017820D01*
G01*
X118629136Y-111332180D02*
G75*
G03X116270000Y-111332518I-1179136J-3017820D01*
G01*
X114250000Y-114350000D02*
X120650000Y-114350000D01*
X114250000Y-114310000D02*
X120650000Y-114310000D01*
X114250000Y-114270000D02*
X120650000Y-114270000D01*
X114252000Y-114230000D02*
X120648000Y-114230000D01*
X114253000Y-114190000D02*
X120647000Y-114190000D01*
X114256000Y-114150000D02*
X120644000Y-114150000D01*
X114258000Y-114110000D02*
X120642000Y-114110000D01*
X114262000Y-114070000D02*
X116470000Y-114070000D01*
X118430000Y-114070000D02*
X120638000Y-114070000D01*
X114265000Y-114030000D02*
X116470000Y-114030000D01*
X118430000Y-114030000D02*
X120635000Y-114030000D01*
X114270000Y-113990000D02*
X116470000Y-113990000D01*
X118430000Y-113990000D02*
X120630000Y-113990000D01*
X114274000Y-113950000D02*
X116470000Y-113950000D01*
X118430000Y-113950000D02*
X120626000Y-113950000D01*
X114280000Y-113910000D02*
X116470000Y-113910000D01*
X118430000Y-113910000D02*
X120620000Y-113910000D01*
X114285000Y-113870000D02*
X116470000Y-113870000D01*
X118430000Y-113870000D02*
X120615000Y-113870000D01*
X114292000Y-113830000D02*
X116470000Y-113830000D01*
X118430000Y-113830000D02*
X120608000Y-113830000D01*
X114298000Y-113790000D02*
X116470000Y-113790000D01*
X118430000Y-113790000D02*
X120602000Y-113790000D01*
X114306000Y-113750000D02*
X116470000Y-113750000D01*
X118430000Y-113750000D02*
X120594000Y-113750000D01*
X114313000Y-113710000D02*
X116470000Y-113710000D01*
X118430000Y-113710000D02*
X120587000Y-113710000D01*
X114322000Y-113670000D02*
X116470000Y-113670000D01*
X118430000Y-113670000D02*
X120578000Y-113670000D01*
X114331000Y-113629000D02*
X116470000Y-113629000D01*
X118430000Y-113629000D02*
X120569000Y-113629000D01*
X114340000Y-113589000D02*
X116470000Y-113589000D01*
X118430000Y-113589000D02*
X120560000Y-113589000D01*
X114350000Y-113549000D02*
X116470000Y-113549000D01*
X118430000Y-113549000D02*
X120550000Y-113549000D01*
X114360000Y-113509000D02*
X116470000Y-113509000D01*
X118430000Y-113509000D02*
X120540000Y-113509000D01*
X114371000Y-113469000D02*
X116470000Y-113469000D01*
X118430000Y-113469000D02*
X120529000Y-113469000D01*
X114383000Y-113429000D02*
X116470000Y-113429000D01*
X118430000Y-113429000D02*
X120517000Y-113429000D01*
X114395000Y-113389000D02*
X116470000Y-113389000D01*
X118430000Y-113389000D02*
X120505000Y-113389000D01*
X114408000Y-113349000D02*
X116470000Y-113349000D01*
X118430000Y-113349000D02*
X120492000Y-113349000D01*
X114421000Y-113309000D02*
X116470000Y-113309000D01*
X118430000Y-113309000D02*
X120479000Y-113309000D01*
X114435000Y-113269000D02*
X116470000Y-113269000D01*
X118430000Y-113269000D02*
X120465000Y-113269000D01*
X114449000Y-113229000D02*
X116470000Y-113229000D01*
X118430000Y-113229000D02*
X120451000Y-113229000D01*
X114464000Y-113189000D02*
X116470000Y-113189000D01*
X118430000Y-113189000D02*
X120436000Y-113189000D01*
X114480000Y-113149000D02*
X116470000Y-113149000D01*
X118430000Y-113149000D02*
X120420000Y-113149000D01*
X114496000Y-113109000D02*
X116470000Y-113109000D01*
X118430000Y-113109000D02*
X120404000Y-113109000D01*
X114513000Y-113069000D02*
X116470000Y-113069000D01*
X118430000Y-113069000D02*
X120387000Y-113069000D01*
X114531000Y-113029000D02*
X116470000Y-113029000D01*
X118430000Y-113029000D02*
X120369000Y-113029000D01*
X114549000Y-112989000D02*
X116470000Y-112989000D01*
X118430000Y-112989000D02*
X120351000Y-112989000D01*
X114568000Y-112949000D02*
X116470000Y-112949000D01*
X118430000Y-112949000D02*
X120332000Y-112949000D01*
X114587000Y-112909000D02*
X116470000Y-112909000D01*
X118430000Y-112909000D02*
X120313000Y-112909000D01*
X114607000Y-112869000D02*
X116470000Y-112869000D01*
X118430000Y-112869000D02*
X120293000Y-112869000D01*
X114628000Y-112829000D02*
X116470000Y-112829000D01*
X118430000Y-112829000D02*
X120272000Y-112829000D01*
X114650000Y-112789000D02*
X116470000Y-112789000D01*
X118430000Y-112789000D02*
X120250000Y-112789000D01*
X114672000Y-112749000D02*
X116470000Y-112749000D01*
X118430000Y-112749000D02*
X120228000Y-112749000D01*
X114695000Y-112709000D02*
X116470000Y-112709000D01*
X118430000Y-112709000D02*
X120205000Y-112709000D01*
X114719000Y-112669000D02*
X116470000Y-112669000D01*
X118430000Y-112669000D02*
X120181000Y-112669000D01*
X114744000Y-112629000D02*
X116470000Y-112629000D01*
X118430000Y-112629000D02*
X120156000Y-112629000D01*
X114769000Y-112589000D02*
X116470000Y-112589000D01*
X118430000Y-112589000D02*
X120131000Y-112589000D01*
X114796000Y-112549000D02*
X116470000Y-112549000D01*
X118430000Y-112549000D02*
X120104000Y-112549000D01*
X114823000Y-112509000D02*
X116470000Y-112509000D01*
X118430000Y-112509000D02*
X120077000Y-112509000D01*
X114851000Y-112469000D02*
X116470000Y-112469000D01*
X118430000Y-112469000D02*
X120049000Y-112469000D01*
X114880000Y-112429000D02*
X116470000Y-112429000D01*
X118430000Y-112429000D02*
X120020000Y-112429000D01*
X114910000Y-112389000D02*
X116470000Y-112389000D01*
X118430000Y-112389000D02*
X119990000Y-112389000D01*
X114940000Y-112349000D02*
X116470000Y-112349000D01*
X118430000Y-112349000D02*
X119960000Y-112349000D01*
X114972000Y-112309000D02*
X116470000Y-112309000D01*
X118430000Y-112309000D02*
X119928000Y-112309000D01*
X115005000Y-112269000D02*
X116470000Y-112269000D01*
X118430000Y-112269000D02*
X119895000Y-112269000D01*
X115039000Y-112229000D02*
X116470000Y-112229000D01*
X118430000Y-112229000D02*
X119861000Y-112229000D01*
X115075000Y-112189000D02*
X116470000Y-112189000D01*
X118430000Y-112189000D02*
X119825000Y-112189000D01*
X115111000Y-112149000D02*
X116470000Y-112149000D01*
X118430000Y-112149000D02*
X119789000Y-112149000D01*
X115149000Y-112109000D02*
X119751000Y-112109000D01*
X115188000Y-112069000D02*
X119712000Y-112069000D01*
X115228000Y-112029000D02*
X119672000Y-112029000D01*
X115270000Y-111989000D02*
X119630000Y-111989000D01*
X115313000Y-111949000D02*
X119587000Y-111949000D01*
X115358000Y-111909000D02*
X119542000Y-111909000D01*
X115405000Y-111869000D02*
X119495000Y-111869000D01*
X115453000Y-111829000D02*
X119447000Y-111829000D01*
X115504000Y-111789000D02*
X119396000Y-111789000D01*
X115556000Y-111749000D02*
X119344000Y-111749000D01*
X115611000Y-111709000D02*
X119289000Y-111709000D01*
X115669000Y-111669000D02*
X119231000Y-111669000D01*
X115729000Y-111629000D02*
X119171000Y-111629000D01*
X115792000Y-111589000D02*
X119108000Y-111589000D01*
X115859000Y-111549000D02*
X119041000Y-111549000D01*
X115930000Y-111509000D02*
X118970000Y-111509000D01*
X116005000Y-111469000D02*
X118895000Y-111469000D01*
X116086000Y-111429000D02*
X118814000Y-111429000D01*
X116172000Y-111389000D02*
X118728000Y-111389000D01*
X116266000Y-111349000D02*
X118634000Y-111349000D01*
X116369000Y-111309000D02*
X118531000Y-111309000D01*
X116484000Y-111269000D02*
X118416000Y-111269000D01*
X116616000Y-111229000D02*
X118284000Y-111229000D01*
X116774000Y-111189000D02*
X118126000Y-111189000D01*
X116982000Y-111149000D02*
X117918000Y-111149000D01*
X117450000Y-117800000D02*
X117450000Y-116600000D01*
X116800000Y-117200000D02*
X118100000Y-117200000D01*
X74444000Y-114744000D02*
G75*
G03X74444000Y-114744000I-2286000J0D01*
G01*
D11*
X248125000Y-119225000D02*
X248125000Y-118525000D01*
X247775000Y-118875000D02*
X248475000Y-118875000D01*
X244075000Y-118875000D02*
X244775000Y-118875000D01*
X245725000Y-119225000D02*
G75*
G03X246625000Y-119425000I550000J350000D01*
G01*
X246625000Y-118325000D02*
G75*
G03X245725000Y-118525000I-350000J-550000D01*
G01*
D14*
X246475000Y-118875000D02*
G75*
G03X246475000Y-118875000I-200000J0D01*
G01*
X246375000Y-118875000D02*
G75*
G03X246375000Y-118875000I-100000J0D01*
G01*
D11*
X247475000Y-118875000D02*
X246575000Y-118875000D01*
X248775000Y-118875000D02*
G75*
G03X248775000Y-118875000I-650000J0D01*
G01*
X245075000Y-118875000D02*
G75*
G03X245075000Y-118875000I-650000J0D01*
G01*
X245625000Y-118875000D02*
X245075000Y-118875000D01*
X245625000Y-118875000D02*
G75*
G03X246275000Y-119525000I650000J0D01*
G01*
X246275000Y-118225000D02*
G75*
G03X245625000Y-118875000I0J-650000D01*
G01*
X121407000Y-85844000D02*
X121407000Y-90374000D01*
X234057000Y-85864000D02*
X234057000Y-90384000D01*
X234007000Y-90384000D02*
X121407000Y-90384000D01*
X233977000Y-85844000D02*
X121377000Y-85844000D01*
D15*
X155732000Y-103458000D02*
X160232000Y-103458000D01*
X154482000Y-99458000D02*
X154482000Y-100958000D01*
X160232000Y-96958000D02*
X155732000Y-96958000D01*
X161482000Y-100958000D02*
X161482000Y-99458000D01*
X173092000Y-109712000D02*
X173092000Y-114212000D01*
X177092000Y-108462000D02*
X175592000Y-108462000D01*
X179592000Y-114212000D02*
X179592000Y-109712000D01*
X175592000Y-115462000D02*
X177092000Y-115462000D01*
X189958000Y-109732000D02*
X189958000Y-114232000D01*
X193958000Y-108482000D02*
X192458000Y-108482000D01*
X196458000Y-114232000D02*
X196458000Y-109732000D01*
X192458000Y-115482000D02*
X193958000Y-115482000D01*
X118111000Y-93375000D02*
G75*
G03X118111000Y-93375000I-2286000J0D01*
G01*
X224086000Y-96550000D02*
G75*
G03X224086000Y-96550000I-2286000J0D01*
G01*
D13*
X94591000Y-104255000D02*
X94591000Y-108555000D01*
X94541000Y-104255000D02*
X89541000Y-104255000D01*
X89541000Y-104255000D02*
X89541000Y-108555000D01*
X89541000Y-108605000D02*
G75*
G03X94591000Y-108555000I2500000J2550000D01*
G01*
D10*
X92941000Y-106805000D02*
G75*
G03X92941000Y-106805000I-900000J0D01*
G01*
D13*
X103091000Y-104255000D02*
X103091000Y-108555000D01*
X103041000Y-104255000D02*
X98041000Y-104255000D01*
X98041000Y-104255000D02*
X98041000Y-108555000D01*
X98041000Y-108605000D02*
G75*
G03X103091000Y-108555000I2500000J2550000D01*
G01*
D10*
X101441000Y-106805000D02*
G75*
G03X101441000Y-106805000I-900000J0D01*
G01*
D13*
X111591000Y-104255000D02*
X111591000Y-108555000D01*
X111541000Y-104255000D02*
X106541000Y-104255000D01*
X106541000Y-104255000D02*
X106541000Y-108555000D01*
X106541000Y-108605000D02*
G75*
G03X111591000Y-108555000I2500000J2550000D01*
G01*
D10*
X109941000Y-106805000D02*
G75*
G03X109941000Y-106805000I-900000J0D01*
G01*
X106774000Y-90039000D02*
X111974000Y-90039000D01*
X106774000Y-92589000D02*
X111974000Y-92589000D01*
X109424000Y-92589000D02*
X109424000Y-97839000D01*
D15*
X106794000Y-97799000D02*
X111994000Y-97799000D01*
X106794000Y-92659000D02*
X106794000Y-97799000D01*
X111994000Y-90059000D02*
X111994000Y-97799000D01*
X106794000Y-92670000D02*
X106794000Y-90070000D01*
X106794000Y-91389000D02*
X106794000Y-90059000D01*
D10*
X177045000Y-104525000D02*
X192432000Y-104530000D01*
X192451000Y-101849000D02*
X177043000Y-101849000D01*
D15*
X177052000Y-101858000D02*
X177052000Y-104518000D01*
X192445000Y-101859000D02*
X192445000Y-104519000D01*
D11*
X245543000Y-92399000D02*
X227438000Y-92399000D01*
X227382000Y-92455000D02*
X227382000Y-105028000D01*
X245487000Y-92399000D02*
X245487000Y-104972000D01*
X245487000Y-104972000D02*
X227382000Y-104972000D01*
X246985000Y-91226000D02*
X225941000Y-91224000D01*
X225961000Y-91225000D02*
X225961000Y-106249000D01*
X246994000Y-106234000D02*
X225950000Y-106232000D01*
X246987000Y-91225000D02*
X246987000Y-106249000D01*
D15*
X74486000Y-88850000D02*
G75*
G03X74486000Y-88850000I-2286000J0D01*
G01*
D11*
X68450000Y-92875000D02*
X79050000Y-92875000D01*
X79050000Y-92875000D02*
X79050000Y-102675000D01*
X79050000Y-102675000D02*
X79050000Y-106075000D01*
X68450000Y-106075000D02*
X79050000Y-106075000D01*
X68450000Y-106475000D02*
X68450000Y-92475000D01*
X68450000Y-92475000D02*
X66550000Y-92475000D01*
X68450000Y-106475000D02*
X66550000Y-106475000D01*
X66550000Y-106475000D02*
X66550000Y-92475000D01*
D16*
X81451286Y-116630167D02*
X81511763Y-116630167D01*
X81439191Y-116666452D02*
X81481525Y-116539452D01*
X81523858Y-116666452D01*
X81632715Y-116666452D02*
X81560143Y-116666452D01*
X81596429Y-116666452D02*
X81596429Y-116539452D01*
X81584334Y-116557595D01*
X81572239Y-116569690D01*
X81560143Y-116575738D01*
X81036166Y-117005167D02*
X81096643Y-117005167D01*
X81024071Y-117041452D02*
X81066405Y-116914452D01*
X81108738Y-117041452D01*
X81151071Y-116914452D02*
X81151071Y-117017262D01*
X81157119Y-117029357D01*
X81163166Y-117035405D01*
X81175262Y-117041452D01*
X81199452Y-117041452D01*
X81211547Y-117035405D01*
X81217595Y-117029357D01*
X81223643Y-117017262D01*
X81223643Y-116914452D01*
X81284119Y-117041452D02*
X81284119Y-116914452D01*
X81314357Y-116914452D01*
X81332500Y-116920500D01*
X81344595Y-116932595D01*
X81350643Y-116944690D01*
X81356691Y-116968881D01*
X81356691Y-116987024D01*
X81350643Y-117011214D01*
X81344595Y-117023310D01*
X81332500Y-117035405D01*
X81314357Y-117041452D01*
X81284119Y-117041452D01*
X81411119Y-117041452D02*
X81411119Y-116914452D01*
X81495786Y-116914452D02*
X81519976Y-116914452D01*
X81532071Y-116920500D01*
X81544167Y-116932595D01*
X81550214Y-116956786D01*
X81550214Y-116999119D01*
X81544167Y-117023310D01*
X81532071Y-117035405D01*
X81519976Y-117041452D01*
X81495786Y-117041452D01*
X81483690Y-117035405D01*
X81471595Y-117023310D01*
X81465547Y-116999119D01*
X81465547Y-116956786D01*
X81471595Y-116932595D01*
X81483690Y-116920500D01*
X81495786Y-116914452D01*
X81574405Y-117053548D02*
X81671167Y-117053548D01*
X81725596Y-116914452D02*
X81749786Y-116914452D01*
X81761881Y-116920500D01*
X81773977Y-116932595D01*
X81780024Y-116956786D01*
X81780024Y-116999119D01*
X81773977Y-117023310D01*
X81761881Y-117035405D01*
X81749786Y-117041452D01*
X81725596Y-117041452D01*
X81713500Y-117035405D01*
X81701405Y-117023310D01*
X81695357Y-116999119D01*
X81695357Y-116956786D01*
X81701405Y-116932595D01*
X81713500Y-116920500D01*
X81725596Y-116914452D01*
X81834453Y-116914452D02*
X81834453Y-117017262D01*
X81840501Y-117029357D01*
X81846548Y-117035405D01*
X81858644Y-117041452D01*
X81882834Y-117041452D01*
X81894929Y-117035405D01*
X81900977Y-117029357D01*
X81907025Y-117017262D01*
X81907025Y-116914452D01*
X81949358Y-116914452D02*
X82021930Y-116914452D01*
X81985644Y-117041452D02*
X81985644Y-116914452D01*
X251806452Y-105227596D02*
X251679452Y-105227596D01*
X251770167Y-105185263D01*
X251679452Y-105142929D01*
X251806452Y-105142929D01*
X251679452Y-105058262D02*
X251679452Y-105034072D01*
X251685500Y-105021977D01*
X251697595Y-105009881D01*
X251721786Y-105003834D01*
X251764119Y-105003834D01*
X251788310Y-105009881D01*
X251800405Y-105021977D01*
X251806452Y-105034072D01*
X251806452Y-105058262D01*
X251800405Y-105070358D01*
X251788310Y-105082453D01*
X251764119Y-105088501D01*
X251721786Y-105088501D01*
X251697595Y-105082453D01*
X251685500Y-105070358D01*
X251679452Y-105058262D01*
X251806452Y-104888929D02*
X251806452Y-104949405D01*
X251679452Y-104949405D01*
X251739929Y-104846595D02*
X251739929Y-104804262D01*
X251806452Y-104786119D02*
X251806452Y-104846595D01*
X251679452Y-104846595D01*
X251679452Y-104786119D01*
X251679452Y-104743785D02*
X251806452Y-104659118D01*
X251679452Y-104659118D02*
X251806452Y-104743785D01*
X251818548Y-104640976D02*
X251818548Y-104544214D01*
X251806452Y-104513976D02*
X251679452Y-104513976D01*
X251679452Y-104465595D01*
X251685500Y-104453500D01*
X251691548Y-104447452D01*
X251703643Y-104441404D01*
X251721786Y-104441404D01*
X251733881Y-104447452D01*
X251739929Y-104453500D01*
X251745976Y-104465595D01*
X251745976Y-104513976D01*
X251679452Y-104362785D02*
X251679452Y-104338595D01*
X251685500Y-104326500D01*
X251697595Y-104314404D01*
X251721786Y-104308357D01*
X251764119Y-104308357D01*
X251788310Y-104314404D01*
X251800405Y-104326500D01*
X251806452Y-104338595D01*
X251806452Y-104362785D01*
X251800405Y-104374881D01*
X251788310Y-104386976D01*
X251764119Y-104393024D01*
X251721786Y-104393024D01*
X251697595Y-104386976D01*
X251685500Y-104374881D01*
X251679452Y-104362785D01*
X251679452Y-104266023D02*
X251806452Y-104235785D01*
X251715738Y-104211595D01*
X251806452Y-104187404D01*
X251679452Y-104157166D01*
X251739929Y-104108785D02*
X251739929Y-104066452D01*
X251806452Y-104048309D02*
X251806452Y-104108785D01*
X251679452Y-104108785D01*
X251679452Y-104048309D01*
X251806452Y-103921308D02*
X251745976Y-103963642D01*
X251806452Y-103993880D02*
X251679452Y-103993880D01*
X251679452Y-103945499D01*
X251685500Y-103933404D01*
X251691548Y-103927356D01*
X251703643Y-103921308D01*
X251721786Y-103921308D01*
X251733881Y-103927356D01*
X251739929Y-103933404D01*
X251745976Y-103945499D01*
X251745976Y-103993880D01*
X251806452Y-103800356D02*
X251806452Y-103872928D01*
X251806452Y-103836642D02*
X251679452Y-103836642D01*
X251697595Y-103848737D01*
X251709690Y-103860832D01*
X251715738Y-103872928D01*
X251804357Y-89847737D02*
X251810405Y-89853785D01*
X251816452Y-89871928D01*
X251816452Y-89884023D01*
X251810405Y-89902166D01*
X251798310Y-89914261D01*
X251786214Y-89920309D01*
X251762024Y-89926357D01*
X251743881Y-89926357D01*
X251719690Y-89920309D01*
X251707595Y-89914261D01*
X251695500Y-89902166D01*
X251689452Y-89884023D01*
X251689452Y-89871928D01*
X251695500Y-89853785D01*
X251701548Y-89847737D01*
X251816452Y-89775166D02*
X251810405Y-89787261D01*
X251804357Y-89793309D01*
X251792262Y-89799357D01*
X251755976Y-89799357D01*
X251743881Y-89793309D01*
X251737833Y-89787261D01*
X251731786Y-89775166D01*
X251731786Y-89757023D01*
X251737833Y-89744928D01*
X251743881Y-89738880D01*
X251755976Y-89732833D01*
X251792262Y-89732833D01*
X251804357Y-89738880D01*
X251810405Y-89744928D01*
X251816452Y-89757023D01*
X251816452Y-89775166D01*
X251731786Y-89678404D02*
X251816452Y-89678404D01*
X251743881Y-89678404D02*
X251737833Y-89672356D01*
X251731786Y-89660261D01*
X251731786Y-89642118D01*
X251737833Y-89630023D01*
X251749929Y-89623975D01*
X251816452Y-89623975D01*
X251731786Y-89563499D02*
X251816452Y-89563499D01*
X251743881Y-89563499D02*
X251737833Y-89557451D01*
X251731786Y-89545356D01*
X251731786Y-89527213D01*
X251737833Y-89515118D01*
X251749929Y-89509070D01*
X251816452Y-89509070D01*
X251828548Y-89478832D02*
X251828548Y-89382070D01*
X251689452Y-89327641D02*
X251689452Y-89315546D01*
X251695500Y-89303451D01*
X251701548Y-89297403D01*
X251713643Y-89291356D01*
X251737833Y-89285308D01*
X251768071Y-89285308D01*
X251792262Y-89291356D01*
X251804357Y-89297403D01*
X251810405Y-89303451D01*
X251816452Y-89315546D01*
X251816452Y-89327641D01*
X251810405Y-89339737D01*
X251804357Y-89345784D01*
X251792262Y-89351832D01*
X251768071Y-89357880D01*
X251737833Y-89357880D01*
X251713643Y-89351832D01*
X251701548Y-89345784D01*
X251695500Y-89339737D01*
X251689452Y-89327641D01*
X251816452Y-89164356D02*
X251816452Y-89236928D01*
X251816452Y-89200642D02*
X251689452Y-89200642D01*
X251707595Y-89212737D01*
X251719690Y-89224832D01*
X251725738Y-89236928D01*
X251816452Y-89122023D02*
X251731786Y-89055499D01*
X251731786Y-89122023D02*
X251816452Y-89055499D01*
X251689452Y-88982927D02*
X251689452Y-88970832D01*
X251695500Y-88958737D01*
X251701548Y-88952689D01*
X251713643Y-88946642D01*
X251737833Y-88940594D01*
X251768071Y-88940594D01*
X251792262Y-88946642D01*
X251804357Y-88952689D01*
X251810405Y-88958737D01*
X251816452Y-88970832D01*
X251816452Y-88982927D01*
X251810405Y-88995023D01*
X251804357Y-89001070D01*
X251792262Y-89007118D01*
X251768071Y-89013166D01*
X251737833Y-89013166D01*
X251713643Y-89007118D01*
X251701548Y-89001070D01*
X251695500Y-88995023D01*
X251689452Y-88982927D01*
X251731786Y-88831737D02*
X251816452Y-88831737D01*
X251683405Y-88861975D02*
X251774119Y-88892214D01*
X251774119Y-88813594D01*
X244670197Y-108774687D02*
X244609721Y-108774687D01*
X244603673Y-108835164D01*
X244609721Y-108829116D01*
X244621816Y-108823068D01*
X244652054Y-108823068D01*
X244664150Y-108829116D01*
X244670197Y-108835164D01*
X244676245Y-108847259D01*
X244676245Y-108877497D01*
X244670197Y-108889592D01*
X244664150Y-108895640D01*
X244652054Y-108901687D01*
X244621816Y-108901687D01*
X244609721Y-108895640D01*
X244603673Y-108889592D01*
X244712530Y-108774687D02*
X244754864Y-108901687D01*
X244797197Y-108774687D01*
X244809292Y-108913783D02*
X244906054Y-108913783D01*
X244936292Y-108901687D02*
X244936292Y-108774687D01*
X244984673Y-108774687D01*
X244996768Y-108780735D01*
X245002816Y-108786783D01*
X245008864Y-108798878D01*
X245008864Y-108817021D01*
X245002816Y-108829116D01*
X244996768Y-108835164D01*
X244984673Y-108841211D01*
X244936292Y-108841211D01*
X245087483Y-108774687D02*
X245111673Y-108774687D01*
X245123768Y-108780735D01*
X245135864Y-108792830D01*
X245141911Y-108817021D01*
X245141911Y-108859354D01*
X245135864Y-108883545D01*
X245123768Y-108895640D01*
X245111673Y-108901687D01*
X245087483Y-108901687D01*
X245075387Y-108895640D01*
X245063292Y-108883545D01*
X245057244Y-108859354D01*
X245057244Y-108817021D01*
X245063292Y-108792830D01*
X245075387Y-108780735D01*
X245087483Y-108774687D01*
X245184245Y-108774687D02*
X245214483Y-108901687D01*
X245238673Y-108810973D01*
X245262864Y-108901687D01*
X245293102Y-108774687D01*
X245341483Y-108835164D02*
X245383816Y-108835164D01*
X245401959Y-108901687D02*
X245341483Y-108901687D01*
X245341483Y-108774687D01*
X245401959Y-108774687D01*
X245528960Y-108901687D02*
X245486626Y-108841211D01*
X245456388Y-108901687D02*
X245456388Y-108774687D01*
X245504769Y-108774687D01*
X245516864Y-108780735D01*
X245522912Y-108786783D01*
X245528960Y-108798878D01*
X245528960Y-108817021D01*
X245522912Y-108829116D01*
X245516864Y-108835164D01*
X245504769Y-108841211D01*
X245456388Y-108841211D01*
X245649912Y-108901687D02*
X245577340Y-108901687D01*
X245613626Y-108901687D02*
X245613626Y-108774687D01*
X245601531Y-108792830D01*
X245589436Y-108804925D01*
X245577340Y-108810973D01*
D10*
X93195333Y-116852751D02*
X93162000Y-116815250D01*
X93128667Y-116744417D01*
X93128667Y-116577750D01*
X93162000Y-116515250D01*
X93195333Y-116486084D01*
X93262000Y-116461084D01*
X93328667Y-116469417D01*
X93428667Y-116515250D01*
X93828667Y-116965250D01*
X93828667Y-116531917D01*
X93195333Y-116186084D02*
X93162000Y-116148583D01*
X93128667Y-116077750D01*
X93128667Y-115911083D01*
X93162000Y-115848583D01*
X93195333Y-115819417D01*
X93262000Y-115794417D01*
X93328667Y-115802750D01*
X93428667Y-115848583D01*
X93828667Y-116298583D01*
X93828667Y-115865250D01*
X93128667Y-115344416D02*
X93128667Y-115277749D01*
X93162000Y-115215250D01*
X93195333Y-115186083D01*
X93262000Y-115161083D01*
X93395333Y-115144417D01*
X93562000Y-115165250D01*
X93695333Y-115215250D01*
X93762000Y-115256916D01*
X93795333Y-115294417D01*
X93828667Y-115365249D01*
X93828667Y-115431916D01*
X93795333Y-115494417D01*
X93762000Y-115523583D01*
X93695333Y-115548583D01*
X93562000Y-115565250D01*
X93395333Y-115544417D01*
X93262000Y-115494416D01*
X93195333Y-115452750D01*
X93162000Y-115415250D01*
X93128667Y-115344416D01*
X93362000Y-114540249D02*
X93828667Y-114598582D01*
X93362000Y-114840249D02*
X93728667Y-114886082D01*
X93795333Y-114861083D01*
X93828667Y-114798582D01*
X93828667Y-114698582D01*
X93795333Y-114627750D01*
X93762000Y-114590249D01*
D12*
X144663190Y-106768810D02*
X144663190Y-105168810D01*
X145272714Y-105168810D01*
X145425095Y-105245000D01*
X145501286Y-105321190D01*
X145577476Y-105473571D01*
X145577476Y-105702143D01*
X145501286Y-105854524D01*
X145425095Y-105930714D01*
X145272714Y-106006905D01*
X144663190Y-106006905D01*
X147025095Y-106768810D02*
X146263190Y-106768810D01*
X146263190Y-105168810D01*
X147482238Y-106311667D02*
X148244143Y-106311667D01*
X147329857Y-106768810D02*
X147863190Y-105168810D01*
X148396524Y-106768810D01*
X149234619Y-106006905D02*
X149234619Y-106768810D01*
X148701286Y-105168810D02*
X149234619Y-106006905D01*
X149767953Y-105168810D01*
X150301286Y-105930714D02*
X150834620Y-105930714D01*
X151063191Y-106768810D02*
X150301286Y-106768810D01*
X150301286Y-105168810D01*
X151063191Y-105168810D01*
X152663191Y-106768810D02*
X152129858Y-106006905D01*
X151748905Y-106768810D02*
X151748905Y-105168810D01*
X152358429Y-105168810D01*
X152510810Y-105245000D01*
X152587001Y-105321190D01*
X152663191Y-105473571D01*
X152663191Y-105702143D01*
X152587001Y-105854524D01*
X152510810Y-105930714D01*
X152358429Y-106006905D01*
X151748905Y-106006905D01*
X154187001Y-106768810D02*
X153272715Y-106768810D01*
X153729858Y-106768810D02*
X153729858Y-105168810D01*
X153577477Y-105397381D01*
X153425096Y-105549762D01*
X153272715Y-105625952D01*
D11*
X184310095Y-114777381D02*
X184310095Y-113777381D01*
X184310095Y-114253571D02*
X184881524Y-114253571D01*
X184881524Y-114777381D02*
X184881524Y-113777381D01*
X185310095Y-113872619D02*
X185357714Y-113825000D01*
X185452952Y-113777381D01*
X185691048Y-113777381D01*
X185786286Y-113825000D01*
X185833905Y-113872619D01*
X185881524Y-113967857D01*
X185881524Y-114063095D01*
X185833905Y-114205952D01*
X185262476Y-114777381D01*
X185881524Y-114777381D01*
D12*
X214742190Y-106781810D02*
X214742190Y-105181810D01*
X215351714Y-105181810D01*
X215504095Y-105258000D01*
X215580286Y-105334190D01*
X215656476Y-105486571D01*
X215656476Y-105715143D01*
X215580286Y-105867524D01*
X215504095Y-105943714D01*
X215351714Y-106019905D01*
X214742190Y-106019905D01*
X217104095Y-106781810D02*
X216342190Y-106781810D01*
X216342190Y-105181810D01*
X217561238Y-106324667D02*
X218323143Y-106324667D01*
X217408857Y-106781810D02*
X217942190Y-105181810D01*
X218475524Y-106781810D01*
X219313619Y-106019905D02*
X219313619Y-106781810D01*
X218780286Y-105181810D02*
X219313619Y-106019905D01*
X219846953Y-105181810D01*
X220380286Y-105943714D02*
X220913620Y-105943714D01*
X221142191Y-106781810D02*
X220380286Y-106781810D01*
X220380286Y-105181810D01*
X221142191Y-105181810D01*
X222742191Y-106781810D02*
X222208858Y-106019905D01*
X221827905Y-106781810D02*
X221827905Y-105181810D01*
X222437429Y-105181810D01*
X222589810Y-105258000D01*
X222666001Y-105334190D01*
X222742191Y-105486571D01*
X222742191Y-105715143D01*
X222666001Y-105867524D01*
X222589810Y-105943714D01*
X222437429Y-106019905D01*
X221827905Y-106019905D01*
X223351715Y-105334190D02*
X223427905Y-105258000D01*
X223580286Y-105181810D01*
X223961239Y-105181810D01*
X224113620Y-105258000D01*
X224189810Y-105334190D01*
X224266001Y-105486571D01*
X224266001Y-105638952D01*
X224189810Y-105867524D01*
X223275524Y-106781810D01*
X224266001Y-106781810D01*
D10*
X101741333Y-116852751D02*
X101708000Y-116815250D01*
X101674667Y-116744417D01*
X101674667Y-116577750D01*
X101708000Y-116515250D01*
X101741333Y-116486084D01*
X101808000Y-116461084D01*
X101874667Y-116469417D01*
X101974667Y-116515250D01*
X102374667Y-116965250D01*
X102374667Y-116531917D01*
X101741333Y-116186084D02*
X101708000Y-116148583D01*
X101674667Y-116077750D01*
X101674667Y-115911083D01*
X101708000Y-115848583D01*
X101741333Y-115819417D01*
X101808000Y-115794417D01*
X101874667Y-115802750D01*
X101974667Y-115848583D01*
X102374667Y-116298583D01*
X102374667Y-115865250D01*
X101674667Y-115344416D02*
X101674667Y-115277749D01*
X101708000Y-115215250D01*
X101741333Y-115186083D01*
X101808000Y-115161083D01*
X101941333Y-115144417D01*
X102108000Y-115165250D01*
X102241333Y-115215250D01*
X102308000Y-115256916D01*
X102341333Y-115294417D01*
X102374667Y-115365249D01*
X102374667Y-115431916D01*
X102341333Y-115494417D01*
X102308000Y-115523583D01*
X102241333Y-115548583D01*
X102108000Y-115565250D01*
X101941333Y-115544417D01*
X101808000Y-115494416D01*
X101741333Y-115452750D01*
X101708000Y-115415250D01*
X101674667Y-115344416D01*
X101908000Y-114540249D02*
X102374667Y-114598582D01*
X101908000Y-114840249D02*
X102274667Y-114886082D01*
X102341333Y-114861083D01*
X102374667Y-114798582D01*
X102374667Y-114698582D01*
X102341333Y-114627750D01*
X102308000Y-114590249D01*
X110282333Y-116839751D02*
X110249000Y-116802250D01*
X110215667Y-116731417D01*
X110215667Y-116564750D01*
X110249000Y-116502250D01*
X110282333Y-116473084D01*
X110349000Y-116448084D01*
X110415667Y-116456417D01*
X110515667Y-116502250D01*
X110915667Y-116952250D01*
X110915667Y-116518917D01*
X110282333Y-116173084D02*
X110249000Y-116135583D01*
X110215667Y-116064750D01*
X110215667Y-115898083D01*
X110249000Y-115835583D01*
X110282333Y-115806417D01*
X110349000Y-115781417D01*
X110415667Y-115789750D01*
X110515667Y-115835583D01*
X110915667Y-116285583D01*
X110915667Y-115852250D01*
X110215667Y-115331416D02*
X110215667Y-115264749D01*
X110249000Y-115202250D01*
X110282333Y-115173083D01*
X110349000Y-115148083D01*
X110482333Y-115131417D01*
X110649000Y-115152250D01*
X110782333Y-115202250D01*
X110849000Y-115243916D01*
X110882333Y-115281417D01*
X110915667Y-115352249D01*
X110915667Y-115418916D01*
X110882333Y-115481417D01*
X110849000Y-115510583D01*
X110782333Y-115535583D01*
X110649000Y-115552250D01*
X110482333Y-115531417D01*
X110349000Y-115481416D01*
X110282333Y-115439750D01*
X110249000Y-115402250D01*
X110215667Y-115331416D01*
X110449000Y-114527249D02*
X110915667Y-114585582D01*
X110449000Y-114827249D02*
X110815667Y-114873082D01*
X110882333Y-114848083D01*
X110915667Y-114785582D01*
X110915667Y-114685582D01*
X110882333Y-114614750D01*
X110849000Y-114577249D01*
D16*
X135995262Y-102394452D02*
X135995262Y-102267452D01*
X136025500Y-102267452D01*
X136043643Y-102273500D01*
X136055738Y-102285595D01*
X136061786Y-102297690D01*
X136067834Y-102321881D01*
X136067834Y-102340024D01*
X136061786Y-102364214D01*
X136055738Y-102376310D01*
X136043643Y-102388405D01*
X136025500Y-102394452D01*
X135995262Y-102394452D01*
X136188786Y-102394452D02*
X136116214Y-102394452D01*
X136152500Y-102394452D02*
X136152500Y-102267452D01*
X136140405Y-102285595D01*
X136128310Y-102297690D01*
X136116214Y-102303738D01*
D10*
X142745917Y-101979667D02*
X143179250Y-101979667D01*
X142912583Y-102246333D01*
X143012583Y-102246333D01*
X143075084Y-102279667D01*
X143104250Y-102313000D01*
X143129250Y-102379667D01*
X143108416Y-102546333D01*
X143066750Y-102613000D01*
X143029250Y-102646333D01*
X142958417Y-102679667D01*
X142758417Y-102679667D01*
X142695916Y-102646333D01*
X142666750Y-102613000D01*
X143412584Y-101979667D02*
X143845917Y-101979667D01*
X143579250Y-102246333D01*
X143679250Y-102246333D01*
X143741751Y-102279667D01*
X143770917Y-102313000D01*
X143795917Y-102379667D01*
X143775083Y-102546333D01*
X143733417Y-102613000D01*
X143695917Y-102646333D01*
X143625084Y-102679667D01*
X143425084Y-102679667D01*
X143362583Y-102646333D01*
X143333417Y-102613000D01*
X144279251Y-101979667D02*
X144345918Y-101979667D01*
X144408417Y-102013000D01*
X144437584Y-102046333D01*
X144462584Y-102113000D01*
X144479250Y-102246333D01*
X144458417Y-102413000D01*
X144408417Y-102546333D01*
X144366751Y-102613000D01*
X144329250Y-102646333D01*
X144258418Y-102679667D01*
X144191751Y-102679667D01*
X144129250Y-102646333D01*
X144100084Y-102613000D01*
X144075084Y-102546333D01*
X144058417Y-102413000D01*
X144079250Y-102246333D01*
X144129251Y-102113000D01*
X144170917Y-102046333D01*
X144208417Y-102013000D01*
X144279251Y-101979667D01*
X143095584Y-97870667D02*
X142962250Y-97870667D01*
X142891417Y-97904000D01*
X142853916Y-97937333D01*
X142774750Y-98037333D01*
X142724750Y-98170667D01*
X142691416Y-98437333D01*
X142716417Y-98504000D01*
X142745583Y-98537333D01*
X142808084Y-98570667D01*
X142941417Y-98570667D01*
X143012250Y-98537333D01*
X143049750Y-98504000D01*
X143091416Y-98437333D01*
X143112250Y-98270667D01*
X143087250Y-98204000D01*
X143058084Y-98170667D01*
X142995583Y-98137333D01*
X142862250Y-98137333D01*
X142791417Y-98170667D01*
X142753917Y-98204000D01*
X142712250Y-98270667D01*
X143524751Y-98170667D02*
X143462250Y-98137333D01*
X143433084Y-98104000D01*
X143408083Y-98037333D01*
X143412250Y-98004000D01*
X143453917Y-97937333D01*
X143491417Y-97904000D01*
X143562251Y-97870667D01*
X143695584Y-97870667D01*
X143758084Y-97904000D01*
X143787250Y-97937333D01*
X143812250Y-98004000D01*
X143808083Y-98037333D01*
X143766417Y-98104000D01*
X143728917Y-98137333D01*
X143658084Y-98170667D01*
X143524751Y-98170667D01*
X143453917Y-98204000D01*
X143416417Y-98237333D01*
X143374750Y-98304000D01*
X143358083Y-98437333D01*
X143383084Y-98504000D01*
X143412250Y-98537333D01*
X143474751Y-98570667D01*
X143608084Y-98570667D01*
X143678917Y-98537333D01*
X143716417Y-98504000D01*
X143758083Y-98437333D01*
X143774750Y-98304000D01*
X143749750Y-98237333D01*
X143720584Y-98204000D01*
X143658084Y-98170667D01*
X144262251Y-97870667D02*
X144328918Y-97870667D01*
X144391417Y-97904000D01*
X144420584Y-97937333D01*
X144445584Y-98004000D01*
X144462250Y-98137333D01*
X144441417Y-98304000D01*
X144391417Y-98437333D01*
X144349751Y-98504000D01*
X144312250Y-98537333D01*
X144241418Y-98570667D01*
X144174751Y-98570667D01*
X144112250Y-98537333D01*
X144083084Y-98504000D01*
X144058084Y-98437333D01*
X144041417Y-98304000D01*
X144062250Y-98137333D01*
X144112251Y-98004000D01*
X144153917Y-97937333D01*
X144191417Y-97904000D01*
X144262251Y-97870667D01*
X122368750Y-99966667D02*
X121968750Y-99966667D01*
X122168750Y-99966667D02*
X122256250Y-99266667D01*
X122177084Y-99366667D01*
X122102083Y-99433333D01*
X122031250Y-99466667D01*
X122889584Y-99266667D02*
X122956251Y-99266667D01*
X123018750Y-99300000D01*
X123047917Y-99333333D01*
X123072917Y-99400000D01*
X123089583Y-99533333D01*
X123068750Y-99700000D01*
X123018750Y-99833333D01*
X122977084Y-99900000D01*
X122939583Y-99933333D01*
X122868751Y-99966667D01*
X122802084Y-99966667D01*
X122739583Y-99933333D01*
X122710417Y-99900000D01*
X122685417Y-99833333D01*
X122668750Y-99700000D01*
X122689583Y-99533333D01*
X122739584Y-99400000D01*
X122781250Y-99333333D01*
X122818750Y-99300000D01*
X122889584Y-99266667D01*
X123335418Y-99966667D02*
X123422918Y-99266667D01*
X123435417Y-99700000D02*
X123602084Y-99966667D01*
X123660417Y-99500000D02*
X123360418Y-99766667D01*
X122727083Y-106116667D02*
X122327083Y-106116667D01*
X122527083Y-106116667D02*
X122614583Y-105416667D01*
X122535417Y-105516667D01*
X122460416Y-105583333D01*
X122389583Y-105616667D01*
X123027084Y-106116667D02*
X123114584Y-105416667D01*
X123127083Y-105850000D02*
X123293750Y-106116667D01*
X123352083Y-105650000D02*
X123052084Y-105916667D01*
X122378750Y-103090667D02*
X121978750Y-103090667D01*
X122178750Y-103090667D02*
X122266250Y-102390667D01*
X122187084Y-102490667D01*
X122112083Y-102557333D01*
X122041250Y-102590667D01*
X122899584Y-102390667D02*
X122966251Y-102390667D01*
X123028750Y-102424000D01*
X123057917Y-102457333D01*
X123082917Y-102524000D01*
X123099583Y-102657333D01*
X123078750Y-102824000D01*
X123028750Y-102957333D01*
X122987084Y-103024000D01*
X122949583Y-103057333D01*
X122878751Y-103090667D01*
X122812084Y-103090667D01*
X122749583Y-103057333D01*
X122720417Y-103024000D01*
X122695417Y-102957333D01*
X122678750Y-102824000D01*
X122699583Y-102657333D01*
X122749584Y-102524000D01*
X122791250Y-102457333D01*
X122828750Y-102424000D01*
X122899584Y-102390667D01*
X123345418Y-103090667D02*
X123432918Y-102390667D01*
X123445417Y-102824000D02*
X123612084Y-103090667D01*
X123670417Y-102624000D02*
X123370418Y-102890667D01*
X122752083Y-109241667D02*
X122352083Y-109241667D01*
X122552083Y-109241667D02*
X122639583Y-108541667D01*
X122560417Y-108641667D01*
X122485416Y-108708333D01*
X122414583Y-108741667D01*
X123052084Y-109241667D02*
X123139584Y-108541667D01*
X123152083Y-108975000D02*
X123318750Y-109241667D01*
X123377083Y-108775000D02*
X123077084Y-109041667D01*
D16*
X136026262Y-98267452D02*
X136026262Y-98140452D01*
X136056500Y-98140452D01*
X136074643Y-98146500D01*
X136086738Y-98158595D01*
X136092786Y-98170690D01*
X136098834Y-98194881D01*
X136098834Y-98213024D01*
X136092786Y-98237214D01*
X136086738Y-98249310D01*
X136074643Y-98261405D01*
X136056500Y-98267452D01*
X136026262Y-98267452D01*
X136147214Y-98152548D02*
X136153262Y-98146500D01*
X136165357Y-98140452D01*
X136195595Y-98140452D01*
X136207691Y-98146500D01*
X136213738Y-98152548D01*
X136219786Y-98164643D01*
X136219786Y-98176738D01*
X136213738Y-98194881D01*
X136141167Y-98267452D01*
X136219786Y-98267452D01*
D10*
X122253417Y-96662000D02*
X122195084Y-97128667D01*
X122120083Y-96395333D02*
X121890916Y-96895333D01*
X122324250Y-96895333D01*
X122582584Y-96428667D02*
X123049251Y-96428667D01*
X122661751Y-97128667D01*
X123449251Y-96428667D02*
X123515918Y-96428667D01*
X123578417Y-96462000D01*
X123607584Y-96495333D01*
X123632584Y-96562000D01*
X123649250Y-96695333D01*
X123628417Y-96862000D01*
X123578417Y-96995333D01*
X123536751Y-97062000D01*
X123499250Y-97095333D01*
X123428418Y-97128667D01*
X123361751Y-97128667D01*
X123299250Y-97095333D01*
X123270084Y-97062000D01*
X123245084Y-96995333D01*
X123228417Y-96862000D01*
X123249250Y-96695333D01*
X123299251Y-96562000D01*
X123340917Y-96495333D01*
X123378417Y-96462000D01*
X123449251Y-96428667D01*
X118667333Y-116819751D02*
X118634000Y-116782250D01*
X118600667Y-116711417D01*
X118600667Y-116544750D01*
X118634000Y-116482250D01*
X118667333Y-116453084D01*
X118734000Y-116428084D01*
X118800667Y-116436417D01*
X118900667Y-116482250D01*
X119300667Y-116932250D01*
X119300667Y-116498917D01*
X118667333Y-116153084D02*
X118634000Y-116115583D01*
X118600667Y-116044750D01*
X118600667Y-115878083D01*
X118634000Y-115815583D01*
X118667333Y-115786417D01*
X118734000Y-115761417D01*
X118800667Y-115769750D01*
X118900667Y-115815583D01*
X119300667Y-116265583D01*
X119300667Y-115832250D01*
X118600667Y-115311416D02*
X118600667Y-115244749D01*
X118634000Y-115182250D01*
X118667333Y-115153083D01*
X118734000Y-115128083D01*
X118867333Y-115111417D01*
X119034000Y-115132250D01*
X119167333Y-115182250D01*
X119234000Y-115223916D01*
X119267333Y-115261417D01*
X119300667Y-115332249D01*
X119300667Y-115398916D01*
X119267333Y-115461417D01*
X119234000Y-115490583D01*
X119167333Y-115515583D01*
X119034000Y-115532250D01*
X118867333Y-115511417D01*
X118734000Y-115461416D01*
X118667333Y-115419750D01*
X118634000Y-115382250D01*
X118600667Y-115311416D01*
X118834000Y-114507249D02*
X119300667Y-114565582D01*
X118834000Y-114807249D02*
X119200667Y-114853082D01*
X119267333Y-114828083D01*
X119300667Y-114765582D01*
X119300667Y-114665582D01*
X119267333Y-114594750D01*
X119234000Y-114557249D01*
D11*
X71486095Y-115306381D02*
X71486095Y-114306381D01*
X71486095Y-114782571D02*
X72057524Y-114782571D01*
X72057524Y-115306381D02*
X72057524Y-114306381D01*
X73057524Y-115306381D02*
X72486095Y-115306381D01*
X72771809Y-115306381D02*
X72771809Y-114306381D01*
X72676571Y-114449238D01*
X72581333Y-114544476D01*
X72486095Y-114592095D01*
D16*
X171370667Y-87974452D02*
X171370667Y-88065167D01*
X171364619Y-88083310D01*
X171352524Y-88095405D01*
X171334381Y-88101452D01*
X171322286Y-88101452D01*
X171425095Y-88065167D02*
X171485572Y-88065167D01*
X171413000Y-88101452D02*
X171455334Y-87974452D01*
X171497667Y-88101452D01*
X171540000Y-88101452D02*
X171540000Y-87974452D01*
X171582333Y-88065167D01*
X171624667Y-87974452D01*
X171624667Y-88101452D01*
X171685143Y-88101452D02*
X171685143Y-87974452D01*
X171727476Y-88065167D01*
X171769810Y-87974452D01*
X171769810Y-88101452D01*
X171824238Y-88065167D02*
X171884715Y-88065167D01*
X171812143Y-88101452D02*
X171854477Y-87974452D01*
X171896810Y-88101452D01*
X172005667Y-88101452D02*
X171933095Y-88101452D01*
X171969381Y-88101452D02*
X171969381Y-87974452D01*
X171957286Y-87992595D01*
X171945191Y-88004690D01*
X171933095Y-88010738D01*
X161085667Y-97999405D02*
X161103810Y-98005452D01*
X161134048Y-98005452D01*
X161146144Y-97999405D01*
X161152191Y-97993357D01*
X161158239Y-97981262D01*
X161158239Y-97969167D01*
X161152191Y-97957071D01*
X161146144Y-97951024D01*
X161134048Y-97944976D01*
X161109858Y-97938929D01*
X161097763Y-97932881D01*
X161091715Y-97926833D01*
X161085667Y-97914738D01*
X161085667Y-97902643D01*
X161091715Y-97890548D01*
X161097763Y-97884500D01*
X161109858Y-97878452D01*
X161140096Y-97878452D01*
X161158239Y-97884500D01*
X161200572Y-97878452D02*
X161230810Y-98005452D01*
X161255000Y-97914738D01*
X161279191Y-98005452D01*
X161309429Y-97878452D01*
X161345715Y-97878452D02*
X161424334Y-97878452D01*
X161382001Y-97926833D01*
X161400143Y-97926833D01*
X161412239Y-97932881D01*
X161418286Y-97938929D01*
X161424334Y-97951024D01*
X161424334Y-97981262D01*
X161418286Y-97993357D01*
X161412239Y-97999405D01*
X161400143Y-98005452D01*
X161363858Y-98005452D01*
X161351762Y-97999405D01*
X161345715Y-97993357D01*
X178621405Y-115445333D02*
X178627452Y-115427190D01*
X178627452Y-115396952D01*
X178621405Y-115384856D01*
X178615357Y-115378809D01*
X178603262Y-115372761D01*
X178591167Y-115372761D01*
X178579071Y-115378809D01*
X178573024Y-115384856D01*
X178566976Y-115396952D01*
X178560929Y-115421142D01*
X178554881Y-115433237D01*
X178548833Y-115439285D01*
X178536738Y-115445333D01*
X178524643Y-115445333D01*
X178512548Y-115439285D01*
X178506500Y-115433237D01*
X178500452Y-115421142D01*
X178500452Y-115390904D01*
X178506500Y-115372761D01*
X178500452Y-115330428D02*
X178627452Y-115300190D01*
X178536738Y-115276000D01*
X178627452Y-115251809D01*
X178500452Y-115221571D01*
X178627452Y-115106666D02*
X178627452Y-115179238D01*
X178627452Y-115142952D02*
X178500452Y-115142952D01*
X178518595Y-115155047D01*
X178530690Y-115167142D01*
X178536738Y-115179238D01*
X195537405Y-115327333D02*
X195543452Y-115309190D01*
X195543452Y-115278952D01*
X195537405Y-115266856D01*
X195531357Y-115260809D01*
X195519262Y-115254761D01*
X195507167Y-115254761D01*
X195495071Y-115260809D01*
X195489024Y-115266856D01*
X195482976Y-115278952D01*
X195476929Y-115303142D01*
X195470881Y-115315237D01*
X195464833Y-115321285D01*
X195452738Y-115327333D01*
X195440643Y-115327333D01*
X195428548Y-115321285D01*
X195422500Y-115315237D01*
X195416452Y-115303142D01*
X195416452Y-115272904D01*
X195422500Y-115254761D01*
X195416452Y-115212428D02*
X195543452Y-115182190D01*
X195452738Y-115158000D01*
X195543452Y-115133809D01*
X195416452Y-115103571D01*
X195428548Y-115061238D02*
X195422500Y-115055190D01*
X195416452Y-115043095D01*
X195416452Y-115012857D01*
X195422500Y-115000761D01*
X195428548Y-114994714D01*
X195440643Y-114988666D01*
X195452738Y-114988666D01*
X195470881Y-114994714D01*
X195543452Y-115067285D01*
X195543452Y-114988666D01*
D11*
X115043095Y-93806381D02*
X115043095Y-92806381D01*
X115043095Y-93282571D02*
X115614524Y-93282571D01*
X115614524Y-93806381D02*
X115614524Y-92806381D01*
X115995476Y-92806381D02*
X116614524Y-92806381D01*
X116281190Y-93187333D01*
X116424048Y-93187333D01*
X116519286Y-93234952D01*
X116566905Y-93282571D01*
X116614524Y-93377810D01*
X116614524Y-93615905D01*
X116566905Y-93711143D01*
X116519286Y-93758762D01*
X116424048Y-93806381D01*
X116138333Y-93806381D01*
X116043095Y-93758762D01*
X115995476Y-93711143D01*
X220969095Y-96956381D02*
X220969095Y-95956381D01*
X220969095Y-96432571D02*
X221540524Y-96432571D01*
X221540524Y-96956381D02*
X221540524Y-95956381D01*
X222445286Y-96289714D02*
X222445286Y-96956381D01*
X222207190Y-95908762D02*
X221969095Y-96623048D01*
X222588143Y-96623048D01*
D16*
X91835214Y-109263929D02*
X91853357Y-109269976D01*
X91859405Y-109276024D01*
X91865453Y-109288119D01*
X91865453Y-109306262D01*
X91859405Y-109318357D01*
X91853357Y-109324405D01*
X91841262Y-109330452D01*
X91792881Y-109330452D01*
X91792881Y-109203452D01*
X91835214Y-109203452D01*
X91847310Y-109209500D01*
X91853357Y-109215548D01*
X91859405Y-109227643D01*
X91859405Y-109239738D01*
X91853357Y-109251833D01*
X91847310Y-109257881D01*
X91835214Y-109263929D01*
X91792881Y-109263929D01*
X91980357Y-109330452D02*
X91919881Y-109330452D01*
X91919881Y-109203452D01*
X92022691Y-109203452D02*
X92022691Y-109306262D01*
X92028739Y-109318357D01*
X92034786Y-109324405D01*
X92046882Y-109330452D01*
X92071072Y-109330452D01*
X92083167Y-109324405D01*
X92089215Y-109318357D01*
X92095263Y-109306262D01*
X92095263Y-109203452D01*
X92155739Y-109263929D02*
X92198072Y-109263929D01*
X92216215Y-109330452D02*
X92155739Y-109330452D01*
X92155739Y-109203452D01*
X92216215Y-109203452D01*
X92337168Y-109330452D02*
X92264596Y-109330452D01*
X92300882Y-109330452D02*
X92300882Y-109203452D01*
X92288787Y-109221595D01*
X92276692Y-109233690D01*
X92264596Y-109239738D01*
D11*
X91609917Y-104531667D02*
X91276584Y-104531667D01*
X91201583Y-104865000D01*
X91239084Y-104831667D01*
X91309916Y-104798333D01*
X91476583Y-104798333D01*
X91539084Y-104831667D01*
X91568250Y-104865000D01*
X91593250Y-104931667D01*
X91572416Y-105098333D01*
X91530750Y-105165000D01*
X91493250Y-105198333D01*
X91422417Y-105231667D01*
X91255750Y-105231667D01*
X91193250Y-105198333D01*
X91164083Y-105165000D01*
X92076584Y-104531667D02*
X92143251Y-104531667D01*
X92205750Y-104565000D01*
X92234917Y-104598333D01*
X92259917Y-104665000D01*
X92276583Y-104798333D01*
X92255750Y-104965000D01*
X92205750Y-105098333D01*
X92164084Y-105165000D01*
X92126583Y-105198333D01*
X92055751Y-105231667D01*
X91989084Y-105231667D01*
X91926583Y-105198333D01*
X91897417Y-105165000D01*
X91872417Y-105098333D01*
X91855750Y-104965000D01*
X91876583Y-104798333D01*
X91926584Y-104665000D01*
X91968250Y-104598333D01*
X92005750Y-104565000D01*
X92076584Y-104531667D01*
X92743251Y-104531667D02*
X92809918Y-104531667D01*
X92872417Y-104565000D01*
X92901584Y-104598333D01*
X92926584Y-104665000D01*
X92943250Y-104798333D01*
X92922417Y-104965000D01*
X92872417Y-105098333D01*
X92830751Y-105165000D01*
X92793250Y-105198333D01*
X92722418Y-105231667D01*
X92655751Y-105231667D01*
X92593250Y-105198333D01*
X92564084Y-105165000D01*
X92539084Y-105098333D01*
X92522417Y-104965000D01*
X92543250Y-104798333D01*
X92593251Y-104665000D01*
X92634917Y-104598333D01*
X92672417Y-104565000D01*
X92743251Y-104531667D01*
D16*
X100311857Y-109181500D02*
X100299762Y-109175452D01*
X100281619Y-109175452D01*
X100263476Y-109181500D01*
X100251381Y-109193595D01*
X100245333Y-109205690D01*
X100239285Y-109229881D01*
X100239285Y-109248024D01*
X100245333Y-109272214D01*
X100251381Y-109284310D01*
X100263476Y-109296405D01*
X100281619Y-109302452D01*
X100293714Y-109302452D01*
X100311857Y-109296405D01*
X100317905Y-109290357D01*
X100317905Y-109248024D01*
X100293714Y-109248024D01*
X100444905Y-109302452D02*
X100402571Y-109241976D01*
X100372333Y-109302452D02*
X100372333Y-109175452D01*
X100420714Y-109175452D01*
X100432809Y-109181500D01*
X100438857Y-109187548D01*
X100444905Y-109199643D01*
X100444905Y-109217786D01*
X100438857Y-109229881D01*
X100432809Y-109235929D01*
X100420714Y-109241976D01*
X100372333Y-109241976D01*
X100499333Y-109235929D02*
X100541666Y-109235929D01*
X100559809Y-109302452D02*
X100499333Y-109302452D01*
X100499333Y-109175452D01*
X100559809Y-109175452D01*
X100614238Y-109235929D02*
X100656571Y-109235929D01*
X100674714Y-109302452D02*
X100614238Y-109302452D01*
X100614238Y-109175452D01*
X100674714Y-109175452D01*
X100729143Y-109302452D02*
X100729143Y-109175452D01*
X100801715Y-109302452D01*
X100801715Y-109175452D01*
X100928715Y-109302452D02*
X100856143Y-109302452D01*
X100892429Y-109302452D02*
X100892429Y-109175452D01*
X100880334Y-109193595D01*
X100868239Y-109205690D01*
X100856143Y-109211738D01*
D11*
X100085917Y-104543667D02*
X99752584Y-104543667D01*
X99677583Y-104877000D01*
X99715084Y-104843667D01*
X99785916Y-104810333D01*
X99952583Y-104810333D01*
X100015084Y-104843667D01*
X100044250Y-104877000D01*
X100069250Y-104943667D01*
X100048416Y-105110333D01*
X100006750Y-105177000D01*
X99969250Y-105210333D01*
X99898417Y-105243667D01*
X99731750Y-105243667D01*
X99669250Y-105210333D01*
X99640083Y-105177000D01*
X100552584Y-104543667D02*
X100619251Y-104543667D01*
X100681750Y-104577000D01*
X100710917Y-104610333D01*
X100735917Y-104677000D01*
X100752583Y-104810333D01*
X100731750Y-104977000D01*
X100681750Y-105110333D01*
X100640084Y-105177000D01*
X100602583Y-105210333D01*
X100531751Y-105243667D01*
X100465084Y-105243667D01*
X100402583Y-105210333D01*
X100373417Y-105177000D01*
X100348417Y-105110333D01*
X100331750Y-104977000D01*
X100352583Y-104810333D01*
X100402584Y-104677000D01*
X100444250Y-104610333D01*
X100481750Y-104577000D01*
X100552584Y-104543667D01*
X101219251Y-104543667D02*
X101285918Y-104543667D01*
X101348417Y-104577000D01*
X101377584Y-104610333D01*
X101402584Y-104677000D01*
X101419250Y-104810333D01*
X101398417Y-104977000D01*
X101348417Y-105110333D01*
X101306751Y-105177000D01*
X101269250Y-105210333D01*
X101198418Y-105243667D01*
X101131751Y-105243667D01*
X101069250Y-105210333D01*
X101040084Y-105177000D01*
X101015084Y-105110333D01*
X100998417Y-104977000D01*
X101019250Y-104810333D01*
X101069251Y-104677000D01*
X101110917Y-104610333D01*
X101148417Y-104577000D01*
X101219251Y-104543667D01*
D16*
X108935882Y-109330452D02*
X108893548Y-109269976D01*
X108863310Y-109330452D02*
X108863310Y-109203452D01*
X108911691Y-109203452D01*
X108923786Y-109209500D01*
X108929834Y-109215548D01*
X108935882Y-109227643D01*
X108935882Y-109245786D01*
X108929834Y-109257881D01*
X108923786Y-109263929D01*
X108911691Y-109269976D01*
X108863310Y-109269976D01*
X108990310Y-109263929D02*
X109032643Y-109263929D01*
X109050786Y-109330452D02*
X108990310Y-109330452D01*
X108990310Y-109203452D01*
X109050786Y-109203452D01*
X109105215Y-109330452D02*
X109105215Y-109203452D01*
X109135453Y-109203452D01*
X109153596Y-109209500D01*
X109165691Y-109221595D01*
X109171739Y-109233690D01*
X109177787Y-109257881D01*
X109177787Y-109276024D01*
X109171739Y-109300214D01*
X109165691Y-109312310D01*
X109153596Y-109324405D01*
X109135453Y-109330452D01*
X109105215Y-109330452D01*
X109298739Y-109330452D02*
X109226167Y-109330452D01*
X109262453Y-109330452D02*
X109262453Y-109203452D01*
X109250358Y-109221595D01*
X109238263Y-109233690D01*
X109226167Y-109239738D01*
D11*
X108543917Y-104548667D02*
X108210584Y-104548667D01*
X108135583Y-104882000D01*
X108173084Y-104848667D01*
X108243916Y-104815333D01*
X108410583Y-104815333D01*
X108473084Y-104848667D01*
X108502250Y-104882000D01*
X108527250Y-104948667D01*
X108506416Y-105115333D01*
X108464750Y-105182000D01*
X108427250Y-105215333D01*
X108356417Y-105248667D01*
X108189750Y-105248667D01*
X108127250Y-105215333D01*
X108098083Y-105182000D01*
X109010584Y-104548667D02*
X109077251Y-104548667D01*
X109139750Y-104582000D01*
X109168917Y-104615333D01*
X109193917Y-104682000D01*
X109210583Y-104815333D01*
X109189750Y-104982000D01*
X109139750Y-105115333D01*
X109098084Y-105182000D01*
X109060583Y-105215333D01*
X108989751Y-105248667D01*
X108923084Y-105248667D01*
X108860583Y-105215333D01*
X108831417Y-105182000D01*
X108806417Y-105115333D01*
X108789750Y-104982000D01*
X108810583Y-104815333D01*
X108860584Y-104682000D01*
X108902250Y-104615333D01*
X108939750Y-104582000D01*
X109010584Y-104548667D01*
X109677251Y-104548667D02*
X109743918Y-104548667D01*
X109806417Y-104582000D01*
X109835584Y-104615333D01*
X109860584Y-104682000D01*
X109877250Y-104815333D01*
X109856417Y-104982000D01*
X109806417Y-105115333D01*
X109764751Y-105182000D01*
X109727250Y-105215333D01*
X109656418Y-105248667D01*
X109589751Y-105248667D01*
X109527250Y-105215333D01*
X109498084Y-105182000D01*
X109473084Y-105115333D01*
X109456417Y-104982000D01*
X109477250Y-104815333D01*
X109527251Y-104682000D01*
X109568917Y-104615333D01*
X109606417Y-104582000D01*
X109677251Y-104548667D01*
D16*
X108071667Y-91204452D02*
X108071667Y-91295167D01*
X108065619Y-91313310D01*
X108053524Y-91325405D01*
X108035381Y-91331452D01*
X108023286Y-91331452D01*
X108126095Y-91216548D02*
X108132143Y-91210500D01*
X108144238Y-91204452D01*
X108174476Y-91204452D01*
X108186572Y-91210500D01*
X108192619Y-91216548D01*
X108198667Y-91228643D01*
X108198667Y-91240738D01*
X108192619Y-91258881D01*
X108120048Y-91331452D01*
X108198667Y-91331452D01*
X191033667Y-103013452D02*
X191033667Y-103104167D01*
X191027619Y-103122310D01*
X191015524Y-103134405D01*
X190997381Y-103140452D01*
X190985286Y-103140452D01*
X191082048Y-103013452D02*
X191160667Y-103013452D01*
X191118334Y-103061833D01*
X191136476Y-103061833D01*
X191148572Y-103067881D01*
X191154619Y-103073929D01*
X191160667Y-103086024D01*
X191160667Y-103116262D01*
X191154619Y-103128357D01*
X191148572Y-103134405D01*
X191136476Y-103140452D01*
X191100191Y-103140452D01*
X191088095Y-103134405D01*
X191082048Y-103128357D01*
D12*
X242694143Y-99080286D02*
X242551286Y-99366000D01*
X242408429Y-99508857D01*
X242122714Y-99651714D01*
X241265571Y-99651714D01*
X240979857Y-99508857D01*
X240837000Y-99366000D01*
X240694143Y-99080286D01*
X240694143Y-98651714D01*
X240837000Y-98366000D01*
X240979857Y-98223143D01*
X241265571Y-98080286D01*
X242122714Y-98080286D01*
X242408429Y-98223143D01*
X242551286Y-98366000D01*
X242694143Y-98651714D01*
X242694143Y-99080286D01*
D17*
X232939238Y-98815999D02*
X230739238Y-98815999D01*
D11*
X71313095Y-88852381D02*
X71313095Y-87852381D01*
X71313095Y-88328571D02*
X71884524Y-88328571D01*
X71884524Y-88852381D02*
X71884524Y-87852381D01*
X72836905Y-87852381D02*
X72360714Y-87852381D01*
X72313095Y-88328571D01*
X72360714Y-88280952D01*
X72455952Y-88233333D01*
X72694048Y-88233333D01*
X72789286Y-88280952D01*
X72836905Y-88328571D01*
X72884524Y-88423810D01*
X72884524Y-88661905D01*
X72836905Y-88757143D01*
X72789286Y-88804762D01*
X72694048Y-88852381D01*
X72455952Y-88852381D01*
X72360714Y-88804762D01*
X72313095Y-88757143D01*
M02*
