M48
;DRILL file {KiCad 4.0.7} date 05/21/21 15:04:13
;FORMAT={-:-/ absolute / inch / decimal}
FMAT,2
INCH,TZ
T1C0.014
T2C0.016
T3C0.031
T4C0.035
T5C0.039
T6C0.043
T7C0.047
T8C0.063
T9C0.071
T10C0.120
T11C0.126
T12C0.047
%
G90
G05
M72
T1
X6.1128Y-4.288
X6.699Y-4.2394
X6.699Y-4.2614
X8.25Y-4.5133
X8.261Y-4.2372
X8.316Y-4.1844
X8.379Y-4.1094
X8.4106Y-4.0722
X8.4425Y-4.0359
T2
X4.89Y-3.4698
X5.0456Y-3.4694
X5.2019Y-3.4698
X5.3574Y-3.4694
X5.6696Y-3.4698
X6.2206Y-3.9024
X6.3701Y-3.6652
X6.8167Y-3.729
X7.2288Y-3.6243
X8.9436Y-3.4698
X9.0995Y-3.4698
T3
X3.622Y-4.4537
X3.622Y-4.5522
X3.9587Y-4.4537
X3.9587Y-4.5522
X4.2933Y-4.4528
X4.2933Y-4.5512
X4.624Y-4.4528
X4.624Y-4.5512
X4.6354Y-4.0472
X4.6354Y-4.2874
X4.6356Y-4.1675
X4.6368Y-3.807
X4.6368Y-3.9281
X5.0354Y-4.0472
X5.0354Y-4.2874
X5.0356Y-4.1675
X5.0368Y-3.807
X5.0368Y-3.9281
X5.3576Y-4.5088
X5.4538Y-4.0287
X5.4542Y-3.8665
X5.8538Y-4.0287
X5.8542Y-3.8665
T4
X2.9547Y-3.7589
X2.9547Y-3.8888
X2.9547Y-3.9675
X2.9547Y-4.0738
X3.0531Y-3.7589
X3.0531Y-3.8376
X3.0531Y-3.9163
X3.0531Y-3.9951
X3.0531Y-4.0738
X3.5252Y-4.1065
X3.6237Y-4.3033
X3.7221Y-4.1065
X3.8599Y-4.1065
X3.9583Y-4.3033
X4.0567Y-4.1065
X4.1945Y-4.1065
X4.293Y-4.3033
X4.3914Y-4.1065
X5.257Y-4.0286
X5.2586Y-3.8659
X5.357Y-4.0286
X5.3586Y-3.8659
T5
X4.2569Y-3.598
X4.2569Y-3.698
X4.2569Y-3.798
X4.3569Y-3.598
X4.3569Y-3.698
X4.3569Y-3.798
X5.5093Y-4.3486
X5.5639Y-4.4604
X5.6184Y-4.3486
X5.6729Y-4.4604
X5.7274Y-4.3486
X5.782Y-4.4604
X5.8365Y-4.3486
X5.891Y-4.4604
X5.9456Y-4.3486
X6.0001Y-4.4604
X6.0546Y-4.3486
X6.1091Y-4.4604
X6.1637Y-4.3486
X6.2182Y-4.4604
X6.2727Y-4.3486
X7.024Y-4.0623
X7.124Y-4.0623
X7.224Y-4.0623
X7.324Y-4.0623
X7.424Y-4.0623
X7.524Y-4.0623
X8.2751Y-4.3486
X8.3296Y-4.4604
X8.3841Y-4.3486
X8.4387Y-4.4604
X8.4932Y-4.3486
X8.5477Y-4.4604
X8.6022Y-4.3486
X8.6568Y-4.4604
X8.7113Y-4.3486
X8.7658Y-4.4604
X8.8204Y-4.3486
X8.8749Y-4.4604
X8.9294Y-4.3486
X8.9839Y-4.4604
X9.0385Y-4.3486
T6
X3.6141Y-3.6242
X3.6141Y-3.7242
X3.7141Y-3.6242
X3.7141Y-3.7242
X3.8141Y-3.6242
X3.8141Y-3.7242
X3.9141Y-3.6242
X3.9141Y-3.7242
X6.0918Y-3.8566
X6.0918Y-4.0338
X6.3477Y-3.8566
X6.3477Y-4.0338
X6.854Y-4.28
X6.854Y-4.5359
X7.0312Y-4.28
X7.0312Y-4.5359
X7.518Y-4.2808
X7.518Y-4.5367
X7.6952Y-4.2808
X7.6952Y-4.5367
T7
X3.0144Y-4.4008
X3.1129Y-4.4008
X3.2113Y-4.5979
X3.3097Y-4.4008
X3.4081Y-4.4008
T8
X9.4535Y-3.4525
X9.5708Y-3.4525
X9.6873Y-3.4525
T9
X9.9128Y-3.5162
X9.9128Y-3.7162
X9.9128Y-3.9162
X9.9128Y-4.1162
T10
X2.8425Y-3.498
X4.56Y-3.6762
X8.7323Y-3.8012
T11
X2.8409Y-4.5175
X5.2355Y-4.3604
X6.5465Y-4.3604
X7.2828Y-4.4951
X8.0013Y-4.3604
X9.3123Y-4.3604
T12
X3.0137Y-4.6945
X3.0141Y-4.5949
X3.2113Y-4.4035
X3.4085Y-4.5949
X3.4097Y-4.6929
T3
X2.8051Y-3.9459G85X2.8051Y-3.8868
G05
X2.8563Y-3.6577G85X2.7972Y-3.6577
G05
X2.8563Y-4.1797G85X2.7972Y-4.1797
G05
T5
X9.5335Y-4.507G85X9.5335Y-4.4283
G05
X9.691Y-4.2826G85X9.6123Y-4.2826
G05
X9.7698Y-4.507G85X9.7698Y-4.4283
G05
T7
X9.0138Y-3.7015G85X9.0138Y-3.8117
G05
X9.0138Y-3.9574G85X9.0138Y-4.0676
G05
X9.3091Y-3.7015G85X9.3091Y-3.8117
G05
X9.3091Y-3.9574G85X9.3091Y-4.0676
G05
X9.6043Y-3.7015G85X9.6043Y-3.8117
G05
X9.6043Y-3.9574G85X9.6043Y-4.0676
G05
T0
M30
