G04 #@! TF.FileFunction,Copper,L2,Bot,Signal*
%FSLAX46Y46*%
G04 Gerber Fmt 4.6, Leading zero omitted, Abs format (unit mm)*
G04 Created by KiCad (PCBNEW 4.0.7) date 10/31/19 18:54:42*
%MOMM*%
%LPD*%
G01*
G04 APERTURE LIST*
%ADD10C,0.100000*%
%ADD11C,0.150000*%
%ADD12R,1.700000X1.700000*%
%ADD13C,1.600000*%
%ADD14O,1.600000X1.600000*%
%ADD15C,4.064000*%
%ADD16R,1.200000X1.200000*%
%ADD17C,1.200000*%
G04 APERTURE END LIST*
D10*
D11*
X157612000Y-82707000D02*
X182095000Y-82707000D01*
X157620000Y-108776000D02*
X181851000Y-108776000D01*
X154467000Y-105770000D02*
X154467000Y-85863000D01*
X185023000Y-85794000D02*
X185023000Y-105636000D01*
X154472000Y-105697000D02*
G75*
G03X157685000Y-108794000I3155000J58000D01*
G01*
X181849000Y-108789000D02*
G75*
G03X185035000Y-105603000I0J3186000D01*
G01*
X157628000Y-82710000D02*
G75*
G03X154479000Y-85819000I-20000J-3129000D01*
G01*
X185037000Y-85803000D02*
G75*
G03X182065000Y-82709000I-3033000J61000D01*
G01*
D12*
X161658000Y-104204000D03*
X168128000Y-104150000D03*
X174589000Y-104201000D03*
X171631000Y-87193000D03*
X168025000Y-87194000D03*
D13*
X172557000Y-100787000D03*
D14*
X182717000Y-100787000D03*
D13*
X172558000Y-97622000D03*
D14*
X182718000Y-97622000D03*
D13*
X167061000Y-100782000D03*
D14*
X156901000Y-100782000D03*
D13*
X167061000Y-97582000D03*
D14*
X156901000Y-97582000D03*
D15*
X157724000Y-85989000D03*
X181954000Y-85965000D03*
X157658000Y-105644000D03*
X181945000Y-105641000D03*
D16*
X174531000Y-92481000D03*
D17*
X172531000Y-92481000D03*
D16*
X181547000Y-92469000D03*
D17*
X179547000Y-92469000D03*
D16*
X160533000Y-92481000D03*
D17*
X158533000Y-92481000D03*
D16*
X167531000Y-92479000D03*
D17*
X165531000Y-92479000D03*
M02*
