G04 #@! TF.FileFunction,Copper,L1,Top,Signal*
%FSLAX46Y46*%
G04 Gerber Fmt 4.6, Leading zero omitted, Abs format (unit mm)*
G04 Created by KiCad (PCBNEW 4.0.7) date 10/31/19 18:54:42*
%MOMM*%
%LPD*%
G01*
G04 APERTURE LIST*
%ADD10C,0.100000*%
%ADD11C,0.150000*%
%ADD12R,1.700000X1.700000*%
%ADD13C,1.600000*%
%ADD14O,1.600000X1.600000*%
%ADD15R,2.000000X4.000000*%
%ADD16C,4.064000*%
%ADD17R,1.200000X1.200000*%
%ADD18C,1.200000*%
%ADD19C,0.500000*%
G04 APERTURE END LIST*
D10*
D11*
X157612000Y-82707000D02*
X182095000Y-82707000D01*
X157620000Y-108776000D02*
X181851000Y-108776000D01*
X154467000Y-105770000D02*
X154467000Y-85863000D01*
X185023000Y-85794000D02*
X185023000Y-105636000D01*
X154472000Y-105697000D02*
G75*
G03X157685000Y-108794000I3155000J58000D01*
G01*
X181849000Y-108789000D02*
G75*
G03X185035000Y-105603000I0J3186000D01*
G01*
X157628000Y-82710000D02*
G75*
G03X154479000Y-85819000I-20000J-3129000D01*
G01*
X185037000Y-85803000D02*
G75*
G03X182065000Y-82709000I-3033000J61000D01*
G01*
D12*
X161658000Y-104204000D03*
X168128000Y-104150000D03*
X174589000Y-104201000D03*
X171631000Y-87193000D03*
X168025000Y-87194000D03*
D13*
X172557000Y-100787000D03*
D14*
X182717000Y-100787000D03*
D13*
X172558000Y-97622000D03*
D14*
X182718000Y-97622000D03*
D13*
X167061000Y-100782000D03*
D14*
X156901000Y-100782000D03*
D13*
X167061000Y-97582000D03*
D14*
X156901000Y-97582000D03*
D15*
X164695000Y-86479000D03*
X174960000Y-86474000D03*
X164612000Y-104912000D03*
X171237000Y-104912000D03*
X177576000Y-104893000D03*
D16*
X157724000Y-85989000D03*
X181954000Y-85965000D03*
X157658000Y-105644000D03*
X181945000Y-105641000D03*
D17*
X174531000Y-92481000D03*
D18*
X172531000Y-92481000D03*
D17*
X181547000Y-92469000D03*
D18*
X179547000Y-92469000D03*
D17*
X160533000Y-92481000D03*
D18*
X158533000Y-92481000D03*
D17*
X167531000Y-92479000D03*
D18*
X165531000Y-92479000D03*
D19*
X164359000Y-104930000D02*
X164359000Y-102360000D01*
X164359000Y-102360000D02*
X162962000Y-100963000D01*
X161067000Y-104201000D02*
X163630000Y-104201000D01*
X162962000Y-100963000D02*
X156888000Y-94889000D01*
X156888000Y-94889000D02*
X156888000Y-91023000D01*
X156888000Y-91023000D02*
X157274000Y-90637000D01*
X157274000Y-90637000D02*
X173759000Y-90637000D01*
X173759000Y-90637000D02*
X174531000Y-91409000D01*
X174531000Y-91409000D02*
X174531000Y-92481000D01*
X174512000Y-92481000D02*
X174531000Y-92481000D01*
X174531000Y-92481000D02*
X174531000Y-92416000D01*
X172563000Y-100828000D02*
X172563000Y-100589000D01*
X172563000Y-100589000D02*
X170797000Y-98823000D01*
X170797000Y-98823000D02*
X170797000Y-93715000D01*
X170797000Y-93715000D02*
X172031000Y-92481000D01*
X179047000Y-92469000D02*
X179047000Y-93228000D01*
X179047000Y-93228000D02*
X174653000Y-97622000D01*
X174653000Y-97622000D02*
X172558000Y-97622000D01*
X168730000Y-102128000D02*
X168730000Y-102405000D01*
X168730000Y-102405000D02*
X171237000Y-104912000D01*
X160533000Y-92481000D02*
X160533000Y-93505000D01*
X160533000Y-93505000D02*
X166271000Y-99243000D01*
X166271000Y-99243000D02*
X167920000Y-99243000D01*
X167920000Y-99243000D02*
X168730000Y-100053000D01*
X168730000Y-100053000D02*
X168730000Y-102128000D01*
X167694000Y-104205000D02*
X170263000Y-104205000D01*
X170263000Y-104205000D02*
X170991000Y-104933000D01*
X158033000Y-92481000D02*
X158033000Y-94127000D01*
X164688000Y-100782000D02*
X167061000Y-100782000D01*
X158033000Y-94127000D02*
X164688000Y-100782000D01*
X167061000Y-97582000D02*
X167061000Y-96591000D01*
X165031000Y-94561000D02*
X165031000Y-92479000D01*
X167061000Y-96591000D02*
X165031000Y-94561000D01*
X174960000Y-86474000D02*
X174960000Y-86782000D01*
X174960000Y-86782000D02*
X178704000Y-90526000D01*
X183789000Y-96551000D02*
X182718000Y-97622000D01*
X183789000Y-91475000D02*
X183789000Y-96551000D01*
X182840000Y-90526000D02*
X183789000Y-91475000D01*
X178704000Y-90526000D02*
X182840000Y-90526000D01*
X174960000Y-86474000D02*
X172350000Y-86474000D01*
X172350000Y-86474000D02*
X171631000Y-87193000D01*
X182723000Y-100828000D02*
X182723000Y-97627000D01*
X182723000Y-97627000D02*
X182718000Y-97622000D01*
X174960000Y-86474000D02*
X174960000Y-86837000D01*
X183119000Y-97221000D02*
X182718000Y-97622000D01*
X164695000Y-86479000D02*
X162802000Y-86479000D01*
X155849000Y-96530000D02*
X156901000Y-97582000D01*
X155849000Y-90637000D02*
X155849000Y-96530000D01*
X156966000Y-89520000D02*
X155849000Y-90637000D01*
X159761000Y-89520000D02*
X156966000Y-89520000D01*
X162802000Y-86479000D02*
X159761000Y-89520000D01*
X164695000Y-86479000D02*
X167310000Y-86479000D01*
X167310000Y-86479000D02*
X168025000Y-87194000D01*
X156901000Y-100782000D02*
X156901000Y-97582000D01*
X181547000Y-94640000D02*
X181547000Y-94642000D01*
X181547000Y-92469000D02*
X181547000Y-94640000D01*
X177576000Y-98613000D02*
X177576000Y-104893000D01*
X181547000Y-94642000D02*
X177576000Y-98613000D01*
X167531000Y-92479000D02*
X167531000Y-95370000D01*
X174589000Y-102923000D02*
X174589000Y-104201000D01*
X173888000Y-102222000D02*
X174589000Y-102923000D01*
X171183000Y-102222000D02*
X173888000Y-102222000D01*
X169774000Y-100813000D02*
X171183000Y-102222000D01*
X169774000Y-97613000D02*
X169774000Y-100813000D01*
X167531000Y-95370000D02*
X169774000Y-97613000D01*
X174589000Y-104201000D02*
X177170000Y-104201000D01*
X177170000Y-104201000D02*
X177881000Y-104912000D01*
X167531000Y-92479000D02*
X167531000Y-91948000D01*
X167531000Y-92479000D02*
X167531000Y-92311000D01*
M02*
