G04 #@! TF.FileFunction,Legend,Bot*
%FSLAX46Y46*%
G04 Gerber Fmt 4.6, Leading zero omitted, Abs format (unit mm)*
G04 Created by KiCad (PCBNEW 4.0.7) date 10/31/19 18:54:42*
%MOMM*%
%LPD*%
G01*
G04 APERTURE LIST*
%ADD10C,0.100000*%
%ADD11C,0.150000*%
%ADD12C,0.300000*%
%ADD13C,0.500000*%
%ADD14C,0.010000*%
G04 APERTURE END LIST*
D10*
D11*
X157612000Y-82707000D02*
X182095000Y-82707000D01*
X157620000Y-108776000D02*
X181851000Y-108776000D01*
D12*
X163510285Y-99667143D02*
X163295999Y-99738571D01*
X162938856Y-99738571D01*
X162795999Y-99667143D01*
X162724570Y-99595714D01*
X162653142Y-99452857D01*
X162653142Y-99310000D01*
X162724570Y-99167143D01*
X162795999Y-99095714D01*
X162938856Y-99024286D01*
X163224570Y-98952857D01*
X163367428Y-98881429D01*
X163438856Y-98810000D01*
X163510285Y-98667143D01*
X163510285Y-98524286D01*
X163438856Y-98381429D01*
X163367428Y-98310000D01*
X163224570Y-98238571D01*
X162867428Y-98238571D01*
X162653142Y-98310000D01*
X162224571Y-98238571D02*
X161367428Y-98238571D01*
X161795999Y-99738571D02*
X161795999Y-98238571D01*
X160867428Y-99738571D02*
X160867428Y-98238571D01*
X160367428Y-99310000D01*
X159867428Y-98238571D01*
X159867428Y-99738571D01*
X157224571Y-99738571D02*
X158081714Y-99738571D01*
X157653142Y-99738571D02*
X157653142Y-98238571D01*
X157795999Y-98452857D01*
X157938857Y-98595714D01*
X158081714Y-98667143D01*
X156581714Y-99595714D02*
X156510286Y-99667143D01*
X156581714Y-99738571D01*
X156653143Y-99667143D01*
X156581714Y-99595714D01*
X156581714Y-99738571D01*
X155081714Y-99738571D02*
X155938857Y-99738571D01*
X155510285Y-99738571D02*
X155510285Y-98238571D01*
X155653142Y-98452857D01*
X155796000Y-98595714D01*
X155938857Y-98667143D01*
D13*
X182972285Y-97323143D02*
X182972285Y-94323143D01*
X181258000Y-97323143D01*
X181258000Y-94323143D01*
X179829428Y-95751714D02*
X178829428Y-95751714D01*
X178400857Y-97323143D02*
X179829428Y-97323143D01*
X179829428Y-94323143D01*
X178400857Y-94323143D01*
X176543714Y-94323143D02*
X175972285Y-94323143D01*
X175686571Y-94466000D01*
X175400857Y-94751714D01*
X175257999Y-95323143D01*
X175257999Y-96323143D01*
X175400857Y-96894571D01*
X175686571Y-97180286D01*
X175972285Y-97323143D01*
X176543714Y-97323143D01*
X176829428Y-97180286D01*
X177115142Y-96894571D01*
X177257999Y-96323143D01*
X177257999Y-95323143D01*
X177115142Y-94751714D01*
X176829428Y-94466000D01*
X176543714Y-94323143D01*
X168543714Y-94323143D02*
X168543714Y-96466000D01*
X168686572Y-96894571D01*
X168972286Y-97180286D01*
X169400857Y-97323143D01*
X169686572Y-97323143D01*
X167258000Y-96466000D02*
X165829429Y-96466000D01*
X167543715Y-97323143D02*
X166543715Y-94323143D01*
X165543715Y-97323143D01*
X164543714Y-97323143D02*
X164543714Y-94323143D01*
X163543714Y-96466000D01*
X162543714Y-94323143D01*
X162543714Y-97323143D01*
X161115143Y-97323143D02*
X161115143Y-94323143D01*
X160115143Y-96466000D01*
X159115143Y-94323143D01*
X159115143Y-97323143D01*
X157829429Y-96466000D02*
X156400858Y-96466000D01*
X158115144Y-97323143D02*
X157115144Y-94323143D01*
X156115144Y-97323143D01*
D11*
X154467000Y-105770000D02*
X154467000Y-85863000D01*
X185023000Y-85794000D02*
X185023000Y-105636000D01*
X154472000Y-105697000D02*
G75*
G03X157685000Y-108794000I3155000J58000D01*
G01*
X181849000Y-108789000D02*
G75*
G03X185035000Y-105603000I0J3186000D01*
G01*
X157628000Y-82710000D02*
G75*
G03X154479000Y-85819000I-20000J-3129000D01*
G01*
X185037000Y-85803000D02*
G75*
G03X182065000Y-82709000I-3033000J61000D01*
G01*
D14*
G36*
X172205732Y-93887094D02*
X172145554Y-93937621D01*
X172076935Y-94008346D01*
X172009744Y-94088234D01*
X171953850Y-94166248D01*
X171919123Y-94231355D01*
X171916926Y-94237536D01*
X171905084Y-94297508D01*
X171911074Y-94365116D01*
X171937372Y-94453096D01*
X171978994Y-94556816D01*
X171978934Y-94590691D01*
X171937148Y-94612505D01*
X171925265Y-94615639D01*
X171867918Y-94637835D01*
X171785956Y-94679255D01*
X171697046Y-94730967D01*
X171696389Y-94731377D01*
X171538877Y-94829607D01*
X171416989Y-94772469D01*
X171250055Y-94702807D01*
X171118182Y-94666598D01*
X171022585Y-94664164D01*
X171014356Y-94665967D01*
X170969841Y-94691690D01*
X170895650Y-94752347D01*
X170795497Y-94844589D01*
X170673096Y-94965065D01*
X170599347Y-95040381D01*
X170457845Y-95189118D01*
X170350665Y-95308885D01*
X170274602Y-95404953D01*
X170226453Y-95482593D01*
X170203015Y-95547077D01*
X170201084Y-95603676D01*
X170217455Y-95657661D01*
X170220371Y-95663950D01*
X170250850Y-95713039D01*
X170288316Y-95740417D01*
X170336763Y-95744037D01*
X170400185Y-95721850D01*
X170482575Y-95671808D01*
X170587928Y-95591864D01*
X170720237Y-95479969D01*
X170883495Y-95334076D01*
X170909106Y-95310769D01*
X171067651Y-95166238D01*
X171180961Y-95242338D01*
X171294272Y-95318438D01*
X171294686Y-95565024D01*
X171295838Y-95677591D01*
X171301560Y-95760515D01*
X171315922Y-95830783D01*
X171342995Y-95905382D01*
X171386848Y-96001298D01*
X171411505Y-96052554D01*
X171527909Y-96293500D01*
X171367556Y-96366716D01*
X171190544Y-96474550D01*
X171076357Y-96578282D01*
X170945511Y-96716632D01*
X170959516Y-96871082D01*
X170987043Y-97004545D01*
X171042074Y-97153620D01*
X171115774Y-97299670D01*
X171199307Y-97424056D01*
X171246680Y-97476906D01*
X171304047Y-97526295D01*
X171353048Y-97544901D01*
X171417954Y-97540869D01*
X171430922Y-97538755D01*
X171503754Y-97519069D01*
X171556489Y-97491841D01*
X171563958Y-97484700D01*
X171577860Y-97440107D01*
X171583158Y-97361741D01*
X171580851Y-97265711D01*
X171571937Y-97168128D01*
X171557415Y-97085101D01*
X171538283Y-97032742D01*
X171535731Y-97029293D01*
X171510046Y-96980793D01*
X171487385Y-96910737D01*
X171485763Y-96903820D01*
X171475102Y-96844497D01*
X171486498Y-96819378D01*
X171529896Y-96813334D01*
X171545425Y-96813052D01*
X171616445Y-96800377D01*
X171702734Y-96769723D01*
X171738144Y-96752889D01*
X171850987Y-96693874D01*
X172036467Y-96855637D01*
X172120077Y-96925338D01*
X172192626Y-96979964D01*
X172243824Y-97012053D01*
X172259522Y-97017400D01*
X172294592Y-97001649D01*
X172356429Y-96959540D01*
X172434120Y-96898790D01*
X172470078Y-96868518D01*
X172643061Y-96719637D01*
X172730954Y-96793013D01*
X172809350Y-96843483D01*
X172894557Y-96877420D01*
X172914223Y-96881641D01*
X172975184Y-96892122D01*
X173007666Y-96899137D01*
X173009326Y-96899996D01*
X173002490Y-96923772D01*
X172985279Y-96981303D01*
X172971226Y-97027786D01*
X172946939Y-97139185D01*
X172935089Y-97261982D01*
X172935624Y-97380916D01*
X172948494Y-97480723D01*
X172972941Y-97545148D01*
X173032252Y-97590062D01*
X173112912Y-97603718D01*
X173196260Y-97586161D01*
X173257462Y-97544450D01*
X173294686Y-97492618D01*
X173337583Y-97416182D01*
X173377700Y-97332583D01*
X173406585Y-97259264D01*
X173416000Y-97217267D01*
X173426306Y-97181174D01*
X173452320Y-97118594D01*
X173466800Y-97087602D01*
X173511964Y-96961717D01*
X173512173Y-96944597D01*
X173487503Y-96944597D01*
X173446619Y-97076554D01*
X173441400Y-97087602D01*
X173410818Y-97155876D01*
X173392716Y-97205899D01*
X173390600Y-97217267D01*
X173379315Y-97262752D01*
X173350894Y-97334659D01*
X173313496Y-97415355D01*
X173275275Y-97487206D01*
X173245148Y-97531750D01*
X173188204Y-97565856D01*
X173113182Y-97577459D01*
X173040338Y-97566923D01*
X172989928Y-97534613D01*
X172985094Y-97527069D01*
X172967550Y-97462560D01*
X172960043Y-97364703D01*
X172962222Y-97249877D01*
X172973737Y-97134459D01*
X172994238Y-97034829D01*
X172995720Y-97029800D01*
X173014933Y-96956121D01*
X173023202Y-96903534D01*
X173021736Y-96889487D01*
X172991738Y-96874178D01*
X172931906Y-96859194D01*
X172918956Y-96856937D01*
X172837199Y-96830877D01*
X172754214Y-96785912D01*
X172741360Y-96776646D01*
X172655642Y-96711266D01*
X172797757Y-96534133D01*
X172863410Y-96455379D01*
X172918757Y-96394620D01*
X172955325Y-96360921D01*
X172963388Y-96357000D01*
X172999652Y-96372595D01*
X173063288Y-96413924D01*
X173143849Y-96472801D01*
X173230889Y-96541041D01*
X173313965Y-96610456D01*
X173382628Y-96672863D01*
X173426053Y-96719571D01*
X173480697Y-96826774D01*
X173487503Y-96944597D01*
X173512173Y-96944597D01*
X173513301Y-96852719D01*
X173469534Y-96749740D01*
X173419384Y-96684371D01*
X173349116Y-96614154D01*
X173255205Y-96532803D01*
X173156699Y-96456716D01*
X173146334Y-96449325D01*
X172971500Y-96325858D01*
X173098500Y-96071295D01*
X173153790Y-95958924D01*
X173190131Y-95876475D01*
X173211499Y-95808540D01*
X173221867Y-95739706D01*
X173225211Y-95654563D01*
X173225425Y-95598492D01*
X173198585Y-95598492D01*
X173196506Y-95701115D01*
X173189057Y-95779207D01*
X173171923Y-95849419D01*
X173140790Y-95928402D01*
X173091341Y-96032809D01*
X173080111Y-96055692D01*
X173010634Y-96184579D01*
X172926627Y-96322386D01*
X172842701Y-96445605D01*
X172814926Y-96482369D01*
X172736062Y-96575971D01*
X172643770Y-96674788D01*
X172545985Y-96771529D01*
X172450641Y-96858903D01*
X172365673Y-96929620D01*
X172299016Y-96976388D01*
X172260300Y-96992000D01*
X172225413Y-96976109D01*
X172163442Y-96933440D01*
X172084793Y-96871494D01*
X172037847Y-96831619D01*
X171887164Y-96680049D01*
X171835083Y-96680049D01*
X171723162Y-96734424D01*
X171636098Y-96767741D01*
X171550111Y-96786946D01*
X171523656Y-96788800D01*
X171465397Y-96792005D01*
X171444989Y-96811443D01*
X171449504Y-96861849D01*
X171451230Y-96871350D01*
X171474681Y-96951405D01*
X171505320Y-97016145D01*
X171531247Y-97091913D01*
X171544755Y-97215908D01*
X171546675Y-97281329D01*
X171547029Y-97382462D01*
X171543024Y-97444137D01*
X171531529Y-97477681D01*
X171509414Y-97494421D01*
X171485600Y-97502302D01*
X171390666Y-97521049D01*
X171321711Y-97509302D01*
X171260814Y-97462122D01*
X171235695Y-97433436D01*
X171136883Y-97290881D01*
X171056458Y-97130815D01*
X171002498Y-96971347D01*
X170984936Y-96871305D01*
X170978833Y-96787205D01*
X170984108Y-96731293D01*
X171007654Y-96684091D01*
X171056366Y-96626121D01*
X171081362Y-96598897D01*
X171165044Y-96522812D01*
X171271025Y-96446728D01*
X171382309Y-96381273D01*
X171481899Y-96337073D01*
X171515245Y-96327597D01*
X171552540Y-96343477D01*
X171611895Y-96399470D01*
X171689522Y-96491959D01*
X171695362Y-96499474D01*
X171835083Y-96680049D01*
X171887164Y-96680049D01*
X171793252Y-96585585D01*
X171583379Y-96306400D01*
X171439013Y-96052637D01*
X171385553Y-95941528D01*
X171351183Y-95859353D01*
X171331701Y-95789898D01*
X171322906Y-95716950D01*
X171320595Y-95624295D01*
X171320539Y-95595437D01*
X171334013Y-95404673D01*
X171371733Y-95217374D01*
X171429547Y-95049601D01*
X171491472Y-94934217D01*
X171542578Y-94877333D01*
X171581104Y-94844491D01*
X171504553Y-94844491D01*
X171496908Y-94867666D01*
X171470755Y-94922770D01*
X171437274Y-94987419D01*
X171393929Y-95076918D01*
X171359816Y-95162283D01*
X171346453Y-95207650D01*
X171329517Y-95263619D01*
X171311293Y-95289914D01*
X171309605Y-95290200D01*
X171279034Y-95277082D01*
X171221882Y-95243461D01*
X171178848Y-95215519D01*
X171067651Y-95140838D01*
X170909522Y-95285369D01*
X170739785Y-95437968D01*
X170601584Y-95555800D01*
X170491358Y-95640828D01*
X170405548Y-95695014D01*
X170340595Y-95720320D01*
X170292937Y-95718707D01*
X170259017Y-95692137D01*
X170239538Y-95654652D01*
X170226089Y-95598384D01*
X170231099Y-95539392D01*
X170257923Y-95472269D01*
X170309918Y-95391612D01*
X170390438Y-95292013D01*
X170502839Y-95168069D01*
X170613264Y-95052598D01*
X170738825Y-94926084D01*
X170847345Y-94822535D01*
X170934151Y-94746149D01*
X170994575Y-94701124D01*
X171015572Y-94691062D01*
X171101218Y-94689519D01*
X171218108Y-94717072D01*
X171357520Y-94771461D01*
X171396700Y-94789874D01*
X171459300Y-94820743D01*
X171498680Y-94841016D01*
X171504553Y-94844491D01*
X171581104Y-94844491D01*
X171621383Y-94810155D01*
X171711115Y-94746941D01*
X171713882Y-94745203D01*
X171878128Y-94642500D01*
X172642473Y-94642500D01*
X172806719Y-94745203D01*
X172896521Y-94808068D01*
X172975915Y-94875336D01*
X173028129Y-94932752D01*
X173029129Y-94934217D01*
X173102751Y-95076856D01*
X173158029Y-95252569D01*
X173190969Y-95445699D01*
X173198585Y-95598492D01*
X173225425Y-95598492D01*
X173225500Y-95578883D01*
X173228490Y-95450076D01*
X173237420Y-95370681D01*
X173252228Y-95341204D01*
X173253775Y-95341017D01*
X173284270Y-95323638D01*
X173337021Y-95278097D01*
X173400512Y-95214353D01*
X173518975Y-95087707D01*
X173702438Y-95235489D01*
X173873101Y-95368409D01*
X174022905Y-95475864D01*
X174147920Y-95555348D01*
X174244215Y-95604353D01*
X174306139Y-95620400D01*
X174377853Y-95603886D01*
X174434098Y-95562908D01*
X174457391Y-95510314D01*
X174457401Y-95509258D01*
X174456772Y-95507359D01*
X174422763Y-95507359D01*
X174410663Y-95551860D01*
X174408550Y-95554550D01*
X174353142Y-95590142D01*
X174275523Y-95587294D01*
X174172688Y-95545332D01*
X174060304Y-95476435D01*
X173954386Y-95401586D01*
X173832908Y-95311481D01*
X173719230Y-95223510D01*
X173700924Y-95208862D01*
X173515948Y-95059853D01*
X173394280Y-95192173D01*
X173313599Y-95270825D01*
X173254154Y-95305607D01*
X173212090Y-95296820D01*
X173183553Y-95244765D01*
X173174525Y-95209366D01*
X173152285Y-95138874D01*
X173114370Y-95049279D01*
X173086613Y-94993485D01*
X173016366Y-94861870D01*
X173133633Y-94802985D01*
X173217797Y-94758528D01*
X173294676Y-94714380D01*
X173319853Y-94698559D01*
X173387172Y-94668075D01*
X173476822Y-94644143D01*
X173515782Y-94637980D01*
X173642759Y-94622942D01*
X173984069Y-94958492D01*
X174144517Y-95120417D01*
X174266765Y-95253675D01*
X174352659Y-95360857D01*
X174404043Y-95444555D01*
X174422763Y-95507359D01*
X174456772Y-95507359D01*
X174437509Y-95449242D01*
X174378632Y-95359603D01*
X174281967Y-95241798D01*
X174148711Y-95097286D01*
X173980061Y-94927522D01*
X173977314Y-94924835D01*
X173642512Y-94597571D01*
X173513867Y-94612807D01*
X173433930Y-94626086D01*
X173373711Y-94642931D01*
X173356161Y-94651963D01*
X173318258Y-94676504D01*
X173253017Y-94713163D01*
X173174774Y-94754541D01*
X173097865Y-94793239D01*
X173036624Y-94821859D01*
X173005418Y-94833000D01*
X172976494Y-94820389D01*
X172916880Y-94787076D01*
X172838610Y-94739839D01*
X172825725Y-94731796D01*
X172734106Y-94679092D01*
X172647102Y-94636993D01*
X172583085Y-94614358D01*
X172581565Y-94614042D01*
X172525797Y-94596509D01*
X172512091Y-94570656D01*
X172516329Y-94556496D01*
X172562445Y-94440201D01*
X172586009Y-94355373D01*
X172586412Y-94347719D01*
X172566015Y-94347719D01*
X172550074Y-94381406D01*
X172519378Y-94379333D01*
X172512164Y-94374027D01*
X172479233Y-94318035D01*
X172488532Y-94252383D01*
X172507950Y-94223354D01*
X172526198Y-94200854D01*
X172509287Y-94210888D01*
X172495250Y-94221385D01*
X172455499Y-94276644D01*
X172463163Y-94339920D01*
X172500002Y-94387053D01*
X172530567Y-94419981D01*
X172534692Y-94452680D01*
X172513653Y-94506053D01*
X172507998Y-94517990D01*
X172466792Y-94604400D01*
X172028409Y-94604400D01*
X171987203Y-94517990D01*
X171962231Y-94459333D01*
X171962217Y-94424716D01*
X171988437Y-94393237D01*
X171995199Y-94387053D01*
X172038752Y-94323506D01*
X172038370Y-94318750D01*
X172011289Y-94318750D01*
X171995411Y-94364279D01*
X171969410Y-94386146D01*
X171941678Y-94372082D01*
X171937634Y-94365665D01*
X171926823Y-94312386D01*
X171932129Y-94262460D01*
X171955357Y-94208796D01*
X171981800Y-94205039D01*
X172005781Y-94251235D01*
X172008653Y-94261829D01*
X172011289Y-94318750D01*
X172038370Y-94318750D01*
X172033094Y-94253150D01*
X172007801Y-94207850D01*
X171991168Y-94177010D01*
X171993361Y-94146235D01*
X172019398Y-94103750D01*
X172074296Y-94037779D01*
X172085971Y-94024398D01*
X172150489Y-93958024D01*
X172208677Y-93910840D01*
X172247412Y-93893200D01*
X172290776Y-93912693D01*
X172351142Y-93963577D01*
X172418126Y-94034454D01*
X172481343Y-94113926D01*
X172530410Y-94190598D01*
X172544169Y-94218914D01*
X172564835Y-94289734D01*
X172566015Y-94347719D01*
X172586412Y-94347719D01*
X172589496Y-94289270D01*
X172578275Y-94237536D01*
X172546625Y-94174628D01*
X172492670Y-94097540D01*
X172426278Y-94017305D01*
X172357320Y-93944960D01*
X172295664Y-93891539D01*
X172251180Y-93868078D01*
X172247600Y-93867800D01*
X172205732Y-93887094D01*
X172205732Y-93887094D01*
G37*
X172205732Y-93887094D02*
X172145554Y-93937621D01*
X172076935Y-94008346D01*
X172009744Y-94088234D01*
X171953850Y-94166248D01*
X171919123Y-94231355D01*
X171916926Y-94237536D01*
X171905084Y-94297508D01*
X171911074Y-94365116D01*
X171937372Y-94453096D01*
X171978994Y-94556816D01*
X171978934Y-94590691D01*
X171937148Y-94612505D01*
X171925265Y-94615639D01*
X171867918Y-94637835D01*
X171785956Y-94679255D01*
X171697046Y-94730967D01*
X171696389Y-94731377D01*
X171538877Y-94829607D01*
X171416989Y-94772469D01*
X171250055Y-94702807D01*
X171118182Y-94666598D01*
X171022585Y-94664164D01*
X171014356Y-94665967D01*
X170969841Y-94691690D01*
X170895650Y-94752347D01*
X170795497Y-94844589D01*
X170673096Y-94965065D01*
X170599347Y-95040381D01*
X170457845Y-95189118D01*
X170350665Y-95308885D01*
X170274602Y-95404953D01*
X170226453Y-95482593D01*
X170203015Y-95547077D01*
X170201084Y-95603676D01*
X170217455Y-95657661D01*
X170220371Y-95663950D01*
X170250850Y-95713039D01*
X170288316Y-95740417D01*
X170336763Y-95744037D01*
X170400185Y-95721850D01*
X170482575Y-95671808D01*
X170587928Y-95591864D01*
X170720237Y-95479969D01*
X170883495Y-95334076D01*
X170909106Y-95310769D01*
X171067651Y-95166238D01*
X171180961Y-95242338D01*
X171294272Y-95318438D01*
X171294686Y-95565024D01*
X171295838Y-95677591D01*
X171301560Y-95760515D01*
X171315922Y-95830783D01*
X171342995Y-95905382D01*
X171386848Y-96001298D01*
X171411505Y-96052554D01*
X171527909Y-96293500D01*
X171367556Y-96366716D01*
X171190544Y-96474550D01*
X171076357Y-96578282D01*
X170945511Y-96716632D01*
X170959516Y-96871082D01*
X170987043Y-97004545D01*
X171042074Y-97153620D01*
X171115774Y-97299670D01*
X171199307Y-97424056D01*
X171246680Y-97476906D01*
X171304047Y-97526295D01*
X171353048Y-97544901D01*
X171417954Y-97540869D01*
X171430922Y-97538755D01*
X171503754Y-97519069D01*
X171556489Y-97491841D01*
X171563958Y-97484700D01*
X171577860Y-97440107D01*
X171583158Y-97361741D01*
X171580851Y-97265711D01*
X171571937Y-97168128D01*
X171557415Y-97085101D01*
X171538283Y-97032742D01*
X171535731Y-97029293D01*
X171510046Y-96980793D01*
X171487385Y-96910737D01*
X171485763Y-96903820D01*
X171475102Y-96844497D01*
X171486498Y-96819378D01*
X171529896Y-96813334D01*
X171545425Y-96813052D01*
X171616445Y-96800377D01*
X171702734Y-96769723D01*
X171738144Y-96752889D01*
X171850987Y-96693874D01*
X172036467Y-96855637D01*
X172120077Y-96925338D01*
X172192626Y-96979964D01*
X172243824Y-97012053D01*
X172259522Y-97017400D01*
X172294592Y-97001649D01*
X172356429Y-96959540D01*
X172434120Y-96898790D01*
X172470078Y-96868518D01*
X172643061Y-96719637D01*
X172730954Y-96793013D01*
X172809350Y-96843483D01*
X172894557Y-96877420D01*
X172914223Y-96881641D01*
X172975184Y-96892122D01*
X173007666Y-96899137D01*
X173009326Y-96899996D01*
X173002490Y-96923772D01*
X172985279Y-96981303D01*
X172971226Y-97027786D01*
X172946939Y-97139185D01*
X172935089Y-97261982D01*
X172935624Y-97380916D01*
X172948494Y-97480723D01*
X172972941Y-97545148D01*
X173032252Y-97590062D01*
X173112912Y-97603718D01*
X173196260Y-97586161D01*
X173257462Y-97544450D01*
X173294686Y-97492618D01*
X173337583Y-97416182D01*
X173377700Y-97332583D01*
X173406585Y-97259264D01*
X173416000Y-97217267D01*
X173426306Y-97181174D01*
X173452320Y-97118594D01*
X173466800Y-97087602D01*
X173511964Y-96961717D01*
X173512173Y-96944597D01*
X173487503Y-96944597D01*
X173446619Y-97076554D01*
X173441400Y-97087602D01*
X173410818Y-97155876D01*
X173392716Y-97205899D01*
X173390600Y-97217267D01*
X173379315Y-97262752D01*
X173350894Y-97334659D01*
X173313496Y-97415355D01*
X173275275Y-97487206D01*
X173245148Y-97531750D01*
X173188204Y-97565856D01*
X173113182Y-97577459D01*
X173040338Y-97566923D01*
X172989928Y-97534613D01*
X172985094Y-97527069D01*
X172967550Y-97462560D01*
X172960043Y-97364703D01*
X172962222Y-97249877D01*
X172973737Y-97134459D01*
X172994238Y-97034829D01*
X172995720Y-97029800D01*
X173014933Y-96956121D01*
X173023202Y-96903534D01*
X173021736Y-96889487D01*
X172991738Y-96874178D01*
X172931906Y-96859194D01*
X172918956Y-96856937D01*
X172837199Y-96830877D01*
X172754214Y-96785912D01*
X172741360Y-96776646D01*
X172655642Y-96711266D01*
X172797757Y-96534133D01*
X172863410Y-96455379D01*
X172918757Y-96394620D01*
X172955325Y-96360921D01*
X172963388Y-96357000D01*
X172999652Y-96372595D01*
X173063288Y-96413924D01*
X173143849Y-96472801D01*
X173230889Y-96541041D01*
X173313965Y-96610456D01*
X173382628Y-96672863D01*
X173426053Y-96719571D01*
X173480697Y-96826774D01*
X173487503Y-96944597D01*
X173512173Y-96944597D01*
X173513301Y-96852719D01*
X173469534Y-96749740D01*
X173419384Y-96684371D01*
X173349116Y-96614154D01*
X173255205Y-96532803D01*
X173156699Y-96456716D01*
X173146334Y-96449325D01*
X172971500Y-96325858D01*
X173098500Y-96071295D01*
X173153790Y-95958924D01*
X173190131Y-95876475D01*
X173211499Y-95808540D01*
X173221867Y-95739706D01*
X173225211Y-95654563D01*
X173225425Y-95598492D01*
X173198585Y-95598492D01*
X173196506Y-95701115D01*
X173189057Y-95779207D01*
X173171923Y-95849419D01*
X173140790Y-95928402D01*
X173091341Y-96032809D01*
X173080111Y-96055692D01*
X173010634Y-96184579D01*
X172926627Y-96322386D01*
X172842701Y-96445605D01*
X172814926Y-96482369D01*
X172736062Y-96575971D01*
X172643770Y-96674788D01*
X172545985Y-96771529D01*
X172450641Y-96858903D01*
X172365673Y-96929620D01*
X172299016Y-96976388D01*
X172260300Y-96992000D01*
X172225413Y-96976109D01*
X172163442Y-96933440D01*
X172084793Y-96871494D01*
X172037847Y-96831619D01*
X171887164Y-96680049D01*
X171835083Y-96680049D01*
X171723162Y-96734424D01*
X171636098Y-96767741D01*
X171550111Y-96786946D01*
X171523656Y-96788800D01*
X171465397Y-96792005D01*
X171444989Y-96811443D01*
X171449504Y-96861849D01*
X171451230Y-96871350D01*
X171474681Y-96951405D01*
X171505320Y-97016145D01*
X171531247Y-97091913D01*
X171544755Y-97215908D01*
X171546675Y-97281329D01*
X171547029Y-97382462D01*
X171543024Y-97444137D01*
X171531529Y-97477681D01*
X171509414Y-97494421D01*
X171485600Y-97502302D01*
X171390666Y-97521049D01*
X171321711Y-97509302D01*
X171260814Y-97462122D01*
X171235695Y-97433436D01*
X171136883Y-97290881D01*
X171056458Y-97130815D01*
X171002498Y-96971347D01*
X170984936Y-96871305D01*
X170978833Y-96787205D01*
X170984108Y-96731293D01*
X171007654Y-96684091D01*
X171056366Y-96626121D01*
X171081362Y-96598897D01*
X171165044Y-96522812D01*
X171271025Y-96446728D01*
X171382309Y-96381273D01*
X171481899Y-96337073D01*
X171515245Y-96327597D01*
X171552540Y-96343477D01*
X171611895Y-96399470D01*
X171689522Y-96491959D01*
X171695362Y-96499474D01*
X171835083Y-96680049D01*
X171887164Y-96680049D01*
X171793252Y-96585585D01*
X171583379Y-96306400D01*
X171439013Y-96052637D01*
X171385553Y-95941528D01*
X171351183Y-95859353D01*
X171331701Y-95789898D01*
X171322906Y-95716950D01*
X171320595Y-95624295D01*
X171320539Y-95595437D01*
X171334013Y-95404673D01*
X171371733Y-95217374D01*
X171429547Y-95049601D01*
X171491472Y-94934217D01*
X171542578Y-94877333D01*
X171581104Y-94844491D01*
X171504553Y-94844491D01*
X171496908Y-94867666D01*
X171470755Y-94922770D01*
X171437274Y-94987419D01*
X171393929Y-95076918D01*
X171359816Y-95162283D01*
X171346453Y-95207650D01*
X171329517Y-95263619D01*
X171311293Y-95289914D01*
X171309605Y-95290200D01*
X171279034Y-95277082D01*
X171221882Y-95243461D01*
X171178848Y-95215519D01*
X171067651Y-95140838D01*
X170909522Y-95285369D01*
X170739785Y-95437968D01*
X170601584Y-95555800D01*
X170491358Y-95640828D01*
X170405548Y-95695014D01*
X170340595Y-95720320D01*
X170292937Y-95718707D01*
X170259017Y-95692137D01*
X170239538Y-95654652D01*
X170226089Y-95598384D01*
X170231099Y-95539392D01*
X170257923Y-95472269D01*
X170309918Y-95391612D01*
X170390438Y-95292013D01*
X170502839Y-95168069D01*
X170613264Y-95052598D01*
X170738825Y-94926084D01*
X170847345Y-94822535D01*
X170934151Y-94746149D01*
X170994575Y-94701124D01*
X171015572Y-94691062D01*
X171101218Y-94689519D01*
X171218108Y-94717072D01*
X171357520Y-94771461D01*
X171396700Y-94789874D01*
X171459300Y-94820743D01*
X171498680Y-94841016D01*
X171504553Y-94844491D01*
X171581104Y-94844491D01*
X171621383Y-94810155D01*
X171711115Y-94746941D01*
X171713882Y-94745203D01*
X171878128Y-94642500D01*
X172642473Y-94642500D01*
X172806719Y-94745203D01*
X172896521Y-94808068D01*
X172975915Y-94875336D01*
X173028129Y-94932752D01*
X173029129Y-94934217D01*
X173102751Y-95076856D01*
X173158029Y-95252569D01*
X173190969Y-95445699D01*
X173198585Y-95598492D01*
X173225425Y-95598492D01*
X173225500Y-95578883D01*
X173228490Y-95450076D01*
X173237420Y-95370681D01*
X173252228Y-95341204D01*
X173253775Y-95341017D01*
X173284270Y-95323638D01*
X173337021Y-95278097D01*
X173400512Y-95214353D01*
X173518975Y-95087707D01*
X173702438Y-95235489D01*
X173873101Y-95368409D01*
X174022905Y-95475864D01*
X174147920Y-95555348D01*
X174244215Y-95604353D01*
X174306139Y-95620400D01*
X174377853Y-95603886D01*
X174434098Y-95562908D01*
X174457391Y-95510314D01*
X174457401Y-95509258D01*
X174456772Y-95507359D01*
X174422763Y-95507359D01*
X174410663Y-95551860D01*
X174408550Y-95554550D01*
X174353142Y-95590142D01*
X174275523Y-95587294D01*
X174172688Y-95545332D01*
X174060304Y-95476435D01*
X173954386Y-95401586D01*
X173832908Y-95311481D01*
X173719230Y-95223510D01*
X173700924Y-95208862D01*
X173515948Y-95059853D01*
X173394280Y-95192173D01*
X173313599Y-95270825D01*
X173254154Y-95305607D01*
X173212090Y-95296820D01*
X173183553Y-95244765D01*
X173174525Y-95209366D01*
X173152285Y-95138874D01*
X173114370Y-95049279D01*
X173086613Y-94993485D01*
X173016366Y-94861870D01*
X173133633Y-94802985D01*
X173217797Y-94758528D01*
X173294676Y-94714380D01*
X173319853Y-94698559D01*
X173387172Y-94668075D01*
X173476822Y-94644143D01*
X173515782Y-94637980D01*
X173642759Y-94622942D01*
X173984069Y-94958492D01*
X174144517Y-95120417D01*
X174266765Y-95253675D01*
X174352659Y-95360857D01*
X174404043Y-95444555D01*
X174422763Y-95507359D01*
X174456772Y-95507359D01*
X174437509Y-95449242D01*
X174378632Y-95359603D01*
X174281967Y-95241798D01*
X174148711Y-95097286D01*
X173980061Y-94927522D01*
X173977314Y-94924835D01*
X173642512Y-94597571D01*
X173513867Y-94612807D01*
X173433930Y-94626086D01*
X173373711Y-94642931D01*
X173356161Y-94651963D01*
X173318258Y-94676504D01*
X173253017Y-94713163D01*
X173174774Y-94754541D01*
X173097865Y-94793239D01*
X173036624Y-94821859D01*
X173005418Y-94833000D01*
X172976494Y-94820389D01*
X172916880Y-94787076D01*
X172838610Y-94739839D01*
X172825725Y-94731796D01*
X172734106Y-94679092D01*
X172647102Y-94636993D01*
X172583085Y-94614358D01*
X172581565Y-94614042D01*
X172525797Y-94596509D01*
X172512091Y-94570656D01*
X172516329Y-94556496D01*
X172562445Y-94440201D01*
X172586009Y-94355373D01*
X172586412Y-94347719D01*
X172566015Y-94347719D01*
X172550074Y-94381406D01*
X172519378Y-94379333D01*
X172512164Y-94374027D01*
X172479233Y-94318035D01*
X172488532Y-94252383D01*
X172507950Y-94223354D01*
X172526198Y-94200854D01*
X172509287Y-94210888D01*
X172495250Y-94221385D01*
X172455499Y-94276644D01*
X172463163Y-94339920D01*
X172500002Y-94387053D01*
X172530567Y-94419981D01*
X172534692Y-94452680D01*
X172513653Y-94506053D01*
X172507998Y-94517990D01*
X172466792Y-94604400D01*
X172028409Y-94604400D01*
X171987203Y-94517990D01*
X171962231Y-94459333D01*
X171962217Y-94424716D01*
X171988437Y-94393237D01*
X171995199Y-94387053D01*
X172038752Y-94323506D01*
X172038370Y-94318750D01*
X172011289Y-94318750D01*
X171995411Y-94364279D01*
X171969410Y-94386146D01*
X171941678Y-94372082D01*
X171937634Y-94365665D01*
X171926823Y-94312386D01*
X171932129Y-94262460D01*
X171955357Y-94208796D01*
X171981800Y-94205039D01*
X172005781Y-94251235D01*
X172008653Y-94261829D01*
X172011289Y-94318750D01*
X172038370Y-94318750D01*
X172033094Y-94253150D01*
X172007801Y-94207850D01*
X171991168Y-94177010D01*
X171993361Y-94146235D01*
X172019398Y-94103750D01*
X172074296Y-94037779D01*
X172085971Y-94024398D01*
X172150489Y-93958024D01*
X172208677Y-93910840D01*
X172247412Y-93893200D01*
X172290776Y-93912693D01*
X172351142Y-93963577D01*
X172418126Y-94034454D01*
X172481343Y-94113926D01*
X172530410Y-94190598D01*
X172544169Y-94218914D01*
X172564835Y-94289734D01*
X172566015Y-94347719D01*
X172586412Y-94347719D01*
X172589496Y-94289270D01*
X172578275Y-94237536D01*
X172546625Y-94174628D01*
X172492670Y-94097540D01*
X172426278Y-94017305D01*
X172357320Y-93944960D01*
X172295664Y-93891539D01*
X172251180Y-93868078D01*
X172247600Y-93867800D01*
X172205732Y-93887094D01*
G36*
X171701500Y-94794900D02*
X171604187Y-94867418D01*
X171537297Y-94939720D01*
X171483983Y-95030198D01*
X171481627Y-95035004D01*
X171399311Y-95258227D01*
X171362929Y-95497760D01*
X171363462Y-95664726D01*
X171374930Y-95786701D01*
X171397358Y-95883480D01*
X171437621Y-95980507D01*
X171461500Y-96027443D01*
X171585002Y-96234115D01*
X171738638Y-96447409D01*
X171908439Y-96648740D01*
X172000323Y-96744350D01*
X172086862Y-96827061D01*
X172149764Y-96878641D01*
X172199252Y-96905831D01*
X172245546Y-96915371D01*
X172260300Y-96915800D01*
X172307626Y-96910230D01*
X172355087Y-96889028D01*
X172412904Y-96845453D01*
X172491298Y-96772763D01*
X172520278Y-96744350D01*
X172660890Y-96593231D01*
X172631947Y-96593231D01*
X172601784Y-96638594D01*
X172538759Y-96702275D01*
X172501721Y-96737883D01*
X172401242Y-96827338D01*
X172320383Y-96877411D01*
X172248595Y-96889591D01*
X172175333Y-96865370D01*
X172090047Y-96806237D01*
X172079347Y-96797556D01*
X172006432Y-96732769D01*
X171943325Y-96668160D01*
X171917605Y-96636687D01*
X171869166Y-96568661D01*
X171945933Y-96475530D01*
X172022699Y-96382400D01*
X172257722Y-96382400D01*
X172370697Y-96383571D01*
X172444803Y-96388678D01*
X172491947Y-96400107D01*
X172524038Y-96420245D01*
X172542828Y-96439550D01*
X172600712Y-96506459D01*
X172631004Y-96553436D01*
X172631947Y-96593231D01*
X172660890Y-96593231D01*
X172678129Y-96574704D01*
X172829365Y-96386858D01*
X172887804Y-96303100D01*
X172844500Y-96303100D01*
X172830840Y-96335760D01*
X172795569Y-96394646D01*
X172760596Y-96446492D01*
X172676691Y-96565529D01*
X172591173Y-96467614D01*
X172505655Y-96369700D01*
X172510637Y-96364543D01*
X172015536Y-96364543D01*
X171934718Y-96461913D01*
X171887423Y-96517807D01*
X171855701Y-96553246D01*
X171848550Y-96559742D01*
X171832297Y-96540903D01*
X171793272Y-96490077D01*
X171738461Y-96416447D01*
X171708850Y-96376050D01*
X171591743Y-96207277D01*
X171505281Y-96062444D01*
X171443177Y-95930608D01*
X171424392Y-95880894D01*
X171389156Y-95781024D01*
X171752300Y-95724566D01*
X171847550Y-95817337D01*
X171901198Y-95872042D01*
X171935686Y-95911924D01*
X171942674Y-95924004D01*
X171922960Y-95943666D01*
X171871100Y-95982591D01*
X171797819Y-96032784D01*
X171788710Y-96038781D01*
X171708081Y-96093998D01*
X171642381Y-96143236D01*
X171605370Y-96176162D01*
X171604687Y-96176986D01*
X171603252Y-96187159D01*
X171634557Y-96169676D01*
X171657459Y-96153576D01*
X171740418Y-96092842D01*
X171877977Y-96228692D01*
X172015536Y-96364543D01*
X172510637Y-96364543D01*
X172597218Y-96274925D01*
X172688782Y-96180151D01*
X172766641Y-96229448D01*
X172818035Y-96268087D01*
X172843803Y-96299403D01*
X172844500Y-96303100D01*
X172887804Y-96303100D01*
X172962144Y-96196554D01*
X173062983Y-96022781D01*
X173131933Y-95833962D01*
X173134786Y-95813463D01*
X173102999Y-95813463D01*
X173098880Y-95852224D01*
X173076096Y-95921614D01*
X173040728Y-96007895D01*
X172998855Y-96097332D01*
X172956559Y-96176186D01*
X172919919Y-96230721D01*
X172916645Y-96234481D01*
X172887476Y-96260466D01*
X172857406Y-96260213D01*
X172807804Y-96232192D01*
X172796133Y-96224586D01*
X172734364Y-96171597D01*
X172723832Y-96159653D01*
X172683995Y-96159653D01*
X172587643Y-96258326D01*
X172491291Y-96357000D01*
X172029965Y-96357000D01*
X171759521Y-96083154D01*
X171857057Y-96016877D01*
X171902581Y-95988238D01*
X171946501Y-95969287D01*
X172000588Y-95958039D01*
X172076611Y-95952511D01*
X172186340Y-95950717D01*
X172250121Y-95950600D01*
X172545650Y-95950600D01*
X172614822Y-96055126D01*
X172683995Y-96159653D01*
X172723832Y-96159653D01*
X172667849Y-96096168D01*
X172636737Y-96053239D01*
X172558601Y-95935160D01*
X172658487Y-95828078D01*
X172758372Y-95720995D01*
X172924013Y-95749840D01*
X173013973Y-95770184D01*
X173078245Y-95793811D01*
X173102999Y-95813463D01*
X173134786Y-95813463D01*
X173161049Y-95624769D01*
X173158846Y-95578667D01*
X173136212Y-95578667D01*
X173135344Y-95678185D01*
X173130778Y-95736118D01*
X173120288Y-95761657D01*
X173101652Y-95763996D01*
X173092150Y-95760783D01*
X173043815Y-95747173D01*
X172964762Y-95730019D01*
X172895300Y-95717128D01*
X172891811Y-95716318D01*
X172735201Y-95716318D01*
X172546489Y-95925200D01*
X171978510Y-95925200D01*
X171879234Y-95823531D01*
X171779957Y-95721863D01*
X171892067Y-95607631D01*
X172004177Y-95493400D01*
X172516424Y-95493400D01*
X172625812Y-95604859D01*
X172735201Y-95716318D01*
X172891811Y-95716318D01*
X172794007Y-95693616D01*
X172718064Y-95656700D01*
X172642029Y-95593648D01*
X172634900Y-95586824D01*
X172526900Y-95482724D01*
X172530873Y-95478675D01*
X171993701Y-95478675D01*
X171889172Y-95585181D01*
X171813991Y-95652970D01*
X171741756Y-95691882D01*
X171647206Y-95715286D01*
X171641472Y-95716284D01*
X171525502Y-95736023D01*
X171450830Y-95743976D01*
X171408416Y-95735212D01*
X171389222Y-95704796D01*
X171384210Y-95647797D01*
X171384347Y-95575950D01*
X171385824Y-95454139D01*
X171394079Y-95373596D01*
X171415737Y-95324787D01*
X171457422Y-95298180D01*
X171525757Y-95284241D01*
X171592056Y-95277012D01*
X171770012Y-95259140D01*
X171881856Y-95368908D01*
X171993701Y-95478675D01*
X172530873Y-95478675D01*
X172633839Y-95373762D01*
X172709884Y-95305084D01*
X172772182Y-95271794D01*
X172818039Y-95265405D01*
X172912627Y-95273297D01*
X173004757Y-95292583D01*
X173077936Y-95318808D01*
X173114527Y-95345513D01*
X173124716Y-95385747D01*
X173132360Y-95461767D01*
X173136067Y-95558570D01*
X173136212Y-95578667D01*
X173158846Y-95578667D01*
X173150594Y-95406019D01*
X173119580Y-95270471D01*
X173098605Y-95270471D01*
X173087595Y-95284134D01*
X173065634Y-95277985D01*
X173015550Y-95265480D01*
X172937681Y-95252821D01*
X172895300Y-95247686D01*
X172868146Y-95242957D01*
X172737286Y-95242957D01*
X172626855Y-95355478D01*
X172516424Y-95468000D01*
X172004177Y-95468000D01*
X171896631Y-95358418D01*
X171789086Y-95248837D01*
X171866102Y-95142518D01*
X171943119Y-95036200D01*
X172573532Y-95036200D01*
X172655409Y-95139578D01*
X172737286Y-95242957D01*
X172868146Y-95242957D01*
X172811780Y-95233141D01*
X172750928Y-95203063D01*
X172689584Y-95145064D01*
X172676792Y-95130804D01*
X172585284Y-95027428D01*
X172587862Y-95023500D01*
X171932285Y-95023500D01*
X171854993Y-95129046D01*
X171819433Y-95176083D01*
X171787408Y-95207795D01*
X171747795Y-95228205D01*
X171689468Y-95241330D01*
X171601301Y-95251192D01*
X171491950Y-95260221D01*
X171445128Y-95250157D01*
X171434800Y-95227424D01*
X171444600Y-95185057D01*
X171469944Y-95114178D01*
X171496099Y-95051441D01*
X171559006Y-94939743D01*
X171639777Y-94859370D01*
X171665050Y-94841593D01*
X171729228Y-94800930D01*
X171765282Y-94786869D01*
X171786784Y-94796991D01*
X171800601Y-94817439D01*
X171833542Y-94870858D01*
X171876367Y-94937833D01*
X171880393Y-94944012D01*
X171932285Y-95023500D01*
X172587862Y-95023500D01*
X172638692Y-94946066D01*
X172681940Y-94878959D01*
X172717018Y-94822527D01*
X172720000Y-94817529D01*
X172739380Y-94791699D01*
X172763678Y-94788338D01*
X172806463Y-94809857D01*
X172855595Y-94841622D01*
X172950804Y-94928946D01*
X173027432Y-95054787D01*
X173087535Y-95220046D01*
X173098605Y-95270471D01*
X173119580Y-95270471D01*
X173100830Y-95188528D01*
X173038974Y-95035004D01*
X172985875Y-94943272D01*
X172919960Y-94870547D01*
X172824382Y-94798434D01*
X172819100Y-94794900D01*
X172758415Y-94754443D01*
X172714685Y-94754443D01*
X172714391Y-94775816D01*
X172694648Y-94816284D01*
X172653230Y-94885324D01*
X172614823Y-94948050D01*
X172597169Y-94974515D01*
X172576212Y-94992274D01*
X172542693Y-95002796D01*
X172487350Y-95007550D01*
X172400923Y-95008005D01*
X172274152Y-95005632D01*
X172254604Y-95005200D01*
X171933562Y-94998100D01*
X171862286Y-94876705D01*
X171791010Y-94755311D01*
X171855859Y-94730655D01*
X171910539Y-94720201D01*
X172003421Y-94712717D01*
X172121992Y-94708197D01*
X172253740Y-94706636D01*
X172386154Y-94708025D01*
X172506722Y-94712359D01*
X172602932Y-94719632D01*
X172662272Y-94729837D01*
X172665846Y-94731074D01*
X172697761Y-94742688D01*
X172714685Y-94754443D01*
X172758415Y-94754443D01*
X172666700Y-94693300D01*
X171853900Y-94693300D01*
X171701500Y-94794900D01*
X171701500Y-94794900D01*
G37*
X171701500Y-94794900D02*
X171604187Y-94867418D01*
X171537297Y-94939720D01*
X171483983Y-95030198D01*
X171481627Y-95035004D01*
X171399311Y-95258227D01*
X171362929Y-95497760D01*
X171363462Y-95664726D01*
X171374930Y-95786701D01*
X171397358Y-95883480D01*
X171437621Y-95980507D01*
X171461500Y-96027443D01*
X171585002Y-96234115D01*
X171738638Y-96447409D01*
X171908439Y-96648740D01*
X172000323Y-96744350D01*
X172086862Y-96827061D01*
X172149764Y-96878641D01*
X172199252Y-96905831D01*
X172245546Y-96915371D01*
X172260300Y-96915800D01*
X172307626Y-96910230D01*
X172355087Y-96889028D01*
X172412904Y-96845453D01*
X172491298Y-96772763D01*
X172520278Y-96744350D01*
X172660890Y-96593231D01*
X172631947Y-96593231D01*
X172601784Y-96638594D01*
X172538759Y-96702275D01*
X172501721Y-96737883D01*
X172401242Y-96827338D01*
X172320383Y-96877411D01*
X172248595Y-96889591D01*
X172175333Y-96865370D01*
X172090047Y-96806237D01*
X172079347Y-96797556D01*
X172006432Y-96732769D01*
X171943325Y-96668160D01*
X171917605Y-96636687D01*
X171869166Y-96568661D01*
X171945933Y-96475530D01*
X172022699Y-96382400D01*
X172257722Y-96382400D01*
X172370697Y-96383571D01*
X172444803Y-96388678D01*
X172491947Y-96400107D01*
X172524038Y-96420245D01*
X172542828Y-96439550D01*
X172600712Y-96506459D01*
X172631004Y-96553436D01*
X172631947Y-96593231D01*
X172660890Y-96593231D01*
X172678129Y-96574704D01*
X172829365Y-96386858D01*
X172887804Y-96303100D01*
X172844500Y-96303100D01*
X172830840Y-96335760D01*
X172795569Y-96394646D01*
X172760596Y-96446492D01*
X172676691Y-96565529D01*
X172591173Y-96467614D01*
X172505655Y-96369700D01*
X172510637Y-96364543D01*
X172015536Y-96364543D01*
X171934718Y-96461913D01*
X171887423Y-96517807D01*
X171855701Y-96553246D01*
X171848550Y-96559742D01*
X171832297Y-96540903D01*
X171793272Y-96490077D01*
X171738461Y-96416447D01*
X171708850Y-96376050D01*
X171591743Y-96207277D01*
X171505281Y-96062444D01*
X171443177Y-95930608D01*
X171424392Y-95880894D01*
X171389156Y-95781024D01*
X171752300Y-95724566D01*
X171847550Y-95817337D01*
X171901198Y-95872042D01*
X171935686Y-95911924D01*
X171942674Y-95924004D01*
X171922960Y-95943666D01*
X171871100Y-95982591D01*
X171797819Y-96032784D01*
X171788710Y-96038781D01*
X171708081Y-96093998D01*
X171642381Y-96143236D01*
X171605370Y-96176162D01*
X171604687Y-96176986D01*
X171603252Y-96187159D01*
X171634557Y-96169676D01*
X171657459Y-96153576D01*
X171740418Y-96092842D01*
X171877977Y-96228692D01*
X172015536Y-96364543D01*
X172510637Y-96364543D01*
X172597218Y-96274925D01*
X172688782Y-96180151D01*
X172766641Y-96229448D01*
X172818035Y-96268087D01*
X172843803Y-96299403D01*
X172844500Y-96303100D01*
X172887804Y-96303100D01*
X172962144Y-96196554D01*
X173062983Y-96022781D01*
X173131933Y-95833962D01*
X173134786Y-95813463D01*
X173102999Y-95813463D01*
X173098880Y-95852224D01*
X173076096Y-95921614D01*
X173040728Y-96007895D01*
X172998855Y-96097332D01*
X172956559Y-96176186D01*
X172919919Y-96230721D01*
X172916645Y-96234481D01*
X172887476Y-96260466D01*
X172857406Y-96260213D01*
X172807804Y-96232192D01*
X172796133Y-96224586D01*
X172734364Y-96171597D01*
X172723832Y-96159653D01*
X172683995Y-96159653D01*
X172587643Y-96258326D01*
X172491291Y-96357000D01*
X172029965Y-96357000D01*
X171759521Y-96083154D01*
X171857057Y-96016877D01*
X171902581Y-95988238D01*
X171946501Y-95969287D01*
X172000588Y-95958039D01*
X172076611Y-95952511D01*
X172186340Y-95950717D01*
X172250121Y-95950600D01*
X172545650Y-95950600D01*
X172614822Y-96055126D01*
X172683995Y-96159653D01*
X172723832Y-96159653D01*
X172667849Y-96096168D01*
X172636737Y-96053239D01*
X172558601Y-95935160D01*
X172658487Y-95828078D01*
X172758372Y-95720995D01*
X172924013Y-95749840D01*
X173013973Y-95770184D01*
X173078245Y-95793811D01*
X173102999Y-95813463D01*
X173134786Y-95813463D01*
X173161049Y-95624769D01*
X173158846Y-95578667D01*
X173136212Y-95578667D01*
X173135344Y-95678185D01*
X173130778Y-95736118D01*
X173120288Y-95761657D01*
X173101652Y-95763996D01*
X173092150Y-95760783D01*
X173043815Y-95747173D01*
X172964762Y-95730019D01*
X172895300Y-95717128D01*
X172891811Y-95716318D01*
X172735201Y-95716318D01*
X172546489Y-95925200D01*
X171978510Y-95925200D01*
X171879234Y-95823531D01*
X171779957Y-95721863D01*
X171892067Y-95607631D01*
X172004177Y-95493400D01*
X172516424Y-95493400D01*
X172625812Y-95604859D01*
X172735201Y-95716318D01*
X172891811Y-95716318D01*
X172794007Y-95693616D01*
X172718064Y-95656700D01*
X172642029Y-95593648D01*
X172634900Y-95586824D01*
X172526900Y-95482724D01*
X172530873Y-95478675D01*
X171993701Y-95478675D01*
X171889172Y-95585181D01*
X171813991Y-95652970D01*
X171741756Y-95691882D01*
X171647206Y-95715286D01*
X171641472Y-95716284D01*
X171525502Y-95736023D01*
X171450830Y-95743976D01*
X171408416Y-95735212D01*
X171389222Y-95704796D01*
X171384210Y-95647797D01*
X171384347Y-95575950D01*
X171385824Y-95454139D01*
X171394079Y-95373596D01*
X171415737Y-95324787D01*
X171457422Y-95298180D01*
X171525757Y-95284241D01*
X171592056Y-95277012D01*
X171770012Y-95259140D01*
X171881856Y-95368908D01*
X171993701Y-95478675D01*
X172530873Y-95478675D01*
X172633839Y-95373762D01*
X172709884Y-95305084D01*
X172772182Y-95271794D01*
X172818039Y-95265405D01*
X172912627Y-95273297D01*
X173004757Y-95292583D01*
X173077936Y-95318808D01*
X173114527Y-95345513D01*
X173124716Y-95385747D01*
X173132360Y-95461767D01*
X173136067Y-95558570D01*
X173136212Y-95578667D01*
X173158846Y-95578667D01*
X173150594Y-95406019D01*
X173119580Y-95270471D01*
X173098605Y-95270471D01*
X173087595Y-95284134D01*
X173065634Y-95277985D01*
X173015550Y-95265480D01*
X172937681Y-95252821D01*
X172895300Y-95247686D01*
X172868146Y-95242957D01*
X172737286Y-95242957D01*
X172626855Y-95355478D01*
X172516424Y-95468000D01*
X172004177Y-95468000D01*
X171896631Y-95358418D01*
X171789086Y-95248837D01*
X171866102Y-95142518D01*
X171943119Y-95036200D01*
X172573532Y-95036200D01*
X172655409Y-95139578D01*
X172737286Y-95242957D01*
X172868146Y-95242957D01*
X172811780Y-95233141D01*
X172750928Y-95203063D01*
X172689584Y-95145064D01*
X172676792Y-95130804D01*
X172585284Y-95027428D01*
X172587862Y-95023500D01*
X171932285Y-95023500D01*
X171854993Y-95129046D01*
X171819433Y-95176083D01*
X171787408Y-95207795D01*
X171747795Y-95228205D01*
X171689468Y-95241330D01*
X171601301Y-95251192D01*
X171491950Y-95260221D01*
X171445128Y-95250157D01*
X171434800Y-95227424D01*
X171444600Y-95185057D01*
X171469944Y-95114178D01*
X171496099Y-95051441D01*
X171559006Y-94939743D01*
X171639777Y-94859370D01*
X171665050Y-94841593D01*
X171729228Y-94800930D01*
X171765282Y-94786869D01*
X171786784Y-94796991D01*
X171800601Y-94817439D01*
X171833542Y-94870858D01*
X171876367Y-94937833D01*
X171880393Y-94944012D01*
X171932285Y-95023500D01*
X172587862Y-95023500D01*
X172638692Y-94946066D01*
X172681940Y-94878959D01*
X172717018Y-94822527D01*
X172720000Y-94817529D01*
X172739380Y-94791699D01*
X172763678Y-94788338D01*
X172806463Y-94809857D01*
X172855595Y-94841622D01*
X172950804Y-94928946D01*
X173027432Y-95054787D01*
X173087535Y-95220046D01*
X173098605Y-95270471D01*
X173119580Y-95270471D01*
X173100830Y-95188528D01*
X173038974Y-95035004D01*
X172985875Y-94943272D01*
X172919960Y-94870547D01*
X172824382Y-94798434D01*
X172819100Y-94794900D01*
X172758415Y-94754443D01*
X172714685Y-94754443D01*
X172714391Y-94775816D01*
X172694648Y-94816284D01*
X172653230Y-94885324D01*
X172614823Y-94948050D01*
X172597169Y-94974515D01*
X172576212Y-94992274D01*
X172542693Y-95002796D01*
X172487350Y-95007550D01*
X172400923Y-95008005D01*
X172274152Y-95005632D01*
X172254604Y-95005200D01*
X171933562Y-94998100D01*
X171862286Y-94876705D01*
X171791010Y-94755311D01*
X171855859Y-94730655D01*
X171910539Y-94720201D01*
X172003421Y-94712717D01*
X172121992Y-94708197D01*
X172253740Y-94706636D01*
X172386154Y-94708025D01*
X172506722Y-94712359D01*
X172602932Y-94719632D01*
X172662272Y-94729837D01*
X172665846Y-94731074D01*
X172697761Y-94742688D01*
X172714685Y-94754443D01*
X172758415Y-94754443D01*
X172666700Y-94693300D01*
X171853900Y-94693300D01*
X171701500Y-94794900D01*
G36*
X172306369Y-93985807D02*
X172311100Y-93994800D01*
X172335033Y-94019057D01*
X172339499Y-94020200D01*
X172341232Y-94003792D01*
X172336500Y-93994800D01*
X172312568Y-93970542D01*
X172308102Y-93969400D01*
X172306369Y-93985807D01*
X172306369Y-93985807D01*
G37*
X172306369Y-93985807D02*
X172311100Y-93994800D01*
X172335033Y-94019057D01*
X172339499Y-94020200D01*
X172341232Y-94003792D01*
X172336500Y-93994800D01*
X172312568Y-93970542D01*
X172308102Y-93969400D01*
X172306369Y-93985807D01*
G36*
X172175325Y-93979674D02*
X172148271Y-94003285D01*
X172146000Y-94008999D01*
X172158055Y-94019438D01*
X172183151Y-93996046D01*
X172186526Y-93990875D01*
X172189520Y-93973494D01*
X172175325Y-93979674D01*
X172175325Y-93979674D01*
G37*
X172175325Y-93979674D02*
X172148271Y-94003285D01*
X172146000Y-94008999D01*
X172158055Y-94019438D01*
X172183151Y-93996046D01*
X172186526Y-93990875D01*
X172189520Y-93973494D01*
X172175325Y-93979674D01*
M02*
