G04 #@! TF.FileFunction,Other,Fab,Top*
%FSLAX46Y46*%
G04 Gerber Fmt 4.6, Leading zero omitted, Abs format (unit mm)*
G04 Created by KiCad (PCBNEW 4.0.7) date 10/31/19 05:43:28*
%MOMM*%
%LPD*%
G01*
G04 APERTURE LIST*
%ADD10C,0.100000*%
%ADD11C,0.150000*%
G04 APERTURE END LIST*
D10*
D11*
X153734000Y-105739000D02*
X153734000Y-85832000D01*
X182537000Y-108836000D02*
X156957000Y-108836000D01*
X185726000Y-85794000D02*
X185726000Y-105636000D01*
X156926000Y-82706000D02*
X182667000Y-82706000D01*
X153739000Y-105739000D02*
G75*
G03X156952000Y-108836000I3155000J58000D01*
G01*
X182552000Y-108850000D02*
G75*
G03X185738000Y-105664000I0J3186000D01*
G01*
X156894000Y-82710000D02*
G75*
G03X153745000Y-85819000I-20000J-3129000D01*
G01*
X185732000Y-85807000D02*
G75*
G03X182760000Y-82713000I-3033000J61000D01*
G01*
D10*
X160685000Y-102931000D02*
X162590000Y-102931000D01*
X162590000Y-102931000D02*
X162590000Y-105471000D01*
X162590000Y-105471000D02*
X160050000Y-105471000D01*
X160050000Y-105471000D02*
X160050000Y-103566000D01*
X160050000Y-103566000D02*
X160685000Y-102931000D01*
X167310000Y-102931000D02*
X169215000Y-102931000D01*
X169215000Y-102931000D02*
X169215000Y-105471000D01*
X169215000Y-105471000D02*
X166675000Y-105471000D01*
X166675000Y-105471000D02*
X166675000Y-103566000D01*
X166675000Y-103566000D02*
X167310000Y-102931000D01*
X173954000Y-102931000D02*
X175859000Y-102931000D01*
X175859000Y-102931000D02*
X175859000Y-105471000D01*
X175859000Y-105471000D02*
X173319000Y-105471000D01*
X173319000Y-105471000D02*
X173319000Y-103566000D01*
X173319000Y-103566000D02*
X173954000Y-102931000D01*
X170996000Y-85923000D02*
X172901000Y-85923000D01*
X172901000Y-85923000D02*
X172901000Y-88463000D01*
X172901000Y-88463000D02*
X170361000Y-88463000D01*
X170361000Y-88463000D02*
X170361000Y-86558000D01*
X170361000Y-86558000D02*
X170996000Y-85923000D01*
X167390000Y-85924000D02*
X169295000Y-85924000D01*
X169295000Y-85924000D02*
X169295000Y-88464000D01*
X169295000Y-88464000D02*
X166755000Y-88464000D01*
X166755000Y-88464000D02*
X166755000Y-86559000D01*
X166755000Y-86559000D02*
X167390000Y-85924000D01*
X174487000Y-99537000D02*
X174487000Y-102037000D01*
X174487000Y-102037000D02*
X180787000Y-102037000D01*
X180787000Y-102037000D02*
X180787000Y-99537000D01*
X180787000Y-99537000D02*
X174487000Y-99537000D01*
X172557000Y-100787000D02*
X174487000Y-100787000D01*
X182717000Y-100787000D02*
X180787000Y-100787000D01*
X174488000Y-96372000D02*
X174488000Y-98872000D01*
X174488000Y-98872000D02*
X180788000Y-98872000D01*
X180788000Y-98872000D02*
X180788000Y-96372000D01*
X180788000Y-96372000D02*
X174488000Y-96372000D01*
X172558000Y-97622000D02*
X174488000Y-97622000D01*
X182718000Y-97622000D02*
X180788000Y-97622000D01*
X165131000Y-102032000D02*
X165131000Y-99532000D01*
X165131000Y-99532000D02*
X158831000Y-99532000D01*
X158831000Y-99532000D02*
X158831000Y-102032000D01*
X158831000Y-102032000D02*
X165131000Y-102032000D01*
X167061000Y-100782000D02*
X165131000Y-100782000D01*
X156901000Y-100782000D02*
X158831000Y-100782000D01*
X165131000Y-98832000D02*
X165131000Y-96332000D01*
X165131000Y-96332000D02*
X158831000Y-96332000D01*
X158831000Y-96332000D02*
X158831000Y-98832000D01*
X158831000Y-98832000D02*
X165131000Y-98832000D01*
X167061000Y-97582000D02*
X165131000Y-97582000D01*
X156901000Y-97582000D02*
X158831000Y-97582000D01*
X159037066Y-85860000D02*
G75*
G03X159037066Y-85860000I-2154066J0D01*
G01*
X184770066Y-85893000D02*
G75*
G03X184770066Y-85893000I-2154066J0D01*
G01*
X159037066Y-105669000D02*
G75*
G03X159037066Y-105669000I-2154066J0D01*
G01*
X184770066Y-105557000D02*
G75*
G03X184770066Y-105557000I-2154066J0D01*
G01*
X175531000Y-92481000D02*
G75*
G03X175531000Y-92481000I-2000000J0D01*
G01*
X176231000Y-92481000D02*
X175331000Y-92481000D01*
X175781000Y-92931000D02*
X175781000Y-92031000D01*
X182547000Y-92469000D02*
G75*
G03X182547000Y-92469000I-2000000J0D01*
G01*
X183247000Y-92469000D02*
X182347000Y-92469000D01*
X182797000Y-92919000D02*
X182797000Y-92019000D01*
X161533000Y-92481000D02*
G75*
G03X161533000Y-92481000I-2000000J0D01*
G01*
X162233000Y-92481000D02*
X161333000Y-92481000D01*
X161783000Y-92931000D02*
X161783000Y-92031000D01*
X168531000Y-92479000D02*
G75*
G03X168531000Y-92479000I-2000000J0D01*
G01*
X169231000Y-92479000D02*
X168331000Y-92479000D01*
X168781000Y-92929000D02*
X168781000Y-92029000D01*
D11*
X160772381Y-104534333D02*
X161486667Y-104534333D01*
X161629524Y-104581953D01*
X161724762Y-104677191D01*
X161772381Y-104820048D01*
X161772381Y-104915286D01*
X161772381Y-103534333D02*
X161772381Y-104105762D01*
X161772381Y-103820048D02*
X160772381Y-103820048D01*
X160915238Y-103915286D01*
X161010476Y-104010524D01*
X161058095Y-104105762D01*
X167397381Y-104534333D02*
X168111667Y-104534333D01*
X168254524Y-104581953D01*
X168349762Y-104677191D01*
X168397381Y-104820048D01*
X168397381Y-104915286D01*
X167492619Y-104105762D02*
X167445000Y-104058143D01*
X167397381Y-103962905D01*
X167397381Y-103724809D01*
X167445000Y-103629571D01*
X167492619Y-103581952D01*
X167587857Y-103534333D01*
X167683095Y-103534333D01*
X167825952Y-103581952D01*
X168397381Y-104153381D01*
X168397381Y-103534333D01*
X174041381Y-104534333D02*
X174755667Y-104534333D01*
X174898524Y-104581953D01*
X174993762Y-104677191D01*
X175041381Y-104820048D01*
X175041381Y-104915286D01*
X174041381Y-104153381D02*
X174041381Y-103534333D01*
X174422333Y-103867667D01*
X174422333Y-103724809D01*
X174469952Y-103629571D01*
X174517571Y-103581952D01*
X174612810Y-103534333D01*
X174850905Y-103534333D01*
X174946143Y-103581952D01*
X174993762Y-103629571D01*
X175041381Y-103724809D01*
X175041381Y-104010524D01*
X174993762Y-104105762D01*
X174946143Y-104153381D01*
X171083381Y-87526333D02*
X171797667Y-87526333D01*
X171940524Y-87573953D01*
X172035762Y-87669191D01*
X172083381Y-87812048D01*
X172083381Y-87907286D01*
X171416714Y-86621571D02*
X172083381Y-86621571D01*
X171035762Y-86859667D02*
X171750048Y-87097762D01*
X171750048Y-86478714D01*
X167477381Y-87527333D02*
X168191667Y-87527333D01*
X168334524Y-87574953D01*
X168429762Y-87670191D01*
X168477381Y-87813048D01*
X168477381Y-87908286D01*
X167477381Y-86574952D02*
X167477381Y-87051143D01*
X167953571Y-87098762D01*
X167905952Y-87051143D01*
X167858333Y-86955905D01*
X167858333Y-86717809D01*
X167905952Y-86622571D01*
X167953571Y-86574952D01*
X168048810Y-86527333D01*
X168286905Y-86527333D01*
X168382143Y-86574952D01*
X168429762Y-86622571D01*
X168477381Y-86717809D01*
X168477381Y-86955905D01*
X168429762Y-87051143D01*
X168382143Y-87098762D01*
X163433095Y-82541381D02*
X164004524Y-82541381D01*
X163718809Y-83541381D02*
X163718809Y-82541381D01*
X164337857Y-83541381D02*
X164337857Y-82541381D01*
X164718810Y-82541381D01*
X164814048Y-82589000D01*
X164861667Y-82636619D01*
X164909286Y-82731857D01*
X164909286Y-82874714D01*
X164861667Y-82969952D01*
X164814048Y-83017571D01*
X164718810Y-83065190D01*
X164337857Y-83065190D01*
X165814048Y-82541381D02*
X165337857Y-82541381D01*
X165290238Y-83017571D01*
X165337857Y-82969952D01*
X165433095Y-82922333D01*
X165671191Y-82922333D01*
X165766429Y-82969952D01*
X165814048Y-83017571D01*
X165861667Y-83112810D01*
X165861667Y-83350905D01*
X165814048Y-83446143D01*
X165766429Y-83493762D01*
X165671191Y-83541381D01*
X165433095Y-83541381D01*
X165337857Y-83493762D01*
X165290238Y-83446143D01*
X173698095Y-82536381D02*
X174269524Y-82536381D01*
X173983809Y-83536381D02*
X173983809Y-82536381D01*
X174602857Y-83536381D02*
X174602857Y-82536381D01*
X174983810Y-82536381D01*
X175079048Y-82584000D01*
X175126667Y-82631619D01*
X175174286Y-82726857D01*
X175174286Y-82869714D01*
X175126667Y-82964952D01*
X175079048Y-83012571D01*
X174983810Y-83060190D01*
X174602857Y-83060190D01*
X176031429Y-82869714D02*
X176031429Y-83536381D01*
X175793333Y-82488762D02*
X175555238Y-83203048D01*
X176174286Y-83203048D01*
X163350095Y-100974381D02*
X163921524Y-100974381D01*
X163635809Y-101974381D02*
X163635809Y-100974381D01*
X164254857Y-101974381D02*
X164254857Y-100974381D01*
X164635810Y-100974381D01*
X164731048Y-101022000D01*
X164778667Y-101069619D01*
X164826286Y-101164857D01*
X164826286Y-101307714D01*
X164778667Y-101402952D01*
X164731048Y-101450571D01*
X164635810Y-101498190D01*
X164254857Y-101498190D01*
X165778667Y-101974381D02*
X165207238Y-101974381D01*
X165492952Y-101974381D02*
X165492952Y-100974381D01*
X165397714Y-101117238D01*
X165302476Y-101212476D01*
X165207238Y-101260095D01*
X169975095Y-100974381D02*
X170546524Y-100974381D01*
X170260809Y-101974381D02*
X170260809Y-100974381D01*
X170879857Y-101974381D02*
X170879857Y-100974381D01*
X171260810Y-100974381D01*
X171356048Y-101022000D01*
X171403667Y-101069619D01*
X171451286Y-101164857D01*
X171451286Y-101307714D01*
X171403667Y-101402952D01*
X171356048Y-101450571D01*
X171260810Y-101498190D01*
X170879857Y-101498190D01*
X171832238Y-101069619D02*
X171879857Y-101022000D01*
X171975095Y-100974381D01*
X172213191Y-100974381D01*
X172308429Y-101022000D01*
X172356048Y-101069619D01*
X172403667Y-101164857D01*
X172403667Y-101260095D01*
X172356048Y-101402952D01*
X171784619Y-101974381D01*
X172403667Y-101974381D01*
X176619095Y-100974381D02*
X177190524Y-100974381D01*
X176904809Y-101974381D02*
X176904809Y-100974381D01*
X177523857Y-101974381D02*
X177523857Y-100974381D01*
X177904810Y-100974381D01*
X178000048Y-101022000D01*
X178047667Y-101069619D01*
X178095286Y-101164857D01*
X178095286Y-101307714D01*
X178047667Y-101402952D01*
X178000048Y-101450571D01*
X177904810Y-101498190D01*
X177523857Y-101498190D01*
X178428619Y-100974381D02*
X179047667Y-100974381D01*
X178714333Y-101355333D01*
X178857191Y-101355333D01*
X178952429Y-101402952D01*
X179000048Y-101450571D01*
X179047667Y-101545810D01*
X179047667Y-101783905D01*
X179000048Y-101879143D01*
X178952429Y-101926762D01*
X178857191Y-101974381D01*
X178571476Y-101974381D01*
X178476238Y-101926762D01*
X178428619Y-101879143D01*
X173364334Y-92838143D02*
X173316715Y-92885762D01*
X173173858Y-92933381D01*
X173078620Y-92933381D01*
X172935762Y-92885762D01*
X172840524Y-92790524D01*
X172792905Y-92695286D01*
X172745286Y-92504810D01*
X172745286Y-92361952D01*
X172792905Y-92171476D01*
X172840524Y-92076238D01*
X172935762Y-91981000D01*
X173078620Y-91933381D01*
X173173858Y-91933381D01*
X173316715Y-91981000D01*
X173364334Y-92028619D01*
X174316715Y-92933381D02*
X173745286Y-92933381D01*
X174031000Y-92933381D02*
X174031000Y-91933381D01*
X173935762Y-92076238D01*
X173840524Y-92171476D01*
X173745286Y-92219095D01*
X180380334Y-92826143D02*
X180332715Y-92873762D01*
X180189858Y-92921381D01*
X180094620Y-92921381D01*
X179951762Y-92873762D01*
X179856524Y-92778524D01*
X179808905Y-92683286D01*
X179761286Y-92492810D01*
X179761286Y-92349952D01*
X179808905Y-92159476D01*
X179856524Y-92064238D01*
X179951762Y-91969000D01*
X180094620Y-91921381D01*
X180189858Y-91921381D01*
X180332715Y-91969000D01*
X180380334Y-92016619D01*
X180761286Y-92016619D02*
X180808905Y-91969000D01*
X180904143Y-91921381D01*
X181142239Y-91921381D01*
X181237477Y-91969000D01*
X181285096Y-92016619D01*
X181332715Y-92111857D01*
X181332715Y-92207095D01*
X181285096Y-92349952D01*
X180713667Y-92921381D01*
X181332715Y-92921381D01*
X159366334Y-92838143D02*
X159318715Y-92885762D01*
X159175858Y-92933381D01*
X159080620Y-92933381D01*
X158937762Y-92885762D01*
X158842524Y-92790524D01*
X158794905Y-92695286D01*
X158747286Y-92504810D01*
X158747286Y-92361952D01*
X158794905Y-92171476D01*
X158842524Y-92076238D01*
X158937762Y-91981000D01*
X159080620Y-91933381D01*
X159175858Y-91933381D01*
X159318715Y-91981000D01*
X159366334Y-92028619D01*
X159699667Y-91933381D02*
X160318715Y-91933381D01*
X159985381Y-92314333D01*
X160128239Y-92314333D01*
X160223477Y-92361952D01*
X160271096Y-92409571D01*
X160318715Y-92504810D01*
X160318715Y-92742905D01*
X160271096Y-92838143D01*
X160223477Y-92885762D01*
X160128239Y-92933381D01*
X159842524Y-92933381D01*
X159747286Y-92885762D01*
X159699667Y-92838143D01*
X166364334Y-92836143D02*
X166316715Y-92883762D01*
X166173858Y-92931381D01*
X166078620Y-92931381D01*
X165935762Y-92883762D01*
X165840524Y-92788524D01*
X165792905Y-92693286D01*
X165745286Y-92502810D01*
X165745286Y-92359952D01*
X165792905Y-92169476D01*
X165840524Y-92074238D01*
X165935762Y-91979000D01*
X166078620Y-91931381D01*
X166173858Y-91931381D01*
X166316715Y-91979000D01*
X166364334Y-92026619D01*
X167221477Y-92264714D02*
X167221477Y-92931381D01*
X166983381Y-91883762D02*
X166745286Y-92598048D01*
X167364334Y-92598048D01*
M02*
