M48
;DRILL file {KiCad 4.0.7} date 10/31/19 18:54:45
;FORMAT={-:-/ absolute / inch / decimal}
FMAT,2
INCH,TZ
T1C0.024
T2C0.031
T3C0.039
T4C0.120
%
G90
G05
M72
T1
X6.2415Y-3.641
X6.3202Y-3.641
X6.517Y-3.6409
X6.5957Y-3.6409
X6.7926Y-3.641
X6.8713Y-3.641
X7.0688Y-3.6405
X7.1475Y-3.6405
T2
X6.1772Y-3.8418
X6.1772Y-3.9678
X6.5772Y-3.8418
X6.5772Y-3.9678
X6.7936Y-3.968
X6.7936Y-3.8434
X7.1936Y-3.968
X7.1936Y-3.8434
T3
X6.3645Y-4.1025
X6.6152Y-3.4328
X6.6192Y-4.1004
X6.7571Y-3.4328
X6.8736Y-4.1024
T4
X6.207Y-4.1592
X6.2096Y-3.3854
X7.1632Y-4.1591
X7.1635Y-3.3844
T0
M30
