%TF.GenerationSoftware,KiCad,Pcbnew,7.0.2*%
%TF.CreationDate,2025-03-23T10:17:30-04:00*%
%TF.ProjectId,ControllerToJamma,436f6e74-726f-46c6-9c65-72546f4a616d,rev?*%
%TF.SameCoordinates,Original*%
%TF.FileFunction,Copper,L1,Top*%
%TF.FilePolarity,Positive*%
%FSLAX46Y46*%
G04 Gerber Fmt 4.6, Leading zero omitted, Abs format (unit mm)*
G04 Created by KiCad (PCBNEW 7.0.2) date 2025-03-23 10:17:30*
%MOMM*%
%LPD*%
G01*
G04 APERTURE LIST*
%TA.AperFunction,ComponentPad*%
%ADD10R,2.200000X2.200000*%
%TD*%
%TA.AperFunction,ComponentPad*%
%ADD11C,2.200000*%
%TD*%
%TA.AperFunction,ComponentPad*%
%ADD12C,4.000000*%
%TD*%
%TA.AperFunction,ComponentPad*%
%ADD13R,1.600000X1.600000*%
%TD*%
%TA.AperFunction,ComponentPad*%
%ADD14C,1.600000*%
%TD*%
%TA.AperFunction,ComponentPad*%
%ADD15C,1.727200*%
%TD*%
%TA.AperFunction,ComponentPad*%
%ADD16R,1.727200X1.727200*%
%TD*%
%TA.AperFunction,ComponentPad*%
%ADD17C,1.408000*%
%TD*%
%TA.AperFunction,Conductor*%
%ADD18C,0.400000*%
%TD*%
%TA.AperFunction,Profile*%
%ADD19C,0.150000*%
%TD*%
G04 APERTURE END LIST*
D10*
%TO.P,J2,1,Pin_1*%
%TO.N,+5V*%
X139200000Y-117200000D03*
D11*
%TO.P,J2,2,Pin_2*%
%TO.N,CLK_OUT*%
X139200000Y-113200000D03*
%TO.P,J2,3,Pin_3*%
%TO.N,LATCH_OUT*%
X139200000Y-109200000D03*
%TO.P,J2,4,Pin_4*%
%TO.N,DATA_IN*%
X139200000Y-105200000D03*
%TO.P,J2,5,Pin_5*%
%TO.N,unconnected-(J2-Pin_5-Pad5)*%
X139200000Y-98700000D03*
%TO.P,J2,6,Pin_6*%
%TO.N,unconnected-(J2-Pin_6-Pad6)*%
X139200000Y-94700000D03*
%TO.P,J2,7,Pin_7*%
%TO.N,~*%
X139200000Y-90700000D03*
%TD*%
D12*
%TO.P,J3,0*%
%TO.N,N/C*%
X165780000Y-119800000D03*
X165780000Y-86500000D03*
D13*
%TO.P,J3,1,1*%
%TO.N,~*%
X165480000Y-93455000D03*
D14*
%TO.P,J3,2,2*%
%TO.N,unconnected-(J3-Pad2)*%
X165480000Y-96225000D03*
%TO.P,J3,3,3*%
%TO.N,OUT_SELECT*%
X165480000Y-98995000D03*
%TO.P,J3,4,4*%
%TO.N,OUT_B4*%
X165480000Y-101765000D03*
%TO.P,J3,5,5*%
%TO.N,OUT_B2*%
X165480000Y-104535000D03*
%TO.P,J3,6,6*%
%TO.N,OUT_RIGHT*%
X165480000Y-107305000D03*
%TO.P,J3,7,7*%
%TO.N,OUT_DOWN*%
X165480000Y-110075000D03*
%TO.P,J3,8,8*%
%TO.N,+5V*%
X165480000Y-112845000D03*
%TO.P,J3,9,P9*%
%TO.N,unconnected-(J3-P9-Pad9)*%
X168320000Y-94840000D03*
%TO.P,J3,10,P10*%
%TO.N,unconnected-(J3-P10-Pad10)*%
X168320000Y-97610000D03*
%TO.P,J3,11,P111*%
%TO.N,OUT_START*%
X168320000Y-100380000D03*
%TO.P,J3,12,P12*%
%TO.N,OUT_B3*%
X168320000Y-103150000D03*
%TO.P,J3,13,P13*%
%TO.N,OUT_B1*%
X168320000Y-105920000D03*
%TO.P,J3,14,P14*%
%TO.N,OUT_LEFT*%
X168320000Y-108690000D03*
%TO.P,J3,15,P15*%
%TO.N,OUT_UP*%
X168320000Y-111460000D03*
%TD*%
D15*
%TO.P,XA1,3V3,3.3V*%
%TO.N,unconnected-(XA1-3.3V-Pad3V3)*%
X143100000Y-88260000D03*
%TO.P,XA1,5V,5V*%
%TO.N,+5V*%
X143100000Y-113660000D03*
%TO.P,XA1,A0,A0*%
%TO.N,unconnected-(XA1-PadA0)*%
X143100000Y-93340000D03*
%TO.P,XA1,A1,A1*%
%TO.N,unconnected-(XA1-PadA1)*%
X143100000Y-95880000D03*
%TO.P,XA1,A2,A2*%
%TO.N,DATA_IN*%
X143100000Y-98420000D03*
%TO.P,XA1,A3,A3*%
%TO.N,LATCH_OUT*%
X143100000Y-100960000D03*
%TO.P,XA1,A4,A4_SDA*%
%TO.N,unconnected-(XA1-A4_SDA-PadA4)*%
X143100000Y-103500000D03*
%TO.P,XA1,A5,A5_SCL*%
%TO.N,CLK_OUT*%
X143100000Y-106040000D03*
%TO.P,XA1,A6,A6*%
%TO.N,unconnected-(XA1-PadA6)*%
X143100000Y-108580000D03*
%TO.P,XA1,A7,A7*%
%TO.N,unconnected-(XA1-PadA7)*%
X143100000Y-111120000D03*
%TO.P,XA1,AREF,AREF*%
%TO.N,unconnected-(XA1-PadAREF)*%
X143100000Y-90800000D03*
%TO.P,XA1,D0,D0_RX0*%
%TO.N,unconnected-(XA1-D0_RX0-PadD0)*%
X158340000Y-118740000D03*
D16*
%TO.P,XA1,D1,D1_TX0*%
%TO.N,unconnected-(XA1-D1_TX0-PadD1)*%
X158340000Y-121280000D03*
D15*
%TO.P,XA1,D2,D2_INT0*%
%TO.N,OUT_UP*%
X158340000Y-111120000D03*
%TO.P,XA1,D3,D3_INT1*%
%TO.N,OUT_DOWN*%
X158340000Y-108580000D03*
%TO.P,XA1,D4,D4*%
%TO.N,OUT_LEFT*%
X158340000Y-106040000D03*
%TO.P,XA1,D5,D5*%
%TO.N,OUT_RIGHT*%
X158340000Y-103500000D03*
%TO.P,XA1,D6,D6*%
%TO.N,OUT_B1*%
X158340000Y-100960000D03*
%TO.P,XA1,D7,D7*%
%TO.N,OUT_B2*%
X158340000Y-98420000D03*
%TO.P,XA1,D8,D8*%
%TO.N,OUT_B3*%
X158340000Y-95880000D03*
%TO.P,XA1,D9,D9*%
%TO.N,OUT_B4*%
X158340000Y-93340000D03*
%TO.P,XA1,D10,D10_CS*%
%TO.N,OUT_SELECT*%
X158340000Y-90800000D03*
%TO.P,XA1,D11,D11_MOSI*%
%TO.N,SWITCH_1*%
X158340000Y-88260000D03*
%TO.P,XA1,D12,D12_MISO*%
%TO.N,OUT_START*%
X158340000Y-85720000D03*
%TO.P,XA1,D13,D13_SCK*%
%TO.N,unconnected-(XA1-D13_SCK-PadD13)*%
X143100000Y-85720000D03*
%TO.P,XA1,GND1,GND*%
%TO.N,~*%
X158340000Y-113660000D03*
%TO.P,XA1,GND2,GND*%
X143100000Y-118740000D03*
%TO.P,XA1,RST1,RESET*%
%TO.N,unconnected-(XA1-RESET-PadRST1)*%
X158340000Y-116200000D03*
%TO.P,XA1,RST2,RESET*%
%TO.N,unconnected-(XA1-RESET-PadRST2)*%
X143100000Y-116200000D03*
%TO.P,XA1,VIN,VIN*%
%TO.N,unconnected-(XA1-PadVIN)*%
X143100000Y-121280000D03*
%TD*%
D17*
%TO.P,SW1,6*%
%TO.N,N/C*%
X134600000Y-84400000D03*
%TO.P,SW1,5*%
X132100000Y-84400000D03*
%TO.P,SW1,4*%
X129600000Y-84400000D03*
%TO.P,SW1,3,C*%
%TO.N,+5V*%
X134600000Y-81100000D03*
%TO.P,SW1,2,B*%
%TO.N,SWITCH_1*%
X132100000Y-81100000D03*
%TO.P,SW1,1,A*%
%TO.N,~*%
X129600000Y-81100000D03*
%TD*%
D18*
%TO.N,DATA_IN*%
X141220000Y-100300000D02*
X141200000Y-100300000D01*
X143100000Y-98420000D02*
X141220000Y-100300000D01*
X141200000Y-101200000D02*
X141200000Y-100300000D01*
X139200000Y-103200000D02*
X141200000Y-101200000D01*
X139200000Y-105200000D02*
X139200000Y-103200000D01*
%TO.N,LATCH_OUT*%
X141200000Y-102860000D02*
X141200000Y-102900000D01*
X143100000Y-100960000D02*
X141200000Y-102860000D01*
X141200000Y-106500000D02*
X141200000Y-102900000D01*
X139200000Y-108500000D02*
X141200000Y-106500000D01*
X139200000Y-109200000D02*
X139200000Y-108500000D01*
%TO.N,CLK_OUT*%
X141100000Y-112400000D02*
X141100000Y-108040000D01*
X140300000Y-113200000D02*
X141100000Y-112400000D01*
X139200000Y-113200000D02*
X140300000Y-113200000D01*
X141100000Y-108040000D02*
X143100000Y-106040000D01*
%TO.N,+5V*%
X139560000Y-117200000D02*
X143100000Y-113660000D01*
X139200000Y-117200000D02*
X139560000Y-117200000D01*
X145400000Y-111488600D02*
X146300000Y-112388600D01*
X145400000Y-82500000D02*
X145400000Y-111488600D01*
X144000000Y-81100000D02*
X145400000Y-82500000D01*
X134600000Y-81100000D02*
X144000000Y-81100000D01*
X146000000Y-112388600D02*
X146300000Y-112388600D01*
X146300000Y-112388600D02*
X164388600Y-112388600D01*
X164388600Y-112388600D02*
X164845000Y-112845000D01*
X143360000Y-113665000D02*
X143635000Y-113665000D01*
X164845000Y-112845000D02*
X165480000Y-112845000D01*
X144728600Y-113660000D02*
X146000000Y-112388600D01*
X143100000Y-113660000D02*
X144728600Y-113660000D01*
X165480000Y-112700000D02*
X165181400Y-112401400D01*
%TO.N,OUT_B4*%
X160200000Y-95200000D02*
X160200000Y-96000000D01*
X158340000Y-93340000D02*
X160200000Y-95200000D01*
X165480000Y-101765000D02*
X164800000Y-101085000D01*
X158980000Y-93345000D02*
X158980000Y-93580000D01*
X164800000Y-101085000D02*
X164800000Y-100600000D01*
X160200000Y-96000000D02*
X164800000Y-100600000D01*
%TO.N,OUT_B2*%
X164945000Y-104390000D02*
X165480000Y-104390000D01*
X158980000Y-98425000D02*
X164945000Y-104390000D01*
%TO.N,OUT_RIGHT*%
X158980000Y-103505000D02*
X160605000Y-103505000D01*
X160605000Y-103505000D02*
X164260000Y-107160000D01*
X164260000Y-107160000D02*
X165480000Y-107160000D01*
%TO.N,OUT_DOWN*%
X161285000Y-108585000D02*
X158980000Y-108585000D01*
X162630000Y-109930000D02*
X161285000Y-108585000D01*
X165480000Y-109930000D02*
X162630000Y-109930000D01*
%TO.N,OUT_START*%
X161200000Y-87945000D02*
X161200000Y-93900000D01*
X166200000Y-97600000D02*
X168320000Y-99720000D01*
X168320000Y-99720000D02*
X168320000Y-100235000D01*
X164900000Y-97600000D02*
X166200000Y-97600000D01*
X161200000Y-93900000D02*
X164900000Y-97600000D01*
X158980000Y-85725000D02*
X161200000Y-87945000D01*
%TO.N,OUT_B3*%
X163600000Y-101800000D02*
X164900000Y-103100000D01*
X158980000Y-95885000D02*
X158980000Y-96280000D01*
X158980000Y-96280000D02*
X163600000Y-100900000D01*
X164900000Y-103100000D02*
X168225000Y-103100000D01*
X163600000Y-100900000D02*
X163600000Y-101800000D01*
X168225000Y-103100000D02*
X168320000Y-103005000D01*
%TO.N,OUT_B1*%
X158980000Y-100965000D02*
X159665000Y-100965000D01*
X164600000Y-105900000D02*
X168195000Y-105900000D01*
X159665000Y-100965000D02*
X164600000Y-105900000D01*
X168195000Y-105900000D02*
X168320000Y-105775000D01*
%TO.N,OUT_LEFT*%
X163400000Y-108700000D02*
X168165000Y-108700000D01*
X160745000Y-106045000D02*
X163400000Y-108700000D01*
X168165000Y-108700000D02*
X168320000Y-108545000D01*
X158980000Y-106045000D02*
X160745000Y-106045000D01*
%TO.N,OUT_UP*%
X158980000Y-111125000D02*
X159355000Y-111500000D01*
X168135000Y-111500000D02*
X168320000Y-111315000D01*
X159355000Y-111500000D02*
X168135000Y-111500000D01*
%TO.N,LATCH_OUT*%
X143035000Y-100965000D02*
X143360000Y-100965000D01*
X143360000Y-100965000D02*
X143740000Y-100965000D01*
%TO.N,unconnected-(XA1-PadA1)*%
X143740000Y-95885000D02*
X143215000Y-95885000D01*
%TO.N,DATA_IN*%
X142675000Y-98425000D02*
X143740000Y-98425000D01*
%TO.N,CLK_OUT*%
X143155000Y-106045000D02*
X143740000Y-106045000D01*
%TO.N,OUT_SELECT*%
X160300000Y-92125000D02*
X160300000Y-94400000D01*
X160300000Y-94400000D02*
X164895000Y-98995000D01*
X158980000Y-90805000D02*
X160300000Y-92125000D01*
X164895000Y-98995000D02*
X165480000Y-98995000D01*
%TD*%
%TA.AperFunction,Conductor*%
%TO.N,~*%
G36*
X128499086Y-80230246D02*
G01*
X128566116Y-80249952D01*
X128611853Y-80302771D01*
X128621774Y-80371933D01*
X128597997Y-80428970D01*
X128571952Y-80463459D01*
X128472494Y-80663200D01*
X128411429Y-80877817D01*
X128390842Y-81100000D01*
X128411429Y-81322182D01*
X128472494Y-81536799D01*
X128571950Y-81736537D01*
X128588282Y-81758163D01*
X129155549Y-81190895D01*
X129156327Y-81201265D01*
X129205887Y-81327541D01*
X129290465Y-81433599D01*
X129402547Y-81510016D01*
X129510299Y-81543253D01*
X128943766Y-82109785D01*
X129061030Y-82182393D01*
X129269098Y-82262998D01*
X129488435Y-82304000D01*
X129711565Y-82304000D01*
X129930901Y-82262998D01*
X130138970Y-82182393D01*
X130256231Y-82109786D01*
X130256231Y-82109785D01*
X129688231Y-81541784D01*
X129734138Y-81534865D01*
X129856357Y-81476007D01*
X129955798Y-81383740D01*
X130023625Y-81266260D01*
X130041499Y-81187946D01*
X130611716Y-81758163D01*
X130611717Y-81758163D01*
X130628047Y-81736540D01*
X130727505Y-81536799D01*
X130788570Y-81322182D01*
X130809157Y-81100000D01*
X130788570Y-80877817D01*
X130727505Y-80663200D01*
X130628049Y-80463462D01*
X130602557Y-80429706D01*
X130577865Y-80364345D01*
X130592430Y-80296010D01*
X130641627Y-80246398D01*
X130701549Y-80230979D01*
X131251444Y-80231162D01*
X131318471Y-80250868D01*
X131364208Y-80303687D01*
X131374129Y-80372849D01*
X131347251Y-80433825D01*
X131260747Y-80539231D01*
X131167474Y-80713732D01*
X131110034Y-80903085D01*
X131090640Y-81100000D01*
X131110034Y-81296914D01*
X131110035Y-81296916D01*
X131164361Y-81476007D01*
X131167474Y-81486267D01*
X131256645Y-81653095D01*
X131260748Y-81660770D01*
X131386275Y-81813725D01*
X131539230Y-81939252D01*
X131713735Y-82032527D01*
X131903084Y-82089965D01*
X132100000Y-82109360D01*
X132296916Y-82089965D01*
X132486265Y-82032527D01*
X132660770Y-81939252D01*
X132813725Y-81813725D01*
X132939252Y-81660770D01*
X133032527Y-81486265D01*
X133089965Y-81296916D01*
X133109360Y-81100000D01*
X133089965Y-80903084D01*
X133032527Y-80713735D01*
X132939252Y-80539230D01*
X132853212Y-80434390D01*
X132825900Y-80370082D01*
X132837691Y-80301215D01*
X132884843Y-80249654D01*
X132949102Y-80231728D01*
X133750759Y-80231995D01*
X133817788Y-80251701D01*
X133863526Y-80304520D01*
X133873446Y-80373682D01*
X133846567Y-80434659D01*
X133760747Y-80539230D01*
X133667474Y-80713732D01*
X133610034Y-80903085D01*
X133590640Y-81100000D01*
X133610034Y-81296914D01*
X133610035Y-81296916D01*
X133664361Y-81476007D01*
X133667474Y-81486267D01*
X133756645Y-81653095D01*
X133760748Y-81660770D01*
X133886275Y-81813725D01*
X134039230Y-81939252D01*
X134213735Y-82032527D01*
X134403084Y-82089965D01*
X134600000Y-82109360D01*
X134796916Y-82089965D01*
X134986265Y-82032527D01*
X135160770Y-81939252D01*
X135313725Y-81813725D01*
X135439252Y-81660770D01*
X135439252Y-81660769D01*
X135447000Y-81651329D01*
X135449152Y-81653095D01*
X135485400Y-81616199D01*
X135545790Y-81600500D01*
X143741324Y-81600500D01*
X143808363Y-81620185D01*
X143829005Y-81636819D01*
X144863181Y-82670995D01*
X144896666Y-82732318D01*
X144899500Y-82758676D01*
X144899500Y-111421457D01*
X144896666Y-111447815D01*
X144895640Y-111452526D01*
X144899184Y-111502061D01*
X144899500Y-111510908D01*
X144899500Y-111524402D01*
X144901419Y-111537753D01*
X144902365Y-111546547D01*
X144905909Y-111596083D01*
X144907594Y-111600601D01*
X144914147Y-111626276D01*
X144914712Y-111630203D01*
X144914835Y-111631058D01*
X144935457Y-111676212D01*
X144938845Y-111684390D01*
X144956204Y-111730931D01*
X144959095Y-111734794D01*
X144972620Y-111757587D01*
X144974622Y-111761972D01*
X144974623Y-111761973D01*
X145007147Y-111799507D01*
X145012689Y-111806386D01*
X145020779Y-111817193D01*
X145030321Y-111826735D01*
X145036354Y-111833215D01*
X145068870Y-111870742D01*
X145072927Y-111873349D01*
X145093571Y-111889985D01*
X145354504Y-112150918D01*
X145387989Y-112212241D01*
X145383005Y-112281933D01*
X145354504Y-112326280D01*
X145149635Y-112531150D01*
X144755367Y-112925419D01*
X144557605Y-113123181D01*
X144496282Y-113156666D01*
X144469924Y-113159500D01*
X144227992Y-113159500D01*
X144160953Y-113139815D01*
X144116992Y-113090772D01*
X144093978Y-113044555D01*
X143963965Y-112872389D01*
X143804534Y-112727049D01*
X143621107Y-112613476D01*
X143564775Y-112591653D01*
X143419936Y-112535542D01*
X143293399Y-112511888D01*
X143231120Y-112480221D01*
X143195847Y-112419908D01*
X143198781Y-112350100D01*
X143238990Y-112292960D01*
X143293399Y-112268111D01*
X143419936Y-112244458D01*
X143621107Y-112166524D01*
X143804532Y-112052952D01*
X143963966Y-111907609D01*
X144093978Y-111735445D01*
X144093978Y-111735443D01*
X144093980Y-111735442D01*
X144190141Y-111542323D01*
X144249181Y-111334821D01*
X144252293Y-111301233D01*
X144269087Y-111120000D01*
X144249181Y-110905181D01*
X144249181Y-110905178D01*
X144190141Y-110697676D01*
X144093980Y-110504557D01*
X143963965Y-110332389D01*
X143804534Y-110187049D01*
X143621107Y-110073476D01*
X143521750Y-110034985D01*
X143419936Y-109995542D01*
X143293399Y-109971888D01*
X143231120Y-109940221D01*
X143195847Y-109879908D01*
X143198781Y-109810100D01*
X143238990Y-109752960D01*
X143293399Y-109728111D01*
X143419936Y-109704458D01*
X143621107Y-109626524D01*
X143804532Y-109512952D01*
X143963966Y-109367609D01*
X144093978Y-109195445D01*
X144093978Y-109195443D01*
X144093980Y-109195442D01*
X144190141Y-109002323D01*
X144249181Y-108794821D01*
X144258894Y-108690000D01*
X144269087Y-108580000D01*
X144249181Y-108365181D01*
X144249181Y-108365178D01*
X144190141Y-108157676D01*
X144093980Y-107964557D01*
X143963965Y-107792389D01*
X143804534Y-107647049D01*
X143621107Y-107533476D01*
X143603219Y-107526546D01*
X143419936Y-107455542D01*
X143293399Y-107431888D01*
X143231120Y-107400221D01*
X143195847Y-107339908D01*
X143198781Y-107270100D01*
X143238990Y-107212960D01*
X143293399Y-107188111D01*
X143419936Y-107164458D01*
X143621107Y-107086524D01*
X143804532Y-106972952D01*
X143963966Y-106827609D01*
X144093978Y-106655445D01*
X144093978Y-106655443D01*
X144093980Y-106655442D01*
X144190141Y-106462323D01*
X144249181Y-106254821D01*
X144257181Y-106168487D01*
X144269087Y-106040000D01*
X144249181Y-105825181D01*
X144249181Y-105825178D01*
X144190141Y-105617676D01*
X144093980Y-105424557D01*
X143963965Y-105252389D01*
X143804534Y-105107049D01*
X143621107Y-104993476D01*
X143419936Y-104915542D01*
X143293399Y-104891888D01*
X143231120Y-104860221D01*
X143195847Y-104799908D01*
X143198781Y-104730100D01*
X143238990Y-104672960D01*
X143293399Y-104648111D01*
X143419936Y-104624458D01*
X143621107Y-104546524D01*
X143804532Y-104432952D01*
X143963966Y-104287609D01*
X144093978Y-104115445D01*
X144093978Y-104115443D01*
X144093980Y-104115442D01*
X144190141Y-103922323D01*
X144249181Y-103714821D01*
X144254206Y-103660592D01*
X144269087Y-103500000D01*
X144249181Y-103285181D01*
X144249181Y-103285178D01*
X144190141Y-103077676D01*
X144093980Y-102884557D01*
X143963965Y-102712389D01*
X143804534Y-102567049D01*
X143621107Y-102453476D01*
X143519969Y-102414295D01*
X143419936Y-102375542D01*
X143293399Y-102351888D01*
X143231120Y-102320221D01*
X143195847Y-102259908D01*
X143198781Y-102190100D01*
X143238990Y-102132960D01*
X143293399Y-102108111D01*
X143419936Y-102084458D01*
X143621107Y-102006524D01*
X143804532Y-101892952D01*
X143963966Y-101747609D01*
X144093978Y-101575445D01*
X144093978Y-101575443D01*
X144093980Y-101575442D01*
X144190141Y-101382323D01*
X144249181Y-101174821D01*
X144254187Y-101120799D01*
X144269087Y-100960000D01*
X144249181Y-100745181D01*
X144249181Y-100745178D01*
X144190141Y-100537676D01*
X144093980Y-100344557D01*
X143963965Y-100172389D01*
X143804534Y-100027049D01*
X143621107Y-99913476D01*
X143525578Y-99876468D01*
X143419936Y-99835542D01*
X143293399Y-99811888D01*
X143231120Y-99780221D01*
X143195847Y-99719908D01*
X143198781Y-99650100D01*
X143238990Y-99592960D01*
X143293399Y-99568111D01*
X143419936Y-99544458D01*
X143621107Y-99466524D01*
X143804532Y-99352952D01*
X143963966Y-99207609D01*
X144093978Y-99035445D01*
X144093978Y-99035443D01*
X144093980Y-99035442D01*
X144190141Y-98842323D01*
X144249181Y-98634821D01*
X144252468Y-98599347D01*
X144269087Y-98420000D01*
X144249181Y-98205181D01*
X144249181Y-98205178D01*
X144190141Y-97997676D01*
X144093980Y-97804557D01*
X143963965Y-97632389D01*
X143804534Y-97487049D01*
X143621107Y-97373476D01*
X143621106Y-97373476D01*
X143419936Y-97295542D01*
X143293399Y-97271888D01*
X143231120Y-97240221D01*
X143195847Y-97179908D01*
X143198781Y-97110100D01*
X143238990Y-97052960D01*
X143293399Y-97028111D01*
X143419936Y-97004458D01*
X143621107Y-96926524D01*
X143804532Y-96812952D01*
X143963966Y-96667609D01*
X144093978Y-96495445D01*
X144093978Y-96495443D01*
X144093980Y-96495442D01*
X144190141Y-96302323D01*
X144249181Y-96094821D01*
X144255936Y-96021916D01*
X144269087Y-95880000D01*
X144249181Y-95665181D01*
X144249181Y-95665178D01*
X144190141Y-95457676D01*
X144093980Y-95264557D01*
X143963965Y-95092389D01*
X143804534Y-94947049D01*
X143621107Y-94833476D01*
X143525632Y-94796489D01*
X143419936Y-94755542D01*
X143293399Y-94731888D01*
X143231120Y-94700221D01*
X143195847Y-94639908D01*
X143198781Y-94570100D01*
X143238990Y-94512960D01*
X143293399Y-94488111D01*
X143419936Y-94464458D01*
X143621107Y-94386524D01*
X143804532Y-94272952D01*
X143963966Y-94127609D01*
X144093978Y-93955445D01*
X144093978Y-93955443D01*
X144093980Y-93955442D01*
X144190141Y-93762323D01*
X144249181Y-93554821D01*
X144252080Y-93523530D01*
X144269087Y-93340000D01*
X144249181Y-93125181D01*
X144249181Y-93125178D01*
X144190141Y-92917676D01*
X144093980Y-92724557D01*
X143963965Y-92552389D01*
X143804534Y-92407049D01*
X143621107Y-92293476D01*
X143447953Y-92226396D01*
X143419936Y-92215542D01*
X143293399Y-92191888D01*
X143231120Y-92160221D01*
X143195847Y-92099908D01*
X143198781Y-92030100D01*
X143238990Y-91972960D01*
X143293399Y-91948111D01*
X143419936Y-91924458D01*
X143621107Y-91846524D01*
X143804532Y-91732952D01*
X143938267Y-91611037D01*
X143963965Y-91587610D01*
X143966417Y-91584363D01*
X144093978Y-91415445D01*
X144093978Y-91415443D01*
X144093980Y-91415442D01*
X144190141Y-91222323D01*
X144249181Y-91014821D01*
X144255088Y-90951070D01*
X144269087Y-90800000D01*
X144249181Y-90585181D01*
X144249181Y-90585178D01*
X144190141Y-90377676D01*
X144093980Y-90184557D01*
X143963965Y-90012389D01*
X143804534Y-89867049D01*
X143621107Y-89753476D01*
X143419936Y-89675542D01*
X143293399Y-89651888D01*
X143231120Y-89620221D01*
X143195847Y-89559908D01*
X143198781Y-89490100D01*
X143238990Y-89432960D01*
X143293399Y-89408111D01*
X143419936Y-89384458D01*
X143621107Y-89306524D01*
X143804532Y-89192952D01*
X143963966Y-89047609D01*
X144093978Y-88875445D01*
X144093978Y-88875443D01*
X144093980Y-88875442D01*
X144190141Y-88682323D01*
X144249181Y-88474821D01*
X144252293Y-88441233D01*
X144269087Y-88260000D01*
X144249181Y-88045181D01*
X144249181Y-88045178D01*
X144190141Y-87837676D01*
X144093980Y-87644557D01*
X143963965Y-87472389D01*
X143804534Y-87327049D01*
X143621107Y-87213476D01*
X143621106Y-87213476D01*
X143419936Y-87135542D01*
X143293399Y-87111888D01*
X143231120Y-87080221D01*
X143195847Y-87019908D01*
X143198781Y-86950100D01*
X143238990Y-86892960D01*
X143293399Y-86868111D01*
X143419936Y-86844458D01*
X143621107Y-86766524D01*
X143804532Y-86652952D01*
X143963966Y-86507609D01*
X144093978Y-86335445D01*
X144093978Y-86335443D01*
X144093980Y-86335442D01*
X144190141Y-86142323D01*
X144249181Y-85934821D01*
X144253787Y-85885108D01*
X144269087Y-85720000D01*
X144249181Y-85505181D01*
X144249181Y-85505178D01*
X144190141Y-85297676D01*
X144093980Y-85104557D01*
X143963965Y-84932389D01*
X143804534Y-84787049D01*
X143621107Y-84673476D01*
X143608817Y-84668715D01*
X143419936Y-84595542D01*
X143334901Y-84579646D01*
X143272622Y-84547979D01*
X143237349Y-84487666D01*
X143240283Y-84417858D01*
X143280492Y-84360718D01*
X143323754Y-84338492D01*
X143526457Y-84280818D01*
X143543509Y-84272327D01*
X143721472Y-84183712D01*
X143895322Y-84052427D01*
X144042088Y-83891432D01*
X144156772Y-83706210D01*
X144235470Y-83503069D01*
X144275500Y-83288926D01*
X144275500Y-83071074D01*
X144235470Y-82856931D01*
X144221062Y-82819740D01*
X144156773Y-82653791D01*
X144050479Y-82482120D01*
X144042088Y-82468568D01*
X143983965Y-82404810D01*
X143895323Y-82307573D01*
X143721471Y-82176287D01*
X143526457Y-82079181D01*
X143316925Y-82019564D01*
X143157207Y-82004765D01*
X143157206Y-82004764D01*
X143154347Y-82004500D01*
X143045653Y-82004500D01*
X143042794Y-82004764D01*
X143042792Y-82004765D01*
X142883074Y-82019564D01*
X142673542Y-82079181D01*
X142478528Y-82176287D01*
X142304676Y-82307573D01*
X142157912Y-82468567D01*
X142043226Y-82653791D01*
X141964531Y-82856926D01*
X141964530Y-82856930D01*
X141964530Y-82856931D01*
X141924500Y-83071074D01*
X141924500Y-83288926D01*
X141941573Y-83380259D01*
X141964531Y-83503073D01*
X142043226Y-83706208D01*
X142157912Y-83891432D01*
X142304676Y-84052426D01*
X142478528Y-84183712D01*
X142673542Y-84280818D01*
X142876245Y-84338492D01*
X142935339Y-84375771D01*
X142964896Y-84439081D01*
X142955534Y-84508320D01*
X142910224Y-84561507D01*
X142865097Y-84579646D01*
X142780063Y-84595541D01*
X142780064Y-84595542D01*
X142578892Y-84673476D01*
X142395465Y-84787049D01*
X142236034Y-84932389D01*
X142106019Y-85104557D01*
X142009858Y-85297676D01*
X141950818Y-85505178D01*
X141930913Y-85720000D01*
X141950818Y-85934821D01*
X142009858Y-86142323D01*
X142106019Y-86335442D01*
X142236034Y-86507610D01*
X142395465Y-86652950D01*
X142395467Y-86652951D01*
X142395468Y-86652952D01*
X142578893Y-86766524D01*
X142780064Y-86844458D01*
X142906598Y-86868111D01*
X142968879Y-86899779D01*
X143004152Y-86960092D01*
X143001218Y-87029900D01*
X142961009Y-87087040D01*
X142906599Y-87111888D01*
X142780063Y-87135542D01*
X142780064Y-87135542D01*
X142578892Y-87213476D01*
X142395465Y-87327049D01*
X142236034Y-87472389D01*
X142106019Y-87644557D01*
X142009858Y-87837676D01*
X141950818Y-88045178D01*
X141930913Y-88260000D01*
X141950818Y-88474821D01*
X142009858Y-88682323D01*
X142106019Y-88875442D01*
X142236034Y-89047610D01*
X142395465Y-89192950D01*
X142395467Y-89192951D01*
X142395468Y-89192952D01*
X142578893Y-89306524D01*
X142780064Y-89384458D01*
X142906598Y-89408111D01*
X142968879Y-89439779D01*
X143004152Y-89500092D01*
X143001218Y-89569900D01*
X142961009Y-89627040D01*
X142906599Y-89651888D01*
X142780064Y-89675541D01*
X142780064Y-89675542D01*
X142578892Y-89753476D01*
X142395465Y-89867049D01*
X142236034Y-90012389D01*
X142106019Y-90184557D01*
X142009858Y-90377676D01*
X141950818Y-90585178D01*
X141930913Y-90800000D01*
X141950818Y-91014821D01*
X142009858Y-91222323D01*
X142106019Y-91415442D01*
X142236034Y-91587610D01*
X142395465Y-91732950D01*
X142395467Y-91732951D01*
X142395468Y-91732952D01*
X142578893Y-91846524D01*
X142780064Y-91924458D01*
X142906598Y-91948111D01*
X142968879Y-91979779D01*
X143004152Y-92040092D01*
X143001218Y-92109900D01*
X142961009Y-92167040D01*
X142906599Y-92191888D01*
X142780064Y-92215541D01*
X142780064Y-92215542D01*
X142578892Y-92293476D01*
X142395465Y-92407049D01*
X142236034Y-92552389D01*
X142106019Y-92724557D01*
X142009858Y-92917676D01*
X141950818Y-93125178D01*
X141930913Y-93339999D01*
X141950818Y-93554821D01*
X142009858Y-93762323D01*
X142106019Y-93955442D01*
X142236034Y-94127610D01*
X142395465Y-94272950D01*
X142395467Y-94272951D01*
X142395468Y-94272952D01*
X142578893Y-94386524D01*
X142780064Y-94464458D01*
X142906598Y-94488111D01*
X142968879Y-94519779D01*
X143004152Y-94580092D01*
X143001218Y-94649900D01*
X142961009Y-94707040D01*
X142906599Y-94731888D01*
X142817206Y-94748599D01*
X142780064Y-94755542D01*
X142578892Y-94833476D01*
X142395465Y-94947049D01*
X142236034Y-95092389D01*
X142106019Y-95264557D01*
X142009858Y-95457676D01*
X141950818Y-95665178D01*
X141930913Y-95879999D01*
X141950818Y-96094821D01*
X142009858Y-96302323D01*
X142106019Y-96495442D01*
X142236034Y-96667610D01*
X142395465Y-96812950D01*
X142395467Y-96812951D01*
X142395468Y-96812952D01*
X142578893Y-96926524D01*
X142780064Y-97004458D01*
X142906598Y-97028111D01*
X142968879Y-97059779D01*
X143004152Y-97120092D01*
X143001218Y-97189900D01*
X142961009Y-97247040D01*
X142906599Y-97271888D01*
X142790608Y-97293571D01*
X142780064Y-97295542D01*
X142578892Y-97373476D01*
X142395465Y-97487049D01*
X142236034Y-97632389D01*
X142106019Y-97804557D01*
X142009858Y-97997676D01*
X141950818Y-98205178D01*
X141930913Y-98419999D01*
X141950818Y-98634817D01*
X141981057Y-98741099D01*
X141980469Y-98810966D01*
X141949471Y-98862713D01*
X140962573Y-99849611D01*
X140926929Y-99874361D01*
X140905998Y-99892497D01*
X140891842Y-99903094D01*
X140868871Y-99917857D01*
X140850992Y-99938490D01*
X140838490Y-99950992D01*
X140817857Y-99968871D01*
X140803094Y-99991842D01*
X140792497Y-100005998D01*
X140774620Y-100026629D01*
X140763278Y-100051463D01*
X140754806Y-100066979D01*
X140740046Y-100089947D01*
X140732355Y-100116140D01*
X140726174Y-100132711D01*
X140714834Y-100157541D01*
X140710948Y-100184567D01*
X140707190Y-100201844D01*
X140699500Y-100228038D01*
X140699500Y-100941323D01*
X140679815Y-101008362D01*
X140663181Y-101029004D01*
X138893569Y-102798615D01*
X138872936Y-102815244D01*
X138868872Y-102817855D01*
X138836351Y-102855386D01*
X138830330Y-102861854D01*
X138820777Y-102871408D01*
X138812677Y-102882227D01*
X138807132Y-102889107D01*
X138774624Y-102926624D01*
X138772618Y-102931017D01*
X138759098Y-102953802D01*
X138756203Y-102957668D01*
X138738851Y-103004191D01*
X138735466Y-103012365D01*
X138714834Y-103057545D01*
X138714147Y-103062323D01*
X138707596Y-103087990D01*
X138705909Y-103092513D01*
X138702365Y-103142053D01*
X138701420Y-103150846D01*
X138699500Y-103164203D01*
X138699500Y-103177691D01*
X138699184Y-103186538D01*
X138695641Y-103236072D01*
X138696666Y-103240784D01*
X138699500Y-103267143D01*
X138699500Y-103804538D01*
X138679815Y-103871577D01*
X138634518Y-103913592D01*
X138431377Y-104023528D01*
X138248215Y-104166087D01*
X138091020Y-104336848D01*
X137964076Y-104531150D01*
X137870844Y-104743696D01*
X137870842Y-104743700D01*
X137870843Y-104743700D01*
X137822589Y-104934251D01*
X137813865Y-104968700D01*
X137794699Y-105199999D01*
X137813865Y-105431299D01*
X137813865Y-105431301D01*
X137813866Y-105431305D01*
X137870523Y-105655036D01*
X137870844Y-105656303D01*
X137913710Y-105754027D01*
X137964076Y-105868849D01*
X138091021Y-106063153D01*
X138248216Y-106233913D01*
X138431374Y-106376470D01*
X138635497Y-106486936D01*
X138725631Y-106517879D01*
X138855015Y-106562297D01*
X138855017Y-106562297D01*
X138855019Y-106562298D01*
X139083951Y-106600500D01*
X139083952Y-106600500D01*
X139316048Y-106600500D01*
X139316049Y-106600500D01*
X139544981Y-106562298D01*
X139764503Y-106486936D01*
X139968626Y-106376470D01*
X140151784Y-106233913D01*
X140308979Y-106063153D01*
X140435924Y-105868849D01*
X140461945Y-105809526D01*
X140506900Y-105756042D01*
X140573636Y-105735352D01*
X140640964Y-105754027D01*
X140687507Y-105806137D01*
X140699500Y-105859338D01*
X140699500Y-106241323D01*
X140679815Y-106308362D01*
X140663181Y-106329004D01*
X139229005Y-107763181D01*
X139167682Y-107796666D01*
X139141324Y-107799500D01*
X139083951Y-107799500D01*
X139038164Y-107807140D01*
X138855015Y-107837702D01*
X138635501Y-107913062D01*
X138635497Y-107913063D01*
X138635497Y-107913064D01*
X138599551Y-107932517D01*
X138431372Y-108023531D01*
X138248215Y-108166087D01*
X138091020Y-108336848D01*
X137964076Y-108531150D01*
X137870844Y-108743696D01*
X137813865Y-108968700D01*
X137794699Y-109199999D01*
X137813865Y-109431299D01*
X137813865Y-109431301D01*
X137813866Y-109431305D01*
X137863303Y-109626524D01*
X137870844Y-109656303D01*
X137891967Y-109704458D01*
X137964076Y-109868849D01*
X138091021Y-110063153D01*
X138248216Y-110233913D01*
X138431374Y-110376470D01*
X138635497Y-110486936D01*
X138745258Y-110524616D01*
X138855015Y-110562297D01*
X138855017Y-110562297D01*
X138855019Y-110562298D01*
X139083951Y-110600500D01*
X139083952Y-110600500D01*
X139316048Y-110600500D01*
X139316049Y-110600500D01*
X139544981Y-110562298D01*
X139764503Y-110486936D01*
X139968626Y-110376470D01*
X140151784Y-110233913D01*
X140308979Y-110063153D01*
X140371692Y-109967162D01*
X140424837Y-109921807D01*
X140494068Y-109912383D01*
X140557404Y-109941885D01*
X140594736Y-110000945D01*
X140599500Y-110034985D01*
X140599500Y-112141323D01*
X140579815Y-112208362D01*
X140563181Y-112229005D01*
X140470514Y-112321671D01*
X140409190Y-112355155D01*
X140339499Y-112350171D01*
X140291603Y-112317972D01*
X140274855Y-112299779D01*
X140151784Y-112166087D01*
X139968626Y-112023530D01*
X139764503Y-111913064D01*
X139764499Y-111913062D01*
X139764498Y-111913062D01*
X139544984Y-111837702D01*
X139373281Y-111809050D01*
X139316049Y-111799500D01*
X139083951Y-111799500D01*
X139038164Y-111807140D01*
X138855015Y-111837702D01*
X138635501Y-111913062D01*
X138431372Y-112023531D01*
X138248215Y-112166087D01*
X138091020Y-112336848D01*
X137964076Y-112531150D01*
X137870844Y-112743696D01*
X137870842Y-112743700D01*
X137870843Y-112743700D01*
X137829038Y-112908785D01*
X137813865Y-112968700D01*
X137794699Y-113199999D01*
X137813865Y-113431299D01*
X137813865Y-113431301D01*
X137813866Y-113431305D01*
X137867677Y-113643796D01*
X137870844Y-113656303D01*
X137904504Y-113733039D01*
X137964076Y-113868849D01*
X138091021Y-114063153D01*
X138248216Y-114233913D01*
X138431374Y-114376470D01*
X138635497Y-114486936D01*
X138745258Y-114524616D01*
X138855015Y-114562297D01*
X138855017Y-114562297D01*
X138855019Y-114562298D01*
X139083951Y-114600500D01*
X139083952Y-114600500D01*
X139316048Y-114600500D01*
X139316049Y-114600500D01*
X139544981Y-114562298D01*
X139764503Y-114486936D01*
X139968626Y-114376470D01*
X140151784Y-114233913D01*
X140308979Y-114063153D01*
X140435924Y-113868849D01*
X140516037Y-113686209D01*
X140560992Y-113632725D01*
X140571872Y-113626677D01*
X140573371Y-113625377D01*
X140573373Y-113625377D01*
X140610906Y-113592853D01*
X140617782Y-113587313D01*
X140628593Y-113579221D01*
X140638155Y-113569658D01*
X140644603Y-113563654D01*
X140682143Y-113531128D01*
X140684751Y-113527069D01*
X140701382Y-113506430D01*
X141406430Y-112801382D01*
X141427069Y-112784751D01*
X141431128Y-112782143D01*
X141463654Y-112744603D01*
X141469658Y-112738155D01*
X141479221Y-112728593D01*
X141487313Y-112717782D01*
X141492853Y-112710906D01*
X141525377Y-112673373D01*
X141527375Y-112668997D01*
X141540907Y-112646190D01*
X141540920Y-112646172D01*
X141543796Y-112642331D01*
X141561153Y-112595791D01*
X141564534Y-112587630D01*
X141585165Y-112542457D01*
X141585851Y-112537681D01*
X141592405Y-112512001D01*
X141594091Y-112507483D01*
X141597633Y-112457951D01*
X141598580Y-112449147D01*
X141600500Y-112435797D01*
X141600500Y-112422308D01*
X141600816Y-112413461D01*
X141604359Y-112363926D01*
X141603334Y-112359215D01*
X141600500Y-112332857D01*
X141600500Y-108298675D01*
X141620185Y-108231636D01*
X141636809Y-108211004D01*
X141799400Y-108048413D01*
X141860718Y-108014932D01*
X141930409Y-108019916D01*
X141986343Y-108061787D01*
X142010760Y-108127252D01*
X142006343Y-108170032D01*
X141950818Y-108365183D01*
X141930913Y-108580000D01*
X141950818Y-108794821D01*
X142009858Y-109002323D01*
X142106019Y-109195442D01*
X142236034Y-109367610D01*
X142395465Y-109512950D01*
X142395467Y-109512951D01*
X142395468Y-109512952D01*
X142578893Y-109626524D01*
X142780064Y-109704458D01*
X142906598Y-109728111D01*
X142968879Y-109759779D01*
X143004152Y-109820092D01*
X143001218Y-109889900D01*
X142961009Y-109947040D01*
X142906599Y-109971888D01*
X142780064Y-109995541D01*
X142780064Y-109995542D01*
X142578892Y-110073476D01*
X142395465Y-110187049D01*
X142236034Y-110332389D01*
X142106019Y-110504557D01*
X142009858Y-110697676D01*
X141950818Y-110905178D01*
X141930913Y-111120000D01*
X141950818Y-111334821D01*
X142009858Y-111542323D01*
X142106019Y-111735442D01*
X142236034Y-111907610D01*
X142395465Y-112052950D01*
X142395467Y-112052951D01*
X142395468Y-112052952D01*
X142578893Y-112166524D01*
X142780064Y-112244458D01*
X142906598Y-112268111D01*
X142968879Y-112299779D01*
X143004152Y-112360092D01*
X143001218Y-112429900D01*
X142961009Y-112487040D01*
X142906599Y-112511888D01*
X142839198Y-112524488D01*
X142780064Y-112535542D01*
X142578892Y-112613476D01*
X142395465Y-112727049D01*
X142236034Y-112872389D01*
X142106019Y-113044557D01*
X142009858Y-113237676D01*
X141950818Y-113445178D01*
X141930913Y-113659999D01*
X141950818Y-113874817D01*
X141981057Y-113981099D01*
X141980469Y-114050966D01*
X141949471Y-114102713D01*
X140289003Y-115763181D01*
X140227680Y-115796666D01*
X140201322Y-115799500D01*
X138058714Y-115799500D01*
X138058696Y-115799500D01*
X138055136Y-115799501D01*
X138051592Y-115799911D01*
X138051592Y-115799912D01*
X138030008Y-115802415D01*
X137927232Y-115847795D01*
X137847795Y-115927232D01*
X137802414Y-116030009D01*
X137799911Y-116051585D01*
X137799910Y-116051599D01*
X137799500Y-116055135D01*
X137799500Y-116058708D01*
X137799500Y-116058709D01*
X137799500Y-118341285D01*
X137799500Y-118341302D01*
X137799501Y-118344864D01*
X137799912Y-118348407D01*
X137802415Y-118369991D01*
X137847795Y-118472767D01*
X137927232Y-118552204D01*
X137927233Y-118552204D01*
X137927235Y-118552206D01*
X138030009Y-118597585D01*
X138055135Y-118600500D01*
X140344864Y-118600499D01*
X140369991Y-118597585D01*
X140472765Y-118552206D01*
X140552206Y-118472765D01*
X140597585Y-118369991D01*
X140600500Y-118344865D01*
X140600499Y-116918674D01*
X140620184Y-116851636D01*
X140636813Y-116830999D01*
X141799398Y-115668414D01*
X141860719Y-115634931D01*
X141930411Y-115639915D01*
X141986344Y-115681787D01*
X142010761Y-115747251D01*
X142006343Y-115790031D01*
X141950818Y-115985178D01*
X141930913Y-116199999D01*
X141950818Y-116414821D01*
X142009858Y-116622323D01*
X142106019Y-116815442D01*
X142236034Y-116987610D01*
X142395465Y-117132950D01*
X142395467Y-117132951D01*
X142395468Y-117132952D01*
X142578893Y-117246524D01*
X142578894Y-117246524D01*
X142588663Y-117252573D01*
X142587898Y-117253807D01*
X142633339Y-117288723D01*
X142656931Y-117354489D01*
X142641223Y-117422570D01*
X142591201Y-117471351D01*
X142573411Y-117479061D01*
X142550377Y-117486968D01*
X142351624Y-117594529D01*
X142327140Y-117613586D01*
X142960401Y-118246847D01*
X142955408Y-118247565D01*
X142822530Y-118308248D01*
X142712131Y-118403910D01*
X142633155Y-118526799D01*
X142610477Y-118604030D01*
X141975109Y-117968663D01*
X141896641Y-118088770D01*
X141805865Y-118295718D01*
X141750387Y-118514795D01*
X141731726Y-118740000D01*
X141750387Y-118965204D01*
X141805865Y-119184281D01*
X141896639Y-119391225D01*
X141975110Y-119511334D01*
X142610477Y-118875967D01*
X142633155Y-118953201D01*
X142712131Y-119076090D01*
X142822530Y-119171752D01*
X142955408Y-119232435D01*
X142960399Y-119233152D01*
X142327139Y-119866412D01*
X142327140Y-119866413D01*
X142351623Y-119885470D01*
X142550371Y-119993027D01*
X142573408Y-120000936D01*
X142630424Y-120041322D01*
X142656555Y-120106121D01*
X142643504Y-120174761D01*
X142595415Y-120225449D01*
X142579536Y-120233077D01*
X142395465Y-120347049D01*
X142236034Y-120492389D01*
X142106019Y-120664557D01*
X142009858Y-120857676D01*
X141950818Y-121065178D01*
X141930913Y-121280000D01*
X141950818Y-121494821D01*
X142009858Y-121702323D01*
X142106019Y-121895442D01*
X142236034Y-122067610D01*
X142395465Y-122212950D01*
X142395467Y-122212951D01*
X142395468Y-122212952D01*
X142578893Y-122326524D01*
X142780064Y-122404458D01*
X142865098Y-122420353D01*
X142927376Y-122452020D01*
X142962650Y-122512332D01*
X142959717Y-122582140D01*
X142919508Y-122639280D01*
X142876246Y-122661507D01*
X142673541Y-122719182D01*
X142478528Y-122816287D01*
X142304676Y-122947573D01*
X142157912Y-123108567D01*
X142043226Y-123293791D01*
X141964531Y-123496926D01*
X141964530Y-123496930D01*
X141964530Y-123496931D01*
X141924500Y-123711074D01*
X141924500Y-123928926D01*
X141960169Y-124119740D01*
X141964531Y-124143073D01*
X142043226Y-124346208D01*
X142157912Y-124531432D01*
X142304676Y-124692426D01*
X142478528Y-124823712D01*
X142673542Y-124920818D01*
X142883074Y-124980435D01*
X142921176Y-124983965D01*
X143045653Y-124995500D01*
X143048525Y-124995500D01*
X143151475Y-124995500D01*
X143154347Y-124995500D01*
X143291523Y-124982788D01*
X143316925Y-124980435D01*
X143526457Y-124920818D01*
X143629288Y-124869614D01*
X143721472Y-124823712D01*
X143895322Y-124692427D01*
X144042088Y-124531432D01*
X144156772Y-124346210D01*
X144235470Y-124143069D01*
X144275500Y-123928926D01*
X144275500Y-123711074D01*
X144235470Y-123496931D01*
X144163764Y-123311837D01*
X144156773Y-123293791D01*
X144083733Y-123175827D01*
X144042088Y-123108568D01*
X144012341Y-123075937D01*
X143895323Y-122947573D01*
X143721471Y-122816287D01*
X143526458Y-122719182D01*
X143323753Y-122661507D01*
X143264660Y-122624228D01*
X143235103Y-122560918D01*
X143244465Y-122491678D01*
X143289775Y-122438492D01*
X143334898Y-122420354D01*
X143419936Y-122404458D01*
X143621107Y-122326524D01*
X143804532Y-122212952D01*
X143963966Y-122067609D01*
X144093978Y-121895445D01*
X144093978Y-121895443D01*
X144093980Y-121895442D01*
X144190141Y-121702323D01*
X144249181Y-121494821D01*
X144255452Y-121427140D01*
X144269087Y-121280000D01*
X144249181Y-121065181D01*
X144249181Y-121065178D01*
X144190141Y-120857676D01*
X144093980Y-120664557D01*
X143963965Y-120492389D01*
X143804534Y-120347049D01*
X143611337Y-120227427D01*
X143612100Y-120226193D01*
X143566656Y-120191270D01*
X143543067Y-120125503D01*
X143558779Y-120057423D01*
X143608804Y-120008645D01*
X143626592Y-120000936D01*
X143649627Y-119993028D01*
X143848374Y-119885470D01*
X143872859Y-119866412D01*
X143239600Y-119233152D01*
X143244592Y-119232435D01*
X143377470Y-119171752D01*
X143487869Y-119076090D01*
X143566845Y-118953201D01*
X143589522Y-118875968D01*
X144224888Y-119511335D01*
X144303359Y-119391226D01*
X144394134Y-119184281D01*
X144449612Y-118965204D01*
X144468273Y-118739999D01*
X144449612Y-118514795D01*
X144394134Y-118295718D01*
X144303360Y-118088773D01*
X144224888Y-117968663D01*
X143589521Y-118604029D01*
X143566845Y-118526799D01*
X143487869Y-118403910D01*
X143377470Y-118308248D01*
X143244592Y-118247565D01*
X143239599Y-118246847D01*
X143872859Y-117613587D01*
X143872858Y-117613585D01*
X143848376Y-117594530D01*
X143649625Y-117486970D01*
X143626589Y-117479062D01*
X143569574Y-117438675D01*
X143543444Y-117373875D01*
X143556496Y-117305236D01*
X143604586Y-117254549D01*
X143620469Y-117246918D01*
X143621102Y-117246525D01*
X143621107Y-117246524D01*
X143804532Y-117132952D01*
X143963966Y-116987609D01*
X144093978Y-116815445D01*
X144093978Y-116815443D01*
X144093980Y-116815442D01*
X144190141Y-116622323D01*
X144249181Y-116414821D01*
X144252293Y-116381233D01*
X144269087Y-116200000D01*
X144249181Y-115985181D01*
X144249181Y-115985178D01*
X144190141Y-115777676D01*
X144093980Y-115584557D01*
X143963965Y-115412389D01*
X143804534Y-115267049D01*
X143621107Y-115153476D01*
X143519969Y-115114295D01*
X143419936Y-115075542D01*
X143293399Y-115051888D01*
X143231120Y-115020221D01*
X143195847Y-114959908D01*
X143198781Y-114890100D01*
X143238990Y-114832960D01*
X143293399Y-114808111D01*
X143419936Y-114784458D01*
X143621107Y-114706524D01*
X143804532Y-114592952D01*
X143963966Y-114447609D01*
X144093978Y-114275445D01*
X144114659Y-114233913D01*
X144116992Y-114229228D01*
X144164495Y-114177991D01*
X144227992Y-114160500D01*
X144661456Y-114160500D01*
X144687814Y-114163334D01*
X144692526Y-114164359D01*
X144692526Y-114164358D01*
X144692527Y-114164359D01*
X144742061Y-114160815D01*
X144750908Y-114160500D01*
X144764397Y-114160500D01*
X144764399Y-114160500D01*
X144777759Y-114158578D01*
X144786551Y-114157633D01*
X144836083Y-114154091D01*
X144840601Y-114152405D01*
X144866281Y-114145851D01*
X144871057Y-114145165D01*
X144916237Y-114124530D01*
X144924391Y-114121153D01*
X144970931Y-114103796D01*
X144974789Y-114100907D01*
X144997597Y-114087375D01*
X145001973Y-114085377D01*
X145039506Y-114052853D01*
X145046382Y-114047313D01*
X145057193Y-114039221D01*
X145066755Y-114029658D01*
X145073203Y-114023654D01*
X145110743Y-113991128D01*
X145113351Y-113987069D01*
X145129982Y-113966430D01*
X146170994Y-112925419D01*
X146232318Y-112891934D01*
X146258676Y-112889100D01*
X146264201Y-112889100D01*
X146277692Y-112889100D01*
X146286538Y-112889415D01*
X146336073Y-112892959D01*
X146340786Y-112891934D01*
X146367144Y-112889100D01*
X156999338Y-112889100D01*
X157066377Y-112908785D01*
X157112132Y-112961589D01*
X157122076Y-113030747D01*
X157112894Y-113062910D01*
X157045865Y-113215718D01*
X156990387Y-113434795D01*
X156971726Y-113659999D01*
X156990387Y-113885204D01*
X157045865Y-114104281D01*
X157136639Y-114311225D01*
X157215110Y-114431334D01*
X157850477Y-113795967D01*
X157873155Y-113873201D01*
X157952131Y-113996090D01*
X158062530Y-114091752D01*
X158195408Y-114152435D01*
X158200399Y-114153152D01*
X157567139Y-114786412D01*
X157567140Y-114786413D01*
X157591623Y-114805470D01*
X157790371Y-114913027D01*
X157813408Y-114920936D01*
X157870424Y-114961322D01*
X157896555Y-115026121D01*
X157883504Y-115094761D01*
X157835415Y-115145449D01*
X157819536Y-115153077D01*
X157635465Y-115267049D01*
X157476034Y-115412389D01*
X157346019Y-115584557D01*
X157249858Y-115777676D01*
X157190818Y-115985178D01*
X157170913Y-116199999D01*
X157190818Y-116414821D01*
X157249858Y-116622323D01*
X157346019Y-116815442D01*
X157476034Y-116987610D01*
X157635465Y-117132950D01*
X157635467Y-117132951D01*
X157635468Y-117132952D01*
X157818893Y-117246524D01*
X158020064Y-117324458D01*
X158146598Y-117348111D01*
X158208879Y-117379779D01*
X158244152Y-117440092D01*
X158241218Y-117509900D01*
X158201009Y-117567040D01*
X158146599Y-117591888D01*
X158030533Y-117613585D01*
X158020064Y-117615542D01*
X157818892Y-117693476D01*
X157635465Y-117807049D01*
X157476034Y-117952389D01*
X157346019Y-118124557D01*
X157249858Y-118317676D01*
X157190818Y-118525178D01*
X157170913Y-118739999D01*
X157190818Y-118954821D01*
X157249858Y-119162323D01*
X157346019Y-119355442D01*
X157476034Y-119527610D01*
X157635465Y-119672950D01*
X157635467Y-119672951D01*
X157635468Y-119672952D01*
X157818893Y-119786524D01*
X158020064Y-119864458D01*
X158049776Y-119870012D01*
X158112056Y-119901678D01*
X158147330Y-119961990D01*
X158144397Y-120031798D01*
X158104189Y-120088939D01*
X158039471Y-120115270D01*
X158026991Y-120115900D01*
X157435114Y-120115900D01*
X157435096Y-120115900D01*
X157431536Y-120115901D01*
X157427992Y-120116311D01*
X157427992Y-120116312D01*
X157406408Y-120118815D01*
X157303632Y-120164195D01*
X157224195Y-120243632D01*
X157178814Y-120346409D01*
X157176311Y-120367985D01*
X157176311Y-120367992D01*
X157175900Y-120371535D01*
X157175900Y-120375108D01*
X157175900Y-120375109D01*
X157175900Y-122184885D01*
X157175900Y-122184902D01*
X157175901Y-122188464D01*
X157176312Y-122192007D01*
X157178815Y-122213591D01*
X157224195Y-122316367D01*
X157303632Y-122395804D01*
X157303633Y-122395804D01*
X157303635Y-122395806D01*
X157406409Y-122441185D01*
X157431535Y-122444100D01*
X157991433Y-122444099D01*
X158058470Y-122463783D01*
X158104225Y-122516587D01*
X158114169Y-122585746D01*
X158085144Y-122649302D01*
X158026366Y-122687076D01*
X158025366Y-122687365D01*
X157913541Y-122719182D01*
X157718528Y-122816287D01*
X157544676Y-122947573D01*
X157397912Y-123108567D01*
X157283226Y-123293791D01*
X157204531Y-123496926D01*
X157204530Y-123496930D01*
X157204530Y-123496931D01*
X157164500Y-123711074D01*
X157164500Y-123928926D01*
X157200169Y-124119740D01*
X157204531Y-124143073D01*
X157283226Y-124346208D01*
X157397912Y-124531432D01*
X157544676Y-124692426D01*
X157718528Y-124823712D01*
X157913542Y-124920818D01*
X158123074Y-124980435D01*
X158161176Y-124983965D01*
X158285653Y-124995500D01*
X158288525Y-124995500D01*
X158391475Y-124995500D01*
X158394347Y-124995500D01*
X158531523Y-124982788D01*
X158556925Y-124980435D01*
X158766457Y-124920818D01*
X158869288Y-124869614D01*
X158961472Y-124823712D01*
X159135322Y-124692427D01*
X159282088Y-124531432D01*
X159396772Y-124346210D01*
X159475470Y-124143069D01*
X159515500Y-123928926D01*
X159515500Y-123711074D01*
X159475470Y-123496931D01*
X159403764Y-123311837D01*
X159396773Y-123293791D01*
X159323733Y-123175827D01*
X159282088Y-123108568D01*
X159252341Y-123075937D01*
X159135323Y-122947573D01*
X158961471Y-122816287D01*
X158766457Y-122719181D01*
X158654633Y-122687365D01*
X158595539Y-122650086D01*
X158565982Y-122586776D01*
X158575344Y-122517537D01*
X158620654Y-122464350D01*
X158687526Y-122444103D01*
X158688486Y-122444099D01*
X159248464Y-122444099D01*
X159273591Y-122441185D01*
X159376365Y-122395806D01*
X159455806Y-122316365D01*
X159501185Y-122213591D01*
X159504100Y-122188465D01*
X159504099Y-120371536D01*
X159501185Y-120346409D01*
X159455806Y-120243635D01*
X159455804Y-120243633D01*
X159455804Y-120243632D01*
X159376367Y-120164195D01*
X159273590Y-120118814D01*
X159252014Y-120116311D01*
X159252001Y-120116310D01*
X159248465Y-120115900D01*
X159244890Y-120115900D01*
X158653010Y-120115900D01*
X158585971Y-120096215D01*
X158540216Y-120043411D01*
X158530272Y-119974253D01*
X158559297Y-119910697D01*
X158618075Y-119872923D01*
X158630211Y-119870014D01*
X158659936Y-119864458D01*
X158826321Y-119800000D01*
X163474564Y-119800000D01*
X163494287Y-120100920D01*
X163495077Y-120104891D01*
X163495078Y-120104899D01*
X163552327Y-120392707D01*
X163552329Y-120392714D01*
X163553120Y-120396691D01*
X163650055Y-120682252D01*
X163783434Y-120952718D01*
X163950975Y-121203461D01*
X164149811Y-121430189D01*
X164376539Y-121629025D01*
X164627282Y-121796566D01*
X164897748Y-121929945D01*
X165183309Y-122026880D01*
X165479080Y-122085713D01*
X165780000Y-122105436D01*
X166080920Y-122085713D01*
X166376691Y-122026880D01*
X166662252Y-121929945D01*
X166932718Y-121796566D01*
X167183461Y-121629025D01*
X167410189Y-121430189D01*
X167609025Y-121203461D01*
X167776566Y-120952718D01*
X167909945Y-120682252D01*
X168006880Y-120396691D01*
X168065713Y-120100920D01*
X168085436Y-119800000D01*
X168065713Y-119499080D01*
X168006880Y-119203309D01*
X167909945Y-118917748D01*
X167776566Y-118647282D01*
X167609025Y-118396539D01*
X167410189Y-118169811D01*
X167183461Y-117970975D01*
X167155645Y-117952389D01*
X166936092Y-117805688D01*
X166936087Y-117805685D01*
X166932718Y-117803434D01*
X166929082Y-117801641D01*
X166929077Y-117801638D01*
X166665894Y-117671851D01*
X166665893Y-117671850D01*
X166662252Y-117670055D01*
X166376691Y-117573120D01*
X166372714Y-117572329D01*
X166372707Y-117572327D01*
X166084899Y-117515078D01*
X166084891Y-117515077D01*
X166080920Y-117514287D01*
X165780000Y-117494564D01*
X165775957Y-117494829D01*
X165483122Y-117514022D01*
X165483120Y-117514022D01*
X165479080Y-117514287D01*
X165475110Y-117515076D01*
X165475100Y-117515078D01*
X165187292Y-117572327D01*
X165187281Y-117572329D01*
X165183309Y-117573120D01*
X165179466Y-117574424D01*
X165179464Y-117574425D01*
X164901594Y-117668749D01*
X164901587Y-117668751D01*
X164897748Y-117670055D01*
X164894111Y-117671848D01*
X164894105Y-117671851D01*
X164630922Y-117801638D01*
X164630910Y-117801644D01*
X164627282Y-117803434D01*
X164623919Y-117805681D01*
X164623907Y-117805688D01*
X164379920Y-117968715D01*
X164379911Y-117968721D01*
X164376539Y-117970975D01*
X164373488Y-117973650D01*
X164373481Y-117973656D01*
X164152859Y-118167137D01*
X164152851Y-118167144D01*
X164149811Y-118169811D01*
X164147144Y-118172851D01*
X164147137Y-118172859D01*
X163953656Y-118393481D01*
X163953650Y-118393488D01*
X163950975Y-118396539D01*
X163948721Y-118399911D01*
X163948715Y-118399920D01*
X163785688Y-118643907D01*
X163785681Y-118643919D01*
X163783434Y-118647282D01*
X163781644Y-118650910D01*
X163781638Y-118650922D01*
X163651851Y-118914105D01*
X163651848Y-118914111D01*
X163650055Y-118917748D01*
X163648751Y-118921587D01*
X163648749Y-118921594D01*
X163596305Y-119076090D01*
X163553120Y-119203309D01*
X163552329Y-119207281D01*
X163552327Y-119207292D01*
X163495078Y-119495100D01*
X163495076Y-119495110D01*
X163494287Y-119499080D01*
X163474564Y-119800000D01*
X158826321Y-119800000D01*
X158861107Y-119786524D01*
X159044532Y-119672952D01*
X159203966Y-119527609D01*
X159333978Y-119355445D01*
X159333978Y-119355443D01*
X159333980Y-119355442D01*
X159430141Y-119162323D01*
X159489181Y-118954821D01*
X159492954Y-118914105D01*
X159509087Y-118740000D01*
X159489181Y-118525181D01*
X159489181Y-118525178D01*
X159430141Y-118317676D01*
X159333980Y-118124557D01*
X159203965Y-117952389D01*
X159044534Y-117807049D01*
X158861107Y-117693476D01*
X158797279Y-117668749D01*
X158659936Y-117615542D01*
X158533399Y-117591888D01*
X158471120Y-117560221D01*
X158435847Y-117499908D01*
X158438781Y-117430100D01*
X158478990Y-117372960D01*
X158533399Y-117348111D01*
X158659936Y-117324458D01*
X158861107Y-117246524D01*
X159044532Y-117132952D01*
X159203966Y-116987609D01*
X159333978Y-116815445D01*
X159333978Y-116815443D01*
X159333980Y-116815442D01*
X159430141Y-116622323D01*
X159489181Y-116414821D01*
X159492067Y-116383668D01*
X159509087Y-116200000D01*
X159489181Y-115985181D01*
X159489181Y-115985178D01*
X159430141Y-115777676D01*
X159333980Y-115584557D01*
X159203965Y-115412389D01*
X159044534Y-115267049D01*
X158851337Y-115147427D01*
X158852100Y-115146193D01*
X158806656Y-115111270D01*
X158783067Y-115045503D01*
X158798779Y-114977423D01*
X158848804Y-114928645D01*
X158866592Y-114920936D01*
X158889627Y-114913028D01*
X159088374Y-114805470D01*
X159112859Y-114786412D01*
X158479600Y-114153152D01*
X158484592Y-114152435D01*
X158617470Y-114091752D01*
X158727869Y-113996090D01*
X158806845Y-113873201D01*
X158829522Y-113795968D01*
X159464889Y-114431335D01*
X159543359Y-114311226D01*
X159634134Y-114104281D01*
X159689612Y-113885204D01*
X159708273Y-113659999D01*
X159689612Y-113434795D01*
X159634134Y-113215718D01*
X159567106Y-113062910D01*
X159558203Y-112993610D01*
X159588180Y-112930498D01*
X159647519Y-112893611D01*
X159680662Y-112889100D01*
X164129924Y-112889100D01*
X164196963Y-112908785D01*
X164217605Y-112925419D01*
X164392040Y-113099854D01*
X164423625Y-113153600D01*
X164449418Y-113244251D01*
X164540324Y-113426818D01*
X164663236Y-113589580D01*
X164813958Y-113726981D01*
X164987361Y-113834347D01*
X164987363Y-113834348D01*
X165177544Y-113908024D01*
X165378024Y-113945500D01*
X165378026Y-113945500D01*
X165581974Y-113945500D01*
X165581976Y-113945500D01*
X165782456Y-113908024D01*
X165972637Y-113834348D01*
X166146041Y-113726981D01*
X166223571Y-113656303D01*
X166296763Y-113589580D01*
X166311795Y-113569675D01*
X166419673Y-113426821D01*
X166419673Y-113426819D01*
X166419675Y-113426818D01*
X166470916Y-113323910D01*
X166510582Y-113244250D01*
X166566397Y-113048083D01*
X166585215Y-112845000D01*
X166566793Y-112646190D01*
X166566397Y-112641916D01*
X166532985Y-112524488D01*
X166510582Y-112445750D01*
X166419673Y-112263179D01*
X166387473Y-112220540D01*
X166371379Y-112199227D01*
X166346687Y-112133865D01*
X166361252Y-112065531D01*
X166410450Y-112015918D01*
X166470333Y-112000500D01*
X167287378Y-112000500D01*
X167354417Y-112020185D01*
X167386332Y-112049773D01*
X167503236Y-112204580D01*
X167653958Y-112341981D01*
X167821552Y-112445750D01*
X167827363Y-112449348D01*
X168017544Y-112523024D01*
X168218024Y-112560500D01*
X168218026Y-112560500D01*
X168421974Y-112560500D01*
X168421976Y-112560500D01*
X168622456Y-112523024D01*
X168812637Y-112449348D01*
X168986041Y-112341981D01*
X169136764Y-112204579D01*
X169259673Y-112041821D01*
X169259673Y-112041819D01*
X169259675Y-112041818D01*
X169323787Y-111913062D01*
X169350582Y-111859250D01*
X169406397Y-111663083D01*
X169425215Y-111460000D01*
X169406397Y-111256917D01*
X169406216Y-111256282D01*
X169350581Y-111060748D01*
X169259675Y-110878181D01*
X169136763Y-110715419D01*
X168986041Y-110578018D01*
X168812638Y-110470652D01*
X168622457Y-110396976D01*
X168555629Y-110384483D01*
X168421976Y-110359500D01*
X168218024Y-110359500D01*
X168127253Y-110376468D01*
X168017542Y-110396976D01*
X167827361Y-110470652D01*
X167653958Y-110578018D01*
X167503236Y-110715419D01*
X167380328Y-110878177D01*
X167380327Y-110878178D01*
X167380327Y-110878179D01*
X167355256Y-110928530D01*
X167354140Y-110930771D01*
X167306637Y-110982008D01*
X167243139Y-110999500D01*
X166409920Y-110999500D01*
X166342881Y-110979815D01*
X166297126Y-110927011D01*
X166287182Y-110857853D01*
X166310966Y-110800773D01*
X166375420Y-110715421D01*
X166419673Y-110656821D01*
X166510582Y-110474250D01*
X166566397Y-110278083D01*
X166585215Y-110075000D01*
X166568063Y-109889900D01*
X166566397Y-109871916D01*
X166543232Y-109790500D01*
X166510582Y-109675750D01*
X166486070Y-109626523D01*
X166419675Y-109493181D01*
X166348724Y-109399227D01*
X166324032Y-109333865D01*
X166338597Y-109265531D01*
X166387795Y-109215918D01*
X166447678Y-109200500D01*
X167268036Y-109200500D01*
X167335075Y-109220185D01*
X167373245Y-109262769D01*
X167373402Y-109262651D01*
X167374807Y-109264512D01*
X167379038Y-109269232D01*
X167380327Y-109271821D01*
X167503236Y-109434580D01*
X167653958Y-109571981D01*
X167821552Y-109675750D01*
X167827363Y-109679348D01*
X168017544Y-109753024D01*
X168218024Y-109790500D01*
X168218026Y-109790500D01*
X168421974Y-109790500D01*
X168421976Y-109790500D01*
X168622456Y-109753024D01*
X168812637Y-109679348D01*
X168986041Y-109571981D01*
X169136764Y-109434579D01*
X169259673Y-109271821D01*
X169259673Y-109271819D01*
X169259675Y-109271818D01*
X169323421Y-109143796D01*
X169350582Y-109089250D01*
X169406397Y-108893083D01*
X169425215Y-108690000D01*
X169406397Y-108486917D01*
X169391009Y-108432836D01*
X169353342Y-108300451D01*
X169350582Y-108290750D01*
X169311827Y-108212918D01*
X169259675Y-108108181D01*
X169136763Y-107945419D01*
X168986041Y-107808018D01*
X168812638Y-107700652D01*
X168622457Y-107626976D01*
X168555629Y-107614484D01*
X168421976Y-107589500D01*
X168218024Y-107589500D01*
X168117783Y-107608238D01*
X168017542Y-107626976D01*
X167827361Y-107700652D01*
X167653958Y-107808018D01*
X167503236Y-107945419D01*
X167380328Y-108108177D01*
X167380327Y-108108178D01*
X167380327Y-108108179D01*
X167372527Y-108123845D01*
X167369078Y-108130771D01*
X167321575Y-108182008D01*
X167258077Y-108199500D01*
X166432575Y-108199500D01*
X166365536Y-108179815D01*
X166319781Y-108127011D01*
X166309837Y-108057853D01*
X166333621Y-108000774D01*
X166419673Y-107886821D01*
X166464065Y-107797669D01*
X166510582Y-107704250D01*
X166566397Y-107508083D01*
X166585215Y-107305000D01*
X166566397Y-107101917D01*
X166510582Y-106905750D01*
X166498827Y-106882143D01*
X166419675Y-106723181D01*
X166326069Y-106599227D01*
X166301377Y-106533865D01*
X166315942Y-106465531D01*
X166365140Y-106415918D01*
X166425023Y-106400500D01*
X167253097Y-106400500D01*
X167320136Y-106420185D01*
X167364097Y-106469228D01*
X167380326Y-106501820D01*
X167503236Y-106664580D01*
X167653958Y-106801981D01*
X167821552Y-106905750D01*
X167827363Y-106909348D01*
X168017544Y-106983024D01*
X168218024Y-107020500D01*
X168218026Y-107020500D01*
X168421974Y-107020500D01*
X168421976Y-107020500D01*
X168622456Y-106983024D01*
X168812637Y-106909348D01*
X168986041Y-106801981D01*
X169136764Y-106664579D01*
X169259673Y-106501821D01*
X169259673Y-106501819D01*
X169259675Y-106501818D01*
X169329744Y-106361099D01*
X169350582Y-106319250D01*
X169406397Y-106123083D01*
X169425215Y-105920000D01*
X169406397Y-105716917D01*
X169350582Y-105520750D01*
X169350209Y-105520001D01*
X169259675Y-105338181D01*
X169136763Y-105175419D01*
X168986041Y-105038018D01*
X168812638Y-104930652D01*
X168622457Y-104856976D01*
X168555629Y-104844484D01*
X168421976Y-104819500D01*
X168218024Y-104819500D01*
X168117783Y-104838238D01*
X168017542Y-104856976D01*
X167827361Y-104930652D01*
X167653958Y-105038018D01*
X167503236Y-105175419D01*
X167373402Y-105347349D01*
X167370603Y-105345235D01*
X167336514Y-105382007D01*
X167273015Y-105399500D01*
X166455230Y-105399500D01*
X166388191Y-105379815D01*
X166342436Y-105327011D01*
X166332492Y-105257853D01*
X166356276Y-105200774D01*
X166419673Y-105116821D01*
X166493428Y-104968700D01*
X166510582Y-104934250D01*
X166566397Y-104738083D01*
X166585215Y-104535000D01*
X166566397Y-104331917D01*
X166553790Y-104287610D01*
X166543232Y-104250500D01*
X166510582Y-104135750D01*
X166479948Y-104074228D01*
X166419675Y-103953181D01*
X166303414Y-103799227D01*
X166278722Y-103733865D01*
X166293287Y-103665531D01*
X166342485Y-103615918D01*
X166402368Y-103600500D01*
X167238160Y-103600500D01*
X167305199Y-103620185D01*
X167349159Y-103669228D01*
X167356558Y-103684086D01*
X167380326Y-103731820D01*
X167503236Y-103894580D01*
X167653958Y-104031981D01*
X167821552Y-104135750D01*
X167827363Y-104139348D01*
X168017544Y-104213024D01*
X168218024Y-104250500D01*
X168218026Y-104250500D01*
X168421974Y-104250500D01*
X168421976Y-104250500D01*
X168622456Y-104213024D01*
X168812637Y-104139348D01*
X168986041Y-104031981D01*
X169136764Y-103894579D01*
X169259673Y-103731821D01*
X169259673Y-103731819D01*
X169259675Y-103731818D01*
X169324531Y-103601568D01*
X169350582Y-103549250D01*
X169406397Y-103353083D01*
X169425215Y-103150000D01*
X169406397Y-102946917D01*
X169391930Y-102896073D01*
X169364086Y-102798212D01*
X169350582Y-102750750D01*
X169309550Y-102668346D01*
X169259675Y-102568181D01*
X169136763Y-102405419D01*
X168986041Y-102268018D01*
X168812638Y-102160652D01*
X168622457Y-102086976D01*
X168555629Y-102074484D01*
X168421976Y-102049500D01*
X168218024Y-102049500D01*
X168117783Y-102068238D01*
X168017542Y-102086976D01*
X167827361Y-102160652D01*
X167653958Y-102268018D01*
X167503234Y-102405421D01*
X167393884Y-102550226D01*
X167337775Y-102591863D01*
X167294930Y-102599500D01*
X166477885Y-102599500D01*
X166410846Y-102579815D01*
X166365091Y-102527011D01*
X166355147Y-102457853D01*
X166378930Y-102400774D01*
X166397984Y-102375542D01*
X166419673Y-102346821D01*
X166510582Y-102164250D01*
X166566397Y-101968083D01*
X166585215Y-101765000D01*
X166566931Y-101567682D01*
X166566397Y-101561916D01*
X166533048Y-101444710D01*
X166510582Y-101365750D01*
X166503330Y-101351186D01*
X166419675Y-101183181D01*
X166296763Y-101020419D01*
X166146041Y-100883018D01*
X165972638Y-100775652D01*
X165782457Y-100701976D01*
X165659496Y-100678991D01*
X165581976Y-100664500D01*
X165422367Y-100664500D01*
X165355328Y-100644815D01*
X165309573Y-100592011D01*
X165299630Y-100558151D01*
X165298579Y-100550843D01*
X165297632Y-100542037D01*
X165295201Y-100508042D01*
X165294091Y-100492517D01*
X165292408Y-100488005D01*
X165285851Y-100462316D01*
X165285165Y-100457543D01*
X165264533Y-100412366D01*
X165261148Y-100404195D01*
X165243795Y-100357669D01*
X165240908Y-100353813D01*
X165227380Y-100331014D01*
X165225377Y-100326627D01*
X165192862Y-100289103D01*
X165187302Y-100282202D01*
X165184389Y-100278310D01*
X165159977Y-100212844D01*
X165174835Y-100144572D01*
X165224244Y-100095171D01*
X165292519Y-100080325D01*
X165306427Y-100082116D01*
X165378024Y-100095500D01*
X165378028Y-100095500D01*
X165581974Y-100095500D01*
X165581976Y-100095500D01*
X165782456Y-100058024D01*
X165972637Y-99984348D01*
X166146041Y-99876981D01*
X166158712Y-99865430D01*
X166296763Y-99739580D01*
X166301043Y-99733913D01*
X166419673Y-99576821D01*
X166419673Y-99576819D01*
X166419675Y-99576818D01*
X166474594Y-99466524D01*
X166510582Y-99394250D01*
X166566397Y-99198083D01*
X166585215Y-98995000D01*
X166585214Y-98994999D01*
X166586275Y-98983559D01*
X166590026Y-98983906D01*
X166599459Y-98935614D01*
X166647801Y-98885168D01*
X166715742Y-98868865D01*
X166781712Y-98891881D01*
X166797214Y-98905028D01*
X167437422Y-99545236D01*
X167470907Y-99606559D01*
X167465923Y-99676251D01*
X167448695Y-99707643D01*
X167380326Y-99798178D01*
X167289418Y-99980748D01*
X167233602Y-100176916D01*
X167214785Y-100379999D01*
X167233602Y-100583083D01*
X167289418Y-100779251D01*
X167380324Y-100961818D01*
X167503236Y-101124580D01*
X167653958Y-101261981D01*
X167821552Y-101365750D01*
X167827363Y-101369348D01*
X168017544Y-101443024D01*
X168218024Y-101480500D01*
X168218026Y-101480500D01*
X168421974Y-101480500D01*
X168421976Y-101480500D01*
X168622456Y-101443024D01*
X168812637Y-101369348D01*
X168986041Y-101261981D01*
X169136764Y-101124579D01*
X169259673Y-100961821D01*
X169259673Y-100961819D01*
X169259675Y-100961818D01*
X169317115Y-100846461D01*
X169350582Y-100779250D01*
X169406397Y-100583083D01*
X169425215Y-100380000D01*
X169406397Y-100176917D01*
X169391524Y-100124646D01*
X169378914Y-100080325D01*
X169350582Y-99980750D01*
X169350209Y-99980001D01*
X169259675Y-99798181D01*
X169136763Y-99635419D01*
X168986041Y-99498018D01*
X168812635Y-99390650D01*
X168650654Y-99327898D01*
X168607767Y-99299953D01*
X168229995Y-98922181D01*
X168196510Y-98860858D01*
X168201494Y-98791166D01*
X168243366Y-98735233D01*
X168308830Y-98710816D01*
X168317676Y-98710500D01*
X168421974Y-98710500D01*
X168421976Y-98710500D01*
X168622456Y-98673024D01*
X168812637Y-98599348D01*
X168986041Y-98491981D01*
X169011585Y-98468695D01*
X169136763Y-98354580D01*
X169220499Y-98243696D01*
X169259673Y-98191821D01*
X169259673Y-98191819D01*
X169259675Y-98191818D01*
X169333380Y-98043796D01*
X169350582Y-98009250D01*
X169406397Y-97813083D01*
X169425215Y-97610000D01*
X169406397Y-97406917D01*
X169350582Y-97210750D01*
X169324861Y-97159094D01*
X169259675Y-97028181D01*
X169136763Y-96865419D01*
X168986041Y-96728018D01*
X168812638Y-96620652D01*
X168622457Y-96546976D01*
X168555629Y-96534484D01*
X168421976Y-96509500D01*
X168218024Y-96509500D01*
X168117783Y-96528238D01*
X168017542Y-96546976D01*
X167827361Y-96620652D01*
X167653958Y-96728018D01*
X167503236Y-96865419D01*
X167380324Y-97028181D01*
X167289418Y-97210748D01*
X167233602Y-97406916D01*
X167213972Y-97618766D01*
X167188186Y-97683704D01*
X167131385Y-97724391D01*
X167061604Y-97727911D01*
X167002820Y-97695006D01*
X166601385Y-97293571D01*
X166584749Y-97272927D01*
X166582142Y-97268870D01*
X166544615Y-97236354D01*
X166538135Y-97230321D01*
X166528593Y-97220779D01*
X166517786Y-97212689D01*
X166510907Y-97207147D01*
X166473373Y-97174623D01*
X166473372Y-97174622D01*
X166468987Y-97172620D01*
X166446194Y-97159095D01*
X166442331Y-97156204D01*
X166442329Y-97156203D01*
X166395790Y-97138845D01*
X166387622Y-97135461D01*
X166367488Y-97126266D01*
X166314685Y-97080512D01*
X166295001Y-97013472D01*
X166314686Y-96946433D01*
X166320035Y-96938762D01*
X166419673Y-96806821D01*
X166419673Y-96806819D01*
X166419675Y-96806818D01*
X166488992Y-96667609D01*
X166510582Y-96624250D01*
X166566397Y-96428083D01*
X166585215Y-96225000D01*
X166566397Y-96021917D01*
X166510582Y-95825750D01*
X166464853Y-95733913D01*
X166419675Y-95643181D01*
X166296763Y-95480419D01*
X166146041Y-95343018D01*
X165972638Y-95235652D01*
X165782457Y-95161976D01*
X165715629Y-95149483D01*
X165581976Y-95124500D01*
X165378024Y-95124500D01*
X165277783Y-95143238D01*
X165177542Y-95161976D01*
X164987361Y-95235652D01*
X164813958Y-95343018D01*
X164663236Y-95480419D01*
X164540324Y-95643181D01*
X164449418Y-95825748D01*
X164393602Y-96021916D01*
X164387117Y-96091911D01*
X164361331Y-96156848D01*
X164304531Y-96197536D01*
X164234750Y-96201056D01*
X164175965Y-96168151D01*
X162847813Y-94839999D01*
X167214785Y-94839999D01*
X167233602Y-95043083D01*
X167289418Y-95239251D01*
X167380324Y-95421818D01*
X167503236Y-95584580D01*
X167653958Y-95721981D01*
X167821552Y-95825750D01*
X167827363Y-95829348D01*
X168017544Y-95903024D01*
X168218024Y-95940500D01*
X168218026Y-95940500D01*
X168421974Y-95940500D01*
X168421976Y-95940500D01*
X168622456Y-95903024D01*
X168812637Y-95829348D01*
X168986041Y-95721981D01*
X169136764Y-95584579D01*
X169259673Y-95421821D01*
X169259673Y-95421819D01*
X169259675Y-95421818D01*
X169305313Y-95330161D01*
X169350582Y-95239250D01*
X169406397Y-95043083D01*
X169425215Y-94840000D01*
X169406397Y-94636917D01*
X169350582Y-94440750D01*
X169323581Y-94386524D01*
X169259675Y-94258181D01*
X169136763Y-94095419D01*
X168986041Y-93958018D01*
X168812638Y-93850652D01*
X168622457Y-93776976D01*
X168544069Y-93762323D01*
X168421976Y-93739500D01*
X168218024Y-93739500D01*
X168117783Y-93758238D01*
X168017542Y-93776976D01*
X167827361Y-93850652D01*
X167653958Y-93958018D01*
X167503236Y-94095419D01*
X167380324Y-94258181D01*
X167289418Y-94440748D01*
X167233602Y-94636916D01*
X167214785Y-94839999D01*
X162847813Y-94839999D01*
X162307332Y-94299518D01*
X164180000Y-94299518D01*
X164180354Y-94306132D01*
X164186400Y-94362371D01*
X164236647Y-94497089D01*
X164322811Y-94612188D01*
X164437910Y-94698352D01*
X164572628Y-94748599D01*
X164628867Y-94754645D01*
X164635482Y-94755000D01*
X165230000Y-94755000D01*
X165230000Y-93890501D01*
X165337685Y-93939680D01*
X165444237Y-93955000D01*
X165515763Y-93955000D01*
X165622315Y-93939680D01*
X165730000Y-93890501D01*
X165730000Y-94755000D01*
X166324518Y-94755000D01*
X166331132Y-94754645D01*
X166387371Y-94748599D01*
X166522089Y-94698352D01*
X166637188Y-94612188D01*
X166723352Y-94497089D01*
X166773599Y-94362371D01*
X166779645Y-94306132D01*
X166780000Y-94299518D01*
X166780000Y-93705000D01*
X165913686Y-93705000D01*
X165939493Y-93664844D01*
X165980000Y-93526889D01*
X165980000Y-93383111D01*
X165939493Y-93245156D01*
X165913686Y-93205000D01*
X166780000Y-93205000D01*
X166780000Y-92610481D01*
X166779645Y-92603867D01*
X166773599Y-92547628D01*
X166723352Y-92412910D01*
X166637188Y-92297811D01*
X166522089Y-92211647D01*
X166387371Y-92161400D01*
X166331132Y-92155354D01*
X166324518Y-92155000D01*
X165730000Y-92155000D01*
X165730000Y-93019498D01*
X165622315Y-92970320D01*
X165515763Y-92955000D01*
X165444237Y-92955000D01*
X165337685Y-92970320D01*
X165230000Y-93019498D01*
X165230000Y-92155000D01*
X164635482Y-92155000D01*
X164628867Y-92155354D01*
X164572628Y-92161400D01*
X164437910Y-92211647D01*
X164322811Y-92297811D01*
X164236647Y-92412910D01*
X164186400Y-92547628D01*
X164180354Y-92603867D01*
X164180000Y-92610481D01*
X164180000Y-93205000D01*
X165046314Y-93205000D01*
X165020507Y-93245156D01*
X164980000Y-93383111D01*
X164980000Y-93526889D01*
X165020507Y-93664844D01*
X165046314Y-93705000D01*
X164180000Y-93705000D01*
X164180000Y-94299518D01*
X162307332Y-94299518D01*
X161736819Y-93729005D01*
X161703334Y-93667682D01*
X161700500Y-93641324D01*
X161700500Y-88012143D01*
X161703334Y-87985784D01*
X161704359Y-87981073D01*
X161700816Y-87931538D01*
X161700500Y-87922691D01*
X161700500Y-87909202D01*
X161700114Y-87906518D01*
X161698578Y-87895837D01*
X161697633Y-87887046D01*
X161694091Y-87837517D01*
X161692405Y-87832998D01*
X161685851Y-87807316D01*
X161685165Y-87802543D01*
X161664536Y-87757372D01*
X161661148Y-87749192D01*
X161643797Y-87702671D01*
X161640906Y-87698809D01*
X161627377Y-87676007D01*
X161625377Y-87671627D01*
X161592860Y-87634100D01*
X161587306Y-87627207D01*
X161579221Y-87616406D01*
X161569679Y-87606865D01*
X161563659Y-87600401D01*
X161531128Y-87562857D01*
X161531127Y-87562856D01*
X161531125Y-87562854D01*
X161527067Y-87560246D01*
X161506427Y-87543613D01*
X160462814Y-86500000D01*
X163474564Y-86500000D01*
X163494287Y-86800920D01*
X163495077Y-86804891D01*
X163495078Y-86804899D01*
X163552327Y-87092707D01*
X163552329Y-87092714D01*
X163553120Y-87096691D01*
X163650055Y-87382252D01*
X163651850Y-87385893D01*
X163651851Y-87385894D01*
X163774252Y-87634100D01*
X163783434Y-87652718D01*
X163785685Y-87656087D01*
X163785688Y-87656092D01*
X163948715Y-87900079D01*
X163950975Y-87903461D01*
X164149811Y-88130189D01*
X164376539Y-88329025D01*
X164627282Y-88496566D01*
X164897748Y-88629945D01*
X165183309Y-88726880D01*
X165479080Y-88785713D01*
X165780000Y-88805436D01*
X166080920Y-88785713D01*
X166376691Y-88726880D01*
X166662252Y-88629945D01*
X166932718Y-88496566D01*
X167183461Y-88329025D01*
X167410189Y-88130189D01*
X167609025Y-87903461D01*
X167776566Y-87652718D01*
X167909945Y-87382252D01*
X168006880Y-87096691D01*
X168065713Y-86800920D01*
X168085436Y-86500000D01*
X168065713Y-86199080D01*
X168006880Y-85903309D01*
X167909945Y-85617748D01*
X167776566Y-85347282D01*
X167609025Y-85096539D01*
X167410189Y-84869811D01*
X167183461Y-84670975D01*
X167072621Y-84596914D01*
X166936092Y-84505688D01*
X166936087Y-84505685D01*
X166932718Y-84503434D01*
X166929082Y-84501641D01*
X166929077Y-84501638D01*
X166665894Y-84371851D01*
X166665893Y-84371850D01*
X166662252Y-84370055D01*
X166619374Y-84355500D01*
X166529493Y-84324989D01*
X166376691Y-84273120D01*
X166372714Y-84272329D01*
X166372707Y-84272327D01*
X166084899Y-84215078D01*
X166084891Y-84215077D01*
X166080920Y-84214287D01*
X165780000Y-84194564D01*
X165775957Y-84194829D01*
X165483122Y-84214022D01*
X165483120Y-84214022D01*
X165479080Y-84214287D01*
X165475110Y-84215076D01*
X165475100Y-84215078D01*
X165187292Y-84272327D01*
X165187281Y-84272329D01*
X165183309Y-84273120D01*
X165179466Y-84274424D01*
X165179464Y-84274425D01*
X164901594Y-84368749D01*
X164901587Y-84368751D01*
X164897748Y-84370055D01*
X164894111Y-84371848D01*
X164894105Y-84371851D01*
X164630922Y-84501638D01*
X164630910Y-84501644D01*
X164627282Y-84503434D01*
X164623919Y-84505681D01*
X164623907Y-84505688D01*
X164379920Y-84668715D01*
X164379911Y-84668721D01*
X164376539Y-84670975D01*
X164373488Y-84673650D01*
X164373481Y-84673656D01*
X164152859Y-84867137D01*
X164152851Y-84867144D01*
X164149811Y-84869811D01*
X164147144Y-84872851D01*
X164147137Y-84872859D01*
X163953656Y-85093481D01*
X163953650Y-85093488D01*
X163950975Y-85096539D01*
X163948721Y-85099911D01*
X163948715Y-85099920D01*
X163785688Y-85343907D01*
X163785681Y-85343919D01*
X163783434Y-85347282D01*
X163781644Y-85350910D01*
X163781638Y-85350922D01*
X163651851Y-85614105D01*
X163651848Y-85614111D01*
X163650055Y-85617748D01*
X163648751Y-85621587D01*
X163648749Y-85621594D01*
X163613928Y-85724174D01*
X163553120Y-85903309D01*
X163552329Y-85907281D01*
X163552327Y-85907292D01*
X163495078Y-86195100D01*
X163495076Y-86195110D01*
X163494287Y-86199080D01*
X163494022Y-86203120D01*
X163494022Y-86203122D01*
X163485349Y-86335445D01*
X163474564Y-86500000D01*
X160462814Y-86500000D01*
X159520378Y-85557564D01*
X159488793Y-85503817D01*
X159430141Y-85297676D01*
X159333980Y-85104557D01*
X159203965Y-84932389D01*
X159044534Y-84787049D01*
X158861107Y-84673476D01*
X158848817Y-84668715D01*
X158659936Y-84595542D01*
X158574901Y-84579646D01*
X158512622Y-84547979D01*
X158477349Y-84487666D01*
X158480283Y-84417858D01*
X158520492Y-84360718D01*
X158563754Y-84338492D01*
X158766457Y-84280818D01*
X158783509Y-84272327D01*
X158961472Y-84183712D01*
X159135322Y-84052427D01*
X159282088Y-83891432D01*
X159396772Y-83706210D01*
X159475470Y-83503069D01*
X159515500Y-83288926D01*
X159515500Y-83071074D01*
X159475470Y-82856931D01*
X159461062Y-82819740D01*
X159396773Y-82653791D01*
X159290479Y-82482120D01*
X159282088Y-82468568D01*
X159223965Y-82404810D01*
X159135323Y-82307573D01*
X158961471Y-82176287D01*
X158766457Y-82079181D01*
X158556925Y-82019564D01*
X158397207Y-82004765D01*
X158397206Y-82004764D01*
X158394347Y-82004500D01*
X158285653Y-82004500D01*
X158282794Y-82004764D01*
X158282792Y-82004765D01*
X158123074Y-82019564D01*
X157913542Y-82079181D01*
X157718528Y-82176287D01*
X157544676Y-82307573D01*
X157397912Y-82468567D01*
X157283226Y-82653791D01*
X157204531Y-82856926D01*
X157204530Y-82856930D01*
X157204530Y-82856931D01*
X157164500Y-83071074D01*
X157164500Y-83288926D01*
X157181573Y-83380259D01*
X157204531Y-83503073D01*
X157283226Y-83706208D01*
X157397912Y-83891432D01*
X157544676Y-84052426D01*
X157718528Y-84183712D01*
X157913542Y-84280818D01*
X158116245Y-84338492D01*
X158175339Y-84375771D01*
X158204896Y-84439081D01*
X158195534Y-84508320D01*
X158150224Y-84561507D01*
X158105097Y-84579646D01*
X158020064Y-84595541D01*
X158020064Y-84595542D01*
X157818892Y-84673476D01*
X157635465Y-84787049D01*
X157476034Y-84932389D01*
X157346019Y-85104557D01*
X157249858Y-85297676D01*
X157190818Y-85505178D01*
X157170913Y-85720000D01*
X157190818Y-85934821D01*
X157249858Y-86142323D01*
X157346019Y-86335442D01*
X157476034Y-86507610D01*
X157635465Y-86652950D01*
X157635467Y-86652951D01*
X157635468Y-86652952D01*
X157818893Y-86766524D01*
X158020064Y-86844458D01*
X158146598Y-86868111D01*
X158208879Y-86899779D01*
X158244152Y-86960092D01*
X158241218Y-87029900D01*
X158201009Y-87087040D01*
X158146599Y-87111888D01*
X158020064Y-87135541D01*
X158020064Y-87135542D01*
X157818892Y-87213476D01*
X157635465Y-87327049D01*
X157476034Y-87472389D01*
X157346019Y-87644557D01*
X157249858Y-87837676D01*
X157190818Y-88045178D01*
X157170913Y-88260000D01*
X157190818Y-88474821D01*
X157249858Y-88682323D01*
X157346019Y-88875442D01*
X157476034Y-89047610D01*
X157635465Y-89192950D01*
X157635467Y-89192951D01*
X157635468Y-89192952D01*
X157818893Y-89306524D01*
X158020064Y-89384458D01*
X158146598Y-89408111D01*
X158208879Y-89439779D01*
X158244152Y-89500092D01*
X158241218Y-89569900D01*
X158201009Y-89627040D01*
X158146599Y-89651888D01*
X158020064Y-89675541D01*
X158020064Y-89675542D01*
X157818892Y-89753476D01*
X157635465Y-89867049D01*
X157476034Y-90012389D01*
X157346019Y-90184557D01*
X157249858Y-90377676D01*
X157190818Y-90585178D01*
X157170913Y-90800000D01*
X157190818Y-91014821D01*
X157249858Y-91222323D01*
X157346019Y-91415442D01*
X157476034Y-91587610D01*
X157635465Y-91732950D01*
X157635467Y-91732951D01*
X157635468Y-91732952D01*
X157818893Y-91846524D01*
X158020064Y-91924458D01*
X158146598Y-91948111D01*
X158208879Y-91979779D01*
X158244152Y-92040092D01*
X158241218Y-92109900D01*
X158201009Y-92167040D01*
X158146599Y-92191888D01*
X158020064Y-92215541D01*
X158020064Y-92215542D01*
X157818892Y-92293476D01*
X157635465Y-92407049D01*
X157476034Y-92552389D01*
X157346019Y-92724557D01*
X157249858Y-92917676D01*
X157190818Y-93125178D01*
X157170913Y-93340000D01*
X157190818Y-93554821D01*
X157249858Y-93762323D01*
X157346019Y-93955442D01*
X157476034Y-94127610D01*
X157635465Y-94272950D01*
X157635467Y-94272951D01*
X157635468Y-94272952D01*
X157818893Y-94386524D01*
X158020064Y-94464458D01*
X158146598Y-94488111D01*
X158208879Y-94519779D01*
X158244152Y-94580092D01*
X158241218Y-94649900D01*
X158201009Y-94707040D01*
X158146599Y-94731888D01*
X158057206Y-94748599D01*
X158020064Y-94755542D01*
X157818892Y-94833476D01*
X157635465Y-94947049D01*
X157476034Y-95092389D01*
X157346019Y-95264557D01*
X157249858Y-95457676D01*
X157190818Y-95665178D01*
X157170913Y-95880000D01*
X157190818Y-96094821D01*
X157249858Y-96302323D01*
X157346019Y-96495442D01*
X157476034Y-96667610D01*
X157635465Y-96812950D01*
X157635467Y-96812951D01*
X157635468Y-96812952D01*
X157818893Y-96926524D01*
X158020064Y-97004458D01*
X158146598Y-97028111D01*
X158208879Y-97059779D01*
X158244152Y-97120092D01*
X158241218Y-97189900D01*
X158201009Y-97247040D01*
X158146599Y-97271888D01*
X158030608Y-97293571D01*
X158020064Y-97295542D01*
X157818892Y-97373476D01*
X157635465Y-97487049D01*
X157476034Y-97632389D01*
X157346019Y-97804557D01*
X157249858Y-97997676D01*
X157190818Y-98205178D01*
X157170913Y-98420000D01*
X157190818Y-98634821D01*
X157249858Y-98842323D01*
X157346019Y-99035442D01*
X157476034Y-99207610D01*
X157635465Y-99352950D01*
X157635467Y-99352951D01*
X157635468Y-99352952D01*
X157818893Y-99466524D01*
X158020064Y-99544458D01*
X158146598Y-99568111D01*
X158208879Y-99599779D01*
X158244152Y-99660092D01*
X158241218Y-99729900D01*
X158201009Y-99787040D01*
X158146599Y-99811888D01*
X158020064Y-99835541D01*
X158020064Y-99835542D01*
X157818892Y-99913476D01*
X157635465Y-100027049D01*
X157476034Y-100172389D01*
X157346019Y-100344557D01*
X157249858Y-100537676D01*
X157190818Y-100745178D01*
X157170913Y-100960000D01*
X157190818Y-101174821D01*
X157249858Y-101382323D01*
X157346019Y-101575442D01*
X157476034Y-101747610D01*
X157635465Y-101892950D01*
X157635467Y-101892951D01*
X157635468Y-101892952D01*
X157818893Y-102006524D01*
X158020064Y-102084458D01*
X158146598Y-102108111D01*
X158208879Y-102139779D01*
X158244152Y-102200092D01*
X158241218Y-102269900D01*
X158201009Y-102327040D01*
X158146599Y-102351888D01*
X158020064Y-102375541D01*
X158020064Y-102375542D01*
X157818892Y-102453476D01*
X157635465Y-102567049D01*
X157476034Y-102712389D01*
X157346019Y-102884557D01*
X157249858Y-103077676D01*
X157190818Y-103285178D01*
X157170913Y-103499999D01*
X157190818Y-103714821D01*
X157249858Y-103922323D01*
X157346019Y-104115442D01*
X157476034Y-104287610D01*
X157635465Y-104432950D01*
X157635467Y-104432951D01*
X157635468Y-104432952D01*
X157818893Y-104546524D01*
X158020064Y-104624458D01*
X158146598Y-104648111D01*
X158208879Y-104679779D01*
X158244152Y-104740092D01*
X158241218Y-104809900D01*
X158201009Y-104867040D01*
X158146599Y-104891888D01*
X158020064Y-104915541D01*
X158020064Y-104915542D01*
X157818892Y-104993476D01*
X157635465Y-105107049D01*
X157476034Y-105252389D01*
X157346019Y-105424557D01*
X157249858Y-105617676D01*
X157190818Y-105825178D01*
X157170913Y-106039999D01*
X157190818Y-106254821D01*
X157249858Y-106462323D01*
X157346019Y-106655442D01*
X157476034Y-106827610D01*
X157635465Y-106972950D01*
X157635467Y-106972951D01*
X157635468Y-106972952D01*
X157818893Y-107086524D01*
X158020064Y-107164458D01*
X158146598Y-107188111D01*
X158208879Y-107219779D01*
X158244152Y-107280092D01*
X158241218Y-107349900D01*
X158201009Y-107407040D01*
X158146599Y-107431888D01*
X158020064Y-107455541D01*
X158020064Y-107455542D01*
X157818892Y-107533476D01*
X157635465Y-107647049D01*
X157476034Y-107792389D01*
X157346019Y-107964557D01*
X157249858Y-108157676D01*
X157190818Y-108365178D01*
X157170913Y-108580000D01*
X157190818Y-108794821D01*
X157249858Y-109002323D01*
X157346019Y-109195442D01*
X157476034Y-109367610D01*
X157635465Y-109512950D01*
X157635467Y-109512951D01*
X157635468Y-109512952D01*
X157818893Y-109626524D01*
X158020064Y-109704458D01*
X158146598Y-109728111D01*
X158208879Y-109759779D01*
X158244152Y-109820092D01*
X158241218Y-109889900D01*
X158201009Y-109947040D01*
X158146599Y-109971888D01*
X158020064Y-109995541D01*
X158020064Y-109995542D01*
X157818892Y-110073476D01*
X157635465Y-110187049D01*
X157476034Y-110332389D01*
X157346019Y-110504557D01*
X157249858Y-110697676D01*
X157190818Y-110905178D01*
X157170913Y-111120000D01*
X157190818Y-111334821D01*
X157249858Y-111542323D01*
X157332768Y-111708829D01*
X157345029Y-111777614D01*
X157318156Y-111842109D01*
X157260680Y-111881836D01*
X157221768Y-111888100D01*
X146558676Y-111888100D01*
X146491637Y-111868415D01*
X146470995Y-111851781D01*
X145936819Y-111317605D01*
X145903334Y-111256282D01*
X145900500Y-111229924D01*
X145900500Y-82567143D01*
X145903334Y-82540784D01*
X145904359Y-82536073D01*
X145900816Y-82486538D01*
X145900500Y-82477691D01*
X145900500Y-82464202D01*
X145900500Y-82464201D01*
X145898578Y-82450837D01*
X145897633Y-82442046D01*
X145894091Y-82392517D01*
X145892405Y-82387998D01*
X145885851Y-82362316D01*
X145885165Y-82357543D01*
X145864536Y-82312372D01*
X145861148Y-82304192D01*
X145843797Y-82257671D01*
X145840906Y-82253809D01*
X145827377Y-82231007D01*
X145825377Y-82226627D01*
X145792860Y-82189100D01*
X145787306Y-82182207D01*
X145779221Y-82171406D01*
X145769679Y-82161865D01*
X145763659Y-82155401D01*
X145731128Y-82117857D01*
X145731127Y-82117856D01*
X145731125Y-82117854D01*
X145727067Y-82115246D01*
X145706427Y-82098613D01*
X144401385Y-80793571D01*
X144384749Y-80772927D01*
X144382142Y-80768870D01*
X144344615Y-80736354D01*
X144338135Y-80730321D01*
X144328593Y-80720779D01*
X144317786Y-80712689D01*
X144310907Y-80707147D01*
X144273373Y-80674623D01*
X144273372Y-80674622D01*
X144268987Y-80672620D01*
X144246194Y-80659095D01*
X144242331Y-80656204D01*
X144242329Y-80656203D01*
X144195790Y-80638845D01*
X144187622Y-80635461D01*
X144165004Y-80625132D01*
X144142458Y-80614835D01*
X144141603Y-80614712D01*
X144137676Y-80614147D01*
X144112001Y-80607594D01*
X144107483Y-80605909D01*
X144057947Y-80602365D01*
X144049153Y-80601419D01*
X144035803Y-80599500D01*
X144035799Y-80599500D01*
X144022308Y-80599500D01*
X144013461Y-80599184D01*
X143963926Y-80595640D01*
X143959214Y-80596666D01*
X143932856Y-80599500D01*
X135545790Y-80599500D01*
X135478751Y-80579815D01*
X135448713Y-80547264D01*
X135447000Y-80548671D01*
X135382606Y-80470207D01*
X135353895Y-80435222D01*
X135326583Y-80370914D01*
X135338374Y-80302047D01*
X135385526Y-80250486D01*
X135449781Y-80232561D01*
X160927297Y-80241047D01*
X160994327Y-80260753D01*
X161040065Y-80313572D01*
X161049985Y-80382734D01*
X161020939Y-80446280D01*
X160990849Y-80468453D01*
X160991995Y-80470207D01*
X160983392Y-80475827D01*
X160983393Y-80475827D01*
X160775215Y-80611836D01*
X160600224Y-80772927D01*
X160592259Y-80780259D01*
X160439529Y-80976485D01*
X160321170Y-81195194D01*
X160240429Y-81430384D01*
X160199500Y-81675665D01*
X160199500Y-81924334D01*
X160240429Y-82169615D01*
X160315401Y-82388000D01*
X160321172Y-82404810D01*
X160439526Y-82623509D01*
X160439529Y-82623514D01*
X160544731Y-82758676D01*
X160592262Y-82819744D01*
X160775215Y-82988164D01*
X160983393Y-83124173D01*
X161211119Y-83224063D01*
X161452179Y-83285108D01*
X161637933Y-83300500D01*
X161640503Y-83300500D01*
X161759497Y-83300500D01*
X161762067Y-83300500D01*
X161947821Y-83285108D01*
X162188881Y-83224063D01*
X162416607Y-83124173D01*
X162624785Y-82988164D01*
X162807738Y-82819744D01*
X162960474Y-82623509D01*
X163078828Y-82404810D01*
X163159571Y-82169614D01*
X163200500Y-81924335D01*
X163200500Y-81675665D01*
X163159571Y-81430386D01*
X163078828Y-81195190D01*
X162960474Y-80976491D01*
X162960471Y-80976487D01*
X162960470Y-80976485D01*
X162858649Y-80845667D01*
X162807738Y-80780256D01*
X162624785Y-80611836D01*
X162416607Y-80475827D01*
X162408005Y-80470207D01*
X162409953Y-80467223D01*
X162370609Y-80434138D01*
X162349934Y-80367397D01*
X162368623Y-80300073D01*
X162420744Y-80253542D01*
X162473955Y-80241562D01*
X172743664Y-80244982D01*
X172810694Y-80264689D01*
X172831301Y-80281301D01*
X173793657Y-81243657D01*
X173827142Y-81304980D01*
X173829976Y-81331395D01*
X173810023Y-124968671D01*
X173790308Y-125035701D01*
X173773704Y-125056295D01*
X172771305Y-126058694D01*
X172709982Y-126092179D01*
X172683657Y-126095013D01*
X162284260Y-126097781D01*
X162217215Y-126078114D01*
X162171446Y-126025322D01*
X162161484Y-125956167D01*
X162190492Y-125892603D01*
X162234417Y-125860225D01*
X162251337Y-125852802D01*
X162316607Y-125824173D01*
X162524785Y-125688164D01*
X162707738Y-125519744D01*
X162860474Y-125323509D01*
X162978828Y-125104810D01*
X163059571Y-124869614D01*
X163100500Y-124624335D01*
X163100500Y-124375665D01*
X163059571Y-124130386D01*
X162978828Y-123895190D01*
X162860474Y-123676491D01*
X162860471Y-123676487D01*
X162860470Y-123676485D01*
X162758650Y-123545667D01*
X162707738Y-123480256D01*
X162524785Y-123311836D01*
X162316607Y-123175827D01*
X162316604Y-123175825D01*
X162163272Y-123108568D01*
X162088881Y-123075937D01*
X161908867Y-123030351D01*
X161847822Y-123014892D01*
X161813854Y-123012077D01*
X161662067Y-122999500D01*
X161537933Y-122999500D01*
X161420111Y-123009262D01*
X161352177Y-123014892D01*
X161230086Y-123045810D01*
X161111119Y-123075937D01*
X161111116Y-123075938D01*
X161111117Y-123075938D01*
X160883395Y-123175825D01*
X160744607Y-123266499D01*
X160675215Y-123311836D01*
X160503823Y-123469614D01*
X160492259Y-123480259D01*
X160339529Y-123676485D01*
X160221170Y-123895194D01*
X160140429Y-124130384D01*
X160099500Y-124375665D01*
X160099500Y-124624334D01*
X160140429Y-124869615D01*
X160221170Y-125104805D01*
X160221172Y-125104810D01*
X160339526Y-125323509D01*
X160339529Y-125323514D01*
X160475036Y-125497612D01*
X160492262Y-125519744D01*
X160675215Y-125688164D01*
X160883393Y-125824173D01*
X160883395Y-125824174D01*
X160966412Y-125860589D01*
X161019898Y-125905545D01*
X161040588Y-125972281D01*
X161021913Y-126039609D01*
X160969803Y-126086152D01*
X160916635Y-126098145D01*
X127694350Y-126106986D01*
X127627305Y-126087319D01*
X127606674Y-126070706D01*
X127594651Y-126058694D01*
X126858828Y-125323514D01*
X126536309Y-125001277D01*
X126502797Y-124939968D01*
X126499952Y-124913677D01*
X126498395Y-123224335D01*
X137599500Y-123224335D01*
X137640429Y-123469614D01*
X137721172Y-123704810D01*
X137824201Y-123895190D01*
X137839529Y-123923514D01*
X137975036Y-124097612D01*
X137992262Y-124119744D01*
X138175215Y-124288164D01*
X138383393Y-124424173D01*
X138611119Y-124524063D01*
X138852179Y-124585108D01*
X139037933Y-124600500D01*
X139040503Y-124600500D01*
X139159497Y-124600500D01*
X139162067Y-124600500D01*
X139347821Y-124585108D01*
X139588881Y-124524063D01*
X139816607Y-124424173D01*
X140024785Y-124288164D01*
X140207738Y-124119744D01*
X140360474Y-123923509D01*
X140478828Y-123704810D01*
X140559571Y-123469614D01*
X140600500Y-123224335D01*
X140600500Y-122975665D01*
X140559571Y-122730386D01*
X140478828Y-122495190D01*
X140360474Y-122276491D01*
X140360471Y-122276487D01*
X140360470Y-122276485D01*
X140207740Y-122080259D01*
X140207738Y-122080256D01*
X140024785Y-121911836D01*
X139816607Y-121775827D01*
X139816604Y-121775825D01*
X139691523Y-121720960D01*
X139588881Y-121675937D01*
X139393040Y-121626343D01*
X139347822Y-121614892D01*
X139313854Y-121612077D01*
X139162067Y-121599500D01*
X139037933Y-121599500D01*
X138920111Y-121609262D01*
X138852177Y-121614892D01*
X138730086Y-121645810D01*
X138611119Y-121675937D01*
X138611116Y-121675938D01*
X138611117Y-121675938D01*
X138383395Y-121775825D01*
X138244607Y-121866499D01*
X138175215Y-121911836D01*
X138006001Y-122067609D01*
X137992259Y-122080259D01*
X137839529Y-122276485D01*
X137839526Y-122276491D01*
X137744535Y-122452020D01*
X137721170Y-122495194D01*
X137640429Y-122730384D01*
X137640429Y-122730386D01*
X137599500Y-122975665D01*
X137599500Y-123224335D01*
X126498395Y-123224335D01*
X126475789Y-98700000D01*
X137794699Y-98700000D01*
X137813865Y-98931299D01*
X137813865Y-98931301D01*
X137813866Y-98931305D01*
X137840238Y-99035445D01*
X137870844Y-99156303D01*
X137957102Y-99352950D01*
X137964076Y-99368849D01*
X138091021Y-99563153D01*
X138248216Y-99733913D01*
X138431374Y-99876470D01*
X138635497Y-99986936D01*
X138691023Y-100005998D01*
X138855015Y-100062297D01*
X138855017Y-100062297D01*
X138855019Y-100062298D01*
X139083951Y-100100500D01*
X139083952Y-100100500D01*
X139316048Y-100100500D01*
X139316049Y-100100500D01*
X139544981Y-100062298D01*
X139764503Y-99986936D01*
X139968626Y-99876470D01*
X140151784Y-99733913D01*
X140308979Y-99563153D01*
X140435924Y-99368849D01*
X140529157Y-99156300D01*
X140586134Y-98931305D01*
X140605300Y-98700000D01*
X140586134Y-98468695D01*
X140529157Y-98243700D01*
X140435924Y-98031151D01*
X140308979Y-97836847D01*
X140151784Y-97666087D01*
X139968626Y-97523530D01*
X139764503Y-97413064D01*
X139764499Y-97413062D01*
X139764498Y-97413062D01*
X139544984Y-97337702D01*
X139373281Y-97309050D01*
X139316049Y-97299500D01*
X139083951Y-97299500D01*
X139038164Y-97307140D01*
X138855015Y-97337702D01*
X138635501Y-97413062D01*
X138431372Y-97523531D01*
X138248215Y-97666087D01*
X138091020Y-97836848D01*
X137964076Y-98031150D01*
X137870844Y-98243696D01*
X137870842Y-98243700D01*
X137870843Y-98243700D01*
X137826198Y-98420000D01*
X137813865Y-98468700D01*
X137794699Y-98700000D01*
X126475789Y-98700000D01*
X126472102Y-94700000D01*
X137794699Y-94700000D01*
X137813865Y-94931299D01*
X137813865Y-94931301D01*
X137813866Y-94931305D01*
X137854659Y-95092391D01*
X137870844Y-95156303D01*
X137905650Y-95235652D01*
X137964076Y-95368849D01*
X138091021Y-95563153D01*
X138248216Y-95733913D01*
X138431374Y-95876470D01*
X138635497Y-95986936D01*
X138725631Y-96017879D01*
X138855015Y-96062297D01*
X138855017Y-96062297D01*
X138855019Y-96062298D01*
X139083951Y-96100500D01*
X139083952Y-96100500D01*
X139316048Y-96100500D01*
X139316049Y-96100500D01*
X139544981Y-96062298D01*
X139764503Y-95986936D01*
X139968626Y-95876470D01*
X140151784Y-95733913D01*
X140308979Y-95563153D01*
X140435924Y-95368849D01*
X140529157Y-95156300D01*
X140586134Y-94931305D01*
X140605300Y-94700000D01*
X140605163Y-94698352D01*
X140590367Y-94519779D01*
X140586134Y-94468695D01*
X140529157Y-94243700D01*
X140435924Y-94031151D01*
X140308979Y-93836847D01*
X140151784Y-93666087D01*
X139968626Y-93523530D01*
X139764503Y-93413064D01*
X139764499Y-93413062D01*
X139764498Y-93413062D01*
X139544984Y-93337702D01*
X139373281Y-93309050D01*
X139316049Y-93299500D01*
X139083951Y-93299500D01*
X139038164Y-93307140D01*
X138855015Y-93337702D01*
X138635501Y-93413062D01*
X138431372Y-93523531D01*
X138248215Y-93666087D01*
X138091020Y-93836848D01*
X137964076Y-94031150D01*
X137870844Y-94243696D01*
X137870842Y-94243700D01*
X137870843Y-94243700D01*
X137821778Y-94437454D01*
X137813865Y-94468700D01*
X137794699Y-94700000D01*
X126472102Y-94700000D01*
X126468415Y-90700000D01*
X137595052Y-90700000D01*
X137614812Y-90951070D01*
X137673603Y-91195956D01*
X137769982Y-91428632D01*
X137901570Y-91643365D01*
X137902265Y-91644178D01*
X137902266Y-91644178D01*
X138597452Y-90948992D01*
X138607188Y-90978956D01*
X138695186Y-91117619D01*
X138814903Y-91230040D01*
X138949510Y-91304041D01*
X138255819Y-91997732D01*
X138255820Y-91997733D01*
X138256631Y-91998427D01*
X138471372Y-92130019D01*
X138704043Y-92226396D01*
X138948929Y-92285187D01*
X139200000Y-92304947D01*
X139451070Y-92285187D01*
X139695956Y-92226396D01*
X139928632Y-92130017D01*
X140143364Y-91998430D01*
X140144179Y-91997732D01*
X139447534Y-91301086D01*
X139515629Y-91274126D01*
X139648492Y-91177595D01*
X139753175Y-91051055D01*
X139801631Y-90948078D01*
X140497732Y-91644179D01*
X140498430Y-91643364D01*
X140630017Y-91428632D01*
X140726396Y-91195956D01*
X140785187Y-90951070D01*
X140804947Y-90700000D01*
X140785187Y-90448929D01*
X140726396Y-90204043D01*
X140630019Y-89971372D01*
X140498427Y-89756631D01*
X140497733Y-89755820D01*
X140497732Y-89755819D01*
X139802546Y-90451004D01*
X139792812Y-90421044D01*
X139704814Y-90282381D01*
X139585097Y-90169960D01*
X139450488Y-90095957D01*
X140144178Y-89402266D01*
X140144178Y-89402265D01*
X140143365Y-89401570D01*
X139928632Y-89269982D01*
X139695956Y-89173603D01*
X139451070Y-89114812D01*
X139200000Y-89095052D01*
X138948929Y-89114812D01*
X138704043Y-89173603D01*
X138471367Y-89269982D01*
X138256635Y-89401569D01*
X138255820Y-89402265D01*
X138255820Y-89402266D01*
X138952466Y-90098912D01*
X138884371Y-90125874D01*
X138751508Y-90222405D01*
X138646825Y-90348945D01*
X138598368Y-90451920D01*
X137902266Y-89755820D01*
X137902265Y-89755820D01*
X137901569Y-89756635D01*
X137769982Y-89971367D01*
X137673603Y-90204043D01*
X137614812Y-90448929D01*
X137595052Y-90700000D01*
X126468415Y-90700000D01*
X126462608Y-84400000D01*
X128590640Y-84400000D01*
X128610034Y-84596914D01*
X128610035Y-84596916D01*
X128662422Y-84769615D01*
X128667474Y-84786267D01*
X128713758Y-84872859D01*
X128760748Y-84960770D01*
X128886275Y-85113725D01*
X129039230Y-85239252D01*
X129213735Y-85332527D01*
X129403084Y-85389965D01*
X129600000Y-85409360D01*
X129796916Y-85389965D01*
X129986265Y-85332527D01*
X130160770Y-85239252D01*
X130313725Y-85113725D01*
X130439252Y-84960770D01*
X130532527Y-84786265D01*
X130589965Y-84596916D01*
X130609360Y-84400000D01*
X131090640Y-84400000D01*
X131110034Y-84596914D01*
X131110035Y-84596916D01*
X131162422Y-84769615D01*
X131167474Y-84786267D01*
X131213758Y-84872859D01*
X131260748Y-84960770D01*
X131386275Y-85113725D01*
X131539230Y-85239252D01*
X131713735Y-85332527D01*
X131903084Y-85389965D01*
X132100000Y-85409360D01*
X132296916Y-85389965D01*
X132486265Y-85332527D01*
X132660770Y-85239252D01*
X132813725Y-85113725D01*
X132939252Y-84960770D01*
X133032527Y-84786265D01*
X133089965Y-84596916D01*
X133109360Y-84400000D01*
X133590640Y-84400000D01*
X133610034Y-84596914D01*
X133610035Y-84596916D01*
X133662422Y-84769615D01*
X133667474Y-84786267D01*
X133713758Y-84872859D01*
X133760748Y-84960770D01*
X133886275Y-85113725D01*
X134039230Y-85239252D01*
X134213735Y-85332527D01*
X134403084Y-85389965D01*
X134600000Y-85409360D01*
X134796916Y-85389965D01*
X134986265Y-85332527D01*
X135160770Y-85239252D01*
X135313725Y-85113725D01*
X135439252Y-84960770D01*
X135532527Y-84786265D01*
X135589965Y-84596916D01*
X135597114Y-84524335D01*
X137699500Y-84524335D01*
X137704767Y-84555900D01*
X137740429Y-84769615D01*
X137806053Y-84960770D01*
X137821172Y-85004810D01*
X137880114Y-85113725D01*
X137939529Y-85223514D01*
X138069084Y-85389965D01*
X138092262Y-85419744D01*
X138275215Y-85588164D01*
X138483393Y-85724173D01*
X138711119Y-85824063D01*
X138952179Y-85885108D01*
X139137933Y-85900500D01*
X139140503Y-85900500D01*
X139259497Y-85900500D01*
X139262067Y-85900500D01*
X139447821Y-85885108D01*
X139688881Y-85824063D01*
X139916607Y-85724173D01*
X140124785Y-85588164D01*
X140307738Y-85419744D01*
X140460474Y-85223509D01*
X140578828Y-85004810D01*
X140659571Y-84769614D01*
X140700500Y-84524335D01*
X140700500Y-84275665D01*
X140659571Y-84030386D01*
X140578828Y-83795190D01*
X140460474Y-83576491D01*
X140460471Y-83576487D01*
X140460470Y-83576485D01*
X140307740Y-83380259D01*
X140307738Y-83380256D01*
X140124785Y-83211836D01*
X139916607Y-83075827D01*
X139916604Y-83075825D01*
X139791523Y-83020960D01*
X139688881Y-82975937D01*
X139508867Y-82930351D01*
X139447822Y-82914892D01*
X139413854Y-82912077D01*
X139262067Y-82899500D01*
X139137933Y-82899500D01*
X139020111Y-82909262D01*
X138952177Y-82914892D01*
X138830087Y-82945810D01*
X138711119Y-82975937D01*
X138711116Y-82975938D01*
X138711117Y-82975938D01*
X138483395Y-83075825D01*
X138409392Y-83124174D01*
X138275215Y-83211836D01*
X138179131Y-83300288D01*
X138092259Y-83380259D01*
X137939529Y-83576485D01*
X137821170Y-83795194D01*
X137740429Y-84030384D01*
X137740429Y-84030386D01*
X137699500Y-84275665D01*
X137699500Y-84524335D01*
X135597114Y-84524335D01*
X135609360Y-84400000D01*
X135589965Y-84203084D01*
X135532527Y-84013735D01*
X135439252Y-83839230D01*
X135313725Y-83686275D01*
X135160770Y-83560748D01*
X135160769Y-83560747D01*
X134986267Y-83467474D01*
X134986266Y-83467473D01*
X134986265Y-83467473D01*
X134891590Y-83438753D01*
X134796914Y-83410034D01*
X134621512Y-83392758D01*
X134600000Y-83390640D01*
X134599999Y-83390640D01*
X134403085Y-83410034D01*
X134213732Y-83467474D01*
X134039230Y-83560747D01*
X133886275Y-83686275D01*
X133760747Y-83839230D01*
X133667474Y-84013732D01*
X133610034Y-84203085D01*
X133590640Y-84400000D01*
X133109360Y-84400000D01*
X133089965Y-84203084D01*
X133032527Y-84013735D01*
X132939252Y-83839230D01*
X132813725Y-83686275D01*
X132660770Y-83560748D01*
X132660769Y-83560747D01*
X132486267Y-83467474D01*
X132486266Y-83467473D01*
X132486265Y-83467473D01*
X132391590Y-83438753D01*
X132296914Y-83410034D01*
X132100000Y-83390640D01*
X131903085Y-83410034D01*
X131713732Y-83467474D01*
X131539230Y-83560747D01*
X131386275Y-83686275D01*
X131260747Y-83839230D01*
X131167474Y-84013732D01*
X131110034Y-84203085D01*
X131090640Y-84400000D01*
X130609360Y-84400000D01*
X130589965Y-84203084D01*
X130532527Y-84013735D01*
X130439252Y-83839230D01*
X130313725Y-83686275D01*
X130160770Y-83560748D01*
X130160769Y-83560747D01*
X129986267Y-83467474D01*
X129986266Y-83467473D01*
X129986265Y-83467473D01*
X129891590Y-83438753D01*
X129796914Y-83410034D01*
X129600000Y-83390640D01*
X129403085Y-83410034D01*
X129213732Y-83467474D01*
X129039230Y-83560747D01*
X128886275Y-83686275D01*
X128760747Y-83839230D01*
X128667474Y-84013732D01*
X128610034Y-84203085D01*
X128590640Y-84400000D01*
X126462608Y-84400000D01*
X126460010Y-81581463D01*
X126479633Y-81514408D01*
X126496324Y-81493675D01*
X127723665Y-80266334D01*
X127784986Y-80232851D01*
X127811383Y-80230017D01*
X128499086Y-80230246D01*
G37*
%TD.AperFunction*%
%TD*%
D19*
X127370000Y-126395000D02*
X172920000Y-126395000D01*
X126195000Y-125271000D02*
X126195000Y-81531000D01*
X127370000Y-126394000D02*
X127318000Y-126394000D01*
X174132000Y-81148000D02*
X172979000Y-79995000D01*
X127737000Y-79994000D02*
X172977000Y-79994000D01*
X126197000Y-125273000D02*
X127317000Y-126393000D01*
X127734000Y-79995000D02*
X126195000Y-81534000D01*
X172928000Y-126397000D02*
X174128000Y-125197000D01*
X174128000Y-125198000D02*
X174128000Y-81148000D01*
M02*
