%TF.GenerationSoftware,KiCad,Pcbnew,7.0.2*%
%TF.CreationDate,2025-03-23T10:17:30-04:00*%
%TF.ProjectId,ControllerToJamma,436f6e74-726f-46c6-9c65-72546f4a616d,rev?*%
%TF.SameCoordinates,Original*%
%TF.FileFunction,Soldermask,Top*%
%TF.FilePolarity,Negative*%
%FSLAX46Y46*%
G04 Gerber Fmt 4.6, Leading zero omitted, Abs format (unit mm)*
G04 Created by KiCad (PCBNEW 7.0.2) date 2025-03-23 10:17:30*
%MOMM*%
%LPD*%
G01*
G04 APERTURE LIST*
G04 Aperture macros list*
%AMRoundRect*
0 Rectangle with rounded corners*
0 $1 Rounding radius*
0 $2 $3 $4 $5 $6 $7 $8 $9 X,Y pos of 4 corners*
0 Add a 4 corners polygon primitive as box body*
4,1,4,$2,$3,$4,$5,$6,$7,$8,$9,$2,$3,0*
0 Add four circle primitives for the rounded corners*
1,1,$1+$1,$2,$3*
1,1,$1+$1,$4,$5*
1,1,$1+$1,$6,$7*
1,1,$1+$1,$8,$9*
0 Add four rect primitives between the rounded corners*
20,1,$1+$1,$2,$3,$4,$5,0*
20,1,$1+$1,$4,$5,$6,$7,0*
20,1,$1+$1,$6,$7,$8,$9,0*
20,1,$1+$1,$8,$9,$2,$3,0*%
G04 Aperture macros list end*
%ADD10RoundRect,0.200000X1.100000X1.100000X-1.100000X1.100000X-1.100000X-1.100000X1.100000X-1.100000X0*%
%ADD11C,2.600000*%
%ADD12C,4.400000*%
%ADD13RoundRect,0.200000X0.800000X-0.800000X0.800000X0.800000X-0.800000X0.800000X-0.800000X-0.800000X0*%
%ADD14C,2.000000*%
%ADD15C,1.850000*%
%ADD16C,2.127200*%
%ADD17RoundRect,0.200000X0.863600X0.863600X-0.863600X0.863600X-0.863600X-0.863600X0.863600X-0.863600X0*%
%ADD18C,1.808000*%
%ADD19C,2.500000*%
%TA.AperFunction,Profile*%
%ADD20C,0.150000*%
%TD*%
G04 APERTURE END LIST*
D10*
%TO.C,J2*%
X139200000Y-117200000D03*
D11*
X139200000Y-113200000D03*
X139200000Y-109200000D03*
X139200000Y-105200000D03*
X139200000Y-98700000D03*
X139200000Y-94700000D03*
X139200000Y-90700000D03*
%TD*%
D12*
%TO.C,J3*%
X165780000Y-119800000D03*
X165780000Y-86500000D03*
D13*
X165480000Y-93455000D03*
D14*
X165480000Y-96225000D03*
X165480000Y-98995000D03*
X165480000Y-101765000D03*
X165480000Y-104535000D03*
X165480000Y-107305000D03*
X165480000Y-110075000D03*
X165480000Y-112845000D03*
X168320000Y-94840000D03*
X168320000Y-97610000D03*
X168320000Y-100380000D03*
X168320000Y-103150000D03*
X168320000Y-105920000D03*
X168320000Y-108690000D03*
X168320000Y-111460000D03*
%TD*%
D15*
%TO.C,XA1*%
X158340000Y-123820000D03*
X158340000Y-83180000D03*
X143100000Y-123820000D03*
X143100000Y-83180000D03*
D16*
X143100000Y-88260000D03*
X143100000Y-113660000D03*
X143100000Y-93340000D03*
X143100000Y-95880000D03*
X143100000Y-98420000D03*
X143100000Y-100960000D03*
X143100000Y-103500000D03*
X143100000Y-106040000D03*
X143100000Y-108580000D03*
X143100000Y-111120000D03*
X143100000Y-90800000D03*
X158340000Y-118740000D03*
D17*
X158340000Y-121280000D03*
D16*
X158340000Y-111120000D03*
X158340000Y-108580000D03*
X158340000Y-106040000D03*
X158340000Y-103500000D03*
X158340000Y-100960000D03*
X158340000Y-98420000D03*
X158340000Y-95880000D03*
X158340000Y-93340000D03*
X158340000Y-90800000D03*
X158340000Y-88260000D03*
X158340000Y-85720000D03*
X143100000Y-85720000D03*
X158340000Y-113660000D03*
X143100000Y-118740000D03*
X158340000Y-116200000D03*
X143100000Y-116200000D03*
X143100000Y-121280000D03*
%TD*%
D18*
%TO.C,SW1*%
X134600000Y-84400000D03*
X132100000Y-84400000D03*
X129600000Y-84400000D03*
X134600000Y-81100000D03*
X132100000Y-81100000D03*
X129600000Y-81100000D03*
%TD*%
D19*
%TO.C,H1*%
X139200000Y-84400000D03*
%TD*%
%TO.C,H4*%
X161600000Y-124500000D03*
%TD*%
%TO.C,H2*%
X139100000Y-123100000D03*
%TD*%
%TO.C,H3*%
X161700000Y-81800000D03*
%TD*%
D20*
X127370000Y-126395000D02*
X172920000Y-126395000D01*
X126195000Y-125271000D02*
X126195000Y-81531000D01*
X127370000Y-126394000D02*
X127318000Y-126394000D01*
X174132000Y-81148000D02*
X172979000Y-79995000D01*
X127737000Y-79994000D02*
X172977000Y-79994000D01*
X126197000Y-125273000D02*
X127317000Y-126393000D01*
X127734000Y-79995000D02*
X126195000Y-81534000D01*
X172928000Y-126397000D02*
X174128000Y-125197000D01*
X174128000Y-125198000D02*
X174128000Y-81148000D01*
M02*
