%TF.GenerationSoftware,KiCad,Pcbnew,7.0.2*%
%TF.CreationDate,2025-03-23T10:17:30-04:00*%
%TF.ProjectId,ControllerToJamma,436f6e74-726f-46c6-9c65-72546f4a616d,rev?*%
%TF.SameCoordinates,Original*%
%TF.FileFunction,Legend,Bot*%
%TF.FilePolarity,Positive*%
%FSLAX46Y46*%
G04 Gerber Fmt 4.6, Leading zero omitted, Abs format (unit mm)*
G04 Created by KiCad (PCBNEW 7.0.2) date 2025-03-23 10:17:30*
%MOMM*%
%LPD*%
G01*
G04 APERTURE LIST*
%ADD10C,0.360000*%
%ADD11C,0.200000*%
%ADD12C,0.010000*%
%TA.AperFunction,Profile*%
%ADD13C,0.150000*%
%TD*%
G04 APERTURE END LIST*
D10*
X152984071Y-91807143D02*
X150284071Y-91807143D01*
X150284071Y-91807143D02*
X152984071Y-93350000D01*
X152984071Y-93350000D02*
X150284071Y-93350000D01*
X151569785Y-94635714D02*
X151569785Y-95535714D01*
X152984071Y-95921428D02*
X152984071Y-94635714D01*
X152984071Y-94635714D02*
X150284071Y-94635714D01*
X150284071Y-94635714D02*
X150284071Y-95921428D01*
X150284071Y-97592856D02*
X150284071Y-98107142D01*
X150284071Y-98107142D02*
X150412642Y-98364285D01*
X150412642Y-98364285D02*
X150669785Y-98621428D01*
X150669785Y-98621428D02*
X151184071Y-98749999D01*
X151184071Y-98749999D02*
X152084071Y-98749999D01*
X152084071Y-98749999D02*
X152598357Y-98621428D01*
X152598357Y-98621428D02*
X152855500Y-98364285D01*
X152855500Y-98364285D02*
X152984071Y-98107142D01*
X152984071Y-98107142D02*
X152984071Y-97592856D01*
X152984071Y-97592856D02*
X152855500Y-97335714D01*
X152855500Y-97335714D02*
X152598357Y-97078571D01*
X152598357Y-97078571D02*
X152084071Y-96949999D01*
X152084071Y-96949999D02*
X151184071Y-96949999D01*
X151184071Y-96949999D02*
X150669785Y-97078571D01*
X150669785Y-97078571D02*
X150412642Y-97335714D01*
X150412642Y-97335714D02*
X150284071Y-97592856D01*
X150284071Y-104792856D02*
X152212642Y-104792856D01*
X152212642Y-104792856D02*
X152598357Y-104664285D01*
X152598357Y-104664285D02*
X152855500Y-104407142D01*
X152855500Y-104407142D02*
X152984071Y-104021428D01*
X152984071Y-104021428D02*
X152984071Y-103764285D01*
X152212642Y-105949999D02*
X152212642Y-107235714D01*
X152984071Y-105692856D02*
X150284071Y-106592856D01*
X150284071Y-106592856D02*
X152984071Y-107492856D01*
X152984071Y-108392857D02*
X150284071Y-108392857D01*
X150284071Y-108392857D02*
X152212642Y-109292857D01*
X152212642Y-109292857D02*
X150284071Y-110192857D01*
X150284071Y-110192857D02*
X152984071Y-110192857D01*
X152984071Y-111478571D02*
X150284071Y-111478571D01*
X150284071Y-111478571D02*
X152212642Y-112378571D01*
X152212642Y-112378571D02*
X150284071Y-113278571D01*
X150284071Y-113278571D02*
X152984071Y-113278571D01*
X152212642Y-114435713D02*
X152212642Y-115721428D01*
X152984071Y-114178570D02*
X150284071Y-115078570D01*
X150284071Y-115078570D02*
X152984071Y-115978570D01*
D11*
X154815000Y-114019048D02*
X154862619Y-114161905D01*
X154862619Y-114161905D02*
X154862619Y-114400000D01*
X154862619Y-114400000D02*
X154815000Y-114495238D01*
X154815000Y-114495238D02*
X154767380Y-114542857D01*
X154767380Y-114542857D02*
X154672142Y-114590476D01*
X154672142Y-114590476D02*
X154576904Y-114590476D01*
X154576904Y-114590476D02*
X154481666Y-114542857D01*
X154481666Y-114542857D02*
X154434047Y-114495238D01*
X154434047Y-114495238D02*
X154386428Y-114400000D01*
X154386428Y-114400000D02*
X154338809Y-114209524D01*
X154338809Y-114209524D02*
X154291190Y-114114286D01*
X154291190Y-114114286D02*
X154243571Y-114066667D01*
X154243571Y-114066667D02*
X154148333Y-114019048D01*
X154148333Y-114019048D02*
X154053095Y-114019048D01*
X154053095Y-114019048D02*
X153957857Y-114066667D01*
X153957857Y-114066667D02*
X153910238Y-114114286D01*
X153910238Y-114114286D02*
X153862619Y-114209524D01*
X153862619Y-114209524D02*
X153862619Y-114447619D01*
X153862619Y-114447619D02*
X153910238Y-114590476D01*
X154862619Y-115019048D02*
X153862619Y-115019048D01*
X153862619Y-115019048D02*
X154862619Y-115590476D01*
X154862619Y-115590476D02*
X153862619Y-115590476D01*
X154338809Y-116066667D02*
X154338809Y-116400000D01*
X154862619Y-116542857D02*
X154862619Y-116066667D01*
X154862619Y-116066667D02*
X153862619Y-116066667D01*
X153862619Y-116066667D02*
X153862619Y-116542857D01*
X154815000Y-116923810D02*
X154862619Y-117066667D01*
X154862619Y-117066667D02*
X154862619Y-117304762D01*
X154862619Y-117304762D02*
X154815000Y-117400000D01*
X154815000Y-117400000D02*
X154767380Y-117447619D01*
X154767380Y-117447619D02*
X154672142Y-117495238D01*
X154672142Y-117495238D02*
X154576904Y-117495238D01*
X154576904Y-117495238D02*
X154481666Y-117447619D01*
X154481666Y-117447619D02*
X154434047Y-117400000D01*
X154434047Y-117400000D02*
X154386428Y-117304762D01*
X154386428Y-117304762D02*
X154338809Y-117114286D01*
X154338809Y-117114286D02*
X154291190Y-117019048D01*
X154291190Y-117019048D02*
X154243571Y-116971429D01*
X154243571Y-116971429D02*
X154148333Y-116923810D01*
X154148333Y-116923810D02*
X154053095Y-116923810D01*
X154053095Y-116923810D02*
X153957857Y-116971429D01*
X153957857Y-116971429D02*
X153910238Y-117019048D01*
X153910238Y-117019048D02*
X153862619Y-117114286D01*
X153862619Y-117114286D02*
X153862619Y-117352381D01*
X153862619Y-117352381D02*
X153910238Y-117495238D01*
X154481666Y-117923810D02*
X154481666Y-118685715D01*
X154862619Y-119161905D02*
X153862619Y-119161905D01*
X153862619Y-119161905D02*
X154862619Y-119733333D01*
X154862619Y-119733333D02*
X153862619Y-119733333D01*
X153910238Y-120733333D02*
X153862619Y-120638095D01*
X153862619Y-120638095D02*
X153862619Y-120495238D01*
X153862619Y-120495238D02*
X153910238Y-120352381D01*
X153910238Y-120352381D02*
X154005476Y-120257143D01*
X154005476Y-120257143D02*
X154100714Y-120209524D01*
X154100714Y-120209524D02*
X154291190Y-120161905D01*
X154291190Y-120161905D02*
X154434047Y-120161905D01*
X154434047Y-120161905D02*
X154624523Y-120209524D01*
X154624523Y-120209524D02*
X154719761Y-120257143D01*
X154719761Y-120257143D02*
X154815000Y-120352381D01*
X154815000Y-120352381D02*
X154862619Y-120495238D01*
X154862619Y-120495238D02*
X154862619Y-120590476D01*
X154862619Y-120590476D02*
X154815000Y-120733333D01*
X154815000Y-120733333D02*
X154767380Y-120780952D01*
X154767380Y-120780952D02*
X154434047Y-120780952D01*
X154434047Y-120780952D02*
X154434047Y-120590476D01*
X153862619Y-121828572D02*
X154862619Y-122161905D01*
X154862619Y-122161905D02*
X153862619Y-122495238D01*
X154862619Y-123352381D02*
X154862619Y-122780953D01*
X154862619Y-123066667D02*
X153862619Y-123066667D01*
X153862619Y-123066667D02*
X154005476Y-122971429D01*
X154005476Y-122971429D02*
X154100714Y-122876191D01*
X154100714Y-122876191D02*
X154148333Y-122780953D01*
X154767380Y-123780953D02*
X154815000Y-123828572D01*
X154815000Y-123828572D02*
X154862619Y-123780953D01*
X154862619Y-123780953D02*
X154815000Y-123733334D01*
X154815000Y-123733334D02*
X154767380Y-123780953D01*
X154767380Y-123780953D02*
X154862619Y-123780953D01*
X154862619Y-124780952D02*
X154862619Y-124209524D01*
X154862619Y-124495238D02*
X153862619Y-124495238D01*
X153862619Y-124495238D02*
X154005476Y-124400000D01*
X154005476Y-124400000D02*
X154100714Y-124304762D01*
X154100714Y-124304762D02*
X154148333Y-124209524D01*
%TO.C,HONU1*%
D12*
X149758875Y-101536474D02*
X149764046Y-101539849D01*
X149787438Y-101564945D01*
X149776999Y-101577000D01*
X149771285Y-101574729D01*
X149747674Y-101547675D01*
X149741494Y-101533480D01*
X149758875Y-101536474D01*
G36*
X149758875Y-101536474D02*
G01*
X149764046Y-101539849D01*
X149787438Y-101564945D01*
X149776999Y-101577000D01*
X149771285Y-101574729D01*
X149747674Y-101547675D01*
X149741494Y-101533480D01*
X149758875Y-101536474D01*
G37*
X149788200Y-101383501D02*
X149787057Y-101387967D01*
X149762800Y-101411900D01*
X149753807Y-101416631D01*
X149737400Y-101414898D01*
X149738542Y-101410432D01*
X149762800Y-101386500D01*
X149771792Y-101381768D01*
X149788200Y-101383501D01*
G36*
X149788200Y-101383501D02*
G01*
X149787057Y-101387967D01*
X149762800Y-101411900D01*
X149753807Y-101416631D01*
X149737400Y-101414898D01*
X149738542Y-101410432D01*
X149762800Y-101386500D01*
X149771792Y-101381768D01*
X149788200Y-101383501D01*
G37*
X151581463Y-100588214D02*
X151601962Y-100591067D01*
X151790781Y-100660017D01*
X151964554Y-100760856D01*
X152071100Y-100835196D01*
X152154858Y-100893635D01*
X152342704Y-101044871D01*
X152361231Y-101062110D01*
X152512350Y-101202722D01*
X152540763Y-101231702D01*
X152613453Y-101310096D01*
X152657028Y-101367913D01*
X152678230Y-101415374D01*
X152683800Y-101462700D01*
X152683371Y-101477454D01*
X152673831Y-101523748D01*
X152646641Y-101573236D01*
X152595061Y-101636138D01*
X152512350Y-101722677D01*
X152416740Y-101814561D01*
X152215409Y-101984362D01*
X152002115Y-102137998D01*
X151795443Y-102261500D01*
X151748507Y-102285379D01*
X151651480Y-102325642D01*
X151554701Y-102348070D01*
X151432726Y-102359538D01*
X151265760Y-102360071D01*
X151026227Y-102323689D01*
X150803004Y-102241373D01*
X150798198Y-102239017D01*
X150707720Y-102185703D01*
X150635418Y-102118813D01*
X150562900Y-102021500D01*
X150520379Y-101957718D01*
X150554869Y-101957718D01*
X150568930Y-101993772D01*
X150609593Y-102057950D01*
X150627370Y-102083223D01*
X150707743Y-102163994D01*
X150819441Y-102226901D01*
X150882178Y-102253056D01*
X150953057Y-102278400D01*
X150995424Y-102288200D01*
X151018157Y-102277872D01*
X151028221Y-102231050D01*
X151019192Y-102121699D01*
X151009330Y-102033532D01*
X150996205Y-101975205D01*
X150984758Y-101952988D01*
X151027140Y-101952988D01*
X151045012Y-102130944D01*
X151052241Y-102197243D01*
X151066180Y-102265578D01*
X151092787Y-102307263D01*
X151141596Y-102328921D01*
X151222139Y-102337176D01*
X151343950Y-102338653D01*
X151415797Y-102338790D01*
X151472796Y-102333778D01*
X151503212Y-102314584D01*
X151511976Y-102272170D01*
X151504023Y-102197498D01*
X151484284Y-102081528D01*
X151483286Y-102075794D01*
X151459882Y-101981244D01*
X151454202Y-101970700D01*
X151492566Y-101970700D01*
X151549024Y-102333844D01*
X151648894Y-102298608D01*
X151698608Y-102279823D01*
X151830444Y-102217719D01*
X151975277Y-102131257D01*
X152144050Y-102014150D01*
X152184447Y-101984539D01*
X152258077Y-101929728D01*
X152308903Y-101890703D01*
X152327742Y-101874450D01*
X152321246Y-101867299D01*
X152285807Y-101835577D01*
X152229913Y-101788282D01*
X152132543Y-101707464D01*
X151996692Y-101845023D01*
X151860842Y-101982582D01*
X151921576Y-102065541D01*
X151937676Y-102088443D01*
X151955159Y-102119748D01*
X151944986Y-102118313D01*
X151944162Y-102117630D01*
X151911236Y-102080619D01*
X151861998Y-102014919D01*
X151806781Y-101934290D01*
X151800784Y-101925181D01*
X151750591Y-101851900D01*
X151711666Y-101800040D01*
X151692004Y-101780326D01*
X151679924Y-101787314D01*
X151640042Y-101821802D01*
X151585337Y-101875450D01*
X151492566Y-101970700D01*
X151454202Y-101970700D01*
X151420970Y-101909009D01*
X151353181Y-101833828D01*
X151246675Y-101729299D01*
X151136908Y-101841144D01*
X151027140Y-101952988D01*
X150984758Y-101952988D01*
X150975795Y-101935592D01*
X150944083Y-101903567D01*
X150897046Y-101868007D01*
X150791500Y-101790715D01*
X150712012Y-101842607D01*
X150705833Y-101846633D01*
X150638858Y-101889458D01*
X150585439Y-101922399D01*
X150564991Y-101936216D01*
X150554869Y-101957718D01*
X150520379Y-101957718D01*
X150461300Y-101869100D01*
X150461300Y-101469260D01*
X150474636Y-101469260D01*
X150476197Y-101601008D01*
X150480717Y-101719579D01*
X150488201Y-101812461D01*
X150498655Y-101867141D01*
X150523311Y-101931990D01*
X150644705Y-101860714D01*
X150766100Y-101789438D01*
X150766311Y-101779881D01*
X150804200Y-101779881D01*
X150910518Y-101856898D01*
X151016837Y-101933914D01*
X151126418Y-101826369D01*
X151236000Y-101718823D01*
X151261400Y-101718823D01*
X151375631Y-101830933D01*
X151489863Y-101943043D01*
X151591531Y-101843766D01*
X151693200Y-101744490D01*
X151693200Y-101472879D01*
X151718600Y-101472879D01*
X151718717Y-101536660D01*
X151720511Y-101646389D01*
X151726039Y-101722412D01*
X151737287Y-101776499D01*
X151756238Y-101820419D01*
X151784877Y-101865943D01*
X151851154Y-101963479D01*
X152117643Y-101700301D01*
X152150400Y-101700301D01*
X152243530Y-101777067D01*
X152336661Y-101853834D01*
X152404687Y-101805395D01*
X152436160Y-101779675D01*
X152500769Y-101716568D01*
X152565556Y-101643653D01*
X152574237Y-101632953D01*
X152633370Y-101547667D01*
X152657591Y-101474405D01*
X152645411Y-101402617D01*
X152595338Y-101321758D01*
X152505883Y-101221279D01*
X152470275Y-101184241D01*
X152406594Y-101121216D01*
X152361231Y-101091053D01*
X152321436Y-101091996D01*
X152274459Y-101122288D01*
X152207550Y-101180172D01*
X152188245Y-101198962D01*
X152168107Y-101231053D01*
X152156678Y-101278197D01*
X152151571Y-101352303D01*
X152150400Y-101465278D01*
X152150400Y-101700301D01*
X152117643Y-101700301D01*
X152125000Y-101693035D01*
X152125000Y-101231709D01*
X152026326Y-101135357D01*
X151927653Y-101039005D01*
X151823126Y-101108178D01*
X151718600Y-101177350D01*
X151718600Y-101472879D01*
X151693200Y-101472879D01*
X151693200Y-101176511D01*
X151484318Y-100987799D01*
X151372859Y-101097188D01*
X151261400Y-101206576D01*
X151261400Y-101718823D01*
X151236000Y-101718823D01*
X151236000Y-101206576D01*
X151123478Y-101096145D01*
X151010957Y-100985714D01*
X150907578Y-101067591D01*
X150804200Y-101149468D01*
X150804200Y-101779881D01*
X150766311Y-101779881D01*
X150773200Y-101468396D01*
X150773632Y-101448848D01*
X150776005Y-101322077D01*
X150775550Y-101235650D01*
X150770796Y-101180307D01*
X150760274Y-101146788D01*
X150742515Y-101125831D01*
X150716050Y-101108177D01*
X150653324Y-101069770D01*
X150584284Y-101028352D01*
X150543816Y-101008609D01*
X150522443Y-101008315D01*
X150510688Y-101025239D01*
X150499074Y-101057154D01*
X150497837Y-101060728D01*
X150487632Y-101120068D01*
X150480359Y-101216278D01*
X150476025Y-101336846D01*
X150474636Y-101469260D01*
X150461300Y-101469260D01*
X150461300Y-101056300D01*
X150522443Y-100964585D01*
X150525952Y-100959322D01*
X150556338Y-100959322D01*
X150559699Y-100983620D01*
X150585529Y-101003000D01*
X150590527Y-101005982D01*
X150646959Y-101041060D01*
X150714066Y-101084308D01*
X150791500Y-101135138D01*
X150795428Y-101137716D01*
X150898804Y-101046208D01*
X150913064Y-101033416D01*
X150971063Y-100972072D01*
X151001141Y-100911220D01*
X151002231Y-100904961D01*
X151033405Y-100904961D01*
X151039794Y-100950818D01*
X151073084Y-101013116D01*
X151141762Y-101089161D01*
X151246675Y-101192127D01*
X151250724Y-101196100D01*
X151354824Y-101088100D01*
X151361648Y-101080971D01*
X151424700Y-101004936D01*
X151444294Y-100964628D01*
X151488995Y-100964628D01*
X151596078Y-101064513D01*
X151703160Y-101164399D01*
X151821239Y-101086263D01*
X151864168Y-101055151D01*
X151887906Y-101034218D01*
X151948151Y-101034218D01*
X152042925Y-101125782D01*
X152132543Y-101212363D01*
X152137700Y-101217345D01*
X152235614Y-101131827D01*
X152333529Y-101046309D01*
X152214492Y-100962404D01*
X152162646Y-100927431D01*
X152103760Y-100892160D01*
X152071100Y-100878500D01*
X152067403Y-100879197D01*
X152036087Y-100904965D01*
X151997448Y-100956359D01*
X151948151Y-101034218D01*
X151887906Y-101034218D01*
X151927653Y-100999168D01*
X151939597Y-100988636D01*
X151992586Y-100926867D01*
X152000192Y-100915196D01*
X152028213Y-100865594D01*
X152028466Y-100835524D01*
X152002481Y-100806355D01*
X151998721Y-100803081D01*
X151944186Y-100766441D01*
X151865332Y-100724145D01*
X151775895Y-100682272D01*
X151689614Y-100646904D01*
X151620224Y-100624120D01*
X151581463Y-100620001D01*
X151561811Y-100644755D01*
X151538184Y-100709027D01*
X151517840Y-100798987D01*
X151488995Y-100964628D01*
X151444294Y-100964628D01*
X151461616Y-100928993D01*
X151484318Y-100831189D01*
X151485128Y-100827700D01*
X151498019Y-100758238D01*
X151515173Y-100679185D01*
X151528783Y-100630850D01*
X151531996Y-100621348D01*
X151529657Y-100602712D01*
X151504118Y-100592222D01*
X151446185Y-100587656D01*
X151346667Y-100586788D01*
X151326570Y-100586933D01*
X151229767Y-100590640D01*
X151153747Y-100598284D01*
X151113513Y-100608473D01*
X151086808Y-100645064D01*
X151060583Y-100718243D01*
X151041297Y-100810373D01*
X151033405Y-100904961D01*
X151002231Y-100904961D01*
X151010957Y-100854854D01*
X151015686Y-100827700D01*
X151020821Y-100785319D01*
X151033480Y-100707450D01*
X151045985Y-100657366D01*
X151052134Y-100635405D01*
X151038471Y-100624395D01*
X150988046Y-100635465D01*
X150822787Y-100695568D01*
X150696946Y-100772196D01*
X150609622Y-100867405D01*
X150577857Y-100916537D01*
X150556338Y-100959322D01*
X150525952Y-100959322D01*
X150562900Y-100903900D01*
X150566434Y-100898618D01*
X150638547Y-100803040D01*
X150711272Y-100737125D01*
X150803004Y-100684026D01*
X150956528Y-100622170D01*
X151038471Y-100603420D01*
X151174019Y-100572406D01*
X151346667Y-100564154D01*
X151392769Y-100561951D01*
X151581463Y-100588214D01*
G36*
X151581463Y-100588214D02*
G01*
X151601962Y-100591067D01*
X151790781Y-100660017D01*
X151964554Y-100760856D01*
X152071100Y-100835196D01*
X152154858Y-100893635D01*
X152342704Y-101044871D01*
X152361231Y-101062110D01*
X152512350Y-101202722D01*
X152540763Y-101231702D01*
X152613453Y-101310096D01*
X152657028Y-101367913D01*
X152678230Y-101415374D01*
X152683800Y-101462700D01*
X152683371Y-101477454D01*
X152673831Y-101523748D01*
X152646641Y-101573236D01*
X152595061Y-101636138D01*
X152512350Y-101722677D01*
X152416740Y-101814561D01*
X152215409Y-101984362D01*
X152002115Y-102137998D01*
X151795443Y-102261500D01*
X151748507Y-102285379D01*
X151651480Y-102325642D01*
X151554701Y-102348070D01*
X151432726Y-102359538D01*
X151265760Y-102360071D01*
X151026227Y-102323689D01*
X150803004Y-102241373D01*
X150798198Y-102239017D01*
X150707720Y-102185703D01*
X150635418Y-102118813D01*
X150562900Y-102021500D01*
X150520379Y-101957718D01*
X150554869Y-101957718D01*
X150568930Y-101993772D01*
X150609593Y-102057950D01*
X150627370Y-102083223D01*
X150707743Y-102163994D01*
X150819441Y-102226901D01*
X150882178Y-102253056D01*
X150953057Y-102278400D01*
X150995424Y-102288200D01*
X151018157Y-102277872D01*
X151028221Y-102231050D01*
X151019192Y-102121699D01*
X151009330Y-102033532D01*
X150996205Y-101975205D01*
X150984758Y-101952988D01*
X151027140Y-101952988D01*
X151045012Y-102130944D01*
X151052241Y-102197243D01*
X151066180Y-102265578D01*
X151092787Y-102307263D01*
X151141596Y-102328921D01*
X151222139Y-102337176D01*
X151343950Y-102338653D01*
X151415797Y-102338790D01*
X151472796Y-102333778D01*
X151503212Y-102314584D01*
X151511976Y-102272170D01*
X151504023Y-102197498D01*
X151484284Y-102081528D01*
X151483286Y-102075794D01*
X151459882Y-101981244D01*
X151454202Y-101970700D01*
X151492566Y-101970700D01*
X151549024Y-102333844D01*
X151648894Y-102298608D01*
X151698608Y-102279823D01*
X151830444Y-102217719D01*
X151975277Y-102131257D01*
X152144050Y-102014150D01*
X152184447Y-101984539D01*
X152258077Y-101929728D01*
X152308903Y-101890703D01*
X152327742Y-101874450D01*
X152321246Y-101867299D01*
X152285807Y-101835577D01*
X152229913Y-101788282D01*
X152132543Y-101707464D01*
X151996692Y-101845023D01*
X151860842Y-101982582D01*
X151921576Y-102065541D01*
X151937676Y-102088443D01*
X151955159Y-102119748D01*
X151944986Y-102118313D01*
X151944162Y-102117630D01*
X151911236Y-102080619D01*
X151861998Y-102014919D01*
X151806781Y-101934290D01*
X151800784Y-101925181D01*
X151750591Y-101851900D01*
X151711666Y-101800040D01*
X151692004Y-101780326D01*
X151679924Y-101787314D01*
X151640042Y-101821802D01*
X151585337Y-101875450D01*
X151492566Y-101970700D01*
X151454202Y-101970700D01*
X151420970Y-101909009D01*
X151353181Y-101833828D01*
X151246675Y-101729299D01*
X151136908Y-101841144D01*
X151027140Y-101952988D01*
X150984758Y-101952988D01*
X150975795Y-101935592D01*
X150944083Y-101903567D01*
X150897046Y-101868007D01*
X150791500Y-101790715D01*
X150712012Y-101842607D01*
X150705833Y-101846633D01*
X150638858Y-101889458D01*
X150585439Y-101922399D01*
X150564991Y-101936216D01*
X150554869Y-101957718D01*
X150520379Y-101957718D01*
X150461300Y-101869100D01*
X150461300Y-101469260D01*
X150474636Y-101469260D01*
X150476197Y-101601008D01*
X150480717Y-101719579D01*
X150488201Y-101812461D01*
X150498655Y-101867141D01*
X150523311Y-101931990D01*
X150644705Y-101860714D01*
X150766100Y-101789438D01*
X150766311Y-101779881D01*
X150804200Y-101779881D01*
X150910518Y-101856898D01*
X151016837Y-101933914D01*
X151126418Y-101826369D01*
X151236000Y-101718823D01*
X151261400Y-101718823D01*
X151375631Y-101830933D01*
X151489863Y-101943043D01*
X151591531Y-101843766D01*
X151693200Y-101744490D01*
X151693200Y-101472879D01*
X151718600Y-101472879D01*
X151718717Y-101536660D01*
X151720511Y-101646389D01*
X151726039Y-101722412D01*
X151737287Y-101776499D01*
X151756238Y-101820419D01*
X151784877Y-101865943D01*
X151851154Y-101963479D01*
X152117643Y-101700301D01*
X152150400Y-101700301D01*
X152243530Y-101777067D01*
X152336661Y-101853834D01*
X152404687Y-101805395D01*
X152436160Y-101779675D01*
X152500769Y-101716568D01*
X152565556Y-101643653D01*
X152574237Y-101632953D01*
X152633370Y-101547667D01*
X152657591Y-101474405D01*
X152645411Y-101402617D01*
X152595338Y-101321758D01*
X152505883Y-101221279D01*
X152470275Y-101184241D01*
X152406594Y-101121216D01*
X152361231Y-101091053D01*
X152321436Y-101091996D01*
X152274459Y-101122288D01*
X152207550Y-101180172D01*
X152188245Y-101198962D01*
X152168107Y-101231053D01*
X152156678Y-101278197D01*
X152151571Y-101352303D01*
X152150400Y-101465278D01*
X152150400Y-101700301D01*
X152117643Y-101700301D01*
X152125000Y-101693035D01*
X152125000Y-101231709D01*
X152026326Y-101135357D01*
X151927653Y-101039005D01*
X151823126Y-101108178D01*
X151718600Y-101177350D01*
X151718600Y-101472879D01*
X151693200Y-101472879D01*
X151693200Y-101176511D01*
X151484318Y-100987799D01*
X151372859Y-101097188D01*
X151261400Y-101206576D01*
X151261400Y-101718823D01*
X151236000Y-101718823D01*
X151236000Y-101206576D01*
X151123478Y-101096145D01*
X151010957Y-100985714D01*
X150907578Y-101067591D01*
X150804200Y-101149468D01*
X150804200Y-101779881D01*
X150766311Y-101779881D01*
X150773200Y-101468396D01*
X150773632Y-101448848D01*
X150776005Y-101322077D01*
X150775550Y-101235650D01*
X150770796Y-101180307D01*
X150760274Y-101146788D01*
X150742515Y-101125831D01*
X150716050Y-101108177D01*
X150653324Y-101069770D01*
X150584284Y-101028352D01*
X150543816Y-101008609D01*
X150522443Y-101008315D01*
X150510688Y-101025239D01*
X150499074Y-101057154D01*
X150497837Y-101060728D01*
X150487632Y-101120068D01*
X150480359Y-101216278D01*
X150476025Y-101336846D01*
X150474636Y-101469260D01*
X150461300Y-101469260D01*
X150461300Y-101056300D01*
X150522443Y-100964585D01*
X150525952Y-100959322D01*
X150556338Y-100959322D01*
X150559699Y-100983620D01*
X150585529Y-101003000D01*
X150590527Y-101005982D01*
X150646959Y-101041060D01*
X150714066Y-101084308D01*
X150791500Y-101135138D01*
X150795428Y-101137716D01*
X150898804Y-101046208D01*
X150913064Y-101033416D01*
X150971063Y-100972072D01*
X151001141Y-100911220D01*
X151002231Y-100904961D01*
X151033405Y-100904961D01*
X151039794Y-100950818D01*
X151073084Y-101013116D01*
X151141762Y-101089161D01*
X151246675Y-101192127D01*
X151250724Y-101196100D01*
X151354824Y-101088100D01*
X151361648Y-101080971D01*
X151424700Y-101004936D01*
X151444294Y-100964628D01*
X151488995Y-100964628D01*
X151596078Y-101064513D01*
X151703160Y-101164399D01*
X151821239Y-101086263D01*
X151864168Y-101055151D01*
X151887906Y-101034218D01*
X151948151Y-101034218D01*
X152042925Y-101125782D01*
X152132543Y-101212363D01*
X152137700Y-101217345D01*
X152235614Y-101131827D01*
X152333529Y-101046309D01*
X152214492Y-100962404D01*
X152162646Y-100927431D01*
X152103760Y-100892160D01*
X152071100Y-100878500D01*
X152067403Y-100879197D01*
X152036087Y-100904965D01*
X151997448Y-100956359D01*
X151948151Y-101034218D01*
X151887906Y-101034218D01*
X151927653Y-100999168D01*
X151939597Y-100988636D01*
X151992586Y-100926867D01*
X152000192Y-100915196D01*
X152028213Y-100865594D01*
X152028466Y-100835524D01*
X152002481Y-100806355D01*
X151998721Y-100803081D01*
X151944186Y-100766441D01*
X151865332Y-100724145D01*
X151775895Y-100682272D01*
X151689614Y-100646904D01*
X151620224Y-100624120D01*
X151581463Y-100620001D01*
X151561811Y-100644755D01*
X151538184Y-100709027D01*
X151517840Y-100798987D01*
X151488995Y-100964628D01*
X151444294Y-100964628D01*
X151461616Y-100928993D01*
X151484318Y-100831189D01*
X151485128Y-100827700D01*
X151498019Y-100758238D01*
X151515173Y-100679185D01*
X151528783Y-100630850D01*
X151531996Y-100621348D01*
X151529657Y-100602712D01*
X151504118Y-100592222D01*
X151446185Y-100587656D01*
X151346667Y-100586788D01*
X151326570Y-100586933D01*
X151229767Y-100590640D01*
X151153747Y-100598284D01*
X151113513Y-100608473D01*
X151086808Y-100645064D01*
X151060583Y-100718243D01*
X151041297Y-100810373D01*
X151033405Y-100904961D01*
X151002231Y-100904961D01*
X151010957Y-100854854D01*
X151015686Y-100827700D01*
X151020821Y-100785319D01*
X151033480Y-100707450D01*
X151045985Y-100657366D01*
X151052134Y-100635405D01*
X151038471Y-100624395D01*
X150988046Y-100635465D01*
X150822787Y-100695568D01*
X150696946Y-100772196D01*
X150609622Y-100867405D01*
X150577857Y-100916537D01*
X150556338Y-100959322D01*
X150525952Y-100959322D01*
X150562900Y-100903900D01*
X150566434Y-100898618D01*
X150638547Y-100803040D01*
X150711272Y-100737125D01*
X150803004Y-100684026D01*
X150956528Y-100622170D01*
X151038471Y-100603420D01*
X151174019Y-100572406D01*
X151346667Y-100564154D01*
X151392769Y-100561951D01*
X151581463Y-100588214D01*
G37*
X151278314Y-99265609D02*
X151330908Y-99288902D01*
X151371886Y-99345147D01*
X151388400Y-99416861D01*
X151372353Y-99478785D01*
X151323348Y-99575080D01*
X151243864Y-99700095D01*
X151136409Y-99849899D01*
X151003489Y-100020562D01*
X150855707Y-100204025D01*
X150982353Y-100322488D01*
X151046097Y-100385979D01*
X151091638Y-100438730D01*
X151109017Y-100469225D01*
X151109204Y-100470772D01*
X151138681Y-100485580D01*
X151218076Y-100494510D01*
X151346883Y-100497500D01*
X151366492Y-100497575D01*
X151422563Y-100497789D01*
X151507706Y-100501133D01*
X151576540Y-100511501D01*
X151644475Y-100532869D01*
X151726924Y-100569210D01*
X151839295Y-100624500D01*
X152093858Y-100751500D01*
X152217325Y-100576666D01*
X152224716Y-100566301D01*
X152300803Y-100467795D01*
X152382154Y-100373884D01*
X152452371Y-100303616D01*
X152517740Y-100253466D01*
X152620719Y-100209699D01*
X152712597Y-100210827D01*
X152729717Y-100211036D01*
X152855602Y-100256200D01*
X152886594Y-100270680D01*
X152949174Y-100296694D01*
X152985267Y-100307000D01*
X153027264Y-100316415D01*
X153100583Y-100345300D01*
X153184182Y-100385417D01*
X153260618Y-100428314D01*
X153312450Y-100465538D01*
X153354161Y-100526740D01*
X153371718Y-100610088D01*
X153358062Y-100690748D01*
X153313148Y-100750059D01*
X153248723Y-100774506D01*
X153148916Y-100787376D01*
X153029982Y-100787911D01*
X152907185Y-100776061D01*
X152795786Y-100751774D01*
X152749303Y-100737721D01*
X152691772Y-100720510D01*
X152667996Y-100713674D01*
X152667137Y-100715334D01*
X152660122Y-100747816D01*
X152649641Y-100808777D01*
X152645420Y-100828443D01*
X152611483Y-100913650D01*
X152561013Y-100992046D01*
X152487637Y-101079939D01*
X152636518Y-101252922D01*
X152666790Y-101288880D01*
X152727540Y-101366571D01*
X152769649Y-101428408D01*
X152785400Y-101463478D01*
X152780053Y-101479176D01*
X152747964Y-101530374D01*
X152693338Y-101602923D01*
X152623637Y-101686533D01*
X152461874Y-101872013D01*
X152520889Y-101984856D01*
X152537723Y-102020266D01*
X152568377Y-102106555D01*
X152581052Y-102177575D01*
X152581334Y-102193104D01*
X152587378Y-102236502D01*
X152612497Y-102247898D01*
X152671820Y-102237237D01*
X152678737Y-102235615D01*
X152748793Y-102212954D01*
X152797293Y-102187269D01*
X152800742Y-102184717D01*
X152853101Y-102165585D01*
X152936128Y-102151063D01*
X153033711Y-102142149D01*
X153129741Y-102139842D01*
X153208107Y-102145140D01*
X153252700Y-102159042D01*
X153259841Y-102166511D01*
X153287069Y-102219246D01*
X153306755Y-102292078D01*
X153308869Y-102305046D01*
X153312901Y-102369952D01*
X153294295Y-102418953D01*
X153244906Y-102476320D01*
X153192056Y-102523693D01*
X153067670Y-102607226D01*
X152921620Y-102680926D01*
X152772545Y-102735957D01*
X152639082Y-102763484D01*
X152484632Y-102777489D01*
X152346282Y-102646643D01*
X152242550Y-102532456D01*
X152134716Y-102355444D01*
X152067282Y-102207755D01*
X152095597Y-102207755D01*
X152105073Y-102241101D01*
X152149273Y-102340691D01*
X152214728Y-102451975D01*
X152290812Y-102557956D01*
X152366897Y-102641638D01*
X152394121Y-102666634D01*
X152452091Y-102715346D01*
X152499293Y-102738892D01*
X152555205Y-102744167D01*
X152639305Y-102738064D01*
X152739347Y-102720502D01*
X152898815Y-102666542D01*
X153058881Y-102586117D01*
X153201436Y-102487305D01*
X153230122Y-102462186D01*
X153277302Y-102401289D01*
X153289049Y-102332334D01*
X153270302Y-102237400D01*
X153262421Y-102213586D01*
X153245681Y-102191471D01*
X153212137Y-102179976D01*
X153150462Y-102175971D01*
X153049329Y-102176325D01*
X152983908Y-102178245D01*
X152859913Y-102191753D01*
X152784145Y-102217680D01*
X152719405Y-102248319D01*
X152639350Y-102271770D01*
X152629849Y-102273496D01*
X152579443Y-102278011D01*
X152560005Y-102257603D01*
X152556800Y-102199344D01*
X152554946Y-102172889D01*
X152535741Y-102086902D01*
X152502424Y-101999838D01*
X152448049Y-101887917D01*
X152267474Y-102027638D01*
X152259959Y-102033478D01*
X152167470Y-102111105D01*
X152111477Y-102170460D01*
X152095597Y-102207755D01*
X152067282Y-102207755D01*
X152061500Y-102195091D01*
X151820554Y-102311495D01*
X151769298Y-102336152D01*
X151673382Y-102380005D01*
X151598783Y-102407078D01*
X151528515Y-102421440D01*
X151445591Y-102427162D01*
X151333024Y-102428314D01*
X151086438Y-102428728D01*
X151010338Y-102542039D01*
X150934238Y-102655349D01*
X151078769Y-102813894D01*
X151102076Y-102839505D01*
X151247969Y-103002763D01*
X151359864Y-103135072D01*
X151439808Y-103240425D01*
X151489850Y-103322815D01*
X151512037Y-103386237D01*
X151508417Y-103434684D01*
X151481039Y-103472150D01*
X151431950Y-103502629D01*
X151425661Y-103505545D01*
X151371676Y-103521916D01*
X151315077Y-103519985D01*
X151250593Y-103496547D01*
X151172953Y-103448398D01*
X151076885Y-103372335D01*
X150957118Y-103265155D01*
X150808381Y-103123653D01*
X150733065Y-103049904D01*
X150612589Y-102927503D01*
X150520347Y-102827350D01*
X150459690Y-102753159D01*
X150433967Y-102708644D01*
X150432164Y-102700415D01*
X150434166Y-102621782D01*
X150457519Y-102621782D01*
X150459062Y-102707428D01*
X150469124Y-102728425D01*
X150514149Y-102788849D01*
X150590535Y-102875655D01*
X150694084Y-102984175D01*
X150820598Y-103109736D01*
X150936069Y-103220161D01*
X151060013Y-103332562D01*
X151159612Y-103413082D01*
X151240269Y-103465077D01*
X151307392Y-103491901D01*
X151366384Y-103496911D01*
X151422652Y-103483462D01*
X151460137Y-103463983D01*
X151486707Y-103430063D01*
X151488320Y-103382405D01*
X151463014Y-103317452D01*
X151408828Y-103231642D01*
X151323800Y-103121416D01*
X151205968Y-102983215D01*
X151053369Y-102813478D01*
X150908838Y-102655349D01*
X150983519Y-102544152D01*
X151011461Y-102501118D01*
X151045082Y-102443966D01*
X151058200Y-102413395D01*
X151057914Y-102411707D01*
X151031619Y-102393483D01*
X150975650Y-102376547D01*
X150930283Y-102363184D01*
X150844918Y-102329071D01*
X150755419Y-102285726D01*
X150690770Y-102252245D01*
X150635666Y-102226092D01*
X150612491Y-102218447D01*
X150609016Y-102224320D01*
X150588743Y-102263700D01*
X150557874Y-102326300D01*
X150539461Y-102365480D01*
X150485072Y-102504892D01*
X150457519Y-102621782D01*
X150434166Y-102621782D01*
X150434598Y-102604818D01*
X150470807Y-102472945D01*
X150540469Y-102306011D01*
X150597607Y-102184123D01*
X150499377Y-102026611D01*
X150498967Y-102025954D01*
X150447255Y-101937044D01*
X150405835Y-101855082D01*
X150401883Y-101844872D01*
X150410500Y-101844872D01*
X150513203Y-102009118D01*
X150514941Y-102011885D01*
X150578155Y-102101617D01*
X150612491Y-102141896D01*
X150645333Y-102180422D01*
X150702217Y-102231528D01*
X150817601Y-102293453D01*
X150985374Y-102351267D01*
X151172673Y-102388987D01*
X151363437Y-102402461D01*
X151392295Y-102402405D01*
X151484950Y-102400094D01*
X151557898Y-102391299D01*
X151627353Y-102371817D01*
X151709528Y-102337447D01*
X151820637Y-102283987D01*
X152074400Y-102139621D01*
X152353585Y-101929748D01*
X152448049Y-101835836D01*
X152599619Y-101685153D01*
X152639494Y-101638207D01*
X152701440Y-101559558D01*
X152744109Y-101497587D01*
X152760000Y-101462700D01*
X152744388Y-101423984D01*
X152697620Y-101357327D01*
X152626903Y-101272359D01*
X152539529Y-101177015D01*
X152442788Y-101079230D01*
X152343971Y-100986938D01*
X152250369Y-100908074D01*
X152213605Y-100880299D01*
X152090386Y-100796373D01*
X152030082Y-100759612D01*
X152125000Y-100759612D01*
X152128921Y-100767675D01*
X152162620Y-100804243D01*
X152223379Y-100859590D01*
X152302133Y-100925243D01*
X152479266Y-101067358D01*
X152544646Y-100981640D01*
X152553912Y-100968786D01*
X152598877Y-100885801D01*
X152624937Y-100804044D01*
X152627194Y-100791094D01*
X152642178Y-100731262D01*
X152657487Y-100701264D01*
X152671534Y-100699798D01*
X152724121Y-100708067D01*
X152797800Y-100727280D01*
X152802829Y-100728762D01*
X152902459Y-100749263D01*
X153017877Y-100760778D01*
X153132703Y-100762957D01*
X153230560Y-100755450D01*
X153295069Y-100737906D01*
X153302613Y-100733072D01*
X153334923Y-100682662D01*
X153345459Y-100609818D01*
X153333856Y-100534796D01*
X153299750Y-100477852D01*
X153255206Y-100447725D01*
X153183355Y-100409504D01*
X153102659Y-100372106D01*
X153030752Y-100343685D01*
X152985267Y-100332400D01*
X152973899Y-100330284D01*
X152923876Y-100312182D01*
X152855602Y-100281600D01*
X152844554Y-100276381D01*
X152712597Y-100235497D01*
X152594774Y-100242303D01*
X152487571Y-100296947D01*
X152440863Y-100340372D01*
X152378456Y-100409035D01*
X152309041Y-100492111D01*
X152240801Y-100579151D01*
X152181924Y-100659712D01*
X152140595Y-100723348D01*
X152125000Y-100759612D01*
X152030082Y-100759612D01*
X151952579Y-100712366D01*
X151823692Y-100642889D01*
X151800809Y-100631659D01*
X151696402Y-100582210D01*
X151617419Y-100551077D01*
X151547207Y-100533943D01*
X151469115Y-100526494D01*
X151366492Y-100524415D01*
X151213699Y-100532031D01*
X151020569Y-100564971D01*
X150844856Y-100620249D01*
X150702217Y-100693871D01*
X150700752Y-100694871D01*
X150643336Y-100747085D01*
X150576068Y-100826479D01*
X150513203Y-100916281D01*
X150410500Y-101080527D01*
X150410500Y-101844872D01*
X150401883Y-101844872D01*
X150383639Y-101797735D01*
X150380505Y-101785852D01*
X150358691Y-101744066D01*
X150324816Y-101744006D01*
X150221096Y-101785628D01*
X150133116Y-101811926D01*
X150065508Y-101817916D01*
X150005536Y-101806074D01*
X149999355Y-101803877D01*
X149934248Y-101769150D01*
X149895237Y-101741200D01*
X149973039Y-101741200D01*
X149976796Y-101767643D01*
X150030460Y-101790871D01*
X150080386Y-101796177D01*
X150133665Y-101785366D01*
X150140082Y-101781322D01*
X150154146Y-101753590D01*
X150132279Y-101727589D01*
X150086750Y-101711711D01*
X150029829Y-101714347D01*
X150019235Y-101717219D01*
X149973039Y-101741200D01*
X149895237Y-101741200D01*
X149856234Y-101713256D01*
X149776346Y-101646065D01*
X149705621Y-101577446D01*
X149655094Y-101517268D01*
X149635887Y-101475588D01*
X149661200Y-101475588D01*
X149678840Y-101514323D01*
X149726024Y-101572511D01*
X149792398Y-101637029D01*
X149805779Y-101648704D01*
X149871750Y-101703602D01*
X149914235Y-101729639D01*
X149945010Y-101731832D01*
X149975850Y-101715199D01*
X150021150Y-101689906D01*
X150086750Y-101684630D01*
X150091506Y-101684248D01*
X150155053Y-101727801D01*
X150161237Y-101734563D01*
X150192716Y-101760783D01*
X150227333Y-101760769D01*
X150285990Y-101735797D01*
X150372400Y-101694591D01*
X150372400Y-101256208D01*
X150285990Y-101215002D01*
X150274053Y-101209347D01*
X150220680Y-101188308D01*
X150187981Y-101192433D01*
X150155053Y-101222998D01*
X150107920Y-101259837D01*
X150044644Y-101267501D01*
X149989385Y-101227750D01*
X149978888Y-101213713D01*
X149968854Y-101196802D01*
X149991354Y-101215050D01*
X150020383Y-101234468D01*
X150086035Y-101243767D01*
X150142027Y-101210836D01*
X150147333Y-101203622D01*
X150149406Y-101172926D01*
X150115719Y-101156985D01*
X150057734Y-101158165D01*
X149986914Y-101178831D01*
X149958598Y-101192590D01*
X149881926Y-101241657D01*
X149802454Y-101304874D01*
X149731577Y-101371858D01*
X149680693Y-101432224D01*
X149661200Y-101475588D01*
X149635887Y-101475588D01*
X149635800Y-101475400D01*
X149636078Y-101471820D01*
X149659539Y-101427336D01*
X149712960Y-101365680D01*
X149785305Y-101296722D01*
X149865540Y-101230330D01*
X149942628Y-101176375D01*
X150005536Y-101144725D01*
X150057270Y-101133504D01*
X150115719Y-101136588D01*
X150123373Y-101136991D01*
X150208201Y-101160555D01*
X150324496Y-101206671D01*
X150338656Y-101210909D01*
X150364509Y-101197203D01*
X150382042Y-101141435D01*
X150382358Y-101139915D01*
X150404993Y-101075898D01*
X150447092Y-100988894D01*
X150499796Y-100897275D01*
X150507839Y-100884390D01*
X150555076Y-100806120D01*
X150588389Y-100746506D01*
X150601000Y-100717582D01*
X150589859Y-100686376D01*
X150561239Y-100625135D01*
X150522541Y-100548226D01*
X150481163Y-100469983D01*
X150444504Y-100404742D01*
X150419963Y-100366839D01*
X150410931Y-100349289D01*
X150394086Y-100289070D01*
X150380807Y-100209133D01*
X150365571Y-100080488D01*
X150365812Y-100080241D01*
X150390942Y-100080241D01*
X150405980Y-100207218D01*
X150412143Y-100246178D01*
X150436075Y-100335828D01*
X150466559Y-100403147D01*
X150482380Y-100428324D01*
X150526528Y-100505203D01*
X150570985Y-100589367D01*
X150629870Y-100706634D01*
X150761485Y-100636387D01*
X150817279Y-100608630D01*
X150906874Y-100570715D01*
X150977366Y-100548475D01*
X151012765Y-100539447D01*
X151064820Y-100510910D01*
X151073607Y-100468846D01*
X151038825Y-100409401D01*
X150960173Y-100328720D01*
X150827853Y-100207052D01*
X150976862Y-100022076D01*
X150991510Y-100003770D01*
X151079481Y-99890092D01*
X151169586Y-99768614D01*
X151244435Y-99662696D01*
X151313332Y-99550312D01*
X151355294Y-99447477D01*
X151358142Y-99369858D01*
X151322550Y-99314450D01*
X151319860Y-99312337D01*
X151275359Y-99300237D01*
X151212555Y-99318957D01*
X151128857Y-99370341D01*
X151021675Y-99456235D01*
X150888417Y-99578483D01*
X150726492Y-99738931D01*
X150390942Y-100080241D01*
X150365812Y-100080241D01*
X150692835Y-99745686D01*
X150695522Y-99742939D01*
X150865286Y-99574289D01*
X151009798Y-99441033D01*
X151127603Y-99344368D01*
X151217242Y-99285491D01*
X151275359Y-99266228D01*
X151277258Y-99265599D01*
X151278314Y-99265609D01*
G36*
X151278314Y-99265609D02*
G01*
X151330908Y-99288902D01*
X151371886Y-99345147D01*
X151388400Y-99416861D01*
X151372353Y-99478785D01*
X151323348Y-99575080D01*
X151243864Y-99700095D01*
X151136409Y-99849899D01*
X151003489Y-100020562D01*
X150855707Y-100204025D01*
X150982353Y-100322488D01*
X151046097Y-100385979D01*
X151091638Y-100438730D01*
X151109017Y-100469225D01*
X151109204Y-100470772D01*
X151138681Y-100485580D01*
X151218076Y-100494510D01*
X151346883Y-100497500D01*
X151366492Y-100497575D01*
X151422563Y-100497789D01*
X151507706Y-100501133D01*
X151576540Y-100511501D01*
X151644475Y-100532869D01*
X151726924Y-100569210D01*
X151839295Y-100624500D01*
X152093858Y-100751500D01*
X152217325Y-100576666D01*
X152224716Y-100566301D01*
X152300803Y-100467795D01*
X152382154Y-100373884D01*
X152452371Y-100303616D01*
X152517740Y-100253466D01*
X152620719Y-100209699D01*
X152712597Y-100210827D01*
X152729717Y-100211036D01*
X152855602Y-100256200D01*
X152886594Y-100270680D01*
X152949174Y-100296694D01*
X152985267Y-100307000D01*
X153027264Y-100316415D01*
X153100583Y-100345300D01*
X153184182Y-100385417D01*
X153260618Y-100428314D01*
X153312450Y-100465538D01*
X153354161Y-100526740D01*
X153371718Y-100610088D01*
X153358062Y-100690748D01*
X153313148Y-100750059D01*
X153248723Y-100774506D01*
X153148916Y-100787376D01*
X153029982Y-100787911D01*
X152907185Y-100776061D01*
X152795786Y-100751774D01*
X152749303Y-100737721D01*
X152691772Y-100720510D01*
X152667996Y-100713674D01*
X152667137Y-100715334D01*
X152660122Y-100747816D01*
X152649641Y-100808777D01*
X152645420Y-100828443D01*
X152611483Y-100913650D01*
X152561013Y-100992046D01*
X152487637Y-101079939D01*
X152636518Y-101252922D01*
X152666790Y-101288880D01*
X152727540Y-101366571D01*
X152769649Y-101428408D01*
X152785400Y-101463478D01*
X152780053Y-101479176D01*
X152747964Y-101530374D01*
X152693338Y-101602923D01*
X152623637Y-101686533D01*
X152461874Y-101872013D01*
X152520889Y-101984856D01*
X152537723Y-102020266D01*
X152568377Y-102106555D01*
X152581052Y-102177575D01*
X152581334Y-102193104D01*
X152587378Y-102236502D01*
X152612497Y-102247898D01*
X152671820Y-102237237D01*
X152678737Y-102235615D01*
X152748793Y-102212954D01*
X152797293Y-102187269D01*
X152800742Y-102184717D01*
X152853101Y-102165585D01*
X152936128Y-102151063D01*
X153033711Y-102142149D01*
X153129741Y-102139842D01*
X153208107Y-102145140D01*
X153252700Y-102159042D01*
X153259841Y-102166511D01*
X153287069Y-102219246D01*
X153306755Y-102292078D01*
X153308869Y-102305046D01*
X153312901Y-102369952D01*
X153294295Y-102418953D01*
X153244906Y-102476320D01*
X153192056Y-102523693D01*
X153067670Y-102607226D01*
X152921620Y-102680926D01*
X152772545Y-102735957D01*
X152639082Y-102763484D01*
X152484632Y-102777489D01*
X152346282Y-102646643D01*
X152242550Y-102532456D01*
X152134716Y-102355444D01*
X152067282Y-102207755D01*
X152095597Y-102207755D01*
X152105073Y-102241101D01*
X152149273Y-102340691D01*
X152214728Y-102451975D01*
X152290812Y-102557956D01*
X152366897Y-102641638D01*
X152394121Y-102666634D01*
X152452091Y-102715346D01*
X152499293Y-102738892D01*
X152555205Y-102744167D01*
X152639305Y-102738064D01*
X152739347Y-102720502D01*
X152898815Y-102666542D01*
X153058881Y-102586117D01*
X153201436Y-102487305D01*
X153230122Y-102462186D01*
X153277302Y-102401289D01*
X153289049Y-102332334D01*
X153270302Y-102237400D01*
X153262421Y-102213586D01*
X153245681Y-102191471D01*
X153212137Y-102179976D01*
X153150462Y-102175971D01*
X153049329Y-102176325D01*
X152983908Y-102178245D01*
X152859913Y-102191753D01*
X152784145Y-102217680D01*
X152719405Y-102248319D01*
X152639350Y-102271770D01*
X152629849Y-102273496D01*
X152579443Y-102278011D01*
X152560005Y-102257603D01*
X152556800Y-102199344D01*
X152554946Y-102172889D01*
X152535741Y-102086902D01*
X152502424Y-101999838D01*
X152448049Y-101887917D01*
X152267474Y-102027638D01*
X152259959Y-102033478D01*
X152167470Y-102111105D01*
X152111477Y-102170460D01*
X152095597Y-102207755D01*
X152067282Y-102207755D01*
X152061500Y-102195091D01*
X151820554Y-102311495D01*
X151769298Y-102336152D01*
X151673382Y-102380005D01*
X151598783Y-102407078D01*
X151528515Y-102421440D01*
X151445591Y-102427162D01*
X151333024Y-102428314D01*
X151086438Y-102428728D01*
X151010338Y-102542039D01*
X150934238Y-102655349D01*
X151078769Y-102813894D01*
X151102076Y-102839505D01*
X151247969Y-103002763D01*
X151359864Y-103135072D01*
X151439808Y-103240425D01*
X151489850Y-103322815D01*
X151512037Y-103386237D01*
X151508417Y-103434684D01*
X151481039Y-103472150D01*
X151431950Y-103502629D01*
X151425661Y-103505545D01*
X151371676Y-103521916D01*
X151315077Y-103519985D01*
X151250593Y-103496547D01*
X151172953Y-103448398D01*
X151076885Y-103372335D01*
X150957118Y-103265155D01*
X150808381Y-103123653D01*
X150733065Y-103049904D01*
X150612589Y-102927503D01*
X150520347Y-102827350D01*
X150459690Y-102753159D01*
X150433967Y-102708644D01*
X150432164Y-102700415D01*
X150434166Y-102621782D01*
X150457519Y-102621782D01*
X150459062Y-102707428D01*
X150469124Y-102728425D01*
X150514149Y-102788849D01*
X150590535Y-102875655D01*
X150694084Y-102984175D01*
X150820598Y-103109736D01*
X150936069Y-103220161D01*
X151060013Y-103332562D01*
X151159612Y-103413082D01*
X151240269Y-103465077D01*
X151307392Y-103491901D01*
X151366384Y-103496911D01*
X151422652Y-103483462D01*
X151460137Y-103463983D01*
X151486707Y-103430063D01*
X151488320Y-103382405D01*
X151463014Y-103317452D01*
X151408828Y-103231642D01*
X151323800Y-103121416D01*
X151205968Y-102983215D01*
X151053369Y-102813478D01*
X150908838Y-102655349D01*
X150983519Y-102544152D01*
X151011461Y-102501118D01*
X151045082Y-102443966D01*
X151058200Y-102413395D01*
X151057914Y-102411707D01*
X151031619Y-102393483D01*
X150975650Y-102376547D01*
X150930283Y-102363184D01*
X150844918Y-102329071D01*
X150755419Y-102285726D01*
X150690770Y-102252245D01*
X150635666Y-102226092D01*
X150612491Y-102218447D01*
X150609016Y-102224320D01*
X150588743Y-102263700D01*
X150557874Y-102326300D01*
X150539461Y-102365480D01*
X150485072Y-102504892D01*
X150457519Y-102621782D01*
X150434166Y-102621782D01*
X150434598Y-102604818D01*
X150470807Y-102472945D01*
X150540469Y-102306011D01*
X150597607Y-102184123D01*
X150499377Y-102026611D01*
X150498967Y-102025954D01*
X150447255Y-101937044D01*
X150405835Y-101855082D01*
X150401883Y-101844872D01*
X150410500Y-101844872D01*
X150513203Y-102009118D01*
X150514941Y-102011885D01*
X150578155Y-102101617D01*
X150612491Y-102141896D01*
X150645333Y-102180422D01*
X150702217Y-102231528D01*
X150817601Y-102293453D01*
X150985374Y-102351267D01*
X151172673Y-102388987D01*
X151363437Y-102402461D01*
X151392295Y-102402405D01*
X151484950Y-102400094D01*
X151557898Y-102391299D01*
X151627353Y-102371817D01*
X151709528Y-102337447D01*
X151820637Y-102283987D01*
X152074400Y-102139621D01*
X152353585Y-101929748D01*
X152448049Y-101835836D01*
X152599619Y-101685153D01*
X152639494Y-101638207D01*
X152701440Y-101559558D01*
X152744109Y-101497587D01*
X152760000Y-101462700D01*
X152744388Y-101423984D01*
X152697620Y-101357327D01*
X152626903Y-101272359D01*
X152539529Y-101177015D01*
X152442788Y-101079230D01*
X152343971Y-100986938D01*
X152250369Y-100908074D01*
X152213605Y-100880299D01*
X152090386Y-100796373D01*
X152030082Y-100759612D01*
X152125000Y-100759612D01*
X152128921Y-100767675D01*
X152162620Y-100804243D01*
X152223379Y-100859590D01*
X152302133Y-100925243D01*
X152479266Y-101067358D01*
X152544646Y-100981640D01*
X152553912Y-100968786D01*
X152598877Y-100885801D01*
X152624937Y-100804044D01*
X152627194Y-100791094D01*
X152642178Y-100731262D01*
X152657487Y-100701264D01*
X152671534Y-100699798D01*
X152724121Y-100708067D01*
X152797800Y-100727280D01*
X152802829Y-100728762D01*
X152902459Y-100749263D01*
X153017877Y-100760778D01*
X153132703Y-100762957D01*
X153230560Y-100755450D01*
X153295069Y-100737906D01*
X153302613Y-100733072D01*
X153334923Y-100682662D01*
X153345459Y-100609818D01*
X153333856Y-100534796D01*
X153299750Y-100477852D01*
X153255206Y-100447725D01*
X153183355Y-100409504D01*
X153102659Y-100372106D01*
X153030752Y-100343685D01*
X152985267Y-100332400D01*
X152973899Y-100330284D01*
X152923876Y-100312182D01*
X152855602Y-100281600D01*
X152844554Y-100276381D01*
X152712597Y-100235497D01*
X152594774Y-100242303D01*
X152487571Y-100296947D01*
X152440863Y-100340372D01*
X152378456Y-100409035D01*
X152309041Y-100492111D01*
X152240801Y-100579151D01*
X152181924Y-100659712D01*
X152140595Y-100723348D01*
X152125000Y-100759612D01*
X152030082Y-100759612D01*
X151952579Y-100712366D01*
X151823692Y-100642889D01*
X151800809Y-100631659D01*
X151696402Y-100582210D01*
X151617419Y-100551077D01*
X151547207Y-100533943D01*
X151469115Y-100526494D01*
X151366492Y-100524415D01*
X151213699Y-100532031D01*
X151020569Y-100564971D01*
X150844856Y-100620249D01*
X150702217Y-100693871D01*
X150700752Y-100694871D01*
X150643336Y-100747085D01*
X150576068Y-100826479D01*
X150513203Y-100916281D01*
X150410500Y-101080527D01*
X150410500Y-101844872D01*
X150401883Y-101844872D01*
X150383639Y-101797735D01*
X150380505Y-101785852D01*
X150358691Y-101744066D01*
X150324816Y-101744006D01*
X150221096Y-101785628D01*
X150133116Y-101811926D01*
X150065508Y-101817916D01*
X150005536Y-101806074D01*
X149999355Y-101803877D01*
X149934248Y-101769150D01*
X149895237Y-101741200D01*
X149973039Y-101741200D01*
X149976796Y-101767643D01*
X150030460Y-101790871D01*
X150080386Y-101796177D01*
X150133665Y-101785366D01*
X150140082Y-101781322D01*
X150154146Y-101753590D01*
X150132279Y-101727589D01*
X150086750Y-101711711D01*
X150029829Y-101714347D01*
X150019235Y-101717219D01*
X149973039Y-101741200D01*
X149895237Y-101741200D01*
X149856234Y-101713256D01*
X149776346Y-101646065D01*
X149705621Y-101577446D01*
X149655094Y-101517268D01*
X149635887Y-101475588D01*
X149661200Y-101475588D01*
X149678840Y-101514323D01*
X149726024Y-101572511D01*
X149792398Y-101637029D01*
X149805779Y-101648704D01*
X149871750Y-101703602D01*
X149914235Y-101729639D01*
X149945010Y-101731832D01*
X149975850Y-101715199D01*
X150021150Y-101689906D01*
X150086750Y-101684630D01*
X150091506Y-101684248D01*
X150155053Y-101727801D01*
X150161237Y-101734563D01*
X150192716Y-101760783D01*
X150227333Y-101760769D01*
X150285990Y-101735797D01*
X150372400Y-101694591D01*
X150372400Y-101256208D01*
X150285990Y-101215002D01*
X150274053Y-101209347D01*
X150220680Y-101188308D01*
X150187981Y-101192433D01*
X150155053Y-101222998D01*
X150107920Y-101259837D01*
X150044644Y-101267501D01*
X149989385Y-101227750D01*
X149978888Y-101213713D01*
X149968854Y-101196802D01*
X149991354Y-101215050D01*
X150020383Y-101234468D01*
X150086035Y-101243767D01*
X150142027Y-101210836D01*
X150147333Y-101203622D01*
X150149406Y-101172926D01*
X150115719Y-101156985D01*
X150057734Y-101158165D01*
X149986914Y-101178831D01*
X149958598Y-101192590D01*
X149881926Y-101241657D01*
X149802454Y-101304874D01*
X149731577Y-101371858D01*
X149680693Y-101432224D01*
X149661200Y-101475588D01*
X149635887Y-101475588D01*
X149635800Y-101475400D01*
X149636078Y-101471820D01*
X149659539Y-101427336D01*
X149712960Y-101365680D01*
X149785305Y-101296722D01*
X149865540Y-101230330D01*
X149942628Y-101176375D01*
X150005536Y-101144725D01*
X150057270Y-101133504D01*
X150115719Y-101136588D01*
X150123373Y-101136991D01*
X150208201Y-101160555D01*
X150324496Y-101206671D01*
X150338656Y-101210909D01*
X150364509Y-101197203D01*
X150382042Y-101141435D01*
X150382358Y-101139915D01*
X150404993Y-101075898D01*
X150447092Y-100988894D01*
X150499796Y-100897275D01*
X150507839Y-100884390D01*
X150555076Y-100806120D01*
X150588389Y-100746506D01*
X150601000Y-100717582D01*
X150589859Y-100686376D01*
X150561239Y-100625135D01*
X150522541Y-100548226D01*
X150481163Y-100469983D01*
X150444504Y-100404742D01*
X150419963Y-100366839D01*
X150410931Y-100349289D01*
X150394086Y-100289070D01*
X150380807Y-100209133D01*
X150365571Y-100080488D01*
X150365812Y-100080241D01*
X150390942Y-100080241D01*
X150405980Y-100207218D01*
X150412143Y-100246178D01*
X150436075Y-100335828D01*
X150466559Y-100403147D01*
X150482380Y-100428324D01*
X150526528Y-100505203D01*
X150570985Y-100589367D01*
X150629870Y-100706634D01*
X150761485Y-100636387D01*
X150817279Y-100608630D01*
X150906874Y-100570715D01*
X150977366Y-100548475D01*
X151012765Y-100539447D01*
X151064820Y-100510910D01*
X151073607Y-100468846D01*
X151038825Y-100409401D01*
X150960173Y-100328720D01*
X150827853Y-100207052D01*
X150976862Y-100022076D01*
X150991510Y-100003770D01*
X151079481Y-99890092D01*
X151169586Y-99768614D01*
X151244435Y-99662696D01*
X151313332Y-99550312D01*
X151355294Y-99447477D01*
X151358142Y-99369858D01*
X151322550Y-99314450D01*
X151319860Y-99312337D01*
X151275359Y-99300237D01*
X151212555Y-99318957D01*
X151128857Y-99370341D01*
X151021675Y-99456235D01*
X150888417Y-99578483D01*
X150726492Y-99738931D01*
X150390942Y-100080241D01*
X150365812Y-100080241D01*
X150692835Y-99745686D01*
X150695522Y-99742939D01*
X150865286Y-99574289D01*
X151009798Y-99441033D01*
X151127603Y-99344368D01*
X151217242Y-99285491D01*
X151275359Y-99266228D01*
X151277258Y-99265599D01*
X151278314Y-99265609D01*
G37*
%TD*%
D13*
X127370000Y-126395000D02*
X172920000Y-126395000D01*
X126195000Y-125271000D02*
X126195000Y-81531000D01*
X127370000Y-126394000D02*
X127318000Y-126394000D01*
X174132000Y-81148000D02*
X172979000Y-79995000D01*
X127737000Y-79994000D02*
X172977000Y-79994000D01*
X126197000Y-125273000D02*
X127317000Y-126393000D01*
X127734000Y-79995000D02*
X126195000Y-81534000D01*
X172928000Y-126397000D02*
X174128000Y-125197000D01*
X174128000Y-125198000D02*
X174128000Y-81148000D01*
M02*
