M48
; DRILL file {KiCad 7.0.2} date Sun Mar 23 10:17:28 2025
; FORMAT={-:-/ absolute / inch / decimal}
; #@! TF.CreationDate,2025-03-23T10:17:28-04:00
; #@! TF.GenerationSoftware,Kicad,Pcbnew,7.0.2
; #@! TF.FileFunction,Plated,1,2,PTH
FMAT,2
INCH
; #@! TA.AperFunction,Plated,PTH,ComponentDrill
T1C0.0354
; #@! TA.AperFunction,Plated,PTH,ComponentDrill
T2C0.0394
; #@! TA.AperFunction,Plated,PTH,ComponentDrill
T3C0.0400
; #@! TA.AperFunction,Plated,PTH,ComponentDrill
T4C0.0512
; #@! TA.AperFunction,Plated,PTH,ComponentDrill
T5C0.1260
%
G90
G05
T1
X5.1024Y-3.1929
X5.1024Y-3.3228
X5.2008Y-3.1929
X5.2008Y-3.3228
X5.2992Y-3.1929
X5.2992Y-3.3228
T2
X6.515Y-3.6793
X6.515Y-3.7884
X6.515Y-3.8974
X6.515Y-4.0065
X6.515Y-4.1156
X6.515Y-4.2246
X6.515Y-4.3337
X6.515Y-4.4427
X6.6268Y-3.7339
X6.6268Y-3.8429
X6.6268Y-3.952
X6.6268Y-4.061
X6.6268Y-4.1701
X6.6268Y-4.2791
X6.6268Y-4.3882
T3
X5.6339Y-3.3748
X5.6339Y-3.4748
X5.6339Y-3.5748
X5.6339Y-3.6748
X5.6339Y-3.7748
X5.6339Y-3.8748
X5.6339Y-3.9748
X5.6339Y-4.0748
X5.6339Y-4.1748
X5.6339Y-4.2748
X5.6339Y-4.3748
X5.6339Y-4.4748
X5.6339Y-4.5748
X5.6339Y-4.6748
X5.6339Y-4.7748
X6.2339Y-3.3748
X6.2339Y-3.4748
X6.2339Y-3.5748
X6.2339Y-3.6748
X6.2339Y-3.7748
X6.2339Y-3.8748
X6.2339Y-3.9748
X6.2339Y-4.0748
X6.2339Y-4.1748
X6.2339Y-4.2748
X6.2339Y-4.3748
X6.2339Y-4.4748
X6.2339Y-4.5748
X6.2339Y-4.6748
X6.2339Y-4.7748
T4
X5.4803Y-3.5709
X5.4803Y-3.7283
X5.4803Y-3.8858
X5.4803Y-4.1417
X5.4803Y-4.2992
X5.4803Y-4.4567
X5.4803Y-4.6142
T5
X6.5268Y-3.4055
X6.5268Y-4.7165
T0
M30
