G04 #@! TF.FileFunction,Copper,L2,Bot,Signal*
%FSLAX46Y46*%
G04 Gerber Fmt 4.6, Leading zero omitted, Abs format (unit mm)*
G04 Created by KiCad (PCBNEW 4.0.7) date 03/11/20 10:05:13*
%MOMM*%
%LPD*%
G01*
G04 APERTURE LIST*
%ADD10C,0.100000*%
%ADD11C,0.150000*%
%ADD12O,1.500000X0.900000*%
%ADD13R,1.500000X0.900000*%
%ADD14C,1.600000*%
%ADD15R,3.500000X2.500000*%
%ADD16O,1.750000X3.500000*%
%ADD17C,4.064000*%
%ADD18R,1.600000X1.600000*%
%ADD19C,1.400000*%
%ADD20O,1.400000X1.400000*%
%ADD21O,1.500000X1.900000*%
%ADD22R,1.200000X1.200000*%
%ADD23C,1.200000*%
%ADD24R,3.500000X3.500000*%
%ADD25O,2.500000X2.500000*%
%ADD26C,2.500000*%
%ADD27C,2.900000*%
%ADD28C,2.550000*%
%ADD29C,3.616000*%
%ADD30C,0.400000*%
%ADD31C,0.800000*%
%ADD32C,1.500000*%
%ADD33C,0.254000*%
G04 APERTURE END LIST*
D10*
D11*
X131026000Y-96098000D02*
X131026000Y-49570000D01*
X174088000Y-96056000D02*
X174088000Y-49528000D01*
X174089000Y-49537000D02*
X172910000Y-48358000D01*
X172895000Y-97257000D02*
X174069000Y-96083000D01*
X131048000Y-49542000D02*
X132222000Y-48368000D01*
X132196000Y-97261000D02*
X131017000Y-96082000D01*
X132188000Y-97260000D02*
X172878000Y-97260000D01*
X132213000Y-48369000D02*
X172903000Y-48369000D01*
D12*
X154760000Y-74559000D03*
X154760000Y-73289000D03*
D13*
X154760000Y-75829000D03*
D14*
X142913000Y-93990000D03*
X142913000Y-88990000D03*
D15*
X157474000Y-51999000D03*
D16*
X162474000Y-57005000D03*
X152474000Y-57005000D03*
X159974000Y-57005000D03*
X154974000Y-57005000D03*
D17*
X135674000Y-90259000D03*
D14*
X148031000Y-86157000D03*
X153031000Y-86157000D03*
D18*
X160553000Y-65684000D03*
D14*
X160553000Y-63184000D03*
D18*
X160599000Y-85580000D03*
D14*
X160599000Y-83080000D03*
D18*
X160515000Y-75476000D03*
D14*
X160515000Y-72976000D03*
D17*
X135565000Y-60797000D03*
D19*
X145035000Y-61413000D03*
D20*
X142495000Y-61413000D03*
D19*
X144990000Y-77610000D03*
D20*
X142450000Y-77610000D03*
D19*
X144981000Y-69431000D03*
D20*
X142441000Y-69431000D03*
D19*
X163086000Y-69124000D03*
D20*
X160546000Y-69124000D03*
D19*
X155989000Y-78204000D03*
D20*
X153449000Y-78204000D03*
D19*
X155989000Y-62250000D03*
D20*
X153449000Y-62250000D03*
D19*
X155976000Y-70307000D03*
D20*
X153436000Y-70307000D03*
D19*
X163106000Y-79058000D03*
D20*
X160566000Y-79058000D03*
D17*
X171049000Y-64569000D03*
X171069000Y-81344000D03*
D21*
X150515000Y-94737000D03*
X150515000Y-92197000D03*
X153055000Y-94737000D03*
X153055000Y-92197000D03*
X155595000Y-94737000D03*
X155595000Y-92197000D03*
X158135000Y-92197000D03*
X158135000Y-94737000D03*
D22*
X143801000Y-66100000D03*
D23*
X143801000Y-64600000D03*
D22*
X143825000Y-82418000D03*
D23*
X143825000Y-80918000D03*
D22*
X143805000Y-74402000D03*
D23*
X143805000Y-72902000D03*
D22*
X148666000Y-58560000D03*
D23*
X147166000Y-58560000D03*
D12*
X154747000Y-66457000D03*
X154747000Y-65187000D03*
D13*
X154747000Y-67727000D03*
D12*
X154760000Y-82494000D03*
X154760000Y-81224000D03*
D13*
X154760000Y-83764000D03*
D19*
X144894000Y-86144000D03*
D20*
X142354000Y-86144000D03*
D24*
X143828000Y-52959000D03*
X137828000Y-52959000D03*
X140828000Y-57659000D03*
D25*
X133352000Y-94899000D03*
D26*
X136332000Y-94899000D03*
X139292000Y-94899000D03*
D27*
X135565000Y-83226000D03*
X135565000Y-78146000D03*
X135565000Y-73066000D03*
X135565000Y-67986000D03*
D19*
X147789000Y-62716000D03*
X150339000Y-63616000D03*
X147789000Y-64491000D03*
X150339000Y-65391000D03*
X147789000Y-66291000D03*
X150339000Y-67166000D03*
X147789000Y-68066000D03*
X150339000Y-68941000D03*
X147789000Y-69841000D03*
X150339000Y-70741000D03*
X147789000Y-71616000D03*
X150339000Y-72516000D03*
X147789000Y-73391000D03*
X150339000Y-74291000D03*
X147789000Y-75191000D03*
X150339000Y-76041000D03*
X147789000Y-76966000D03*
X150339000Y-77841000D03*
X147789000Y-78741000D03*
X150339000Y-79616000D03*
X147789000Y-80516000D03*
X150339000Y-81391000D03*
X147789000Y-82291000D03*
X150339000Y-83166000D03*
D28*
X166300000Y-55992000D03*
D29*
X166300000Y-60992000D03*
X166300000Y-50992000D03*
X171525000Y-55967000D03*
D28*
X166486000Y-89530000D03*
D29*
X166486000Y-94530000D03*
X166486000Y-84530000D03*
X171711000Y-89505000D03*
D28*
X166376000Y-72771000D03*
D29*
X166376000Y-77771000D03*
X166376000Y-67771000D03*
X171601000Y-72746000D03*
D30*
X143801000Y-66100000D02*
X145393000Y-66100000D01*
X146528000Y-67235000D02*
X145399000Y-66106000D01*
X146528000Y-72682000D02*
X146528000Y-67235000D01*
X146528000Y-72682000D02*
X147237000Y-73391000D01*
X145393000Y-66100000D02*
X145399000Y-66106000D01*
X147789000Y-73391000D02*
X147237000Y-73391000D01*
X142913000Y-88990000D02*
X142913000Y-88491000D01*
X142913000Y-88491000D02*
X142354000Y-87932000D01*
X142354000Y-87932000D02*
X142354000Y-86144000D01*
D31*
X153121000Y-66457000D02*
X154747000Y-66457000D01*
X151910000Y-67668000D02*
X153121000Y-66457000D01*
X151910000Y-73119000D02*
X151910000Y-67668000D01*
X152065000Y-83166000D02*
X152722000Y-82509000D01*
X150339000Y-83166000D02*
X152065000Y-83166000D01*
X153031000Y-86157000D02*
X151304000Y-86157000D01*
X149144000Y-94737000D02*
X148323000Y-93916000D01*
X148323000Y-93916000D02*
X148323000Y-89138000D01*
X149144000Y-94737000D02*
X150515000Y-94737000D01*
X151304000Y-86157000D02*
X148323000Y-89138000D01*
X154777000Y-82509000D02*
X152722000Y-82509000D01*
X151910000Y-81697000D02*
X151910000Y-73119000D01*
X152722000Y-82509000D02*
X151910000Y-81697000D01*
X153350000Y-74559000D02*
X154760000Y-74559000D01*
X151910000Y-73119000D02*
X153350000Y-74559000D01*
D30*
X154747000Y-65187000D02*
X153295000Y-65187000D01*
X149799000Y-62179000D02*
X149093000Y-62885000D01*
X151079000Y-62179000D02*
X149799000Y-62179000D01*
X151892000Y-62992000D02*
X151079000Y-62179000D01*
X151892000Y-63784000D02*
X151892000Y-62992000D01*
X153295000Y-65187000D02*
X151892000Y-63784000D01*
X147789000Y-76966000D02*
X148510000Y-76966000D01*
X149093000Y-76383000D02*
X149093000Y-62885000D01*
X148510000Y-76966000D02*
X149093000Y-76383000D01*
X162474000Y-57005000D02*
X162474000Y-56352000D01*
X162474000Y-56352000D02*
X164932000Y-53894000D01*
X160894000Y-91978000D02*
X158135000Y-94737000D01*
X167536000Y-91978000D02*
X160894000Y-91978000D01*
X168990000Y-90524000D02*
X167536000Y-91978000D01*
X168990000Y-83381000D02*
X168990000Y-90524000D01*
X168255000Y-82646000D02*
X168990000Y-83381000D01*
X168255000Y-79837000D02*
X168255000Y-82646000D01*
X168941000Y-79151000D02*
X168255000Y-79837000D01*
X168941000Y-66401000D02*
X168941000Y-79151000D01*
X168311000Y-65771000D02*
X168941000Y-66401000D01*
X168311000Y-63032000D02*
X168311000Y-65771000D01*
X168951000Y-62392000D02*
X168311000Y-63032000D01*
X168951000Y-54397000D02*
X168951000Y-62392000D01*
X168448000Y-53894000D02*
X168951000Y-54397000D01*
X164932000Y-53894000D02*
X168448000Y-53894000D01*
X159974000Y-57005000D02*
X162474000Y-57005000D01*
X143825000Y-80918000D02*
X142350000Y-80918000D01*
X141724000Y-78336000D02*
X142450000Y-77610000D01*
X141724000Y-80292000D02*
X141724000Y-78336000D01*
X142350000Y-80918000D02*
X141724000Y-80292000D01*
X144894000Y-86144000D02*
X144767000Y-86144000D01*
X145512000Y-95266000D02*
X145512000Y-89185000D01*
X144894000Y-88567000D02*
X144894000Y-86144000D01*
X145512000Y-89185000D02*
X144894000Y-88567000D01*
X146395000Y-96149000D02*
X145512000Y-95266000D01*
X154282000Y-95670000D02*
X153803000Y-96149000D01*
X154282000Y-92846000D02*
X154282000Y-95670000D01*
X154282000Y-92846000D02*
X154931000Y-92197000D01*
X153803000Y-96149000D02*
X146395000Y-96149000D01*
X145512000Y-95266000D02*
X145512000Y-95266000D01*
X155595000Y-92197000D02*
X154931000Y-92197000D01*
X155100000Y-92197000D02*
X155595000Y-92197000D01*
X142441000Y-69431000D02*
X141572000Y-69431000D01*
X141084000Y-69919000D02*
X141084000Y-73137000D01*
X141572000Y-69431000D02*
X141084000Y-69919000D01*
X142441000Y-69431000D02*
X142441000Y-69630000D01*
X143751000Y-72848000D02*
X141373000Y-72848000D01*
X141373000Y-72848000D02*
X141084000Y-73137000D01*
X144810000Y-93533000D02*
X144810000Y-95676000D01*
X144810000Y-93533000D02*
X144810000Y-93065000D01*
X141691000Y-89946000D02*
X141691000Y-87284000D01*
X144810000Y-93065000D02*
X141691000Y-89946000D01*
X141084000Y-73137000D02*
X141084000Y-86677000D01*
X141084000Y-86677000D02*
X141691000Y-87284000D01*
X156850000Y-93005000D02*
X157658000Y-92197000D01*
X156850000Y-93005000D02*
X156850000Y-96357000D01*
X156850000Y-96357000D02*
X156443000Y-96764000D01*
X156443000Y-96764000D02*
X145898000Y-96764000D01*
X145898000Y-96764000D02*
X144810000Y-95676000D01*
X143751000Y-72848000D02*
X143805000Y-72902000D01*
X158135000Y-92197000D02*
X157658000Y-92197000D01*
D32*
X135006000Y-49677000D02*
X142412000Y-49677000D01*
X132283000Y-64668000D02*
X132283000Y-52400000D01*
X132283000Y-52400000D02*
X135006000Y-49677000D01*
X135565000Y-67950000D02*
X132283000Y-64668000D01*
X143828000Y-51093000D02*
X143828000Y-52959000D01*
X142412000Y-49677000D02*
X143828000Y-51093000D01*
X135565000Y-67986000D02*
X135565000Y-67950000D01*
D33*
G36*
X151563860Y-49002492D02*
X151407179Y-49379821D01*
X151406822Y-49788387D01*
X151562844Y-50165989D01*
X151851492Y-50455140D01*
X152228821Y-50611821D01*
X152637387Y-50612178D01*
X153014989Y-50456156D01*
X153304140Y-50167508D01*
X153460821Y-49790179D01*
X153461178Y-49381613D01*
X153305156Y-49004011D01*
X153172376Y-48871000D01*
X161715511Y-48871000D01*
X161623860Y-48962492D01*
X161467179Y-49339821D01*
X161466822Y-49748387D01*
X161622844Y-50125989D01*
X161911492Y-50415140D01*
X162288821Y-50571821D01*
X162697387Y-50572178D01*
X163074989Y-50416156D01*
X163364140Y-50127508D01*
X163520821Y-49750179D01*
X163521178Y-49341613D01*
X163365156Y-48964011D01*
X163272307Y-48871000D01*
X165561849Y-48871000D01*
X165065390Y-49076640D01*
X164856569Y-49368964D01*
X166300000Y-50812395D01*
X167743431Y-49368964D01*
X167534610Y-49076640D01*
X167014032Y-48871000D01*
X172713064Y-48871000D01*
X173586000Y-49743935D01*
X173586000Y-55083996D01*
X173440360Y-54732390D01*
X173148036Y-54523569D01*
X171704605Y-55967000D01*
X173148036Y-57410431D01*
X173440360Y-57201610D01*
X173586000Y-56832922D01*
X173586000Y-71679516D01*
X173516360Y-71511390D01*
X173224036Y-71302569D01*
X171780605Y-72746000D01*
X173224036Y-74189431D01*
X173516360Y-73980610D01*
X173586000Y-73804316D01*
X173586000Y-88241559D01*
X173334036Y-88061569D01*
X171890605Y-89505000D01*
X173334036Y-90948431D01*
X173586000Y-90768441D01*
X173586000Y-95856065D01*
X172684064Y-96758000D01*
X166928858Y-96758000D01*
X166967363Y-96757365D01*
X167720610Y-96445360D01*
X167929431Y-96153036D01*
X166486000Y-94709605D01*
X165042569Y-96153036D01*
X165251390Y-96445360D01*
X166042839Y-96758000D01*
X157321657Y-96758000D01*
X157429273Y-96596942D01*
X157477000Y-96357000D01*
X157477000Y-95912682D01*
X157684582Y-96051383D01*
X158135000Y-96140977D01*
X158585418Y-96051383D01*
X158967265Y-95796242D01*
X159222406Y-95414395D01*
X159312000Y-94963977D01*
X159312000Y-94510023D01*
X159301496Y-94457216D01*
X159636366Y-94122346D01*
X164243974Y-94122346D01*
X164258635Y-95011363D01*
X164570640Y-95764610D01*
X164862964Y-95973431D01*
X166306395Y-94530000D01*
X166665605Y-94530000D01*
X168109036Y-95973431D01*
X168401360Y-95764610D01*
X168728026Y-94937654D01*
X168713365Y-94048637D01*
X168401360Y-93295390D01*
X168109036Y-93086569D01*
X166665605Y-94530000D01*
X166306395Y-94530000D01*
X164862964Y-93086569D01*
X164570640Y-93295390D01*
X164243974Y-94122346D01*
X159636366Y-94122346D01*
X161153712Y-92605000D01*
X165274663Y-92605000D01*
X165251390Y-92614640D01*
X165042569Y-92906964D01*
X166486000Y-94350395D01*
X167929431Y-92906964D01*
X167720610Y-92614640D01*
X167642552Y-92583805D01*
X167775943Y-92557272D01*
X167979356Y-92421356D01*
X169272676Y-91128036D01*
X170267569Y-91128036D01*
X170476390Y-91420360D01*
X171303346Y-91747026D01*
X172192363Y-91732365D01*
X172945610Y-91420360D01*
X173154431Y-91128036D01*
X171711000Y-89684605D01*
X170267569Y-91128036D01*
X169272676Y-91128036D01*
X169433356Y-90967356D01*
X169569273Y-90763941D01*
X169617000Y-90524000D01*
X169617000Y-90308335D01*
X169795640Y-90739610D01*
X170087964Y-90948431D01*
X171531395Y-89505000D01*
X170087964Y-88061569D01*
X169795640Y-88270390D01*
X169617000Y-88722618D01*
X169617000Y-87881964D01*
X170267569Y-87881964D01*
X171711000Y-89325395D01*
X173154431Y-87881964D01*
X172945610Y-87589640D01*
X172118654Y-87262974D01*
X171229637Y-87277635D01*
X170476390Y-87589640D01*
X170267569Y-87881964D01*
X169617000Y-87881964D01*
X169617000Y-83381000D01*
X169614281Y-83367329D01*
X169674270Y-83427423D01*
X170577729Y-83802573D01*
X171555980Y-83803426D01*
X172460092Y-83429855D01*
X173152423Y-82738730D01*
X173527573Y-81835271D01*
X173528426Y-80857020D01*
X173154855Y-79952908D01*
X172463730Y-79260577D01*
X171560271Y-78885427D01*
X170582020Y-78884574D01*
X169677908Y-79258145D01*
X169470982Y-79464711D01*
X169520273Y-79390941D01*
X169568000Y-79151000D01*
X169568000Y-74369036D01*
X170157569Y-74369036D01*
X170366390Y-74661360D01*
X171193346Y-74988026D01*
X172082363Y-74973365D01*
X172835610Y-74661360D01*
X173044431Y-74369036D01*
X171601000Y-72925605D01*
X170157569Y-74369036D01*
X169568000Y-74369036D01*
X169568000Y-73696602D01*
X169685640Y-73980610D01*
X169977964Y-74189431D01*
X171421395Y-72746000D01*
X169977964Y-71302569D01*
X169685640Y-71511390D01*
X169568000Y-71809196D01*
X169568000Y-71122964D01*
X170157569Y-71122964D01*
X171601000Y-72566395D01*
X173044431Y-71122964D01*
X172835610Y-70830640D01*
X172008654Y-70503974D01*
X171119637Y-70518635D01*
X170366390Y-70830640D01*
X170157569Y-71122964D01*
X169568000Y-71122964D01*
X169568000Y-66566002D01*
X169654270Y-66652423D01*
X170557729Y-67027573D01*
X171535980Y-67028426D01*
X172440092Y-66654855D01*
X173132423Y-65963730D01*
X173507573Y-65060271D01*
X173508426Y-64082020D01*
X173134855Y-63177908D01*
X172443730Y-62485577D01*
X171540271Y-62110427D01*
X170562020Y-62109574D01*
X169657908Y-62483145D01*
X169535580Y-62605259D01*
X169578000Y-62392000D01*
X169578000Y-57590036D01*
X170081569Y-57590036D01*
X170290390Y-57882360D01*
X171117346Y-58209026D01*
X172006363Y-58194365D01*
X172759610Y-57882360D01*
X172968431Y-57590036D01*
X171525000Y-56146605D01*
X170081569Y-57590036D01*
X169578000Y-57590036D01*
X169578000Y-57125224D01*
X169609640Y-57201610D01*
X169901964Y-57410431D01*
X171345395Y-55967000D01*
X169901964Y-54523569D01*
X169609640Y-54732390D01*
X169578000Y-54812487D01*
X169578000Y-54397000D01*
X169567451Y-54343964D01*
X170081569Y-54343964D01*
X171525000Y-55787395D01*
X172968431Y-54343964D01*
X172759610Y-54051640D01*
X171932654Y-53724974D01*
X171043637Y-53739635D01*
X170290390Y-54051640D01*
X170081569Y-54343964D01*
X169567451Y-54343964D01*
X169530272Y-54157057D01*
X169394356Y-53953644D01*
X168891356Y-53450644D01*
X168829657Y-53409418D01*
X168687943Y-53314728D01*
X168448000Y-53267000D01*
X164932000Y-53267000D01*
X164692058Y-53314727D01*
X164488644Y-53450644D01*
X163021754Y-54917534D01*
X162972254Y-54884459D01*
X162474000Y-54785350D01*
X161975746Y-54884459D01*
X161553347Y-55166697D01*
X161271109Y-55589096D01*
X161224000Y-55825929D01*
X161176891Y-55589096D01*
X160894653Y-55166697D01*
X160472254Y-54884459D01*
X159974000Y-54785350D01*
X159475746Y-54884459D01*
X159053347Y-55166697D01*
X158771109Y-55589096D01*
X158672000Y-56087350D01*
X158672000Y-57922650D01*
X158771109Y-58420904D01*
X159053347Y-58843303D01*
X159475746Y-59125541D01*
X159974000Y-59224650D01*
X160472254Y-59125541D01*
X160894653Y-58843303D01*
X161176891Y-58420904D01*
X161224000Y-58184071D01*
X161271109Y-58420904D01*
X161553347Y-58843303D01*
X161975746Y-59125541D01*
X162474000Y-59224650D01*
X162972254Y-59125541D01*
X163394653Y-58843303D01*
X163676891Y-58420904D01*
X163776000Y-57922650D01*
X163776000Y-56087350D01*
X163751008Y-55961704D01*
X165191712Y-54521000D01*
X165403160Y-54521000D01*
X165337154Y-54548273D01*
X164857956Y-55026636D01*
X164598296Y-55651966D01*
X164597705Y-56329063D01*
X164856273Y-56954846D01*
X165334636Y-57434044D01*
X165959966Y-57693704D01*
X166637063Y-57694295D01*
X167262846Y-57435727D01*
X167742044Y-56957364D01*
X168001704Y-56332034D01*
X168002295Y-55654937D01*
X167743727Y-55029154D01*
X167265364Y-54549956D01*
X167195630Y-54521000D01*
X168188288Y-54521000D01*
X168324000Y-54656712D01*
X168324000Y-60019670D01*
X168215360Y-59757390D01*
X167923036Y-59548569D01*
X166479605Y-60992000D01*
X166493748Y-61006143D01*
X166314143Y-61185748D01*
X166300000Y-61171605D01*
X164856569Y-62615036D01*
X165065390Y-62907360D01*
X165892346Y-63234026D01*
X166781363Y-63219365D01*
X167534610Y-62907360D01*
X167743430Y-62615038D01*
X167807319Y-62678927D01*
X167731728Y-62792057D01*
X167684000Y-63032000D01*
X167684000Y-65771000D01*
X167731728Y-66010943D01*
X167821738Y-66145654D01*
X167819430Y-66147962D01*
X167610610Y-65855640D01*
X166783654Y-65528974D01*
X165894637Y-65543635D01*
X165141390Y-65855640D01*
X164932569Y-66147964D01*
X166376000Y-67591395D01*
X166390143Y-67577253D01*
X166569748Y-67756858D01*
X166555605Y-67771000D01*
X167999036Y-69214431D01*
X168291360Y-69005610D01*
X168314000Y-68948297D01*
X168314000Y-76591048D01*
X168291360Y-76536390D01*
X167999036Y-76327569D01*
X166555605Y-77771000D01*
X166569748Y-77785143D01*
X166390143Y-77964748D01*
X166376000Y-77950605D01*
X164932569Y-79394036D01*
X165141390Y-79686360D01*
X165968346Y-80013026D01*
X166857363Y-79998365D01*
X167610610Y-79686360D01*
X167694898Y-79568368D01*
X167675728Y-79597057D01*
X167628000Y-79837000D01*
X167628000Y-82578057D01*
X166893654Y-82287974D01*
X166004637Y-82302635D01*
X165251390Y-82614640D01*
X165042569Y-82906964D01*
X166486000Y-84350395D01*
X166500143Y-84336253D01*
X166679748Y-84515858D01*
X166665605Y-84530000D01*
X168109036Y-85973431D01*
X168363000Y-85792012D01*
X168363000Y-90264288D01*
X167276288Y-91351000D01*
X160894000Y-91351000D01*
X160654057Y-91398728D01*
X160450644Y-91534644D01*
X159250095Y-92735193D01*
X159312000Y-92423977D01*
X159312000Y-91970023D01*
X159222406Y-91519605D01*
X158967265Y-91137758D01*
X158585418Y-90882617D01*
X158135000Y-90793023D01*
X157684582Y-90882617D01*
X157302735Y-91137758D01*
X157047594Y-91519605D01*
X156958000Y-91970023D01*
X156958000Y-92010288D01*
X156772000Y-92196288D01*
X156772000Y-91970023D01*
X156682406Y-91519605D01*
X156427265Y-91137758D01*
X156045418Y-90882617D01*
X155595000Y-90793023D01*
X155144582Y-90882617D01*
X154762735Y-91137758D01*
X154507594Y-91519605D01*
X154454435Y-91786853D01*
X154232000Y-92009288D01*
X154232000Y-91970023D01*
X154142406Y-91519605D01*
X153887265Y-91137758D01*
X153505418Y-90882617D01*
X153055000Y-90793023D01*
X152604582Y-90882617D01*
X152222735Y-91137758D01*
X151967594Y-91519605D01*
X151878000Y-91970023D01*
X151878000Y-92423977D01*
X151967594Y-92874395D01*
X152222735Y-93256242D01*
X152538158Y-93467000D01*
X152222735Y-93677758D01*
X151967594Y-94059605D01*
X151878000Y-94510023D01*
X151878000Y-94963977D01*
X151967594Y-95414395D01*
X152039493Y-95522000D01*
X151530507Y-95522000D01*
X151602406Y-95414395D01*
X151692000Y-94963977D01*
X151692000Y-94510023D01*
X151602406Y-94059605D01*
X151347265Y-93677758D01*
X151006702Y-93450202D01*
X151268189Y-93309480D01*
X151560047Y-92951789D01*
X151692806Y-92509636D01*
X151589175Y-92324000D01*
X150642000Y-92324000D01*
X150642000Y-92344000D01*
X150388000Y-92344000D01*
X150388000Y-92324000D01*
X149440825Y-92324000D01*
X149337194Y-92509636D01*
X149469953Y-92951789D01*
X149761811Y-93309480D01*
X150023298Y-93450202D01*
X149682735Y-93677758D01*
X149527556Y-93910000D01*
X149486555Y-93910000D01*
X149150000Y-93573446D01*
X149150000Y-91884364D01*
X149337194Y-91884364D01*
X149440825Y-92070000D01*
X150388000Y-92070000D01*
X150388000Y-90934312D01*
X150642000Y-90934312D01*
X150642000Y-92070000D01*
X151589175Y-92070000D01*
X151692806Y-91884364D01*
X151560047Y-91442211D01*
X151268189Y-91084520D01*
X150861665Y-90865745D01*
X150823485Y-90861145D01*
X150642000Y-90934312D01*
X150388000Y-90934312D01*
X150206515Y-90861145D01*
X150168335Y-90865745D01*
X149761811Y-91084520D01*
X149469953Y-91442211D01*
X149337194Y-91884364D01*
X149150000Y-91884364D01*
X149150000Y-89867063D01*
X164783705Y-89867063D01*
X165042273Y-90492846D01*
X165520636Y-90972044D01*
X166145966Y-91231704D01*
X166823063Y-91232295D01*
X167448846Y-90973727D01*
X167928044Y-90495364D01*
X168187704Y-89870034D01*
X168188295Y-89192937D01*
X167929727Y-88567154D01*
X167451364Y-88087956D01*
X166826034Y-87828296D01*
X166148937Y-87827705D01*
X165523154Y-88086273D01*
X165043956Y-88564636D01*
X164784296Y-89189966D01*
X164783705Y-89867063D01*
X149150000Y-89867063D01*
X149150000Y-89480554D01*
X151646555Y-86984000D01*
X152122831Y-86984000D01*
X152335053Y-87196593D01*
X152785864Y-87383786D01*
X153273995Y-87384212D01*
X153725131Y-87197806D01*
X154070593Y-86852947D01*
X154257786Y-86402136D01*
X154258212Y-85914005D01*
X154071806Y-85462869D01*
X153726947Y-85117407D01*
X153276136Y-84930214D01*
X152788005Y-84929788D01*
X152336869Y-85116194D01*
X152122689Y-85330000D01*
X151304000Y-85330000D01*
X150987521Y-85392952D01*
X150719223Y-85572222D01*
X147738223Y-88553223D01*
X147558952Y-88821521D01*
X147496000Y-89138000D01*
X147496000Y-93916000D01*
X147558952Y-94232479D01*
X147738223Y-94500777D01*
X148559222Y-95321777D01*
X148827521Y-95501048D01*
X148932853Y-95522000D01*
X146654712Y-95522000D01*
X146139000Y-95006288D01*
X146139000Y-89185000D01*
X146091272Y-88945057D01*
X145955356Y-88741644D01*
X145521000Y-88307288D01*
X145521000Y-87104344D01*
X145531560Y-87099981D01*
X145580688Y-87050938D01*
X147316667Y-87050938D01*
X147402202Y-87238531D01*
X147863951Y-87396835D01*
X148351131Y-87366385D01*
X148659798Y-87238531D01*
X148745333Y-87050938D01*
X148031000Y-86336605D01*
X147316667Y-87050938D01*
X145580688Y-87050938D01*
X145848867Y-86783228D01*
X146020804Y-86369158D01*
X146021134Y-85989951D01*
X146791165Y-85989951D01*
X146821615Y-86477131D01*
X146949469Y-86785798D01*
X147137062Y-86871333D01*
X147851395Y-86157000D01*
X148210605Y-86157000D01*
X148924938Y-86871333D01*
X149112531Y-86785798D01*
X149270835Y-86324049D01*
X149240385Y-85836869D01*
X149112531Y-85528202D01*
X148924938Y-85442667D01*
X148210605Y-86157000D01*
X147851395Y-86157000D01*
X147137062Y-85442667D01*
X146949469Y-85528202D01*
X146791165Y-85989951D01*
X146021134Y-85989951D01*
X146021195Y-85920809D01*
X145849981Y-85506440D01*
X145607028Y-85263062D01*
X147316667Y-85263062D01*
X148031000Y-85977395D01*
X148745333Y-85263062D01*
X148659798Y-85075469D01*
X148198049Y-84917165D01*
X147710869Y-84947615D01*
X147402202Y-85075469D01*
X147316667Y-85263062D01*
X145607028Y-85263062D01*
X145533228Y-85189133D01*
X145119158Y-85017196D01*
X144670809Y-85016805D01*
X144256440Y-85188019D01*
X143939133Y-85504772D01*
X143767196Y-85918842D01*
X143766805Y-86367191D01*
X143938019Y-86781560D01*
X144254772Y-87098867D01*
X144267000Y-87103945D01*
X144267000Y-88567000D01*
X144314728Y-88806943D01*
X144437043Y-88990000D01*
X144450644Y-89010356D01*
X144885000Y-89444712D01*
X144885000Y-92253288D01*
X142848656Y-90216944D01*
X143155995Y-90217212D01*
X143607131Y-90030806D01*
X143952593Y-89685947D01*
X144139786Y-89235136D01*
X144140212Y-88747005D01*
X143953806Y-88295869D01*
X143608947Y-87950407D01*
X143158136Y-87763214D01*
X143071851Y-87763139D01*
X142981000Y-87672288D01*
X142981000Y-87069191D01*
X143172988Y-86940909D01*
X143417291Y-86575284D01*
X143503079Y-86144000D01*
X143417291Y-85712716D01*
X143172988Y-85347091D01*
X142807363Y-85102788D01*
X142376079Y-85017000D01*
X142331921Y-85017000D01*
X141900637Y-85102788D01*
X141711000Y-85229499D01*
X141711000Y-84780000D01*
X159363635Y-84780000D01*
X159363635Y-86380000D01*
X159393409Y-86538237D01*
X159486927Y-86683567D01*
X159629619Y-86781064D01*
X159799000Y-86815365D01*
X161399000Y-86815365D01*
X161557237Y-86785591D01*
X161702567Y-86692073D01*
X161800064Y-86549381D01*
X161834365Y-86380000D01*
X161834365Y-86153036D01*
X165042569Y-86153036D01*
X165251390Y-86445360D01*
X166078346Y-86772026D01*
X166967363Y-86757365D01*
X167720610Y-86445360D01*
X167929431Y-86153036D01*
X166486000Y-84709605D01*
X165042569Y-86153036D01*
X161834365Y-86153036D01*
X161834365Y-84780000D01*
X161804591Y-84621763D01*
X161711073Y-84476433D01*
X161568381Y-84378936D01*
X161399000Y-84344635D01*
X159799000Y-84344635D01*
X159640763Y-84374409D01*
X159495433Y-84467927D01*
X159397936Y-84610619D01*
X159363635Y-84780000D01*
X141711000Y-84780000D01*
X141711000Y-81165712D01*
X141906644Y-81361356D01*
X142110058Y-81497273D01*
X142350000Y-81545000D01*
X142894736Y-81545000D01*
X142823936Y-81648619D01*
X142789635Y-81818000D01*
X142789635Y-83018000D01*
X142819409Y-83176237D01*
X142912927Y-83321567D01*
X143055619Y-83419064D01*
X143225000Y-83453365D01*
X144425000Y-83453365D01*
X144583237Y-83423591D01*
X144728567Y-83330073D01*
X144826064Y-83187381D01*
X144860365Y-83018000D01*
X144860365Y-81818000D01*
X144830591Y-81659763D01*
X144737073Y-81514433D01*
X144699904Y-81489036D01*
X144851821Y-81123179D01*
X144852156Y-80739191D01*
X146661805Y-80739191D01*
X146833019Y-81153560D01*
X147082681Y-81403658D01*
X146834133Y-81651772D01*
X146662196Y-82065842D01*
X146661805Y-82514191D01*
X146833019Y-82928560D01*
X147149772Y-83245867D01*
X147563842Y-83417804D01*
X148012191Y-83418195D01*
X148426560Y-83246981D01*
X148743867Y-82930228D01*
X148915804Y-82516158D01*
X148916195Y-82067809D01*
X148744981Y-81653440D01*
X148495319Y-81403342D01*
X148743867Y-81155228D01*
X148915804Y-80741158D01*
X148916195Y-80292809D01*
X148744981Y-79878440D01*
X148430363Y-79563272D01*
X148430744Y-79562349D01*
X147789000Y-78920605D01*
X147147256Y-79562349D01*
X147147796Y-79563656D01*
X146834133Y-79876772D01*
X146662196Y-80290842D01*
X146661805Y-80739191D01*
X144852156Y-80739191D01*
X144852178Y-80714613D01*
X144696156Y-80337011D01*
X144407508Y-80047860D01*
X144030179Y-79891179D01*
X143621613Y-79890822D01*
X143244011Y-80046844D01*
X142999430Y-80291000D01*
X142609712Y-80291000D01*
X142351000Y-80032288D01*
X142351000Y-78721699D01*
X142427921Y-78737000D01*
X142472079Y-78737000D01*
X142903363Y-78651212D01*
X143232410Y-78431349D01*
X144348256Y-78431349D01*
X144421472Y-78608578D01*
X144846888Y-78750131D01*
X145294091Y-78718111D01*
X145558528Y-78608578D01*
X145562944Y-78597888D01*
X146648869Y-78597888D01*
X146680889Y-79045091D01*
X146790422Y-79309528D01*
X146967651Y-79382744D01*
X147609395Y-78741000D01*
X147968605Y-78741000D01*
X148610349Y-79382744D01*
X148787578Y-79309528D01*
X148929131Y-78884112D01*
X148897111Y-78436909D01*
X148787578Y-78172472D01*
X148610349Y-78099256D01*
X147968605Y-78741000D01*
X147609395Y-78741000D01*
X146967651Y-78099256D01*
X146790422Y-78172472D01*
X146648869Y-78597888D01*
X145562944Y-78597888D01*
X145631744Y-78431349D01*
X144990000Y-77789605D01*
X144348256Y-78431349D01*
X143232410Y-78431349D01*
X143268988Y-78406909D01*
X143513291Y-78041284D01*
X143599079Y-77610000D01*
X143570613Y-77466888D01*
X143849869Y-77466888D01*
X143881889Y-77914091D01*
X143991422Y-78178528D01*
X144168651Y-78251744D01*
X144810395Y-77610000D01*
X145169605Y-77610000D01*
X145811349Y-78251744D01*
X145988578Y-78178528D01*
X146130131Y-77753112D01*
X146098111Y-77305909D01*
X145988578Y-77041472D01*
X145811349Y-76968256D01*
X145169605Y-77610000D01*
X144810395Y-77610000D01*
X144168651Y-76968256D01*
X143991422Y-77041472D01*
X143849869Y-77466888D01*
X143570613Y-77466888D01*
X143513291Y-77178716D01*
X143268988Y-76813091D01*
X143232411Y-76788651D01*
X144348256Y-76788651D01*
X144990000Y-77430395D01*
X145631744Y-76788651D01*
X145558528Y-76611422D01*
X145133112Y-76469869D01*
X144685909Y-76501889D01*
X144421472Y-76611422D01*
X144348256Y-76788651D01*
X143232411Y-76788651D01*
X142903363Y-76568788D01*
X142472079Y-76483000D01*
X142427921Y-76483000D01*
X141996637Y-76568788D01*
X141711000Y-76759645D01*
X141711000Y-73475000D01*
X142924630Y-73475000D01*
X142901433Y-73489927D01*
X142803936Y-73632619D01*
X142769635Y-73802000D01*
X142769635Y-75002000D01*
X142799409Y-75160237D01*
X142892927Y-75305567D01*
X143035619Y-75403064D01*
X143205000Y-75437365D01*
X144405000Y-75437365D01*
X144563237Y-75407591D01*
X144708567Y-75314073D01*
X144806064Y-75171381D01*
X144840365Y-75002000D01*
X144840365Y-73802000D01*
X144810591Y-73643763D01*
X144717073Y-73498433D01*
X144679904Y-73473036D01*
X144831821Y-73107179D01*
X144832178Y-72698613D01*
X144676156Y-72321011D01*
X144387508Y-72031860D01*
X144010179Y-71875179D01*
X143601613Y-71874822D01*
X143224011Y-72030844D01*
X143033524Y-72221000D01*
X141711000Y-72221000D01*
X141711000Y-70287369D01*
X141987637Y-70472212D01*
X142418921Y-70558000D01*
X142463079Y-70558000D01*
X142894363Y-70472212D01*
X143223410Y-70252349D01*
X144339256Y-70252349D01*
X144412472Y-70429578D01*
X144837888Y-70571131D01*
X145285091Y-70539111D01*
X145549528Y-70429578D01*
X145622744Y-70252349D01*
X144981000Y-69610605D01*
X144339256Y-70252349D01*
X143223410Y-70252349D01*
X143259988Y-70227909D01*
X143504291Y-69862284D01*
X143590079Y-69431000D01*
X143561613Y-69287888D01*
X143840869Y-69287888D01*
X143872889Y-69735091D01*
X143982422Y-69999528D01*
X144159651Y-70072744D01*
X144801395Y-69431000D01*
X144159651Y-68789256D01*
X143982422Y-68862472D01*
X143840869Y-69287888D01*
X143561613Y-69287888D01*
X143504291Y-68999716D01*
X143259988Y-68634091D01*
X143223411Y-68609651D01*
X144339256Y-68609651D01*
X144981000Y-69251395D01*
X145622744Y-68609651D01*
X145549528Y-68432422D01*
X145124112Y-68290869D01*
X144676909Y-68322889D01*
X144412472Y-68432422D01*
X144339256Y-68609651D01*
X143223411Y-68609651D01*
X142894363Y-68389788D01*
X142463079Y-68304000D01*
X142418921Y-68304000D01*
X141987637Y-68389788D01*
X141622012Y-68634091D01*
X141498746Y-68818571D01*
X141332057Y-68851728D01*
X141128644Y-68987644D01*
X140640644Y-69475644D01*
X140504728Y-69679057D01*
X140457000Y-69919000D01*
X140457000Y-86677000D01*
X140504728Y-86916943D01*
X140626286Y-87098867D01*
X140640644Y-87120356D01*
X141064000Y-87543712D01*
X141064000Y-89946000D01*
X141111728Y-90185943D01*
X141247644Y-90389356D01*
X144183000Y-93324712D01*
X144183000Y-95676000D01*
X144230728Y-95915943D01*
X144352374Y-96098000D01*
X144366644Y-96119356D01*
X145005288Y-96758000D01*
X132402935Y-96758000D01*
X131528000Y-95883064D01*
X131528000Y-94899000D01*
X131642146Y-94899000D01*
X131769800Y-95540760D01*
X132133328Y-96084818D01*
X132677386Y-96448346D01*
X133319146Y-96576000D01*
X133384854Y-96576000D01*
X134026614Y-96448346D01*
X134519805Y-96118806D01*
X135291799Y-96118806D01*
X135432494Y-96353129D01*
X136057436Y-96586666D01*
X136724178Y-96563271D01*
X137231506Y-96353129D01*
X137372201Y-96118806D01*
X136332000Y-95078605D01*
X135291799Y-96118806D01*
X134519805Y-96118806D01*
X134570672Y-96084818D01*
X134833521Y-95691436D01*
X134877871Y-95798506D01*
X135112194Y-95939201D01*
X136152395Y-94899000D01*
X136511605Y-94899000D01*
X137551806Y-95939201D01*
X137786129Y-95798506D01*
X137816059Y-95718414D01*
X137869480Y-95847703D01*
X138340816Y-96319862D01*
X138956961Y-96575708D01*
X139624112Y-96576290D01*
X140240703Y-96321520D01*
X140712862Y-95850184D01*
X140968708Y-95234039D01*
X140969290Y-94566888D01*
X140831329Y-94232995D01*
X141685788Y-94232995D01*
X141872194Y-94684131D01*
X142217053Y-95029593D01*
X142667864Y-95216786D01*
X143155995Y-95217212D01*
X143607131Y-95030806D01*
X143952593Y-94685947D01*
X144139786Y-94235136D01*
X144140212Y-93747005D01*
X143953806Y-93295869D01*
X143608947Y-92950407D01*
X143158136Y-92763214D01*
X142670005Y-92762788D01*
X142218869Y-92949194D01*
X141873407Y-93294053D01*
X141686214Y-93744864D01*
X141685788Y-94232995D01*
X140831329Y-94232995D01*
X140714520Y-93950297D01*
X140243184Y-93478138D01*
X139627039Y-93222292D01*
X138959888Y-93221710D01*
X138343297Y-93476480D01*
X137871138Y-93947816D01*
X137817865Y-94076112D01*
X137786129Y-93999494D01*
X137551806Y-93858799D01*
X136511605Y-94899000D01*
X136152395Y-94899000D01*
X135112194Y-93858799D01*
X134877871Y-93999494D01*
X134836304Y-94110728D01*
X134570672Y-93713182D01*
X134519806Y-93679194D01*
X135291799Y-93679194D01*
X136332000Y-94719395D01*
X137372201Y-93679194D01*
X137231506Y-93444871D01*
X136606564Y-93211334D01*
X135939822Y-93234729D01*
X135432494Y-93444871D01*
X135291799Y-93679194D01*
X134519806Y-93679194D01*
X134026614Y-93349654D01*
X133384854Y-93222000D01*
X133319146Y-93222000D01*
X132677386Y-93349654D01*
X132133328Y-93713182D01*
X131769800Y-94257240D01*
X131642146Y-94899000D01*
X131528000Y-94899000D01*
X131528000Y-90745980D01*
X133214574Y-90745980D01*
X133588145Y-91650092D01*
X134279270Y-92342423D01*
X135182729Y-92717573D01*
X136160980Y-92718426D01*
X137065092Y-92344855D01*
X137757423Y-91653730D01*
X138132573Y-90750271D01*
X138133426Y-89772020D01*
X137759855Y-88867908D01*
X137068730Y-88175577D01*
X136165271Y-87800427D01*
X135187020Y-87799574D01*
X134282908Y-88173145D01*
X133590577Y-88864270D01*
X133215427Y-89767729D01*
X133214574Y-90745980D01*
X131528000Y-90745980D01*
X131528000Y-83597720D01*
X133687675Y-83597720D01*
X133972829Y-84287846D01*
X134500376Y-84816316D01*
X135190004Y-85102674D01*
X135936720Y-85103325D01*
X136626846Y-84818171D01*
X137155316Y-84290624D01*
X137441674Y-83600996D01*
X137442325Y-82854280D01*
X137157171Y-82164154D01*
X136629624Y-81635684D01*
X135939996Y-81349326D01*
X135193280Y-81348675D01*
X134503154Y-81633829D01*
X133974684Y-82161376D01*
X133688326Y-82851004D01*
X133687675Y-83597720D01*
X131528000Y-83597720D01*
X131528000Y-79510401D01*
X134380204Y-79510401D01*
X134545337Y-79765510D01*
X135242714Y-80032440D01*
X135989156Y-80012177D01*
X136584663Y-79765510D01*
X136749796Y-79510401D01*
X135565000Y-78325605D01*
X134380204Y-79510401D01*
X131528000Y-79510401D01*
X131528000Y-77823714D01*
X133678560Y-77823714D01*
X133698823Y-78570156D01*
X133945490Y-79165663D01*
X134200599Y-79330796D01*
X135385395Y-78146000D01*
X135744605Y-78146000D01*
X136929401Y-79330796D01*
X137184510Y-79165663D01*
X137451440Y-78468286D01*
X137431177Y-77721844D01*
X137184510Y-77126337D01*
X136929401Y-76961204D01*
X135744605Y-78146000D01*
X135385395Y-78146000D01*
X134200599Y-76961204D01*
X133945490Y-77126337D01*
X133678560Y-77823714D01*
X131528000Y-77823714D01*
X131528000Y-76781599D01*
X134380204Y-76781599D01*
X135565000Y-77966395D01*
X136749796Y-76781599D01*
X136584663Y-76526490D01*
X135887286Y-76259560D01*
X135140844Y-76279823D01*
X134545337Y-76526490D01*
X134380204Y-76781599D01*
X131528000Y-76781599D01*
X131528000Y-74430401D01*
X134380204Y-74430401D01*
X134545337Y-74685510D01*
X135242714Y-74952440D01*
X135989156Y-74932177D01*
X136584663Y-74685510D01*
X136749796Y-74430401D01*
X135565000Y-73245605D01*
X134380204Y-74430401D01*
X131528000Y-74430401D01*
X131528000Y-72743714D01*
X133678560Y-72743714D01*
X133698823Y-73490156D01*
X133945490Y-74085663D01*
X134200599Y-74250796D01*
X135385395Y-73066000D01*
X135744605Y-73066000D01*
X136929401Y-74250796D01*
X137184510Y-74085663D01*
X137451440Y-73388286D01*
X137431177Y-72641844D01*
X137184510Y-72046337D01*
X136929401Y-71881204D01*
X135744605Y-73066000D01*
X135385395Y-73066000D01*
X134200599Y-71881204D01*
X133945490Y-72046337D01*
X133678560Y-72743714D01*
X131528000Y-72743714D01*
X131528000Y-71701599D01*
X134380204Y-71701599D01*
X135565000Y-72886395D01*
X136749796Y-71701599D01*
X136584663Y-71446490D01*
X135887286Y-71179560D01*
X135140844Y-71199823D01*
X134545337Y-71446490D01*
X134380204Y-71701599D01*
X131528000Y-71701599D01*
X131528000Y-65577530D01*
X133688216Y-67737746D01*
X133687675Y-68357720D01*
X133972829Y-69047846D01*
X134500376Y-69576316D01*
X135190004Y-69862674D01*
X135936720Y-69863325D01*
X136626846Y-69578171D01*
X137155316Y-69050624D01*
X137441674Y-68360996D01*
X137442325Y-67614280D01*
X137157171Y-66924154D01*
X136629624Y-66395684D01*
X135939996Y-66109326D01*
X135388375Y-66108845D01*
X134779530Y-65500000D01*
X142765635Y-65500000D01*
X142765635Y-66700000D01*
X142795409Y-66858237D01*
X142888927Y-67003567D01*
X143031619Y-67101064D01*
X143201000Y-67135365D01*
X144401000Y-67135365D01*
X144559237Y-67105591D01*
X144704567Y-67012073D01*
X144802064Y-66869381D01*
X144830897Y-66727000D01*
X145133288Y-66727000D01*
X145901000Y-67494712D01*
X145901000Y-68830010D01*
X145802349Y-68789256D01*
X145160605Y-69431000D01*
X145802349Y-70072744D01*
X145901000Y-70031990D01*
X145901000Y-72682000D01*
X145948728Y-72921943D01*
X146071301Y-73105387D01*
X146084644Y-73125356D01*
X146723998Y-73764710D01*
X146833019Y-74028560D01*
X147095181Y-74291180D01*
X146834133Y-74551772D01*
X146662196Y-74965842D01*
X146661805Y-75414191D01*
X146833019Y-75828560D01*
X147082681Y-76078658D01*
X146834133Y-76326772D01*
X146662196Y-76740842D01*
X146661805Y-77189191D01*
X146833019Y-77603560D01*
X147147637Y-77918728D01*
X147147256Y-77919651D01*
X147789000Y-78561395D01*
X148430744Y-77919651D01*
X148430204Y-77918344D01*
X148743867Y-77605228D01*
X148775990Y-77527868D01*
X148953356Y-77409356D01*
X149533454Y-76829258D01*
X149645181Y-76941180D01*
X149384133Y-77201772D01*
X149212196Y-77615842D01*
X149211805Y-78064191D01*
X149383019Y-78478560D01*
X149632681Y-78728658D01*
X149384133Y-78976772D01*
X149212196Y-79390842D01*
X149211805Y-79839191D01*
X149383019Y-80253560D01*
X149632681Y-80503658D01*
X149384133Y-80751772D01*
X149212196Y-81165842D01*
X149211805Y-81614191D01*
X149383019Y-82028560D01*
X149632681Y-82278658D01*
X149384133Y-82526772D01*
X149212196Y-82940842D01*
X149211805Y-83389191D01*
X149383019Y-83803560D01*
X149699772Y-84120867D01*
X150113842Y-84292804D01*
X150562191Y-84293195D01*
X150976560Y-84121981D01*
X151105767Y-83993000D01*
X152065000Y-83993000D01*
X152381479Y-83930048D01*
X152649777Y-83750777D01*
X153064555Y-83336000D01*
X153574635Y-83336000D01*
X153574635Y-84214000D01*
X153604409Y-84372237D01*
X153697927Y-84517567D01*
X153840619Y-84615064D01*
X154010000Y-84649365D01*
X155510000Y-84649365D01*
X155668237Y-84619591D01*
X155813567Y-84526073D01*
X155911064Y-84383381D01*
X155945365Y-84214000D01*
X155945365Y-83322995D01*
X159371788Y-83322995D01*
X159558194Y-83774131D01*
X159903053Y-84119593D01*
X160353864Y-84306786D01*
X160841995Y-84307212D01*
X161289403Y-84122346D01*
X164243974Y-84122346D01*
X164258635Y-85011363D01*
X164570640Y-85764610D01*
X164862964Y-85973431D01*
X166306395Y-84530000D01*
X164862964Y-83086569D01*
X164570640Y-83295390D01*
X164243974Y-84122346D01*
X161289403Y-84122346D01*
X161293131Y-84120806D01*
X161638593Y-83775947D01*
X161825786Y-83325136D01*
X161826212Y-82837005D01*
X161639806Y-82385869D01*
X161294947Y-82040407D01*
X160844136Y-81853214D01*
X160356005Y-81852788D01*
X159904869Y-82039194D01*
X159559407Y-82384053D01*
X159372214Y-82834864D01*
X159371788Y-83322995D01*
X155945365Y-83322995D01*
X155945365Y-83314000D01*
X155915591Y-83155763D01*
X155822073Y-83010433D01*
X155788026Y-82987170D01*
X155893301Y-82829613D01*
X155960059Y-82494000D01*
X155893301Y-82158387D01*
X155703192Y-81873867D01*
X155680942Y-81859000D01*
X155703192Y-81844133D01*
X155893301Y-81559613D01*
X155960059Y-81224000D01*
X155893301Y-80888387D01*
X155703192Y-80603867D01*
X155418672Y-80413758D01*
X155083059Y-80347000D01*
X154436941Y-80347000D01*
X154101328Y-80413758D01*
X153816808Y-80603867D01*
X153626699Y-80888387D01*
X153559941Y-81224000D01*
X153626699Y-81559613D01*
X153708475Y-81682000D01*
X153064555Y-81682000D01*
X152737000Y-81354446D01*
X152737000Y-79070891D01*
X152755603Y-79092458D01*
X153148383Y-79290180D01*
X153322000Y-79217084D01*
X153322000Y-78331000D01*
X153576000Y-78331000D01*
X153576000Y-79217084D01*
X153749617Y-79290180D01*
X154142397Y-79092458D01*
X154429613Y-78759477D01*
X154535167Y-78504615D01*
X154502233Y-78427191D01*
X154861805Y-78427191D01*
X155033019Y-78841560D01*
X155349772Y-79158867D01*
X155763842Y-79330804D01*
X156212191Y-79331195D01*
X156626560Y-79159981D01*
X156728719Y-79058000D01*
X159416921Y-79058000D01*
X159502709Y-79489284D01*
X159747012Y-79854909D01*
X160112637Y-80099212D01*
X160543921Y-80185000D01*
X160588079Y-80185000D01*
X161019363Y-80099212D01*
X161384988Y-79854909D01*
X161629291Y-79489284D01*
X161670683Y-79281191D01*
X161978805Y-79281191D01*
X162150019Y-79695560D01*
X162466772Y-80012867D01*
X162880842Y-80184804D01*
X163329191Y-80185195D01*
X163743560Y-80013981D01*
X164060867Y-79697228D01*
X164232804Y-79283158D01*
X164233195Y-78834809D01*
X164061981Y-78420440D01*
X163745228Y-78103133D01*
X163331158Y-77931196D01*
X162882809Y-77930805D01*
X162468440Y-78102019D01*
X162151133Y-78418772D01*
X161979196Y-78832842D01*
X161978805Y-79281191D01*
X161670683Y-79281191D01*
X161715079Y-79058000D01*
X161629291Y-78626716D01*
X161384988Y-78261091D01*
X161019363Y-78016788D01*
X160588079Y-77931000D01*
X160543921Y-77931000D01*
X160112637Y-78016788D01*
X159747012Y-78261091D01*
X159502709Y-78626716D01*
X159416921Y-79058000D01*
X156728719Y-79058000D01*
X156943867Y-78843228D01*
X157115804Y-78429158D01*
X157116195Y-77980809D01*
X156944981Y-77566440D01*
X156742242Y-77363346D01*
X164133974Y-77363346D01*
X164148635Y-78252363D01*
X164460640Y-79005610D01*
X164752964Y-79214431D01*
X166196395Y-77771000D01*
X164752964Y-76327569D01*
X164460640Y-76536390D01*
X164133974Y-77363346D01*
X156742242Y-77363346D01*
X156628228Y-77249133D01*
X156214158Y-77077196D01*
X155765809Y-77076805D01*
X155351440Y-77248019D01*
X155034133Y-77564772D01*
X154862196Y-77978842D01*
X154861805Y-78427191D01*
X154502233Y-78427191D01*
X154461315Y-78331000D01*
X153576000Y-78331000D01*
X153322000Y-78331000D01*
X153302000Y-78331000D01*
X153302000Y-78077000D01*
X153322000Y-78077000D01*
X153322000Y-77190916D01*
X153576000Y-77190916D01*
X153576000Y-78077000D01*
X154461315Y-78077000D01*
X154535167Y-77903385D01*
X154429613Y-77648523D01*
X154142397Y-77315542D01*
X153749617Y-77117820D01*
X153576000Y-77190916D01*
X153322000Y-77190916D01*
X153148383Y-77117820D01*
X152755603Y-77315542D01*
X152737000Y-77337109D01*
X152737000Y-75115555D01*
X152765223Y-75143778D01*
X153033521Y-75323048D01*
X153350000Y-75386000D01*
X153574635Y-75386000D01*
X153574635Y-76279000D01*
X153604409Y-76437237D01*
X153697927Y-76582567D01*
X153840619Y-76680064D01*
X154010000Y-76714365D01*
X155510000Y-76714365D01*
X155668237Y-76684591D01*
X155813567Y-76591073D01*
X155911064Y-76448381D01*
X155945365Y-76279000D01*
X155945365Y-75379000D01*
X155915591Y-75220763D01*
X155822073Y-75075433D01*
X155788026Y-75052170D01*
X155893301Y-74894613D01*
X155936786Y-74676000D01*
X159279635Y-74676000D01*
X159279635Y-76276000D01*
X159309409Y-76434237D01*
X159402927Y-76579567D01*
X159545619Y-76677064D01*
X159715000Y-76711365D01*
X161315000Y-76711365D01*
X161473237Y-76681591D01*
X161618567Y-76588073D01*
X161716064Y-76445381D01*
X161750365Y-76276000D01*
X161750365Y-76147964D01*
X164932569Y-76147964D01*
X166376000Y-77591395D01*
X167819431Y-76147964D01*
X167610610Y-75855640D01*
X166783654Y-75528974D01*
X165894637Y-75543635D01*
X165141390Y-75855640D01*
X164932569Y-76147964D01*
X161750365Y-76147964D01*
X161750365Y-74676000D01*
X161720591Y-74517763D01*
X161627073Y-74372433D01*
X161484381Y-74274936D01*
X161315000Y-74240635D01*
X159715000Y-74240635D01*
X159556763Y-74270409D01*
X159411433Y-74363927D01*
X159313936Y-74506619D01*
X159279635Y-74676000D01*
X155936786Y-74676000D01*
X155960059Y-74559000D01*
X155893301Y-74223387D01*
X155703192Y-73938867D01*
X155680942Y-73924000D01*
X155703192Y-73909133D01*
X155893301Y-73624613D01*
X155960059Y-73289000D01*
X155946135Y-73218995D01*
X159287788Y-73218995D01*
X159474194Y-73670131D01*
X159819053Y-74015593D01*
X160269864Y-74202786D01*
X160757995Y-74203212D01*
X161209131Y-74016806D01*
X161554593Y-73671947D01*
X161741786Y-73221136D01*
X161741884Y-73108063D01*
X164673705Y-73108063D01*
X164932273Y-73733846D01*
X165410636Y-74213044D01*
X166035966Y-74472704D01*
X166713063Y-74473295D01*
X167338846Y-74214727D01*
X167818044Y-73736364D01*
X168077704Y-73111034D01*
X168078295Y-72433937D01*
X167819727Y-71808154D01*
X167341364Y-71328956D01*
X166716034Y-71069296D01*
X166038937Y-71068705D01*
X165413154Y-71327273D01*
X164933956Y-71805636D01*
X164674296Y-72430966D01*
X164673705Y-73108063D01*
X161741884Y-73108063D01*
X161742212Y-72733005D01*
X161555806Y-72281869D01*
X161210947Y-71936407D01*
X160760136Y-71749214D01*
X160272005Y-71748788D01*
X159820869Y-71935194D01*
X159475407Y-72280053D01*
X159288214Y-72730864D01*
X159287788Y-73218995D01*
X155946135Y-73218995D01*
X155893301Y-72953387D01*
X155703192Y-72668867D01*
X155418672Y-72478758D01*
X155083059Y-72412000D01*
X154436941Y-72412000D01*
X154101328Y-72478758D01*
X153816808Y-72668867D01*
X153626699Y-72953387D01*
X153559941Y-73289000D01*
X153626699Y-73624613D01*
X153698452Y-73732000D01*
X153692555Y-73732000D01*
X152737000Y-72776446D01*
X152737000Y-71188962D01*
X152742603Y-71195458D01*
X153135383Y-71393180D01*
X153309000Y-71320084D01*
X153309000Y-70434000D01*
X153563000Y-70434000D01*
X153563000Y-71320084D01*
X153736617Y-71393180D01*
X154129397Y-71195458D01*
X154416613Y-70862477D01*
X154522167Y-70607615D01*
X154489233Y-70530191D01*
X154848805Y-70530191D01*
X155020019Y-70944560D01*
X155336772Y-71261867D01*
X155750842Y-71433804D01*
X156199191Y-71434195D01*
X156613560Y-71262981D01*
X156930867Y-70946228D01*
X157102804Y-70532158D01*
X157103195Y-70083809D01*
X156931981Y-69669440D01*
X156615228Y-69352133D01*
X156201158Y-69180196D01*
X155752809Y-69179805D01*
X155338440Y-69351019D01*
X155021133Y-69667772D01*
X154849196Y-70081842D01*
X154848805Y-70530191D01*
X154489233Y-70530191D01*
X154448315Y-70434000D01*
X153563000Y-70434000D01*
X153309000Y-70434000D01*
X153289000Y-70434000D01*
X153289000Y-70180000D01*
X153309000Y-70180000D01*
X153309000Y-69293916D01*
X153563000Y-69293916D01*
X153563000Y-70180000D01*
X154448315Y-70180000D01*
X154522167Y-70006385D01*
X154416613Y-69751523D01*
X154129397Y-69418542D01*
X153736617Y-69220820D01*
X153563000Y-69293916D01*
X153309000Y-69293916D01*
X153135383Y-69220820D01*
X152742603Y-69418542D01*
X152737000Y-69425038D01*
X152737000Y-69124000D01*
X159396921Y-69124000D01*
X159482709Y-69555284D01*
X159727012Y-69920909D01*
X160092637Y-70165212D01*
X160523921Y-70251000D01*
X160568079Y-70251000D01*
X160999363Y-70165212D01*
X161364988Y-69920909D01*
X161609291Y-69555284D01*
X161650683Y-69347191D01*
X161958805Y-69347191D01*
X162130019Y-69761560D01*
X162446772Y-70078867D01*
X162860842Y-70250804D01*
X163309191Y-70251195D01*
X163723560Y-70079981D01*
X164040867Y-69763228D01*
X164194169Y-69394036D01*
X164932569Y-69394036D01*
X165141390Y-69686360D01*
X165968346Y-70013026D01*
X166857363Y-69998365D01*
X167610610Y-69686360D01*
X167819431Y-69394036D01*
X166376000Y-67950605D01*
X164932569Y-69394036D01*
X164194169Y-69394036D01*
X164212804Y-69349158D01*
X164213195Y-68900809D01*
X164041981Y-68486440D01*
X163725228Y-68169133D01*
X163311158Y-67997196D01*
X162862809Y-67996805D01*
X162448440Y-68168019D01*
X162131133Y-68484772D01*
X161959196Y-68898842D01*
X161958805Y-69347191D01*
X161650683Y-69347191D01*
X161695079Y-69124000D01*
X161609291Y-68692716D01*
X161364988Y-68327091D01*
X160999363Y-68082788D01*
X160568079Y-67997000D01*
X160523921Y-67997000D01*
X160092637Y-68082788D01*
X159727012Y-68327091D01*
X159482709Y-68692716D01*
X159396921Y-69124000D01*
X152737000Y-69124000D01*
X152737000Y-68010554D01*
X153463555Y-67284000D01*
X153561635Y-67284000D01*
X153561635Y-68177000D01*
X153591409Y-68335237D01*
X153684927Y-68480567D01*
X153827619Y-68578064D01*
X153997000Y-68612365D01*
X155497000Y-68612365D01*
X155655237Y-68582591D01*
X155800567Y-68489073D01*
X155898064Y-68346381D01*
X155932365Y-68177000D01*
X155932365Y-67363346D01*
X164133974Y-67363346D01*
X164148635Y-68252363D01*
X164460640Y-69005610D01*
X164752964Y-69214431D01*
X166196395Y-67771000D01*
X164752964Y-66327569D01*
X164460640Y-66536390D01*
X164133974Y-67363346D01*
X155932365Y-67363346D01*
X155932365Y-67277000D01*
X155902591Y-67118763D01*
X155809073Y-66973433D01*
X155775026Y-66950170D01*
X155880301Y-66792613D01*
X155947059Y-66457000D01*
X155880301Y-66121387D01*
X155690192Y-65836867D01*
X155667942Y-65822000D01*
X155690192Y-65807133D01*
X155880301Y-65522613D01*
X155947059Y-65187000D01*
X155886789Y-64884000D01*
X159317635Y-64884000D01*
X159317635Y-66484000D01*
X159347409Y-66642237D01*
X159440927Y-66787567D01*
X159583619Y-66885064D01*
X159753000Y-66919365D01*
X161353000Y-66919365D01*
X161511237Y-66889591D01*
X161656567Y-66796073D01*
X161754064Y-66653381D01*
X161788365Y-66484000D01*
X161788365Y-64884000D01*
X161758591Y-64725763D01*
X161665073Y-64580433D01*
X161522381Y-64482936D01*
X161353000Y-64448635D01*
X159753000Y-64448635D01*
X159594763Y-64478409D01*
X159449433Y-64571927D01*
X159351936Y-64714619D01*
X159317635Y-64884000D01*
X155886789Y-64884000D01*
X155880301Y-64851387D01*
X155690192Y-64566867D01*
X155405672Y-64376758D01*
X155070059Y-64310000D01*
X154423941Y-64310000D01*
X154088328Y-64376758D01*
X153814085Y-64560000D01*
X153554712Y-64560000D01*
X152519000Y-63524288D01*
X152519000Y-63426995D01*
X159325788Y-63426995D01*
X159512194Y-63878131D01*
X159857053Y-64223593D01*
X160307864Y-64410786D01*
X160795995Y-64411212D01*
X161247131Y-64224806D01*
X161592593Y-63879947D01*
X161779786Y-63429136D01*
X161780212Y-62941005D01*
X161593806Y-62489869D01*
X161248947Y-62144407D01*
X160798136Y-61957214D01*
X160310005Y-61956788D01*
X159858869Y-62143194D01*
X159513407Y-62488053D01*
X159326214Y-62938864D01*
X159325788Y-63426995D01*
X152519000Y-63426995D01*
X152519000Y-62992000D01*
X152508887Y-62941158D01*
X152485948Y-62825837D01*
X152755603Y-63138458D01*
X153148383Y-63336180D01*
X153322000Y-63263084D01*
X153322000Y-62377000D01*
X153576000Y-62377000D01*
X153576000Y-63263084D01*
X153749617Y-63336180D01*
X154142397Y-63138458D01*
X154429613Y-62805477D01*
X154535167Y-62550615D01*
X154502233Y-62473191D01*
X154861805Y-62473191D01*
X155033019Y-62887560D01*
X155349772Y-63204867D01*
X155763842Y-63376804D01*
X156212191Y-63377195D01*
X156626560Y-63205981D01*
X156943867Y-62889228D01*
X157115804Y-62475158D01*
X157116195Y-62026809D01*
X156944981Y-61612440D01*
X156628228Y-61295133D01*
X156214158Y-61123196D01*
X155765809Y-61122805D01*
X155351440Y-61294019D01*
X155034133Y-61610772D01*
X154862196Y-62024842D01*
X154861805Y-62473191D01*
X154502233Y-62473191D01*
X154461315Y-62377000D01*
X153576000Y-62377000D01*
X153322000Y-62377000D01*
X152436685Y-62377000D01*
X152362833Y-62550615D01*
X152405485Y-62653600D01*
X152335356Y-62548644D01*
X151736097Y-61949385D01*
X152362833Y-61949385D01*
X152436685Y-62123000D01*
X153322000Y-62123000D01*
X153322000Y-61236916D01*
X153576000Y-61236916D01*
X153576000Y-62123000D01*
X154461315Y-62123000D01*
X154535167Y-61949385D01*
X154429613Y-61694523D01*
X154142397Y-61361542D01*
X153749617Y-61163820D01*
X153576000Y-61236916D01*
X153322000Y-61236916D01*
X153148383Y-61163820D01*
X152755603Y-61361542D01*
X152468387Y-61694523D01*
X152362833Y-61949385D01*
X151736097Y-61949385D01*
X151522356Y-61735644D01*
X151460814Y-61694523D01*
X151318943Y-61599728D01*
X151079000Y-61552000D01*
X149799000Y-61552000D01*
X149559058Y-61599727D01*
X149355644Y-61735644D01*
X148823301Y-62267987D01*
X148744981Y-62078440D01*
X148428228Y-61761133D01*
X148014158Y-61589196D01*
X147565809Y-61588805D01*
X147151440Y-61760019D01*
X146834133Y-62076772D01*
X146662196Y-62490842D01*
X146661805Y-62939191D01*
X146833019Y-63353560D01*
X147082681Y-63603658D01*
X146834133Y-63851772D01*
X146662196Y-64265842D01*
X146661805Y-64714191D01*
X146833019Y-65128560D01*
X147095181Y-65391180D01*
X146834133Y-65651772D01*
X146662196Y-66065842D01*
X146661833Y-66482121D01*
X145836356Y-65656644D01*
X145831561Y-65653440D01*
X145632943Y-65520728D01*
X145393000Y-65473000D01*
X144831285Y-65473000D01*
X144806591Y-65341763D01*
X144713073Y-65196433D01*
X144675904Y-65171036D01*
X144827821Y-64805179D01*
X144828178Y-64396613D01*
X144672156Y-64019011D01*
X144383508Y-63729860D01*
X144006179Y-63573179D01*
X143597613Y-63572822D01*
X143220011Y-63728844D01*
X142930860Y-64017492D01*
X142774179Y-64394821D01*
X142773822Y-64803387D01*
X142925301Y-65169994D01*
X142897433Y-65187927D01*
X142799936Y-65330619D01*
X142765635Y-65500000D01*
X134779530Y-65500000D01*
X133460000Y-64180470D01*
X133460000Y-62141758D01*
X133479145Y-62188092D01*
X134170270Y-62880423D01*
X135073729Y-63255573D01*
X136051980Y-63256426D01*
X136956092Y-62882855D01*
X137648423Y-62191730D01*
X137971780Y-61413000D01*
X141345921Y-61413000D01*
X141431709Y-61844284D01*
X141676012Y-62209909D01*
X142041637Y-62454212D01*
X142472921Y-62540000D01*
X142517079Y-62540000D01*
X142948363Y-62454212D01*
X143277410Y-62234349D01*
X144393256Y-62234349D01*
X144466472Y-62411578D01*
X144891888Y-62553131D01*
X145339091Y-62521111D01*
X145603528Y-62411578D01*
X145676744Y-62234349D01*
X145035000Y-61592605D01*
X144393256Y-62234349D01*
X143277410Y-62234349D01*
X143313988Y-62209909D01*
X143558291Y-61844284D01*
X143644079Y-61413000D01*
X143615613Y-61269888D01*
X143894869Y-61269888D01*
X143926889Y-61717091D01*
X144036422Y-61981528D01*
X144213651Y-62054744D01*
X144855395Y-61413000D01*
X145214605Y-61413000D01*
X145856349Y-62054744D01*
X146033578Y-61981528D01*
X146175131Y-61556112D01*
X146143111Y-61108909D01*
X146033578Y-60844472D01*
X145856349Y-60771256D01*
X145214605Y-61413000D01*
X144855395Y-61413000D01*
X144213651Y-60771256D01*
X144036422Y-60844472D01*
X143894869Y-61269888D01*
X143615613Y-61269888D01*
X143558291Y-60981716D01*
X143313988Y-60616091D01*
X143277411Y-60591651D01*
X144393256Y-60591651D01*
X145035000Y-61233395D01*
X145676744Y-60591651D01*
X145673727Y-60584346D01*
X164057974Y-60584346D01*
X164072635Y-61473363D01*
X164384640Y-62226610D01*
X164676964Y-62435431D01*
X166120395Y-60992000D01*
X164676964Y-59548569D01*
X164384640Y-59757390D01*
X164057974Y-60584346D01*
X145673727Y-60584346D01*
X145603528Y-60414422D01*
X145178112Y-60272869D01*
X144730909Y-60304889D01*
X144466472Y-60414422D01*
X144393256Y-60591651D01*
X143277411Y-60591651D01*
X142948363Y-60371788D01*
X142517079Y-60286000D01*
X142472921Y-60286000D01*
X142041637Y-60371788D01*
X141676012Y-60616091D01*
X141431709Y-60981716D01*
X141345921Y-61413000D01*
X137971780Y-61413000D01*
X138023573Y-61288271D01*
X138024426Y-60310020D01*
X137650855Y-59405908D01*
X136959730Y-58713577D01*
X136056271Y-58338427D01*
X135078020Y-58337574D01*
X134173908Y-58711145D01*
X133481577Y-59402270D01*
X133460000Y-59454233D01*
X133460000Y-55909000D01*
X138642635Y-55909000D01*
X138642635Y-59409000D01*
X138672409Y-59567237D01*
X138765927Y-59712567D01*
X138908619Y-59810064D01*
X139078000Y-59844365D01*
X142578000Y-59844365D01*
X142736237Y-59814591D01*
X142881567Y-59721073D01*
X142979064Y-59578381D01*
X143013365Y-59409000D01*
X143013365Y-58440850D01*
X146125681Y-58440850D01*
X146159274Y-58848033D01*
X146250467Y-59068193D01*
X146417347Y-59129048D01*
X146986395Y-58560000D01*
X146417347Y-57990952D01*
X146250467Y-58051807D01*
X146125681Y-58440850D01*
X143013365Y-58440850D01*
X143013365Y-57811347D01*
X146596952Y-57811347D01*
X147166000Y-58380395D01*
X147180143Y-58366253D01*
X147359748Y-58545858D01*
X147345605Y-58560000D01*
X147359748Y-58574143D01*
X147180143Y-58753748D01*
X147166000Y-58739605D01*
X146596952Y-59308653D01*
X146657807Y-59475533D01*
X147046850Y-59600319D01*
X147454033Y-59566726D01*
X147674193Y-59475533D01*
X147705819Y-59388806D01*
X147753927Y-59463567D01*
X147896619Y-59561064D01*
X148066000Y-59595365D01*
X149266000Y-59595365D01*
X149424237Y-59565591D01*
X149569567Y-59472073D01*
X149640018Y-59368964D01*
X164856569Y-59368964D01*
X166300000Y-60812395D01*
X167743431Y-59368964D01*
X167534610Y-59076640D01*
X166707654Y-58749974D01*
X165818637Y-58764635D01*
X165065390Y-59076640D01*
X164856569Y-59368964D01*
X149640018Y-59368964D01*
X149667064Y-59329381D01*
X149701365Y-59160000D01*
X149701365Y-57960000D01*
X149671591Y-57801763D01*
X149578073Y-57656433D01*
X149435381Y-57558936D01*
X149266000Y-57524635D01*
X148066000Y-57524635D01*
X147907763Y-57554409D01*
X147762433Y-57647927D01*
X147705722Y-57730927D01*
X147674193Y-57644467D01*
X147285150Y-57519681D01*
X146877967Y-57553274D01*
X146657807Y-57644467D01*
X146596952Y-57811347D01*
X143013365Y-57811347D01*
X143013365Y-56087350D01*
X151172000Y-56087350D01*
X151172000Y-57922650D01*
X151271109Y-58420904D01*
X151553347Y-58843303D01*
X151975746Y-59125541D01*
X152474000Y-59224650D01*
X152972254Y-59125541D01*
X153394653Y-58843303D01*
X153676891Y-58420904D01*
X153724000Y-58184071D01*
X153771109Y-58420904D01*
X154053347Y-58843303D01*
X154475746Y-59125541D01*
X154974000Y-59224650D01*
X155472254Y-59125541D01*
X155894653Y-58843303D01*
X156176891Y-58420904D01*
X156276000Y-57922650D01*
X156276000Y-57138387D01*
X156446822Y-57138387D01*
X156602844Y-57515989D01*
X156891492Y-57805140D01*
X157268821Y-57961821D01*
X157677387Y-57962178D01*
X158054989Y-57806156D01*
X158344140Y-57517508D01*
X158500821Y-57140179D01*
X158501178Y-56731613D01*
X158345156Y-56354011D01*
X158056508Y-56064860D01*
X157679179Y-55908179D01*
X157270613Y-55907822D01*
X156893011Y-56063844D01*
X156603860Y-56352492D01*
X156447179Y-56729821D01*
X156446822Y-57138387D01*
X156276000Y-57138387D01*
X156276000Y-56087350D01*
X156176891Y-55589096D01*
X155894653Y-55166697D01*
X155472254Y-54884459D01*
X154974000Y-54785350D01*
X154475746Y-54884459D01*
X154053347Y-55166697D01*
X153771109Y-55589096D01*
X153724000Y-55825929D01*
X153676891Y-55589096D01*
X153394653Y-55166697D01*
X152972254Y-54884459D01*
X152474000Y-54785350D01*
X151975746Y-54884459D01*
X151553347Y-55166697D01*
X151271109Y-55589096D01*
X151172000Y-56087350D01*
X143013365Y-56087350D01*
X143013365Y-55909000D01*
X142983591Y-55750763D01*
X142890073Y-55605433D01*
X142747381Y-55507936D01*
X142578000Y-55473635D01*
X139078000Y-55473635D01*
X138919763Y-55503409D01*
X138774433Y-55596927D01*
X138676936Y-55739619D01*
X138642635Y-55909000D01*
X133460000Y-55909000D01*
X133460000Y-53192750D01*
X135651000Y-53192750D01*
X135651000Y-54793936D01*
X135716007Y-54950876D01*
X135836124Y-55070993D01*
X135993065Y-55136000D01*
X137594250Y-55136000D01*
X137701000Y-55029250D01*
X137701000Y-53086000D01*
X137955000Y-53086000D01*
X137955000Y-55029250D01*
X138061750Y-55136000D01*
X139662935Y-55136000D01*
X139819876Y-55070993D01*
X139939993Y-54950876D01*
X140005000Y-54793936D01*
X140005000Y-53192750D01*
X139898250Y-53086000D01*
X137955000Y-53086000D01*
X137701000Y-53086000D01*
X135757750Y-53086000D01*
X135651000Y-53192750D01*
X133460000Y-53192750D01*
X133460000Y-52887530D01*
X135493529Y-50854000D01*
X135829131Y-50854000D01*
X135716007Y-50967124D01*
X135651000Y-51124064D01*
X135651000Y-52725250D01*
X135757750Y-52832000D01*
X137701000Y-52832000D01*
X137701000Y-52812000D01*
X137955000Y-52812000D01*
X137955000Y-52832000D01*
X139898250Y-52832000D01*
X140005000Y-52725250D01*
X140005000Y-51124064D01*
X139939993Y-50967124D01*
X139826869Y-50854000D01*
X141841143Y-50854000D01*
X141774433Y-50896927D01*
X141676936Y-51039619D01*
X141642635Y-51209000D01*
X141642635Y-54709000D01*
X141672409Y-54867237D01*
X141765927Y-55012567D01*
X141908619Y-55110064D01*
X142078000Y-55144365D01*
X145578000Y-55144365D01*
X145736237Y-55114591D01*
X145881567Y-55021073D01*
X145979064Y-54878381D01*
X146013365Y-54709000D01*
X146013365Y-52278387D01*
X151436822Y-52278387D01*
X151592844Y-52655989D01*
X151881492Y-52945140D01*
X152258821Y-53101821D01*
X152667387Y-53102178D01*
X153044989Y-52946156D01*
X153334140Y-52657508D01*
X153490821Y-52280179D01*
X153490862Y-52232750D01*
X155297000Y-52232750D01*
X155297000Y-53333936D01*
X155362007Y-53490876D01*
X155482124Y-53610993D01*
X155639065Y-53676000D01*
X157240250Y-53676000D01*
X157347000Y-53569250D01*
X157347000Y-52126000D01*
X157601000Y-52126000D01*
X157601000Y-53569250D01*
X157707750Y-53676000D01*
X159308935Y-53676000D01*
X159465876Y-53610993D01*
X159585993Y-53490876D01*
X159651000Y-53333936D01*
X159651000Y-52278387D01*
X161456822Y-52278387D01*
X161612844Y-52655989D01*
X161901492Y-52945140D01*
X162278821Y-53101821D01*
X162687387Y-53102178D01*
X163064989Y-52946156D01*
X163354140Y-52657508D01*
X163371775Y-52615036D01*
X164856569Y-52615036D01*
X165065390Y-52907360D01*
X165892346Y-53234026D01*
X166781363Y-53219365D01*
X167534610Y-52907360D01*
X167743431Y-52615036D01*
X166300000Y-51171605D01*
X164856569Y-52615036D01*
X163371775Y-52615036D01*
X163510821Y-52280179D01*
X163511178Y-51871613D01*
X163355156Y-51494011D01*
X163066508Y-51204860D01*
X162689179Y-51048179D01*
X162280613Y-51047822D01*
X161903011Y-51203844D01*
X161613860Y-51492492D01*
X161457179Y-51869821D01*
X161456822Y-52278387D01*
X159651000Y-52278387D01*
X159651000Y-52232750D01*
X159544250Y-52126000D01*
X157601000Y-52126000D01*
X157347000Y-52126000D01*
X155403750Y-52126000D01*
X155297000Y-52232750D01*
X153490862Y-52232750D01*
X153491178Y-51871613D01*
X153335156Y-51494011D01*
X153046508Y-51204860D01*
X152669179Y-51048179D01*
X152260613Y-51047822D01*
X151883011Y-51203844D01*
X151593860Y-51492492D01*
X151437179Y-51869821D01*
X151436822Y-52278387D01*
X146013365Y-52278387D01*
X146013365Y-51209000D01*
X145983591Y-51050763D01*
X145890073Y-50905433D01*
X145747381Y-50807936D01*
X145578000Y-50773635D01*
X144941474Y-50773635D01*
X144919680Y-50664064D01*
X155297000Y-50664064D01*
X155297000Y-51765250D01*
X155403750Y-51872000D01*
X157347000Y-51872000D01*
X157347000Y-50428750D01*
X157601000Y-50428750D01*
X157601000Y-51872000D01*
X159544250Y-51872000D01*
X159651000Y-51765250D01*
X159651000Y-50664064D01*
X159617980Y-50584346D01*
X164057974Y-50584346D01*
X164072635Y-51473363D01*
X164384640Y-52226610D01*
X164676964Y-52435431D01*
X166120395Y-50992000D01*
X166479605Y-50992000D01*
X167923036Y-52435431D01*
X168215360Y-52226610D01*
X168542026Y-51399654D01*
X168527365Y-50510637D01*
X168215360Y-49757390D01*
X167923036Y-49548569D01*
X166479605Y-50992000D01*
X166120395Y-50992000D01*
X164676964Y-49548569D01*
X164384640Y-49757390D01*
X164057974Y-50584346D01*
X159617980Y-50584346D01*
X159585993Y-50507124D01*
X159465876Y-50387007D01*
X159308935Y-50322000D01*
X157707750Y-50322000D01*
X157601000Y-50428750D01*
X157347000Y-50428750D01*
X157240250Y-50322000D01*
X155639065Y-50322000D01*
X155482124Y-50387007D01*
X155362007Y-50507124D01*
X155297000Y-50664064D01*
X144919680Y-50664064D01*
X144915406Y-50642582D01*
X144660265Y-50260735D01*
X144660262Y-50260733D01*
X143270530Y-48871000D01*
X151695581Y-48871000D01*
X151563860Y-49002492D01*
X151563860Y-49002492D01*
G37*
X151563860Y-49002492D02*
X151407179Y-49379821D01*
X151406822Y-49788387D01*
X151562844Y-50165989D01*
X151851492Y-50455140D01*
X152228821Y-50611821D01*
X152637387Y-50612178D01*
X153014989Y-50456156D01*
X153304140Y-50167508D01*
X153460821Y-49790179D01*
X153461178Y-49381613D01*
X153305156Y-49004011D01*
X153172376Y-48871000D01*
X161715511Y-48871000D01*
X161623860Y-48962492D01*
X161467179Y-49339821D01*
X161466822Y-49748387D01*
X161622844Y-50125989D01*
X161911492Y-50415140D01*
X162288821Y-50571821D01*
X162697387Y-50572178D01*
X163074989Y-50416156D01*
X163364140Y-50127508D01*
X163520821Y-49750179D01*
X163521178Y-49341613D01*
X163365156Y-48964011D01*
X163272307Y-48871000D01*
X165561849Y-48871000D01*
X165065390Y-49076640D01*
X164856569Y-49368964D01*
X166300000Y-50812395D01*
X167743431Y-49368964D01*
X167534610Y-49076640D01*
X167014032Y-48871000D01*
X172713064Y-48871000D01*
X173586000Y-49743935D01*
X173586000Y-55083996D01*
X173440360Y-54732390D01*
X173148036Y-54523569D01*
X171704605Y-55967000D01*
X173148036Y-57410431D01*
X173440360Y-57201610D01*
X173586000Y-56832922D01*
X173586000Y-71679516D01*
X173516360Y-71511390D01*
X173224036Y-71302569D01*
X171780605Y-72746000D01*
X173224036Y-74189431D01*
X173516360Y-73980610D01*
X173586000Y-73804316D01*
X173586000Y-88241559D01*
X173334036Y-88061569D01*
X171890605Y-89505000D01*
X173334036Y-90948431D01*
X173586000Y-90768441D01*
X173586000Y-95856065D01*
X172684064Y-96758000D01*
X166928858Y-96758000D01*
X166967363Y-96757365D01*
X167720610Y-96445360D01*
X167929431Y-96153036D01*
X166486000Y-94709605D01*
X165042569Y-96153036D01*
X165251390Y-96445360D01*
X166042839Y-96758000D01*
X157321657Y-96758000D01*
X157429273Y-96596942D01*
X157477000Y-96357000D01*
X157477000Y-95912682D01*
X157684582Y-96051383D01*
X158135000Y-96140977D01*
X158585418Y-96051383D01*
X158967265Y-95796242D01*
X159222406Y-95414395D01*
X159312000Y-94963977D01*
X159312000Y-94510023D01*
X159301496Y-94457216D01*
X159636366Y-94122346D01*
X164243974Y-94122346D01*
X164258635Y-95011363D01*
X164570640Y-95764610D01*
X164862964Y-95973431D01*
X166306395Y-94530000D01*
X166665605Y-94530000D01*
X168109036Y-95973431D01*
X168401360Y-95764610D01*
X168728026Y-94937654D01*
X168713365Y-94048637D01*
X168401360Y-93295390D01*
X168109036Y-93086569D01*
X166665605Y-94530000D01*
X166306395Y-94530000D01*
X164862964Y-93086569D01*
X164570640Y-93295390D01*
X164243974Y-94122346D01*
X159636366Y-94122346D01*
X161153712Y-92605000D01*
X165274663Y-92605000D01*
X165251390Y-92614640D01*
X165042569Y-92906964D01*
X166486000Y-94350395D01*
X167929431Y-92906964D01*
X167720610Y-92614640D01*
X167642552Y-92583805D01*
X167775943Y-92557272D01*
X167979356Y-92421356D01*
X169272676Y-91128036D01*
X170267569Y-91128036D01*
X170476390Y-91420360D01*
X171303346Y-91747026D01*
X172192363Y-91732365D01*
X172945610Y-91420360D01*
X173154431Y-91128036D01*
X171711000Y-89684605D01*
X170267569Y-91128036D01*
X169272676Y-91128036D01*
X169433356Y-90967356D01*
X169569273Y-90763941D01*
X169617000Y-90524000D01*
X169617000Y-90308335D01*
X169795640Y-90739610D01*
X170087964Y-90948431D01*
X171531395Y-89505000D01*
X170087964Y-88061569D01*
X169795640Y-88270390D01*
X169617000Y-88722618D01*
X169617000Y-87881964D01*
X170267569Y-87881964D01*
X171711000Y-89325395D01*
X173154431Y-87881964D01*
X172945610Y-87589640D01*
X172118654Y-87262974D01*
X171229637Y-87277635D01*
X170476390Y-87589640D01*
X170267569Y-87881964D01*
X169617000Y-87881964D01*
X169617000Y-83381000D01*
X169614281Y-83367329D01*
X169674270Y-83427423D01*
X170577729Y-83802573D01*
X171555980Y-83803426D01*
X172460092Y-83429855D01*
X173152423Y-82738730D01*
X173527573Y-81835271D01*
X173528426Y-80857020D01*
X173154855Y-79952908D01*
X172463730Y-79260577D01*
X171560271Y-78885427D01*
X170582020Y-78884574D01*
X169677908Y-79258145D01*
X169470982Y-79464711D01*
X169520273Y-79390941D01*
X169568000Y-79151000D01*
X169568000Y-74369036D01*
X170157569Y-74369036D01*
X170366390Y-74661360D01*
X171193346Y-74988026D01*
X172082363Y-74973365D01*
X172835610Y-74661360D01*
X173044431Y-74369036D01*
X171601000Y-72925605D01*
X170157569Y-74369036D01*
X169568000Y-74369036D01*
X169568000Y-73696602D01*
X169685640Y-73980610D01*
X169977964Y-74189431D01*
X171421395Y-72746000D01*
X169977964Y-71302569D01*
X169685640Y-71511390D01*
X169568000Y-71809196D01*
X169568000Y-71122964D01*
X170157569Y-71122964D01*
X171601000Y-72566395D01*
X173044431Y-71122964D01*
X172835610Y-70830640D01*
X172008654Y-70503974D01*
X171119637Y-70518635D01*
X170366390Y-70830640D01*
X170157569Y-71122964D01*
X169568000Y-71122964D01*
X169568000Y-66566002D01*
X169654270Y-66652423D01*
X170557729Y-67027573D01*
X171535980Y-67028426D01*
X172440092Y-66654855D01*
X173132423Y-65963730D01*
X173507573Y-65060271D01*
X173508426Y-64082020D01*
X173134855Y-63177908D01*
X172443730Y-62485577D01*
X171540271Y-62110427D01*
X170562020Y-62109574D01*
X169657908Y-62483145D01*
X169535580Y-62605259D01*
X169578000Y-62392000D01*
X169578000Y-57590036D01*
X170081569Y-57590036D01*
X170290390Y-57882360D01*
X171117346Y-58209026D01*
X172006363Y-58194365D01*
X172759610Y-57882360D01*
X172968431Y-57590036D01*
X171525000Y-56146605D01*
X170081569Y-57590036D01*
X169578000Y-57590036D01*
X169578000Y-57125224D01*
X169609640Y-57201610D01*
X169901964Y-57410431D01*
X171345395Y-55967000D01*
X169901964Y-54523569D01*
X169609640Y-54732390D01*
X169578000Y-54812487D01*
X169578000Y-54397000D01*
X169567451Y-54343964D01*
X170081569Y-54343964D01*
X171525000Y-55787395D01*
X172968431Y-54343964D01*
X172759610Y-54051640D01*
X171932654Y-53724974D01*
X171043637Y-53739635D01*
X170290390Y-54051640D01*
X170081569Y-54343964D01*
X169567451Y-54343964D01*
X169530272Y-54157057D01*
X169394356Y-53953644D01*
X168891356Y-53450644D01*
X168829657Y-53409418D01*
X168687943Y-53314728D01*
X168448000Y-53267000D01*
X164932000Y-53267000D01*
X164692058Y-53314727D01*
X164488644Y-53450644D01*
X163021754Y-54917534D01*
X162972254Y-54884459D01*
X162474000Y-54785350D01*
X161975746Y-54884459D01*
X161553347Y-55166697D01*
X161271109Y-55589096D01*
X161224000Y-55825929D01*
X161176891Y-55589096D01*
X160894653Y-55166697D01*
X160472254Y-54884459D01*
X159974000Y-54785350D01*
X159475746Y-54884459D01*
X159053347Y-55166697D01*
X158771109Y-55589096D01*
X158672000Y-56087350D01*
X158672000Y-57922650D01*
X158771109Y-58420904D01*
X159053347Y-58843303D01*
X159475746Y-59125541D01*
X159974000Y-59224650D01*
X160472254Y-59125541D01*
X160894653Y-58843303D01*
X161176891Y-58420904D01*
X161224000Y-58184071D01*
X161271109Y-58420904D01*
X161553347Y-58843303D01*
X161975746Y-59125541D01*
X162474000Y-59224650D01*
X162972254Y-59125541D01*
X163394653Y-58843303D01*
X163676891Y-58420904D01*
X163776000Y-57922650D01*
X163776000Y-56087350D01*
X163751008Y-55961704D01*
X165191712Y-54521000D01*
X165403160Y-54521000D01*
X165337154Y-54548273D01*
X164857956Y-55026636D01*
X164598296Y-55651966D01*
X164597705Y-56329063D01*
X164856273Y-56954846D01*
X165334636Y-57434044D01*
X165959966Y-57693704D01*
X166637063Y-57694295D01*
X167262846Y-57435727D01*
X167742044Y-56957364D01*
X168001704Y-56332034D01*
X168002295Y-55654937D01*
X167743727Y-55029154D01*
X167265364Y-54549956D01*
X167195630Y-54521000D01*
X168188288Y-54521000D01*
X168324000Y-54656712D01*
X168324000Y-60019670D01*
X168215360Y-59757390D01*
X167923036Y-59548569D01*
X166479605Y-60992000D01*
X166493748Y-61006143D01*
X166314143Y-61185748D01*
X166300000Y-61171605D01*
X164856569Y-62615036D01*
X165065390Y-62907360D01*
X165892346Y-63234026D01*
X166781363Y-63219365D01*
X167534610Y-62907360D01*
X167743430Y-62615038D01*
X167807319Y-62678927D01*
X167731728Y-62792057D01*
X167684000Y-63032000D01*
X167684000Y-65771000D01*
X167731728Y-66010943D01*
X167821738Y-66145654D01*
X167819430Y-66147962D01*
X167610610Y-65855640D01*
X166783654Y-65528974D01*
X165894637Y-65543635D01*
X165141390Y-65855640D01*
X164932569Y-66147964D01*
X166376000Y-67591395D01*
X166390143Y-67577253D01*
X166569748Y-67756858D01*
X166555605Y-67771000D01*
X167999036Y-69214431D01*
X168291360Y-69005610D01*
X168314000Y-68948297D01*
X168314000Y-76591048D01*
X168291360Y-76536390D01*
X167999036Y-76327569D01*
X166555605Y-77771000D01*
X166569748Y-77785143D01*
X166390143Y-77964748D01*
X166376000Y-77950605D01*
X164932569Y-79394036D01*
X165141390Y-79686360D01*
X165968346Y-80013026D01*
X166857363Y-79998365D01*
X167610610Y-79686360D01*
X167694898Y-79568368D01*
X167675728Y-79597057D01*
X167628000Y-79837000D01*
X167628000Y-82578057D01*
X166893654Y-82287974D01*
X166004637Y-82302635D01*
X165251390Y-82614640D01*
X165042569Y-82906964D01*
X166486000Y-84350395D01*
X166500143Y-84336253D01*
X166679748Y-84515858D01*
X166665605Y-84530000D01*
X168109036Y-85973431D01*
X168363000Y-85792012D01*
X168363000Y-90264288D01*
X167276288Y-91351000D01*
X160894000Y-91351000D01*
X160654057Y-91398728D01*
X160450644Y-91534644D01*
X159250095Y-92735193D01*
X159312000Y-92423977D01*
X159312000Y-91970023D01*
X159222406Y-91519605D01*
X158967265Y-91137758D01*
X158585418Y-90882617D01*
X158135000Y-90793023D01*
X157684582Y-90882617D01*
X157302735Y-91137758D01*
X157047594Y-91519605D01*
X156958000Y-91970023D01*
X156958000Y-92010288D01*
X156772000Y-92196288D01*
X156772000Y-91970023D01*
X156682406Y-91519605D01*
X156427265Y-91137758D01*
X156045418Y-90882617D01*
X155595000Y-90793023D01*
X155144582Y-90882617D01*
X154762735Y-91137758D01*
X154507594Y-91519605D01*
X154454435Y-91786853D01*
X154232000Y-92009288D01*
X154232000Y-91970023D01*
X154142406Y-91519605D01*
X153887265Y-91137758D01*
X153505418Y-90882617D01*
X153055000Y-90793023D01*
X152604582Y-90882617D01*
X152222735Y-91137758D01*
X151967594Y-91519605D01*
X151878000Y-91970023D01*
X151878000Y-92423977D01*
X151967594Y-92874395D01*
X152222735Y-93256242D01*
X152538158Y-93467000D01*
X152222735Y-93677758D01*
X151967594Y-94059605D01*
X151878000Y-94510023D01*
X151878000Y-94963977D01*
X151967594Y-95414395D01*
X152039493Y-95522000D01*
X151530507Y-95522000D01*
X151602406Y-95414395D01*
X151692000Y-94963977D01*
X151692000Y-94510023D01*
X151602406Y-94059605D01*
X151347265Y-93677758D01*
X151006702Y-93450202D01*
X151268189Y-93309480D01*
X151560047Y-92951789D01*
X151692806Y-92509636D01*
X151589175Y-92324000D01*
X150642000Y-92324000D01*
X150642000Y-92344000D01*
X150388000Y-92344000D01*
X150388000Y-92324000D01*
X149440825Y-92324000D01*
X149337194Y-92509636D01*
X149469953Y-92951789D01*
X149761811Y-93309480D01*
X150023298Y-93450202D01*
X149682735Y-93677758D01*
X149527556Y-93910000D01*
X149486555Y-93910000D01*
X149150000Y-93573446D01*
X149150000Y-91884364D01*
X149337194Y-91884364D01*
X149440825Y-92070000D01*
X150388000Y-92070000D01*
X150388000Y-90934312D01*
X150642000Y-90934312D01*
X150642000Y-92070000D01*
X151589175Y-92070000D01*
X151692806Y-91884364D01*
X151560047Y-91442211D01*
X151268189Y-91084520D01*
X150861665Y-90865745D01*
X150823485Y-90861145D01*
X150642000Y-90934312D01*
X150388000Y-90934312D01*
X150206515Y-90861145D01*
X150168335Y-90865745D01*
X149761811Y-91084520D01*
X149469953Y-91442211D01*
X149337194Y-91884364D01*
X149150000Y-91884364D01*
X149150000Y-89867063D01*
X164783705Y-89867063D01*
X165042273Y-90492846D01*
X165520636Y-90972044D01*
X166145966Y-91231704D01*
X166823063Y-91232295D01*
X167448846Y-90973727D01*
X167928044Y-90495364D01*
X168187704Y-89870034D01*
X168188295Y-89192937D01*
X167929727Y-88567154D01*
X167451364Y-88087956D01*
X166826034Y-87828296D01*
X166148937Y-87827705D01*
X165523154Y-88086273D01*
X165043956Y-88564636D01*
X164784296Y-89189966D01*
X164783705Y-89867063D01*
X149150000Y-89867063D01*
X149150000Y-89480554D01*
X151646555Y-86984000D01*
X152122831Y-86984000D01*
X152335053Y-87196593D01*
X152785864Y-87383786D01*
X153273995Y-87384212D01*
X153725131Y-87197806D01*
X154070593Y-86852947D01*
X154257786Y-86402136D01*
X154258212Y-85914005D01*
X154071806Y-85462869D01*
X153726947Y-85117407D01*
X153276136Y-84930214D01*
X152788005Y-84929788D01*
X152336869Y-85116194D01*
X152122689Y-85330000D01*
X151304000Y-85330000D01*
X150987521Y-85392952D01*
X150719223Y-85572222D01*
X147738223Y-88553223D01*
X147558952Y-88821521D01*
X147496000Y-89138000D01*
X147496000Y-93916000D01*
X147558952Y-94232479D01*
X147738223Y-94500777D01*
X148559222Y-95321777D01*
X148827521Y-95501048D01*
X148932853Y-95522000D01*
X146654712Y-95522000D01*
X146139000Y-95006288D01*
X146139000Y-89185000D01*
X146091272Y-88945057D01*
X145955356Y-88741644D01*
X145521000Y-88307288D01*
X145521000Y-87104344D01*
X145531560Y-87099981D01*
X145580688Y-87050938D01*
X147316667Y-87050938D01*
X147402202Y-87238531D01*
X147863951Y-87396835D01*
X148351131Y-87366385D01*
X148659798Y-87238531D01*
X148745333Y-87050938D01*
X148031000Y-86336605D01*
X147316667Y-87050938D01*
X145580688Y-87050938D01*
X145848867Y-86783228D01*
X146020804Y-86369158D01*
X146021134Y-85989951D01*
X146791165Y-85989951D01*
X146821615Y-86477131D01*
X146949469Y-86785798D01*
X147137062Y-86871333D01*
X147851395Y-86157000D01*
X148210605Y-86157000D01*
X148924938Y-86871333D01*
X149112531Y-86785798D01*
X149270835Y-86324049D01*
X149240385Y-85836869D01*
X149112531Y-85528202D01*
X148924938Y-85442667D01*
X148210605Y-86157000D01*
X147851395Y-86157000D01*
X147137062Y-85442667D01*
X146949469Y-85528202D01*
X146791165Y-85989951D01*
X146021134Y-85989951D01*
X146021195Y-85920809D01*
X145849981Y-85506440D01*
X145607028Y-85263062D01*
X147316667Y-85263062D01*
X148031000Y-85977395D01*
X148745333Y-85263062D01*
X148659798Y-85075469D01*
X148198049Y-84917165D01*
X147710869Y-84947615D01*
X147402202Y-85075469D01*
X147316667Y-85263062D01*
X145607028Y-85263062D01*
X145533228Y-85189133D01*
X145119158Y-85017196D01*
X144670809Y-85016805D01*
X144256440Y-85188019D01*
X143939133Y-85504772D01*
X143767196Y-85918842D01*
X143766805Y-86367191D01*
X143938019Y-86781560D01*
X144254772Y-87098867D01*
X144267000Y-87103945D01*
X144267000Y-88567000D01*
X144314728Y-88806943D01*
X144437043Y-88990000D01*
X144450644Y-89010356D01*
X144885000Y-89444712D01*
X144885000Y-92253288D01*
X142848656Y-90216944D01*
X143155995Y-90217212D01*
X143607131Y-90030806D01*
X143952593Y-89685947D01*
X144139786Y-89235136D01*
X144140212Y-88747005D01*
X143953806Y-88295869D01*
X143608947Y-87950407D01*
X143158136Y-87763214D01*
X143071851Y-87763139D01*
X142981000Y-87672288D01*
X142981000Y-87069191D01*
X143172988Y-86940909D01*
X143417291Y-86575284D01*
X143503079Y-86144000D01*
X143417291Y-85712716D01*
X143172988Y-85347091D01*
X142807363Y-85102788D01*
X142376079Y-85017000D01*
X142331921Y-85017000D01*
X141900637Y-85102788D01*
X141711000Y-85229499D01*
X141711000Y-84780000D01*
X159363635Y-84780000D01*
X159363635Y-86380000D01*
X159393409Y-86538237D01*
X159486927Y-86683567D01*
X159629619Y-86781064D01*
X159799000Y-86815365D01*
X161399000Y-86815365D01*
X161557237Y-86785591D01*
X161702567Y-86692073D01*
X161800064Y-86549381D01*
X161834365Y-86380000D01*
X161834365Y-86153036D01*
X165042569Y-86153036D01*
X165251390Y-86445360D01*
X166078346Y-86772026D01*
X166967363Y-86757365D01*
X167720610Y-86445360D01*
X167929431Y-86153036D01*
X166486000Y-84709605D01*
X165042569Y-86153036D01*
X161834365Y-86153036D01*
X161834365Y-84780000D01*
X161804591Y-84621763D01*
X161711073Y-84476433D01*
X161568381Y-84378936D01*
X161399000Y-84344635D01*
X159799000Y-84344635D01*
X159640763Y-84374409D01*
X159495433Y-84467927D01*
X159397936Y-84610619D01*
X159363635Y-84780000D01*
X141711000Y-84780000D01*
X141711000Y-81165712D01*
X141906644Y-81361356D01*
X142110058Y-81497273D01*
X142350000Y-81545000D01*
X142894736Y-81545000D01*
X142823936Y-81648619D01*
X142789635Y-81818000D01*
X142789635Y-83018000D01*
X142819409Y-83176237D01*
X142912927Y-83321567D01*
X143055619Y-83419064D01*
X143225000Y-83453365D01*
X144425000Y-83453365D01*
X144583237Y-83423591D01*
X144728567Y-83330073D01*
X144826064Y-83187381D01*
X144860365Y-83018000D01*
X144860365Y-81818000D01*
X144830591Y-81659763D01*
X144737073Y-81514433D01*
X144699904Y-81489036D01*
X144851821Y-81123179D01*
X144852156Y-80739191D01*
X146661805Y-80739191D01*
X146833019Y-81153560D01*
X147082681Y-81403658D01*
X146834133Y-81651772D01*
X146662196Y-82065842D01*
X146661805Y-82514191D01*
X146833019Y-82928560D01*
X147149772Y-83245867D01*
X147563842Y-83417804D01*
X148012191Y-83418195D01*
X148426560Y-83246981D01*
X148743867Y-82930228D01*
X148915804Y-82516158D01*
X148916195Y-82067809D01*
X148744981Y-81653440D01*
X148495319Y-81403342D01*
X148743867Y-81155228D01*
X148915804Y-80741158D01*
X148916195Y-80292809D01*
X148744981Y-79878440D01*
X148430363Y-79563272D01*
X148430744Y-79562349D01*
X147789000Y-78920605D01*
X147147256Y-79562349D01*
X147147796Y-79563656D01*
X146834133Y-79876772D01*
X146662196Y-80290842D01*
X146661805Y-80739191D01*
X144852156Y-80739191D01*
X144852178Y-80714613D01*
X144696156Y-80337011D01*
X144407508Y-80047860D01*
X144030179Y-79891179D01*
X143621613Y-79890822D01*
X143244011Y-80046844D01*
X142999430Y-80291000D01*
X142609712Y-80291000D01*
X142351000Y-80032288D01*
X142351000Y-78721699D01*
X142427921Y-78737000D01*
X142472079Y-78737000D01*
X142903363Y-78651212D01*
X143232410Y-78431349D01*
X144348256Y-78431349D01*
X144421472Y-78608578D01*
X144846888Y-78750131D01*
X145294091Y-78718111D01*
X145558528Y-78608578D01*
X145562944Y-78597888D01*
X146648869Y-78597888D01*
X146680889Y-79045091D01*
X146790422Y-79309528D01*
X146967651Y-79382744D01*
X147609395Y-78741000D01*
X147968605Y-78741000D01*
X148610349Y-79382744D01*
X148787578Y-79309528D01*
X148929131Y-78884112D01*
X148897111Y-78436909D01*
X148787578Y-78172472D01*
X148610349Y-78099256D01*
X147968605Y-78741000D01*
X147609395Y-78741000D01*
X146967651Y-78099256D01*
X146790422Y-78172472D01*
X146648869Y-78597888D01*
X145562944Y-78597888D01*
X145631744Y-78431349D01*
X144990000Y-77789605D01*
X144348256Y-78431349D01*
X143232410Y-78431349D01*
X143268988Y-78406909D01*
X143513291Y-78041284D01*
X143599079Y-77610000D01*
X143570613Y-77466888D01*
X143849869Y-77466888D01*
X143881889Y-77914091D01*
X143991422Y-78178528D01*
X144168651Y-78251744D01*
X144810395Y-77610000D01*
X145169605Y-77610000D01*
X145811349Y-78251744D01*
X145988578Y-78178528D01*
X146130131Y-77753112D01*
X146098111Y-77305909D01*
X145988578Y-77041472D01*
X145811349Y-76968256D01*
X145169605Y-77610000D01*
X144810395Y-77610000D01*
X144168651Y-76968256D01*
X143991422Y-77041472D01*
X143849869Y-77466888D01*
X143570613Y-77466888D01*
X143513291Y-77178716D01*
X143268988Y-76813091D01*
X143232411Y-76788651D01*
X144348256Y-76788651D01*
X144990000Y-77430395D01*
X145631744Y-76788651D01*
X145558528Y-76611422D01*
X145133112Y-76469869D01*
X144685909Y-76501889D01*
X144421472Y-76611422D01*
X144348256Y-76788651D01*
X143232411Y-76788651D01*
X142903363Y-76568788D01*
X142472079Y-76483000D01*
X142427921Y-76483000D01*
X141996637Y-76568788D01*
X141711000Y-76759645D01*
X141711000Y-73475000D01*
X142924630Y-73475000D01*
X142901433Y-73489927D01*
X142803936Y-73632619D01*
X142769635Y-73802000D01*
X142769635Y-75002000D01*
X142799409Y-75160237D01*
X142892927Y-75305567D01*
X143035619Y-75403064D01*
X143205000Y-75437365D01*
X144405000Y-75437365D01*
X144563237Y-75407591D01*
X144708567Y-75314073D01*
X144806064Y-75171381D01*
X144840365Y-75002000D01*
X144840365Y-73802000D01*
X144810591Y-73643763D01*
X144717073Y-73498433D01*
X144679904Y-73473036D01*
X144831821Y-73107179D01*
X144832178Y-72698613D01*
X144676156Y-72321011D01*
X144387508Y-72031860D01*
X144010179Y-71875179D01*
X143601613Y-71874822D01*
X143224011Y-72030844D01*
X143033524Y-72221000D01*
X141711000Y-72221000D01*
X141711000Y-70287369D01*
X141987637Y-70472212D01*
X142418921Y-70558000D01*
X142463079Y-70558000D01*
X142894363Y-70472212D01*
X143223410Y-70252349D01*
X144339256Y-70252349D01*
X144412472Y-70429578D01*
X144837888Y-70571131D01*
X145285091Y-70539111D01*
X145549528Y-70429578D01*
X145622744Y-70252349D01*
X144981000Y-69610605D01*
X144339256Y-70252349D01*
X143223410Y-70252349D01*
X143259988Y-70227909D01*
X143504291Y-69862284D01*
X143590079Y-69431000D01*
X143561613Y-69287888D01*
X143840869Y-69287888D01*
X143872889Y-69735091D01*
X143982422Y-69999528D01*
X144159651Y-70072744D01*
X144801395Y-69431000D01*
X144159651Y-68789256D01*
X143982422Y-68862472D01*
X143840869Y-69287888D01*
X143561613Y-69287888D01*
X143504291Y-68999716D01*
X143259988Y-68634091D01*
X143223411Y-68609651D01*
X144339256Y-68609651D01*
X144981000Y-69251395D01*
X145622744Y-68609651D01*
X145549528Y-68432422D01*
X145124112Y-68290869D01*
X144676909Y-68322889D01*
X144412472Y-68432422D01*
X144339256Y-68609651D01*
X143223411Y-68609651D01*
X142894363Y-68389788D01*
X142463079Y-68304000D01*
X142418921Y-68304000D01*
X141987637Y-68389788D01*
X141622012Y-68634091D01*
X141498746Y-68818571D01*
X141332057Y-68851728D01*
X141128644Y-68987644D01*
X140640644Y-69475644D01*
X140504728Y-69679057D01*
X140457000Y-69919000D01*
X140457000Y-86677000D01*
X140504728Y-86916943D01*
X140626286Y-87098867D01*
X140640644Y-87120356D01*
X141064000Y-87543712D01*
X141064000Y-89946000D01*
X141111728Y-90185943D01*
X141247644Y-90389356D01*
X144183000Y-93324712D01*
X144183000Y-95676000D01*
X144230728Y-95915943D01*
X144352374Y-96098000D01*
X144366644Y-96119356D01*
X145005288Y-96758000D01*
X132402935Y-96758000D01*
X131528000Y-95883064D01*
X131528000Y-94899000D01*
X131642146Y-94899000D01*
X131769800Y-95540760D01*
X132133328Y-96084818D01*
X132677386Y-96448346D01*
X133319146Y-96576000D01*
X133384854Y-96576000D01*
X134026614Y-96448346D01*
X134519805Y-96118806D01*
X135291799Y-96118806D01*
X135432494Y-96353129D01*
X136057436Y-96586666D01*
X136724178Y-96563271D01*
X137231506Y-96353129D01*
X137372201Y-96118806D01*
X136332000Y-95078605D01*
X135291799Y-96118806D01*
X134519805Y-96118806D01*
X134570672Y-96084818D01*
X134833521Y-95691436D01*
X134877871Y-95798506D01*
X135112194Y-95939201D01*
X136152395Y-94899000D01*
X136511605Y-94899000D01*
X137551806Y-95939201D01*
X137786129Y-95798506D01*
X137816059Y-95718414D01*
X137869480Y-95847703D01*
X138340816Y-96319862D01*
X138956961Y-96575708D01*
X139624112Y-96576290D01*
X140240703Y-96321520D01*
X140712862Y-95850184D01*
X140968708Y-95234039D01*
X140969290Y-94566888D01*
X140831329Y-94232995D01*
X141685788Y-94232995D01*
X141872194Y-94684131D01*
X142217053Y-95029593D01*
X142667864Y-95216786D01*
X143155995Y-95217212D01*
X143607131Y-95030806D01*
X143952593Y-94685947D01*
X144139786Y-94235136D01*
X144140212Y-93747005D01*
X143953806Y-93295869D01*
X143608947Y-92950407D01*
X143158136Y-92763214D01*
X142670005Y-92762788D01*
X142218869Y-92949194D01*
X141873407Y-93294053D01*
X141686214Y-93744864D01*
X141685788Y-94232995D01*
X140831329Y-94232995D01*
X140714520Y-93950297D01*
X140243184Y-93478138D01*
X139627039Y-93222292D01*
X138959888Y-93221710D01*
X138343297Y-93476480D01*
X137871138Y-93947816D01*
X137817865Y-94076112D01*
X137786129Y-93999494D01*
X137551806Y-93858799D01*
X136511605Y-94899000D01*
X136152395Y-94899000D01*
X135112194Y-93858799D01*
X134877871Y-93999494D01*
X134836304Y-94110728D01*
X134570672Y-93713182D01*
X134519806Y-93679194D01*
X135291799Y-93679194D01*
X136332000Y-94719395D01*
X137372201Y-93679194D01*
X137231506Y-93444871D01*
X136606564Y-93211334D01*
X135939822Y-93234729D01*
X135432494Y-93444871D01*
X135291799Y-93679194D01*
X134519806Y-93679194D01*
X134026614Y-93349654D01*
X133384854Y-93222000D01*
X133319146Y-93222000D01*
X132677386Y-93349654D01*
X132133328Y-93713182D01*
X131769800Y-94257240D01*
X131642146Y-94899000D01*
X131528000Y-94899000D01*
X131528000Y-90745980D01*
X133214574Y-90745980D01*
X133588145Y-91650092D01*
X134279270Y-92342423D01*
X135182729Y-92717573D01*
X136160980Y-92718426D01*
X137065092Y-92344855D01*
X137757423Y-91653730D01*
X138132573Y-90750271D01*
X138133426Y-89772020D01*
X137759855Y-88867908D01*
X137068730Y-88175577D01*
X136165271Y-87800427D01*
X135187020Y-87799574D01*
X134282908Y-88173145D01*
X133590577Y-88864270D01*
X133215427Y-89767729D01*
X133214574Y-90745980D01*
X131528000Y-90745980D01*
X131528000Y-83597720D01*
X133687675Y-83597720D01*
X133972829Y-84287846D01*
X134500376Y-84816316D01*
X135190004Y-85102674D01*
X135936720Y-85103325D01*
X136626846Y-84818171D01*
X137155316Y-84290624D01*
X137441674Y-83600996D01*
X137442325Y-82854280D01*
X137157171Y-82164154D01*
X136629624Y-81635684D01*
X135939996Y-81349326D01*
X135193280Y-81348675D01*
X134503154Y-81633829D01*
X133974684Y-82161376D01*
X133688326Y-82851004D01*
X133687675Y-83597720D01*
X131528000Y-83597720D01*
X131528000Y-79510401D01*
X134380204Y-79510401D01*
X134545337Y-79765510D01*
X135242714Y-80032440D01*
X135989156Y-80012177D01*
X136584663Y-79765510D01*
X136749796Y-79510401D01*
X135565000Y-78325605D01*
X134380204Y-79510401D01*
X131528000Y-79510401D01*
X131528000Y-77823714D01*
X133678560Y-77823714D01*
X133698823Y-78570156D01*
X133945490Y-79165663D01*
X134200599Y-79330796D01*
X135385395Y-78146000D01*
X135744605Y-78146000D01*
X136929401Y-79330796D01*
X137184510Y-79165663D01*
X137451440Y-78468286D01*
X137431177Y-77721844D01*
X137184510Y-77126337D01*
X136929401Y-76961204D01*
X135744605Y-78146000D01*
X135385395Y-78146000D01*
X134200599Y-76961204D01*
X133945490Y-77126337D01*
X133678560Y-77823714D01*
X131528000Y-77823714D01*
X131528000Y-76781599D01*
X134380204Y-76781599D01*
X135565000Y-77966395D01*
X136749796Y-76781599D01*
X136584663Y-76526490D01*
X135887286Y-76259560D01*
X135140844Y-76279823D01*
X134545337Y-76526490D01*
X134380204Y-76781599D01*
X131528000Y-76781599D01*
X131528000Y-74430401D01*
X134380204Y-74430401D01*
X134545337Y-74685510D01*
X135242714Y-74952440D01*
X135989156Y-74932177D01*
X136584663Y-74685510D01*
X136749796Y-74430401D01*
X135565000Y-73245605D01*
X134380204Y-74430401D01*
X131528000Y-74430401D01*
X131528000Y-72743714D01*
X133678560Y-72743714D01*
X133698823Y-73490156D01*
X133945490Y-74085663D01*
X134200599Y-74250796D01*
X135385395Y-73066000D01*
X135744605Y-73066000D01*
X136929401Y-74250796D01*
X137184510Y-74085663D01*
X137451440Y-73388286D01*
X137431177Y-72641844D01*
X137184510Y-72046337D01*
X136929401Y-71881204D01*
X135744605Y-73066000D01*
X135385395Y-73066000D01*
X134200599Y-71881204D01*
X133945490Y-72046337D01*
X133678560Y-72743714D01*
X131528000Y-72743714D01*
X131528000Y-71701599D01*
X134380204Y-71701599D01*
X135565000Y-72886395D01*
X136749796Y-71701599D01*
X136584663Y-71446490D01*
X135887286Y-71179560D01*
X135140844Y-71199823D01*
X134545337Y-71446490D01*
X134380204Y-71701599D01*
X131528000Y-71701599D01*
X131528000Y-65577530D01*
X133688216Y-67737746D01*
X133687675Y-68357720D01*
X133972829Y-69047846D01*
X134500376Y-69576316D01*
X135190004Y-69862674D01*
X135936720Y-69863325D01*
X136626846Y-69578171D01*
X137155316Y-69050624D01*
X137441674Y-68360996D01*
X137442325Y-67614280D01*
X137157171Y-66924154D01*
X136629624Y-66395684D01*
X135939996Y-66109326D01*
X135388375Y-66108845D01*
X134779530Y-65500000D01*
X142765635Y-65500000D01*
X142765635Y-66700000D01*
X142795409Y-66858237D01*
X142888927Y-67003567D01*
X143031619Y-67101064D01*
X143201000Y-67135365D01*
X144401000Y-67135365D01*
X144559237Y-67105591D01*
X144704567Y-67012073D01*
X144802064Y-66869381D01*
X144830897Y-66727000D01*
X145133288Y-66727000D01*
X145901000Y-67494712D01*
X145901000Y-68830010D01*
X145802349Y-68789256D01*
X145160605Y-69431000D01*
X145802349Y-70072744D01*
X145901000Y-70031990D01*
X145901000Y-72682000D01*
X145948728Y-72921943D01*
X146071301Y-73105387D01*
X146084644Y-73125356D01*
X146723998Y-73764710D01*
X146833019Y-74028560D01*
X147095181Y-74291180D01*
X146834133Y-74551772D01*
X146662196Y-74965842D01*
X146661805Y-75414191D01*
X146833019Y-75828560D01*
X147082681Y-76078658D01*
X146834133Y-76326772D01*
X146662196Y-76740842D01*
X146661805Y-77189191D01*
X146833019Y-77603560D01*
X147147637Y-77918728D01*
X147147256Y-77919651D01*
X147789000Y-78561395D01*
X148430744Y-77919651D01*
X148430204Y-77918344D01*
X148743867Y-77605228D01*
X148775990Y-77527868D01*
X148953356Y-77409356D01*
X149533454Y-76829258D01*
X149645181Y-76941180D01*
X149384133Y-77201772D01*
X149212196Y-77615842D01*
X149211805Y-78064191D01*
X149383019Y-78478560D01*
X149632681Y-78728658D01*
X149384133Y-78976772D01*
X149212196Y-79390842D01*
X149211805Y-79839191D01*
X149383019Y-80253560D01*
X149632681Y-80503658D01*
X149384133Y-80751772D01*
X149212196Y-81165842D01*
X149211805Y-81614191D01*
X149383019Y-82028560D01*
X149632681Y-82278658D01*
X149384133Y-82526772D01*
X149212196Y-82940842D01*
X149211805Y-83389191D01*
X149383019Y-83803560D01*
X149699772Y-84120867D01*
X150113842Y-84292804D01*
X150562191Y-84293195D01*
X150976560Y-84121981D01*
X151105767Y-83993000D01*
X152065000Y-83993000D01*
X152381479Y-83930048D01*
X152649777Y-83750777D01*
X153064555Y-83336000D01*
X153574635Y-83336000D01*
X153574635Y-84214000D01*
X153604409Y-84372237D01*
X153697927Y-84517567D01*
X153840619Y-84615064D01*
X154010000Y-84649365D01*
X155510000Y-84649365D01*
X155668237Y-84619591D01*
X155813567Y-84526073D01*
X155911064Y-84383381D01*
X155945365Y-84214000D01*
X155945365Y-83322995D01*
X159371788Y-83322995D01*
X159558194Y-83774131D01*
X159903053Y-84119593D01*
X160353864Y-84306786D01*
X160841995Y-84307212D01*
X161289403Y-84122346D01*
X164243974Y-84122346D01*
X164258635Y-85011363D01*
X164570640Y-85764610D01*
X164862964Y-85973431D01*
X166306395Y-84530000D01*
X164862964Y-83086569D01*
X164570640Y-83295390D01*
X164243974Y-84122346D01*
X161289403Y-84122346D01*
X161293131Y-84120806D01*
X161638593Y-83775947D01*
X161825786Y-83325136D01*
X161826212Y-82837005D01*
X161639806Y-82385869D01*
X161294947Y-82040407D01*
X160844136Y-81853214D01*
X160356005Y-81852788D01*
X159904869Y-82039194D01*
X159559407Y-82384053D01*
X159372214Y-82834864D01*
X159371788Y-83322995D01*
X155945365Y-83322995D01*
X155945365Y-83314000D01*
X155915591Y-83155763D01*
X155822073Y-83010433D01*
X155788026Y-82987170D01*
X155893301Y-82829613D01*
X155960059Y-82494000D01*
X155893301Y-82158387D01*
X155703192Y-81873867D01*
X155680942Y-81859000D01*
X155703192Y-81844133D01*
X155893301Y-81559613D01*
X155960059Y-81224000D01*
X155893301Y-80888387D01*
X155703192Y-80603867D01*
X155418672Y-80413758D01*
X155083059Y-80347000D01*
X154436941Y-80347000D01*
X154101328Y-80413758D01*
X153816808Y-80603867D01*
X153626699Y-80888387D01*
X153559941Y-81224000D01*
X153626699Y-81559613D01*
X153708475Y-81682000D01*
X153064555Y-81682000D01*
X152737000Y-81354446D01*
X152737000Y-79070891D01*
X152755603Y-79092458D01*
X153148383Y-79290180D01*
X153322000Y-79217084D01*
X153322000Y-78331000D01*
X153576000Y-78331000D01*
X153576000Y-79217084D01*
X153749617Y-79290180D01*
X154142397Y-79092458D01*
X154429613Y-78759477D01*
X154535167Y-78504615D01*
X154502233Y-78427191D01*
X154861805Y-78427191D01*
X155033019Y-78841560D01*
X155349772Y-79158867D01*
X155763842Y-79330804D01*
X156212191Y-79331195D01*
X156626560Y-79159981D01*
X156728719Y-79058000D01*
X159416921Y-79058000D01*
X159502709Y-79489284D01*
X159747012Y-79854909D01*
X160112637Y-80099212D01*
X160543921Y-80185000D01*
X160588079Y-80185000D01*
X161019363Y-80099212D01*
X161384988Y-79854909D01*
X161629291Y-79489284D01*
X161670683Y-79281191D01*
X161978805Y-79281191D01*
X162150019Y-79695560D01*
X162466772Y-80012867D01*
X162880842Y-80184804D01*
X163329191Y-80185195D01*
X163743560Y-80013981D01*
X164060867Y-79697228D01*
X164232804Y-79283158D01*
X164233195Y-78834809D01*
X164061981Y-78420440D01*
X163745228Y-78103133D01*
X163331158Y-77931196D01*
X162882809Y-77930805D01*
X162468440Y-78102019D01*
X162151133Y-78418772D01*
X161979196Y-78832842D01*
X161978805Y-79281191D01*
X161670683Y-79281191D01*
X161715079Y-79058000D01*
X161629291Y-78626716D01*
X161384988Y-78261091D01*
X161019363Y-78016788D01*
X160588079Y-77931000D01*
X160543921Y-77931000D01*
X160112637Y-78016788D01*
X159747012Y-78261091D01*
X159502709Y-78626716D01*
X159416921Y-79058000D01*
X156728719Y-79058000D01*
X156943867Y-78843228D01*
X157115804Y-78429158D01*
X157116195Y-77980809D01*
X156944981Y-77566440D01*
X156742242Y-77363346D01*
X164133974Y-77363346D01*
X164148635Y-78252363D01*
X164460640Y-79005610D01*
X164752964Y-79214431D01*
X166196395Y-77771000D01*
X164752964Y-76327569D01*
X164460640Y-76536390D01*
X164133974Y-77363346D01*
X156742242Y-77363346D01*
X156628228Y-77249133D01*
X156214158Y-77077196D01*
X155765809Y-77076805D01*
X155351440Y-77248019D01*
X155034133Y-77564772D01*
X154862196Y-77978842D01*
X154861805Y-78427191D01*
X154502233Y-78427191D01*
X154461315Y-78331000D01*
X153576000Y-78331000D01*
X153322000Y-78331000D01*
X153302000Y-78331000D01*
X153302000Y-78077000D01*
X153322000Y-78077000D01*
X153322000Y-77190916D01*
X153576000Y-77190916D01*
X153576000Y-78077000D01*
X154461315Y-78077000D01*
X154535167Y-77903385D01*
X154429613Y-77648523D01*
X154142397Y-77315542D01*
X153749617Y-77117820D01*
X153576000Y-77190916D01*
X153322000Y-77190916D01*
X153148383Y-77117820D01*
X152755603Y-77315542D01*
X152737000Y-77337109D01*
X152737000Y-75115555D01*
X152765223Y-75143778D01*
X153033521Y-75323048D01*
X153350000Y-75386000D01*
X153574635Y-75386000D01*
X153574635Y-76279000D01*
X153604409Y-76437237D01*
X153697927Y-76582567D01*
X153840619Y-76680064D01*
X154010000Y-76714365D01*
X155510000Y-76714365D01*
X155668237Y-76684591D01*
X155813567Y-76591073D01*
X155911064Y-76448381D01*
X155945365Y-76279000D01*
X155945365Y-75379000D01*
X155915591Y-75220763D01*
X155822073Y-75075433D01*
X155788026Y-75052170D01*
X155893301Y-74894613D01*
X155936786Y-74676000D01*
X159279635Y-74676000D01*
X159279635Y-76276000D01*
X159309409Y-76434237D01*
X159402927Y-76579567D01*
X159545619Y-76677064D01*
X159715000Y-76711365D01*
X161315000Y-76711365D01*
X161473237Y-76681591D01*
X161618567Y-76588073D01*
X161716064Y-76445381D01*
X161750365Y-76276000D01*
X161750365Y-76147964D01*
X164932569Y-76147964D01*
X166376000Y-77591395D01*
X167819431Y-76147964D01*
X167610610Y-75855640D01*
X166783654Y-75528974D01*
X165894637Y-75543635D01*
X165141390Y-75855640D01*
X164932569Y-76147964D01*
X161750365Y-76147964D01*
X161750365Y-74676000D01*
X161720591Y-74517763D01*
X161627073Y-74372433D01*
X161484381Y-74274936D01*
X161315000Y-74240635D01*
X159715000Y-74240635D01*
X159556763Y-74270409D01*
X159411433Y-74363927D01*
X159313936Y-74506619D01*
X159279635Y-74676000D01*
X155936786Y-74676000D01*
X155960059Y-74559000D01*
X155893301Y-74223387D01*
X155703192Y-73938867D01*
X155680942Y-73924000D01*
X155703192Y-73909133D01*
X155893301Y-73624613D01*
X155960059Y-73289000D01*
X155946135Y-73218995D01*
X159287788Y-73218995D01*
X159474194Y-73670131D01*
X159819053Y-74015593D01*
X160269864Y-74202786D01*
X160757995Y-74203212D01*
X161209131Y-74016806D01*
X161554593Y-73671947D01*
X161741786Y-73221136D01*
X161741884Y-73108063D01*
X164673705Y-73108063D01*
X164932273Y-73733846D01*
X165410636Y-74213044D01*
X166035966Y-74472704D01*
X166713063Y-74473295D01*
X167338846Y-74214727D01*
X167818044Y-73736364D01*
X168077704Y-73111034D01*
X168078295Y-72433937D01*
X167819727Y-71808154D01*
X167341364Y-71328956D01*
X166716034Y-71069296D01*
X166038937Y-71068705D01*
X165413154Y-71327273D01*
X164933956Y-71805636D01*
X164674296Y-72430966D01*
X164673705Y-73108063D01*
X161741884Y-73108063D01*
X161742212Y-72733005D01*
X161555806Y-72281869D01*
X161210947Y-71936407D01*
X160760136Y-71749214D01*
X160272005Y-71748788D01*
X159820869Y-71935194D01*
X159475407Y-72280053D01*
X159288214Y-72730864D01*
X159287788Y-73218995D01*
X155946135Y-73218995D01*
X155893301Y-72953387D01*
X155703192Y-72668867D01*
X155418672Y-72478758D01*
X155083059Y-72412000D01*
X154436941Y-72412000D01*
X154101328Y-72478758D01*
X153816808Y-72668867D01*
X153626699Y-72953387D01*
X153559941Y-73289000D01*
X153626699Y-73624613D01*
X153698452Y-73732000D01*
X153692555Y-73732000D01*
X152737000Y-72776446D01*
X152737000Y-71188962D01*
X152742603Y-71195458D01*
X153135383Y-71393180D01*
X153309000Y-71320084D01*
X153309000Y-70434000D01*
X153563000Y-70434000D01*
X153563000Y-71320084D01*
X153736617Y-71393180D01*
X154129397Y-71195458D01*
X154416613Y-70862477D01*
X154522167Y-70607615D01*
X154489233Y-70530191D01*
X154848805Y-70530191D01*
X155020019Y-70944560D01*
X155336772Y-71261867D01*
X155750842Y-71433804D01*
X156199191Y-71434195D01*
X156613560Y-71262981D01*
X156930867Y-70946228D01*
X157102804Y-70532158D01*
X157103195Y-70083809D01*
X156931981Y-69669440D01*
X156615228Y-69352133D01*
X156201158Y-69180196D01*
X155752809Y-69179805D01*
X155338440Y-69351019D01*
X155021133Y-69667772D01*
X154849196Y-70081842D01*
X154848805Y-70530191D01*
X154489233Y-70530191D01*
X154448315Y-70434000D01*
X153563000Y-70434000D01*
X153309000Y-70434000D01*
X153289000Y-70434000D01*
X153289000Y-70180000D01*
X153309000Y-70180000D01*
X153309000Y-69293916D01*
X153563000Y-69293916D01*
X153563000Y-70180000D01*
X154448315Y-70180000D01*
X154522167Y-70006385D01*
X154416613Y-69751523D01*
X154129397Y-69418542D01*
X153736617Y-69220820D01*
X153563000Y-69293916D01*
X153309000Y-69293916D01*
X153135383Y-69220820D01*
X152742603Y-69418542D01*
X152737000Y-69425038D01*
X152737000Y-69124000D01*
X159396921Y-69124000D01*
X159482709Y-69555284D01*
X159727012Y-69920909D01*
X160092637Y-70165212D01*
X160523921Y-70251000D01*
X160568079Y-70251000D01*
X160999363Y-70165212D01*
X161364988Y-69920909D01*
X161609291Y-69555284D01*
X161650683Y-69347191D01*
X161958805Y-69347191D01*
X162130019Y-69761560D01*
X162446772Y-70078867D01*
X162860842Y-70250804D01*
X163309191Y-70251195D01*
X163723560Y-70079981D01*
X164040867Y-69763228D01*
X164194169Y-69394036D01*
X164932569Y-69394036D01*
X165141390Y-69686360D01*
X165968346Y-70013026D01*
X166857363Y-69998365D01*
X167610610Y-69686360D01*
X167819431Y-69394036D01*
X166376000Y-67950605D01*
X164932569Y-69394036D01*
X164194169Y-69394036D01*
X164212804Y-69349158D01*
X164213195Y-68900809D01*
X164041981Y-68486440D01*
X163725228Y-68169133D01*
X163311158Y-67997196D01*
X162862809Y-67996805D01*
X162448440Y-68168019D01*
X162131133Y-68484772D01*
X161959196Y-68898842D01*
X161958805Y-69347191D01*
X161650683Y-69347191D01*
X161695079Y-69124000D01*
X161609291Y-68692716D01*
X161364988Y-68327091D01*
X160999363Y-68082788D01*
X160568079Y-67997000D01*
X160523921Y-67997000D01*
X160092637Y-68082788D01*
X159727012Y-68327091D01*
X159482709Y-68692716D01*
X159396921Y-69124000D01*
X152737000Y-69124000D01*
X152737000Y-68010554D01*
X153463555Y-67284000D01*
X153561635Y-67284000D01*
X153561635Y-68177000D01*
X153591409Y-68335237D01*
X153684927Y-68480567D01*
X153827619Y-68578064D01*
X153997000Y-68612365D01*
X155497000Y-68612365D01*
X155655237Y-68582591D01*
X155800567Y-68489073D01*
X155898064Y-68346381D01*
X155932365Y-68177000D01*
X155932365Y-67363346D01*
X164133974Y-67363346D01*
X164148635Y-68252363D01*
X164460640Y-69005610D01*
X164752964Y-69214431D01*
X166196395Y-67771000D01*
X164752964Y-66327569D01*
X164460640Y-66536390D01*
X164133974Y-67363346D01*
X155932365Y-67363346D01*
X155932365Y-67277000D01*
X155902591Y-67118763D01*
X155809073Y-66973433D01*
X155775026Y-66950170D01*
X155880301Y-66792613D01*
X155947059Y-66457000D01*
X155880301Y-66121387D01*
X155690192Y-65836867D01*
X155667942Y-65822000D01*
X155690192Y-65807133D01*
X155880301Y-65522613D01*
X155947059Y-65187000D01*
X155886789Y-64884000D01*
X159317635Y-64884000D01*
X159317635Y-66484000D01*
X159347409Y-66642237D01*
X159440927Y-66787567D01*
X159583619Y-66885064D01*
X159753000Y-66919365D01*
X161353000Y-66919365D01*
X161511237Y-66889591D01*
X161656567Y-66796073D01*
X161754064Y-66653381D01*
X161788365Y-66484000D01*
X161788365Y-64884000D01*
X161758591Y-64725763D01*
X161665073Y-64580433D01*
X161522381Y-64482936D01*
X161353000Y-64448635D01*
X159753000Y-64448635D01*
X159594763Y-64478409D01*
X159449433Y-64571927D01*
X159351936Y-64714619D01*
X159317635Y-64884000D01*
X155886789Y-64884000D01*
X155880301Y-64851387D01*
X155690192Y-64566867D01*
X155405672Y-64376758D01*
X155070059Y-64310000D01*
X154423941Y-64310000D01*
X154088328Y-64376758D01*
X153814085Y-64560000D01*
X153554712Y-64560000D01*
X152519000Y-63524288D01*
X152519000Y-63426995D01*
X159325788Y-63426995D01*
X159512194Y-63878131D01*
X159857053Y-64223593D01*
X160307864Y-64410786D01*
X160795995Y-64411212D01*
X161247131Y-64224806D01*
X161592593Y-63879947D01*
X161779786Y-63429136D01*
X161780212Y-62941005D01*
X161593806Y-62489869D01*
X161248947Y-62144407D01*
X160798136Y-61957214D01*
X160310005Y-61956788D01*
X159858869Y-62143194D01*
X159513407Y-62488053D01*
X159326214Y-62938864D01*
X159325788Y-63426995D01*
X152519000Y-63426995D01*
X152519000Y-62992000D01*
X152508887Y-62941158D01*
X152485948Y-62825837D01*
X152755603Y-63138458D01*
X153148383Y-63336180D01*
X153322000Y-63263084D01*
X153322000Y-62377000D01*
X153576000Y-62377000D01*
X153576000Y-63263084D01*
X153749617Y-63336180D01*
X154142397Y-63138458D01*
X154429613Y-62805477D01*
X154535167Y-62550615D01*
X154502233Y-62473191D01*
X154861805Y-62473191D01*
X155033019Y-62887560D01*
X155349772Y-63204867D01*
X155763842Y-63376804D01*
X156212191Y-63377195D01*
X156626560Y-63205981D01*
X156943867Y-62889228D01*
X157115804Y-62475158D01*
X157116195Y-62026809D01*
X156944981Y-61612440D01*
X156628228Y-61295133D01*
X156214158Y-61123196D01*
X155765809Y-61122805D01*
X155351440Y-61294019D01*
X155034133Y-61610772D01*
X154862196Y-62024842D01*
X154861805Y-62473191D01*
X154502233Y-62473191D01*
X154461315Y-62377000D01*
X153576000Y-62377000D01*
X153322000Y-62377000D01*
X152436685Y-62377000D01*
X152362833Y-62550615D01*
X152405485Y-62653600D01*
X152335356Y-62548644D01*
X151736097Y-61949385D01*
X152362833Y-61949385D01*
X152436685Y-62123000D01*
X153322000Y-62123000D01*
X153322000Y-61236916D01*
X153576000Y-61236916D01*
X153576000Y-62123000D01*
X154461315Y-62123000D01*
X154535167Y-61949385D01*
X154429613Y-61694523D01*
X154142397Y-61361542D01*
X153749617Y-61163820D01*
X153576000Y-61236916D01*
X153322000Y-61236916D01*
X153148383Y-61163820D01*
X152755603Y-61361542D01*
X152468387Y-61694523D01*
X152362833Y-61949385D01*
X151736097Y-61949385D01*
X151522356Y-61735644D01*
X151460814Y-61694523D01*
X151318943Y-61599728D01*
X151079000Y-61552000D01*
X149799000Y-61552000D01*
X149559058Y-61599727D01*
X149355644Y-61735644D01*
X148823301Y-62267987D01*
X148744981Y-62078440D01*
X148428228Y-61761133D01*
X148014158Y-61589196D01*
X147565809Y-61588805D01*
X147151440Y-61760019D01*
X146834133Y-62076772D01*
X146662196Y-62490842D01*
X146661805Y-62939191D01*
X146833019Y-63353560D01*
X147082681Y-63603658D01*
X146834133Y-63851772D01*
X146662196Y-64265842D01*
X146661805Y-64714191D01*
X146833019Y-65128560D01*
X147095181Y-65391180D01*
X146834133Y-65651772D01*
X146662196Y-66065842D01*
X146661833Y-66482121D01*
X145836356Y-65656644D01*
X145831561Y-65653440D01*
X145632943Y-65520728D01*
X145393000Y-65473000D01*
X144831285Y-65473000D01*
X144806591Y-65341763D01*
X144713073Y-65196433D01*
X144675904Y-65171036D01*
X144827821Y-64805179D01*
X144828178Y-64396613D01*
X144672156Y-64019011D01*
X144383508Y-63729860D01*
X144006179Y-63573179D01*
X143597613Y-63572822D01*
X143220011Y-63728844D01*
X142930860Y-64017492D01*
X142774179Y-64394821D01*
X142773822Y-64803387D01*
X142925301Y-65169994D01*
X142897433Y-65187927D01*
X142799936Y-65330619D01*
X142765635Y-65500000D01*
X134779530Y-65500000D01*
X133460000Y-64180470D01*
X133460000Y-62141758D01*
X133479145Y-62188092D01*
X134170270Y-62880423D01*
X135073729Y-63255573D01*
X136051980Y-63256426D01*
X136956092Y-62882855D01*
X137648423Y-62191730D01*
X137971780Y-61413000D01*
X141345921Y-61413000D01*
X141431709Y-61844284D01*
X141676012Y-62209909D01*
X142041637Y-62454212D01*
X142472921Y-62540000D01*
X142517079Y-62540000D01*
X142948363Y-62454212D01*
X143277410Y-62234349D01*
X144393256Y-62234349D01*
X144466472Y-62411578D01*
X144891888Y-62553131D01*
X145339091Y-62521111D01*
X145603528Y-62411578D01*
X145676744Y-62234349D01*
X145035000Y-61592605D01*
X144393256Y-62234349D01*
X143277410Y-62234349D01*
X143313988Y-62209909D01*
X143558291Y-61844284D01*
X143644079Y-61413000D01*
X143615613Y-61269888D01*
X143894869Y-61269888D01*
X143926889Y-61717091D01*
X144036422Y-61981528D01*
X144213651Y-62054744D01*
X144855395Y-61413000D01*
X145214605Y-61413000D01*
X145856349Y-62054744D01*
X146033578Y-61981528D01*
X146175131Y-61556112D01*
X146143111Y-61108909D01*
X146033578Y-60844472D01*
X145856349Y-60771256D01*
X145214605Y-61413000D01*
X144855395Y-61413000D01*
X144213651Y-60771256D01*
X144036422Y-60844472D01*
X143894869Y-61269888D01*
X143615613Y-61269888D01*
X143558291Y-60981716D01*
X143313988Y-60616091D01*
X143277411Y-60591651D01*
X144393256Y-60591651D01*
X145035000Y-61233395D01*
X145676744Y-60591651D01*
X145673727Y-60584346D01*
X164057974Y-60584346D01*
X164072635Y-61473363D01*
X164384640Y-62226610D01*
X164676964Y-62435431D01*
X166120395Y-60992000D01*
X164676964Y-59548569D01*
X164384640Y-59757390D01*
X164057974Y-60584346D01*
X145673727Y-60584346D01*
X145603528Y-60414422D01*
X145178112Y-60272869D01*
X144730909Y-60304889D01*
X144466472Y-60414422D01*
X144393256Y-60591651D01*
X143277411Y-60591651D01*
X142948363Y-60371788D01*
X142517079Y-60286000D01*
X142472921Y-60286000D01*
X142041637Y-60371788D01*
X141676012Y-60616091D01*
X141431709Y-60981716D01*
X141345921Y-61413000D01*
X137971780Y-61413000D01*
X138023573Y-61288271D01*
X138024426Y-60310020D01*
X137650855Y-59405908D01*
X136959730Y-58713577D01*
X136056271Y-58338427D01*
X135078020Y-58337574D01*
X134173908Y-58711145D01*
X133481577Y-59402270D01*
X133460000Y-59454233D01*
X133460000Y-55909000D01*
X138642635Y-55909000D01*
X138642635Y-59409000D01*
X138672409Y-59567237D01*
X138765927Y-59712567D01*
X138908619Y-59810064D01*
X139078000Y-59844365D01*
X142578000Y-59844365D01*
X142736237Y-59814591D01*
X142881567Y-59721073D01*
X142979064Y-59578381D01*
X143013365Y-59409000D01*
X143013365Y-58440850D01*
X146125681Y-58440850D01*
X146159274Y-58848033D01*
X146250467Y-59068193D01*
X146417347Y-59129048D01*
X146986395Y-58560000D01*
X146417347Y-57990952D01*
X146250467Y-58051807D01*
X146125681Y-58440850D01*
X143013365Y-58440850D01*
X143013365Y-57811347D01*
X146596952Y-57811347D01*
X147166000Y-58380395D01*
X147180143Y-58366253D01*
X147359748Y-58545858D01*
X147345605Y-58560000D01*
X147359748Y-58574143D01*
X147180143Y-58753748D01*
X147166000Y-58739605D01*
X146596952Y-59308653D01*
X146657807Y-59475533D01*
X147046850Y-59600319D01*
X147454033Y-59566726D01*
X147674193Y-59475533D01*
X147705819Y-59388806D01*
X147753927Y-59463567D01*
X147896619Y-59561064D01*
X148066000Y-59595365D01*
X149266000Y-59595365D01*
X149424237Y-59565591D01*
X149569567Y-59472073D01*
X149640018Y-59368964D01*
X164856569Y-59368964D01*
X166300000Y-60812395D01*
X167743431Y-59368964D01*
X167534610Y-59076640D01*
X166707654Y-58749974D01*
X165818637Y-58764635D01*
X165065390Y-59076640D01*
X164856569Y-59368964D01*
X149640018Y-59368964D01*
X149667064Y-59329381D01*
X149701365Y-59160000D01*
X149701365Y-57960000D01*
X149671591Y-57801763D01*
X149578073Y-57656433D01*
X149435381Y-57558936D01*
X149266000Y-57524635D01*
X148066000Y-57524635D01*
X147907763Y-57554409D01*
X147762433Y-57647927D01*
X147705722Y-57730927D01*
X147674193Y-57644467D01*
X147285150Y-57519681D01*
X146877967Y-57553274D01*
X146657807Y-57644467D01*
X146596952Y-57811347D01*
X143013365Y-57811347D01*
X143013365Y-56087350D01*
X151172000Y-56087350D01*
X151172000Y-57922650D01*
X151271109Y-58420904D01*
X151553347Y-58843303D01*
X151975746Y-59125541D01*
X152474000Y-59224650D01*
X152972254Y-59125541D01*
X153394653Y-58843303D01*
X153676891Y-58420904D01*
X153724000Y-58184071D01*
X153771109Y-58420904D01*
X154053347Y-58843303D01*
X154475746Y-59125541D01*
X154974000Y-59224650D01*
X155472254Y-59125541D01*
X155894653Y-58843303D01*
X156176891Y-58420904D01*
X156276000Y-57922650D01*
X156276000Y-57138387D01*
X156446822Y-57138387D01*
X156602844Y-57515989D01*
X156891492Y-57805140D01*
X157268821Y-57961821D01*
X157677387Y-57962178D01*
X158054989Y-57806156D01*
X158344140Y-57517508D01*
X158500821Y-57140179D01*
X158501178Y-56731613D01*
X158345156Y-56354011D01*
X158056508Y-56064860D01*
X157679179Y-55908179D01*
X157270613Y-55907822D01*
X156893011Y-56063844D01*
X156603860Y-56352492D01*
X156447179Y-56729821D01*
X156446822Y-57138387D01*
X156276000Y-57138387D01*
X156276000Y-56087350D01*
X156176891Y-55589096D01*
X155894653Y-55166697D01*
X155472254Y-54884459D01*
X154974000Y-54785350D01*
X154475746Y-54884459D01*
X154053347Y-55166697D01*
X153771109Y-55589096D01*
X153724000Y-55825929D01*
X153676891Y-55589096D01*
X153394653Y-55166697D01*
X152972254Y-54884459D01*
X152474000Y-54785350D01*
X151975746Y-54884459D01*
X151553347Y-55166697D01*
X151271109Y-55589096D01*
X151172000Y-56087350D01*
X143013365Y-56087350D01*
X143013365Y-55909000D01*
X142983591Y-55750763D01*
X142890073Y-55605433D01*
X142747381Y-55507936D01*
X142578000Y-55473635D01*
X139078000Y-55473635D01*
X138919763Y-55503409D01*
X138774433Y-55596927D01*
X138676936Y-55739619D01*
X138642635Y-55909000D01*
X133460000Y-55909000D01*
X133460000Y-53192750D01*
X135651000Y-53192750D01*
X135651000Y-54793936D01*
X135716007Y-54950876D01*
X135836124Y-55070993D01*
X135993065Y-55136000D01*
X137594250Y-55136000D01*
X137701000Y-55029250D01*
X137701000Y-53086000D01*
X137955000Y-53086000D01*
X137955000Y-55029250D01*
X138061750Y-55136000D01*
X139662935Y-55136000D01*
X139819876Y-55070993D01*
X139939993Y-54950876D01*
X140005000Y-54793936D01*
X140005000Y-53192750D01*
X139898250Y-53086000D01*
X137955000Y-53086000D01*
X137701000Y-53086000D01*
X135757750Y-53086000D01*
X135651000Y-53192750D01*
X133460000Y-53192750D01*
X133460000Y-52887530D01*
X135493529Y-50854000D01*
X135829131Y-50854000D01*
X135716007Y-50967124D01*
X135651000Y-51124064D01*
X135651000Y-52725250D01*
X135757750Y-52832000D01*
X137701000Y-52832000D01*
X137701000Y-52812000D01*
X137955000Y-52812000D01*
X137955000Y-52832000D01*
X139898250Y-52832000D01*
X140005000Y-52725250D01*
X140005000Y-51124064D01*
X139939993Y-50967124D01*
X139826869Y-50854000D01*
X141841143Y-50854000D01*
X141774433Y-50896927D01*
X141676936Y-51039619D01*
X141642635Y-51209000D01*
X141642635Y-54709000D01*
X141672409Y-54867237D01*
X141765927Y-55012567D01*
X141908619Y-55110064D01*
X142078000Y-55144365D01*
X145578000Y-55144365D01*
X145736237Y-55114591D01*
X145881567Y-55021073D01*
X145979064Y-54878381D01*
X146013365Y-54709000D01*
X146013365Y-52278387D01*
X151436822Y-52278387D01*
X151592844Y-52655989D01*
X151881492Y-52945140D01*
X152258821Y-53101821D01*
X152667387Y-53102178D01*
X153044989Y-52946156D01*
X153334140Y-52657508D01*
X153490821Y-52280179D01*
X153490862Y-52232750D01*
X155297000Y-52232750D01*
X155297000Y-53333936D01*
X155362007Y-53490876D01*
X155482124Y-53610993D01*
X155639065Y-53676000D01*
X157240250Y-53676000D01*
X157347000Y-53569250D01*
X157347000Y-52126000D01*
X157601000Y-52126000D01*
X157601000Y-53569250D01*
X157707750Y-53676000D01*
X159308935Y-53676000D01*
X159465876Y-53610993D01*
X159585993Y-53490876D01*
X159651000Y-53333936D01*
X159651000Y-52278387D01*
X161456822Y-52278387D01*
X161612844Y-52655989D01*
X161901492Y-52945140D01*
X162278821Y-53101821D01*
X162687387Y-53102178D01*
X163064989Y-52946156D01*
X163354140Y-52657508D01*
X163371775Y-52615036D01*
X164856569Y-52615036D01*
X165065390Y-52907360D01*
X165892346Y-53234026D01*
X166781363Y-53219365D01*
X167534610Y-52907360D01*
X167743431Y-52615036D01*
X166300000Y-51171605D01*
X164856569Y-52615036D01*
X163371775Y-52615036D01*
X163510821Y-52280179D01*
X163511178Y-51871613D01*
X163355156Y-51494011D01*
X163066508Y-51204860D01*
X162689179Y-51048179D01*
X162280613Y-51047822D01*
X161903011Y-51203844D01*
X161613860Y-51492492D01*
X161457179Y-51869821D01*
X161456822Y-52278387D01*
X159651000Y-52278387D01*
X159651000Y-52232750D01*
X159544250Y-52126000D01*
X157601000Y-52126000D01*
X157347000Y-52126000D01*
X155403750Y-52126000D01*
X155297000Y-52232750D01*
X153490862Y-52232750D01*
X153491178Y-51871613D01*
X153335156Y-51494011D01*
X153046508Y-51204860D01*
X152669179Y-51048179D01*
X152260613Y-51047822D01*
X151883011Y-51203844D01*
X151593860Y-51492492D01*
X151437179Y-51869821D01*
X151436822Y-52278387D01*
X146013365Y-52278387D01*
X146013365Y-51209000D01*
X145983591Y-51050763D01*
X145890073Y-50905433D01*
X145747381Y-50807936D01*
X145578000Y-50773635D01*
X144941474Y-50773635D01*
X144919680Y-50664064D01*
X155297000Y-50664064D01*
X155297000Y-51765250D01*
X155403750Y-51872000D01*
X157347000Y-51872000D01*
X157347000Y-50428750D01*
X157601000Y-50428750D01*
X157601000Y-51872000D01*
X159544250Y-51872000D01*
X159651000Y-51765250D01*
X159651000Y-50664064D01*
X159617980Y-50584346D01*
X164057974Y-50584346D01*
X164072635Y-51473363D01*
X164384640Y-52226610D01*
X164676964Y-52435431D01*
X166120395Y-50992000D01*
X166479605Y-50992000D01*
X167923036Y-52435431D01*
X168215360Y-52226610D01*
X168542026Y-51399654D01*
X168527365Y-50510637D01*
X168215360Y-49757390D01*
X167923036Y-49548569D01*
X166479605Y-50992000D01*
X166120395Y-50992000D01*
X164676964Y-49548569D01*
X164384640Y-49757390D01*
X164057974Y-50584346D01*
X159617980Y-50584346D01*
X159585993Y-50507124D01*
X159465876Y-50387007D01*
X159308935Y-50322000D01*
X157707750Y-50322000D01*
X157601000Y-50428750D01*
X157347000Y-50428750D01*
X157240250Y-50322000D01*
X155639065Y-50322000D01*
X155482124Y-50387007D01*
X155362007Y-50507124D01*
X155297000Y-50664064D01*
X144919680Y-50664064D01*
X144915406Y-50642582D01*
X144660265Y-50260735D01*
X144660262Y-50260733D01*
X143270530Y-48871000D01*
X151695581Y-48871000D01*
X151563860Y-49002492D01*
M02*
