G04 #@! TF.FileFunction,Legend,Bot*
%FSLAX46Y46*%
G04 Gerber Fmt 4.6, Leading zero omitted, Abs format (unit mm)*
G04 Created by KiCad (PCBNEW 4.0.7) date 03/11/20 10:05:13*
%MOMM*%
%LPD*%
G01*
G04 APERTURE LIST*
%ADD10C,0.100000*%
%ADD11C,0.175000*%
%ADD12C,0.250000*%
%ADD13C,0.500000*%
%ADD14C,0.150000*%
%ADD15C,0.300000*%
%ADD16C,0.010000*%
G04 APERTURE END LIST*
D10*
D11*
X139433333Y-92649667D02*
X139766666Y-92649667D01*
X139800000Y-92983000D01*
X139766666Y-92949667D01*
X139700000Y-92916333D01*
X139533333Y-92916333D01*
X139466666Y-92949667D01*
X139433333Y-92983000D01*
X139400000Y-93049667D01*
X139400000Y-93216333D01*
X139433333Y-93283000D01*
X139466666Y-93316333D01*
X139533333Y-93349667D01*
X139700000Y-93349667D01*
X139766666Y-93316333D01*
X139800000Y-93283000D01*
X139199999Y-92649667D02*
X138966666Y-93349667D01*
X138733333Y-92649667D01*
X137066667Y-92683000D02*
X137133333Y-92649667D01*
X137233333Y-92649667D01*
X137333333Y-92683000D01*
X137400000Y-92749667D01*
X137433333Y-92816333D01*
X137466667Y-92949667D01*
X137466667Y-93049667D01*
X137433333Y-93183000D01*
X137400000Y-93249667D01*
X137333333Y-93316333D01*
X137233333Y-93349667D01*
X137166667Y-93349667D01*
X137066667Y-93316333D01*
X137033333Y-93283000D01*
X137033333Y-93049667D01*
X137166667Y-93049667D01*
X136733333Y-93349667D02*
X136733333Y-92649667D01*
X136333333Y-93349667D01*
X136333333Y-92649667D01*
X136000000Y-93349667D02*
X136000000Y-92649667D01*
X135833334Y-92649667D01*
X135733334Y-92683000D01*
X135666667Y-92749667D01*
X135633334Y-92816333D01*
X135600000Y-92949667D01*
X135600000Y-93049667D01*
X135633334Y-93183000D01*
X135666667Y-93249667D01*
X135733334Y-93316333D01*
X135833334Y-93349667D01*
X136000000Y-93349667D01*
X133866668Y-93349667D02*
X134266668Y-93349667D01*
X134066668Y-93349667D02*
X134066668Y-92649667D01*
X134133334Y-92749667D01*
X134200001Y-92816333D01*
X134266668Y-92849667D01*
X133600001Y-92716333D02*
X133566667Y-92683000D01*
X133500001Y-92649667D01*
X133333334Y-92649667D01*
X133266667Y-92683000D01*
X133233334Y-92716333D01*
X133200001Y-92783000D01*
X133200001Y-92849667D01*
X133233334Y-92949667D01*
X133633334Y-93349667D01*
X133200001Y-93349667D01*
X133000000Y-92649667D02*
X132766667Y-93349667D01*
X132533334Y-92649667D01*
D12*
X162499381Y-75547333D02*
X162023190Y-75213999D01*
X162499381Y-74975904D02*
X161499381Y-74975904D01*
X161499381Y-75356857D01*
X161547000Y-75452095D01*
X161594619Y-75499714D01*
X161689857Y-75547333D01*
X161832714Y-75547333D01*
X161927952Y-75499714D01*
X161975571Y-75452095D01*
X162023190Y-75356857D01*
X162023190Y-74975904D01*
X161547000Y-76499714D02*
X161499381Y-76404476D01*
X161499381Y-76261619D01*
X161547000Y-76118761D01*
X161642238Y-76023523D01*
X161737476Y-75975904D01*
X161927952Y-75928285D01*
X162070810Y-75928285D01*
X162261286Y-75975904D01*
X162356524Y-76023523D01*
X162451762Y-76118761D01*
X162499381Y-76261619D01*
X162499381Y-76356857D01*
X162451762Y-76499714D01*
X162404143Y-76547333D01*
X162070810Y-76547333D01*
X162070810Y-76356857D01*
X161975571Y-77309238D02*
X162023190Y-77452095D01*
X162070810Y-77499714D01*
X162166048Y-77547333D01*
X162308905Y-77547333D01*
X162404143Y-77499714D01*
X162451762Y-77452095D01*
X162499381Y-77356857D01*
X162499381Y-76975904D01*
X161499381Y-76975904D01*
X161499381Y-77309238D01*
X161547000Y-77404476D01*
X161594619Y-77452095D01*
X161689857Y-77499714D01*
X161785095Y-77499714D01*
X161880333Y-77452095D01*
X161927952Y-77404476D01*
X161975571Y-77309238D01*
X161975571Y-76975904D01*
X162451762Y-77928285D02*
X162499381Y-78023523D01*
X162499381Y-78213999D01*
X162451762Y-78309238D01*
X162356524Y-78356857D01*
X162308905Y-78356857D01*
X162213667Y-78309238D01*
X162166048Y-78213999D01*
X162166048Y-78071142D01*
X162118429Y-77975904D01*
X162023190Y-77928285D01*
X161975571Y-77928285D01*
X161880333Y-77975904D01*
X161832714Y-78071142D01*
X161832714Y-78213999D01*
X161880333Y-78309238D01*
X161451762Y-79499714D02*
X162737476Y-78642571D01*
X162023190Y-80023523D02*
X162499381Y-80023523D01*
X161499381Y-79690190D02*
X162023190Y-80023523D01*
X161499381Y-80356857D01*
X162499381Y-80690190D02*
X161499381Y-80690190D01*
X161499381Y-81071143D01*
X161547000Y-81166381D01*
X161594619Y-81214000D01*
X161689857Y-81261619D01*
X161832714Y-81261619D01*
X161927952Y-81214000D01*
X161975571Y-81166381D01*
X162023190Y-81071143D01*
X162023190Y-80690190D01*
X162499381Y-81690190D02*
X161832714Y-81690190D01*
X162023190Y-81690190D02*
X161927952Y-81737809D01*
X161880333Y-81785428D01*
X161832714Y-81880666D01*
X161832714Y-81975905D01*
X161975571Y-82642572D02*
X162023190Y-82785429D01*
X162070810Y-82833048D01*
X162166048Y-82880667D01*
X162308905Y-82880667D01*
X162404143Y-82833048D01*
X162451762Y-82785429D01*
X162499381Y-82690191D01*
X162499381Y-82309238D01*
X161499381Y-82309238D01*
X161499381Y-82642572D01*
X161547000Y-82737810D01*
X161594619Y-82785429D01*
X161689857Y-82833048D01*
X161785095Y-82833048D01*
X161880333Y-82785429D01*
X161927952Y-82737810D01*
X161975571Y-82642572D01*
X161975571Y-82309238D01*
X162499381Y-83309238D02*
X161832714Y-83309238D01*
X162023190Y-83309238D02*
X161927952Y-83356857D01*
X161880333Y-83404476D01*
X161832714Y-83499714D01*
X161832714Y-83594953D01*
X161499381Y-84547334D02*
X162499381Y-84880667D01*
X161499381Y-85214001D01*
X162499381Y-86071144D02*
X162499381Y-85499715D01*
X162499381Y-85785429D02*
X161499381Y-85785429D01*
X161642238Y-85690191D01*
X161737476Y-85594953D01*
X161785095Y-85499715D01*
X162404143Y-86499715D02*
X162451762Y-86547334D01*
X162499381Y-86499715D01*
X162451762Y-86452096D01*
X162404143Y-86499715D01*
X162499381Y-86499715D01*
X162499381Y-87499715D02*
X162499381Y-86928286D01*
X162499381Y-87214000D02*
X161499381Y-87214000D01*
X161642238Y-87118762D01*
X161737476Y-87023524D01*
X161785095Y-86928286D01*
D13*
X159205190Y-63187620D02*
X156605190Y-63187620D01*
X159205190Y-64673334D01*
X156605190Y-64673334D01*
X157843286Y-65911430D02*
X157843286Y-66778096D01*
X159205190Y-67149525D02*
X159205190Y-65911430D01*
X156605190Y-65911430D01*
X156605190Y-67149525D01*
X156605190Y-68759049D02*
X156605190Y-69254287D01*
X156729000Y-69501906D01*
X156976619Y-69749525D01*
X157471857Y-69873334D01*
X158338524Y-69873334D01*
X158833762Y-69749525D01*
X159081381Y-69501906D01*
X159205190Y-69254287D01*
X159205190Y-68759049D01*
X159081381Y-68511430D01*
X158833762Y-68263811D01*
X158338524Y-68140001D01*
X157471857Y-68140001D01*
X156976619Y-68263811D01*
X156729000Y-68511430D01*
X156605190Y-68759049D01*
X156605190Y-75692382D02*
X158462333Y-75692382D01*
X158833762Y-75568572D01*
X159081381Y-75320953D01*
X159205190Y-74949525D01*
X159205190Y-74701906D01*
X158462333Y-76806667D02*
X158462333Y-78044762D01*
X159205190Y-76559048D02*
X156605190Y-77425715D01*
X159205190Y-78292381D01*
X159205190Y-79159048D02*
X156605190Y-79159048D01*
X158462333Y-80025714D01*
X156605190Y-80892381D01*
X159205190Y-80892381D01*
X159205190Y-82130477D02*
X156605190Y-82130477D01*
X158462333Y-82997143D01*
X156605190Y-83863810D01*
X159205190Y-83863810D01*
X158462333Y-84978096D02*
X158462333Y-86216191D01*
X159205190Y-84730477D02*
X156605190Y-85597144D01*
X159205190Y-86463810D01*
D14*
X131026000Y-96098000D02*
X131026000Y-49570000D01*
X174088000Y-96056000D02*
X174088000Y-49528000D01*
X174089000Y-49537000D02*
X172910000Y-48358000D01*
X172895000Y-97257000D02*
X174069000Y-96083000D01*
X131048000Y-49542000D02*
X132222000Y-48368000D01*
X132196000Y-97261000D02*
X131017000Y-96082000D01*
X132188000Y-97260000D02*
X172878000Y-97260000D01*
X132213000Y-48369000D02*
X172903000Y-48369000D01*
D15*
X173662571Y-95988286D02*
X172948286Y-95488286D01*
X173662571Y-95131143D02*
X172162571Y-95131143D01*
X172162571Y-95702571D01*
X172234000Y-95845429D01*
X172305429Y-95916857D01*
X172448286Y-95988286D01*
X172662571Y-95988286D01*
X172805429Y-95916857D01*
X172876857Y-95845429D01*
X172948286Y-95702571D01*
X172948286Y-95131143D01*
X172209000Y-79030857D02*
X172137571Y-78888000D01*
X172137571Y-78673714D01*
X172209000Y-78459429D01*
X172351857Y-78316571D01*
X172494714Y-78245143D01*
X172780429Y-78173714D01*
X172994714Y-78173714D01*
X173280429Y-78245143D01*
X173423286Y-78316571D01*
X173566143Y-78459429D01*
X173637571Y-78673714D01*
X173637571Y-78816571D01*
X173566143Y-79030857D01*
X173494714Y-79102286D01*
X172994714Y-79102286D01*
X172994714Y-78816571D01*
D11*
X161457667Y-53862333D02*
X161457667Y-54195667D01*
X161657667Y-53795667D02*
X160957667Y-54029000D01*
X161657667Y-54262333D01*
X161657667Y-54895667D02*
X161324333Y-54662333D01*
X161657667Y-54495667D02*
X160957667Y-54495667D01*
X160957667Y-54762333D01*
X160991000Y-54829000D01*
X161024333Y-54862333D01*
X161091000Y-54895667D01*
X161191000Y-54895667D01*
X161257667Y-54862333D01*
X161291000Y-54829000D01*
X161324333Y-54762333D01*
X161324333Y-54495667D01*
X153657667Y-53980000D02*
X153657667Y-54313334D01*
X153857667Y-53913334D02*
X153157667Y-54146667D01*
X153857667Y-54380000D01*
X153857667Y-54946667D02*
X153857667Y-54613334D01*
X153157667Y-54613334D01*
X151462667Y-95755667D02*
X151462667Y-95422334D01*
X151796000Y-95389000D01*
X151762667Y-95422334D01*
X151729333Y-95489000D01*
X151729333Y-95655667D01*
X151762667Y-95722334D01*
X151796000Y-95755667D01*
X151862667Y-95789000D01*
X152029333Y-95789000D01*
X152096000Y-95755667D01*
X152129333Y-95722334D01*
X152162667Y-95655667D01*
X152162667Y-95489000D01*
X152129333Y-95422334D01*
X152096000Y-95389000D01*
X151462667Y-95989001D02*
X152162667Y-96222334D01*
X151462667Y-96455667D01*
X151480000Y-90798667D02*
X151446667Y-90732001D01*
X151446667Y-90632001D01*
X151480000Y-90532001D01*
X151546667Y-90465334D01*
X151613333Y-90432001D01*
X151746667Y-90398667D01*
X151846667Y-90398667D01*
X151980000Y-90432001D01*
X152046667Y-90465334D01*
X152113333Y-90532001D01*
X152146667Y-90632001D01*
X152146667Y-90698667D01*
X152113333Y-90798667D01*
X152080000Y-90832001D01*
X151846667Y-90832001D01*
X151846667Y-90698667D01*
X152146667Y-91132001D02*
X151446667Y-91132001D01*
X152146667Y-91532001D01*
X151446667Y-91532001D01*
X152146667Y-91865334D02*
X151446667Y-91865334D01*
X151446667Y-92032000D01*
X151480000Y-92132000D01*
X151546667Y-92198667D01*
X151613333Y-92232000D01*
X151746667Y-92265334D01*
X151846667Y-92265334D01*
X151980000Y-92232000D01*
X152046667Y-92198667D01*
X152113333Y-92132000D01*
X152146667Y-92032000D01*
X152146667Y-91865334D01*
X154574667Y-91327667D02*
X154241333Y-91094333D01*
X154574667Y-90927667D02*
X153874667Y-90927667D01*
X153874667Y-91194333D01*
X153908000Y-91261000D01*
X153941333Y-91294333D01*
X154008000Y-91327667D01*
X154108000Y-91327667D01*
X154174667Y-91294333D01*
X154208000Y-91261000D01*
X154241333Y-91194333D01*
X154241333Y-90927667D01*
X156354000Y-91302333D02*
X156320667Y-91235667D01*
X156320667Y-91135667D01*
X156354000Y-91035667D01*
X156420667Y-90969000D01*
X156487333Y-90935667D01*
X156620667Y-90902333D01*
X156720667Y-90902333D01*
X156854000Y-90935667D01*
X156920667Y-90969000D01*
X156987333Y-91035667D01*
X157020667Y-91135667D01*
X157020667Y-91202333D01*
X156987333Y-91302333D01*
X156954000Y-91335667D01*
X156720667Y-91335667D01*
X156720667Y-91202333D01*
X159398000Y-91230000D02*
X159431333Y-91330000D01*
X159464667Y-91363333D01*
X159531333Y-91396667D01*
X159631333Y-91396667D01*
X159698000Y-91363333D01*
X159731333Y-91330000D01*
X159764667Y-91263333D01*
X159764667Y-90996667D01*
X159064667Y-90996667D01*
X159064667Y-91230000D01*
X159098000Y-91296667D01*
X159131333Y-91330000D01*
X159198000Y-91363333D01*
X159264667Y-91363333D01*
X159331333Y-91330000D01*
X159364667Y-91296667D01*
X159398000Y-91230000D01*
X159398000Y-90996667D01*
X154592333Y-95442000D02*
X154625667Y-95542000D01*
X154625667Y-95708667D01*
X154592333Y-95775334D01*
X154559000Y-95808667D01*
X154492333Y-95842000D01*
X154425667Y-95842000D01*
X154359000Y-95808667D01*
X154325667Y-95775334D01*
X154292333Y-95708667D01*
X154259000Y-95575334D01*
X154225667Y-95508667D01*
X154192333Y-95475334D01*
X154125667Y-95442000D01*
X154059000Y-95442000D01*
X153992333Y-95475334D01*
X153959000Y-95508667D01*
X153925667Y-95575334D01*
X153925667Y-95742000D01*
X153959000Y-95842000D01*
X154292333Y-96275334D02*
X154625667Y-96275334D01*
X153925667Y-96042001D02*
X154292333Y-96275334D01*
X153925667Y-96508667D01*
X156876667Y-95408000D02*
X156876667Y-95741334D01*
X157076667Y-95341334D02*
X156376667Y-95574667D01*
X157076667Y-95808000D01*
X157076667Y-96374667D02*
X157076667Y-96041334D01*
X156376667Y-96041334D01*
X159612667Y-95303333D02*
X159612667Y-95636667D01*
X159812667Y-95236667D02*
X159112667Y-95470000D01*
X159812667Y-95703333D01*
X159812667Y-96336667D02*
X159479333Y-96103333D01*
X159812667Y-95936667D02*
X159112667Y-95936667D01*
X159112667Y-96203333D01*
X159146000Y-96270000D01*
X159179333Y-96303333D01*
X159246000Y-96336667D01*
X159346000Y-96336667D01*
X159412667Y-96303333D01*
X159446000Y-96270000D01*
X159479333Y-96203333D01*
X159479333Y-95936667D01*
D15*
X172827857Y-61923143D02*
X172899286Y-62137429D01*
X172970714Y-62208857D01*
X173113571Y-62280286D01*
X173327857Y-62280286D01*
X173470714Y-62208857D01*
X173542143Y-62137429D01*
X173613571Y-61994571D01*
X173613571Y-61423143D01*
X172113571Y-61423143D01*
X172113571Y-61923143D01*
X172185000Y-62066000D01*
X172256429Y-62137429D01*
X172399286Y-62208857D01*
X172542143Y-62208857D01*
X172685000Y-62137429D01*
X172756429Y-62066000D01*
X172827857Y-61923143D01*
X172827857Y-61423143D01*
D16*
G36*
X155947094Y-72602268D02*
X155997621Y-72662446D01*
X156068346Y-72731065D01*
X156148234Y-72798256D01*
X156226248Y-72854150D01*
X156291355Y-72888877D01*
X156297536Y-72891074D01*
X156357508Y-72902916D01*
X156425116Y-72896926D01*
X156513096Y-72870628D01*
X156616816Y-72829006D01*
X156650691Y-72829066D01*
X156672505Y-72870852D01*
X156675639Y-72882735D01*
X156697835Y-72940082D01*
X156739255Y-73022044D01*
X156790967Y-73110954D01*
X156791377Y-73111611D01*
X156889607Y-73269123D01*
X156832469Y-73391011D01*
X156762807Y-73557945D01*
X156726598Y-73689818D01*
X156724164Y-73785415D01*
X156725967Y-73793644D01*
X156751690Y-73838159D01*
X156812347Y-73912350D01*
X156904589Y-74012503D01*
X157025065Y-74134904D01*
X157100381Y-74208653D01*
X157249118Y-74350155D01*
X157368885Y-74457335D01*
X157464953Y-74533398D01*
X157542593Y-74581547D01*
X157607077Y-74604985D01*
X157663676Y-74606916D01*
X157717661Y-74590545D01*
X157723950Y-74587629D01*
X157773039Y-74557150D01*
X157800417Y-74519684D01*
X157804037Y-74471237D01*
X157781850Y-74407815D01*
X157731808Y-74325425D01*
X157651864Y-74220072D01*
X157539969Y-74087763D01*
X157394076Y-73924505D01*
X157370769Y-73898894D01*
X157226238Y-73740349D01*
X157302338Y-73627039D01*
X157378438Y-73513728D01*
X157625024Y-73513314D01*
X157737591Y-73512162D01*
X157820515Y-73506440D01*
X157890783Y-73492078D01*
X157965382Y-73465005D01*
X158061298Y-73421152D01*
X158112554Y-73396495D01*
X158353500Y-73280091D01*
X158426716Y-73440444D01*
X158534550Y-73617456D01*
X158638282Y-73731643D01*
X158776632Y-73862489D01*
X158931082Y-73848484D01*
X159064545Y-73820957D01*
X159213620Y-73765926D01*
X159359670Y-73692226D01*
X159484056Y-73608693D01*
X159536906Y-73561320D01*
X159586295Y-73503953D01*
X159604901Y-73454952D01*
X159600869Y-73390046D01*
X159598755Y-73377078D01*
X159579069Y-73304246D01*
X159551841Y-73251511D01*
X159544700Y-73244042D01*
X159500107Y-73230140D01*
X159421741Y-73224842D01*
X159325711Y-73227149D01*
X159228128Y-73236063D01*
X159145101Y-73250585D01*
X159092742Y-73269717D01*
X159089293Y-73272269D01*
X159040793Y-73297954D01*
X158970737Y-73320615D01*
X158963820Y-73322237D01*
X158904497Y-73332898D01*
X158879378Y-73321502D01*
X158873334Y-73278104D01*
X158873052Y-73262575D01*
X158860377Y-73191555D01*
X158829723Y-73105266D01*
X158812889Y-73069856D01*
X158753874Y-72957013D01*
X158915637Y-72771533D01*
X158985338Y-72687923D01*
X159039964Y-72615374D01*
X159072053Y-72564176D01*
X159077400Y-72548478D01*
X159061649Y-72513408D01*
X159019540Y-72451571D01*
X158958790Y-72373880D01*
X158928518Y-72337922D01*
X158779637Y-72164939D01*
X158853013Y-72077046D01*
X158903483Y-71998650D01*
X158937420Y-71913443D01*
X158941641Y-71893777D01*
X158952122Y-71832816D01*
X158959137Y-71800334D01*
X158959996Y-71798674D01*
X158983772Y-71805510D01*
X159041303Y-71822721D01*
X159087786Y-71836774D01*
X159199185Y-71861061D01*
X159321982Y-71872911D01*
X159440916Y-71872376D01*
X159540723Y-71859506D01*
X159605148Y-71835059D01*
X159650062Y-71775748D01*
X159663718Y-71695088D01*
X159646161Y-71611740D01*
X159604450Y-71550538D01*
X159552618Y-71513314D01*
X159476182Y-71470417D01*
X159392583Y-71430300D01*
X159319264Y-71401415D01*
X159277267Y-71392000D01*
X159241174Y-71381694D01*
X159178594Y-71355680D01*
X159147602Y-71341200D01*
X159021717Y-71296036D01*
X159004597Y-71295827D01*
X159004597Y-71320497D01*
X159136554Y-71361381D01*
X159147602Y-71366600D01*
X159215876Y-71397182D01*
X159265899Y-71415284D01*
X159277267Y-71417400D01*
X159322752Y-71428685D01*
X159394659Y-71457106D01*
X159475355Y-71494504D01*
X159547206Y-71532725D01*
X159591750Y-71562852D01*
X159625856Y-71619796D01*
X159637459Y-71694818D01*
X159626923Y-71767662D01*
X159594613Y-71818072D01*
X159587069Y-71822906D01*
X159522560Y-71840450D01*
X159424703Y-71847957D01*
X159309877Y-71845778D01*
X159194459Y-71834263D01*
X159094829Y-71813762D01*
X159089800Y-71812280D01*
X159016121Y-71793067D01*
X158963534Y-71784798D01*
X158949487Y-71786264D01*
X158934178Y-71816262D01*
X158919194Y-71876094D01*
X158916937Y-71889044D01*
X158890877Y-71970801D01*
X158845912Y-72053786D01*
X158836646Y-72066640D01*
X158771266Y-72152358D01*
X158594133Y-72010243D01*
X158515379Y-71944590D01*
X158454620Y-71889243D01*
X158420921Y-71852675D01*
X158417000Y-71844612D01*
X158432595Y-71808348D01*
X158473924Y-71744712D01*
X158532801Y-71664151D01*
X158601041Y-71577111D01*
X158670456Y-71494035D01*
X158732863Y-71425372D01*
X158779571Y-71381947D01*
X158886774Y-71327303D01*
X159004597Y-71320497D01*
X159004597Y-71295827D01*
X158912719Y-71294699D01*
X158809740Y-71338466D01*
X158744371Y-71388616D01*
X158674154Y-71458884D01*
X158592803Y-71552795D01*
X158516716Y-71651301D01*
X158509325Y-71661666D01*
X158385858Y-71836500D01*
X158131295Y-71709500D01*
X158018924Y-71654210D01*
X157936475Y-71617869D01*
X157868540Y-71596501D01*
X157799706Y-71586133D01*
X157714563Y-71582789D01*
X157658492Y-71582575D01*
X157658492Y-71609415D01*
X157761115Y-71611494D01*
X157839207Y-71618943D01*
X157909419Y-71636077D01*
X157988402Y-71667210D01*
X158092809Y-71716659D01*
X158115692Y-71727889D01*
X158244579Y-71797366D01*
X158382386Y-71881373D01*
X158505605Y-71965299D01*
X158542369Y-71993074D01*
X158635971Y-72071938D01*
X158734788Y-72164230D01*
X158831529Y-72262015D01*
X158918903Y-72357359D01*
X158989620Y-72442327D01*
X159036388Y-72508984D01*
X159052000Y-72547700D01*
X159036109Y-72582587D01*
X158993440Y-72644558D01*
X158931494Y-72723207D01*
X158891619Y-72770153D01*
X158740049Y-72920836D01*
X158740049Y-72972917D01*
X158794424Y-73084838D01*
X158827741Y-73171902D01*
X158846946Y-73257889D01*
X158848800Y-73284344D01*
X158852005Y-73342603D01*
X158871443Y-73363011D01*
X158921849Y-73358496D01*
X158931350Y-73356770D01*
X159011405Y-73333319D01*
X159076145Y-73302680D01*
X159151913Y-73276753D01*
X159275908Y-73263245D01*
X159341329Y-73261325D01*
X159442462Y-73260971D01*
X159504137Y-73264976D01*
X159537681Y-73276471D01*
X159554421Y-73298586D01*
X159562302Y-73322400D01*
X159581049Y-73417334D01*
X159569302Y-73486289D01*
X159522122Y-73547186D01*
X159493436Y-73572305D01*
X159350881Y-73671117D01*
X159190815Y-73751542D01*
X159031347Y-73805502D01*
X158931305Y-73823064D01*
X158847205Y-73829167D01*
X158791293Y-73823892D01*
X158744091Y-73800346D01*
X158686121Y-73751634D01*
X158658897Y-73726638D01*
X158582812Y-73642956D01*
X158506728Y-73536975D01*
X158441273Y-73425691D01*
X158397073Y-73326101D01*
X158387597Y-73292755D01*
X158403477Y-73255460D01*
X158459470Y-73196105D01*
X158551959Y-73118478D01*
X158559474Y-73112638D01*
X158740049Y-72972917D01*
X158740049Y-72920836D01*
X158645585Y-73014748D01*
X158366400Y-73224621D01*
X158112637Y-73368987D01*
X158001528Y-73422447D01*
X157919353Y-73456817D01*
X157849898Y-73476299D01*
X157776950Y-73485094D01*
X157684295Y-73487405D01*
X157655437Y-73487461D01*
X157464673Y-73473987D01*
X157277374Y-73436267D01*
X157109601Y-73378453D01*
X156994217Y-73316528D01*
X156937333Y-73265422D01*
X156904491Y-73226896D01*
X156904491Y-73303447D01*
X156927666Y-73311092D01*
X156982770Y-73337245D01*
X157047419Y-73370726D01*
X157136918Y-73414071D01*
X157222283Y-73448184D01*
X157267650Y-73461547D01*
X157323619Y-73478483D01*
X157349914Y-73496707D01*
X157350200Y-73498395D01*
X157337082Y-73528966D01*
X157303461Y-73586118D01*
X157275519Y-73629152D01*
X157200838Y-73740349D01*
X157345369Y-73898478D01*
X157497968Y-74068215D01*
X157615800Y-74206416D01*
X157700828Y-74316642D01*
X157755014Y-74402452D01*
X157780320Y-74467405D01*
X157778707Y-74515063D01*
X157752137Y-74548983D01*
X157714652Y-74568462D01*
X157658384Y-74581911D01*
X157599392Y-74576901D01*
X157532269Y-74550077D01*
X157451612Y-74498082D01*
X157352013Y-74417562D01*
X157228069Y-74305161D01*
X157112598Y-74194736D01*
X156986084Y-74069175D01*
X156882535Y-73960655D01*
X156806149Y-73873849D01*
X156761124Y-73813425D01*
X156751062Y-73792428D01*
X156749519Y-73706782D01*
X156777072Y-73589892D01*
X156831461Y-73450480D01*
X156849874Y-73411300D01*
X156880743Y-73348700D01*
X156901016Y-73309320D01*
X156904491Y-73303447D01*
X156904491Y-73226896D01*
X156870155Y-73186617D01*
X156806941Y-73096885D01*
X156805203Y-73094118D01*
X156702500Y-72929872D01*
X156702500Y-72165527D01*
X156805203Y-72001281D01*
X156868068Y-71911479D01*
X156935336Y-71832085D01*
X156992752Y-71779871D01*
X156994217Y-71778871D01*
X157136856Y-71705249D01*
X157312569Y-71649971D01*
X157505699Y-71617031D01*
X157658492Y-71609415D01*
X157658492Y-71582575D01*
X157638883Y-71582500D01*
X157510076Y-71579510D01*
X157430681Y-71570580D01*
X157401204Y-71555772D01*
X157401017Y-71554225D01*
X157383638Y-71523730D01*
X157338097Y-71470979D01*
X157274353Y-71407488D01*
X157147707Y-71289025D01*
X157295489Y-71105562D01*
X157428409Y-70934899D01*
X157535864Y-70785095D01*
X157615348Y-70660080D01*
X157664353Y-70563785D01*
X157680400Y-70501861D01*
X157663886Y-70430147D01*
X157622908Y-70373902D01*
X157570314Y-70350609D01*
X157569258Y-70350599D01*
X157567359Y-70351228D01*
X157567359Y-70385237D01*
X157611860Y-70397337D01*
X157614550Y-70399450D01*
X157650142Y-70454858D01*
X157647294Y-70532477D01*
X157605332Y-70635312D01*
X157536435Y-70747696D01*
X157461586Y-70853614D01*
X157371481Y-70975092D01*
X157283510Y-71088770D01*
X157268862Y-71107076D01*
X157119853Y-71292052D01*
X157252173Y-71413720D01*
X157330825Y-71494401D01*
X157365607Y-71553846D01*
X157356820Y-71595910D01*
X157304765Y-71624447D01*
X157269366Y-71633475D01*
X157198874Y-71655715D01*
X157109279Y-71693630D01*
X157053485Y-71721387D01*
X156921870Y-71791634D01*
X156862985Y-71674367D01*
X156818528Y-71590203D01*
X156774380Y-71513324D01*
X156758559Y-71488147D01*
X156728075Y-71420828D01*
X156704143Y-71331178D01*
X156697980Y-71292218D01*
X156682942Y-71165241D01*
X157018492Y-70823931D01*
X157180417Y-70663483D01*
X157313675Y-70541235D01*
X157420857Y-70455341D01*
X157504555Y-70403957D01*
X157567359Y-70385237D01*
X157567359Y-70351228D01*
X157509242Y-70370491D01*
X157419603Y-70429368D01*
X157301798Y-70526033D01*
X157157286Y-70659289D01*
X156987522Y-70827939D01*
X156984835Y-70830686D01*
X156657571Y-71165488D01*
X156672807Y-71294133D01*
X156686086Y-71374070D01*
X156702931Y-71434289D01*
X156711963Y-71451839D01*
X156736504Y-71489742D01*
X156773163Y-71554983D01*
X156814541Y-71633226D01*
X156853239Y-71710135D01*
X156881859Y-71771376D01*
X156893000Y-71802582D01*
X156880389Y-71831506D01*
X156847076Y-71891120D01*
X156799839Y-71969390D01*
X156791796Y-71982275D01*
X156739092Y-72073894D01*
X156696993Y-72160898D01*
X156674358Y-72224915D01*
X156674042Y-72226435D01*
X156656509Y-72282203D01*
X156630656Y-72295909D01*
X156616496Y-72291671D01*
X156500201Y-72245555D01*
X156415373Y-72221991D01*
X156407719Y-72221588D01*
X156407719Y-72241985D01*
X156441406Y-72257926D01*
X156439333Y-72288622D01*
X156434027Y-72295836D01*
X156378035Y-72328767D01*
X156312383Y-72319468D01*
X156283354Y-72300050D01*
X156260854Y-72281802D01*
X156270888Y-72298713D01*
X156281385Y-72312750D01*
X156336644Y-72352501D01*
X156399920Y-72344837D01*
X156447053Y-72307998D01*
X156479981Y-72277433D01*
X156512680Y-72273308D01*
X156566053Y-72294347D01*
X156577990Y-72300002D01*
X156664400Y-72341208D01*
X156664400Y-72779591D01*
X156577990Y-72820797D01*
X156519333Y-72845769D01*
X156484716Y-72845783D01*
X156453237Y-72819563D01*
X156447053Y-72812801D01*
X156383506Y-72769248D01*
X156378750Y-72769630D01*
X156378750Y-72796711D01*
X156424279Y-72812589D01*
X156446146Y-72838590D01*
X156432082Y-72866322D01*
X156425665Y-72870366D01*
X156372386Y-72881177D01*
X156322460Y-72875871D01*
X156268796Y-72852643D01*
X156265039Y-72826200D01*
X156311235Y-72802219D01*
X156321829Y-72799347D01*
X156378750Y-72796711D01*
X156378750Y-72769630D01*
X156313150Y-72774906D01*
X156267850Y-72800199D01*
X156237010Y-72816832D01*
X156206235Y-72814639D01*
X156163750Y-72788602D01*
X156097779Y-72733704D01*
X156084398Y-72722029D01*
X156018024Y-72657511D01*
X155970840Y-72599323D01*
X155953200Y-72560588D01*
X155972693Y-72517224D01*
X156023577Y-72456858D01*
X156094454Y-72389874D01*
X156173926Y-72326657D01*
X156250598Y-72277590D01*
X156278914Y-72263831D01*
X156349734Y-72243165D01*
X156407719Y-72241985D01*
X156407719Y-72221588D01*
X156349270Y-72218504D01*
X156297536Y-72229725D01*
X156234628Y-72261375D01*
X156157540Y-72315330D01*
X156077305Y-72381722D01*
X156004960Y-72450680D01*
X155951539Y-72512336D01*
X155928078Y-72556820D01*
X155927800Y-72560400D01*
X155947094Y-72602268D01*
X155947094Y-72602268D01*
G37*
X155947094Y-72602268D02*
X155997621Y-72662446D01*
X156068346Y-72731065D01*
X156148234Y-72798256D01*
X156226248Y-72854150D01*
X156291355Y-72888877D01*
X156297536Y-72891074D01*
X156357508Y-72902916D01*
X156425116Y-72896926D01*
X156513096Y-72870628D01*
X156616816Y-72829006D01*
X156650691Y-72829066D01*
X156672505Y-72870852D01*
X156675639Y-72882735D01*
X156697835Y-72940082D01*
X156739255Y-73022044D01*
X156790967Y-73110954D01*
X156791377Y-73111611D01*
X156889607Y-73269123D01*
X156832469Y-73391011D01*
X156762807Y-73557945D01*
X156726598Y-73689818D01*
X156724164Y-73785415D01*
X156725967Y-73793644D01*
X156751690Y-73838159D01*
X156812347Y-73912350D01*
X156904589Y-74012503D01*
X157025065Y-74134904D01*
X157100381Y-74208653D01*
X157249118Y-74350155D01*
X157368885Y-74457335D01*
X157464953Y-74533398D01*
X157542593Y-74581547D01*
X157607077Y-74604985D01*
X157663676Y-74606916D01*
X157717661Y-74590545D01*
X157723950Y-74587629D01*
X157773039Y-74557150D01*
X157800417Y-74519684D01*
X157804037Y-74471237D01*
X157781850Y-74407815D01*
X157731808Y-74325425D01*
X157651864Y-74220072D01*
X157539969Y-74087763D01*
X157394076Y-73924505D01*
X157370769Y-73898894D01*
X157226238Y-73740349D01*
X157302338Y-73627039D01*
X157378438Y-73513728D01*
X157625024Y-73513314D01*
X157737591Y-73512162D01*
X157820515Y-73506440D01*
X157890783Y-73492078D01*
X157965382Y-73465005D01*
X158061298Y-73421152D01*
X158112554Y-73396495D01*
X158353500Y-73280091D01*
X158426716Y-73440444D01*
X158534550Y-73617456D01*
X158638282Y-73731643D01*
X158776632Y-73862489D01*
X158931082Y-73848484D01*
X159064545Y-73820957D01*
X159213620Y-73765926D01*
X159359670Y-73692226D01*
X159484056Y-73608693D01*
X159536906Y-73561320D01*
X159586295Y-73503953D01*
X159604901Y-73454952D01*
X159600869Y-73390046D01*
X159598755Y-73377078D01*
X159579069Y-73304246D01*
X159551841Y-73251511D01*
X159544700Y-73244042D01*
X159500107Y-73230140D01*
X159421741Y-73224842D01*
X159325711Y-73227149D01*
X159228128Y-73236063D01*
X159145101Y-73250585D01*
X159092742Y-73269717D01*
X159089293Y-73272269D01*
X159040793Y-73297954D01*
X158970737Y-73320615D01*
X158963820Y-73322237D01*
X158904497Y-73332898D01*
X158879378Y-73321502D01*
X158873334Y-73278104D01*
X158873052Y-73262575D01*
X158860377Y-73191555D01*
X158829723Y-73105266D01*
X158812889Y-73069856D01*
X158753874Y-72957013D01*
X158915637Y-72771533D01*
X158985338Y-72687923D01*
X159039964Y-72615374D01*
X159072053Y-72564176D01*
X159077400Y-72548478D01*
X159061649Y-72513408D01*
X159019540Y-72451571D01*
X158958790Y-72373880D01*
X158928518Y-72337922D01*
X158779637Y-72164939D01*
X158853013Y-72077046D01*
X158903483Y-71998650D01*
X158937420Y-71913443D01*
X158941641Y-71893777D01*
X158952122Y-71832816D01*
X158959137Y-71800334D01*
X158959996Y-71798674D01*
X158983772Y-71805510D01*
X159041303Y-71822721D01*
X159087786Y-71836774D01*
X159199185Y-71861061D01*
X159321982Y-71872911D01*
X159440916Y-71872376D01*
X159540723Y-71859506D01*
X159605148Y-71835059D01*
X159650062Y-71775748D01*
X159663718Y-71695088D01*
X159646161Y-71611740D01*
X159604450Y-71550538D01*
X159552618Y-71513314D01*
X159476182Y-71470417D01*
X159392583Y-71430300D01*
X159319264Y-71401415D01*
X159277267Y-71392000D01*
X159241174Y-71381694D01*
X159178594Y-71355680D01*
X159147602Y-71341200D01*
X159021717Y-71296036D01*
X159004597Y-71295827D01*
X159004597Y-71320497D01*
X159136554Y-71361381D01*
X159147602Y-71366600D01*
X159215876Y-71397182D01*
X159265899Y-71415284D01*
X159277267Y-71417400D01*
X159322752Y-71428685D01*
X159394659Y-71457106D01*
X159475355Y-71494504D01*
X159547206Y-71532725D01*
X159591750Y-71562852D01*
X159625856Y-71619796D01*
X159637459Y-71694818D01*
X159626923Y-71767662D01*
X159594613Y-71818072D01*
X159587069Y-71822906D01*
X159522560Y-71840450D01*
X159424703Y-71847957D01*
X159309877Y-71845778D01*
X159194459Y-71834263D01*
X159094829Y-71813762D01*
X159089800Y-71812280D01*
X159016121Y-71793067D01*
X158963534Y-71784798D01*
X158949487Y-71786264D01*
X158934178Y-71816262D01*
X158919194Y-71876094D01*
X158916937Y-71889044D01*
X158890877Y-71970801D01*
X158845912Y-72053786D01*
X158836646Y-72066640D01*
X158771266Y-72152358D01*
X158594133Y-72010243D01*
X158515379Y-71944590D01*
X158454620Y-71889243D01*
X158420921Y-71852675D01*
X158417000Y-71844612D01*
X158432595Y-71808348D01*
X158473924Y-71744712D01*
X158532801Y-71664151D01*
X158601041Y-71577111D01*
X158670456Y-71494035D01*
X158732863Y-71425372D01*
X158779571Y-71381947D01*
X158886774Y-71327303D01*
X159004597Y-71320497D01*
X159004597Y-71295827D01*
X158912719Y-71294699D01*
X158809740Y-71338466D01*
X158744371Y-71388616D01*
X158674154Y-71458884D01*
X158592803Y-71552795D01*
X158516716Y-71651301D01*
X158509325Y-71661666D01*
X158385858Y-71836500D01*
X158131295Y-71709500D01*
X158018924Y-71654210D01*
X157936475Y-71617869D01*
X157868540Y-71596501D01*
X157799706Y-71586133D01*
X157714563Y-71582789D01*
X157658492Y-71582575D01*
X157658492Y-71609415D01*
X157761115Y-71611494D01*
X157839207Y-71618943D01*
X157909419Y-71636077D01*
X157988402Y-71667210D01*
X158092809Y-71716659D01*
X158115692Y-71727889D01*
X158244579Y-71797366D01*
X158382386Y-71881373D01*
X158505605Y-71965299D01*
X158542369Y-71993074D01*
X158635971Y-72071938D01*
X158734788Y-72164230D01*
X158831529Y-72262015D01*
X158918903Y-72357359D01*
X158989620Y-72442327D01*
X159036388Y-72508984D01*
X159052000Y-72547700D01*
X159036109Y-72582587D01*
X158993440Y-72644558D01*
X158931494Y-72723207D01*
X158891619Y-72770153D01*
X158740049Y-72920836D01*
X158740049Y-72972917D01*
X158794424Y-73084838D01*
X158827741Y-73171902D01*
X158846946Y-73257889D01*
X158848800Y-73284344D01*
X158852005Y-73342603D01*
X158871443Y-73363011D01*
X158921849Y-73358496D01*
X158931350Y-73356770D01*
X159011405Y-73333319D01*
X159076145Y-73302680D01*
X159151913Y-73276753D01*
X159275908Y-73263245D01*
X159341329Y-73261325D01*
X159442462Y-73260971D01*
X159504137Y-73264976D01*
X159537681Y-73276471D01*
X159554421Y-73298586D01*
X159562302Y-73322400D01*
X159581049Y-73417334D01*
X159569302Y-73486289D01*
X159522122Y-73547186D01*
X159493436Y-73572305D01*
X159350881Y-73671117D01*
X159190815Y-73751542D01*
X159031347Y-73805502D01*
X158931305Y-73823064D01*
X158847205Y-73829167D01*
X158791293Y-73823892D01*
X158744091Y-73800346D01*
X158686121Y-73751634D01*
X158658897Y-73726638D01*
X158582812Y-73642956D01*
X158506728Y-73536975D01*
X158441273Y-73425691D01*
X158397073Y-73326101D01*
X158387597Y-73292755D01*
X158403477Y-73255460D01*
X158459470Y-73196105D01*
X158551959Y-73118478D01*
X158559474Y-73112638D01*
X158740049Y-72972917D01*
X158740049Y-72920836D01*
X158645585Y-73014748D01*
X158366400Y-73224621D01*
X158112637Y-73368987D01*
X158001528Y-73422447D01*
X157919353Y-73456817D01*
X157849898Y-73476299D01*
X157776950Y-73485094D01*
X157684295Y-73487405D01*
X157655437Y-73487461D01*
X157464673Y-73473987D01*
X157277374Y-73436267D01*
X157109601Y-73378453D01*
X156994217Y-73316528D01*
X156937333Y-73265422D01*
X156904491Y-73226896D01*
X156904491Y-73303447D01*
X156927666Y-73311092D01*
X156982770Y-73337245D01*
X157047419Y-73370726D01*
X157136918Y-73414071D01*
X157222283Y-73448184D01*
X157267650Y-73461547D01*
X157323619Y-73478483D01*
X157349914Y-73496707D01*
X157350200Y-73498395D01*
X157337082Y-73528966D01*
X157303461Y-73586118D01*
X157275519Y-73629152D01*
X157200838Y-73740349D01*
X157345369Y-73898478D01*
X157497968Y-74068215D01*
X157615800Y-74206416D01*
X157700828Y-74316642D01*
X157755014Y-74402452D01*
X157780320Y-74467405D01*
X157778707Y-74515063D01*
X157752137Y-74548983D01*
X157714652Y-74568462D01*
X157658384Y-74581911D01*
X157599392Y-74576901D01*
X157532269Y-74550077D01*
X157451612Y-74498082D01*
X157352013Y-74417562D01*
X157228069Y-74305161D01*
X157112598Y-74194736D01*
X156986084Y-74069175D01*
X156882535Y-73960655D01*
X156806149Y-73873849D01*
X156761124Y-73813425D01*
X156751062Y-73792428D01*
X156749519Y-73706782D01*
X156777072Y-73589892D01*
X156831461Y-73450480D01*
X156849874Y-73411300D01*
X156880743Y-73348700D01*
X156901016Y-73309320D01*
X156904491Y-73303447D01*
X156904491Y-73226896D01*
X156870155Y-73186617D01*
X156806941Y-73096885D01*
X156805203Y-73094118D01*
X156702500Y-72929872D01*
X156702500Y-72165527D01*
X156805203Y-72001281D01*
X156868068Y-71911479D01*
X156935336Y-71832085D01*
X156992752Y-71779871D01*
X156994217Y-71778871D01*
X157136856Y-71705249D01*
X157312569Y-71649971D01*
X157505699Y-71617031D01*
X157658492Y-71609415D01*
X157658492Y-71582575D01*
X157638883Y-71582500D01*
X157510076Y-71579510D01*
X157430681Y-71570580D01*
X157401204Y-71555772D01*
X157401017Y-71554225D01*
X157383638Y-71523730D01*
X157338097Y-71470979D01*
X157274353Y-71407488D01*
X157147707Y-71289025D01*
X157295489Y-71105562D01*
X157428409Y-70934899D01*
X157535864Y-70785095D01*
X157615348Y-70660080D01*
X157664353Y-70563785D01*
X157680400Y-70501861D01*
X157663886Y-70430147D01*
X157622908Y-70373902D01*
X157570314Y-70350609D01*
X157569258Y-70350599D01*
X157567359Y-70351228D01*
X157567359Y-70385237D01*
X157611860Y-70397337D01*
X157614550Y-70399450D01*
X157650142Y-70454858D01*
X157647294Y-70532477D01*
X157605332Y-70635312D01*
X157536435Y-70747696D01*
X157461586Y-70853614D01*
X157371481Y-70975092D01*
X157283510Y-71088770D01*
X157268862Y-71107076D01*
X157119853Y-71292052D01*
X157252173Y-71413720D01*
X157330825Y-71494401D01*
X157365607Y-71553846D01*
X157356820Y-71595910D01*
X157304765Y-71624447D01*
X157269366Y-71633475D01*
X157198874Y-71655715D01*
X157109279Y-71693630D01*
X157053485Y-71721387D01*
X156921870Y-71791634D01*
X156862985Y-71674367D01*
X156818528Y-71590203D01*
X156774380Y-71513324D01*
X156758559Y-71488147D01*
X156728075Y-71420828D01*
X156704143Y-71331178D01*
X156697980Y-71292218D01*
X156682942Y-71165241D01*
X157018492Y-70823931D01*
X157180417Y-70663483D01*
X157313675Y-70541235D01*
X157420857Y-70455341D01*
X157504555Y-70403957D01*
X157567359Y-70385237D01*
X157567359Y-70351228D01*
X157509242Y-70370491D01*
X157419603Y-70429368D01*
X157301798Y-70526033D01*
X157157286Y-70659289D01*
X156987522Y-70827939D01*
X156984835Y-70830686D01*
X156657571Y-71165488D01*
X156672807Y-71294133D01*
X156686086Y-71374070D01*
X156702931Y-71434289D01*
X156711963Y-71451839D01*
X156736504Y-71489742D01*
X156773163Y-71554983D01*
X156814541Y-71633226D01*
X156853239Y-71710135D01*
X156881859Y-71771376D01*
X156893000Y-71802582D01*
X156880389Y-71831506D01*
X156847076Y-71891120D01*
X156799839Y-71969390D01*
X156791796Y-71982275D01*
X156739092Y-72073894D01*
X156696993Y-72160898D01*
X156674358Y-72224915D01*
X156674042Y-72226435D01*
X156656509Y-72282203D01*
X156630656Y-72295909D01*
X156616496Y-72291671D01*
X156500201Y-72245555D01*
X156415373Y-72221991D01*
X156407719Y-72221588D01*
X156407719Y-72241985D01*
X156441406Y-72257926D01*
X156439333Y-72288622D01*
X156434027Y-72295836D01*
X156378035Y-72328767D01*
X156312383Y-72319468D01*
X156283354Y-72300050D01*
X156260854Y-72281802D01*
X156270888Y-72298713D01*
X156281385Y-72312750D01*
X156336644Y-72352501D01*
X156399920Y-72344837D01*
X156447053Y-72307998D01*
X156479981Y-72277433D01*
X156512680Y-72273308D01*
X156566053Y-72294347D01*
X156577990Y-72300002D01*
X156664400Y-72341208D01*
X156664400Y-72779591D01*
X156577990Y-72820797D01*
X156519333Y-72845769D01*
X156484716Y-72845783D01*
X156453237Y-72819563D01*
X156447053Y-72812801D01*
X156383506Y-72769248D01*
X156378750Y-72769630D01*
X156378750Y-72796711D01*
X156424279Y-72812589D01*
X156446146Y-72838590D01*
X156432082Y-72866322D01*
X156425665Y-72870366D01*
X156372386Y-72881177D01*
X156322460Y-72875871D01*
X156268796Y-72852643D01*
X156265039Y-72826200D01*
X156311235Y-72802219D01*
X156321829Y-72799347D01*
X156378750Y-72796711D01*
X156378750Y-72769630D01*
X156313150Y-72774906D01*
X156267850Y-72800199D01*
X156237010Y-72816832D01*
X156206235Y-72814639D01*
X156163750Y-72788602D01*
X156097779Y-72733704D01*
X156084398Y-72722029D01*
X156018024Y-72657511D01*
X155970840Y-72599323D01*
X155953200Y-72560588D01*
X155972693Y-72517224D01*
X156023577Y-72456858D01*
X156094454Y-72389874D01*
X156173926Y-72326657D01*
X156250598Y-72277590D01*
X156278914Y-72263831D01*
X156349734Y-72243165D01*
X156407719Y-72241985D01*
X156407719Y-72221588D01*
X156349270Y-72218504D01*
X156297536Y-72229725D01*
X156234628Y-72261375D01*
X156157540Y-72315330D01*
X156077305Y-72381722D01*
X156004960Y-72450680D01*
X155951539Y-72512336D01*
X155928078Y-72556820D01*
X155927800Y-72560400D01*
X155947094Y-72602268D01*
G36*
X156854900Y-73106500D02*
X156927418Y-73203813D01*
X156999720Y-73270703D01*
X157090198Y-73324017D01*
X157095004Y-73326373D01*
X157318227Y-73408689D01*
X157557760Y-73445071D01*
X157724726Y-73444538D01*
X157846701Y-73433070D01*
X157943480Y-73410642D01*
X158040507Y-73370379D01*
X158087443Y-73346500D01*
X158294115Y-73222998D01*
X158507409Y-73069362D01*
X158708740Y-72899561D01*
X158804350Y-72807677D01*
X158887061Y-72721138D01*
X158938641Y-72658236D01*
X158965831Y-72608748D01*
X158975371Y-72562454D01*
X158975800Y-72547700D01*
X158970230Y-72500374D01*
X158949028Y-72452913D01*
X158905453Y-72395096D01*
X158832763Y-72316702D01*
X158804350Y-72287722D01*
X158653231Y-72147110D01*
X158653231Y-72176053D01*
X158698594Y-72206216D01*
X158762275Y-72269241D01*
X158797883Y-72306279D01*
X158887338Y-72406758D01*
X158937411Y-72487617D01*
X158949591Y-72559405D01*
X158925370Y-72632667D01*
X158866237Y-72717953D01*
X158857556Y-72728653D01*
X158792769Y-72801568D01*
X158728160Y-72864675D01*
X158696687Y-72890395D01*
X158628661Y-72938834D01*
X158535530Y-72862067D01*
X158442400Y-72785301D01*
X158442400Y-72550278D01*
X158443571Y-72437303D01*
X158448678Y-72363197D01*
X158460107Y-72316053D01*
X158480245Y-72283962D01*
X158499550Y-72265172D01*
X158566459Y-72207288D01*
X158613436Y-72176996D01*
X158653231Y-72176053D01*
X158653231Y-72147110D01*
X158634704Y-72129871D01*
X158446858Y-71978635D01*
X158363100Y-71920196D01*
X158363100Y-71963500D01*
X158395760Y-71977160D01*
X158454646Y-72012431D01*
X158506492Y-72047404D01*
X158625529Y-72131309D01*
X158527614Y-72216827D01*
X158429700Y-72302345D01*
X158424543Y-72297363D01*
X158424543Y-72792464D01*
X158521913Y-72873282D01*
X158577807Y-72920577D01*
X158613246Y-72952299D01*
X158619742Y-72959450D01*
X158600903Y-72975703D01*
X158550077Y-73014728D01*
X158476447Y-73069539D01*
X158436050Y-73099150D01*
X158267277Y-73216257D01*
X158122444Y-73302719D01*
X157990608Y-73364823D01*
X157940894Y-73383608D01*
X157841024Y-73418844D01*
X157784566Y-73055700D01*
X157877337Y-72960450D01*
X157932042Y-72906802D01*
X157971924Y-72872314D01*
X157984004Y-72865326D01*
X158003666Y-72885040D01*
X158042591Y-72936900D01*
X158092784Y-73010181D01*
X158098781Y-73019290D01*
X158153998Y-73099919D01*
X158203236Y-73165619D01*
X158236162Y-73202630D01*
X158236986Y-73203313D01*
X158247159Y-73204748D01*
X158229676Y-73173443D01*
X158213576Y-73150541D01*
X158152842Y-73067582D01*
X158288692Y-72930023D01*
X158424543Y-72792464D01*
X158424543Y-72297363D01*
X158334925Y-72210782D01*
X158240151Y-72119218D01*
X158289448Y-72041359D01*
X158328087Y-71989965D01*
X158359403Y-71964197D01*
X158363100Y-71963500D01*
X158363100Y-71920196D01*
X158256554Y-71845856D01*
X158082781Y-71745017D01*
X157893962Y-71676067D01*
X157873463Y-71673214D01*
X157873463Y-71705001D01*
X157912224Y-71709120D01*
X157981614Y-71731904D01*
X158067895Y-71767272D01*
X158157332Y-71809145D01*
X158236186Y-71851441D01*
X158290721Y-71888081D01*
X158294481Y-71891355D01*
X158320466Y-71920524D01*
X158320213Y-71950594D01*
X158292192Y-72000196D01*
X158284586Y-72011867D01*
X158231597Y-72073636D01*
X158219653Y-72084168D01*
X158219653Y-72124005D01*
X158318326Y-72220357D01*
X158417000Y-72316709D01*
X158417000Y-72778035D01*
X158143154Y-73048479D01*
X158076877Y-72950943D01*
X158048238Y-72905419D01*
X158029287Y-72861499D01*
X158018039Y-72807412D01*
X158012511Y-72731389D01*
X158010717Y-72621660D01*
X158010600Y-72557879D01*
X158010600Y-72262350D01*
X158115126Y-72193178D01*
X158219653Y-72124005D01*
X158219653Y-72084168D01*
X158156168Y-72140151D01*
X158113239Y-72171263D01*
X157995160Y-72249399D01*
X157888078Y-72149513D01*
X157780995Y-72049628D01*
X157809840Y-71883987D01*
X157830184Y-71794027D01*
X157853811Y-71729755D01*
X157873463Y-71705001D01*
X157873463Y-71673214D01*
X157684769Y-71646951D01*
X157638667Y-71649154D01*
X157638667Y-71671788D01*
X157738185Y-71672656D01*
X157796118Y-71677222D01*
X157821657Y-71687712D01*
X157823996Y-71706348D01*
X157820783Y-71715850D01*
X157807173Y-71764185D01*
X157790019Y-71843238D01*
X157777128Y-71912700D01*
X157776318Y-71916189D01*
X157776318Y-72072799D01*
X157985200Y-72261511D01*
X157985200Y-72829490D01*
X157883531Y-72928766D01*
X157781863Y-73028043D01*
X157667631Y-72915933D01*
X157553400Y-72803823D01*
X157553400Y-72291576D01*
X157664859Y-72182188D01*
X157776318Y-72072799D01*
X157776318Y-71916189D01*
X157753616Y-72013993D01*
X157716700Y-72089936D01*
X157653648Y-72165971D01*
X157646824Y-72173100D01*
X157542724Y-72281100D01*
X157538675Y-72277127D01*
X157538675Y-72814299D01*
X157645181Y-72918828D01*
X157712970Y-72994009D01*
X157751882Y-73066244D01*
X157775286Y-73160794D01*
X157776284Y-73166528D01*
X157796023Y-73282498D01*
X157803976Y-73357170D01*
X157795212Y-73399584D01*
X157764796Y-73418778D01*
X157707797Y-73423790D01*
X157635950Y-73423653D01*
X157514139Y-73422176D01*
X157433596Y-73413921D01*
X157384787Y-73392263D01*
X157358180Y-73350578D01*
X157344241Y-73282243D01*
X157337012Y-73215944D01*
X157319140Y-73037988D01*
X157428908Y-72926144D01*
X157538675Y-72814299D01*
X157538675Y-72277127D01*
X157433762Y-72174161D01*
X157365084Y-72098116D01*
X157331794Y-72035818D01*
X157325405Y-71989961D01*
X157333297Y-71895373D01*
X157352583Y-71803243D01*
X157378808Y-71730064D01*
X157405513Y-71693473D01*
X157445747Y-71683284D01*
X157521767Y-71675640D01*
X157618570Y-71671933D01*
X157638667Y-71671788D01*
X157638667Y-71649154D01*
X157466019Y-71657406D01*
X157330471Y-71688420D01*
X157330471Y-71709395D01*
X157344134Y-71720405D01*
X157337985Y-71742366D01*
X157325480Y-71792450D01*
X157312821Y-71870319D01*
X157307686Y-71912700D01*
X157302957Y-71939854D01*
X157302957Y-72070714D01*
X157415478Y-72181145D01*
X157528000Y-72291576D01*
X157528000Y-72803823D01*
X157418418Y-72911369D01*
X157308837Y-73018914D01*
X157202518Y-72941898D01*
X157096200Y-72864881D01*
X157096200Y-72234468D01*
X157199578Y-72152591D01*
X157302957Y-72070714D01*
X157302957Y-71939854D01*
X157293141Y-71996220D01*
X157263063Y-72057072D01*
X157205064Y-72118416D01*
X157190804Y-72131208D01*
X157087428Y-72222716D01*
X157083500Y-72220138D01*
X157083500Y-72875715D01*
X157189046Y-72953007D01*
X157236083Y-72988567D01*
X157267795Y-73020592D01*
X157288205Y-73060205D01*
X157301330Y-73118532D01*
X157311192Y-73206699D01*
X157320221Y-73316050D01*
X157310157Y-73362872D01*
X157287424Y-73373200D01*
X157245057Y-73363400D01*
X157174178Y-73338056D01*
X157111441Y-73311901D01*
X156999743Y-73248994D01*
X156919370Y-73168223D01*
X156901593Y-73142950D01*
X156860930Y-73078772D01*
X156846869Y-73042718D01*
X156856991Y-73021216D01*
X156877439Y-73007399D01*
X156930858Y-72974458D01*
X156997833Y-72931633D01*
X157004012Y-72927607D01*
X157083500Y-72875715D01*
X157083500Y-72220138D01*
X157006066Y-72169308D01*
X156938959Y-72126060D01*
X156882527Y-72090982D01*
X156877529Y-72088000D01*
X156851699Y-72068620D01*
X156848338Y-72044322D01*
X156869857Y-72001537D01*
X156901622Y-71952405D01*
X156988946Y-71857196D01*
X157114787Y-71780568D01*
X157280046Y-71720465D01*
X157330471Y-71709395D01*
X157330471Y-71688420D01*
X157248528Y-71707170D01*
X157095004Y-71769026D01*
X157003272Y-71822125D01*
X156930547Y-71888040D01*
X156858434Y-71983618D01*
X156854900Y-71988900D01*
X156814443Y-72049585D01*
X156814443Y-72093315D01*
X156835816Y-72093609D01*
X156876284Y-72113352D01*
X156945324Y-72154770D01*
X157008050Y-72193177D01*
X157034515Y-72210831D01*
X157052274Y-72231788D01*
X157062796Y-72265307D01*
X157067550Y-72320650D01*
X157068005Y-72407077D01*
X157065632Y-72533848D01*
X157065200Y-72553396D01*
X157058100Y-72874438D01*
X156936705Y-72945714D01*
X156815311Y-73016990D01*
X156790655Y-72952141D01*
X156780201Y-72897461D01*
X156772717Y-72804579D01*
X156768197Y-72686008D01*
X156766636Y-72554260D01*
X156768025Y-72421846D01*
X156772359Y-72301278D01*
X156779632Y-72205068D01*
X156789837Y-72145728D01*
X156791074Y-72142154D01*
X156802688Y-72110239D01*
X156814443Y-72093315D01*
X156814443Y-72049585D01*
X156753300Y-72141300D01*
X156753300Y-72954100D01*
X156854900Y-73106500D01*
X156854900Y-73106500D01*
G37*
X156854900Y-73106500D02*
X156927418Y-73203813D01*
X156999720Y-73270703D01*
X157090198Y-73324017D01*
X157095004Y-73326373D01*
X157318227Y-73408689D01*
X157557760Y-73445071D01*
X157724726Y-73444538D01*
X157846701Y-73433070D01*
X157943480Y-73410642D01*
X158040507Y-73370379D01*
X158087443Y-73346500D01*
X158294115Y-73222998D01*
X158507409Y-73069362D01*
X158708740Y-72899561D01*
X158804350Y-72807677D01*
X158887061Y-72721138D01*
X158938641Y-72658236D01*
X158965831Y-72608748D01*
X158975371Y-72562454D01*
X158975800Y-72547700D01*
X158970230Y-72500374D01*
X158949028Y-72452913D01*
X158905453Y-72395096D01*
X158832763Y-72316702D01*
X158804350Y-72287722D01*
X158653231Y-72147110D01*
X158653231Y-72176053D01*
X158698594Y-72206216D01*
X158762275Y-72269241D01*
X158797883Y-72306279D01*
X158887338Y-72406758D01*
X158937411Y-72487617D01*
X158949591Y-72559405D01*
X158925370Y-72632667D01*
X158866237Y-72717953D01*
X158857556Y-72728653D01*
X158792769Y-72801568D01*
X158728160Y-72864675D01*
X158696687Y-72890395D01*
X158628661Y-72938834D01*
X158535530Y-72862067D01*
X158442400Y-72785301D01*
X158442400Y-72550278D01*
X158443571Y-72437303D01*
X158448678Y-72363197D01*
X158460107Y-72316053D01*
X158480245Y-72283962D01*
X158499550Y-72265172D01*
X158566459Y-72207288D01*
X158613436Y-72176996D01*
X158653231Y-72176053D01*
X158653231Y-72147110D01*
X158634704Y-72129871D01*
X158446858Y-71978635D01*
X158363100Y-71920196D01*
X158363100Y-71963500D01*
X158395760Y-71977160D01*
X158454646Y-72012431D01*
X158506492Y-72047404D01*
X158625529Y-72131309D01*
X158527614Y-72216827D01*
X158429700Y-72302345D01*
X158424543Y-72297363D01*
X158424543Y-72792464D01*
X158521913Y-72873282D01*
X158577807Y-72920577D01*
X158613246Y-72952299D01*
X158619742Y-72959450D01*
X158600903Y-72975703D01*
X158550077Y-73014728D01*
X158476447Y-73069539D01*
X158436050Y-73099150D01*
X158267277Y-73216257D01*
X158122444Y-73302719D01*
X157990608Y-73364823D01*
X157940894Y-73383608D01*
X157841024Y-73418844D01*
X157784566Y-73055700D01*
X157877337Y-72960450D01*
X157932042Y-72906802D01*
X157971924Y-72872314D01*
X157984004Y-72865326D01*
X158003666Y-72885040D01*
X158042591Y-72936900D01*
X158092784Y-73010181D01*
X158098781Y-73019290D01*
X158153998Y-73099919D01*
X158203236Y-73165619D01*
X158236162Y-73202630D01*
X158236986Y-73203313D01*
X158247159Y-73204748D01*
X158229676Y-73173443D01*
X158213576Y-73150541D01*
X158152842Y-73067582D01*
X158288692Y-72930023D01*
X158424543Y-72792464D01*
X158424543Y-72297363D01*
X158334925Y-72210782D01*
X158240151Y-72119218D01*
X158289448Y-72041359D01*
X158328087Y-71989965D01*
X158359403Y-71964197D01*
X158363100Y-71963500D01*
X158363100Y-71920196D01*
X158256554Y-71845856D01*
X158082781Y-71745017D01*
X157893962Y-71676067D01*
X157873463Y-71673214D01*
X157873463Y-71705001D01*
X157912224Y-71709120D01*
X157981614Y-71731904D01*
X158067895Y-71767272D01*
X158157332Y-71809145D01*
X158236186Y-71851441D01*
X158290721Y-71888081D01*
X158294481Y-71891355D01*
X158320466Y-71920524D01*
X158320213Y-71950594D01*
X158292192Y-72000196D01*
X158284586Y-72011867D01*
X158231597Y-72073636D01*
X158219653Y-72084168D01*
X158219653Y-72124005D01*
X158318326Y-72220357D01*
X158417000Y-72316709D01*
X158417000Y-72778035D01*
X158143154Y-73048479D01*
X158076877Y-72950943D01*
X158048238Y-72905419D01*
X158029287Y-72861499D01*
X158018039Y-72807412D01*
X158012511Y-72731389D01*
X158010717Y-72621660D01*
X158010600Y-72557879D01*
X158010600Y-72262350D01*
X158115126Y-72193178D01*
X158219653Y-72124005D01*
X158219653Y-72084168D01*
X158156168Y-72140151D01*
X158113239Y-72171263D01*
X157995160Y-72249399D01*
X157888078Y-72149513D01*
X157780995Y-72049628D01*
X157809840Y-71883987D01*
X157830184Y-71794027D01*
X157853811Y-71729755D01*
X157873463Y-71705001D01*
X157873463Y-71673214D01*
X157684769Y-71646951D01*
X157638667Y-71649154D01*
X157638667Y-71671788D01*
X157738185Y-71672656D01*
X157796118Y-71677222D01*
X157821657Y-71687712D01*
X157823996Y-71706348D01*
X157820783Y-71715850D01*
X157807173Y-71764185D01*
X157790019Y-71843238D01*
X157777128Y-71912700D01*
X157776318Y-71916189D01*
X157776318Y-72072799D01*
X157985200Y-72261511D01*
X157985200Y-72829490D01*
X157883531Y-72928766D01*
X157781863Y-73028043D01*
X157667631Y-72915933D01*
X157553400Y-72803823D01*
X157553400Y-72291576D01*
X157664859Y-72182188D01*
X157776318Y-72072799D01*
X157776318Y-71916189D01*
X157753616Y-72013993D01*
X157716700Y-72089936D01*
X157653648Y-72165971D01*
X157646824Y-72173100D01*
X157542724Y-72281100D01*
X157538675Y-72277127D01*
X157538675Y-72814299D01*
X157645181Y-72918828D01*
X157712970Y-72994009D01*
X157751882Y-73066244D01*
X157775286Y-73160794D01*
X157776284Y-73166528D01*
X157796023Y-73282498D01*
X157803976Y-73357170D01*
X157795212Y-73399584D01*
X157764796Y-73418778D01*
X157707797Y-73423790D01*
X157635950Y-73423653D01*
X157514139Y-73422176D01*
X157433596Y-73413921D01*
X157384787Y-73392263D01*
X157358180Y-73350578D01*
X157344241Y-73282243D01*
X157337012Y-73215944D01*
X157319140Y-73037988D01*
X157428908Y-72926144D01*
X157538675Y-72814299D01*
X157538675Y-72277127D01*
X157433762Y-72174161D01*
X157365084Y-72098116D01*
X157331794Y-72035818D01*
X157325405Y-71989961D01*
X157333297Y-71895373D01*
X157352583Y-71803243D01*
X157378808Y-71730064D01*
X157405513Y-71693473D01*
X157445747Y-71683284D01*
X157521767Y-71675640D01*
X157618570Y-71671933D01*
X157638667Y-71671788D01*
X157638667Y-71649154D01*
X157466019Y-71657406D01*
X157330471Y-71688420D01*
X157330471Y-71709395D01*
X157344134Y-71720405D01*
X157337985Y-71742366D01*
X157325480Y-71792450D01*
X157312821Y-71870319D01*
X157307686Y-71912700D01*
X157302957Y-71939854D01*
X157302957Y-72070714D01*
X157415478Y-72181145D01*
X157528000Y-72291576D01*
X157528000Y-72803823D01*
X157418418Y-72911369D01*
X157308837Y-73018914D01*
X157202518Y-72941898D01*
X157096200Y-72864881D01*
X157096200Y-72234468D01*
X157199578Y-72152591D01*
X157302957Y-72070714D01*
X157302957Y-71939854D01*
X157293141Y-71996220D01*
X157263063Y-72057072D01*
X157205064Y-72118416D01*
X157190804Y-72131208D01*
X157087428Y-72222716D01*
X157083500Y-72220138D01*
X157083500Y-72875715D01*
X157189046Y-72953007D01*
X157236083Y-72988567D01*
X157267795Y-73020592D01*
X157288205Y-73060205D01*
X157301330Y-73118532D01*
X157311192Y-73206699D01*
X157320221Y-73316050D01*
X157310157Y-73362872D01*
X157287424Y-73373200D01*
X157245057Y-73363400D01*
X157174178Y-73338056D01*
X157111441Y-73311901D01*
X156999743Y-73248994D01*
X156919370Y-73168223D01*
X156901593Y-73142950D01*
X156860930Y-73078772D01*
X156846869Y-73042718D01*
X156856991Y-73021216D01*
X156877439Y-73007399D01*
X156930858Y-72974458D01*
X156997833Y-72931633D01*
X157004012Y-72927607D01*
X157083500Y-72875715D01*
X157083500Y-72220138D01*
X157006066Y-72169308D01*
X156938959Y-72126060D01*
X156882527Y-72090982D01*
X156877529Y-72088000D01*
X156851699Y-72068620D01*
X156848338Y-72044322D01*
X156869857Y-72001537D01*
X156901622Y-71952405D01*
X156988946Y-71857196D01*
X157114787Y-71780568D01*
X157280046Y-71720465D01*
X157330471Y-71709395D01*
X157330471Y-71688420D01*
X157248528Y-71707170D01*
X157095004Y-71769026D01*
X157003272Y-71822125D01*
X156930547Y-71888040D01*
X156858434Y-71983618D01*
X156854900Y-71988900D01*
X156814443Y-72049585D01*
X156814443Y-72093315D01*
X156835816Y-72093609D01*
X156876284Y-72113352D01*
X156945324Y-72154770D01*
X157008050Y-72193177D01*
X157034515Y-72210831D01*
X157052274Y-72231788D01*
X157062796Y-72265307D01*
X157067550Y-72320650D01*
X157068005Y-72407077D01*
X157065632Y-72533848D01*
X157065200Y-72553396D01*
X157058100Y-72874438D01*
X156936705Y-72945714D01*
X156815311Y-73016990D01*
X156790655Y-72952141D01*
X156780201Y-72897461D01*
X156772717Y-72804579D01*
X156768197Y-72686008D01*
X156766636Y-72554260D01*
X156768025Y-72421846D01*
X156772359Y-72301278D01*
X156779632Y-72205068D01*
X156789837Y-72145728D01*
X156791074Y-72142154D01*
X156802688Y-72110239D01*
X156814443Y-72093315D01*
X156814443Y-72049585D01*
X156753300Y-72141300D01*
X156753300Y-72954100D01*
X156854900Y-73106500D01*
G36*
X156045807Y-72501631D02*
X156054800Y-72496900D01*
X156079057Y-72472967D01*
X156080200Y-72468501D01*
X156063792Y-72466768D01*
X156054800Y-72471500D01*
X156030542Y-72495432D01*
X156029400Y-72499898D01*
X156045807Y-72501631D01*
X156045807Y-72501631D01*
G37*
X156045807Y-72501631D02*
X156054800Y-72496900D01*
X156079057Y-72472967D01*
X156080200Y-72468501D01*
X156063792Y-72466768D01*
X156054800Y-72471500D01*
X156030542Y-72495432D01*
X156029400Y-72499898D01*
X156045807Y-72501631D01*
G36*
X156039674Y-72632675D02*
X156063285Y-72659729D01*
X156068999Y-72662000D01*
X156079438Y-72649945D01*
X156056046Y-72624849D01*
X156050875Y-72621474D01*
X156033494Y-72618480D01*
X156039674Y-72632675D01*
X156039674Y-72632675D01*
G37*
X156039674Y-72632675D02*
X156063285Y-72659729D01*
X156068999Y-72662000D01*
X156079438Y-72649945D01*
X156056046Y-72624849D01*
X156050875Y-72621474D01*
X156033494Y-72618480D01*
X156039674Y-72632675D01*
M02*
