M48
;DRILL file {KiCad 4.0.7} date 03/11/20 10:05:15
;FORMAT={-:-/ absolute / inch / decimal}
FMAT,2
INCH,TZ
T1C0.024
T2C0.028
T3C0.031
T4C0.039
T5C0.043
T6C0.047
T7C0.055
T8C0.059
T9C0.067
T10C0.071
T11C0.102
T12C0.120
T13C0.047
%
G90
G05
M72
T1
X5.6615Y-2.5433
X5.6615Y-2.6024
X5.6616Y-2.8702
X5.6616Y-2.9292
X5.6624Y-3.1857
X5.6624Y-3.2448
X5.7939Y-2.3055
X5.853Y-2.3055
X6.0924Y-2.5664
X6.0924Y-2.6164
X6.0924Y-2.6664
X6.0929Y-2.8854
X6.0929Y-2.9354
X6.0929Y-2.9854
X6.0929Y-3.1978
X6.0929Y-3.2478
X6.0929Y-3.2978
T2
X5.6045Y-3.3915
X5.6079Y-2.7335
X5.6083Y-3.0555
X5.61Y-2.4178
X5.7045Y-3.3915
X5.7079Y-2.7335
X5.7083Y-3.0555
X5.71Y-2.4178
X5.8185Y-2.4691
X5.8185Y-2.539
X5.8185Y-2.6099
X5.8185Y-2.6798
X5.8185Y-2.7496
X5.8185Y-2.8195
X5.8185Y-2.8894
X5.8185Y-2.9603
X5.8185Y-3.0302
X5.8185Y-3.1
X5.8185Y-3.1699
X5.8185Y-3.2398
X5.9189Y-2.5046
X5.9189Y-2.5744
X5.9189Y-2.6443
X5.9189Y-2.7142
X5.9189Y-2.7851
X5.9189Y-2.855
X5.9189Y-2.9248
X5.9189Y-2.9937
X5.9189Y-3.0646
X5.9189Y-3.1345
X5.9189Y-3.2044
X5.9189Y-3.2743
X6.0408Y-2.768
X6.0413Y-2.4508
X6.0413Y-3.0789
X6.1408Y-2.768
X6.1413Y-2.4508
X6.1413Y-3.0789
X6.3207Y-2.7214
X6.3215Y-3.1125
X6.4207Y-2.7214
X6.4215Y-3.1125
T3
X5.6265Y-3.5035
X5.6265Y-3.7004
X5.828Y-3.392
X6.0248Y-3.392
X6.3195Y-2.8731
X6.3195Y-2.9715
X6.321Y-2.4876
X6.321Y-2.586
X6.3228Y-3.2709
X6.3228Y-3.3693
T5
X5.9258Y-3.6298
X5.9258Y-3.7298
X6.0258Y-3.6298
X6.0258Y-3.7298
X6.1258Y-3.6298
X6.1258Y-3.7298
X6.2258Y-3.6298
X6.2258Y-3.7298
T6
X6.0029Y-2.2443
X6.1013Y-2.2443
X6.1998Y-2.0472
X6.2982Y-2.2443
X6.3966Y-2.2443
T7
X5.2501Y-3.7362
T8
X5.3674Y-3.7362
X5.4839Y-3.7362
T9
X6.5472Y-2.2044
X6.5502Y-2.865
X6.5546Y-3.5248
T10
X5.3372Y-2.6766
X5.3372Y-2.8766
X5.3372Y-3.0766
X5.3372Y-3.2766
T11
X6.5472Y-2.0076
X6.5472Y-2.4013
X6.5502Y-2.6681
X6.5502Y-3.0619
X6.5546Y-3.328
X6.5546Y-3.7217
X6.753Y-2.2034
X6.7559Y-2.864
X6.7603Y-3.5238
T12
X5.3372Y-2.3936
X5.3415Y-3.5535
X6.7342Y-2.5421
X6.735Y-3.2025
T13
X6.0013Y-1.9522
X6.0025Y-2.0502
X6.1998Y-2.2415
X6.397Y-2.0502
X6.3974Y-1.9506
T4
X5.4263Y-2.0456G85X5.4263Y-2.1244
G05
X5.505Y-2.27G85X5.5838Y-2.27
G05
X5.6625Y-2.0456G85X5.6625Y-2.1244
G05
T0
M30
