G04 #@! TF.FileFunction,Legend,Top*
%FSLAX46Y46*%
G04 Gerber Fmt 4.6, Leading zero omitted, Abs format (unit mm)*
G04 Created by KiCad (PCBNEW 4.0.7) date 03/11/20 10:05:13*
%MOMM*%
%LPD*%
G01*
G04 APERTURE LIST*
%ADD10C,0.100000*%
%ADD11C,0.300000*%
%ADD12C,0.150000*%
%ADD13C,0.175000*%
%ADD14C,0.120000*%
%ADD15C,0.127000*%
%ADD16C,0.031750*%
%ADD17C,0.125000*%
G04 APERTURE END LIST*
D10*
D11*
X147293287Y-50616571D02*
X146579001Y-50616571D01*
X146507572Y-51330857D01*
X146579001Y-51259429D01*
X146721858Y-51188000D01*
X147079001Y-51188000D01*
X147221858Y-51259429D01*
X147293287Y-51330857D01*
X147364715Y-51473714D01*
X147364715Y-51830857D01*
X147293287Y-51973714D01*
X147221858Y-52045143D01*
X147079001Y-52116571D01*
X146721858Y-52116571D01*
X146579001Y-52045143D01*
X146507572Y-51973714D01*
X147793286Y-50616571D02*
X148293286Y-52116571D01*
X148793286Y-50616571D01*
D12*
X151692667Y-60684667D02*
X152168858Y-60684667D01*
X151597429Y-60970381D02*
X151930762Y-59970381D01*
X152264096Y-60970381D01*
X152597429Y-59970381D02*
X152597429Y-60779905D01*
X152645048Y-60875143D01*
X152692667Y-60922762D01*
X152787905Y-60970381D01*
X152978382Y-60970381D01*
X153073620Y-60922762D01*
X153121239Y-60875143D01*
X153168858Y-60779905D01*
X153168858Y-59970381D01*
X153645048Y-60970381D02*
X153645048Y-59970381D01*
X153883143Y-59970381D01*
X154026001Y-60018000D01*
X154121239Y-60113238D01*
X154168858Y-60208476D01*
X154216477Y-60398952D01*
X154216477Y-60541810D01*
X154168858Y-60732286D01*
X154121239Y-60827524D01*
X154026001Y-60922762D01*
X153883143Y-60970381D01*
X153645048Y-60970381D01*
X154645048Y-60970381D02*
X154645048Y-59970381D01*
X155311714Y-59970381D02*
X155502191Y-59970381D01*
X155597429Y-60018000D01*
X155692667Y-60113238D01*
X155740286Y-60303714D01*
X155740286Y-60637048D01*
X155692667Y-60827524D01*
X155597429Y-60922762D01*
X155502191Y-60970381D01*
X155311714Y-60970381D01*
X155216476Y-60922762D01*
X155121238Y-60827524D01*
X155073619Y-60637048D01*
X155073619Y-60303714D01*
X155121238Y-60113238D01*
X155216476Y-60018000D01*
X155311714Y-59970381D01*
X157406953Y-60970381D02*
X156930762Y-60970381D01*
X156930762Y-59970381D01*
X157740286Y-60970381D02*
X157740286Y-59970381D01*
X158216476Y-60970381D02*
X158216476Y-59970381D01*
X158787905Y-60970381D01*
X158787905Y-59970381D01*
X159264095Y-60446571D02*
X159597429Y-60446571D01*
X159740286Y-60970381D02*
X159264095Y-60970381D01*
X159264095Y-59970381D01*
X159740286Y-59970381D01*
X161121238Y-59970381D02*
X161311715Y-59970381D01*
X161406953Y-60018000D01*
X161502191Y-60113238D01*
X161549810Y-60303714D01*
X161549810Y-60637048D01*
X161502191Y-60827524D01*
X161406953Y-60922762D01*
X161311715Y-60970381D01*
X161121238Y-60970381D01*
X161026000Y-60922762D01*
X160930762Y-60827524D01*
X160883143Y-60637048D01*
X160883143Y-60303714D01*
X160930762Y-60113238D01*
X161026000Y-60018000D01*
X161121238Y-59970381D01*
X161978381Y-59970381D02*
X161978381Y-60779905D01*
X162026000Y-60875143D01*
X162073619Y-60922762D01*
X162168857Y-60970381D01*
X162359334Y-60970381D01*
X162454572Y-60922762D01*
X162502191Y-60875143D01*
X162549810Y-60779905D01*
X162549810Y-59970381D01*
X162883143Y-59970381D02*
X163454572Y-59970381D01*
X163168857Y-60970381D02*
X163168857Y-59970381D01*
X151366809Y-88959667D02*
X151843000Y-88959667D01*
X151271571Y-89245381D02*
X151604904Y-88245381D01*
X151938238Y-89245381D01*
X152985857Y-88197762D02*
X152128714Y-89483476D01*
X153176333Y-88245381D02*
X153509666Y-89245381D01*
X153843000Y-88245381D01*
X154938238Y-89245381D02*
X154938238Y-88245381D01*
X155319191Y-88245381D01*
X155414429Y-88293000D01*
X155462048Y-88340619D01*
X155509667Y-88435857D01*
X155509667Y-88578714D01*
X155462048Y-88673952D01*
X155414429Y-88721571D01*
X155319191Y-88769190D01*
X154938238Y-88769190D01*
X156128714Y-88245381D02*
X156319191Y-88245381D01*
X156414429Y-88293000D01*
X156509667Y-88388238D01*
X156557286Y-88578714D01*
X156557286Y-88912048D01*
X156509667Y-89102524D01*
X156414429Y-89197762D01*
X156319191Y-89245381D01*
X156128714Y-89245381D01*
X156033476Y-89197762D01*
X155938238Y-89102524D01*
X155890619Y-88912048D01*
X155890619Y-88578714D01*
X155938238Y-88388238D01*
X156033476Y-88293000D01*
X156128714Y-88245381D01*
X157557286Y-89245381D02*
X157223952Y-88769190D01*
X156985857Y-89245381D02*
X156985857Y-88245381D01*
X157366810Y-88245381D01*
X157462048Y-88293000D01*
X157509667Y-88340619D01*
X157557286Y-88435857D01*
X157557286Y-88578714D01*
X157509667Y-88673952D01*
X157462048Y-88721571D01*
X157366810Y-88769190D01*
X156985857Y-88769190D01*
X157843000Y-88245381D02*
X158414429Y-88245381D01*
X158128714Y-89245381D02*
X158128714Y-88245381D01*
X131026000Y-96098000D02*
X131026000Y-49570000D01*
X174088000Y-96056000D02*
X174088000Y-49528000D01*
X174089000Y-49537000D02*
X172910000Y-48358000D01*
X172895000Y-97257000D02*
X174069000Y-96083000D01*
X131048000Y-49542000D02*
X132222000Y-48368000D01*
X132196000Y-97261000D02*
X131017000Y-96082000D01*
X132188000Y-97260000D02*
X172878000Y-97260000D01*
X132213000Y-48369000D02*
X172903000Y-48369000D01*
D11*
X172827857Y-61677857D02*
X172899286Y-61463571D01*
X172970714Y-61392143D01*
X173113571Y-61320714D01*
X173327857Y-61320714D01*
X173470714Y-61392143D01*
X173542143Y-61463571D01*
X173613571Y-61606429D01*
X173613571Y-62177857D01*
X172113571Y-62177857D01*
X172113571Y-61677857D01*
X172185000Y-61535000D01*
X172256429Y-61463571D01*
X172399286Y-61392143D01*
X172542143Y-61392143D01*
X172685000Y-61463571D01*
X172756429Y-61535000D01*
X172827857Y-61677857D01*
X172827857Y-62177857D01*
D13*
X159584667Y-96336667D02*
X159584667Y-96003333D01*
X159784667Y-96403333D02*
X159084667Y-96170000D01*
X159784667Y-95936667D01*
X159784667Y-95303333D02*
X159451333Y-95536667D01*
X159784667Y-95703333D02*
X159084667Y-95703333D01*
X159084667Y-95436667D01*
X159118000Y-95370000D01*
X159151333Y-95336667D01*
X159218000Y-95303333D01*
X159318000Y-95303333D01*
X159384667Y-95336667D01*
X159418000Y-95370000D01*
X159451333Y-95436667D01*
X159451333Y-95703333D01*
X153655667Y-54824000D02*
X153655667Y-54490666D01*
X153855667Y-54890666D02*
X153155667Y-54657333D01*
X153855667Y-54424000D01*
X153855667Y-53857333D02*
X153855667Y-54190666D01*
X153155667Y-54190666D01*
X161450667Y-54828667D02*
X161450667Y-54495333D01*
X161650667Y-54895333D02*
X160950667Y-54662000D01*
X161650667Y-54428667D01*
X161650667Y-53795333D02*
X161317333Y-54028667D01*
X161650667Y-54195333D02*
X160950667Y-54195333D01*
X160950667Y-53928667D01*
X160984000Y-53862000D01*
X161017333Y-53828667D01*
X161084000Y-53795333D01*
X161184000Y-53795333D01*
X161250667Y-53828667D01*
X161284000Y-53862000D01*
X161317333Y-53928667D01*
X161317333Y-54195333D01*
X156848667Y-96308000D02*
X156848667Y-95974666D01*
X157048667Y-96374666D02*
X156348667Y-96141333D01*
X157048667Y-95908000D01*
X157048667Y-95341333D02*
X157048667Y-95674666D01*
X156348667Y-95674666D01*
X154564333Y-96442000D02*
X154597667Y-96342000D01*
X154597667Y-96175333D01*
X154564333Y-96108666D01*
X154531000Y-96075333D01*
X154464333Y-96042000D01*
X154397667Y-96042000D01*
X154331000Y-96075333D01*
X154297667Y-96108666D01*
X154264333Y-96175333D01*
X154231000Y-96308666D01*
X154197667Y-96375333D01*
X154164333Y-96408666D01*
X154097667Y-96442000D01*
X154031000Y-96442000D01*
X153964333Y-96408666D01*
X153931000Y-96375333D01*
X153897667Y-96308666D01*
X153897667Y-96142000D01*
X153931000Y-96042000D01*
X154264333Y-95608666D02*
X154597667Y-95608666D01*
X153897667Y-95841999D02*
X154264333Y-95608666D01*
X153897667Y-95375333D01*
X159426000Y-91186000D02*
X159459333Y-91086000D01*
X159492667Y-91052667D01*
X159559333Y-91019333D01*
X159659333Y-91019333D01*
X159726000Y-91052667D01*
X159759333Y-91086000D01*
X159792667Y-91152667D01*
X159792667Y-91419333D01*
X159092667Y-91419333D01*
X159092667Y-91186000D01*
X159126000Y-91119333D01*
X159159333Y-91086000D01*
X159226000Y-91052667D01*
X159292667Y-91052667D01*
X159359333Y-91086000D01*
X159392667Y-91119333D01*
X159426000Y-91186000D01*
X159426000Y-91419333D01*
X156382000Y-90991667D02*
X156348667Y-91058333D01*
X156348667Y-91158333D01*
X156382000Y-91258333D01*
X156448667Y-91325000D01*
X156515333Y-91358333D01*
X156648667Y-91391667D01*
X156748667Y-91391667D01*
X156882000Y-91358333D01*
X156948667Y-91325000D01*
X157015333Y-91258333D01*
X157048667Y-91158333D01*
X157048667Y-91091667D01*
X157015333Y-90991667D01*
X156982000Y-90958333D01*
X156748667Y-90958333D01*
X156748667Y-91091667D01*
X154602667Y-90950333D02*
X154269333Y-91183667D01*
X154602667Y-91350333D02*
X153902667Y-91350333D01*
X153902667Y-91083667D01*
X153936000Y-91017000D01*
X153969333Y-90983667D01*
X154036000Y-90950333D01*
X154136000Y-90950333D01*
X154202667Y-90983667D01*
X154236000Y-91017000D01*
X154269333Y-91083667D01*
X154269333Y-91350333D01*
X151452000Y-91865333D02*
X151418667Y-91931999D01*
X151418667Y-92031999D01*
X151452000Y-92131999D01*
X151518667Y-92198666D01*
X151585333Y-92231999D01*
X151718667Y-92265333D01*
X151818667Y-92265333D01*
X151952000Y-92231999D01*
X152018667Y-92198666D01*
X152085333Y-92131999D01*
X152118667Y-92031999D01*
X152118667Y-91965333D01*
X152085333Y-91865333D01*
X152052000Y-91831999D01*
X151818667Y-91831999D01*
X151818667Y-91965333D01*
X152118667Y-91531999D02*
X151418667Y-91531999D01*
X152118667Y-91131999D01*
X151418667Y-91131999D01*
X152118667Y-90798666D02*
X151418667Y-90798666D01*
X151418667Y-90632000D01*
X151452000Y-90532000D01*
X151518667Y-90465333D01*
X151585333Y-90432000D01*
X151718667Y-90398666D01*
X151818667Y-90398666D01*
X151952000Y-90432000D01*
X152018667Y-90465333D01*
X152085333Y-90532000D01*
X152118667Y-90632000D01*
X152118667Y-90798666D01*
X151434667Y-96022333D02*
X151434667Y-96355666D01*
X151768000Y-96389000D01*
X151734667Y-96355666D01*
X151701333Y-96289000D01*
X151701333Y-96122333D01*
X151734667Y-96055666D01*
X151768000Y-96022333D01*
X151834667Y-95989000D01*
X152001333Y-95989000D01*
X152068000Y-96022333D01*
X152101333Y-96055666D01*
X152134667Y-96122333D01*
X152134667Y-96289000D01*
X152101333Y-96355666D01*
X152068000Y-96389000D01*
X151434667Y-95788999D02*
X152134667Y-95555666D01*
X151434667Y-95322333D01*
D11*
X172194000Y-78291143D02*
X172122571Y-78434000D01*
X172122571Y-78648286D01*
X172194000Y-78862571D01*
X172336857Y-79005429D01*
X172479714Y-79076857D01*
X172765429Y-79148286D01*
X172979714Y-79148286D01*
X173265429Y-79076857D01*
X173408286Y-79005429D01*
X173551143Y-78862571D01*
X173622571Y-78648286D01*
X173622571Y-78505429D01*
X173551143Y-78291143D01*
X173479714Y-78219714D01*
X172979714Y-78219714D01*
X172979714Y-78505429D01*
X173662571Y-95059714D02*
X172948286Y-95559714D01*
X173662571Y-95916857D02*
X172162571Y-95916857D01*
X172162571Y-95345429D01*
X172234000Y-95202571D01*
X172305429Y-95131143D01*
X172448286Y-95059714D01*
X172662571Y-95059714D01*
X172805429Y-95131143D01*
X172876857Y-95202571D01*
X172948286Y-95345429D01*
X172948286Y-95916857D01*
D14*
X156610000Y-76359000D02*
X156610000Y-72759000D01*
X156598478Y-76397478D02*
G75*
G02X152160000Y-74559000I-1838478J1838478D01*
G01*
X156598478Y-72720522D02*
G75*
G03X152160000Y-74559000I-1838478J-1838478D01*
G01*
X141903000Y-93700000D02*
X141903000Y-89280000D01*
X143923000Y-93700000D02*
X143923000Y-89280000D01*
X141903000Y-93700000D02*
X141917000Y-93700000D01*
X143909000Y-93700000D02*
X143923000Y-93700000D01*
X141903000Y-89280000D02*
X141917000Y-89280000D01*
X143909000Y-89280000D02*
X143923000Y-89280000D01*
D12*
X163594000Y-48485000D02*
X163594000Y-59705000D01*
X153624000Y-49355000D02*
X153624000Y-52085000D01*
X161254000Y-49345000D02*
X161254000Y-52075000D01*
X151384000Y-59685000D02*
X151384000Y-48525000D01*
X162564000Y-47865000D02*
X162564000Y-48495000D01*
X154934000Y-45465000D02*
X154934000Y-47845000D01*
X160024000Y-45465000D02*
X160024000Y-47845000D01*
X152404000Y-47885000D02*
X152404000Y-48525000D01*
X155696000Y-52071000D02*
X153664000Y-52071000D01*
X153624000Y-49355000D02*
X161244000Y-49355000D01*
X161284000Y-52071000D02*
X159252000Y-52071000D01*
X152404000Y-48529000D02*
X151388000Y-48529000D01*
X163580000Y-48489000D02*
X162564000Y-48489000D01*
X154934000Y-46229000D02*
X160014000Y-46229000D01*
X152404000Y-47861000D02*
X162564000Y-47861000D01*
X154934000Y-45467000D02*
X160014000Y-45467000D01*
X163570000Y-59691000D02*
X151378000Y-59691000D01*
D14*
X137960000Y-90259000D02*
G75*
G03X137960000Y-90259000I-2286000J0D01*
G01*
X148321000Y-85147000D02*
X152741000Y-85147000D01*
X148321000Y-87167000D02*
X152741000Y-87167000D01*
X148321000Y-85147000D02*
X148321000Y-85161000D01*
X148321000Y-87153000D02*
X148321000Y-87167000D01*
X152741000Y-85147000D02*
X152741000Y-85161000D01*
X152741000Y-87153000D02*
X152741000Y-87167000D01*
X159373864Y-61416180D02*
G75*
G03X159373000Y-67451482I1179136J-3017820D01*
G01*
X161732136Y-61416180D02*
G75*
G02X161733000Y-67451482I-1179136J-3017820D01*
G01*
X161732136Y-61416180D02*
G75*
G03X159373000Y-61416518I-1179136J-3017820D01*
G01*
X157353000Y-64434000D02*
X163753000Y-64434000D01*
X157353000Y-64394000D02*
X163753000Y-64394000D01*
X157353000Y-64354000D02*
X163753000Y-64354000D01*
X157355000Y-64314000D02*
X163751000Y-64314000D01*
X157356000Y-64274000D02*
X163750000Y-64274000D01*
X157359000Y-64234000D02*
X163747000Y-64234000D01*
X157361000Y-64194000D02*
X163745000Y-64194000D01*
X157365000Y-64154000D02*
X159573000Y-64154000D01*
X161533000Y-64154000D02*
X163741000Y-64154000D01*
X157368000Y-64114000D02*
X159573000Y-64114000D01*
X161533000Y-64114000D02*
X163738000Y-64114000D01*
X157373000Y-64074000D02*
X159573000Y-64074000D01*
X161533000Y-64074000D02*
X163733000Y-64074000D01*
X157377000Y-64034000D02*
X159573000Y-64034000D01*
X161533000Y-64034000D02*
X163729000Y-64034000D01*
X157383000Y-63994000D02*
X159573000Y-63994000D01*
X161533000Y-63994000D02*
X163723000Y-63994000D01*
X157388000Y-63954000D02*
X159573000Y-63954000D01*
X161533000Y-63954000D02*
X163718000Y-63954000D01*
X157395000Y-63914000D02*
X159573000Y-63914000D01*
X161533000Y-63914000D02*
X163711000Y-63914000D01*
X157401000Y-63874000D02*
X159573000Y-63874000D01*
X161533000Y-63874000D02*
X163705000Y-63874000D01*
X157409000Y-63834000D02*
X159573000Y-63834000D01*
X161533000Y-63834000D02*
X163697000Y-63834000D01*
X157416000Y-63794000D02*
X159573000Y-63794000D01*
X161533000Y-63794000D02*
X163690000Y-63794000D01*
X157425000Y-63754000D02*
X159573000Y-63754000D01*
X161533000Y-63754000D02*
X163681000Y-63754000D01*
X157434000Y-63713000D02*
X159573000Y-63713000D01*
X161533000Y-63713000D02*
X163672000Y-63713000D01*
X157443000Y-63673000D02*
X159573000Y-63673000D01*
X161533000Y-63673000D02*
X163663000Y-63673000D01*
X157453000Y-63633000D02*
X159573000Y-63633000D01*
X161533000Y-63633000D02*
X163653000Y-63633000D01*
X157463000Y-63593000D02*
X159573000Y-63593000D01*
X161533000Y-63593000D02*
X163643000Y-63593000D01*
X157474000Y-63553000D02*
X159573000Y-63553000D01*
X161533000Y-63553000D02*
X163632000Y-63553000D01*
X157486000Y-63513000D02*
X159573000Y-63513000D01*
X161533000Y-63513000D02*
X163620000Y-63513000D01*
X157498000Y-63473000D02*
X159573000Y-63473000D01*
X161533000Y-63473000D02*
X163608000Y-63473000D01*
X157511000Y-63433000D02*
X159573000Y-63433000D01*
X161533000Y-63433000D02*
X163595000Y-63433000D01*
X157524000Y-63393000D02*
X159573000Y-63393000D01*
X161533000Y-63393000D02*
X163582000Y-63393000D01*
X157538000Y-63353000D02*
X159573000Y-63353000D01*
X161533000Y-63353000D02*
X163568000Y-63353000D01*
X157552000Y-63313000D02*
X159573000Y-63313000D01*
X161533000Y-63313000D02*
X163554000Y-63313000D01*
X157567000Y-63273000D02*
X159573000Y-63273000D01*
X161533000Y-63273000D02*
X163539000Y-63273000D01*
X157583000Y-63233000D02*
X159573000Y-63233000D01*
X161533000Y-63233000D02*
X163523000Y-63233000D01*
X157599000Y-63193000D02*
X159573000Y-63193000D01*
X161533000Y-63193000D02*
X163507000Y-63193000D01*
X157616000Y-63153000D02*
X159573000Y-63153000D01*
X161533000Y-63153000D02*
X163490000Y-63153000D01*
X157634000Y-63113000D02*
X159573000Y-63113000D01*
X161533000Y-63113000D02*
X163472000Y-63113000D01*
X157652000Y-63073000D02*
X159573000Y-63073000D01*
X161533000Y-63073000D02*
X163454000Y-63073000D01*
X157671000Y-63033000D02*
X159573000Y-63033000D01*
X161533000Y-63033000D02*
X163435000Y-63033000D01*
X157690000Y-62993000D02*
X159573000Y-62993000D01*
X161533000Y-62993000D02*
X163416000Y-62993000D01*
X157710000Y-62953000D02*
X159573000Y-62953000D01*
X161533000Y-62953000D02*
X163396000Y-62953000D01*
X157731000Y-62913000D02*
X159573000Y-62913000D01*
X161533000Y-62913000D02*
X163375000Y-62913000D01*
X157753000Y-62873000D02*
X159573000Y-62873000D01*
X161533000Y-62873000D02*
X163353000Y-62873000D01*
X157775000Y-62833000D02*
X159573000Y-62833000D01*
X161533000Y-62833000D02*
X163331000Y-62833000D01*
X157798000Y-62793000D02*
X159573000Y-62793000D01*
X161533000Y-62793000D02*
X163308000Y-62793000D01*
X157822000Y-62753000D02*
X159573000Y-62753000D01*
X161533000Y-62753000D02*
X163284000Y-62753000D01*
X157847000Y-62713000D02*
X159573000Y-62713000D01*
X161533000Y-62713000D02*
X163259000Y-62713000D01*
X157872000Y-62673000D02*
X159573000Y-62673000D01*
X161533000Y-62673000D02*
X163234000Y-62673000D01*
X157899000Y-62633000D02*
X159573000Y-62633000D01*
X161533000Y-62633000D02*
X163207000Y-62633000D01*
X157926000Y-62593000D02*
X159573000Y-62593000D01*
X161533000Y-62593000D02*
X163180000Y-62593000D01*
X157954000Y-62553000D02*
X159573000Y-62553000D01*
X161533000Y-62553000D02*
X163152000Y-62553000D01*
X157983000Y-62513000D02*
X159573000Y-62513000D01*
X161533000Y-62513000D02*
X163123000Y-62513000D01*
X158013000Y-62473000D02*
X159573000Y-62473000D01*
X161533000Y-62473000D02*
X163093000Y-62473000D01*
X158043000Y-62433000D02*
X159573000Y-62433000D01*
X161533000Y-62433000D02*
X163063000Y-62433000D01*
X158075000Y-62393000D02*
X159573000Y-62393000D01*
X161533000Y-62393000D02*
X163031000Y-62393000D01*
X158108000Y-62353000D02*
X159573000Y-62353000D01*
X161533000Y-62353000D02*
X162998000Y-62353000D01*
X158142000Y-62313000D02*
X159573000Y-62313000D01*
X161533000Y-62313000D02*
X162964000Y-62313000D01*
X158178000Y-62273000D02*
X159573000Y-62273000D01*
X161533000Y-62273000D02*
X162928000Y-62273000D01*
X158214000Y-62233000D02*
X159573000Y-62233000D01*
X161533000Y-62233000D02*
X162892000Y-62233000D01*
X158252000Y-62193000D02*
X162854000Y-62193000D01*
X158291000Y-62153000D02*
X162815000Y-62153000D01*
X158331000Y-62113000D02*
X162775000Y-62113000D01*
X158373000Y-62073000D02*
X162733000Y-62073000D01*
X158416000Y-62033000D02*
X162690000Y-62033000D01*
X158461000Y-61993000D02*
X162645000Y-61993000D01*
X158508000Y-61953000D02*
X162598000Y-61953000D01*
X158556000Y-61913000D02*
X162550000Y-61913000D01*
X158607000Y-61873000D02*
X162499000Y-61873000D01*
X158659000Y-61833000D02*
X162447000Y-61833000D01*
X158714000Y-61793000D02*
X162392000Y-61793000D01*
X158772000Y-61753000D02*
X162334000Y-61753000D01*
X158832000Y-61713000D02*
X162274000Y-61713000D01*
X158895000Y-61673000D02*
X162211000Y-61673000D01*
X158962000Y-61633000D02*
X162144000Y-61633000D01*
X159033000Y-61593000D02*
X162073000Y-61593000D01*
X159108000Y-61553000D02*
X161998000Y-61553000D01*
X159189000Y-61513000D02*
X161917000Y-61513000D01*
X159275000Y-61473000D02*
X161831000Y-61473000D01*
X159369000Y-61433000D02*
X161737000Y-61433000D01*
X159472000Y-61393000D02*
X161634000Y-61393000D01*
X159587000Y-61353000D02*
X161519000Y-61353000D01*
X159719000Y-61313000D02*
X161387000Y-61313000D01*
X159877000Y-61273000D02*
X161229000Y-61273000D01*
X160085000Y-61233000D02*
X161021000Y-61233000D01*
X160553000Y-67884000D02*
X160553000Y-66684000D01*
X159903000Y-67284000D02*
X161203000Y-67284000D01*
X159419864Y-81312180D02*
G75*
G03X159419000Y-87347482I1179136J-3017820D01*
G01*
X161778136Y-81312180D02*
G75*
G02X161779000Y-87347482I-1179136J-3017820D01*
G01*
X161778136Y-81312180D02*
G75*
G03X159419000Y-81312518I-1179136J-3017820D01*
G01*
X157399000Y-84330000D02*
X163799000Y-84330000D01*
X157399000Y-84290000D02*
X163799000Y-84290000D01*
X157399000Y-84250000D02*
X163799000Y-84250000D01*
X157401000Y-84210000D02*
X163797000Y-84210000D01*
X157402000Y-84170000D02*
X163796000Y-84170000D01*
X157405000Y-84130000D02*
X163793000Y-84130000D01*
X157407000Y-84090000D02*
X163791000Y-84090000D01*
X157411000Y-84050000D02*
X159619000Y-84050000D01*
X161579000Y-84050000D02*
X163787000Y-84050000D01*
X157414000Y-84010000D02*
X159619000Y-84010000D01*
X161579000Y-84010000D02*
X163784000Y-84010000D01*
X157419000Y-83970000D02*
X159619000Y-83970000D01*
X161579000Y-83970000D02*
X163779000Y-83970000D01*
X157423000Y-83930000D02*
X159619000Y-83930000D01*
X161579000Y-83930000D02*
X163775000Y-83930000D01*
X157429000Y-83890000D02*
X159619000Y-83890000D01*
X161579000Y-83890000D02*
X163769000Y-83890000D01*
X157434000Y-83850000D02*
X159619000Y-83850000D01*
X161579000Y-83850000D02*
X163764000Y-83850000D01*
X157441000Y-83810000D02*
X159619000Y-83810000D01*
X161579000Y-83810000D02*
X163757000Y-83810000D01*
X157447000Y-83770000D02*
X159619000Y-83770000D01*
X161579000Y-83770000D02*
X163751000Y-83770000D01*
X157455000Y-83730000D02*
X159619000Y-83730000D01*
X161579000Y-83730000D02*
X163743000Y-83730000D01*
X157462000Y-83690000D02*
X159619000Y-83690000D01*
X161579000Y-83690000D02*
X163736000Y-83690000D01*
X157471000Y-83650000D02*
X159619000Y-83650000D01*
X161579000Y-83650000D02*
X163727000Y-83650000D01*
X157480000Y-83609000D02*
X159619000Y-83609000D01*
X161579000Y-83609000D02*
X163718000Y-83609000D01*
X157489000Y-83569000D02*
X159619000Y-83569000D01*
X161579000Y-83569000D02*
X163709000Y-83569000D01*
X157499000Y-83529000D02*
X159619000Y-83529000D01*
X161579000Y-83529000D02*
X163699000Y-83529000D01*
X157509000Y-83489000D02*
X159619000Y-83489000D01*
X161579000Y-83489000D02*
X163689000Y-83489000D01*
X157520000Y-83449000D02*
X159619000Y-83449000D01*
X161579000Y-83449000D02*
X163678000Y-83449000D01*
X157532000Y-83409000D02*
X159619000Y-83409000D01*
X161579000Y-83409000D02*
X163666000Y-83409000D01*
X157544000Y-83369000D02*
X159619000Y-83369000D01*
X161579000Y-83369000D02*
X163654000Y-83369000D01*
X157557000Y-83329000D02*
X159619000Y-83329000D01*
X161579000Y-83329000D02*
X163641000Y-83329000D01*
X157570000Y-83289000D02*
X159619000Y-83289000D01*
X161579000Y-83289000D02*
X163628000Y-83289000D01*
X157584000Y-83249000D02*
X159619000Y-83249000D01*
X161579000Y-83249000D02*
X163614000Y-83249000D01*
X157598000Y-83209000D02*
X159619000Y-83209000D01*
X161579000Y-83209000D02*
X163600000Y-83209000D01*
X157613000Y-83169000D02*
X159619000Y-83169000D01*
X161579000Y-83169000D02*
X163585000Y-83169000D01*
X157629000Y-83129000D02*
X159619000Y-83129000D01*
X161579000Y-83129000D02*
X163569000Y-83129000D01*
X157645000Y-83089000D02*
X159619000Y-83089000D01*
X161579000Y-83089000D02*
X163553000Y-83089000D01*
X157662000Y-83049000D02*
X159619000Y-83049000D01*
X161579000Y-83049000D02*
X163536000Y-83049000D01*
X157680000Y-83009000D02*
X159619000Y-83009000D01*
X161579000Y-83009000D02*
X163518000Y-83009000D01*
X157698000Y-82969000D02*
X159619000Y-82969000D01*
X161579000Y-82969000D02*
X163500000Y-82969000D01*
X157717000Y-82929000D02*
X159619000Y-82929000D01*
X161579000Y-82929000D02*
X163481000Y-82929000D01*
X157736000Y-82889000D02*
X159619000Y-82889000D01*
X161579000Y-82889000D02*
X163462000Y-82889000D01*
X157756000Y-82849000D02*
X159619000Y-82849000D01*
X161579000Y-82849000D02*
X163442000Y-82849000D01*
X157777000Y-82809000D02*
X159619000Y-82809000D01*
X161579000Y-82809000D02*
X163421000Y-82809000D01*
X157799000Y-82769000D02*
X159619000Y-82769000D01*
X161579000Y-82769000D02*
X163399000Y-82769000D01*
X157821000Y-82729000D02*
X159619000Y-82729000D01*
X161579000Y-82729000D02*
X163377000Y-82729000D01*
X157844000Y-82689000D02*
X159619000Y-82689000D01*
X161579000Y-82689000D02*
X163354000Y-82689000D01*
X157868000Y-82649000D02*
X159619000Y-82649000D01*
X161579000Y-82649000D02*
X163330000Y-82649000D01*
X157893000Y-82609000D02*
X159619000Y-82609000D01*
X161579000Y-82609000D02*
X163305000Y-82609000D01*
X157918000Y-82569000D02*
X159619000Y-82569000D01*
X161579000Y-82569000D02*
X163280000Y-82569000D01*
X157945000Y-82529000D02*
X159619000Y-82529000D01*
X161579000Y-82529000D02*
X163253000Y-82529000D01*
X157972000Y-82489000D02*
X159619000Y-82489000D01*
X161579000Y-82489000D02*
X163226000Y-82489000D01*
X158000000Y-82449000D02*
X159619000Y-82449000D01*
X161579000Y-82449000D02*
X163198000Y-82449000D01*
X158029000Y-82409000D02*
X159619000Y-82409000D01*
X161579000Y-82409000D02*
X163169000Y-82409000D01*
X158059000Y-82369000D02*
X159619000Y-82369000D01*
X161579000Y-82369000D02*
X163139000Y-82369000D01*
X158089000Y-82329000D02*
X159619000Y-82329000D01*
X161579000Y-82329000D02*
X163109000Y-82329000D01*
X158121000Y-82289000D02*
X159619000Y-82289000D01*
X161579000Y-82289000D02*
X163077000Y-82289000D01*
X158154000Y-82249000D02*
X159619000Y-82249000D01*
X161579000Y-82249000D02*
X163044000Y-82249000D01*
X158188000Y-82209000D02*
X159619000Y-82209000D01*
X161579000Y-82209000D02*
X163010000Y-82209000D01*
X158224000Y-82169000D02*
X159619000Y-82169000D01*
X161579000Y-82169000D02*
X162974000Y-82169000D01*
X158260000Y-82129000D02*
X159619000Y-82129000D01*
X161579000Y-82129000D02*
X162938000Y-82129000D01*
X158298000Y-82089000D02*
X162900000Y-82089000D01*
X158337000Y-82049000D02*
X162861000Y-82049000D01*
X158377000Y-82009000D02*
X162821000Y-82009000D01*
X158419000Y-81969000D02*
X162779000Y-81969000D01*
X158462000Y-81929000D02*
X162736000Y-81929000D01*
X158507000Y-81889000D02*
X162691000Y-81889000D01*
X158554000Y-81849000D02*
X162644000Y-81849000D01*
X158602000Y-81809000D02*
X162596000Y-81809000D01*
X158653000Y-81769000D02*
X162545000Y-81769000D01*
X158705000Y-81729000D02*
X162493000Y-81729000D01*
X158760000Y-81689000D02*
X162438000Y-81689000D01*
X158818000Y-81649000D02*
X162380000Y-81649000D01*
X158878000Y-81609000D02*
X162320000Y-81609000D01*
X158941000Y-81569000D02*
X162257000Y-81569000D01*
X159008000Y-81529000D02*
X162190000Y-81529000D01*
X159079000Y-81489000D02*
X162119000Y-81489000D01*
X159154000Y-81449000D02*
X162044000Y-81449000D01*
X159235000Y-81409000D02*
X161963000Y-81409000D01*
X159321000Y-81369000D02*
X161877000Y-81369000D01*
X159415000Y-81329000D02*
X161783000Y-81329000D01*
X159518000Y-81289000D02*
X161680000Y-81289000D01*
X159633000Y-81249000D02*
X161565000Y-81249000D01*
X159765000Y-81209000D02*
X161433000Y-81209000D01*
X159923000Y-81169000D02*
X161275000Y-81169000D01*
X160131000Y-81129000D02*
X161067000Y-81129000D01*
X160599000Y-87780000D02*
X160599000Y-86580000D01*
X159949000Y-87180000D02*
X161249000Y-87180000D01*
X159335864Y-71208180D02*
G75*
G03X159335000Y-77243482I1179136J-3017820D01*
G01*
X161694136Y-71208180D02*
G75*
G02X161695000Y-77243482I-1179136J-3017820D01*
G01*
X161694136Y-71208180D02*
G75*
G03X159335000Y-71208518I-1179136J-3017820D01*
G01*
X157315000Y-74226000D02*
X163715000Y-74226000D01*
X157315000Y-74186000D02*
X163715000Y-74186000D01*
X157315000Y-74146000D02*
X163715000Y-74146000D01*
X157317000Y-74106000D02*
X163713000Y-74106000D01*
X157318000Y-74066000D02*
X163712000Y-74066000D01*
X157321000Y-74026000D02*
X163709000Y-74026000D01*
X157323000Y-73986000D02*
X163707000Y-73986000D01*
X157327000Y-73946000D02*
X159535000Y-73946000D01*
X161495000Y-73946000D02*
X163703000Y-73946000D01*
X157330000Y-73906000D02*
X159535000Y-73906000D01*
X161495000Y-73906000D02*
X163700000Y-73906000D01*
X157335000Y-73866000D02*
X159535000Y-73866000D01*
X161495000Y-73866000D02*
X163695000Y-73866000D01*
X157339000Y-73826000D02*
X159535000Y-73826000D01*
X161495000Y-73826000D02*
X163691000Y-73826000D01*
X157345000Y-73786000D02*
X159535000Y-73786000D01*
X161495000Y-73786000D02*
X163685000Y-73786000D01*
X157350000Y-73746000D02*
X159535000Y-73746000D01*
X161495000Y-73746000D02*
X163680000Y-73746000D01*
X157357000Y-73706000D02*
X159535000Y-73706000D01*
X161495000Y-73706000D02*
X163673000Y-73706000D01*
X157363000Y-73666000D02*
X159535000Y-73666000D01*
X161495000Y-73666000D02*
X163667000Y-73666000D01*
X157371000Y-73626000D02*
X159535000Y-73626000D01*
X161495000Y-73626000D02*
X163659000Y-73626000D01*
X157378000Y-73586000D02*
X159535000Y-73586000D01*
X161495000Y-73586000D02*
X163652000Y-73586000D01*
X157387000Y-73546000D02*
X159535000Y-73546000D01*
X161495000Y-73546000D02*
X163643000Y-73546000D01*
X157396000Y-73505000D02*
X159535000Y-73505000D01*
X161495000Y-73505000D02*
X163634000Y-73505000D01*
X157405000Y-73465000D02*
X159535000Y-73465000D01*
X161495000Y-73465000D02*
X163625000Y-73465000D01*
X157415000Y-73425000D02*
X159535000Y-73425000D01*
X161495000Y-73425000D02*
X163615000Y-73425000D01*
X157425000Y-73385000D02*
X159535000Y-73385000D01*
X161495000Y-73385000D02*
X163605000Y-73385000D01*
X157436000Y-73345000D02*
X159535000Y-73345000D01*
X161495000Y-73345000D02*
X163594000Y-73345000D01*
X157448000Y-73305000D02*
X159535000Y-73305000D01*
X161495000Y-73305000D02*
X163582000Y-73305000D01*
X157460000Y-73265000D02*
X159535000Y-73265000D01*
X161495000Y-73265000D02*
X163570000Y-73265000D01*
X157473000Y-73225000D02*
X159535000Y-73225000D01*
X161495000Y-73225000D02*
X163557000Y-73225000D01*
X157486000Y-73185000D02*
X159535000Y-73185000D01*
X161495000Y-73185000D02*
X163544000Y-73185000D01*
X157500000Y-73145000D02*
X159535000Y-73145000D01*
X161495000Y-73145000D02*
X163530000Y-73145000D01*
X157514000Y-73105000D02*
X159535000Y-73105000D01*
X161495000Y-73105000D02*
X163516000Y-73105000D01*
X157529000Y-73065000D02*
X159535000Y-73065000D01*
X161495000Y-73065000D02*
X163501000Y-73065000D01*
X157545000Y-73025000D02*
X159535000Y-73025000D01*
X161495000Y-73025000D02*
X163485000Y-73025000D01*
X157561000Y-72985000D02*
X159535000Y-72985000D01*
X161495000Y-72985000D02*
X163469000Y-72985000D01*
X157578000Y-72945000D02*
X159535000Y-72945000D01*
X161495000Y-72945000D02*
X163452000Y-72945000D01*
X157596000Y-72905000D02*
X159535000Y-72905000D01*
X161495000Y-72905000D02*
X163434000Y-72905000D01*
X157614000Y-72865000D02*
X159535000Y-72865000D01*
X161495000Y-72865000D02*
X163416000Y-72865000D01*
X157633000Y-72825000D02*
X159535000Y-72825000D01*
X161495000Y-72825000D02*
X163397000Y-72825000D01*
X157652000Y-72785000D02*
X159535000Y-72785000D01*
X161495000Y-72785000D02*
X163378000Y-72785000D01*
X157672000Y-72745000D02*
X159535000Y-72745000D01*
X161495000Y-72745000D02*
X163358000Y-72745000D01*
X157693000Y-72705000D02*
X159535000Y-72705000D01*
X161495000Y-72705000D02*
X163337000Y-72705000D01*
X157715000Y-72665000D02*
X159535000Y-72665000D01*
X161495000Y-72665000D02*
X163315000Y-72665000D01*
X157737000Y-72625000D02*
X159535000Y-72625000D01*
X161495000Y-72625000D02*
X163293000Y-72625000D01*
X157760000Y-72585000D02*
X159535000Y-72585000D01*
X161495000Y-72585000D02*
X163270000Y-72585000D01*
X157784000Y-72545000D02*
X159535000Y-72545000D01*
X161495000Y-72545000D02*
X163246000Y-72545000D01*
X157809000Y-72505000D02*
X159535000Y-72505000D01*
X161495000Y-72505000D02*
X163221000Y-72505000D01*
X157834000Y-72465000D02*
X159535000Y-72465000D01*
X161495000Y-72465000D02*
X163196000Y-72465000D01*
X157861000Y-72425000D02*
X159535000Y-72425000D01*
X161495000Y-72425000D02*
X163169000Y-72425000D01*
X157888000Y-72385000D02*
X159535000Y-72385000D01*
X161495000Y-72385000D02*
X163142000Y-72385000D01*
X157916000Y-72345000D02*
X159535000Y-72345000D01*
X161495000Y-72345000D02*
X163114000Y-72345000D01*
X157945000Y-72305000D02*
X159535000Y-72305000D01*
X161495000Y-72305000D02*
X163085000Y-72305000D01*
X157975000Y-72265000D02*
X159535000Y-72265000D01*
X161495000Y-72265000D02*
X163055000Y-72265000D01*
X158005000Y-72225000D02*
X159535000Y-72225000D01*
X161495000Y-72225000D02*
X163025000Y-72225000D01*
X158037000Y-72185000D02*
X159535000Y-72185000D01*
X161495000Y-72185000D02*
X162993000Y-72185000D01*
X158070000Y-72145000D02*
X159535000Y-72145000D01*
X161495000Y-72145000D02*
X162960000Y-72145000D01*
X158104000Y-72105000D02*
X159535000Y-72105000D01*
X161495000Y-72105000D02*
X162926000Y-72105000D01*
X158140000Y-72065000D02*
X159535000Y-72065000D01*
X161495000Y-72065000D02*
X162890000Y-72065000D01*
X158176000Y-72025000D02*
X159535000Y-72025000D01*
X161495000Y-72025000D02*
X162854000Y-72025000D01*
X158214000Y-71985000D02*
X162816000Y-71985000D01*
X158253000Y-71945000D02*
X162777000Y-71945000D01*
X158293000Y-71905000D02*
X162737000Y-71905000D01*
X158335000Y-71865000D02*
X162695000Y-71865000D01*
X158378000Y-71825000D02*
X162652000Y-71825000D01*
X158423000Y-71785000D02*
X162607000Y-71785000D01*
X158470000Y-71745000D02*
X162560000Y-71745000D01*
X158518000Y-71705000D02*
X162512000Y-71705000D01*
X158569000Y-71665000D02*
X162461000Y-71665000D01*
X158621000Y-71625000D02*
X162409000Y-71625000D01*
X158676000Y-71585000D02*
X162354000Y-71585000D01*
X158734000Y-71545000D02*
X162296000Y-71545000D01*
X158794000Y-71505000D02*
X162236000Y-71505000D01*
X158857000Y-71465000D02*
X162173000Y-71465000D01*
X158924000Y-71425000D02*
X162106000Y-71425000D01*
X158995000Y-71385000D02*
X162035000Y-71385000D01*
X159070000Y-71345000D02*
X161960000Y-71345000D01*
X159151000Y-71305000D02*
X161879000Y-71305000D01*
X159237000Y-71265000D02*
X161793000Y-71265000D01*
X159331000Y-71225000D02*
X161699000Y-71225000D01*
X159434000Y-71185000D02*
X161596000Y-71185000D01*
X159549000Y-71145000D02*
X161481000Y-71145000D01*
X159681000Y-71105000D02*
X161349000Y-71105000D01*
X159839000Y-71065000D02*
X161191000Y-71065000D01*
X160047000Y-71025000D02*
X160983000Y-71025000D01*
X160515000Y-77676000D02*
X160515000Y-76476000D01*
X159865000Y-77076000D02*
X161165000Y-77076000D01*
X137851000Y-60797000D02*
G75*
G03X137851000Y-60797000I-2286000J0D01*
G01*
X145895000Y-61413000D02*
G75*
G03X145895000Y-61413000I-860000J0D01*
G01*
X144175000Y-61413000D02*
X143495000Y-61413000D01*
X145850000Y-77610000D02*
G75*
G03X145850000Y-77610000I-860000J0D01*
G01*
X144130000Y-77610000D02*
X143450000Y-77610000D01*
X145841000Y-69431000D02*
G75*
G03X145841000Y-69431000I-860000J0D01*
G01*
X144121000Y-69431000D02*
X143441000Y-69431000D01*
X163946000Y-69124000D02*
G75*
G03X163946000Y-69124000I-860000J0D01*
G01*
X162226000Y-69124000D02*
X161546000Y-69124000D01*
X156849000Y-78204000D02*
G75*
G03X156849000Y-78204000I-860000J0D01*
G01*
X155129000Y-78204000D02*
X154449000Y-78204000D01*
X156849000Y-62250000D02*
G75*
G03X156849000Y-62250000I-860000J0D01*
G01*
X155129000Y-62250000D02*
X154449000Y-62250000D01*
X156836000Y-70307000D02*
G75*
G03X156836000Y-70307000I-860000J0D01*
G01*
X155116000Y-70307000D02*
X154436000Y-70307000D01*
X163966000Y-79058000D02*
G75*
G03X163966000Y-79058000I-860000J0D01*
G01*
X162246000Y-79058000D02*
X161566000Y-79058000D01*
X173335000Y-64569000D02*
G75*
G03X173335000Y-64569000I-2286000J0D01*
G01*
X173355000Y-81344000D02*
G75*
G03X173355000Y-81344000I-2286000J0D01*
G01*
X153105000Y-96637000D02*
X155605000Y-96637000D01*
X155605000Y-96637000D02*
X155605000Y-96887000D01*
X155605000Y-96887000D02*
X153105000Y-96887000D01*
X153105000Y-96887000D02*
X153105000Y-96687000D01*
X153105000Y-96687000D02*
X153105000Y-96837000D01*
X153105000Y-96837000D02*
X155505000Y-96837000D01*
X155505000Y-96837000D02*
X155605000Y-96987000D01*
X155605000Y-96987000D02*
X153105000Y-96987000D01*
X153105000Y-96987000D02*
X153105000Y-96887000D01*
X153105000Y-96887000D02*
X155605000Y-96887000D01*
X155605000Y-96887000D02*
X155605000Y-96937000D01*
X161035000Y-96757000D02*
X147655000Y-96757000D01*
X147645000Y-90247000D02*
X161055000Y-90267000D01*
X161055000Y-96757000D02*
X161055000Y-90257000D01*
X147635000Y-90247000D02*
X147635000Y-96747000D01*
X142821830Y-63503564D02*
G75*
G03X142821000Y-67195996I979170J-1846436D01*
G01*
X144780170Y-63503564D02*
G75*
G02X144781000Y-67195996I-979170J-1846436D01*
G01*
X144780170Y-63503564D02*
G75*
G03X142821000Y-63504004I-979170J-1846436D01*
G01*
X144581000Y-65350000D02*
X145851000Y-65350000D01*
X141751000Y-65350000D02*
X143021000Y-65350000D01*
X141751000Y-65310000D02*
X143021000Y-65310000D01*
X144581000Y-65310000D02*
X145851000Y-65310000D01*
X141752000Y-65270000D02*
X143021000Y-65270000D01*
X144581000Y-65270000D02*
X145850000Y-65270000D01*
X141754000Y-65230000D02*
X143021000Y-65230000D01*
X144581000Y-65230000D02*
X145848000Y-65230000D01*
X141757000Y-65190000D02*
X143021000Y-65190000D01*
X144581000Y-65190000D02*
X145845000Y-65190000D01*
X141760000Y-65150000D02*
X143021000Y-65150000D01*
X144581000Y-65150000D02*
X145842000Y-65150000D01*
X141764000Y-65110000D02*
X143021000Y-65110000D01*
X144581000Y-65110000D02*
X145838000Y-65110000D01*
X141769000Y-65070000D02*
X143021000Y-65070000D01*
X144581000Y-65070000D02*
X145833000Y-65070000D01*
X141775000Y-65030000D02*
X143021000Y-65030000D01*
X144581000Y-65030000D02*
X145827000Y-65030000D01*
X141782000Y-64990000D02*
X143021000Y-64990000D01*
X144581000Y-64990000D02*
X145820000Y-64990000D01*
X141789000Y-64950000D02*
X143021000Y-64950000D01*
X144581000Y-64950000D02*
X145813000Y-64950000D01*
X141797000Y-64910000D02*
X143021000Y-64910000D01*
X144581000Y-64910000D02*
X145805000Y-64910000D01*
X141806000Y-64870000D02*
X143021000Y-64870000D01*
X144581000Y-64870000D02*
X145796000Y-64870000D01*
X141816000Y-64830000D02*
X143021000Y-64830000D01*
X144581000Y-64830000D02*
X145786000Y-64830000D01*
X141827000Y-64790000D02*
X143021000Y-64790000D01*
X144581000Y-64790000D02*
X145775000Y-64790000D01*
X141838000Y-64750000D02*
X143021000Y-64750000D01*
X144581000Y-64750000D02*
X145764000Y-64750000D01*
X141851000Y-64710000D02*
X143021000Y-64710000D01*
X144581000Y-64710000D02*
X145751000Y-64710000D01*
X141864000Y-64670000D02*
X143021000Y-64670000D01*
X144581000Y-64670000D02*
X145738000Y-64670000D01*
X141878000Y-64629000D02*
X143021000Y-64629000D01*
X144581000Y-64629000D02*
X145724000Y-64629000D01*
X141894000Y-64589000D02*
X143021000Y-64589000D01*
X144581000Y-64589000D02*
X145708000Y-64589000D01*
X141910000Y-64549000D02*
X143021000Y-64549000D01*
X144581000Y-64549000D02*
X145692000Y-64549000D01*
X141927000Y-64509000D02*
X143021000Y-64509000D01*
X144581000Y-64509000D02*
X145675000Y-64509000D01*
X141945000Y-64469000D02*
X143021000Y-64469000D01*
X144581000Y-64469000D02*
X145657000Y-64469000D01*
X141964000Y-64429000D02*
X143021000Y-64429000D01*
X144581000Y-64429000D02*
X145638000Y-64429000D01*
X141984000Y-64389000D02*
X143021000Y-64389000D01*
X144581000Y-64389000D02*
X145618000Y-64389000D01*
X142005000Y-64349000D02*
X143021000Y-64349000D01*
X144581000Y-64349000D02*
X145597000Y-64349000D01*
X142028000Y-64309000D02*
X143021000Y-64309000D01*
X144581000Y-64309000D02*
X145574000Y-64309000D01*
X142051000Y-64269000D02*
X143021000Y-64269000D01*
X144581000Y-64269000D02*
X145551000Y-64269000D01*
X142076000Y-64229000D02*
X143021000Y-64229000D01*
X144581000Y-64229000D02*
X145526000Y-64229000D01*
X142102000Y-64189000D02*
X143021000Y-64189000D01*
X144581000Y-64189000D02*
X145500000Y-64189000D01*
X142129000Y-64149000D02*
X143021000Y-64149000D01*
X144581000Y-64149000D02*
X145473000Y-64149000D01*
X142158000Y-64109000D02*
X143021000Y-64109000D01*
X144581000Y-64109000D02*
X145444000Y-64109000D01*
X142188000Y-64069000D02*
X143021000Y-64069000D01*
X144581000Y-64069000D02*
X145414000Y-64069000D01*
X142220000Y-64029000D02*
X143021000Y-64029000D01*
X144581000Y-64029000D02*
X145382000Y-64029000D01*
X142254000Y-63989000D02*
X143021000Y-63989000D01*
X144581000Y-63989000D02*
X145348000Y-63989000D01*
X142289000Y-63949000D02*
X143021000Y-63949000D01*
X144581000Y-63949000D02*
X145313000Y-63949000D01*
X142326000Y-63909000D02*
X143021000Y-63909000D01*
X144581000Y-63909000D02*
X145276000Y-63909000D01*
X142365000Y-63869000D02*
X143021000Y-63869000D01*
X144581000Y-63869000D02*
X145237000Y-63869000D01*
X142406000Y-63829000D02*
X143021000Y-63829000D01*
X144581000Y-63829000D02*
X145196000Y-63829000D01*
X142450000Y-63789000D02*
X145152000Y-63789000D01*
X142496000Y-63749000D02*
X145106000Y-63749000D01*
X142545000Y-63709000D02*
X145057000Y-63709000D01*
X142597000Y-63669000D02*
X145005000Y-63669000D01*
X142653000Y-63629000D02*
X144949000Y-63629000D01*
X142713000Y-63589000D02*
X144889000Y-63589000D01*
X142778000Y-63549000D02*
X144824000Y-63549000D01*
X142849000Y-63509000D02*
X144753000Y-63509000D01*
X142927000Y-63469000D02*
X144675000Y-63469000D01*
X143015000Y-63429000D02*
X144587000Y-63429000D01*
X143115000Y-63389000D02*
X144487000Y-63389000D01*
X143234000Y-63349000D02*
X144368000Y-63349000D01*
X143386000Y-63309000D02*
X144216000Y-63309000D01*
X143636000Y-63269000D02*
X143966000Y-63269000D01*
X143801000Y-67800000D02*
X143801000Y-66900000D01*
X143351000Y-67350000D02*
X144251000Y-67350000D01*
X142845830Y-79821564D02*
G75*
G03X142845000Y-83513996I979170J-1846436D01*
G01*
X144804170Y-79821564D02*
G75*
G02X144805000Y-83513996I-979170J-1846436D01*
G01*
X144804170Y-79821564D02*
G75*
G03X142845000Y-79822004I-979170J-1846436D01*
G01*
X144605000Y-81668000D02*
X145875000Y-81668000D01*
X141775000Y-81668000D02*
X143045000Y-81668000D01*
X141775000Y-81628000D02*
X143045000Y-81628000D01*
X144605000Y-81628000D02*
X145875000Y-81628000D01*
X141776000Y-81588000D02*
X143045000Y-81588000D01*
X144605000Y-81588000D02*
X145874000Y-81588000D01*
X141778000Y-81548000D02*
X143045000Y-81548000D01*
X144605000Y-81548000D02*
X145872000Y-81548000D01*
X141781000Y-81508000D02*
X143045000Y-81508000D01*
X144605000Y-81508000D02*
X145869000Y-81508000D01*
X141784000Y-81468000D02*
X143045000Y-81468000D01*
X144605000Y-81468000D02*
X145866000Y-81468000D01*
X141788000Y-81428000D02*
X143045000Y-81428000D01*
X144605000Y-81428000D02*
X145862000Y-81428000D01*
X141793000Y-81388000D02*
X143045000Y-81388000D01*
X144605000Y-81388000D02*
X145857000Y-81388000D01*
X141799000Y-81348000D02*
X143045000Y-81348000D01*
X144605000Y-81348000D02*
X145851000Y-81348000D01*
X141806000Y-81308000D02*
X143045000Y-81308000D01*
X144605000Y-81308000D02*
X145844000Y-81308000D01*
X141813000Y-81268000D02*
X143045000Y-81268000D01*
X144605000Y-81268000D02*
X145837000Y-81268000D01*
X141821000Y-81228000D02*
X143045000Y-81228000D01*
X144605000Y-81228000D02*
X145829000Y-81228000D01*
X141830000Y-81188000D02*
X143045000Y-81188000D01*
X144605000Y-81188000D02*
X145820000Y-81188000D01*
X141840000Y-81148000D02*
X143045000Y-81148000D01*
X144605000Y-81148000D02*
X145810000Y-81148000D01*
X141851000Y-81108000D02*
X143045000Y-81108000D01*
X144605000Y-81108000D02*
X145799000Y-81108000D01*
X141862000Y-81068000D02*
X143045000Y-81068000D01*
X144605000Y-81068000D02*
X145788000Y-81068000D01*
X141875000Y-81028000D02*
X143045000Y-81028000D01*
X144605000Y-81028000D02*
X145775000Y-81028000D01*
X141888000Y-80988000D02*
X143045000Y-80988000D01*
X144605000Y-80988000D02*
X145762000Y-80988000D01*
X141902000Y-80947000D02*
X143045000Y-80947000D01*
X144605000Y-80947000D02*
X145748000Y-80947000D01*
X141918000Y-80907000D02*
X143045000Y-80907000D01*
X144605000Y-80907000D02*
X145732000Y-80907000D01*
X141934000Y-80867000D02*
X143045000Y-80867000D01*
X144605000Y-80867000D02*
X145716000Y-80867000D01*
X141951000Y-80827000D02*
X143045000Y-80827000D01*
X144605000Y-80827000D02*
X145699000Y-80827000D01*
X141969000Y-80787000D02*
X143045000Y-80787000D01*
X144605000Y-80787000D02*
X145681000Y-80787000D01*
X141988000Y-80747000D02*
X143045000Y-80747000D01*
X144605000Y-80747000D02*
X145662000Y-80747000D01*
X142008000Y-80707000D02*
X143045000Y-80707000D01*
X144605000Y-80707000D02*
X145642000Y-80707000D01*
X142029000Y-80667000D02*
X143045000Y-80667000D01*
X144605000Y-80667000D02*
X145621000Y-80667000D01*
X142052000Y-80627000D02*
X143045000Y-80627000D01*
X144605000Y-80627000D02*
X145598000Y-80627000D01*
X142075000Y-80587000D02*
X143045000Y-80587000D01*
X144605000Y-80587000D02*
X145575000Y-80587000D01*
X142100000Y-80547000D02*
X143045000Y-80547000D01*
X144605000Y-80547000D02*
X145550000Y-80547000D01*
X142126000Y-80507000D02*
X143045000Y-80507000D01*
X144605000Y-80507000D02*
X145524000Y-80507000D01*
X142153000Y-80467000D02*
X143045000Y-80467000D01*
X144605000Y-80467000D02*
X145497000Y-80467000D01*
X142182000Y-80427000D02*
X143045000Y-80427000D01*
X144605000Y-80427000D02*
X145468000Y-80427000D01*
X142212000Y-80387000D02*
X143045000Y-80387000D01*
X144605000Y-80387000D02*
X145438000Y-80387000D01*
X142244000Y-80347000D02*
X143045000Y-80347000D01*
X144605000Y-80347000D02*
X145406000Y-80347000D01*
X142278000Y-80307000D02*
X143045000Y-80307000D01*
X144605000Y-80307000D02*
X145372000Y-80307000D01*
X142313000Y-80267000D02*
X143045000Y-80267000D01*
X144605000Y-80267000D02*
X145337000Y-80267000D01*
X142350000Y-80227000D02*
X143045000Y-80227000D01*
X144605000Y-80227000D02*
X145300000Y-80227000D01*
X142389000Y-80187000D02*
X143045000Y-80187000D01*
X144605000Y-80187000D02*
X145261000Y-80187000D01*
X142430000Y-80147000D02*
X143045000Y-80147000D01*
X144605000Y-80147000D02*
X145220000Y-80147000D01*
X142474000Y-80107000D02*
X145176000Y-80107000D01*
X142520000Y-80067000D02*
X145130000Y-80067000D01*
X142569000Y-80027000D02*
X145081000Y-80027000D01*
X142621000Y-79987000D02*
X145029000Y-79987000D01*
X142677000Y-79947000D02*
X144973000Y-79947000D01*
X142737000Y-79907000D02*
X144913000Y-79907000D01*
X142802000Y-79867000D02*
X144848000Y-79867000D01*
X142873000Y-79827000D02*
X144777000Y-79827000D01*
X142951000Y-79787000D02*
X144699000Y-79787000D01*
X143039000Y-79747000D02*
X144611000Y-79747000D01*
X143139000Y-79707000D02*
X144511000Y-79707000D01*
X143258000Y-79667000D02*
X144392000Y-79667000D01*
X143410000Y-79627000D02*
X144240000Y-79627000D01*
X143660000Y-79587000D02*
X143990000Y-79587000D01*
X143825000Y-84118000D02*
X143825000Y-83218000D01*
X143375000Y-83668000D02*
X144275000Y-83668000D01*
X142825830Y-71805564D02*
G75*
G03X142825000Y-75497996I979170J-1846436D01*
G01*
X144784170Y-71805564D02*
G75*
G02X144785000Y-75497996I-979170J-1846436D01*
G01*
X144784170Y-71805564D02*
G75*
G03X142825000Y-71806004I-979170J-1846436D01*
G01*
X144585000Y-73652000D02*
X145855000Y-73652000D01*
X141755000Y-73652000D02*
X143025000Y-73652000D01*
X141755000Y-73612000D02*
X143025000Y-73612000D01*
X144585000Y-73612000D02*
X145855000Y-73612000D01*
X141756000Y-73572000D02*
X143025000Y-73572000D01*
X144585000Y-73572000D02*
X145854000Y-73572000D01*
X141758000Y-73532000D02*
X143025000Y-73532000D01*
X144585000Y-73532000D02*
X145852000Y-73532000D01*
X141761000Y-73492000D02*
X143025000Y-73492000D01*
X144585000Y-73492000D02*
X145849000Y-73492000D01*
X141764000Y-73452000D02*
X143025000Y-73452000D01*
X144585000Y-73452000D02*
X145846000Y-73452000D01*
X141768000Y-73412000D02*
X143025000Y-73412000D01*
X144585000Y-73412000D02*
X145842000Y-73412000D01*
X141773000Y-73372000D02*
X143025000Y-73372000D01*
X144585000Y-73372000D02*
X145837000Y-73372000D01*
X141779000Y-73332000D02*
X143025000Y-73332000D01*
X144585000Y-73332000D02*
X145831000Y-73332000D01*
X141786000Y-73292000D02*
X143025000Y-73292000D01*
X144585000Y-73292000D02*
X145824000Y-73292000D01*
X141793000Y-73252000D02*
X143025000Y-73252000D01*
X144585000Y-73252000D02*
X145817000Y-73252000D01*
X141801000Y-73212000D02*
X143025000Y-73212000D01*
X144585000Y-73212000D02*
X145809000Y-73212000D01*
X141810000Y-73172000D02*
X143025000Y-73172000D01*
X144585000Y-73172000D02*
X145800000Y-73172000D01*
X141820000Y-73132000D02*
X143025000Y-73132000D01*
X144585000Y-73132000D02*
X145790000Y-73132000D01*
X141831000Y-73092000D02*
X143025000Y-73092000D01*
X144585000Y-73092000D02*
X145779000Y-73092000D01*
X141842000Y-73052000D02*
X143025000Y-73052000D01*
X144585000Y-73052000D02*
X145768000Y-73052000D01*
X141855000Y-73012000D02*
X143025000Y-73012000D01*
X144585000Y-73012000D02*
X145755000Y-73012000D01*
X141868000Y-72972000D02*
X143025000Y-72972000D01*
X144585000Y-72972000D02*
X145742000Y-72972000D01*
X141882000Y-72931000D02*
X143025000Y-72931000D01*
X144585000Y-72931000D02*
X145728000Y-72931000D01*
X141898000Y-72891000D02*
X143025000Y-72891000D01*
X144585000Y-72891000D02*
X145712000Y-72891000D01*
X141914000Y-72851000D02*
X143025000Y-72851000D01*
X144585000Y-72851000D02*
X145696000Y-72851000D01*
X141931000Y-72811000D02*
X143025000Y-72811000D01*
X144585000Y-72811000D02*
X145679000Y-72811000D01*
X141949000Y-72771000D02*
X143025000Y-72771000D01*
X144585000Y-72771000D02*
X145661000Y-72771000D01*
X141968000Y-72731000D02*
X143025000Y-72731000D01*
X144585000Y-72731000D02*
X145642000Y-72731000D01*
X141988000Y-72691000D02*
X143025000Y-72691000D01*
X144585000Y-72691000D02*
X145622000Y-72691000D01*
X142009000Y-72651000D02*
X143025000Y-72651000D01*
X144585000Y-72651000D02*
X145601000Y-72651000D01*
X142032000Y-72611000D02*
X143025000Y-72611000D01*
X144585000Y-72611000D02*
X145578000Y-72611000D01*
X142055000Y-72571000D02*
X143025000Y-72571000D01*
X144585000Y-72571000D02*
X145555000Y-72571000D01*
X142080000Y-72531000D02*
X143025000Y-72531000D01*
X144585000Y-72531000D02*
X145530000Y-72531000D01*
X142106000Y-72491000D02*
X143025000Y-72491000D01*
X144585000Y-72491000D02*
X145504000Y-72491000D01*
X142133000Y-72451000D02*
X143025000Y-72451000D01*
X144585000Y-72451000D02*
X145477000Y-72451000D01*
X142162000Y-72411000D02*
X143025000Y-72411000D01*
X144585000Y-72411000D02*
X145448000Y-72411000D01*
X142192000Y-72371000D02*
X143025000Y-72371000D01*
X144585000Y-72371000D02*
X145418000Y-72371000D01*
X142224000Y-72331000D02*
X143025000Y-72331000D01*
X144585000Y-72331000D02*
X145386000Y-72331000D01*
X142258000Y-72291000D02*
X143025000Y-72291000D01*
X144585000Y-72291000D02*
X145352000Y-72291000D01*
X142293000Y-72251000D02*
X143025000Y-72251000D01*
X144585000Y-72251000D02*
X145317000Y-72251000D01*
X142330000Y-72211000D02*
X143025000Y-72211000D01*
X144585000Y-72211000D02*
X145280000Y-72211000D01*
X142369000Y-72171000D02*
X143025000Y-72171000D01*
X144585000Y-72171000D02*
X145241000Y-72171000D01*
X142410000Y-72131000D02*
X143025000Y-72131000D01*
X144585000Y-72131000D02*
X145200000Y-72131000D01*
X142454000Y-72091000D02*
X145156000Y-72091000D01*
X142500000Y-72051000D02*
X145110000Y-72051000D01*
X142549000Y-72011000D02*
X145061000Y-72011000D01*
X142601000Y-71971000D02*
X145009000Y-71971000D01*
X142657000Y-71931000D02*
X144953000Y-71931000D01*
X142717000Y-71891000D02*
X144893000Y-71891000D01*
X142782000Y-71851000D02*
X144828000Y-71851000D01*
X142853000Y-71811000D02*
X144757000Y-71811000D01*
X142931000Y-71771000D02*
X144679000Y-71771000D01*
X143019000Y-71731000D02*
X144591000Y-71731000D01*
X143119000Y-71691000D02*
X144491000Y-71691000D01*
X143238000Y-71651000D02*
X144372000Y-71651000D01*
X143390000Y-71611000D02*
X144220000Y-71611000D01*
X143640000Y-71571000D02*
X143970000Y-71571000D01*
X143805000Y-76102000D02*
X143805000Y-75202000D01*
X143355000Y-75652000D02*
X144255000Y-75652000D01*
X146069564Y-59539170D02*
G75*
G03X149761996Y-59540000I1846436J979170D01*
G01*
X146069564Y-57580830D02*
G75*
G02X149761996Y-57580000I1846436J-979170D01*
G01*
X146069564Y-57580830D02*
G75*
G03X146070004Y-59540000I1846436J-979170D01*
G01*
X147916000Y-57780000D02*
X147916000Y-56510000D01*
X147916000Y-60610000D02*
X147916000Y-59340000D01*
X147876000Y-60610000D02*
X147876000Y-59340000D01*
X147876000Y-57780000D02*
X147876000Y-56510000D01*
X147836000Y-60609000D02*
X147836000Y-59340000D01*
X147836000Y-57780000D02*
X147836000Y-56511000D01*
X147796000Y-60607000D02*
X147796000Y-59340000D01*
X147796000Y-57780000D02*
X147796000Y-56513000D01*
X147756000Y-60604000D02*
X147756000Y-59340000D01*
X147756000Y-57780000D02*
X147756000Y-56516000D01*
X147716000Y-60601000D02*
X147716000Y-59340000D01*
X147716000Y-57780000D02*
X147716000Y-56519000D01*
X147676000Y-60597000D02*
X147676000Y-59340000D01*
X147676000Y-57780000D02*
X147676000Y-56523000D01*
X147636000Y-60592000D02*
X147636000Y-59340000D01*
X147636000Y-57780000D02*
X147636000Y-56528000D01*
X147596000Y-60586000D02*
X147596000Y-59340000D01*
X147596000Y-57780000D02*
X147596000Y-56534000D01*
X147556000Y-60579000D02*
X147556000Y-59340000D01*
X147556000Y-57780000D02*
X147556000Y-56541000D01*
X147516000Y-60572000D02*
X147516000Y-59340000D01*
X147516000Y-57780000D02*
X147516000Y-56548000D01*
X147476000Y-60564000D02*
X147476000Y-59340000D01*
X147476000Y-57780000D02*
X147476000Y-56556000D01*
X147436000Y-60555000D02*
X147436000Y-59340000D01*
X147436000Y-57780000D02*
X147436000Y-56565000D01*
X147396000Y-60545000D02*
X147396000Y-59340000D01*
X147396000Y-57780000D02*
X147396000Y-56575000D01*
X147356000Y-60534000D02*
X147356000Y-59340000D01*
X147356000Y-57780000D02*
X147356000Y-56586000D01*
X147316000Y-60523000D02*
X147316000Y-59340000D01*
X147316000Y-57780000D02*
X147316000Y-56597000D01*
X147276000Y-60510000D02*
X147276000Y-59340000D01*
X147276000Y-57780000D02*
X147276000Y-56610000D01*
X147236000Y-60497000D02*
X147236000Y-59340000D01*
X147236000Y-57780000D02*
X147236000Y-56623000D01*
X147195000Y-60483000D02*
X147195000Y-59340000D01*
X147195000Y-57780000D02*
X147195000Y-56637000D01*
X147155000Y-60467000D02*
X147155000Y-59340000D01*
X147155000Y-57780000D02*
X147155000Y-56653000D01*
X147115000Y-60451000D02*
X147115000Y-59340000D01*
X147115000Y-57780000D02*
X147115000Y-56669000D01*
X147075000Y-60434000D02*
X147075000Y-59340000D01*
X147075000Y-57780000D02*
X147075000Y-56686000D01*
X147035000Y-60416000D02*
X147035000Y-59340000D01*
X147035000Y-57780000D02*
X147035000Y-56704000D01*
X146995000Y-60397000D02*
X146995000Y-59340000D01*
X146995000Y-57780000D02*
X146995000Y-56723000D01*
X146955000Y-60377000D02*
X146955000Y-59340000D01*
X146955000Y-57780000D02*
X146955000Y-56743000D01*
X146915000Y-60356000D02*
X146915000Y-59340000D01*
X146915000Y-57780000D02*
X146915000Y-56764000D01*
X146875000Y-60333000D02*
X146875000Y-59340000D01*
X146875000Y-57780000D02*
X146875000Y-56787000D01*
X146835000Y-60310000D02*
X146835000Y-59340000D01*
X146835000Y-57780000D02*
X146835000Y-56810000D01*
X146795000Y-60285000D02*
X146795000Y-59340000D01*
X146795000Y-57780000D02*
X146795000Y-56835000D01*
X146755000Y-60259000D02*
X146755000Y-59340000D01*
X146755000Y-57780000D02*
X146755000Y-56861000D01*
X146715000Y-60232000D02*
X146715000Y-59340000D01*
X146715000Y-57780000D02*
X146715000Y-56888000D01*
X146675000Y-60203000D02*
X146675000Y-59340000D01*
X146675000Y-57780000D02*
X146675000Y-56917000D01*
X146635000Y-60173000D02*
X146635000Y-59340000D01*
X146635000Y-57780000D02*
X146635000Y-56947000D01*
X146595000Y-60141000D02*
X146595000Y-59340000D01*
X146595000Y-57780000D02*
X146595000Y-56979000D01*
X146555000Y-60107000D02*
X146555000Y-59340000D01*
X146555000Y-57780000D02*
X146555000Y-57013000D01*
X146515000Y-60072000D02*
X146515000Y-59340000D01*
X146515000Y-57780000D02*
X146515000Y-57048000D01*
X146475000Y-60035000D02*
X146475000Y-59340000D01*
X146475000Y-57780000D02*
X146475000Y-57085000D01*
X146435000Y-59996000D02*
X146435000Y-59340000D01*
X146435000Y-57780000D02*
X146435000Y-57124000D01*
X146395000Y-59955000D02*
X146395000Y-59340000D01*
X146395000Y-57780000D02*
X146395000Y-57165000D01*
X146355000Y-59911000D02*
X146355000Y-57209000D01*
X146315000Y-59865000D02*
X146315000Y-57255000D01*
X146275000Y-59816000D02*
X146275000Y-57304000D01*
X146235000Y-59764000D02*
X146235000Y-57356000D01*
X146195000Y-59708000D02*
X146195000Y-57412000D01*
X146155000Y-59648000D02*
X146155000Y-57472000D01*
X146115000Y-59583000D02*
X146115000Y-57537000D01*
X146075000Y-59512000D02*
X146075000Y-57608000D01*
X146035000Y-59434000D02*
X146035000Y-57686000D01*
X145995000Y-59346000D02*
X145995000Y-57774000D01*
X145955000Y-59246000D02*
X145955000Y-57874000D01*
X145915000Y-59127000D02*
X145915000Y-57993000D01*
X145875000Y-58975000D02*
X145875000Y-58145000D01*
X145835000Y-58725000D02*
X145835000Y-58395000D01*
X150366000Y-58560000D02*
X149466000Y-58560000D01*
X149916000Y-59010000D02*
X149916000Y-58110000D01*
X156597000Y-68257000D02*
X156597000Y-64657000D01*
X156585478Y-68295478D02*
G75*
G02X152147000Y-66457000I-1838478J1838478D01*
G01*
X156585478Y-64618522D02*
G75*
G03X152147000Y-66457000I-1838478J-1838478D01*
G01*
X156610000Y-84294000D02*
X156610000Y-80694000D01*
X156598478Y-84332478D02*
G75*
G02X152160000Y-82494000I-1838478J1838478D01*
G01*
X156598478Y-80655522D02*
G75*
G03X152160000Y-82494000I-1838478J-1838478D01*
G01*
X145754000Y-86144000D02*
G75*
G03X145754000Y-86144000I-860000J0D01*
G01*
X144034000Y-86144000D02*
X143354000Y-86144000D01*
X138828000Y-57559000D02*
X130028000Y-57559000D01*
X130028000Y-57559000D02*
X130028000Y-48359000D01*
X144728000Y-54859000D02*
X144728000Y-57559000D01*
X144728000Y-57559000D02*
X142828000Y-57559000D01*
X130028000Y-48359000D02*
X144728000Y-48359000D01*
X144728000Y-48359000D02*
X144728000Y-50959000D01*
D10*
X131807000Y-96593000D02*
X140807000Y-96593000D01*
X131807000Y-93193000D02*
X140807000Y-93193000D01*
D14*
X140796000Y-93204000D02*
X140796000Y-96544000D01*
X131812000Y-93239000D02*
X131812000Y-96579000D01*
D11*
X138765000Y-66606000D02*
X137065000Y-64906000D01*
X138765000Y-84606000D02*
X137065000Y-86306000D01*
X138765000Y-84606000D02*
X138765000Y-66606000D01*
X132365000Y-86306000D02*
X132365000Y-64906000D01*
X139765000Y-66106000D02*
X137565000Y-63906000D01*
X139765000Y-85106000D02*
X137565000Y-87306000D01*
X139765000Y-85106000D02*
X139765000Y-66106000D01*
X132365000Y-64906000D02*
X137065000Y-64906000D01*
X132365000Y-86306000D02*
X137065000Y-86306000D01*
X131365000Y-87306000D02*
X131365000Y-63906000D01*
X131365000Y-87306000D02*
X137565000Y-87306000D01*
X131365000Y-63906000D02*
X137565000Y-63906000D01*
D10*
X146584256Y-62691000D02*
G75*
G03X146584256Y-62691000I-195256J0D01*
G01*
X146659416Y-62691000D02*
G75*
G03X146659416Y-62691000I-270416J0D01*
G01*
X150339000Y-83581000D02*
X150339000Y-62441000D01*
X150339000Y-62441000D02*
X147789000Y-62441000D01*
X147789000Y-62441000D02*
X147789000Y-83566000D01*
X147789000Y-83566000D02*
X150339000Y-83566000D01*
D12*
X145757000Y-49104000D02*
X145757000Y-49804000D01*
X146107000Y-49454000D02*
X145407000Y-49454000D01*
X149807000Y-49454000D02*
X149107000Y-49454000D01*
X148157000Y-49104000D02*
G75*
G03X147257000Y-48904000I-550000J-350000D01*
G01*
X147257000Y-50004000D02*
G75*
G03X148157000Y-49804000I350000J550000D01*
G01*
D11*
X147807000Y-49454000D02*
G75*
G03X147807000Y-49454000I-200000J0D01*
G01*
X147707000Y-49454000D02*
G75*
G03X147707000Y-49454000I-100000J0D01*
G01*
D12*
X146407000Y-49454000D02*
X147307000Y-49454000D01*
X146407000Y-49454000D02*
G75*
G03X146407000Y-49454000I-650000J0D01*
G01*
X150107000Y-49454000D02*
G75*
G03X150107000Y-49454000I-650000J0D01*
G01*
X148257000Y-49454000D02*
X148807000Y-49454000D01*
X148257000Y-49454000D02*
G75*
G03X147607000Y-48804000I-650000J0D01*
G01*
X147607000Y-50104000D02*
G75*
G03X148257000Y-49454000I0J650000D01*
G01*
D15*
X171500000Y-60142000D02*
X179500000Y-60142000D01*
X179500000Y-60142000D02*
X179500000Y-51842000D01*
X179500000Y-51842000D02*
X171500000Y-51842000D01*
X171500000Y-51842000D02*
X171500000Y-50692000D01*
X171500000Y-50692000D02*
X168400000Y-50692000D01*
X171500000Y-61292000D02*
X171500000Y-60142000D01*
X168300000Y-61292000D02*
X171500000Y-61292000D01*
X165000000Y-52642000D02*
X165000000Y-55192000D01*
X165000000Y-56892000D02*
X165000000Y-59392000D01*
X171686000Y-93680000D02*
X179686000Y-93680000D01*
X179686000Y-93680000D02*
X179686000Y-85380000D01*
X179686000Y-85380000D02*
X171686000Y-85380000D01*
X171686000Y-85380000D02*
X171686000Y-84230000D01*
X171686000Y-84230000D02*
X168586000Y-84230000D01*
X171686000Y-94830000D02*
X171686000Y-93680000D01*
X168486000Y-94830000D02*
X171686000Y-94830000D01*
X165186000Y-86180000D02*
X165186000Y-88730000D01*
X165186000Y-90430000D02*
X165186000Y-92930000D01*
X171576000Y-76921000D02*
X179576000Y-76921000D01*
X179576000Y-76921000D02*
X179576000Y-68621000D01*
X179576000Y-68621000D02*
X171576000Y-68621000D01*
X171576000Y-68621000D02*
X171576000Y-67471000D01*
X171576000Y-67471000D02*
X168476000Y-67471000D01*
X171576000Y-78071000D02*
X171576000Y-76921000D01*
X168376000Y-78071000D02*
X171576000Y-78071000D01*
X165076000Y-69421000D02*
X165076000Y-71971000D01*
X165076000Y-73671000D02*
X165076000Y-76171000D01*
D12*
X152997333Y-76457334D02*
X152964000Y-76424000D01*
X152930667Y-76357334D01*
X152930667Y-76190667D01*
X152964000Y-76124000D01*
X152997333Y-76090667D01*
X153064000Y-76057334D01*
X153130667Y-76057334D01*
X153230667Y-76090667D01*
X153630667Y-76490667D01*
X153630667Y-76057334D01*
X153597333Y-75790667D02*
X153630667Y-75690667D01*
X153630667Y-75524000D01*
X153597333Y-75457333D01*
X153564000Y-75424000D01*
X153497333Y-75390667D01*
X153430667Y-75390667D01*
X153364000Y-75424000D01*
X153330667Y-75457333D01*
X153297333Y-75524000D01*
X153264000Y-75657333D01*
X153230667Y-75724000D01*
X153197333Y-75757333D01*
X153130667Y-75790667D01*
X153064000Y-75790667D01*
X152997333Y-75757333D01*
X152964000Y-75724000D01*
X152930667Y-75657333D01*
X152930667Y-75490667D01*
X152964000Y-75390667D01*
X153564000Y-74690666D02*
X153597333Y-74724000D01*
X153630667Y-74824000D01*
X153630667Y-74890666D01*
X153597333Y-74990666D01*
X153530667Y-75057333D01*
X153464000Y-75090666D01*
X153330667Y-75124000D01*
X153230667Y-75124000D01*
X153097333Y-75090666D01*
X153030667Y-75057333D01*
X152964000Y-74990666D01*
X152930667Y-74890666D01*
X152930667Y-74824000D01*
X152964000Y-74724000D01*
X152997333Y-74690666D01*
X153630667Y-74357333D02*
X153630667Y-74224000D01*
X153597333Y-74157333D01*
X153564000Y-74124000D01*
X153464000Y-74057333D01*
X153330667Y-74024000D01*
X153064000Y-74024000D01*
X152997333Y-74057333D01*
X152964000Y-74090666D01*
X152930667Y-74157333D01*
X152930667Y-74290666D01*
X152964000Y-74357333D01*
X152997333Y-74390666D01*
X153064000Y-74424000D01*
X153230667Y-74424000D01*
X153297333Y-74390666D01*
X153330667Y-74357333D01*
X153364000Y-74290666D01*
X153364000Y-74157333D01*
X153330667Y-74090666D01*
X153297333Y-74057333D01*
X153230667Y-74024000D01*
X153164000Y-73423999D02*
X153630667Y-73423999D01*
X152897333Y-73590666D02*
X153397333Y-73757333D01*
X153397333Y-73323999D01*
X152930667Y-72723999D02*
X152930667Y-73057332D01*
X153264000Y-73090666D01*
X153230667Y-73057332D01*
X153197333Y-72990666D01*
X153197333Y-72823999D01*
X153230667Y-72757332D01*
X153264000Y-72723999D01*
X153330667Y-72690666D01*
X153497333Y-72690666D01*
X153564000Y-72723999D01*
X153597333Y-72757332D01*
X153630667Y-72823999D01*
X153630667Y-72990666D01*
X153597333Y-73057332D01*
X153564000Y-73090666D01*
D10*
X142526667Y-92607000D02*
X142526667Y-92540333D01*
X142560000Y-92473667D01*
X142593333Y-92440333D01*
X142660000Y-92407000D01*
X142793333Y-92373667D01*
X142960000Y-92373667D01*
X143093333Y-92407000D01*
X143160000Y-92440333D01*
X143193333Y-92473667D01*
X143226667Y-92540333D01*
X143226667Y-92607000D01*
X143193333Y-92673667D01*
X143160000Y-92707000D01*
X143093333Y-92740333D01*
X142960000Y-92773667D01*
X142793333Y-92773667D01*
X142660000Y-92740333D01*
X142593333Y-92707000D01*
X142560000Y-92673667D01*
X142526667Y-92607000D01*
X143160000Y-92073666D02*
X143193333Y-92040333D01*
X143226667Y-92073666D01*
X143193333Y-92107000D01*
X143160000Y-92073666D01*
X143226667Y-92073666D01*
X143226667Y-91373667D02*
X143226667Y-91773667D01*
X143226667Y-91573667D02*
X142526667Y-91573667D01*
X142626667Y-91640333D01*
X142693333Y-91707000D01*
X142726667Y-91773667D01*
X142760000Y-90773666D02*
X143226667Y-90773666D01*
X142760000Y-91073666D02*
X143126667Y-91073666D01*
X143193333Y-91040333D01*
X143226667Y-90973666D01*
X143226667Y-90873666D01*
X143193333Y-90807000D01*
X143160000Y-90773666D01*
X142860000Y-90207000D02*
X142860000Y-90440333D01*
X143226667Y-90440333D02*
X142526667Y-90440333D01*
X142526667Y-90107000D01*
D16*
X156453690Y-51827167D02*
X156514167Y-51827167D01*
X156441595Y-51863452D02*
X156483929Y-51736452D01*
X156526262Y-51863452D01*
X156623024Y-51778786D02*
X156623024Y-51863452D01*
X156568595Y-51778786D02*
X156568595Y-51845310D01*
X156574643Y-51857405D01*
X156586738Y-51863452D01*
X156604881Y-51863452D01*
X156616976Y-51857405D01*
X156623024Y-51851357D01*
X156737929Y-51863452D02*
X156737929Y-51736452D01*
X156737929Y-51857405D02*
X156725833Y-51863452D01*
X156701643Y-51863452D01*
X156689548Y-51857405D01*
X156683500Y-51851357D01*
X156677452Y-51839262D01*
X156677452Y-51802976D01*
X156683500Y-51790881D01*
X156689548Y-51784833D01*
X156701643Y-51778786D01*
X156725833Y-51778786D01*
X156737929Y-51784833D01*
X156798405Y-51863452D02*
X156798405Y-51778786D01*
X156798405Y-51736452D02*
X156792357Y-51742500D01*
X156798405Y-51748548D01*
X156804453Y-51742500D01*
X156798405Y-51736452D01*
X156798405Y-51748548D01*
X156877024Y-51863452D02*
X156864929Y-51857405D01*
X156858881Y-51851357D01*
X156852833Y-51839262D01*
X156852833Y-51802976D01*
X156858881Y-51790881D01*
X156864929Y-51784833D01*
X156877024Y-51778786D01*
X156895167Y-51778786D01*
X156907262Y-51784833D01*
X156913310Y-51790881D01*
X156919357Y-51802976D01*
X156919357Y-51839262D01*
X156913310Y-51851357D01*
X156907262Y-51857405D01*
X156895167Y-51863452D01*
X156877024Y-51863452D01*
X156973786Y-51815071D02*
X157070548Y-51815071D01*
X157167310Y-51736452D02*
X157167310Y-51827167D01*
X157161262Y-51845310D01*
X157149167Y-51857405D01*
X157131024Y-51863452D01*
X157118929Y-51863452D01*
X157282215Y-51863452D02*
X157282215Y-51796929D01*
X157276167Y-51784833D01*
X157264072Y-51778786D01*
X157239881Y-51778786D01*
X157227786Y-51784833D01*
X157282215Y-51857405D02*
X157270119Y-51863452D01*
X157239881Y-51863452D01*
X157227786Y-51857405D01*
X157221738Y-51845310D01*
X157221738Y-51833214D01*
X157227786Y-51821119D01*
X157239881Y-51815071D01*
X157270119Y-51815071D01*
X157282215Y-51809024D01*
X157397120Y-51857405D02*
X157385024Y-51863452D01*
X157360834Y-51863452D01*
X157348739Y-51857405D01*
X157342691Y-51851357D01*
X157336643Y-51839262D01*
X157336643Y-51802976D01*
X157342691Y-51790881D01*
X157348739Y-51784833D01*
X157360834Y-51778786D01*
X157385024Y-51778786D01*
X157397120Y-51784833D01*
X157451548Y-51863452D02*
X157451548Y-51736452D01*
X157463643Y-51815071D02*
X157499929Y-51863452D01*
X157499929Y-51778786D02*
X157451548Y-51827167D01*
X157554358Y-51815071D02*
X157651120Y-51815071D01*
X157699501Y-51736452D02*
X157778120Y-51736452D01*
X157735787Y-51784833D01*
X157753929Y-51784833D01*
X157766025Y-51790881D01*
X157772072Y-51796929D01*
X157778120Y-51809024D01*
X157778120Y-51839262D01*
X157772072Y-51851357D01*
X157766025Y-51857405D01*
X157753929Y-51863452D01*
X157717644Y-51863452D01*
X157705548Y-51857405D01*
X157699501Y-51851357D01*
X157802310Y-51875548D02*
X157899072Y-51875548D01*
X157923262Y-51748548D02*
X157929310Y-51742500D01*
X157941405Y-51736452D01*
X157971643Y-51736452D01*
X157983739Y-51742500D01*
X157989786Y-51748548D01*
X157995834Y-51760643D01*
X157995834Y-51772738D01*
X157989786Y-51790881D01*
X157917215Y-51863452D01*
X157995834Y-51863452D01*
X158044214Y-51857405D02*
X158062357Y-51863452D01*
X158092595Y-51863452D01*
X158104691Y-51857405D01*
X158110738Y-51851357D01*
X158116786Y-51839262D01*
X158116786Y-51827167D01*
X158110738Y-51815071D01*
X158104691Y-51809024D01*
X158092595Y-51802976D01*
X158068405Y-51796929D01*
X158056310Y-51790881D01*
X158050262Y-51784833D01*
X158044214Y-51772738D01*
X158044214Y-51760643D01*
X158050262Y-51748548D01*
X158056310Y-51742500D01*
X158068405Y-51736452D01*
X158098643Y-51736452D01*
X158116786Y-51742500D01*
X158159119Y-51778786D02*
X158183309Y-51863452D01*
X158207500Y-51802976D01*
X158231690Y-51863452D01*
X158255881Y-51778786D01*
X158304262Y-51863452D02*
X158304262Y-51778786D01*
X158304262Y-51736452D02*
X158298214Y-51742500D01*
X158304262Y-51748548D01*
X158310310Y-51742500D01*
X158304262Y-51736452D01*
X158304262Y-51748548D01*
X158346595Y-51778786D02*
X158394976Y-51778786D01*
X158364738Y-51736452D02*
X158364738Y-51845310D01*
X158370786Y-51857405D01*
X158382881Y-51863452D01*
X158394976Y-51863452D01*
X158491738Y-51857405D02*
X158479642Y-51863452D01*
X158455452Y-51863452D01*
X158443357Y-51857405D01*
X158437309Y-51851357D01*
X158431261Y-51839262D01*
X158431261Y-51802976D01*
X158437309Y-51790881D01*
X158443357Y-51784833D01*
X158455452Y-51778786D01*
X158479642Y-51778786D01*
X158491738Y-51784833D01*
X158546166Y-51863452D02*
X158546166Y-51736452D01*
X158600595Y-51863452D02*
X158600595Y-51796929D01*
X158594547Y-51784833D01*
X158582452Y-51778786D01*
X158564309Y-51778786D01*
X158552214Y-51784833D01*
X158546166Y-51790881D01*
X158709452Y-51857405D02*
X158697357Y-51863452D01*
X158673166Y-51863452D01*
X158661071Y-51857405D01*
X158655023Y-51845310D01*
X158655023Y-51796929D01*
X158661071Y-51784833D01*
X158673166Y-51778786D01*
X158697357Y-51778786D01*
X158709452Y-51784833D01*
X158715500Y-51796929D01*
X158715500Y-51809024D01*
X158655023Y-51821119D01*
X158763880Y-51857405D02*
X158775976Y-51863452D01*
X158800166Y-51863452D01*
X158812261Y-51857405D01*
X158818309Y-51845310D01*
X158818309Y-51839262D01*
X158812261Y-51827167D01*
X158800166Y-51821119D01*
X158782023Y-51821119D01*
X158769928Y-51815071D01*
X158763880Y-51802976D01*
X158763880Y-51796929D01*
X158769928Y-51784833D01*
X158782023Y-51778786D01*
X158800166Y-51778786D01*
X158812261Y-51784833D01*
D10*
X149064618Y-86375810D02*
X149116999Y-86375810D01*
X149169380Y-86402000D01*
X149195571Y-86428190D01*
X149221761Y-86480571D01*
X149247952Y-86585333D01*
X149247952Y-86716286D01*
X149221761Y-86821048D01*
X149195571Y-86873429D01*
X149169380Y-86899619D01*
X149116999Y-86925810D01*
X149064618Y-86925810D01*
X149012237Y-86899619D01*
X148986047Y-86873429D01*
X148959856Y-86821048D01*
X148933666Y-86716286D01*
X148933666Y-86585333D01*
X148959856Y-86480571D01*
X148986047Y-86428190D01*
X149012237Y-86402000D01*
X149064618Y-86375810D01*
X149483666Y-86873429D02*
X149509857Y-86899619D01*
X149483666Y-86925810D01*
X149457476Y-86899619D01*
X149483666Y-86873429D01*
X149483666Y-86925810D01*
X149850333Y-86375810D02*
X149902714Y-86375810D01*
X149955095Y-86402000D01*
X149981286Y-86428190D01*
X150007476Y-86480571D01*
X150033667Y-86585333D01*
X150033667Y-86716286D01*
X150007476Y-86821048D01*
X149981286Y-86873429D01*
X149955095Y-86899619D01*
X149902714Y-86925810D01*
X149850333Y-86925810D01*
X149797952Y-86899619D01*
X149771762Y-86873429D01*
X149745571Y-86821048D01*
X149719381Y-86716286D01*
X149719381Y-86585333D01*
X149745571Y-86480571D01*
X149771762Y-86428190D01*
X149797952Y-86402000D01*
X149850333Y-86375810D01*
X150505096Y-86559143D02*
X150505096Y-86925810D01*
X150374143Y-86349619D02*
X150243191Y-86742476D01*
X150583667Y-86742476D01*
X150740810Y-86375810D02*
X151107477Y-86375810D01*
X150871763Y-86925810D01*
X151552716Y-86559143D02*
X151552716Y-86925810D01*
X151317001Y-86559143D02*
X151317001Y-86847238D01*
X151343192Y-86899619D01*
X151395573Y-86925810D01*
X151474144Y-86925810D01*
X151526525Y-86899619D01*
X151552716Y-86873429D01*
X151997954Y-86637714D02*
X151814620Y-86637714D01*
X151814620Y-86925810D02*
X151814620Y-86375810D01*
X152076525Y-86375810D01*
X158853571Y-67058429D02*
X158825000Y-67029858D01*
X158796429Y-66972715D01*
X158796429Y-66829858D01*
X158825000Y-66772715D01*
X158853571Y-66744144D01*
X158910714Y-66715572D01*
X158967857Y-66715572D01*
X159053571Y-66744144D01*
X159396429Y-67087001D01*
X159396429Y-66715572D01*
X158853571Y-66487000D02*
X158825000Y-66458429D01*
X158796429Y-66401286D01*
X158796429Y-66258429D01*
X158825000Y-66201286D01*
X158853571Y-66172715D01*
X158910714Y-66144143D01*
X158967857Y-66144143D01*
X159053571Y-66172715D01*
X159396429Y-66515572D01*
X159396429Y-66144143D01*
X158796429Y-65772714D02*
X158796429Y-65715571D01*
X158825000Y-65658428D01*
X158853571Y-65629857D01*
X158910714Y-65601286D01*
X159025000Y-65572714D01*
X159167857Y-65572714D01*
X159282143Y-65601286D01*
X159339286Y-65629857D01*
X159367857Y-65658428D01*
X159396429Y-65715571D01*
X159396429Y-65772714D01*
X159367857Y-65829857D01*
X159339286Y-65858428D01*
X159282143Y-65887000D01*
X159167857Y-65915571D01*
X159025000Y-65915571D01*
X158910714Y-65887000D01*
X158853571Y-65858428D01*
X158825000Y-65829857D01*
X158796429Y-65772714D01*
X158996429Y-65058428D02*
X159396429Y-65058428D01*
X158996429Y-65315571D02*
X159310714Y-65315571D01*
X159367857Y-65286999D01*
X159396429Y-65229857D01*
X159396429Y-65144142D01*
X159367857Y-65086999D01*
X159339286Y-65058428D01*
X159082143Y-64572714D02*
X159082143Y-64772714D01*
X159396429Y-64772714D02*
X158796429Y-64772714D01*
X158796429Y-64487000D01*
X158892571Y-86948429D02*
X158864000Y-86919858D01*
X158835429Y-86862715D01*
X158835429Y-86719858D01*
X158864000Y-86662715D01*
X158892571Y-86634144D01*
X158949714Y-86605572D01*
X159006857Y-86605572D01*
X159092571Y-86634144D01*
X159435429Y-86977001D01*
X159435429Y-86605572D01*
X158892571Y-86377000D02*
X158864000Y-86348429D01*
X158835429Y-86291286D01*
X158835429Y-86148429D01*
X158864000Y-86091286D01*
X158892571Y-86062715D01*
X158949714Y-86034143D01*
X159006857Y-86034143D01*
X159092571Y-86062715D01*
X159435429Y-86405572D01*
X159435429Y-86034143D01*
X158835429Y-85662714D02*
X158835429Y-85605571D01*
X158864000Y-85548428D01*
X158892571Y-85519857D01*
X158949714Y-85491286D01*
X159064000Y-85462714D01*
X159206857Y-85462714D01*
X159321143Y-85491286D01*
X159378286Y-85519857D01*
X159406857Y-85548428D01*
X159435429Y-85605571D01*
X159435429Y-85662714D01*
X159406857Y-85719857D01*
X159378286Y-85748428D01*
X159321143Y-85777000D01*
X159206857Y-85805571D01*
X159064000Y-85805571D01*
X158949714Y-85777000D01*
X158892571Y-85748428D01*
X158864000Y-85719857D01*
X158835429Y-85662714D01*
X159035429Y-84948428D02*
X159435429Y-84948428D01*
X159035429Y-85205571D02*
X159349714Y-85205571D01*
X159406857Y-85176999D01*
X159435429Y-85119857D01*
X159435429Y-85034142D01*
X159406857Y-84976999D01*
X159378286Y-84948428D01*
X159121143Y-84462714D02*
X159121143Y-84662714D01*
X159435429Y-84662714D02*
X158835429Y-84662714D01*
X158835429Y-84377000D01*
X158808571Y-76842429D02*
X158780000Y-76813858D01*
X158751429Y-76756715D01*
X158751429Y-76613858D01*
X158780000Y-76556715D01*
X158808571Y-76528144D01*
X158865714Y-76499572D01*
X158922857Y-76499572D01*
X159008571Y-76528144D01*
X159351429Y-76871001D01*
X159351429Y-76499572D01*
X158808571Y-76271000D02*
X158780000Y-76242429D01*
X158751429Y-76185286D01*
X158751429Y-76042429D01*
X158780000Y-75985286D01*
X158808571Y-75956715D01*
X158865714Y-75928143D01*
X158922857Y-75928143D01*
X159008571Y-75956715D01*
X159351429Y-76299572D01*
X159351429Y-75928143D01*
X158751429Y-75556714D02*
X158751429Y-75499571D01*
X158780000Y-75442428D01*
X158808571Y-75413857D01*
X158865714Y-75385286D01*
X158980000Y-75356714D01*
X159122857Y-75356714D01*
X159237143Y-75385286D01*
X159294286Y-75413857D01*
X159322857Y-75442428D01*
X159351429Y-75499571D01*
X159351429Y-75556714D01*
X159322857Y-75613857D01*
X159294286Y-75642428D01*
X159237143Y-75671000D01*
X159122857Y-75699571D01*
X158980000Y-75699571D01*
X158865714Y-75671000D01*
X158808571Y-75642428D01*
X158780000Y-75613857D01*
X158751429Y-75556714D01*
X158951429Y-74842428D02*
X159351429Y-74842428D01*
X158951429Y-75099571D02*
X159265714Y-75099571D01*
X159322857Y-75070999D01*
X159351429Y-75013857D01*
X159351429Y-74928142D01*
X159322857Y-74870999D01*
X159294286Y-74842428D01*
X159037143Y-74356714D02*
X159037143Y-74556714D01*
X159351429Y-74556714D02*
X158751429Y-74556714D01*
X158751429Y-74271000D01*
X143190333Y-62177667D02*
X143657000Y-62177667D01*
X143357000Y-62877667D01*
X144257000Y-62177667D02*
X143923667Y-62177667D01*
X143890333Y-62511000D01*
X143923667Y-62477667D01*
X143990333Y-62444333D01*
X144157000Y-62444333D01*
X144223667Y-62477667D01*
X144257000Y-62511000D01*
X144290333Y-62577667D01*
X144290333Y-62744333D01*
X144257000Y-62811000D01*
X144223667Y-62844333D01*
X144157000Y-62877667D01*
X143990333Y-62877667D01*
X143923667Y-62844333D01*
X143890333Y-62811000D01*
X143188333Y-78341667D02*
X143655000Y-78341667D01*
X143355000Y-79041667D01*
X144255000Y-78341667D02*
X143921667Y-78341667D01*
X143888333Y-78675000D01*
X143921667Y-78641667D01*
X143988333Y-78608333D01*
X144155000Y-78608333D01*
X144221667Y-78641667D01*
X144255000Y-78675000D01*
X144288333Y-78741667D01*
X144288333Y-78908333D01*
X144255000Y-78975000D01*
X144221667Y-79008333D01*
X144155000Y-79041667D01*
X143988333Y-79041667D01*
X143921667Y-79008333D01*
X143888333Y-78975000D01*
X143161333Y-70208667D02*
X143628000Y-70208667D01*
X143328000Y-70908667D01*
X144228000Y-70208667D02*
X143894667Y-70208667D01*
X143861333Y-70542000D01*
X143894667Y-70508667D01*
X143961333Y-70475333D01*
X144128000Y-70475333D01*
X144194667Y-70508667D01*
X144228000Y-70542000D01*
X144261333Y-70608667D01*
X144261333Y-70775333D01*
X144228000Y-70842000D01*
X144194667Y-70875333D01*
X144128000Y-70908667D01*
X143961333Y-70908667D01*
X143894667Y-70875333D01*
X143861333Y-70842000D01*
X161628000Y-69746667D02*
X161494666Y-69746667D01*
X161428000Y-69780000D01*
X161394666Y-69813333D01*
X161328000Y-69913333D01*
X161294666Y-70046667D01*
X161294666Y-70313333D01*
X161328000Y-70380000D01*
X161361333Y-70413333D01*
X161428000Y-70446667D01*
X161561333Y-70446667D01*
X161628000Y-70413333D01*
X161661333Y-70380000D01*
X161694666Y-70313333D01*
X161694666Y-70146667D01*
X161661333Y-70080000D01*
X161628000Y-70046667D01*
X161561333Y-70013333D01*
X161428000Y-70013333D01*
X161361333Y-70046667D01*
X161328000Y-70080000D01*
X161294666Y-70146667D01*
X161961333Y-69813333D02*
X161994667Y-69780000D01*
X162061333Y-69746667D01*
X162228000Y-69746667D01*
X162294667Y-69780000D01*
X162328000Y-69813333D01*
X162361333Y-69880000D01*
X162361333Y-69946667D01*
X162328000Y-70046667D01*
X161928000Y-70446667D01*
X162361333Y-70446667D01*
X154137333Y-78966667D02*
X154604000Y-78966667D01*
X154304000Y-79666667D01*
X155204000Y-78966667D02*
X154870667Y-78966667D01*
X154837333Y-79300000D01*
X154870667Y-79266667D01*
X154937333Y-79233333D01*
X155104000Y-79233333D01*
X155170667Y-79266667D01*
X155204000Y-79300000D01*
X155237333Y-79366667D01*
X155237333Y-79533333D01*
X155204000Y-79600000D01*
X155170667Y-79633333D01*
X155104000Y-79666667D01*
X154937333Y-79666667D01*
X154870667Y-79633333D01*
X154837333Y-79600000D01*
X154177333Y-62963667D02*
X154644000Y-62963667D01*
X154344000Y-63663667D01*
X155244000Y-62963667D02*
X154910667Y-62963667D01*
X154877333Y-63297000D01*
X154910667Y-63263667D01*
X154977333Y-63230333D01*
X155144000Y-63230333D01*
X155210667Y-63263667D01*
X155244000Y-63297000D01*
X155277333Y-63363667D01*
X155277333Y-63530333D01*
X155244000Y-63597000D01*
X155210667Y-63630333D01*
X155144000Y-63663667D01*
X154977333Y-63663667D01*
X154910667Y-63630333D01*
X154877333Y-63597000D01*
X154137333Y-71031667D02*
X154604000Y-71031667D01*
X154304000Y-71731667D01*
X155204000Y-71031667D02*
X154870667Y-71031667D01*
X154837333Y-71365000D01*
X154870667Y-71331667D01*
X154937333Y-71298333D01*
X155104000Y-71298333D01*
X155170667Y-71331667D01*
X155204000Y-71365000D01*
X155237333Y-71431667D01*
X155237333Y-71598333D01*
X155204000Y-71665000D01*
X155170667Y-71698333D01*
X155104000Y-71731667D01*
X154937333Y-71731667D01*
X154870667Y-71698333D01*
X154837333Y-71665000D01*
X161409857Y-79726571D02*
X161438428Y-79698000D01*
X161495571Y-79669429D01*
X161638428Y-79669429D01*
X161695571Y-79698000D01*
X161724142Y-79726571D01*
X161752714Y-79783714D01*
X161752714Y-79840857D01*
X161724142Y-79926571D01*
X161381285Y-80269429D01*
X161752714Y-80269429D01*
X162124143Y-79669429D02*
X162181286Y-79669429D01*
X162238429Y-79698000D01*
X162267000Y-79726571D01*
X162295571Y-79783714D01*
X162324143Y-79898000D01*
X162324143Y-80040857D01*
X162295571Y-80155143D01*
X162267000Y-80212286D01*
X162238429Y-80240857D01*
X162181286Y-80269429D01*
X162124143Y-80269429D01*
X162067000Y-80240857D01*
X162038429Y-80212286D01*
X162009857Y-80155143D01*
X161981286Y-80040857D01*
X161981286Y-79898000D01*
X162009857Y-79783714D01*
X162038429Y-79726571D01*
X162067000Y-79698000D01*
X162124143Y-79669429D01*
D12*
X142899429Y-66391143D02*
X142899429Y-66734000D01*
X142899429Y-66562572D02*
X142299429Y-66562572D01*
X142385143Y-66619715D01*
X142442286Y-66676857D01*
X142470857Y-66734000D01*
X142499429Y-65876857D02*
X142899429Y-65876857D01*
X142499429Y-66134000D02*
X142813714Y-66134000D01*
X142870857Y-66105428D01*
X142899429Y-66048286D01*
X142899429Y-65962571D01*
X142870857Y-65905428D01*
X142842286Y-65876857D01*
X142585143Y-65391143D02*
X142585143Y-65591143D01*
X142899429Y-65591143D02*
X142299429Y-65591143D01*
X142299429Y-65305429D01*
X142915429Y-82706143D02*
X142915429Y-83049000D01*
X142915429Y-82877572D02*
X142315429Y-82877572D01*
X142401143Y-82934715D01*
X142458286Y-82991857D01*
X142486857Y-83049000D01*
X142515429Y-82191857D02*
X142915429Y-82191857D01*
X142515429Y-82449000D02*
X142829714Y-82449000D01*
X142886857Y-82420428D01*
X142915429Y-82363286D01*
X142915429Y-82277571D01*
X142886857Y-82220428D01*
X142858286Y-82191857D01*
X142601143Y-81706143D02*
X142601143Y-81906143D01*
X142915429Y-81906143D02*
X142315429Y-81906143D01*
X142315429Y-81620429D01*
X142895429Y-74695143D02*
X142895429Y-75038000D01*
X142895429Y-74866572D02*
X142295429Y-74866572D01*
X142381143Y-74923715D01*
X142438286Y-74980857D01*
X142466857Y-75038000D01*
X142495429Y-74180857D02*
X142895429Y-74180857D01*
X142495429Y-74438000D02*
X142809714Y-74438000D01*
X142866857Y-74409428D01*
X142895429Y-74352286D01*
X142895429Y-74266571D01*
X142866857Y-74209428D01*
X142838286Y-74180857D01*
X142581143Y-73695143D02*
X142581143Y-73895143D01*
X142895429Y-73895143D02*
X142295429Y-73895143D01*
X142295429Y-73609429D01*
X148435143Y-57622429D02*
X148092286Y-57622429D01*
X148263714Y-57622429D02*
X148263714Y-57022429D01*
X148206571Y-57108143D01*
X148149429Y-57165286D01*
X148092286Y-57193857D01*
X148806572Y-57022429D02*
X148863715Y-57022429D01*
X148920858Y-57051000D01*
X148949429Y-57079571D01*
X148978000Y-57136714D01*
X149006572Y-57251000D01*
X149006572Y-57393857D01*
X148978000Y-57508143D01*
X148949429Y-57565286D01*
X148920858Y-57593857D01*
X148863715Y-57622429D01*
X148806572Y-57622429D01*
X148749429Y-57593857D01*
X148720858Y-57565286D01*
X148692286Y-57508143D01*
X148663715Y-57393857D01*
X148663715Y-57251000D01*
X148692286Y-57136714D01*
X148720858Y-57079571D01*
X148749429Y-57051000D01*
X148806572Y-57022429D01*
X149520858Y-57222429D02*
X149520858Y-57622429D01*
X149263715Y-57222429D02*
X149263715Y-57536714D01*
X149292287Y-57593857D01*
X149349429Y-57622429D01*
X149435144Y-57622429D01*
X149492287Y-57593857D01*
X149520858Y-57565286D01*
X150006572Y-57308143D02*
X149806572Y-57308143D01*
X149806572Y-57622429D02*
X149806572Y-57022429D01*
X150092286Y-57022429D01*
D17*
X152977333Y-68370334D02*
X152944000Y-68337000D01*
X152910667Y-68270334D01*
X152910667Y-68103667D01*
X152944000Y-68037000D01*
X152977333Y-68003667D01*
X153044000Y-67970334D01*
X153110667Y-67970334D01*
X153210667Y-68003667D01*
X153610667Y-68403667D01*
X153610667Y-67970334D01*
X153577333Y-67703667D02*
X153610667Y-67603667D01*
X153610667Y-67437000D01*
X153577333Y-67370333D01*
X153544000Y-67337000D01*
X153477333Y-67303667D01*
X153410667Y-67303667D01*
X153344000Y-67337000D01*
X153310667Y-67370333D01*
X153277333Y-67437000D01*
X153244000Y-67570333D01*
X153210667Y-67637000D01*
X153177333Y-67670333D01*
X153110667Y-67703667D01*
X153044000Y-67703667D01*
X152977333Y-67670333D01*
X152944000Y-67637000D01*
X152910667Y-67570333D01*
X152910667Y-67403667D01*
X152944000Y-67303667D01*
X153544000Y-66603666D02*
X153577333Y-66637000D01*
X153610667Y-66737000D01*
X153610667Y-66803666D01*
X153577333Y-66903666D01*
X153510667Y-66970333D01*
X153444000Y-67003666D01*
X153310667Y-67037000D01*
X153210667Y-67037000D01*
X153077333Y-67003666D01*
X153010667Y-66970333D01*
X152944000Y-66903666D01*
X152910667Y-66803666D01*
X152910667Y-66737000D01*
X152944000Y-66637000D01*
X152977333Y-66603666D01*
X153610667Y-66270333D02*
X153610667Y-66137000D01*
X153577333Y-66070333D01*
X153544000Y-66037000D01*
X153444000Y-65970333D01*
X153310667Y-65937000D01*
X153044000Y-65937000D01*
X152977333Y-65970333D01*
X152944000Y-66003666D01*
X152910667Y-66070333D01*
X152910667Y-66203666D01*
X152944000Y-66270333D01*
X152977333Y-66303666D01*
X153044000Y-66337000D01*
X153210667Y-66337000D01*
X153277333Y-66303666D01*
X153310667Y-66270333D01*
X153344000Y-66203666D01*
X153344000Y-66070333D01*
X153310667Y-66003666D01*
X153277333Y-65970333D01*
X153210667Y-65937000D01*
X153144000Y-65336999D02*
X153610667Y-65336999D01*
X152877333Y-65503666D02*
X153377333Y-65670333D01*
X153377333Y-65236999D01*
X152910667Y-64636999D02*
X152910667Y-64970332D01*
X153244000Y-65003666D01*
X153210667Y-64970332D01*
X153177333Y-64903666D01*
X153177333Y-64736999D01*
X153210667Y-64670332D01*
X153244000Y-64636999D01*
X153310667Y-64603666D01*
X153477333Y-64603666D01*
X153544000Y-64636999D01*
X153577333Y-64670332D01*
X153610667Y-64736999D01*
X153610667Y-64903666D01*
X153577333Y-64970332D01*
X153544000Y-65003666D01*
D12*
X152982333Y-84408334D02*
X152949000Y-84375000D01*
X152915667Y-84308334D01*
X152915667Y-84141667D01*
X152949000Y-84075000D01*
X152982333Y-84041667D01*
X153049000Y-84008334D01*
X153115667Y-84008334D01*
X153215667Y-84041667D01*
X153615667Y-84441667D01*
X153615667Y-84008334D01*
X153582333Y-83741667D02*
X153615667Y-83641667D01*
X153615667Y-83475000D01*
X153582333Y-83408333D01*
X153549000Y-83375000D01*
X153482333Y-83341667D01*
X153415667Y-83341667D01*
X153349000Y-83375000D01*
X153315667Y-83408333D01*
X153282333Y-83475000D01*
X153249000Y-83608333D01*
X153215667Y-83675000D01*
X153182333Y-83708333D01*
X153115667Y-83741667D01*
X153049000Y-83741667D01*
X152982333Y-83708333D01*
X152949000Y-83675000D01*
X152915667Y-83608333D01*
X152915667Y-83441667D01*
X152949000Y-83341667D01*
X153549000Y-82641666D02*
X153582333Y-82675000D01*
X153615667Y-82775000D01*
X153615667Y-82841666D01*
X153582333Y-82941666D01*
X153515667Y-83008333D01*
X153449000Y-83041666D01*
X153315667Y-83075000D01*
X153215667Y-83075000D01*
X153082333Y-83041666D01*
X153015667Y-83008333D01*
X152949000Y-82941666D01*
X152915667Y-82841666D01*
X152915667Y-82775000D01*
X152949000Y-82675000D01*
X152982333Y-82641666D01*
X153615667Y-82308333D02*
X153615667Y-82175000D01*
X153582333Y-82108333D01*
X153549000Y-82075000D01*
X153449000Y-82008333D01*
X153315667Y-81975000D01*
X153049000Y-81975000D01*
X152982333Y-82008333D01*
X152949000Y-82041666D01*
X152915667Y-82108333D01*
X152915667Y-82241666D01*
X152949000Y-82308333D01*
X152982333Y-82341666D01*
X153049000Y-82375000D01*
X153215667Y-82375000D01*
X153282333Y-82341666D01*
X153315667Y-82308333D01*
X153349000Y-82241666D01*
X153349000Y-82108333D01*
X153315667Y-82041666D01*
X153282333Y-82008333D01*
X153215667Y-81975000D01*
X153149000Y-81374999D02*
X153615667Y-81374999D01*
X152882333Y-81541666D02*
X153382333Y-81708333D01*
X153382333Y-81274999D01*
X152915667Y-80674999D02*
X152915667Y-81008332D01*
X153249000Y-81041666D01*
X153215667Y-81008332D01*
X153182333Y-80941666D01*
X153182333Y-80774999D01*
X153215667Y-80708332D01*
X153249000Y-80674999D01*
X153315667Y-80641666D01*
X153482333Y-80641666D01*
X153549000Y-80674999D01*
X153582333Y-80708332D01*
X153615667Y-80774999D01*
X153615667Y-80941666D01*
X153582333Y-81008332D01*
X153549000Y-81041666D01*
D10*
X142775333Y-87149333D02*
X142808667Y-87116000D01*
X142875333Y-87082667D01*
X143042000Y-87082667D01*
X143108667Y-87116000D01*
X143142000Y-87149333D01*
X143175333Y-87216000D01*
X143175333Y-87282667D01*
X143142000Y-87382667D01*
X142742000Y-87782667D01*
X143175333Y-87782667D01*
X143442000Y-87149333D02*
X143475334Y-87116000D01*
X143542000Y-87082667D01*
X143708667Y-87082667D01*
X143775334Y-87116000D01*
X143808667Y-87149333D01*
X143842000Y-87216000D01*
X143842000Y-87282667D01*
X143808667Y-87382667D01*
X143408667Y-87782667D01*
X143842000Y-87782667D01*
X144275334Y-87082667D02*
X144342001Y-87082667D01*
X144408667Y-87116000D01*
X144442001Y-87149333D01*
X144475334Y-87216000D01*
X144508667Y-87349333D01*
X144508667Y-87516000D01*
X144475334Y-87649333D01*
X144442001Y-87716000D01*
X144408667Y-87749333D01*
X144342001Y-87782667D01*
X144275334Y-87782667D01*
X144208667Y-87749333D01*
X144175334Y-87716000D01*
X144142001Y-87649333D01*
X144108667Y-87516000D01*
X144108667Y-87349333D01*
X144142001Y-87216000D01*
X144175334Y-87149333D01*
X144208667Y-87116000D01*
X144275334Y-87082667D01*
D16*
X135722357Y-83763737D02*
X135728405Y-83769785D01*
X135734452Y-83787928D01*
X135734452Y-83800023D01*
X135728405Y-83818166D01*
X135716310Y-83830261D01*
X135704214Y-83836309D01*
X135680024Y-83842357D01*
X135661881Y-83842357D01*
X135637690Y-83836309D01*
X135625595Y-83830261D01*
X135613500Y-83818166D01*
X135607452Y-83800023D01*
X135607452Y-83787928D01*
X135613500Y-83769785D01*
X135619548Y-83763737D01*
X135734452Y-83691166D02*
X135728405Y-83703261D01*
X135722357Y-83709309D01*
X135710262Y-83715357D01*
X135673976Y-83715357D01*
X135661881Y-83709309D01*
X135655833Y-83703261D01*
X135649786Y-83691166D01*
X135649786Y-83673023D01*
X135655833Y-83660928D01*
X135661881Y-83654880D01*
X135673976Y-83648833D01*
X135710262Y-83648833D01*
X135722357Y-83654880D01*
X135728405Y-83660928D01*
X135734452Y-83673023D01*
X135734452Y-83691166D01*
X135649786Y-83594404D02*
X135734452Y-83594404D01*
X135661881Y-83594404D02*
X135655833Y-83588356D01*
X135649786Y-83576261D01*
X135649786Y-83558118D01*
X135655833Y-83546023D01*
X135667929Y-83539975D01*
X135734452Y-83539975D01*
X135649786Y-83479499D02*
X135734452Y-83479499D01*
X135661881Y-83479499D02*
X135655833Y-83473451D01*
X135649786Y-83461356D01*
X135649786Y-83443213D01*
X135655833Y-83431118D01*
X135667929Y-83425070D01*
X135734452Y-83425070D01*
X135746548Y-83394832D02*
X135746548Y-83298070D01*
X135607452Y-83243641D02*
X135607452Y-83231546D01*
X135613500Y-83219451D01*
X135619548Y-83213403D01*
X135631643Y-83207356D01*
X135655833Y-83201308D01*
X135686071Y-83201308D01*
X135710262Y-83207356D01*
X135722357Y-83213403D01*
X135728405Y-83219451D01*
X135734452Y-83231546D01*
X135734452Y-83243641D01*
X135728405Y-83255737D01*
X135722357Y-83261784D01*
X135710262Y-83267832D01*
X135686071Y-83273880D01*
X135655833Y-83273880D01*
X135631643Y-83267832D01*
X135619548Y-83261784D01*
X135613500Y-83255737D01*
X135607452Y-83243641D01*
X135734452Y-83080356D02*
X135734452Y-83152928D01*
X135734452Y-83116642D02*
X135607452Y-83116642D01*
X135625595Y-83128737D01*
X135637690Y-83140832D01*
X135643738Y-83152928D01*
X135734452Y-83038023D02*
X135649786Y-82971499D01*
X135649786Y-83038023D02*
X135734452Y-82971499D01*
X135607452Y-82898927D02*
X135607452Y-82886832D01*
X135613500Y-82874737D01*
X135619548Y-82868689D01*
X135631643Y-82862642D01*
X135655833Y-82856594D01*
X135686071Y-82856594D01*
X135710262Y-82862642D01*
X135722357Y-82868689D01*
X135728405Y-82874737D01*
X135734452Y-82886832D01*
X135734452Y-82898927D01*
X135728405Y-82911023D01*
X135722357Y-82917070D01*
X135710262Y-82923118D01*
X135686071Y-82929166D01*
X135655833Y-82929166D01*
X135631643Y-82923118D01*
X135619548Y-82917070D01*
X135613500Y-82911023D01*
X135607452Y-82898927D01*
X135649786Y-82747737D02*
X135734452Y-82747737D01*
X135601405Y-82777975D02*
X135692119Y-82808214D01*
X135692119Y-82729594D01*
D12*
X149039000Y-74691001D02*
X149072333Y-74591001D01*
X149105667Y-74557668D01*
X149172333Y-74524334D01*
X149272333Y-74524334D01*
X149339000Y-74557668D01*
X149372333Y-74591001D01*
X149405667Y-74657668D01*
X149405667Y-74924334D01*
X148705667Y-74924334D01*
X148705667Y-74691001D01*
X148739000Y-74624334D01*
X148772333Y-74591001D01*
X148839000Y-74557668D01*
X148905667Y-74557668D01*
X148972333Y-74591001D01*
X149005667Y-74624334D01*
X149039000Y-74691001D01*
X149039000Y-74924334D01*
X149205667Y-74257668D02*
X149205667Y-73924334D01*
X149405667Y-74324334D02*
X148705667Y-74091001D01*
X149405667Y-73857668D01*
X148705667Y-73691001D02*
X148705667Y-73224334D01*
X149405667Y-73524334D01*
X148772333Y-72991001D02*
X148739000Y-72957667D01*
X148705667Y-72891001D01*
X148705667Y-72724334D01*
X148739000Y-72657667D01*
X148772333Y-72624334D01*
X148839000Y-72591001D01*
X148905667Y-72591001D01*
X149005667Y-72624334D01*
X149405667Y-73024334D01*
X149405667Y-72591001D01*
X148705667Y-72357667D02*
X148705667Y-71924334D01*
X148972333Y-72157667D01*
X148972333Y-72057667D01*
X149005667Y-71991000D01*
X149039000Y-71957667D01*
X149105667Y-71924334D01*
X149272333Y-71924334D01*
X149339000Y-71957667D01*
X149372333Y-71991000D01*
X149405667Y-72057667D01*
X149405667Y-72257667D01*
X149372333Y-72324334D01*
X149339000Y-72357667D01*
X148705667Y-71491000D02*
X148705667Y-71424333D01*
X148739000Y-71357667D01*
X148772333Y-71324333D01*
X148839000Y-71291000D01*
X148972333Y-71257667D01*
X149139000Y-71257667D01*
X149272333Y-71291000D01*
X149339000Y-71324333D01*
X149372333Y-71357667D01*
X149405667Y-71424333D01*
X149405667Y-71491000D01*
X149372333Y-71557667D01*
X149339000Y-71591000D01*
X149272333Y-71624333D01*
X149139000Y-71657667D01*
X148972333Y-71657667D01*
X148839000Y-71624333D01*
X148772333Y-71591000D01*
X148739000Y-71557667D01*
X148705667Y-71491000D01*
X149405667Y-70624333D02*
X149405667Y-70957666D01*
X148705667Y-70957666D01*
X149372333Y-70424333D02*
X149405667Y-70324333D01*
X149405667Y-70157666D01*
X149372333Y-70090999D01*
X149339000Y-70057666D01*
X149272333Y-70024333D01*
X149205667Y-70024333D01*
X149139000Y-70057666D01*
X149105667Y-70090999D01*
X149072333Y-70157666D01*
X149039000Y-70290999D01*
X149005667Y-70357666D01*
X148972333Y-70390999D01*
X148905667Y-70424333D01*
X148839000Y-70424333D01*
X148772333Y-70390999D01*
X148739000Y-70357666D01*
X148705667Y-70290999D01*
X148705667Y-70124333D01*
X148739000Y-70024333D01*
D16*
X170485382Y-56161452D02*
X170443048Y-56100976D01*
X170412810Y-56161452D02*
X170412810Y-56034452D01*
X170461191Y-56034452D01*
X170473286Y-56040500D01*
X170479334Y-56046548D01*
X170485382Y-56058643D01*
X170485382Y-56076786D01*
X170479334Y-56088881D01*
X170473286Y-56094929D01*
X170461191Y-56100976D01*
X170412810Y-56100976D01*
X170612382Y-56149357D02*
X170606334Y-56155405D01*
X170588191Y-56161452D01*
X170576096Y-56161452D01*
X170557953Y-56155405D01*
X170545858Y-56143310D01*
X170539810Y-56131214D01*
X170533762Y-56107024D01*
X170533762Y-56088881D01*
X170539810Y-56064690D01*
X170545858Y-56052595D01*
X170557953Y-56040500D01*
X170576096Y-56034452D01*
X170588191Y-56034452D01*
X170606334Y-56040500D01*
X170612382Y-56046548D01*
X170703096Y-56034452D02*
X170703096Y-56125167D01*
X170697048Y-56143310D01*
X170684953Y-56155405D01*
X170666810Y-56161452D01*
X170654715Y-56161452D01*
X170763572Y-56113071D02*
X170860334Y-56113071D01*
X170945001Y-56034452D02*
X170957096Y-56034452D01*
X170969191Y-56040500D01*
X170975239Y-56046548D01*
X170981286Y-56058643D01*
X170987334Y-56082833D01*
X170987334Y-56113071D01*
X170981286Y-56137262D01*
X170975239Y-56149357D01*
X170969191Y-56155405D01*
X170957096Y-56161452D01*
X170945001Y-56161452D01*
X170932905Y-56155405D01*
X170926858Y-56149357D01*
X170920810Y-56137262D01*
X170914762Y-56113071D01*
X170914762Y-56082833D01*
X170920810Y-56058643D01*
X170926858Y-56046548D01*
X170932905Y-56040500D01*
X170945001Y-56034452D01*
X171108286Y-56161452D02*
X171035714Y-56161452D01*
X171072000Y-56161452D02*
X171072000Y-56034452D01*
X171059905Y-56052595D01*
X171047810Y-56064690D01*
X171035714Y-56070738D01*
X171150619Y-56034452D02*
X171229238Y-56034452D01*
X171186905Y-56082833D01*
X171205047Y-56082833D01*
X171217143Y-56088881D01*
X171223190Y-56094929D01*
X171229238Y-56107024D01*
X171229238Y-56137262D01*
X171223190Y-56149357D01*
X171217143Y-56155405D01*
X171205047Y-56161452D01*
X171168762Y-56161452D01*
X171156666Y-56155405D01*
X171150619Y-56149357D01*
X170671382Y-89699452D02*
X170629048Y-89638976D01*
X170598810Y-89699452D02*
X170598810Y-89572452D01*
X170647191Y-89572452D01*
X170659286Y-89578500D01*
X170665334Y-89584548D01*
X170671382Y-89596643D01*
X170671382Y-89614786D01*
X170665334Y-89626881D01*
X170659286Y-89632929D01*
X170647191Y-89638976D01*
X170598810Y-89638976D01*
X170798382Y-89687357D02*
X170792334Y-89693405D01*
X170774191Y-89699452D01*
X170762096Y-89699452D01*
X170743953Y-89693405D01*
X170731858Y-89681310D01*
X170725810Y-89669214D01*
X170719762Y-89645024D01*
X170719762Y-89626881D01*
X170725810Y-89602690D01*
X170731858Y-89590595D01*
X170743953Y-89578500D01*
X170762096Y-89572452D01*
X170774191Y-89572452D01*
X170792334Y-89578500D01*
X170798382Y-89584548D01*
X170889096Y-89572452D02*
X170889096Y-89663167D01*
X170883048Y-89681310D01*
X170870953Y-89693405D01*
X170852810Y-89699452D01*
X170840715Y-89699452D01*
X170949572Y-89651071D02*
X171046334Y-89651071D01*
X171131001Y-89572452D02*
X171143096Y-89572452D01*
X171155191Y-89578500D01*
X171161239Y-89584548D01*
X171167286Y-89596643D01*
X171173334Y-89620833D01*
X171173334Y-89651071D01*
X171167286Y-89675262D01*
X171161239Y-89687357D01*
X171155191Y-89693405D01*
X171143096Y-89699452D01*
X171131001Y-89699452D01*
X171118905Y-89693405D01*
X171112858Y-89687357D01*
X171106810Y-89675262D01*
X171100762Y-89651071D01*
X171100762Y-89620833D01*
X171106810Y-89596643D01*
X171112858Y-89584548D01*
X171118905Y-89578500D01*
X171131001Y-89572452D01*
X171294286Y-89699452D02*
X171221714Y-89699452D01*
X171258000Y-89699452D02*
X171258000Y-89572452D01*
X171245905Y-89590595D01*
X171233810Y-89602690D01*
X171221714Y-89608738D01*
X171336619Y-89572452D02*
X171415238Y-89572452D01*
X171372905Y-89620833D01*
X171391047Y-89620833D01*
X171403143Y-89626881D01*
X171409190Y-89632929D01*
X171415238Y-89645024D01*
X171415238Y-89675262D01*
X171409190Y-89687357D01*
X171403143Y-89693405D01*
X171391047Y-89699452D01*
X171354762Y-89699452D01*
X171342666Y-89693405D01*
X171336619Y-89687357D01*
X170561382Y-72940452D02*
X170519048Y-72879976D01*
X170488810Y-72940452D02*
X170488810Y-72813452D01*
X170537191Y-72813452D01*
X170549286Y-72819500D01*
X170555334Y-72825548D01*
X170561382Y-72837643D01*
X170561382Y-72855786D01*
X170555334Y-72867881D01*
X170549286Y-72873929D01*
X170537191Y-72879976D01*
X170488810Y-72879976D01*
X170688382Y-72928357D02*
X170682334Y-72934405D01*
X170664191Y-72940452D01*
X170652096Y-72940452D01*
X170633953Y-72934405D01*
X170621858Y-72922310D01*
X170615810Y-72910214D01*
X170609762Y-72886024D01*
X170609762Y-72867881D01*
X170615810Y-72843690D01*
X170621858Y-72831595D01*
X170633953Y-72819500D01*
X170652096Y-72813452D01*
X170664191Y-72813452D01*
X170682334Y-72819500D01*
X170688382Y-72825548D01*
X170779096Y-72813452D02*
X170779096Y-72904167D01*
X170773048Y-72922310D01*
X170760953Y-72934405D01*
X170742810Y-72940452D01*
X170730715Y-72940452D01*
X170839572Y-72892071D02*
X170936334Y-72892071D01*
X171021001Y-72813452D02*
X171033096Y-72813452D01*
X171045191Y-72819500D01*
X171051239Y-72825548D01*
X171057286Y-72837643D01*
X171063334Y-72861833D01*
X171063334Y-72892071D01*
X171057286Y-72916262D01*
X171051239Y-72928357D01*
X171045191Y-72934405D01*
X171033096Y-72940452D01*
X171021001Y-72940452D01*
X171008905Y-72934405D01*
X171002858Y-72928357D01*
X170996810Y-72916262D01*
X170990762Y-72892071D01*
X170990762Y-72861833D01*
X170996810Y-72837643D01*
X171002858Y-72825548D01*
X171008905Y-72819500D01*
X171021001Y-72813452D01*
X171184286Y-72940452D02*
X171111714Y-72940452D01*
X171148000Y-72940452D02*
X171148000Y-72813452D01*
X171135905Y-72831595D01*
X171123810Y-72843690D01*
X171111714Y-72849738D01*
X171226619Y-72813452D02*
X171305238Y-72813452D01*
X171262905Y-72861833D01*
X171281047Y-72861833D01*
X171293143Y-72867881D01*
X171299190Y-72873929D01*
X171305238Y-72886024D01*
X171305238Y-72916262D01*
X171299190Y-72928357D01*
X171293143Y-72934405D01*
X171281047Y-72940452D01*
X171244762Y-72940452D01*
X171232666Y-72934405D01*
X171226619Y-72928357D01*
M02*
