G04 #@! TF.FileFunction,Soldermask,Bot*
%FSLAX46Y46*%
G04 Gerber Fmt 4.6, Leading zero omitted, Abs format (unit mm)*
G04 Created by KiCad (PCBNEW 4.0.7) date 03/11/20 10:05:13*
%MOMM*%
%LPD*%
G01*
G04 APERTURE LIST*
%ADD10C,0.100000*%
%ADD11C,0.150000*%
%ADD12O,1.900000X1.300000*%
%ADD13R,1.900000X1.300000*%
%ADD14C,2.000000*%
%ADD15C,1.600000*%
%ADD16R,3.900000X2.900000*%
%ADD17O,2.150000X3.900000*%
%ADD18C,4.464000*%
%ADD19R,2.000000X2.000000*%
%ADD20C,1.800000*%
%ADD21O,1.800000X1.800000*%
%ADD22O,1.900000X2.300000*%
%ADD23R,1.600000X1.600000*%
%ADD24R,3.900000X3.900000*%
%ADD25O,2.900000X2.900000*%
%ADD26C,2.900000*%
%ADD27C,3.300000*%
%ADD28C,2.950000*%
%ADD29C,4.016000*%
G04 APERTURE END LIST*
D10*
D11*
X131026000Y-96098000D02*
X131026000Y-49570000D01*
X174088000Y-96056000D02*
X174088000Y-49528000D01*
X174089000Y-49537000D02*
X172910000Y-48358000D01*
X172895000Y-97257000D02*
X174069000Y-96083000D01*
X131048000Y-49542000D02*
X132222000Y-48368000D01*
X132196000Y-97261000D02*
X131017000Y-96082000D01*
X132188000Y-97260000D02*
X172878000Y-97260000D01*
X132213000Y-48369000D02*
X172903000Y-48369000D01*
D12*
X154760000Y-74559000D03*
X154760000Y-73289000D03*
D13*
X154760000Y-75829000D03*
D14*
X142913000Y-93990000D03*
X142913000Y-88990000D03*
D15*
X162484000Y-52075000D03*
X162494000Y-49545000D03*
X152434000Y-49585000D03*
X152464000Y-52075000D03*
D16*
X157474000Y-51999000D03*
D17*
X162474000Y-57005000D03*
X152474000Y-57005000D03*
X159974000Y-57005000D03*
X154974000Y-57005000D03*
D15*
X157474000Y-56935000D03*
D18*
X135674000Y-90259000D03*
D14*
X148031000Y-86157000D03*
X153031000Y-86157000D03*
D19*
X160553000Y-65684000D03*
D14*
X160553000Y-63184000D03*
D19*
X160599000Y-85580000D03*
D14*
X160599000Y-83080000D03*
D19*
X160515000Y-75476000D03*
D14*
X160515000Y-72976000D03*
D18*
X135565000Y-60797000D03*
D20*
X145035000Y-61413000D03*
D21*
X142495000Y-61413000D03*
D20*
X144990000Y-77610000D03*
D21*
X142450000Y-77610000D03*
D20*
X144981000Y-69431000D03*
D21*
X142441000Y-69431000D03*
D20*
X163086000Y-69124000D03*
D21*
X160546000Y-69124000D03*
D20*
X155989000Y-78204000D03*
D21*
X153449000Y-78204000D03*
D20*
X155989000Y-62250000D03*
D21*
X153449000Y-62250000D03*
D20*
X155976000Y-70307000D03*
D21*
X153436000Y-70307000D03*
D20*
X163106000Y-79058000D03*
D21*
X160566000Y-79058000D03*
D18*
X171049000Y-64569000D03*
X171069000Y-81344000D03*
D22*
X150515000Y-94737000D03*
X150515000Y-92197000D03*
X153055000Y-94737000D03*
X153055000Y-92197000D03*
X155595000Y-94737000D03*
X155595000Y-92197000D03*
X158135000Y-92197000D03*
X158135000Y-94737000D03*
D23*
X143801000Y-66100000D03*
D15*
X143801000Y-64600000D03*
D23*
X143825000Y-82418000D03*
D15*
X143825000Y-80918000D03*
D23*
X143805000Y-74402000D03*
D15*
X143805000Y-72902000D03*
D23*
X148666000Y-58560000D03*
D15*
X147166000Y-58560000D03*
D12*
X154747000Y-66457000D03*
X154747000Y-65187000D03*
D13*
X154747000Y-67727000D03*
D12*
X154760000Y-82494000D03*
X154760000Y-81224000D03*
D13*
X154760000Y-83764000D03*
D20*
X144894000Y-86144000D03*
D21*
X142354000Y-86144000D03*
D24*
X143828000Y-52959000D03*
X137828000Y-52959000D03*
X140828000Y-57659000D03*
D25*
X133352000Y-94899000D03*
D26*
X136332000Y-94899000D03*
X139292000Y-94899000D03*
D27*
X135565000Y-83226000D03*
X135565000Y-78146000D03*
X135565000Y-73066000D03*
X135565000Y-67986000D03*
D20*
X147789000Y-62716000D03*
X150339000Y-63616000D03*
X147789000Y-64491000D03*
X150339000Y-65391000D03*
X147789000Y-66291000D03*
X150339000Y-67166000D03*
X147789000Y-68066000D03*
X150339000Y-68941000D03*
X147789000Y-69841000D03*
X150339000Y-70741000D03*
X147789000Y-71616000D03*
X150339000Y-72516000D03*
X147789000Y-73391000D03*
X150339000Y-74291000D03*
X147789000Y-75191000D03*
X150339000Y-76041000D03*
X147789000Y-76966000D03*
X150339000Y-77841000D03*
X147789000Y-78741000D03*
X150339000Y-79616000D03*
X147789000Y-80516000D03*
X150339000Y-81391000D03*
X147789000Y-82291000D03*
X150339000Y-83166000D03*
D28*
X166300000Y-55992000D03*
D29*
X166300000Y-60992000D03*
X166300000Y-50992000D03*
X171525000Y-55967000D03*
D28*
X166486000Y-89530000D03*
D29*
X166486000Y-94530000D03*
X166486000Y-84530000D03*
X171711000Y-89505000D03*
D28*
X166376000Y-72771000D03*
D29*
X166376000Y-77771000D03*
X166376000Y-67771000D03*
X171601000Y-72746000D03*
M02*
