G04 #@! TF.FileFunction,Legend,Bot*
%FSLAX46Y46*%
G04 Gerber Fmt 4.6, Leading zero omitted, Abs format (unit mm)*
G04 Created by KiCad (PCBNEW 4.0.7) date 10/21/21 16:27:33*
%MOMM*%
%LPD*%
G01*
G04 APERTURE LIST*
%ADD10C,0.100000*%
%ADD11C,0.150000*%
%ADD12C,0.300000*%
%ADD13C,0.250000*%
%ADD14C,0.370000*%
%ADD15C,0.010000*%
G04 APERTURE END LIST*
D10*
D11*
X145105000Y-84673000D02*
X145125000Y-84673000D01*
X145105000Y-93899000D02*
X145105000Y-84673000D01*
X165181000Y-84658000D02*
X165014000Y-84658000D01*
X165181000Y-93795000D02*
X165181000Y-84658000D01*
X165186000Y-91945000D02*
X165186000Y-84676000D01*
X141305000Y-106238000D02*
X141305000Y-97719000D01*
X168961000Y-106213000D02*
X168961000Y-97597000D01*
X163540000Y-113096000D02*
X146761000Y-113096000D01*
X141314928Y-106247107D02*
G75*
G03X146771000Y-113125000I10637072J2835107D01*
G01*
X163531957Y-113100843D02*
G75*
G03X168974000Y-106223000I-5187957J9696843D01*
G01*
X168935000Y-97566000D02*
X165164000Y-93795000D01*
X145085000Y-93919000D02*
X141326000Y-97678000D01*
X145096000Y-84665000D02*
X165106000Y-84665000D01*
D12*
X154556572Y-88216143D02*
X155699429Y-88216143D01*
X146966572Y-88209143D02*
X148109429Y-88209143D01*
X147538000Y-88780571D02*
X147538000Y-87637714D01*
X161970572Y-88209143D02*
X163113429Y-88209143D01*
X162542000Y-88780571D02*
X162542000Y-87637714D01*
D13*
X158542286Y-105307714D02*
X158713715Y-105250571D01*
X158770858Y-105193429D01*
X158828001Y-105079143D01*
X158828001Y-104907714D01*
X158770858Y-104793429D01*
X158713715Y-104736286D01*
X158599429Y-104679143D01*
X158142286Y-104679143D01*
X158142286Y-105879143D01*
X158542286Y-105879143D01*
X158656572Y-105822000D01*
X158713715Y-105764857D01*
X158770858Y-105650571D01*
X158770858Y-105536286D01*
X158713715Y-105422000D01*
X158656572Y-105364857D01*
X158542286Y-105307714D01*
X158142286Y-105307714D01*
X159285143Y-105022000D02*
X159856572Y-105022000D01*
X159170858Y-104679143D02*
X159570858Y-105879143D01*
X159970858Y-104679143D01*
X160199429Y-105879143D02*
X160885143Y-105879143D01*
X160542286Y-104679143D02*
X160542286Y-105879143D01*
X162028001Y-105879143D02*
X162428001Y-104679143D01*
X162828001Y-105879143D01*
X163856572Y-104679143D02*
X163170857Y-104679143D01*
X163513715Y-104679143D02*
X163513715Y-105879143D01*
X163399429Y-105707714D01*
X163285143Y-105593429D01*
X163170857Y-105536286D01*
X164370857Y-104793429D02*
X164428000Y-104736286D01*
X164370857Y-104679143D01*
X164313714Y-104736286D01*
X164370857Y-104793429D01*
X164370857Y-104679143D01*
X165570858Y-104679143D02*
X164885143Y-104679143D01*
X165228001Y-104679143D02*
X165228001Y-105879143D01*
X165113715Y-105707714D01*
X164999429Y-105593429D01*
X164885143Y-105536286D01*
D14*
X144719572Y-107070286D02*
X144719572Y-109470286D01*
X146091000Y-107070286D01*
X146091000Y-109470286D01*
X147233858Y-108327429D02*
X148033858Y-108327429D01*
X148376715Y-107070286D02*
X147233858Y-107070286D01*
X147233858Y-109470286D01*
X148376715Y-109470286D01*
X149862429Y-109470286D02*
X150319572Y-109470286D01*
X150548144Y-109356000D01*
X150776715Y-109127429D01*
X150891001Y-108670286D01*
X150891001Y-107870286D01*
X150776715Y-107413143D01*
X150548144Y-107184571D01*
X150319572Y-107070286D01*
X149862429Y-107070286D01*
X149633858Y-107184571D01*
X149405287Y-107413143D01*
X149291001Y-107870286D01*
X149291001Y-108670286D01*
X149405287Y-109127429D01*
X149633858Y-109356000D01*
X149862429Y-109470286D01*
X156262429Y-109470286D02*
X156262429Y-107756000D01*
X156148143Y-107413143D01*
X155919572Y-107184571D01*
X155576715Y-107070286D01*
X155348143Y-107070286D01*
X157291000Y-107756000D02*
X158433857Y-107756000D01*
X157062428Y-107070286D02*
X157862428Y-109470286D01*
X158662428Y-107070286D01*
X159462429Y-107070286D02*
X159462429Y-109470286D01*
X160262429Y-107756000D01*
X161062429Y-109470286D01*
X161062429Y-107070286D01*
X162205286Y-107070286D02*
X162205286Y-109470286D01*
X163005286Y-107756000D01*
X163805286Y-109470286D01*
X163805286Y-107070286D01*
X164833857Y-107756000D02*
X165976714Y-107756000D01*
X164605285Y-107070286D02*
X165405285Y-109470286D01*
X166205285Y-107070286D01*
D15*
G36*
X153597268Y-110241906D02*
X153657446Y-110191379D01*
X153726065Y-110120654D01*
X153793256Y-110040766D01*
X153849150Y-109962752D01*
X153883877Y-109897645D01*
X153886074Y-109891464D01*
X153897916Y-109831492D01*
X153891926Y-109763884D01*
X153865628Y-109675904D01*
X153824006Y-109572184D01*
X153824066Y-109538309D01*
X153865852Y-109516495D01*
X153877735Y-109513361D01*
X153935082Y-109491165D01*
X154017044Y-109449745D01*
X154105954Y-109398033D01*
X154106611Y-109397623D01*
X154264123Y-109299393D01*
X154386011Y-109356531D01*
X154552945Y-109426193D01*
X154684818Y-109462402D01*
X154780415Y-109464836D01*
X154788644Y-109463033D01*
X154833159Y-109437310D01*
X154907350Y-109376653D01*
X155007503Y-109284411D01*
X155129904Y-109163935D01*
X155203653Y-109088619D01*
X155345155Y-108939882D01*
X155452335Y-108820115D01*
X155528398Y-108724047D01*
X155576547Y-108646407D01*
X155599985Y-108581923D01*
X155601916Y-108525324D01*
X155585545Y-108471339D01*
X155582629Y-108465050D01*
X155552150Y-108415961D01*
X155514684Y-108388583D01*
X155466237Y-108384963D01*
X155402815Y-108407150D01*
X155320425Y-108457192D01*
X155215072Y-108537136D01*
X155082763Y-108649031D01*
X154919505Y-108794924D01*
X154893894Y-108818231D01*
X154735349Y-108962762D01*
X154622039Y-108886662D01*
X154508728Y-108810562D01*
X154508314Y-108563976D01*
X154507162Y-108451409D01*
X154501440Y-108368485D01*
X154487078Y-108298217D01*
X154460005Y-108223618D01*
X154416152Y-108127702D01*
X154391495Y-108076446D01*
X154275091Y-107835500D01*
X154435444Y-107762284D01*
X154612456Y-107654450D01*
X154726643Y-107550718D01*
X154857489Y-107412368D01*
X154843484Y-107257918D01*
X154815957Y-107124455D01*
X154760926Y-106975380D01*
X154687226Y-106829330D01*
X154603693Y-106704944D01*
X154556320Y-106652094D01*
X154498953Y-106602705D01*
X154449952Y-106584099D01*
X154385046Y-106588131D01*
X154372078Y-106590245D01*
X154299246Y-106609931D01*
X154246511Y-106637159D01*
X154239042Y-106644300D01*
X154225140Y-106688893D01*
X154219842Y-106767259D01*
X154222149Y-106863289D01*
X154231063Y-106960872D01*
X154245585Y-107043899D01*
X154264717Y-107096258D01*
X154267269Y-107099707D01*
X154292954Y-107148207D01*
X154315615Y-107218263D01*
X154317237Y-107225180D01*
X154327898Y-107284503D01*
X154316502Y-107309622D01*
X154273104Y-107315666D01*
X154257575Y-107315948D01*
X154186555Y-107328623D01*
X154100266Y-107359277D01*
X154064856Y-107376111D01*
X153952013Y-107435126D01*
X153766533Y-107273363D01*
X153682923Y-107203662D01*
X153610374Y-107149036D01*
X153559176Y-107116947D01*
X153543478Y-107111600D01*
X153508408Y-107127351D01*
X153446571Y-107169460D01*
X153368880Y-107230210D01*
X153332922Y-107260482D01*
X153159939Y-107409363D01*
X153072046Y-107335987D01*
X152993650Y-107285517D01*
X152908443Y-107251580D01*
X152888777Y-107247359D01*
X152827816Y-107236878D01*
X152795334Y-107229863D01*
X152793674Y-107229004D01*
X152800510Y-107205228D01*
X152817721Y-107147697D01*
X152831774Y-107101214D01*
X152856061Y-106989815D01*
X152867911Y-106867018D01*
X152867376Y-106748084D01*
X152854506Y-106648277D01*
X152830059Y-106583852D01*
X152770748Y-106538938D01*
X152690088Y-106525282D01*
X152606740Y-106542839D01*
X152545538Y-106584550D01*
X152508314Y-106636382D01*
X152465417Y-106712818D01*
X152425300Y-106796417D01*
X152396415Y-106869736D01*
X152387000Y-106911733D01*
X152376694Y-106947826D01*
X152350680Y-107010406D01*
X152336200Y-107041398D01*
X152291036Y-107167283D01*
X152290827Y-107184403D01*
X152315497Y-107184403D01*
X152356381Y-107052446D01*
X152361600Y-107041398D01*
X152392182Y-106973124D01*
X152410284Y-106923101D01*
X152412400Y-106911733D01*
X152423685Y-106866248D01*
X152452106Y-106794341D01*
X152489504Y-106713645D01*
X152527725Y-106641794D01*
X152557852Y-106597250D01*
X152614796Y-106563144D01*
X152689818Y-106551541D01*
X152762662Y-106562077D01*
X152813072Y-106594387D01*
X152817906Y-106601931D01*
X152835450Y-106666440D01*
X152842957Y-106764297D01*
X152840778Y-106879123D01*
X152829263Y-106994541D01*
X152808762Y-107094171D01*
X152807280Y-107099200D01*
X152788067Y-107172879D01*
X152779798Y-107225466D01*
X152781264Y-107239513D01*
X152811262Y-107254822D01*
X152871094Y-107269806D01*
X152884044Y-107272063D01*
X152965801Y-107298123D01*
X153048786Y-107343088D01*
X153061640Y-107352354D01*
X153147358Y-107417734D01*
X153005243Y-107594867D01*
X152939590Y-107673621D01*
X152884243Y-107734380D01*
X152847675Y-107768079D01*
X152839612Y-107772000D01*
X152803348Y-107756405D01*
X152739712Y-107715076D01*
X152659151Y-107656199D01*
X152572111Y-107587959D01*
X152489035Y-107518544D01*
X152420372Y-107456137D01*
X152376947Y-107409429D01*
X152322303Y-107302226D01*
X152315497Y-107184403D01*
X152290827Y-107184403D01*
X152289699Y-107276281D01*
X152333466Y-107379260D01*
X152383616Y-107444629D01*
X152453884Y-107514846D01*
X152547795Y-107596197D01*
X152646301Y-107672284D01*
X152656666Y-107679675D01*
X152831500Y-107803142D01*
X152704500Y-108057705D01*
X152649210Y-108170076D01*
X152612869Y-108252525D01*
X152591501Y-108320460D01*
X152581133Y-108389294D01*
X152577789Y-108474437D01*
X152577575Y-108530508D01*
X152604415Y-108530508D01*
X152606494Y-108427885D01*
X152613943Y-108349793D01*
X152631077Y-108279581D01*
X152662210Y-108200598D01*
X152711659Y-108096191D01*
X152722889Y-108073308D01*
X152792366Y-107944421D01*
X152876373Y-107806614D01*
X152960299Y-107683395D01*
X152988074Y-107646631D01*
X153066938Y-107553029D01*
X153159230Y-107454212D01*
X153257015Y-107357471D01*
X153352359Y-107270097D01*
X153437327Y-107199380D01*
X153503984Y-107152612D01*
X153542700Y-107137000D01*
X153577587Y-107152891D01*
X153639558Y-107195560D01*
X153718207Y-107257506D01*
X153765153Y-107297381D01*
X153915836Y-107448951D01*
X153967917Y-107448951D01*
X154079838Y-107394576D01*
X154166902Y-107361259D01*
X154252889Y-107342054D01*
X154279344Y-107340200D01*
X154337603Y-107336995D01*
X154358011Y-107317557D01*
X154353496Y-107267151D01*
X154351770Y-107257650D01*
X154328319Y-107177595D01*
X154297680Y-107112855D01*
X154271753Y-107037087D01*
X154258245Y-106913092D01*
X154256325Y-106847671D01*
X154255971Y-106746538D01*
X154259976Y-106684863D01*
X154271471Y-106651319D01*
X154293586Y-106634579D01*
X154317400Y-106626698D01*
X154412334Y-106607951D01*
X154481289Y-106619698D01*
X154542186Y-106666878D01*
X154567305Y-106695564D01*
X154666117Y-106838119D01*
X154746542Y-106998185D01*
X154800502Y-107157653D01*
X154818064Y-107257695D01*
X154824167Y-107341795D01*
X154818892Y-107397707D01*
X154795346Y-107444909D01*
X154746634Y-107502879D01*
X154721638Y-107530103D01*
X154637956Y-107606188D01*
X154531975Y-107682272D01*
X154420691Y-107747727D01*
X154321101Y-107791927D01*
X154287755Y-107801403D01*
X154250460Y-107785523D01*
X154191105Y-107729530D01*
X154113478Y-107637041D01*
X154107638Y-107629526D01*
X153967917Y-107448951D01*
X153915836Y-107448951D01*
X154009748Y-107543415D01*
X154219621Y-107822600D01*
X154363987Y-108076363D01*
X154417447Y-108187472D01*
X154451817Y-108269647D01*
X154471299Y-108339102D01*
X154480094Y-108412050D01*
X154482405Y-108504705D01*
X154482461Y-108533563D01*
X154468987Y-108724327D01*
X154431267Y-108911626D01*
X154373453Y-109079399D01*
X154311528Y-109194783D01*
X154260422Y-109251667D01*
X154221896Y-109284509D01*
X154298447Y-109284509D01*
X154306092Y-109261334D01*
X154332245Y-109206230D01*
X154365726Y-109141581D01*
X154409071Y-109052082D01*
X154443184Y-108966717D01*
X154456547Y-108921350D01*
X154473483Y-108865381D01*
X154491707Y-108839086D01*
X154493395Y-108838800D01*
X154523966Y-108851918D01*
X154581118Y-108885539D01*
X154624152Y-108913481D01*
X154735349Y-108988162D01*
X154893478Y-108843631D01*
X155063215Y-108691032D01*
X155201416Y-108573200D01*
X155311642Y-108488172D01*
X155397452Y-108433986D01*
X155462405Y-108408680D01*
X155510063Y-108410293D01*
X155543983Y-108436863D01*
X155563462Y-108474348D01*
X155576911Y-108530616D01*
X155571901Y-108589608D01*
X155545077Y-108656731D01*
X155493082Y-108737388D01*
X155412562Y-108836987D01*
X155300161Y-108960931D01*
X155189736Y-109076402D01*
X155064175Y-109202916D01*
X154955655Y-109306465D01*
X154868849Y-109382851D01*
X154808425Y-109427876D01*
X154787428Y-109437938D01*
X154701782Y-109439481D01*
X154584892Y-109411928D01*
X154445480Y-109357539D01*
X154406300Y-109339126D01*
X154343700Y-109308257D01*
X154304320Y-109287984D01*
X154298447Y-109284509D01*
X154221896Y-109284509D01*
X154181617Y-109318845D01*
X154091885Y-109382059D01*
X154089118Y-109383797D01*
X153924872Y-109486500D01*
X153160527Y-109486500D01*
X152996281Y-109383797D01*
X152906479Y-109320932D01*
X152827085Y-109253664D01*
X152774871Y-109196248D01*
X152773871Y-109194783D01*
X152700249Y-109052144D01*
X152644971Y-108876431D01*
X152612031Y-108683301D01*
X152604415Y-108530508D01*
X152577575Y-108530508D01*
X152577500Y-108550117D01*
X152574510Y-108678924D01*
X152565580Y-108758319D01*
X152550772Y-108787796D01*
X152549225Y-108787983D01*
X152518730Y-108805362D01*
X152465979Y-108850903D01*
X152402488Y-108914647D01*
X152284025Y-109041293D01*
X152100562Y-108893511D01*
X151929899Y-108760591D01*
X151780095Y-108653136D01*
X151655080Y-108573652D01*
X151558785Y-108524647D01*
X151496861Y-108508600D01*
X151425147Y-108525114D01*
X151368902Y-108566092D01*
X151345609Y-108618686D01*
X151345599Y-108619742D01*
X151346228Y-108621641D01*
X151380237Y-108621641D01*
X151392337Y-108577140D01*
X151394450Y-108574450D01*
X151449858Y-108538858D01*
X151527477Y-108541706D01*
X151630312Y-108583668D01*
X151742696Y-108652565D01*
X151848614Y-108727414D01*
X151970092Y-108817519D01*
X152083770Y-108905490D01*
X152102076Y-108920138D01*
X152287052Y-109069147D01*
X152408720Y-108936827D01*
X152489401Y-108858175D01*
X152548846Y-108823393D01*
X152590910Y-108832180D01*
X152619447Y-108884235D01*
X152628475Y-108919634D01*
X152650715Y-108990126D01*
X152688630Y-109079721D01*
X152716387Y-109135515D01*
X152786634Y-109267130D01*
X152669367Y-109326015D01*
X152585203Y-109370472D01*
X152508324Y-109414620D01*
X152483147Y-109430441D01*
X152415828Y-109460925D01*
X152326178Y-109484857D01*
X152287218Y-109491020D01*
X152160241Y-109506058D01*
X151818931Y-109170508D01*
X151658483Y-109008583D01*
X151536235Y-108875325D01*
X151450341Y-108768143D01*
X151398957Y-108684445D01*
X151380237Y-108621641D01*
X151346228Y-108621641D01*
X151365491Y-108679758D01*
X151424368Y-108769397D01*
X151521033Y-108887202D01*
X151654289Y-109031714D01*
X151822939Y-109201478D01*
X151825686Y-109204165D01*
X152160488Y-109531429D01*
X152289133Y-109516193D01*
X152369070Y-109502914D01*
X152429289Y-109486069D01*
X152446839Y-109477037D01*
X152484742Y-109452496D01*
X152549983Y-109415837D01*
X152628226Y-109374459D01*
X152705135Y-109335761D01*
X152766376Y-109307141D01*
X152797582Y-109296000D01*
X152826506Y-109308611D01*
X152886120Y-109341924D01*
X152964390Y-109389161D01*
X152977275Y-109397204D01*
X153068894Y-109449908D01*
X153155898Y-109492007D01*
X153219915Y-109514642D01*
X153221435Y-109514958D01*
X153277203Y-109532491D01*
X153290909Y-109558344D01*
X153286671Y-109572504D01*
X153240555Y-109688799D01*
X153216991Y-109773627D01*
X153216588Y-109781281D01*
X153236985Y-109781281D01*
X153252926Y-109747594D01*
X153283622Y-109749667D01*
X153290836Y-109754973D01*
X153323767Y-109810965D01*
X153314468Y-109876617D01*
X153295050Y-109905646D01*
X153276802Y-109928146D01*
X153293713Y-109918112D01*
X153307750Y-109907615D01*
X153347501Y-109852356D01*
X153339837Y-109789080D01*
X153302998Y-109741947D01*
X153272433Y-109709019D01*
X153268308Y-109676320D01*
X153289347Y-109622947D01*
X153295002Y-109611010D01*
X153336208Y-109524600D01*
X153774591Y-109524600D01*
X153815797Y-109611010D01*
X153840769Y-109669667D01*
X153840783Y-109704284D01*
X153814563Y-109735763D01*
X153807801Y-109741947D01*
X153764248Y-109805494D01*
X153764630Y-109810250D01*
X153791711Y-109810250D01*
X153807589Y-109764721D01*
X153833590Y-109742854D01*
X153861322Y-109756918D01*
X153865366Y-109763335D01*
X153876177Y-109816614D01*
X153870871Y-109866540D01*
X153847643Y-109920204D01*
X153821200Y-109923961D01*
X153797219Y-109877765D01*
X153794347Y-109867171D01*
X153791711Y-109810250D01*
X153764630Y-109810250D01*
X153769906Y-109875850D01*
X153795199Y-109921150D01*
X153811832Y-109951990D01*
X153809639Y-109982765D01*
X153783602Y-110025250D01*
X153728704Y-110091221D01*
X153717029Y-110104602D01*
X153652511Y-110170976D01*
X153594323Y-110218160D01*
X153555588Y-110235800D01*
X153512224Y-110216307D01*
X153451858Y-110165423D01*
X153384874Y-110094546D01*
X153321657Y-110015074D01*
X153272590Y-109938402D01*
X153258831Y-109910086D01*
X153238165Y-109839266D01*
X153236985Y-109781281D01*
X153216588Y-109781281D01*
X153213504Y-109839730D01*
X153224725Y-109891464D01*
X153256375Y-109954372D01*
X153310330Y-110031460D01*
X153376722Y-110111695D01*
X153445680Y-110184040D01*
X153507336Y-110237461D01*
X153551820Y-110260922D01*
X153555400Y-110261200D01*
X153597268Y-110241906D01*
X153597268Y-110241906D01*
G37*
X153597268Y-110241906D02*
X153657446Y-110191379D01*
X153726065Y-110120654D01*
X153793256Y-110040766D01*
X153849150Y-109962752D01*
X153883877Y-109897645D01*
X153886074Y-109891464D01*
X153897916Y-109831492D01*
X153891926Y-109763884D01*
X153865628Y-109675904D01*
X153824006Y-109572184D01*
X153824066Y-109538309D01*
X153865852Y-109516495D01*
X153877735Y-109513361D01*
X153935082Y-109491165D01*
X154017044Y-109449745D01*
X154105954Y-109398033D01*
X154106611Y-109397623D01*
X154264123Y-109299393D01*
X154386011Y-109356531D01*
X154552945Y-109426193D01*
X154684818Y-109462402D01*
X154780415Y-109464836D01*
X154788644Y-109463033D01*
X154833159Y-109437310D01*
X154907350Y-109376653D01*
X155007503Y-109284411D01*
X155129904Y-109163935D01*
X155203653Y-109088619D01*
X155345155Y-108939882D01*
X155452335Y-108820115D01*
X155528398Y-108724047D01*
X155576547Y-108646407D01*
X155599985Y-108581923D01*
X155601916Y-108525324D01*
X155585545Y-108471339D01*
X155582629Y-108465050D01*
X155552150Y-108415961D01*
X155514684Y-108388583D01*
X155466237Y-108384963D01*
X155402815Y-108407150D01*
X155320425Y-108457192D01*
X155215072Y-108537136D01*
X155082763Y-108649031D01*
X154919505Y-108794924D01*
X154893894Y-108818231D01*
X154735349Y-108962762D01*
X154622039Y-108886662D01*
X154508728Y-108810562D01*
X154508314Y-108563976D01*
X154507162Y-108451409D01*
X154501440Y-108368485D01*
X154487078Y-108298217D01*
X154460005Y-108223618D01*
X154416152Y-108127702D01*
X154391495Y-108076446D01*
X154275091Y-107835500D01*
X154435444Y-107762284D01*
X154612456Y-107654450D01*
X154726643Y-107550718D01*
X154857489Y-107412368D01*
X154843484Y-107257918D01*
X154815957Y-107124455D01*
X154760926Y-106975380D01*
X154687226Y-106829330D01*
X154603693Y-106704944D01*
X154556320Y-106652094D01*
X154498953Y-106602705D01*
X154449952Y-106584099D01*
X154385046Y-106588131D01*
X154372078Y-106590245D01*
X154299246Y-106609931D01*
X154246511Y-106637159D01*
X154239042Y-106644300D01*
X154225140Y-106688893D01*
X154219842Y-106767259D01*
X154222149Y-106863289D01*
X154231063Y-106960872D01*
X154245585Y-107043899D01*
X154264717Y-107096258D01*
X154267269Y-107099707D01*
X154292954Y-107148207D01*
X154315615Y-107218263D01*
X154317237Y-107225180D01*
X154327898Y-107284503D01*
X154316502Y-107309622D01*
X154273104Y-107315666D01*
X154257575Y-107315948D01*
X154186555Y-107328623D01*
X154100266Y-107359277D01*
X154064856Y-107376111D01*
X153952013Y-107435126D01*
X153766533Y-107273363D01*
X153682923Y-107203662D01*
X153610374Y-107149036D01*
X153559176Y-107116947D01*
X153543478Y-107111600D01*
X153508408Y-107127351D01*
X153446571Y-107169460D01*
X153368880Y-107230210D01*
X153332922Y-107260482D01*
X153159939Y-107409363D01*
X153072046Y-107335987D01*
X152993650Y-107285517D01*
X152908443Y-107251580D01*
X152888777Y-107247359D01*
X152827816Y-107236878D01*
X152795334Y-107229863D01*
X152793674Y-107229004D01*
X152800510Y-107205228D01*
X152817721Y-107147697D01*
X152831774Y-107101214D01*
X152856061Y-106989815D01*
X152867911Y-106867018D01*
X152867376Y-106748084D01*
X152854506Y-106648277D01*
X152830059Y-106583852D01*
X152770748Y-106538938D01*
X152690088Y-106525282D01*
X152606740Y-106542839D01*
X152545538Y-106584550D01*
X152508314Y-106636382D01*
X152465417Y-106712818D01*
X152425300Y-106796417D01*
X152396415Y-106869736D01*
X152387000Y-106911733D01*
X152376694Y-106947826D01*
X152350680Y-107010406D01*
X152336200Y-107041398D01*
X152291036Y-107167283D01*
X152290827Y-107184403D01*
X152315497Y-107184403D01*
X152356381Y-107052446D01*
X152361600Y-107041398D01*
X152392182Y-106973124D01*
X152410284Y-106923101D01*
X152412400Y-106911733D01*
X152423685Y-106866248D01*
X152452106Y-106794341D01*
X152489504Y-106713645D01*
X152527725Y-106641794D01*
X152557852Y-106597250D01*
X152614796Y-106563144D01*
X152689818Y-106551541D01*
X152762662Y-106562077D01*
X152813072Y-106594387D01*
X152817906Y-106601931D01*
X152835450Y-106666440D01*
X152842957Y-106764297D01*
X152840778Y-106879123D01*
X152829263Y-106994541D01*
X152808762Y-107094171D01*
X152807280Y-107099200D01*
X152788067Y-107172879D01*
X152779798Y-107225466D01*
X152781264Y-107239513D01*
X152811262Y-107254822D01*
X152871094Y-107269806D01*
X152884044Y-107272063D01*
X152965801Y-107298123D01*
X153048786Y-107343088D01*
X153061640Y-107352354D01*
X153147358Y-107417734D01*
X153005243Y-107594867D01*
X152939590Y-107673621D01*
X152884243Y-107734380D01*
X152847675Y-107768079D01*
X152839612Y-107772000D01*
X152803348Y-107756405D01*
X152739712Y-107715076D01*
X152659151Y-107656199D01*
X152572111Y-107587959D01*
X152489035Y-107518544D01*
X152420372Y-107456137D01*
X152376947Y-107409429D01*
X152322303Y-107302226D01*
X152315497Y-107184403D01*
X152290827Y-107184403D01*
X152289699Y-107276281D01*
X152333466Y-107379260D01*
X152383616Y-107444629D01*
X152453884Y-107514846D01*
X152547795Y-107596197D01*
X152646301Y-107672284D01*
X152656666Y-107679675D01*
X152831500Y-107803142D01*
X152704500Y-108057705D01*
X152649210Y-108170076D01*
X152612869Y-108252525D01*
X152591501Y-108320460D01*
X152581133Y-108389294D01*
X152577789Y-108474437D01*
X152577575Y-108530508D01*
X152604415Y-108530508D01*
X152606494Y-108427885D01*
X152613943Y-108349793D01*
X152631077Y-108279581D01*
X152662210Y-108200598D01*
X152711659Y-108096191D01*
X152722889Y-108073308D01*
X152792366Y-107944421D01*
X152876373Y-107806614D01*
X152960299Y-107683395D01*
X152988074Y-107646631D01*
X153066938Y-107553029D01*
X153159230Y-107454212D01*
X153257015Y-107357471D01*
X153352359Y-107270097D01*
X153437327Y-107199380D01*
X153503984Y-107152612D01*
X153542700Y-107137000D01*
X153577587Y-107152891D01*
X153639558Y-107195560D01*
X153718207Y-107257506D01*
X153765153Y-107297381D01*
X153915836Y-107448951D01*
X153967917Y-107448951D01*
X154079838Y-107394576D01*
X154166902Y-107361259D01*
X154252889Y-107342054D01*
X154279344Y-107340200D01*
X154337603Y-107336995D01*
X154358011Y-107317557D01*
X154353496Y-107267151D01*
X154351770Y-107257650D01*
X154328319Y-107177595D01*
X154297680Y-107112855D01*
X154271753Y-107037087D01*
X154258245Y-106913092D01*
X154256325Y-106847671D01*
X154255971Y-106746538D01*
X154259976Y-106684863D01*
X154271471Y-106651319D01*
X154293586Y-106634579D01*
X154317400Y-106626698D01*
X154412334Y-106607951D01*
X154481289Y-106619698D01*
X154542186Y-106666878D01*
X154567305Y-106695564D01*
X154666117Y-106838119D01*
X154746542Y-106998185D01*
X154800502Y-107157653D01*
X154818064Y-107257695D01*
X154824167Y-107341795D01*
X154818892Y-107397707D01*
X154795346Y-107444909D01*
X154746634Y-107502879D01*
X154721638Y-107530103D01*
X154637956Y-107606188D01*
X154531975Y-107682272D01*
X154420691Y-107747727D01*
X154321101Y-107791927D01*
X154287755Y-107801403D01*
X154250460Y-107785523D01*
X154191105Y-107729530D01*
X154113478Y-107637041D01*
X154107638Y-107629526D01*
X153967917Y-107448951D01*
X153915836Y-107448951D01*
X154009748Y-107543415D01*
X154219621Y-107822600D01*
X154363987Y-108076363D01*
X154417447Y-108187472D01*
X154451817Y-108269647D01*
X154471299Y-108339102D01*
X154480094Y-108412050D01*
X154482405Y-108504705D01*
X154482461Y-108533563D01*
X154468987Y-108724327D01*
X154431267Y-108911626D01*
X154373453Y-109079399D01*
X154311528Y-109194783D01*
X154260422Y-109251667D01*
X154221896Y-109284509D01*
X154298447Y-109284509D01*
X154306092Y-109261334D01*
X154332245Y-109206230D01*
X154365726Y-109141581D01*
X154409071Y-109052082D01*
X154443184Y-108966717D01*
X154456547Y-108921350D01*
X154473483Y-108865381D01*
X154491707Y-108839086D01*
X154493395Y-108838800D01*
X154523966Y-108851918D01*
X154581118Y-108885539D01*
X154624152Y-108913481D01*
X154735349Y-108988162D01*
X154893478Y-108843631D01*
X155063215Y-108691032D01*
X155201416Y-108573200D01*
X155311642Y-108488172D01*
X155397452Y-108433986D01*
X155462405Y-108408680D01*
X155510063Y-108410293D01*
X155543983Y-108436863D01*
X155563462Y-108474348D01*
X155576911Y-108530616D01*
X155571901Y-108589608D01*
X155545077Y-108656731D01*
X155493082Y-108737388D01*
X155412562Y-108836987D01*
X155300161Y-108960931D01*
X155189736Y-109076402D01*
X155064175Y-109202916D01*
X154955655Y-109306465D01*
X154868849Y-109382851D01*
X154808425Y-109427876D01*
X154787428Y-109437938D01*
X154701782Y-109439481D01*
X154584892Y-109411928D01*
X154445480Y-109357539D01*
X154406300Y-109339126D01*
X154343700Y-109308257D01*
X154304320Y-109287984D01*
X154298447Y-109284509D01*
X154221896Y-109284509D01*
X154181617Y-109318845D01*
X154091885Y-109382059D01*
X154089118Y-109383797D01*
X153924872Y-109486500D01*
X153160527Y-109486500D01*
X152996281Y-109383797D01*
X152906479Y-109320932D01*
X152827085Y-109253664D01*
X152774871Y-109196248D01*
X152773871Y-109194783D01*
X152700249Y-109052144D01*
X152644971Y-108876431D01*
X152612031Y-108683301D01*
X152604415Y-108530508D01*
X152577575Y-108530508D01*
X152577500Y-108550117D01*
X152574510Y-108678924D01*
X152565580Y-108758319D01*
X152550772Y-108787796D01*
X152549225Y-108787983D01*
X152518730Y-108805362D01*
X152465979Y-108850903D01*
X152402488Y-108914647D01*
X152284025Y-109041293D01*
X152100562Y-108893511D01*
X151929899Y-108760591D01*
X151780095Y-108653136D01*
X151655080Y-108573652D01*
X151558785Y-108524647D01*
X151496861Y-108508600D01*
X151425147Y-108525114D01*
X151368902Y-108566092D01*
X151345609Y-108618686D01*
X151345599Y-108619742D01*
X151346228Y-108621641D01*
X151380237Y-108621641D01*
X151392337Y-108577140D01*
X151394450Y-108574450D01*
X151449858Y-108538858D01*
X151527477Y-108541706D01*
X151630312Y-108583668D01*
X151742696Y-108652565D01*
X151848614Y-108727414D01*
X151970092Y-108817519D01*
X152083770Y-108905490D01*
X152102076Y-108920138D01*
X152287052Y-109069147D01*
X152408720Y-108936827D01*
X152489401Y-108858175D01*
X152548846Y-108823393D01*
X152590910Y-108832180D01*
X152619447Y-108884235D01*
X152628475Y-108919634D01*
X152650715Y-108990126D01*
X152688630Y-109079721D01*
X152716387Y-109135515D01*
X152786634Y-109267130D01*
X152669367Y-109326015D01*
X152585203Y-109370472D01*
X152508324Y-109414620D01*
X152483147Y-109430441D01*
X152415828Y-109460925D01*
X152326178Y-109484857D01*
X152287218Y-109491020D01*
X152160241Y-109506058D01*
X151818931Y-109170508D01*
X151658483Y-109008583D01*
X151536235Y-108875325D01*
X151450341Y-108768143D01*
X151398957Y-108684445D01*
X151380237Y-108621641D01*
X151346228Y-108621641D01*
X151365491Y-108679758D01*
X151424368Y-108769397D01*
X151521033Y-108887202D01*
X151654289Y-109031714D01*
X151822939Y-109201478D01*
X151825686Y-109204165D01*
X152160488Y-109531429D01*
X152289133Y-109516193D01*
X152369070Y-109502914D01*
X152429289Y-109486069D01*
X152446839Y-109477037D01*
X152484742Y-109452496D01*
X152549983Y-109415837D01*
X152628226Y-109374459D01*
X152705135Y-109335761D01*
X152766376Y-109307141D01*
X152797582Y-109296000D01*
X152826506Y-109308611D01*
X152886120Y-109341924D01*
X152964390Y-109389161D01*
X152977275Y-109397204D01*
X153068894Y-109449908D01*
X153155898Y-109492007D01*
X153219915Y-109514642D01*
X153221435Y-109514958D01*
X153277203Y-109532491D01*
X153290909Y-109558344D01*
X153286671Y-109572504D01*
X153240555Y-109688799D01*
X153216991Y-109773627D01*
X153216588Y-109781281D01*
X153236985Y-109781281D01*
X153252926Y-109747594D01*
X153283622Y-109749667D01*
X153290836Y-109754973D01*
X153323767Y-109810965D01*
X153314468Y-109876617D01*
X153295050Y-109905646D01*
X153276802Y-109928146D01*
X153293713Y-109918112D01*
X153307750Y-109907615D01*
X153347501Y-109852356D01*
X153339837Y-109789080D01*
X153302998Y-109741947D01*
X153272433Y-109709019D01*
X153268308Y-109676320D01*
X153289347Y-109622947D01*
X153295002Y-109611010D01*
X153336208Y-109524600D01*
X153774591Y-109524600D01*
X153815797Y-109611010D01*
X153840769Y-109669667D01*
X153840783Y-109704284D01*
X153814563Y-109735763D01*
X153807801Y-109741947D01*
X153764248Y-109805494D01*
X153764630Y-109810250D01*
X153791711Y-109810250D01*
X153807589Y-109764721D01*
X153833590Y-109742854D01*
X153861322Y-109756918D01*
X153865366Y-109763335D01*
X153876177Y-109816614D01*
X153870871Y-109866540D01*
X153847643Y-109920204D01*
X153821200Y-109923961D01*
X153797219Y-109877765D01*
X153794347Y-109867171D01*
X153791711Y-109810250D01*
X153764630Y-109810250D01*
X153769906Y-109875850D01*
X153795199Y-109921150D01*
X153811832Y-109951990D01*
X153809639Y-109982765D01*
X153783602Y-110025250D01*
X153728704Y-110091221D01*
X153717029Y-110104602D01*
X153652511Y-110170976D01*
X153594323Y-110218160D01*
X153555588Y-110235800D01*
X153512224Y-110216307D01*
X153451858Y-110165423D01*
X153384874Y-110094546D01*
X153321657Y-110015074D01*
X153272590Y-109938402D01*
X153258831Y-109910086D01*
X153238165Y-109839266D01*
X153236985Y-109781281D01*
X153216588Y-109781281D01*
X153213504Y-109839730D01*
X153224725Y-109891464D01*
X153256375Y-109954372D01*
X153310330Y-110031460D01*
X153376722Y-110111695D01*
X153445680Y-110184040D01*
X153507336Y-110237461D01*
X153551820Y-110260922D01*
X153555400Y-110261200D01*
X153597268Y-110241906D01*
G36*
X154101500Y-109334100D02*
X154198813Y-109261582D01*
X154265703Y-109189280D01*
X154319017Y-109098802D01*
X154321373Y-109093996D01*
X154403689Y-108870773D01*
X154440071Y-108631240D01*
X154439538Y-108464274D01*
X154428070Y-108342299D01*
X154405642Y-108245520D01*
X154365379Y-108148493D01*
X154341500Y-108101557D01*
X154217998Y-107894885D01*
X154064362Y-107681591D01*
X153894561Y-107480260D01*
X153802677Y-107384650D01*
X153716138Y-107301939D01*
X153653236Y-107250359D01*
X153603748Y-107223169D01*
X153557454Y-107213629D01*
X153542700Y-107213200D01*
X153495374Y-107218770D01*
X153447913Y-107239972D01*
X153390096Y-107283547D01*
X153311702Y-107356237D01*
X153282722Y-107384650D01*
X153142110Y-107535769D01*
X153171053Y-107535769D01*
X153201216Y-107490406D01*
X153264241Y-107426725D01*
X153301279Y-107391117D01*
X153401758Y-107301662D01*
X153482617Y-107251589D01*
X153554405Y-107239409D01*
X153627667Y-107263630D01*
X153712953Y-107322763D01*
X153723653Y-107331444D01*
X153796568Y-107396231D01*
X153859675Y-107460840D01*
X153885395Y-107492313D01*
X153933834Y-107560339D01*
X153857067Y-107653470D01*
X153780301Y-107746600D01*
X153545278Y-107746600D01*
X153432303Y-107745429D01*
X153358197Y-107740322D01*
X153311053Y-107728893D01*
X153278962Y-107708755D01*
X153260172Y-107689450D01*
X153202288Y-107622541D01*
X153171996Y-107575564D01*
X153171053Y-107535769D01*
X153142110Y-107535769D01*
X153124871Y-107554296D01*
X152973635Y-107742142D01*
X152915196Y-107825900D01*
X152958500Y-107825900D01*
X152972160Y-107793240D01*
X153007431Y-107734354D01*
X153042404Y-107682508D01*
X153126309Y-107563471D01*
X153211827Y-107661386D01*
X153297345Y-107759300D01*
X153292363Y-107764457D01*
X153787464Y-107764457D01*
X153868282Y-107667087D01*
X153915577Y-107611193D01*
X153947299Y-107575754D01*
X153954450Y-107569258D01*
X153970703Y-107588097D01*
X154009728Y-107638923D01*
X154064539Y-107712553D01*
X154094150Y-107752950D01*
X154211257Y-107921723D01*
X154297719Y-108066556D01*
X154359823Y-108198392D01*
X154378608Y-108248106D01*
X154413844Y-108347976D01*
X154050700Y-108404434D01*
X153955450Y-108311663D01*
X153901802Y-108256958D01*
X153867314Y-108217076D01*
X153860326Y-108204996D01*
X153880040Y-108185334D01*
X153931900Y-108146409D01*
X154005181Y-108096216D01*
X154014290Y-108090219D01*
X154094919Y-108035002D01*
X154160619Y-107985764D01*
X154197630Y-107952838D01*
X154198313Y-107952014D01*
X154199748Y-107941841D01*
X154168443Y-107959324D01*
X154145541Y-107975424D01*
X154062582Y-108036158D01*
X153925023Y-107900308D01*
X153787464Y-107764457D01*
X153292363Y-107764457D01*
X153205782Y-107854075D01*
X153114218Y-107948849D01*
X153036359Y-107899552D01*
X152984965Y-107860913D01*
X152959197Y-107829597D01*
X152958500Y-107825900D01*
X152915196Y-107825900D01*
X152840856Y-107932446D01*
X152740017Y-108106219D01*
X152671067Y-108295038D01*
X152668214Y-108315537D01*
X152700001Y-108315537D01*
X152704120Y-108276776D01*
X152726904Y-108207386D01*
X152762272Y-108121105D01*
X152804145Y-108031668D01*
X152846441Y-107952814D01*
X152883081Y-107898279D01*
X152886355Y-107894519D01*
X152915524Y-107868534D01*
X152945594Y-107868787D01*
X152995196Y-107896808D01*
X153006867Y-107904414D01*
X153068636Y-107957403D01*
X153079168Y-107969347D01*
X153119005Y-107969347D01*
X153215357Y-107870674D01*
X153311709Y-107772000D01*
X153773035Y-107772000D01*
X154043479Y-108045846D01*
X153945943Y-108112123D01*
X153900419Y-108140762D01*
X153856499Y-108159713D01*
X153802412Y-108170961D01*
X153726389Y-108176489D01*
X153616660Y-108178283D01*
X153552879Y-108178400D01*
X153257350Y-108178400D01*
X153188178Y-108073874D01*
X153119005Y-107969347D01*
X153079168Y-107969347D01*
X153135151Y-108032832D01*
X153166263Y-108075761D01*
X153244399Y-108193840D01*
X153144513Y-108300922D01*
X153044628Y-108408005D01*
X152878987Y-108379160D01*
X152789027Y-108358816D01*
X152724755Y-108335189D01*
X152700001Y-108315537D01*
X152668214Y-108315537D01*
X152641951Y-108504231D01*
X152644154Y-108550333D01*
X152666788Y-108550333D01*
X152667656Y-108450815D01*
X152672222Y-108392882D01*
X152682712Y-108367343D01*
X152701348Y-108365004D01*
X152710850Y-108368217D01*
X152759185Y-108381827D01*
X152838238Y-108398981D01*
X152907700Y-108411872D01*
X152911189Y-108412682D01*
X153067799Y-108412682D01*
X153256511Y-108203800D01*
X153824490Y-108203800D01*
X153923766Y-108305469D01*
X154023043Y-108407137D01*
X153910933Y-108521369D01*
X153798823Y-108635600D01*
X153286576Y-108635600D01*
X153177188Y-108524141D01*
X153067799Y-108412682D01*
X152911189Y-108412682D01*
X153008993Y-108435384D01*
X153084936Y-108472300D01*
X153160971Y-108535352D01*
X153168100Y-108542176D01*
X153276100Y-108646276D01*
X153272127Y-108650325D01*
X153809299Y-108650325D01*
X153913828Y-108543819D01*
X153989009Y-108476030D01*
X154061244Y-108437118D01*
X154155794Y-108413714D01*
X154161528Y-108412716D01*
X154277498Y-108392977D01*
X154352170Y-108385024D01*
X154394584Y-108393788D01*
X154413778Y-108424204D01*
X154418790Y-108481203D01*
X154418653Y-108553050D01*
X154417176Y-108674861D01*
X154408921Y-108755404D01*
X154387263Y-108804213D01*
X154345578Y-108830820D01*
X154277243Y-108844759D01*
X154210944Y-108851988D01*
X154032988Y-108869860D01*
X153921144Y-108760092D01*
X153809299Y-108650325D01*
X153272127Y-108650325D01*
X153169161Y-108755238D01*
X153093116Y-108823916D01*
X153030818Y-108857206D01*
X152984961Y-108863595D01*
X152890373Y-108855703D01*
X152798243Y-108836417D01*
X152725064Y-108810192D01*
X152688473Y-108783487D01*
X152678284Y-108743253D01*
X152670640Y-108667233D01*
X152666933Y-108570430D01*
X152666788Y-108550333D01*
X152644154Y-108550333D01*
X152652406Y-108722981D01*
X152683420Y-108858529D01*
X152704395Y-108858529D01*
X152715405Y-108844866D01*
X152737366Y-108851015D01*
X152787450Y-108863520D01*
X152865319Y-108876179D01*
X152907700Y-108881314D01*
X152934854Y-108886043D01*
X153065714Y-108886043D01*
X153176145Y-108773522D01*
X153286576Y-108661000D01*
X153798823Y-108661000D01*
X153906369Y-108770582D01*
X154013914Y-108880163D01*
X153936898Y-108986482D01*
X153859881Y-109092800D01*
X153229468Y-109092800D01*
X153147591Y-108989422D01*
X153065714Y-108886043D01*
X152934854Y-108886043D01*
X152991220Y-108895859D01*
X153052072Y-108925937D01*
X153113416Y-108983936D01*
X153126208Y-108998196D01*
X153217716Y-109101572D01*
X153215138Y-109105500D01*
X153870715Y-109105500D01*
X153948007Y-108999954D01*
X153983567Y-108952917D01*
X154015592Y-108921205D01*
X154055205Y-108900795D01*
X154113532Y-108887670D01*
X154201699Y-108877808D01*
X154311050Y-108868779D01*
X154357872Y-108878843D01*
X154368200Y-108901576D01*
X154358400Y-108943943D01*
X154333056Y-109014822D01*
X154306901Y-109077559D01*
X154243994Y-109189257D01*
X154163223Y-109269630D01*
X154137950Y-109287407D01*
X154073772Y-109328070D01*
X154037718Y-109342131D01*
X154016216Y-109332009D01*
X154002399Y-109311561D01*
X153969458Y-109258142D01*
X153926633Y-109191167D01*
X153922607Y-109184988D01*
X153870715Y-109105500D01*
X153215138Y-109105500D01*
X153164308Y-109182934D01*
X153121060Y-109250041D01*
X153085982Y-109306473D01*
X153083000Y-109311471D01*
X153063620Y-109337301D01*
X153039322Y-109340662D01*
X152996537Y-109319143D01*
X152947405Y-109287378D01*
X152852196Y-109200054D01*
X152775568Y-109074213D01*
X152715465Y-108908954D01*
X152704395Y-108858529D01*
X152683420Y-108858529D01*
X152702170Y-108940472D01*
X152764026Y-109093996D01*
X152817125Y-109185728D01*
X152883040Y-109258453D01*
X152978618Y-109330566D01*
X152983900Y-109334100D01*
X153044585Y-109374557D01*
X153088315Y-109374557D01*
X153088609Y-109353184D01*
X153108352Y-109312716D01*
X153149770Y-109243676D01*
X153188177Y-109180950D01*
X153205831Y-109154485D01*
X153226788Y-109136726D01*
X153260307Y-109126204D01*
X153315650Y-109121450D01*
X153402077Y-109120995D01*
X153528848Y-109123368D01*
X153548396Y-109123800D01*
X153869438Y-109130900D01*
X153940714Y-109252295D01*
X154011990Y-109373689D01*
X153947141Y-109398345D01*
X153892461Y-109408799D01*
X153799579Y-109416283D01*
X153681008Y-109420803D01*
X153549260Y-109422364D01*
X153416846Y-109420975D01*
X153296278Y-109416641D01*
X153200068Y-109409368D01*
X153140728Y-109399163D01*
X153137154Y-109397926D01*
X153105239Y-109386312D01*
X153088315Y-109374557D01*
X153044585Y-109374557D01*
X153136300Y-109435700D01*
X153949100Y-109435700D01*
X154101500Y-109334100D01*
X154101500Y-109334100D01*
G37*
X154101500Y-109334100D02*
X154198813Y-109261582D01*
X154265703Y-109189280D01*
X154319017Y-109098802D01*
X154321373Y-109093996D01*
X154403689Y-108870773D01*
X154440071Y-108631240D01*
X154439538Y-108464274D01*
X154428070Y-108342299D01*
X154405642Y-108245520D01*
X154365379Y-108148493D01*
X154341500Y-108101557D01*
X154217998Y-107894885D01*
X154064362Y-107681591D01*
X153894561Y-107480260D01*
X153802677Y-107384650D01*
X153716138Y-107301939D01*
X153653236Y-107250359D01*
X153603748Y-107223169D01*
X153557454Y-107213629D01*
X153542700Y-107213200D01*
X153495374Y-107218770D01*
X153447913Y-107239972D01*
X153390096Y-107283547D01*
X153311702Y-107356237D01*
X153282722Y-107384650D01*
X153142110Y-107535769D01*
X153171053Y-107535769D01*
X153201216Y-107490406D01*
X153264241Y-107426725D01*
X153301279Y-107391117D01*
X153401758Y-107301662D01*
X153482617Y-107251589D01*
X153554405Y-107239409D01*
X153627667Y-107263630D01*
X153712953Y-107322763D01*
X153723653Y-107331444D01*
X153796568Y-107396231D01*
X153859675Y-107460840D01*
X153885395Y-107492313D01*
X153933834Y-107560339D01*
X153857067Y-107653470D01*
X153780301Y-107746600D01*
X153545278Y-107746600D01*
X153432303Y-107745429D01*
X153358197Y-107740322D01*
X153311053Y-107728893D01*
X153278962Y-107708755D01*
X153260172Y-107689450D01*
X153202288Y-107622541D01*
X153171996Y-107575564D01*
X153171053Y-107535769D01*
X153142110Y-107535769D01*
X153124871Y-107554296D01*
X152973635Y-107742142D01*
X152915196Y-107825900D01*
X152958500Y-107825900D01*
X152972160Y-107793240D01*
X153007431Y-107734354D01*
X153042404Y-107682508D01*
X153126309Y-107563471D01*
X153211827Y-107661386D01*
X153297345Y-107759300D01*
X153292363Y-107764457D01*
X153787464Y-107764457D01*
X153868282Y-107667087D01*
X153915577Y-107611193D01*
X153947299Y-107575754D01*
X153954450Y-107569258D01*
X153970703Y-107588097D01*
X154009728Y-107638923D01*
X154064539Y-107712553D01*
X154094150Y-107752950D01*
X154211257Y-107921723D01*
X154297719Y-108066556D01*
X154359823Y-108198392D01*
X154378608Y-108248106D01*
X154413844Y-108347976D01*
X154050700Y-108404434D01*
X153955450Y-108311663D01*
X153901802Y-108256958D01*
X153867314Y-108217076D01*
X153860326Y-108204996D01*
X153880040Y-108185334D01*
X153931900Y-108146409D01*
X154005181Y-108096216D01*
X154014290Y-108090219D01*
X154094919Y-108035002D01*
X154160619Y-107985764D01*
X154197630Y-107952838D01*
X154198313Y-107952014D01*
X154199748Y-107941841D01*
X154168443Y-107959324D01*
X154145541Y-107975424D01*
X154062582Y-108036158D01*
X153925023Y-107900308D01*
X153787464Y-107764457D01*
X153292363Y-107764457D01*
X153205782Y-107854075D01*
X153114218Y-107948849D01*
X153036359Y-107899552D01*
X152984965Y-107860913D01*
X152959197Y-107829597D01*
X152958500Y-107825900D01*
X152915196Y-107825900D01*
X152840856Y-107932446D01*
X152740017Y-108106219D01*
X152671067Y-108295038D01*
X152668214Y-108315537D01*
X152700001Y-108315537D01*
X152704120Y-108276776D01*
X152726904Y-108207386D01*
X152762272Y-108121105D01*
X152804145Y-108031668D01*
X152846441Y-107952814D01*
X152883081Y-107898279D01*
X152886355Y-107894519D01*
X152915524Y-107868534D01*
X152945594Y-107868787D01*
X152995196Y-107896808D01*
X153006867Y-107904414D01*
X153068636Y-107957403D01*
X153079168Y-107969347D01*
X153119005Y-107969347D01*
X153215357Y-107870674D01*
X153311709Y-107772000D01*
X153773035Y-107772000D01*
X154043479Y-108045846D01*
X153945943Y-108112123D01*
X153900419Y-108140762D01*
X153856499Y-108159713D01*
X153802412Y-108170961D01*
X153726389Y-108176489D01*
X153616660Y-108178283D01*
X153552879Y-108178400D01*
X153257350Y-108178400D01*
X153188178Y-108073874D01*
X153119005Y-107969347D01*
X153079168Y-107969347D01*
X153135151Y-108032832D01*
X153166263Y-108075761D01*
X153244399Y-108193840D01*
X153144513Y-108300922D01*
X153044628Y-108408005D01*
X152878987Y-108379160D01*
X152789027Y-108358816D01*
X152724755Y-108335189D01*
X152700001Y-108315537D01*
X152668214Y-108315537D01*
X152641951Y-108504231D01*
X152644154Y-108550333D01*
X152666788Y-108550333D01*
X152667656Y-108450815D01*
X152672222Y-108392882D01*
X152682712Y-108367343D01*
X152701348Y-108365004D01*
X152710850Y-108368217D01*
X152759185Y-108381827D01*
X152838238Y-108398981D01*
X152907700Y-108411872D01*
X152911189Y-108412682D01*
X153067799Y-108412682D01*
X153256511Y-108203800D01*
X153824490Y-108203800D01*
X153923766Y-108305469D01*
X154023043Y-108407137D01*
X153910933Y-108521369D01*
X153798823Y-108635600D01*
X153286576Y-108635600D01*
X153177188Y-108524141D01*
X153067799Y-108412682D01*
X152911189Y-108412682D01*
X153008993Y-108435384D01*
X153084936Y-108472300D01*
X153160971Y-108535352D01*
X153168100Y-108542176D01*
X153276100Y-108646276D01*
X153272127Y-108650325D01*
X153809299Y-108650325D01*
X153913828Y-108543819D01*
X153989009Y-108476030D01*
X154061244Y-108437118D01*
X154155794Y-108413714D01*
X154161528Y-108412716D01*
X154277498Y-108392977D01*
X154352170Y-108385024D01*
X154394584Y-108393788D01*
X154413778Y-108424204D01*
X154418790Y-108481203D01*
X154418653Y-108553050D01*
X154417176Y-108674861D01*
X154408921Y-108755404D01*
X154387263Y-108804213D01*
X154345578Y-108830820D01*
X154277243Y-108844759D01*
X154210944Y-108851988D01*
X154032988Y-108869860D01*
X153921144Y-108760092D01*
X153809299Y-108650325D01*
X153272127Y-108650325D01*
X153169161Y-108755238D01*
X153093116Y-108823916D01*
X153030818Y-108857206D01*
X152984961Y-108863595D01*
X152890373Y-108855703D01*
X152798243Y-108836417D01*
X152725064Y-108810192D01*
X152688473Y-108783487D01*
X152678284Y-108743253D01*
X152670640Y-108667233D01*
X152666933Y-108570430D01*
X152666788Y-108550333D01*
X152644154Y-108550333D01*
X152652406Y-108722981D01*
X152683420Y-108858529D01*
X152704395Y-108858529D01*
X152715405Y-108844866D01*
X152737366Y-108851015D01*
X152787450Y-108863520D01*
X152865319Y-108876179D01*
X152907700Y-108881314D01*
X152934854Y-108886043D01*
X153065714Y-108886043D01*
X153176145Y-108773522D01*
X153286576Y-108661000D01*
X153798823Y-108661000D01*
X153906369Y-108770582D01*
X154013914Y-108880163D01*
X153936898Y-108986482D01*
X153859881Y-109092800D01*
X153229468Y-109092800D01*
X153147591Y-108989422D01*
X153065714Y-108886043D01*
X152934854Y-108886043D01*
X152991220Y-108895859D01*
X153052072Y-108925937D01*
X153113416Y-108983936D01*
X153126208Y-108998196D01*
X153217716Y-109101572D01*
X153215138Y-109105500D01*
X153870715Y-109105500D01*
X153948007Y-108999954D01*
X153983567Y-108952917D01*
X154015592Y-108921205D01*
X154055205Y-108900795D01*
X154113532Y-108887670D01*
X154201699Y-108877808D01*
X154311050Y-108868779D01*
X154357872Y-108878843D01*
X154368200Y-108901576D01*
X154358400Y-108943943D01*
X154333056Y-109014822D01*
X154306901Y-109077559D01*
X154243994Y-109189257D01*
X154163223Y-109269630D01*
X154137950Y-109287407D01*
X154073772Y-109328070D01*
X154037718Y-109342131D01*
X154016216Y-109332009D01*
X154002399Y-109311561D01*
X153969458Y-109258142D01*
X153926633Y-109191167D01*
X153922607Y-109184988D01*
X153870715Y-109105500D01*
X153215138Y-109105500D01*
X153164308Y-109182934D01*
X153121060Y-109250041D01*
X153085982Y-109306473D01*
X153083000Y-109311471D01*
X153063620Y-109337301D01*
X153039322Y-109340662D01*
X152996537Y-109319143D01*
X152947405Y-109287378D01*
X152852196Y-109200054D01*
X152775568Y-109074213D01*
X152715465Y-108908954D01*
X152704395Y-108858529D01*
X152683420Y-108858529D01*
X152702170Y-108940472D01*
X152764026Y-109093996D01*
X152817125Y-109185728D01*
X152883040Y-109258453D01*
X152978618Y-109330566D01*
X152983900Y-109334100D01*
X153044585Y-109374557D01*
X153088315Y-109374557D01*
X153088609Y-109353184D01*
X153108352Y-109312716D01*
X153149770Y-109243676D01*
X153188177Y-109180950D01*
X153205831Y-109154485D01*
X153226788Y-109136726D01*
X153260307Y-109126204D01*
X153315650Y-109121450D01*
X153402077Y-109120995D01*
X153528848Y-109123368D01*
X153548396Y-109123800D01*
X153869438Y-109130900D01*
X153940714Y-109252295D01*
X154011990Y-109373689D01*
X153947141Y-109398345D01*
X153892461Y-109408799D01*
X153799579Y-109416283D01*
X153681008Y-109420803D01*
X153549260Y-109422364D01*
X153416846Y-109420975D01*
X153296278Y-109416641D01*
X153200068Y-109409368D01*
X153140728Y-109399163D01*
X153137154Y-109397926D01*
X153105239Y-109386312D01*
X153088315Y-109374557D01*
X153044585Y-109374557D01*
X153136300Y-109435700D01*
X153949100Y-109435700D01*
X154101500Y-109334100D01*
G36*
X153496631Y-110143193D02*
X153491900Y-110134200D01*
X153467967Y-110109943D01*
X153463501Y-110108800D01*
X153461768Y-110125208D01*
X153466500Y-110134200D01*
X153490432Y-110158458D01*
X153494898Y-110159600D01*
X153496631Y-110143193D01*
X153496631Y-110143193D01*
G37*
X153496631Y-110143193D02*
X153491900Y-110134200D01*
X153467967Y-110109943D01*
X153463501Y-110108800D01*
X153461768Y-110125208D01*
X153466500Y-110134200D01*
X153490432Y-110158458D01*
X153494898Y-110159600D01*
X153496631Y-110143193D01*
G36*
X153627675Y-110149326D02*
X153654729Y-110125715D01*
X153657000Y-110120001D01*
X153644945Y-110109562D01*
X153619849Y-110132954D01*
X153616474Y-110138125D01*
X153613480Y-110155506D01*
X153627675Y-110149326D01*
X153627675Y-110149326D01*
G37*
X153627675Y-110149326D02*
X153654729Y-110125715D01*
X153657000Y-110120001D01*
X153644945Y-110109562D01*
X153619849Y-110132954D01*
X153616474Y-110138125D01*
X153613480Y-110155506D01*
X153627675Y-110149326D01*
M02*
