G04 #@! TF.FileFunction,Legend,Top*
%FSLAX46Y46*%
G04 Gerber Fmt 4.6, Leading zero omitted, Abs format (unit mm)*
G04 Created by KiCad (PCBNEW 4.0.7) date 10/21/21 16:27:33*
%MOMM*%
%LPD*%
G01*
G04 APERTURE LIST*
%ADD10C,0.100000*%
%ADD11C,0.150000*%
%ADD12C,0.300000*%
%ADD13C,0.700000*%
G04 APERTURE END LIST*
D10*
D11*
X145105000Y-84673000D02*
X145125000Y-84673000D01*
X145105000Y-93899000D02*
X145105000Y-84673000D01*
X165181000Y-84658000D02*
X165014000Y-84658000D01*
X165181000Y-93795000D02*
X165181000Y-84658000D01*
X165186000Y-91945000D02*
X165186000Y-84676000D01*
X141305000Y-106238000D02*
X141305000Y-97719000D01*
X168961000Y-106213000D02*
X168961000Y-97597000D01*
X163540000Y-113096000D02*
X146761000Y-113096000D01*
X141314928Y-106247107D02*
G75*
G03X146771000Y-113125000I10637072J2835107D01*
G01*
X163531957Y-113100843D02*
G75*
G03X168974000Y-106223000I-5187957J9696843D01*
G01*
D12*
X146966572Y-88193143D02*
X148109429Y-88193143D01*
X147538000Y-88764571D02*
X147538000Y-87621714D01*
X154556572Y-88209143D02*
X155699429Y-88209143D01*
X161970572Y-88201143D02*
X163113429Y-88201143D01*
X162542000Y-88772571D02*
X162542000Y-87629714D01*
D11*
X168935000Y-97566000D02*
X165164000Y-93795000D01*
X145085000Y-93919000D02*
X141326000Y-97678000D01*
X145096000Y-84665000D02*
X165106000Y-84665000D01*
D13*
X154000143Y-112304286D02*
X156285857Y-112304286D01*
D10*
X149138399Y-113480536D02*
G75*
G02X161143000Y-113477000I6004601J-7806464D01*
G01*
X149139646Y-113493530D02*
G75*
G02X145803000Y-112507000I-1306646J1716530D01*
G01*
X144363000Y-108557000D02*
X145803000Y-112507000D01*
X146443000Y-97387000D02*
X144363000Y-99467000D01*
X163843000Y-97387000D02*
X146443000Y-97387000D01*
X163843000Y-97387000D02*
X165923000Y-99467000D01*
X165923000Y-108557000D02*
X164483000Y-112507000D01*
X164468244Y-112515169D02*
G75*
G02X161143000Y-113477000I-2015244J738169D01*
G01*
X144363000Y-99467000D02*
X144363000Y-101927000D01*
X144363000Y-107927000D02*
X144363000Y-108557000D01*
X165923000Y-99467000D02*
X165923000Y-101927000D01*
X165923000Y-107927000D02*
X165923000Y-108557000D01*
M02*
