G04 #@! TF.FileFunction,Copper,L1,Top,Signal*
%FSLAX46Y46*%
G04 Gerber Fmt 4.6, Leading zero omitted, Abs format (unit mm)*
G04 Created by KiCad (PCBNEW 4.0.7) date 10/21/21 16:27:33*
%MOMM*%
%LPD*%
G01*
G04 APERTURE LIST*
%ADD10C,0.100000*%
%ADD11C,0.150000*%
%ADD12R,1.800000X1.800000*%
%ADD13R,1.300000X5.080000*%
%ADD14O,2.600000X5.080000*%
%ADD15R,6.080000X6.080000*%
%ADD16C,1.500000*%
%ADD17C,0.800000*%
%ADD18C,1.500000*%
%ADD19C,1.000000*%
%ADD20C,0.600000*%
%ADD21C,0.500000*%
G04 APERTURE END LIST*
D10*
D11*
X145105000Y-84673000D02*
X145125000Y-84673000D01*
X145105000Y-93899000D02*
X145105000Y-84673000D01*
X165181000Y-84658000D02*
X165014000Y-84658000D01*
X165181000Y-93795000D02*
X165181000Y-84658000D01*
X165186000Y-91945000D02*
X165186000Y-84676000D01*
X141305000Y-106238000D02*
X141305000Y-97719000D01*
X168961000Y-106213000D02*
X168961000Y-97597000D01*
X163540000Y-113096000D02*
X146761000Y-113096000D01*
X141314928Y-106247107D02*
G75*
G03X146771000Y-113125000I10637072J2835107D01*
G01*
X163531957Y-113100843D02*
G75*
G03X168974000Y-106223000I-5187957J9696843D01*
G01*
X168935000Y-97566000D02*
X165164000Y-93795000D01*
X145085000Y-93919000D02*
X141326000Y-97678000D01*
X145096000Y-84665000D02*
X165106000Y-84665000D01*
D12*
X147523000Y-86418000D03*
X147523000Y-89969000D03*
X155150000Y-86414000D03*
X155150000Y-89984000D03*
X162550000Y-86425000D03*
X162550000Y-89981000D03*
D13*
X143622000Y-104935000D03*
X166670000Y-104922000D03*
D14*
X142979000Y-104922000D03*
D15*
X155143000Y-104927000D03*
D14*
X167325000Y-104911000D03*
D16*
X155153000Y-105126000D03*
D17*
X155153000Y-105126000D02*
X155222000Y-105195000D01*
X155222000Y-105195000D02*
X155244000Y-105195000D01*
D18*
X167170000Y-105073000D02*
X167170000Y-98801000D01*
X162550000Y-94181000D02*
X167170000Y-98801000D01*
X162550000Y-94181000D02*
X162550000Y-89981000D01*
X147523000Y-89969000D02*
X147523000Y-94158000D01*
X142997000Y-98684000D02*
X142997000Y-103810000D01*
X147523000Y-94158000D02*
X142997000Y-98684000D01*
D19*
X162550000Y-89981000D02*
X160593000Y-89981000D01*
X160593000Y-89981000D02*
X158809000Y-88197000D01*
X151150000Y-88197000D02*
X158809000Y-88197000D01*
X160581000Y-86425000D02*
X162550000Y-86425000D01*
X158809000Y-88197000D02*
X160581000Y-86425000D01*
X147523000Y-89969000D02*
X149378000Y-89969000D01*
X149378000Y-89969000D02*
X151150000Y-88197000D01*
X147523000Y-86418000D02*
X149338000Y-86418000D01*
X151117000Y-88197000D02*
X151150000Y-88197000D01*
X149338000Y-86418000D02*
X151117000Y-88197000D01*
X147523000Y-86418000D02*
X147759000Y-86418000D01*
X162550000Y-86425000D02*
X162470000Y-86425000D01*
D18*
X162550000Y-86425000D02*
X162550000Y-89931000D01*
D20*
X166718000Y-103642000D02*
X167171000Y-104095000D01*
X143528000Y-103678000D02*
X143111000Y-104095000D01*
X147523000Y-89966000D02*
X147523000Y-90578000D01*
X162560000Y-89941000D02*
X162560000Y-90451000D01*
X162501000Y-89882000D02*
X162560000Y-89941000D01*
D21*
X162550000Y-89931000D02*
X162560000Y-89941000D01*
D18*
X147523000Y-86418000D02*
X147523000Y-89966000D01*
D21*
X147523000Y-89966000D02*
X147579000Y-90022000D01*
M02*
