G04 #@! TF.FileFunction,Copper,L2,Bot,Signal*
%FSLAX46Y46*%
G04 Gerber Fmt 4.6, Leading zero omitted, Abs format (unit mm)*
G04 Created by KiCad (PCBNEW 4.0.7) date 08/06/20 13:21:24*
%MOMM*%
%LPD*%
G01*
G04 APERTURE LIST*
%ADD10C,0.100000*%
%ADD11C,1.422400*%
%ADD12C,1.700000*%
%ADD13O,1.700000X1.700000*%
%ADD14C,0.400000*%
%ADD15C,0.800000*%
%ADD16C,0.200000*%
G04 APERTURE END LIST*
D10*
X110650000Y-128175000D02*
X130875000Y-128175000D01*
X158175000Y-98250000D02*
X158175000Y-98275000D01*
X156850000Y-96925000D02*
X158175000Y-98250000D01*
X110900000Y-96925000D02*
X156850000Y-96925000D01*
X109332000Y-126860000D02*
X109332000Y-98475000D01*
X132200000Y-120725000D02*
X132200000Y-126853000D01*
X133496000Y-119442000D02*
X132201000Y-120737000D01*
X158176000Y-118118000D02*
X156842000Y-119452000D01*
X158176000Y-98247000D02*
X158176000Y-118118000D01*
X109354000Y-98465000D02*
X110893000Y-96926000D01*
X133500000Y-119452000D02*
X156827000Y-119452000D01*
X117180000Y-113675000D02*
X117180000Y-113645000D01*
X124244000Y-113675000D02*
X117180000Y-113675000D01*
X125555000Y-112365000D02*
X125532000Y-112365000D01*
X125555000Y-105156000D02*
X125555000Y-112365000D01*
X115854000Y-112359000D02*
X115854000Y-105151000D01*
X117165000Y-103823000D02*
X124236000Y-103823000D01*
X109333000Y-126851000D02*
X110643000Y-128161000D01*
X115860000Y-112359000D02*
X117170000Y-113669000D01*
X124252000Y-103845000D02*
X125562000Y-105155000D01*
X132198000Y-126850000D02*
X130903000Y-128145000D01*
X125545000Y-112379000D02*
X124250000Y-113674000D01*
X117158000Y-103830000D02*
X115863000Y-105125000D01*
D11*
X114300000Y-110033000D03*
X114300000Y-107493000D03*
X114300000Y-104953000D03*
X114300000Y-112573000D03*
X114300000Y-115113000D03*
X111760000Y-107493000D03*
X111760000Y-104953000D03*
X111760000Y-102413000D03*
X111760000Y-110033000D03*
X111760000Y-112573000D03*
X114300000Y-102413000D03*
X116840000Y-102413000D03*
X119380000Y-102413000D03*
X121920000Y-102413000D03*
X124460000Y-102413000D03*
X114300000Y-99873000D03*
X116840000Y-99873000D03*
X119380000Y-99873000D03*
X121920000Y-99873000D03*
X124460000Y-99873000D03*
X127000000Y-99873000D03*
X127000000Y-102413000D03*
X127000000Y-104953000D03*
X127000000Y-107493000D03*
X127000000Y-110033000D03*
X127000000Y-112573000D03*
X127000000Y-117653000D03*
X129540000Y-102413000D03*
X129540000Y-104953000D03*
X129540000Y-107493000D03*
X129540000Y-110033000D03*
X129540000Y-112573000D03*
X129540000Y-115113000D03*
X127000000Y-115113000D03*
X124460000Y-115113000D03*
X121920000Y-115113000D03*
X119380000Y-115113000D03*
X116840000Y-115113000D03*
X111760000Y-115113000D03*
X124460000Y-117653000D03*
X121920000Y-117653000D03*
X119380000Y-117653000D03*
X116840000Y-117653000D03*
X114300000Y-117653000D03*
D12*
X156416000Y-99832000D03*
X156416000Y-102372000D03*
X156416000Y-104912000D03*
X156416000Y-107452000D03*
X156416000Y-109992000D03*
X156416000Y-112532000D03*
X156416000Y-115072000D03*
X156416000Y-117612000D03*
X133556000Y-117612000D03*
X133556000Y-115072000D03*
X133556000Y-112532000D03*
X133556000Y-109992000D03*
X133556000Y-107452000D03*
X133556000Y-104912000D03*
X133556000Y-102372000D03*
X133556000Y-99832000D03*
X113304000Y-126451000D03*
D13*
X115844000Y-126451000D03*
X118384000Y-126451000D03*
X120924000Y-126451000D03*
D12*
X128565000Y-126424000D03*
D13*
X128565000Y-123884000D03*
X128565000Y-121344000D03*
D14*
X120924000Y-126594000D02*
X120924000Y-121226000D01*
X123150000Y-116423000D02*
X124460000Y-115113000D01*
X123150000Y-119000000D02*
X123150000Y-116423000D01*
X120924000Y-121226000D02*
X123150000Y-119000000D01*
D15*
X115844000Y-126594000D02*
X115844000Y-122344000D01*
X114300000Y-120800000D02*
X114300000Y-117653000D01*
X115844000Y-122344000D02*
X114300000Y-120800000D01*
D14*
X131402000Y-117146000D02*
X131399000Y-117146000D01*
X130561000Y-117984000D02*
X130561000Y-124611000D01*
X131399000Y-117146000D02*
X130561000Y-117984000D01*
X130561000Y-124611000D02*
X128565000Y-126607000D01*
X131402000Y-108966000D02*
X131402000Y-117146000D01*
X132875000Y-107493000D02*
X131402000Y-108966000D01*
X133719000Y-107493000D02*
X132875000Y-107493000D01*
D16*
G36*
X157726000Y-98437396D02*
X157726000Y-117931604D01*
X157573407Y-118084197D01*
X157665783Y-117861731D01*
X157666217Y-117364450D01*
X157476316Y-116904857D01*
X157124993Y-116552919D01*
X156665731Y-116362217D01*
X156168450Y-116361783D01*
X155708857Y-116551684D01*
X155356919Y-116903007D01*
X155166217Y-117362269D01*
X155165783Y-117859550D01*
X155355684Y-118319143D01*
X155707007Y-118671081D01*
X156166269Y-118861783D01*
X156663550Y-118862217D01*
X156888219Y-118769385D01*
X156655604Y-119002000D01*
X133546275Y-119002000D01*
X133496000Y-118992000D01*
X133323793Y-119026253D01*
X133177802Y-119123802D01*
X131920980Y-120380624D01*
X131881802Y-120406802D01*
X131784254Y-120552792D01*
X131750000Y-120725000D01*
X131750000Y-126661604D01*
X130686604Y-127725000D01*
X120926458Y-127725000D01*
X121402354Y-127630338D01*
X121807883Y-127359372D01*
X122078849Y-126953843D01*
X122135000Y-126671550D01*
X127314783Y-126671550D01*
X127504684Y-127131143D01*
X127856007Y-127483081D01*
X128315269Y-127673783D01*
X128812550Y-127674217D01*
X129272143Y-127484316D01*
X129624081Y-127132993D01*
X129814783Y-126673731D01*
X129815192Y-126205336D01*
X130985264Y-125035264D01*
X131115328Y-124840610D01*
X131161000Y-124611000D01*
X131161000Y-118232528D01*
X131533978Y-117859550D01*
X132305783Y-117859550D01*
X132495684Y-118319143D01*
X132847007Y-118671081D01*
X133306269Y-118861783D01*
X133803550Y-118862217D01*
X134263143Y-118672316D01*
X134615081Y-118320993D01*
X134805783Y-117861731D01*
X134806217Y-117364450D01*
X134616316Y-116904857D01*
X134264993Y-116552919D01*
X133805731Y-116362217D01*
X133308450Y-116361783D01*
X132848857Y-116551684D01*
X132496919Y-116903007D01*
X132306217Y-117362269D01*
X132305783Y-117859550D01*
X131533978Y-117859550D01*
X131817223Y-117576305D01*
X131826264Y-117570264D01*
X131956328Y-117375610D01*
X132002000Y-117146000D01*
X132002000Y-115319550D01*
X132305783Y-115319550D01*
X132495684Y-115779143D01*
X132847007Y-116131081D01*
X133306269Y-116321783D01*
X133803550Y-116322217D01*
X134263143Y-116132316D01*
X134377890Y-116017769D01*
X155859140Y-116017769D01*
X155968507Y-116155778D01*
X156417315Y-116244529D01*
X156863493Y-116155778D01*
X156972860Y-116017769D01*
X156416000Y-115460909D01*
X155859140Y-116017769D01*
X134377890Y-116017769D01*
X134615081Y-115780993D01*
X134805783Y-115321731D01*
X134805999Y-115073315D01*
X155243471Y-115073315D01*
X155332222Y-115519493D01*
X155470231Y-115628860D01*
X156027091Y-115072000D01*
X156804909Y-115072000D01*
X157361769Y-115628860D01*
X157499778Y-115519493D01*
X157588529Y-115070685D01*
X157499778Y-114624507D01*
X157361769Y-114515140D01*
X156804909Y-115072000D01*
X156027091Y-115072000D01*
X155470231Y-114515140D01*
X155332222Y-114624507D01*
X155243471Y-115073315D01*
X134805999Y-115073315D01*
X134806217Y-114824450D01*
X134616316Y-114364857D01*
X134378107Y-114126231D01*
X155859140Y-114126231D01*
X156416000Y-114683091D01*
X156972860Y-114126231D01*
X156863493Y-113988222D01*
X156414685Y-113899471D01*
X155968507Y-113988222D01*
X155859140Y-114126231D01*
X134378107Y-114126231D01*
X134264993Y-114012919D01*
X133805731Y-113822217D01*
X133308450Y-113821783D01*
X132848857Y-114011684D01*
X132496919Y-114363007D01*
X132306217Y-114822269D01*
X132305783Y-115319550D01*
X132002000Y-115319550D01*
X132002000Y-112779550D01*
X132305783Y-112779550D01*
X132495684Y-113239143D01*
X132847007Y-113591081D01*
X133306269Y-113781783D01*
X133803550Y-113782217D01*
X134263143Y-113592316D01*
X134615081Y-113240993D01*
X134805783Y-112781731D01*
X134805784Y-112779550D01*
X155165783Y-112779550D01*
X155355684Y-113239143D01*
X155707007Y-113591081D01*
X156166269Y-113781783D01*
X156663550Y-113782217D01*
X157123143Y-113592316D01*
X157475081Y-113240993D01*
X157665783Y-112781731D01*
X157666217Y-112284450D01*
X157476316Y-111824857D01*
X157124993Y-111472919D01*
X156665731Y-111282217D01*
X156168450Y-111281783D01*
X155708857Y-111471684D01*
X155356919Y-111823007D01*
X155166217Y-112282269D01*
X155165783Y-112779550D01*
X134805784Y-112779550D01*
X134806217Y-112284450D01*
X134616316Y-111824857D01*
X134264993Y-111472919D01*
X133805731Y-111282217D01*
X133308450Y-111281783D01*
X132848857Y-111471684D01*
X132496919Y-111823007D01*
X132306217Y-112282269D01*
X132305783Y-112779550D01*
X132002000Y-112779550D01*
X132002000Y-110239550D01*
X132305783Y-110239550D01*
X132495684Y-110699143D01*
X132847007Y-111051081D01*
X133306269Y-111241783D01*
X133803550Y-111242217D01*
X134263143Y-111052316D01*
X134615081Y-110700993D01*
X134805783Y-110241731D01*
X134805784Y-110239550D01*
X155165783Y-110239550D01*
X155355684Y-110699143D01*
X155707007Y-111051081D01*
X156166269Y-111241783D01*
X156663550Y-111242217D01*
X157123143Y-111052316D01*
X157475081Y-110700993D01*
X157665783Y-110241731D01*
X157666217Y-109744450D01*
X157476316Y-109284857D01*
X157124993Y-108932919D01*
X156665731Y-108742217D01*
X156168450Y-108741783D01*
X155708857Y-108931684D01*
X155356919Y-109283007D01*
X155166217Y-109742269D01*
X155165783Y-110239550D01*
X134805784Y-110239550D01*
X134806217Y-109744450D01*
X134616316Y-109284857D01*
X134264993Y-108932919D01*
X133805731Y-108742217D01*
X133308450Y-108741783D01*
X132848857Y-108931684D01*
X132496919Y-109283007D01*
X132306217Y-109742269D01*
X132305783Y-110239550D01*
X132002000Y-110239550D01*
X132002000Y-109214528D01*
X132776289Y-108440239D01*
X132847007Y-108511081D01*
X133306269Y-108701783D01*
X133803550Y-108702217D01*
X134263143Y-108512316D01*
X134615081Y-108160993D01*
X134805783Y-107701731D01*
X134805784Y-107699550D01*
X155165783Y-107699550D01*
X155355684Y-108159143D01*
X155707007Y-108511081D01*
X156166269Y-108701783D01*
X156663550Y-108702217D01*
X157123143Y-108512316D01*
X157475081Y-108160993D01*
X157665783Y-107701731D01*
X157666217Y-107204450D01*
X157476316Y-106744857D01*
X157124993Y-106392919D01*
X156665731Y-106202217D01*
X156168450Y-106201783D01*
X155708857Y-106391684D01*
X155356919Y-106743007D01*
X155166217Y-107202269D01*
X155165783Y-107699550D01*
X134805784Y-107699550D01*
X134806217Y-107204450D01*
X134616316Y-106744857D01*
X134264993Y-106392919D01*
X133805731Y-106202217D01*
X133308450Y-106201783D01*
X132848857Y-106391684D01*
X132496919Y-106743007D01*
X132306217Y-107202269D01*
X132306207Y-107213265D01*
X130977736Y-108541736D01*
X130847672Y-108736390D01*
X130802000Y-108966000D01*
X130802000Y-116894472D01*
X130136736Y-117559736D01*
X130006672Y-117754390D01*
X129961000Y-117984000D01*
X129961000Y-124362472D01*
X129051104Y-125272368D01*
X128814731Y-125174217D01*
X128317450Y-125173783D01*
X127857857Y-125363684D01*
X127505919Y-125715007D01*
X127315217Y-126174269D01*
X127314783Y-126671550D01*
X122135000Y-126671550D01*
X122174000Y-126475489D01*
X122174000Y-126426511D01*
X122078849Y-125948157D01*
X121807883Y-125542628D01*
X121524000Y-125352943D01*
X121524000Y-124330295D01*
X127505131Y-124330295D01*
X127747069Y-124692425D01*
X128118701Y-124943896D01*
X128290000Y-124925663D01*
X128290000Y-124159000D01*
X128840000Y-124159000D01*
X128840000Y-124925663D01*
X129011299Y-124943896D01*
X129382931Y-124692425D01*
X129624869Y-124330295D01*
X129604230Y-124159000D01*
X128840000Y-124159000D01*
X128290000Y-124159000D01*
X127525770Y-124159000D01*
X127505131Y-124330295D01*
X121524000Y-124330295D01*
X121524000Y-123437705D01*
X127505131Y-123437705D01*
X127525770Y-123609000D01*
X128290000Y-123609000D01*
X128290000Y-122842337D01*
X128840000Y-122842337D01*
X128840000Y-123609000D01*
X129604230Y-123609000D01*
X129624869Y-123437705D01*
X129382931Y-123075575D01*
X129011299Y-122824104D01*
X128840000Y-122842337D01*
X128290000Y-122842337D01*
X128118701Y-122824104D01*
X127747069Y-123075575D01*
X127505131Y-123437705D01*
X121524000Y-123437705D01*
X121524000Y-121474528D01*
X121654528Y-121344000D01*
X127290511Y-121344000D01*
X127385662Y-121822354D01*
X127656628Y-122227883D01*
X128062157Y-122498849D01*
X128540511Y-122594000D01*
X128589489Y-122594000D01*
X129067843Y-122498849D01*
X129473372Y-122227883D01*
X129744338Y-121822354D01*
X129839489Y-121344000D01*
X129744338Y-120865646D01*
X129473372Y-120460117D01*
X129067843Y-120189151D01*
X128589489Y-120094000D01*
X128540511Y-120094000D01*
X128062157Y-120189151D01*
X127656628Y-120460117D01*
X127385662Y-120865646D01*
X127290511Y-121344000D01*
X121654528Y-121344000D01*
X123574264Y-119424264D01*
X123704328Y-119229611D01*
X123750000Y-119000000D01*
X123750000Y-118514607D01*
X123829734Y-118594480D01*
X124237999Y-118764007D01*
X124680062Y-118764393D01*
X125088622Y-118595579D01*
X125401480Y-118283266D01*
X125571007Y-117875001D01*
X125571008Y-117873062D01*
X125888607Y-117873062D01*
X126057421Y-118281622D01*
X126369734Y-118594480D01*
X126777999Y-118764007D01*
X127220062Y-118764393D01*
X127628622Y-118595579D01*
X127941480Y-118283266D01*
X128111007Y-117875001D01*
X128111393Y-117432938D01*
X127942579Y-117024378D01*
X127630266Y-116711520D01*
X127222001Y-116541993D01*
X126779938Y-116541607D01*
X126371378Y-116710421D01*
X126058520Y-117022734D01*
X125888993Y-117430999D01*
X125888607Y-117873062D01*
X125571008Y-117873062D01*
X125571393Y-117432938D01*
X125402579Y-117024378D01*
X125090266Y-116711520D01*
X124682001Y-116541993D01*
X124239938Y-116541607D01*
X123831378Y-116710421D01*
X123750000Y-116791657D01*
X123750000Y-116671528D01*
X124209397Y-116212131D01*
X124237999Y-116224007D01*
X124680062Y-116224393D01*
X125088622Y-116055579D01*
X125401480Y-115743266D01*
X125571007Y-115335001D01*
X125571008Y-115333062D01*
X125888607Y-115333062D01*
X126057421Y-115741622D01*
X126369734Y-116054480D01*
X126777999Y-116224007D01*
X127220062Y-116224393D01*
X127628622Y-116055579D01*
X127941480Y-115743266D01*
X128111007Y-115335001D01*
X128111008Y-115333062D01*
X128428607Y-115333062D01*
X128597421Y-115741622D01*
X128909734Y-116054480D01*
X129317999Y-116224007D01*
X129760062Y-116224393D01*
X130168622Y-116055579D01*
X130481480Y-115743266D01*
X130651007Y-115335001D01*
X130651393Y-114892938D01*
X130482579Y-114484378D01*
X130170266Y-114171520D01*
X129762001Y-114001993D01*
X129319938Y-114001607D01*
X128911378Y-114170421D01*
X128598520Y-114482734D01*
X128428993Y-114890999D01*
X128428607Y-115333062D01*
X128111008Y-115333062D01*
X128111393Y-114892938D01*
X127942579Y-114484378D01*
X127630266Y-114171520D01*
X127222001Y-114001993D01*
X126779938Y-114001607D01*
X126371378Y-114170421D01*
X126058520Y-114482734D01*
X125888993Y-114890999D01*
X125888607Y-115333062D01*
X125571008Y-115333062D01*
X125571393Y-114892938D01*
X125402579Y-114484378D01*
X125090266Y-114171520D01*
X124682001Y-114001993D01*
X124553706Y-114001881D01*
X124568198Y-113992198D01*
X125863198Y-112697198D01*
X125872032Y-112683977D01*
X125873198Y-112683198D01*
X125888723Y-112659963D01*
X125888607Y-112793062D01*
X126057421Y-113201622D01*
X126369734Y-113514480D01*
X126777999Y-113684007D01*
X127220062Y-113684393D01*
X127628622Y-113515579D01*
X127941480Y-113203266D01*
X128111007Y-112795001D01*
X128111008Y-112793062D01*
X128428607Y-112793062D01*
X128597421Y-113201622D01*
X128909734Y-113514480D01*
X129317999Y-113684007D01*
X129760062Y-113684393D01*
X130168622Y-113515579D01*
X130481480Y-113203266D01*
X130651007Y-112795001D01*
X130651393Y-112352938D01*
X130482579Y-111944378D01*
X130170266Y-111631520D01*
X129762001Y-111461993D01*
X129319938Y-111461607D01*
X128911378Y-111630421D01*
X128598520Y-111942734D01*
X128428993Y-112350999D01*
X128428607Y-112793062D01*
X128111008Y-112793062D01*
X128111393Y-112352938D01*
X127942579Y-111944378D01*
X127630266Y-111631520D01*
X127222001Y-111461993D01*
X126779938Y-111461607D01*
X126371378Y-111630421D01*
X126058520Y-111942734D01*
X126005000Y-112071624D01*
X126005000Y-110534754D01*
X126057421Y-110661622D01*
X126369734Y-110974480D01*
X126777999Y-111144007D01*
X127220062Y-111144393D01*
X127628622Y-110975579D01*
X127941480Y-110663266D01*
X128111007Y-110255001D01*
X128111008Y-110253062D01*
X128428607Y-110253062D01*
X128597421Y-110661622D01*
X128909734Y-110974480D01*
X129317999Y-111144007D01*
X129760062Y-111144393D01*
X130168622Y-110975579D01*
X130481480Y-110663266D01*
X130651007Y-110255001D01*
X130651393Y-109812938D01*
X130482579Y-109404378D01*
X130170266Y-109091520D01*
X129762001Y-108921993D01*
X129319938Y-108921607D01*
X128911378Y-109090421D01*
X128598520Y-109402734D01*
X128428993Y-109810999D01*
X128428607Y-110253062D01*
X128111008Y-110253062D01*
X128111393Y-109812938D01*
X127942579Y-109404378D01*
X127630266Y-109091520D01*
X127222001Y-108921993D01*
X126779938Y-108921607D01*
X126371378Y-109090421D01*
X126058520Y-109402734D01*
X126005000Y-109531624D01*
X126005000Y-107994754D01*
X126057421Y-108121622D01*
X126369734Y-108434480D01*
X126777999Y-108604007D01*
X127220062Y-108604393D01*
X127628622Y-108435579D01*
X127941480Y-108123266D01*
X128111007Y-107715001D01*
X128111008Y-107713062D01*
X128428607Y-107713062D01*
X128597421Y-108121622D01*
X128909734Y-108434480D01*
X129317999Y-108604007D01*
X129760062Y-108604393D01*
X130168622Y-108435579D01*
X130481480Y-108123266D01*
X130651007Y-107715001D01*
X130651393Y-107272938D01*
X130482579Y-106864378D01*
X130170266Y-106551520D01*
X129762001Y-106381993D01*
X129319938Y-106381607D01*
X128911378Y-106550421D01*
X128598520Y-106862734D01*
X128428993Y-107270999D01*
X128428607Y-107713062D01*
X128111008Y-107713062D01*
X128111393Y-107272938D01*
X127942579Y-106864378D01*
X127630266Y-106551520D01*
X127222001Y-106381993D01*
X126779938Y-106381607D01*
X126371378Y-106550421D01*
X126058520Y-106862734D01*
X126005000Y-106991624D01*
X126005000Y-105454754D01*
X126057421Y-105581622D01*
X126369734Y-105894480D01*
X126777999Y-106064007D01*
X127220062Y-106064393D01*
X127628622Y-105895579D01*
X127729491Y-105794885D01*
X129087024Y-105794885D01*
X129178422Y-105918528D01*
X129575437Y-105983402D01*
X129901578Y-105918528D01*
X129992976Y-105794885D01*
X129540000Y-105341909D01*
X129087024Y-105794885D01*
X127729491Y-105794885D01*
X127941480Y-105583266D01*
X128111007Y-105175001D01*
X128111169Y-104988437D01*
X128509598Y-104988437D01*
X128574472Y-105314578D01*
X128698115Y-105405976D01*
X129151091Y-104953000D01*
X129928909Y-104953000D01*
X130381885Y-105405976D01*
X130505528Y-105314578D01*
X130530860Y-105159550D01*
X132305783Y-105159550D01*
X132495684Y-105619143D01*
X132847007Y-105971081D01*
X133306269Y-106161783D01*
X133803550Y-106162217D01*
X134263143Y-105972316D01*
X134615081Y-105620993D01*
X134805783Y-105161731D01*
X134805784Y-105159550D01*
X155165783Y-105159550D01*
X155355684Y-105619143D01*
X155707007Y-105971081D01*
X156166269Y-106161783D01*
X156663550Y-106162217D01*
X157123143Y-105972316D01*
X157475081Y-105620993D01*
X157665783Y-105161731D01*
X157666217Y-104664450D01*
X157476316Y-104204857D01*
X157124993Y-103852919D01*
X156665731Y-103662217D01*
X156168450Y-103661783D01*
X155708857Y-103851684D01*
X155356919Y-104203007D01*
X155166217Y-104662269D01*
X155165783Y-105159550D01*
X134805784Y-105159550D01*
X134806217Y-104664450D01*
X134616316Y-104204857D01*
X134264993Y-103852919D01*
X133805731Y-103662217D01*
X133308450Y-103661783D01*
X132848857Y-103851684D01*
X132496919Y-104203007D01*
X132306217Y-104662269D01*
X132305783Y-105159550D01*
X130530860Y-105159550D01*
X130570402Y-104917563D01*
X130505528Y-104591422D01*
X130381885Y-104500024D01*
X129928909Y-104953000D01*
X129151091Y-104953000D01*
X128698115Y-104500024D01*
X128574472Y-104591422D01*
X128509598Y-104988437D01*
X128111169Y-104988437D01*
X128111393Y-104732938D01*
X127942579Y-104324378D01*
X127729688Y-104111115D01*
X129087024Y-104111115D01*
X129540000Y-104564091D01*
X129992976Y-104111115D01*
X129901578Y-103987472D01*
X129504563Y-103922598D01*
X129178422Y-103987472D01*
X129087024Y-104111115D01*
X127729688Y-104111115D01*
X127630266Y-104011520D01*
X127222001Y-103841993D01*
X126779938Y-103841607D01*
X126371378Y-104010421D01*
X126058520Y-104322734D01*
X125888993Y-104730999D01*
X125888889Y-104849809D01*
X125880198Y-104836802D01*
X124570198Y-103526802D01*
X124567849Y-103525233D01*
X124567223Y-103524294D01*
X124680062Y-103524393D01*
X125088622Y-103355579D01*
X125401480Y-103043266D01*
X125571007Y-102635001D01*
X125571008Y-102633062D01*
X125888607Y-102633062D01*
X126057421Y-103041622D01*
X126369734Y-103354480D01*
X126777999Y-103524007D01*
X127220062Y-103524393D01*
X127628622Y-103355579D01*
X127941480Y-103043266D01*
X128111007Y-102635001D01*
X128111008Y-102633062D01*
X128428607Y-102633062D01*
X128597421Y-103041622D01*
X128909734Y-103354480D01*
X129317999Y-103524007D01*
X129760062Y-103524393D01*
X130168622Y-103355579D01*
X130481480Y-103043266D01*
X130651007Y-102635001D01*
X130651020Y-102619550D01*
X132305783Y-102619550D01*
X132495684Y-103079143D01*
X132847007Y-103431081D01*
X133306269Y-103621783D01*
X133803550Y-103622217D01*
X134263143Y-103432316D01*
X134615081Y-103080993D01*
X134805783Y-102621731D01*
X134805784Y-102619550D01*
X155165783Y-102619550D01*
X155355684Y-103079143D01*
X155707007Y-103431081D01*
X156166269Y-103621783D01*
X156663550Y-103622217D01*
X157123143Y-103432316D01*
X157475081Y-103080993D01*
X157665783Y-102621731D01*
X157666217Y-102124450D01*
X157476316Y-101664857D01*
X157124993Y-101312919D01*
X156665731Y-101122217D01*
X156168450Y-101121783D01*
X155708857Y-101311684D01*
X155356919Y-101663007D01*
X155166217Y-102122269D01*
X155165783Y-102619550D01*
X134805784Y-102619550D01*
X134806217Y-102124450D01*
X134616316Y-101664857D01*
X134264993Y-101312919D01*
X133805731Y-101122217D01*
X133308450Y-101121783D01*
X132848857Y-101311684D01*
X132496919Y-101663007D01*
X132306217Y-102122269D01*
X132305783Y-102619550D01*
X130651020Y-102619550D01*
X130651393Y-102192938D01*
X130482579Y-101784378D01*
X130170266Y-101471520D01*
X129762001Y-101301993D01*
X129319938Y-101301607D01*
X128911378Y-101470421D01*
X128598520Y-101782734D01*
X128428993Y-102190999D01*
X128428607Y-102633062D01*
X128111008Y-102633062D01*
X128111393Y-102192938D01*
X127942579Y-101784378D01*
X127630266Y-101471520D01*
X127222001Y-101301993D01*
X126779938Y-101301607D01*
X126371378Y-101470421D01*
X126058520Y-101782734D01*
X125888993Y-102190999D01*
X125888607Y-102633062D01*
X125571008Y-102633062D01*
X125571393Y-102192938D01*
X125402579Y-101784378D01*
X125090266Y-101471520D01*
X124682001Y-101301993D01*
X124239938Y-101301607D01*
X123831378Y-101470421D01*
X123518520Y-101782734D01*
X123348993Y-102190999D01*
X123348607Y-102633062D01*
X123517421Y-103041622D01*
X123829734Y-103354480D01*
X123874335Y-103373000D01*
X122506460Y-103373000D01*
X122548622Y-103355579D01*
X122861480Y-103043266D01*
X123031007Y-102635001D01*
X123031393Y-102192938D01*
X122862579Y-101784378D01*
X122550266Y-101471520D01*
X122142001Y-101301993D01*
X121699938Y-101301607D01*
X121291378Y-101470421D01*
X120978520Y-101782734D01*
X120808993Y-102190999D01*
X120808607Y-102633062D01*
X120977421Y-103041622D01*
X121289734Y-103354480D01*
X121334335Y-103373000D01*
X119966460Y-103373000D01*
X120008622Y-103355579D01*
X120321480Y-103043266D01*
X120491007Y-102635001D01*
X120491393Y-102192938D01*
X120322579Y-101784378D01*
X120010266Y-101471520D01*
X119602001Y-101301993D01*
X119159938Y-101301607D01*
X118751378Y-101470421D01*
X118438520Y-101782734D01*
X118268993Y-102190999D01*
X118268607Y-102633062D01*
X118437421Y-103041622D01*
X118749734Y-103354480D01*
X118794335Y-103373000D01*
X117426460Y-103373000D01*
X117468622Y-103355579D01*
X117781480Y-103043266D01*
X117951007Y-102635001D01*
X117951393Y-102192938D01*
X117782579Y-101784378D01*
X117470266Y-101471520D01*
X117062001Y-101301993D01*
X116619938Y-101301607D01*
X116211378Y-101470421D01*
X115898520Y-101782734D01*
X115728993Y-102190999D01*
X115728607Y-102633062D01*
X115897421Y-103041622D01*
X116209734Y-103354480D01*
X116617999Y-103524007D01*
X116827414Y-103524190D01*
X115544802Y-104806802D01*
X115447254Y-104952793D01*
X115443705Y-104970634D01*
X115438254Y-104978792D01*
X115411059Y-105115512D01*
X115411393Y-104732938D01*
X115242579Y-104324378D01*
X114930266Y-104011520D01*
X114522001Y-103841993D01*
X114079938Y-103841607D01*
X113671378Y-104010421D01*
X113358520Y-104322734D01*
X113188993Y-104730999D01*
X113188607Y-105173062D01*
X113357421Y-105581622D01*
X113669734Y-105894480D01*
X114077999Y-106064007D01*
X114520062Y-106064393D01*
X114928622Y-105895579D01*
X115241480Y-105583266D01*
X115404000Y-105191876D01*
X115404000Y-107255046D01*
X115242579Y-106864378D01*
X114930266Y-106551520D01*
X114522001Y-106381993D01*
X114079938Y-106381607D01*
X113671378Y-106550421D01*
X113358520Y-106862734D01*
X113188993Y-107270999D01*
X113188607Y-107713062D01*
X113357421Y-108121622D01*
X113669734Y-108434480D01*
X114077999Y-108604007D01*
X114520062Y-108604393D01*
X114928622Y-108435579D01*
X115241480Y-108123266D01*
X115404000Y-107731876D01*
X115404000Y-109795046D01*
X115242579Y-109404378D01*
X114930266Y-109091520D01*
X114522001Y-108921993D01*
X114079938Y-108921607D01*
X113671378Y-109090421D01*
X113358520Y-109402734D01*
X113188993Y-109810999D01*
X113188607Y-110253062D01*
X113357421Y-110661622D01*
X113669734Y-110974480D01*
X114077999Y-111144007D01*
X114520062Y-111144393D01*
X114928622Y-110975579D01*
X115241480Y-110663266D01*
X115404000Y-110271876D01*
X115404000Y-112335046D01*
X115242579Y-111944378D01*
X114930266Y-111631520D01*
X114522001Y-111461993D01*
X114079938Y-111461607D01*
X113671378Y-111630421D01*
X113358520Y-111942734D01*
X113188993Y-112350999D01*
X113188607Y-112793062D01*
X113357421Y-113201622D01*
X113669734Y-113514480D01*
X114077999Y-113684007D01*
X114520062Y-113684393D01*
X114928622Y-113515579D01*
X115241480Y-113203266D01*
X115411007Y-112795001D01*
X115411355Y-112395979D01*
X115438254Y-112531208D01*
X115535802Y-112677198D01*
X115553884Y-112689280D01*
X116851802Y-113987198D01*
X116873698Y-114001829D01*
X116619938Y-114001607D01*
X116211378Y-114170421D01*
X115898520Y-114482734D01*
X115728993Y-114890999D01*
X115728607Y-115333062D01*
X115897421Y-115741622D01*
X116209734Y-116054480D01*
X116617999Y-116224007D01*
X117060062Y-116224393D01*
X117468622Y-116055579D01*
X117781480Y-115743266D01*
X117951007Y-115335001D01*
X117951393Y-114892938D01*
X117782579Y-114484378D01*
X117470266Y-114171520D01*
X117358234Y-114125000D01*
X118861305Y-114125000D01*
X118751378Y-114170421D01*
X118438520Y-114482734D01*
X118268993Y-114890999D01*
X118268607Y-115333062D01*
X118437421Y-115741622D01*
X118749734Y-116054480D01*
X119157999Y-116224007D01*
X119600062Y-116224393D01*
X120008622Y-116055579D01*
X120321480Y-115743266D01*
X120491007Y-115335001D01*
X120491393Y-114892938D01*
X120322579Y-114484378D01*
X120010266Y-114171520D01*
X119898234Y-114125000D01*
X121401305Y-114125000D01*
X121291378Y-114170421D01*
X120978520Y-114482734D01*
X120808993Y-114890999D01*
X120808607Y-115333062D01*
X120977421Y-115741622D01*
X121289734Y-116054480D01*
X121697999Y-116224007D01*
X122140062Y-116224393D01*
X122548622Y-116055579D01*
X122861480Y-115743266D01*
X123031007Y-115335001D01*
X123031393Y-114892938D01*
X122862579Y-114484378D01*
X122550266Y-114171520D01*
X122438234Y-114125000D01*
X123941305Y-114125000D01*
X123831378Y-114170421D01*
X123518520Y-114482734D01*
X123348993Y-114890999D01*
X123348607Y-115333062D01*
X123361122Y-115363350D01*
X122725736Y-115998736D01*
X122595672Y-116193390D01*
X122550000Y-116423000D01*
X122550000Y-116711410D01*
X122142001Y-116541993D01*
X121699938Y-116541607D01*
X121291378Y-116710421D01*
X120978520Y-117022734D01*
X120808993Y-117430999D01*
X120808607Y-117873062D01*
X120977421Y-118281622D01*
X121289734Y-118594480D01*
X121697999Y-118764007D01*
X122140062Y-118764393D01*
X122548622Y-118595579D01*
X122550000Y-118594203D01*
X122550000Y-118751472D01*
X120499736Y-120801736D01*
X120369672Y-120996390D01*
X120324000Y-121226000D01*
X120324000Y-125352943D01*
X120040117Y-125542628D01*
X119769151Y-125948157D01*
X119674000Y-126426511D01*
X119674000Y-126475489D01*
X119769151Y-126953843D01*
X120040117Y-127359372D01*
X120445646Y-127630338D01*
X120921542Y-127725000D01*
X115846458Y-127725000D01*
X116322354Y-127630338D01*
X116727883Y-127359372D01*
X116998849Y-126953843D01*
X117010096Y-126897299D01*
X117324104Y-126897299D01*
X117575575Y-127268931D01*
X117937705Y-127510869D01*
X118109000Y-127490230D01*
X118109000Y-126726000D01*
X118659000Y-126726000D01*
X118659000Y-127490230D01*
X118830295Y-127510869D01*
X119192425Y-127268931D01*
X119443896Y-126897299D01*
X119425663Y-126726000D01*
X118659000Y-126726000D01*
X118109000Y-126726000D01*
X117342337Y-126726000D01*
X117324104Y-126897299D01*
X117010096Y-126897299D01*
X117094000Y-126475489D01*
X117094000Y-126426511D01*
X117010097Y-126004701D01*
X117324104Y-126004701D01*
X117342337Y-126176000D01*
X118109000Y-126176000D01*
X118109000Y-125411770D01*
X118659000Y-125411770D01*
X118659000Y-126176000D01*
X119425663Y-126176000D01*
X119443896Y-126004701D01*
X119192425Y-125633069D01*
X118830295Y-125391131D01*
X118659000Y-125411770D01*
X118109000Y-125411770D01*
X117937705Y-125391131D01*
X117575575Y-125633069D01*
X117324104Y-126004701D01*
X117010097Y-126004701D01*
X116998849Y-125948157D01*
X116727883Y-125542628D01*
X116644000Y-125486579D01*
X116644000Y-122344000D01*
X116583104Y-122037853D01*
X116409686Y-121778315D01*
X115100000Y-120468630D01*
X115100000Y-118494885D01*
X116387024Y-118494885D01*
X116478422Y-118618528D01*
X116875437Y-118683402D01*
X117201578Y-118618528D01*
X117292976Y-118494885D01*
X116840000Y-118041909D01*
X116387024Y-118494885D01*
X115100000Y-118494885D01*
X115100000Y-118424500D01*
X115241480Y-118283266D01*
X115411007Y-117875001D01*
X115411169Y-117688437D01*
X115809598Y-117688437D01*
X115874472Y-118014578D01*
X115998115Y-118105976D01*
X116451091Y-117653000D01*
X117228909Y-117653000D01*
X117681885Y-118105976D01*
X117805528Y-118014578D01*
X117828652Y-117873062D01*
X118268607Y-117873062D01*
X118437421Y-118281622D01*
X118749734Y-118594480D01*
X119157999Y-118764007D01*
X119600062Y-118764393D01*
X120008622Y-118595579D01*
X120321480Y-118283266D01*
X120491007Y-117875001D01*
X120491393Y-117432938D01*
X120322579Y-117024378D01*
X120010266Y-116711520D01*
X119602001Y-116541993D01*
X119159938Y-116541607D01*
X118751378Y-116710421D01*
X118438520Y-117022734D01*
X118268993Y-117430999D01*
X118268607Y-117873062D01*
X117828652Y-117873062D01*
X117870402Y-117617563D01*
X117805528Y-117291422D01*
X117681885Y-117200024D01*
X117228909Y-117653000D01*
X116451091Y-117653000D01*
X115998115Y-117200024D01*
X115874472Y-117291422D01*
X115809598Y-117688437D01*
X115411169Y-117688437D01*
X115411393Y-117432938D01*
X115242579Y-117024378D01*
X115029688Y-116811115D01*
X116387024Y-116811115D01*
X116840000Y-117264091D01*
X117292976Y-116811115D01*
X117201578Y-116687472D01*
X116804563Y-116622598D01*
X116478422Y-116687472D01*
X116387024Y-116811115D01*
X115029688Y-116811115D01*
X114930266Y-116711520D01*
X114522001Y-116541993D01*
X114079938Y-116541607D01*
X113671378Y-116710421D01*
X113358520Y-117022734D01*
X113188993Y-117430999D01*
X113188607Y-117873062D01*
X113357421Y-118281622D01*
X113500000Y-118424450D01*
X113500000Y-120800000D01*
X113539064Y-120996390D01*
X113560896Y-121106147D01*
X113734315Y-121365685D01*
X115044000Y-122675371D01*
X115044000Y-125486579D01*
X114960117Y-125542628D01*
X114689151Y-125948157D01*
X114594000Y-126426511D01*
X114594000Y-126475489D01*
X114689151Y-126953843D01*
X114960117Y-127359372D01*
X115365646Y-127630338D01*
X115841542Y-127725000D01*
X110843396Y-127725000D01*
X109816946Y-126698550D01*
X112053783Y-126698550D01*
X112243684Y-127158143D01*
X112595007Y-127510081D01*
X113054269Y-127700783D01*
X113551550Y-127701217D01*
X114011143Y-127511316D01*
X114363081Y-127159993D01*
X114553783Y-126700731D01*
X114554217Y-126203450D01*
X114364316Y-125743857D01*
X114012993Y-125391919D01*
X113553731Y-125201217D01*
X113056450Y-125200783D01*
X112596857Y-125390684D01*
X112244919Y-125742007D01*
X112054217Y-126201269D01*
X112053783Y-126698550D01*
X109816946Y-126698550D01*
X109782000Y-126663604D01*
X109782000Y-115333062D01*
X110648607Y-115333062D01*
X110817421Y-115741622D01*
X111129734Y-116054480D01*
X111537999Y-116224007D01*
X111980062Y-116224393D01*
X112388622Y-116055579D01*
X112701480Y-115743266D01*
X112871007Y-115335001D01*
X112871008Y-115333062D01*
X113188607Y-115333062D01*
X113357421Y-115741622D01*
X113669734Y-116054480D01*
X114077999Y-116224007D01*
X114520062Y-116224393D01*
X114928622Y-116055579D01*
X115241480Y-115743266D01*
X115411007Y-115335001D01*
X115411393Y-114892938D01*
X115242579Y-114484378D01*
X114930266Y-114171520D01*
X114522001Y-114001993D01*
X114079938Y-114001607D01*
X113671378Y-114170421D01*
X113358520Y-114482734D01*
X113188993Y-114890999D01*
X113188607Y-115333062D01*
X112871008Y-115333062D01*
X112871393Y-114892938D01*
X112702579Y-114484378D01*
X112390266Y-114171520D01*
X111982001Y-114001993D01*
X111539938Y-114001607D01*
X111131378Y-114170421D01*
X110818520Y-114482734D01*
X110648993Y-114890999D01*
X110648607Y-115333062D01*
X109782000Y-115333062D01*
X109782000Y-112793062D01*
X110648607Y-112793062D01*
X110817421Y-113201622D01*
X111129734Y-113514480D01*
X111537999Y-113684007D01*
X111980062Y-113684393D01*
X112388622Y-113515579D01*
X112701480Y-113203266D01*
X112871007Y-112795001D01*
X112871393Y-112352938D01*
X112702579Y-111944378D01*
X112390266Y-111631520D01*
X111982001Y-111461993D01*
X111539938Y-111461607D01*
X111131378Y-111630421D01*
X110818520Y-111942734D01*
X110648993Y-112350999D01*
X110648607Y-112793062D01*
X109782000Y-112793062D01*
X109782000Y-110253062D01*
X110648607Y-110253062D01*
X110817421Y-110661622D01*
X111129734Y-110974480D01*
X111537999Y-111144007D01*
X111980062Y-111144393D01*
X112388622Y-110975579D01*
X112701480Y-110663266D01*
X112871007Y-110255001D01*
X112871393Y-109812938D01*
X112702579Y-109404378D01*
X112390266Y-109091520D01*
X111982001Y-108921993D01*
X111539938Y-108921607D01*
X111131378Y-109090421D01*
X110818520Y-109402734D01*
X110648993Y-109810999D01*
X110648607Y-110253062D01*
X109782000Y-110253062D01*
X109782000Y-107713062D01*
X110648607Y-107713062D01*
X110817421Y-108121622D01*
X111129734Y-108434480D01*
X111537999Y-108604007D01*
X111980062Y-108604393D01*
X112388622Y-108435579D01*
X112701480Y-108123266D01*
X112871007Y-107715001D01*
X112871393Y-107272938D01*
X112702579Y-106864378D01*
X112390266Y-106551520D01*
X111982001Y-106381993D01*
X111539938Y-106381607D01*
X111131378Y-106550421D01*
X110818520Y-106862734D01*
X110648993Y-107270999D01*
X110648607Y-107713062D01*
X109782000Y-107713062D01*
X109782000Y-105173062D01*
X110648607Y-105173062D01*
X110817421Y-105581622D01*
X111129734Y-105894480D01*
X111537999Y-106064007D01*
X111980062Y-106064393D01*
X112388622Y-105895579D01*
X112701480Y-105583266D01*
X112871007Y-105175001D01*
X112871393Y-104732938D01*
X112702579Y-104324378D01*
X112390266Y-104011520D01*
X111982001Y-103841993D01*
X111539938Y-103841607D01*
X111131378Y-104010421D01*
X110818520Y-104322734D01*
X110648993Y-104730999D01*
X110648607Y-105173062D01*
X109782000Y-105173062D01*
X109782000Y-102633062D01*
X110648607Y-102633062D01*
X110817421Y-103041622D01*
X111129734Y-103354480D01*
X111537999Y-103524007D01*
X111980062Y-103524393D01*
X112388622Y-103355579D01*
X112701480Y-103043266D01*
X112871007Y-102635001D01*
X112871008Y-102633062D01*
X113188607Y-102633062D01*
X113357421Y-103041622D01*
X113669734Y-103354480D01*
X114077999Y-103524007D01*
X114520062Y-103524393D01*
X114928622Y-103355579D01*
X115241480Y-103043266D01*
X115411007Y-102635001D01*
X115411393Y-102192938D01*
X115242579Y-101784378D01*
X114930266Y-101471520D01*
X114522001Y-101301993D01*
X114079938Y-101301607D01*
X113671378Y-101470421D01*
X113358520Y-101782734D01*
X113188993Y-102190999D01*
X113188607Y-102633062D01*
X112871008Y-102633062D01*
X112871393Y-102192938D01*
X112702579Y-101784378D01*
X112390266Y-101471520D01*
X111982001Y-101301993D01*
X111539938Y-101301607D01*
X111131378Y-101470421D01*
X110818520Y-101782734D01*
X110648993Y-102190999D01*
X110648607Y-102633062D01*
X109782000Y-102633062D01*
X109782000Y-100093062D01*
X113188607Y-100093062D01*
X113357421Y-100501622D01*
X113669734Y-100814480D01*
X114077999Y-100984007D01*
X114520062Y-100984393D01*
X114928622Y-100815579D01*
X115241480Y-100503266D01*
X115411007Y-100095001D01*
X115411008Y-100093062D01*
X115728607Y-100093062D01*
X115897421Y-100501622D01*
X116209734Y-100814480D01*
X116617999Y-100984007D01*
X117060062Y-100984393D01*
X117468622Y-100815579D01*
X117781480Y-100503266D01*
X117951007Y-100095001D01*
X117951008Y-100093062D01*
X118268607Y-100093062D01*
X118437421Y-100501622D01*
X118749734Y-100814480D01*
X119157999Y-100984007D01*
X119600062Y-100984393D01*
X120008622Y-100815579D01*
X120321480Y-100503266D01*
X120491007Y-100095001D01*
X120491008Y-100093062D01*
X120808607Y-100093062D01*
X120977421Y-100501622D01*
X121289734Y-100814480D01*
X121697999Y-100984007D01*
X122140062Y-100984393D01*
X122548622Y-100815579D01*
X122861480Y-100503266D01*
X123031007Y-100095001D01*
X123031008Y-100093062D01*
X123348607Y-100093062D01*
X123517421Y-100501622D01*
X123829734Y-100814480D01*
X124237999Y-100984007D01*
X124680062Y-100984393D01*
X125088622Y-100815579D01*
X125401480Y-100503266D01*
X125571007Y-100095001D01*
X125571008Y-100093062D01*
X125888607Y-100093062D01*
X126057421Y-100501622D01*
X126369734Y-100814480D01*
X126777999Y-100984007D01*
X127220062Y-100984393D01*
X127628622Y-100815579D01*
X127941480Y-100503266D01*
X128111007Y-100095001D01*
X128111020Y-100079550D01*
X132305783Y-100079550D01*
X132495684Y-100539143D01*
X132847007Y-100891081D01*
X133306269Y-101081783D01*
X133803550Y-101082217D01*
X134263143Y-100892316D01*
X134615081Y-100540993D01*
X134805783Y-100081731D01*
X134805784Y-100079550D01*
X155165783Y-100079550D01*
X155355684Y-100539143D01*
X155707007Y-100891081D01*
X156166269Y-101081783D01*
X156663550Y-101082217D01*
X157123143Y-100892316D01*
X157475081Y-100540993D01*
X157665783Y-100081731D01*
X157666217Y-99584450D01*
X157476316Y-99124857D01*
X157124993Y-98772919D01*
X156665731Y-98582217D01*
X156168450Y-98581783D01*
X155708857Y-98771684D01*
X155356919Y-99123007D01*
X155166217Y-99582269D01*
X155165783Y-100079550D01*
X134805784Y-100079550D01*
X134806217Y-99584450D01*
X134616316Y-99124857D01*
X134264993Y-98772919D01*
X133805731Y-98582217D01*
X133308450Y-98581783D01*
X132848857Y-98771684D01*
X132496919Y-99123007D01*
X132306217Y-99582269D01*
X132305783Y-100079550D01*
X128111020Y-100079550D01*
X128111393Y-99652938D01*
X127942579Y-99244378D01*
X127630266Y-98931520D01*
X127222001Y-98761993D01*
X126779938Y-98761607D01*
X126371378Y-98930421D01*
X126058520Y-99242734D01*
X125888993Y-99650999D01*
X125888607Y-100093062D01*
X125571008Y-100093062D01*
X125571393Y-99652938D01*
X125402579Y-99244378D01*
X125090266Y-98931520D01*
X124682001Y-98761993D01*
X124239938Y-98761607D01*
X123831378Y-98930421D01*
X123518520Y-99242734D01*
X123348993Y-99650999D01*
X123348607Y-100093062D01*
X123031008Y-100093062D01*
X123031393Y-99652938D01*
X122862579Y-99244378D01*
X122550266Y-98931520D01*
X122142001Y-98761993D01*
X121699938Y-98761607D01*
X121291378Y-98930421D01*
X120978520Y-99242734D01*
X120808993Y-99650999D01*
X120808607Y-100093062D01*
X120491008Y-100093062D01*
X120491393Y-99652938D01*
X120322579Y-99244378D01*
X120010266Y-98931520D01*
X119602001Y-98761993D01*
X119159938Y-98761607D01*
X118751378Y-98930421D01*
X118438520Y-99242734D01*
X118268993Y-99650999D01*
X118268607Y-100093062D01*
X117951008Y-100093062D01*
X117951393Y-99652938D01*
X117782579Y-99244378D01*
X117470266Y-98931520D01*
X117062001Y-98761993D01*
X116619938Y-98761607D01*
X116211378Y-98930421D01*
X115898520Y-99242734D01*
X115728993Y-99650999D01*
X115728607Y-100093062D01*
X115411008Y-100093062D01*
X115411393Y-99652938D01*
X115242579Y-99244378D01*
X114930266Y-98931520D01*
X114522001Y-98761993D01*
X114079938Y-98761607D01*
X113671378Y-98930421D01*
X113358520Y-99242734D01*
X113188993Y-99650999D01*
X113188607Y-100093062D01*
X109782000Y-100093062D01*
X109782000Y-98673396D01*
X111080396Y-97375000D01*
X156663604Y-97375000D01*
X157726000Y-98437396D01*
X157726000Y-98437396D01*
G37*
X157726000Y-98437396D02*
X157726000Y-117931604D01*
X157573407Y-118084197D01*
X157665783Y-117861731D01*
X157666217Y-117364450D01*
X157476316Y-116904857D01*
X157124993Y-116552919D01*
X156665731Y-116362217D01*
X156168450Y-116361783D01*
X155708857Y-116551684D01*
X155356919Y-116903007D01*
X155166217Y-117362269D01*
X155165783Y-117859550D01*
X155355684Y-118319143D01*
X155707007Y-118671081D01*
X156166269Y-118861783D01*
X156663550Y-118862217D01*
X156888219Y-118769385D01*
X156655604Y-119002000D01*
X133546275Y-119002000D01*
X133496000Y-118992000D01*
X133323793Y-119026253D01*
X133177802Y-119123802D01*
X131920980Y-120380624D01*
X131881802Y-120406802D01*
X131784254Y-120552792D01*
X131750000Y-120725000D01*
X131750000Y-126661604D01*
X130686604Y-127725000D01*
X120926458Y-127725000D01*
X121402354Y-127630338D01*
X121807883Y-127359372D01*
X122078849Y-126953843D01*
X122135000Y-126671550D01*
X127314783Y-126671550D01*
X127504684Y-127131143D01*
X127856007Y-127483081D01*
X128315269Y-127673783D01*
X128812550Y-127674217D01*
X129272143Y-127484316D01*
X129624081Y-127132993D01*
X129814783Y-126673731D01*
X129815192Y-126205336D01*
X130985264Y-125035264D01*
X131115328Y-124840610D01*
X131161000Y-124611000D01*
X131161000Y-118232528D01*
X131533978Y-117859550D01*
X132305783Y-117859550D01*
X132495684Y-118319143D01*
X132847007Y-118671081D01*
X133306269Y-118861783D01*
X133803550Y-118862217D01*
X134263143Y-118672316D01*
X134615081Y-118320993D01*
X134805783Y-117861731D01*
X134806217Y-117364450D01*
X134616316Y-116904857D01*
X134264993Y-116552919D01*
X133805731Y-116362217D01*
X133308450Y-116361783D01*
X132848857Y-116551684D01*
X132496919Y-116903007D01*
X132306217Y-117362269D01*
X132305783Y-117859550D01*
X131533978Y-117859550D01*
X131817223Y-117576305D01*
X131826264Y-117570264D01*
X131956328Y-117375610D01*
X132002000Y-117146000D01*
X132002000Y-115319550D01*
X132305783Y-115319550D01*
X132495684Y-115779143D01*
X132847007Y-116131081D01*
X133306269Y-116321783D01*
X133803550Y-116322217D01*
X134263143Y-116132316D01*
X134377890Y-116017769D01*
X155859140Y-116017769D01*
X155968507Y-116155778D01*
X156417315Y-116244529D01*
X156863493Y-116155778D01*
X156972860Y-116017769D01*
X156416000Y-115460909D01*
X155859140Y-116017769D01*
X134377890Y-116017769D01*
X134615081Y-115780993D01*
X134805783Y-115321731D01*
X134805999Y-115073315D01*
X155243471Y-115073315D01*
X155332222Y-115519493D01*
X155470231Y-115628860D01*
X156027091Y-115072000D01*
X156804909Y-115072000D01*
X157361769Y-115628860D01*
X157499778Y-115519493D01*
X157588529Y-115070685D01*
X157499778Y-114624507D01*
X157361769Y-114515140D01*
X156804909Y-115072000D01*
X156027091Y-115072000D01*
X155470231Y-114515140D01*
X155332222Y-114624507D01*
X155243471Y-115073315D01*
X134805999Y-115073315D01*
X134806217Y-114824450D01*
X134616316Y-114364857D01*
X134378107Y-114126231D01*
X155859140Y-114126231D01*
X156416000Y-114683091D01*
X156972860Y-114126231D01*
X156863493Y-113988222D01*
X156414685Y-113899471D01*
X155968507Y-113988222D01*
X155859140Y-114126231D01*
X134378107Y-114126231D01*
X134264993Y-114012919D01*
X133805731Y-113822217D01*
X133308450Y-113821783D01*
X132848857Y-114011684D01*
X132496919Y-114363007D01*
X132306217Y-114822269D01*
X132305783Y-115319550D01*
X132002000Y-115319550D01*
X132002000Y-112779550D01*
X132305783Y-112779550D01*
X132495684Y-113239143D01*
X132847007Y-113591081D01*
X133306269Y-113781783D01*
X133803550Y-113782217D01*
X134263143Y-113592316D01*
X134615081Y-113240993D01*
X134805783Y-112781731D01*
X134805784Y-112779550D01*
X155165783Y-112779550D01*
X155355684Y-113239143D01*
X155707007Y-113591081D01*
X156166269Y-113781783D01*
X156663550Y-113782217D01*
X157123143Y-113592316D01*
X157475081Y-113240993D01*
X157665783Y-112781731D01*
X157666217Y-112284450D01*
X157476316Y-111824857D01*
X157124993Y-111472919D01*
X156665731Y-111282217D01*
X156168450Y-111281783D01*
X155708857Y-111471684D01*
X155356919Y-111823007D01*
X155166217Y-112282269D01*
X155165783Y-112779550D01*
X134805784Y-112779550D01*
X134806217Y-112284450D01*
X134616316Y-111824857D01*
X134264993Y-111472919D01*
X133805731Y-111282217D01*
X133308450Y-111281783D01*
X132848857Y-111471684D01*
X132496919Y-111823007D01*
X132306217Y-112282269D01*
X132305783Y-112779550D01*
X132002000Y-112779550D01*
X132002000Y-110239550D01*
X132305783Y-110239550D01*
X132495684Y-110699143D01*
X132847007Y-111051081D01*
X133306269Y-111241783D01*
X133803550Y-111242217D01*
X134263143Y-111052316D01*
X134615081Y-110700993D01*
X134805783Y-110241731D01*
X134805784Y-110239550D01*
X155165783Y-110239550D01*
X155355684Y-110699143D01*
X155707007Y-111051081D01*
X156166269Y-111241783D01*
X156663550Y-111242217D01*
X157123143Y-111052316D01*
X157475081Y-110700993D01*
X157665783Y-110241731D01*
X157666217Y-109744450D01*
X157476316Y-109284857D01*
X157124993Y-108932919D01*
X156665731Y-108742217D01*
X156168450Y-108741783D01*
X155708857Y-108931684D01*
X155356919Y-109283007D01*
X155166217Y-109742269D01*
X155165783Y-110239550D01*
X134805784Y-110239550D01*
X134806217Y-109744450D01*
X134616316Y-109284857D01*
X134264993Y-108932919D01*
X133805731Y-108742217D01*
X133308450Y-108741783D01*
X132848857Y-108931684D01*
X132496919Y-109283007D01*
X132306217Y-109742269D01*
X132305783Y-110239550D01*
X132002000Y-110239550D01*
X132002000Y-109214528D01*
X132776289Y-108440239D01*
X132847007Y-108511081D01*
X133306269Y-108701783D01*
X133803550Y-108702217D01*
X134263143Y-108512316D01*
X134615081Y-108160993D01*
X134805783Y-107701731D01*
X134805784Y-107699550D01*
X155165783Y-107699550D01*
X155355684Y-108159143D01*
X155707007Y-108511081D01*
X156166269Y-108701783D01*
X156663550Y-108702217D01*
X157123143Y-108512316D01*
X157475081Y-108160993D01*
X157665783Y-107701731D01*
X157666217Y-107204450D01*
X157476316Y-106744857D01*
X157124993Y-106392919D01*
X156665731Y-106202217D01*
X156168450Y-106201783D01*
X155708857Y-106391684D01*
X155356919Y-106743007D01*
X155166217Y-107202269D01*
X155165783Y-107699550D01*
X134805784Y-107699550D01*
X134806217Y-107204450D01*
X134616316Y-106744857D01*
X134264993Y-106392919D01*
X133805731Y-106202217D01*
X133308450Y-106201783D01*
X132848857Y-106391684D01*
X132496919Y-106743007D01*
X132306217Y-107202269D01*
X132306207Y-107213265D01*
X130977736Y-108541736D01*
X130847672Y-108736390D01*
X130802000Y-108966000D01*
X130802000Y-116894472D01*
X130136736Y-117559736D01*
X130006672Y-117754390D01*
X129961000Y-117984000D01*
X129961000Y-124362472D01*
X129051104Y-125272368D01*
X128814731Y-125174217D01*
X128317450Y-125173783D01*
X127857857Y-125363684D01*
X127505919Y-125715007D01*
X127315217Y-126174269D01*
X127314783Y-126671550D01*
X122135000Y-126671550D01*
X122174000Y-126475489D01*
X122174000Y-126426511D01*
X122078849Y-125948157D01*
X121807883Y-125542628D01*
X121524000Y-125352943D01*
X121524000Y-124330295D01*
X127505131Y-124330295D01*
X127747069Y-124692425D01*
X128118701Y-124943896D01*
X128290000Y-124925663D01*
X128290000Y-124159000D01*
X128840000Y-124159000D01*
X128840000Y-124925663D01*
X129011299Y-124943896D01*
X129382931Y-124692425D01*
X129624869Y-124330295D01*
X129604230Y-124159000D01*
X128840000Y-124159000D01*
X128290000Y-124159000D01*
X127525770Y-124159000D01*
X127505131Y-124330295D01*
X121524000Y-124330295D01*
X121524000Y-123437705D01*
X127505131Y-123437705D01*
X127525770Y-123609000D01*
X128290000Y-123609000D01*
X128290000Y-122842337D01*
X128840000Y-122842337D01*
X128840000Y-123609000D01*
X129604230Y-123609000D01*
X129624869Y-123437705D01*
X129382931Y-123075575D01*
X129011299Y-122824104D01*
X128840000Y-122842337D01*
X128290000Y-122842337D01*
X128118701Y-122824104D01*
X127747069Y-123075575D01*
X127505131Y-123437705D01*
X121524000Y-123437705D01*
X121524000Y-121474528D01*
X121654528Y-121344000D01*
X127290511Y-121344000D01*
X127385662Y-121822354D01*
X127656628Y-122227883D01*
X128062157Y-122498849D01*
X128540511Y-122594000D01*
X128589489Y-122594000D01*
X129067843Y-122498849D01*
X129473372Y-122227883D01*
X129744338Y-121822354D01*
X129839489Y-121344000D01*
X129744338Y-120865646D01*
X129473372Y-120460117D01*
X129067843Y-120189151D01*
X128589489Y-120094000D01*
X128540511Y-120094000D01*
X128062157Y-120189151D01*
X127656628Y-120460117D01*
X127385662Y-120865646D01*
X127290511Y-121344000D01*
X121654528Y-121344000D01*
X123574264Y-119424264D01*
X123704328Y-119229611D01*
X123750000Y-119000000D01*
X123750000Y-118514607D01*
X123829734Y-118594480D01*
X124237999Y-118764007D01*
X124680062Y-118764393D01*
X125088622Y-118595579D01*
X125401480Y-118283266D01*
X125571007Y-117875001D01*
X125571008Y-117873062D01*
X125888607Y-117873062D01*
X126057421Y-118281622D01*
X126369734Y-118594480D01*
X126777999Y-118764007D01*
X127220062Y-118764393D01*
X127628622Y-118595579D01*
X127941480Y-118283266D01*
X128111007Y-117875001D01*
X128111393Y-117432938D01*
X127942579Y-117024378D01*
X127630266Y-116711520D01*
X127222001Y-116541993D01*
X126779938Y-116541607D01*
X126371378Y-116710421D01*
X126058520Y-117022734D01*
X125888993Y-117430999D01*
X125888607Y-117873062D01*
X125571008Y-117873062D01*
X125571393Y-117432938D01*
X125402579Y-117024378D01*
X125090266Y-116711520D01*
X124682001Y-116541993D01*
X124239938Y-116541607D01*
X123831378Y-116710421D01*
X123750000Y-116791657D01*
X123750000Y-116671528D01*
X124209397Y-116212131D01*
X124237999Y-116224007D01*
X124680062Y-116224393D01*
X125088622Y-116055579D01*
X125401480Y-115743266D01*
X125571007Y-115335001D01*
X125571008Y-115333062D01*
X125888607Y-115333062D01*
X126057421Y-115741622D01*
X126369734Y-116054480D01*
X126777999Y-116224007D01*
X127220062Y-116224393D01*
X127628622Y-116055579D01*
X127941480Y-115743266D01*
X128111007Y-115335001D01*
X128111008Y-115333062D01*
X128428607Y-115333062D01*
X128597421Y-115741622D01*
X128909734Y-116054480D01*
X129317999Y-116224007D01*
X129760062Y-116224393D01*
X130168622Y-116055579D01*
X130481480Y-115743266D01*
X130651007Y-115335001D01*
X130651393Y-114892938D01*
X130482579Y-114484378D01*
X130170266Y-114171520D01*
X129762001Y-114001993D01*
X129319938Y-114001607D01*
X128911378Y-114170421D01*
X128598520Y-114482734D01*
X128428993Y-114890999D01*
X128428607Y-115333062D01*
X128111008Y-115333062D01*
X128111393Y-114892938D01*
X127942579Y-114484378D01*
X127630266Y-114171520D01*
X127222001Y-114001993D01*
X126779938Y-114001607D01*
X126371378Y-114170421D01*
X126058520Y-114482734D01*
X125888993Y-114890999D01*
X125888607Y-115333062D01*
X125571008Y-115333062D01*
X125571393Y-114892938D01*
X125402579Y-114484378D01*
X125090266Y-114171520D01*
X124682001Y-114001993D01*
X124553706Y-114001881D01*
X124568198Y-113992198D01*
X125863198Y-112697198D01*
X125872032Y-112683977D01*
X125873198Y-112683198D01*
X125888723Y-112659963D01*
X125888607Y-112793062D01*
X126057421Y-113201622D01*
X126369734Y-113514480D01*
X126777999Y-113684007D01*
X127220062Y-113684393D01*
X127628622Y-113515579D01*
X127941480Y-113203266D01*
X128111007Y-112795001D01*
X128111008Y-112793062D01*
X128428607Y-112793062D01*
X128597421Y-113201622D01*
X128909734Y-113514480D01*
X129317999Y-113684007D01*
X129760062Y-113684393D01*
X130168622Y-113515579D01*
X130481480Y-113203266D01*
X130651007Y-112795001D01*
X130651393Y-112352938D01*
X130482579Y-111944378D01*
X130170266Y-111631520D01*
X129762001Y-111461993D01*
X129319938Y-111461607D01*
X128911378Y-111630421D01*
X128598520Y-111942734D01*
X128428993Y-112350999D01*
X128428607Y-112793062D01*
X128111008Y-112793062D01*
X128111393Y-112352938D01*
X127942579Y-111944378D01*
X127630266Y-111631520D01*
X127222001Y-111461993D01*
X126779938Y-111461607D01*
X126371378Y-111630421D01*
X126058520Y-111942734D01*
X126005000Y-112071624D01*
X126005000Y-110534754D01*
X126057421Y-110661622D01*
X126369734Y-110974480D01*
X126777999Y-111144007D01*
X127220062Y-111144393D01*
X127628622Y-110975579D01*
X127941480Y-110663266D01*
X128111007Y-110255001D01*
X128111008Y-110253062D01*
X128428607Y-110253062D01*
X128597421Y-110661622D01*
X128909734Y-110974480D01*
X129317999Y-111144007D01*
X129760062Y-111144393D01*
X130168622Y-110975579D01*
X130481480Y-110663266D01*
X130651007Y-110255001D01*
X130651393Y-109812938D01*
X130482579Y-109404378D01*
X130170266Y-109091520D01*
X129762001Y-108921993D01*
X129319938Y-108921607D01*
X128911378Y-109090421D01*
X128598520Y-109402734D01*
X128428993Y-109810999D01*
X128428607Y-110253062D01*
X128111008Y-110253062D01*
X128111393Y-109812938D01*
X127942579Y-109404378D01*
X127630266Y-109091520D01*
X127222001Y-108921993D01*
X126779938Y-108921607D01*
X126371378Y-109090421D01*
X126058520Y-109402734D01*
X126005000Y-109531624D01*
X126005000Y-107994754D01*
X126057421Y-108121622D01*
X126369734Y-108434480D01*
X126777999Y-108604007D01*
X127220062Y-108604393D01*
X127628622Y-108435579D01*
X127941480Y-108123266D01*
X128111007Y-107715001D01*
X128111008Y-107713062D01*
X128428607Y-107713062D01*
X128597421Y-108121622D01*
X128909734Y-108434480D01*
X129317999Y-108604007D01*
X129760062Y-108604393D01*
X130168622Y-108435579D01*
X130481480Y-108123266D01*
X130651007Y-107715001D01*
X130651393Y-107272938D01*
X130482579Y-106864378D01*
X130170266Y-106551520D01*
X129762001Y-106381993D01*
X129319938Y-106381607D01*
X128911378Y-106550421D01*
X128598520Y-106862734D01*
X128428993Y-107270999D01*
X128428607Y-107713062D01*
X128111008Y-107713062D01*
X128111393Y-107272938D01*
X127942579Y-106864378D01*
X127630266Y-106551520D01*
X127222001Y-106381993D01*
X126779938Y-106381607D01*
X126371378Y-106550421D01*
X126058520Y-106862734D01*
X126005000Y-106991624D01*
X126005000Y-105454754D01*
X126057421Y-105581622D01*
X126369734Y-105894480D01*
X126777999Y-106064007D01*
X127220062Y-106064393D01*
X127628622Y-105895579D01*
X127729491Y-105794885D01*
X129087024Y-105794885D01*
X129178422Y-105918528D01*
X129575437Y-105983402D01*
X129901578Y-105918528D01*
X129992976Y-105794885D01*
X129540000Y-105341909D01*
X129087024Y-105794885D01*
X127729491Y-105794885D01*
X127941480Y-105583266D01*
X128111007Y-105175001D01*
X128111169Y-104988437D01*
X128509598Y-104988437D01*
X128574472Y-105314578D01*
X128698115Y-105405976D01*
X129151091Y-104953000D01*
X129928909Y-104953000D01*
X130381885Y-105405976D01*
X130505528Y-105314578D01*
X130530860Y-105159550D01*
X132305783Y-105159550D01*
X132495684Y-105619143D01*
X132847007Y-105971081D01*
X133306269Y-106161783D01*
X133803550Y-106162217D01*
X134263143Y-105972316D01*
X134615081Y-105620993D01*
X134805783Y-105161731D01*
X134805784Y-105159550D01*
X155165783Y-105159550D01*
X155355684Y-105619143D01*
X155707007Y-105971081D01*
X156166269Y-106161783D01*
X156663550Y-106162217D01*
X157123143Y-105972316D01*
X157475081Y-105620993D01*
X157665783Y-105161731D01*
X157666217Y-104664450D01*
X157476316Y-104204857D01*
X157124993Y-103852919D01*
X156665731Y-103662217D01*
X156168450Y-103661783D01*
X155708857Y-103851684D01*
X155356919Y-104203007D01*
X155166217Y-104662269D01*
X155165783Y-105159550D01*
X134805784Y-105159550D01*
X134806217Y-104664450D01*
X134616316Y-104204857D01*
X134264993Y-103852919D01*
X133805731Y-103662217D01*
X133308450Y-103661783D01*
X132848857Y-103851684D01*
X132496919Y-104203007D01*
X132306217Y-104662269D01*
X132305783Y-105159550D01*
X130530860Y-105159550D01*
X130570402Y-104917563D01*
X130505528Y-104591422D01*
X130381885Y-104500024D01*
X129928909Y-104953000D01*
X129151091Y-104953000D01*
X128698115Y-104500024D01*
X128574472Y-104591422D01*
X128509598Y-104988437D01*
X128111169Y-104988437D01*
X128111393Y-104732938D01*
X127942579Y-104324378D01*
X127729688Y-104111115D01*
X129087024Y-104111115D01*
X129540000Y-104564091D01*
X129992976Y-104111115D01*
X129901578Y-103987472D01*
X129504563Y-103922598D01*
X129178422Y-103987472D01*
X129087024Y-104111115D01*
X127729688Y-104111115D01*
X127630266Y-104011520D01*
X127222001Y-103841993D01*
X126779938Y-103841607D01*
X126371378Y-104010421D01*
X126058520Y-104322734D01*
X125888993Y-104730999D01*
X125888889Y-104849809D01*
X125880198Y-104836802D01*
X124570198Y-103526802D01*
X124567849Y-103525233D01*
X124567223Y-103524294D01*
X124680062Y-103524393D01*
X125088622Y-103355579D01*
X125401480Y-103043266D01*
X125571007Y-102635001D01*
X125571008Y-102633062D01*
X125888607Y-102633062D01*
X126057421Y-103041622D01*
X126369734Y-103354480D01*
X126777999Y-103524007D01*
X127220062Y-103524393D01*
X127628622Y-103355579D01*
X127941480Y-103043266D01*
X128111007Y-102635001D01*
X128111008Y-102633062D01*
X128428607Y-102633062D01*
X128597421Y-103041622D01*
X128909734Y-103354480D01*
X129317999Y-103524007D01*
X129760062Y-103524393D01*
X130168622Y-103355579D01*
X130481480Y-103043266D01*
X130651007Y-102635001D01*
X130651020Y-102619550D01*
X132305783Y-102619550D01*
X132495684Y-103079143D01*
X132847007Y-103431081D01*
X133306269Y-103621783D01*
X133803550Y-103622217D01*
X134263143Y-103432316D01*
X134615081Y-103080993D01*
X134805783Y-102621731D01*
X134805784Y-102619550D01*
X155165783Y-102619550D01*
X155355684Y-103079143D01*
X155707007Y-103431081D01*
X156166269Y-103621783D01*
X156663550Y-103622217D01*
X157123143Y-103432316D01*
X157475081Y-103080993D01*
X157665783Y-102621731D01*
X157666217Y-102124450D01*
X157476316Y-101664857D01*
X157124993Y-101312919D01*
X156665731Y-101122217D01*
X156168450Y-101121783D01*
X155708857Y-101311684D01*
X155356919Y-101663007D01*
X155166217Y-102122269D01*
X155165783Y-102619550D01*
X134805784Y-102619550D01*
X134806217Y-102124450D01*
X134616316Y-101664857D01*
X134264993Y-101312919D01*
X133805731Y-101122217D01*
X133308450Y-101121783D01*
X132848857Y-101311684D01*
X132496919Y-101663007D01*
X132306217Y-102122269D01*
X132305783Y-102619550D01*
X130651020Y-102619550D01*
X130651393Y-102192938D01*
X130482579Y-101784378D01*
X130170266Y-101471520D01*
X129762001Y-101301993D01*
X129319938Y-101301607D01*
X128911378Y-101470421D01*
X128598520Y-101782734D01*
X128428993Y-102190999D01*
X128428607Y-102633062D01*
X128111008Y-102633062D01*
X128111393Y-102192938D01*
X127942579Y-101784378D01*
X127630266Y-101471520D01*
X127222001Y-101301993D01*
X126779938Y-101301607D01*
X126371378Y-101470421D01*
X126058520Y-101782734D01*
X125888993Y-102190999D01*
X125888607Y-102633062D01*
X125571008Y-102633062D01*
X125571393Y-102192938D01*
X125402579Y-101784378D01*
X125090266Y-101471520D01*
X124682001Y-101301993D01*
X124239938Y-101301607D01*
X123831378Y-101470421D01*
X123518520Y-101782734D01*
X123348993Y-102190999D01*
X123348607Y-102633062D01*
X123517421Y-103041622D01*
X123829734Y-103354480D01*
X123874335Y-103373000D01*
X122506460Y-103373000D01*
X122548622Y-103355579D01*
X122861480Y-103043266D01*
X123031007Y-102635001D01*
X123031393Y-102192938D01*
X122862579Y-101784378D01*
X122550266Y-101471520D01*
X122142001Y-101301993D01*
X121699938Y-101301607D01*
X121291378Y-101470421D01*
X120978520Y-101782734D01*
X120808993Y-102190999D01*
X120808607Y-102633062D01*
X120977421Y-103041622D01*
X121289734Y-103354480D01*
X121334335Y-103373000D01*
X119966460Y-103373000D01*
X120008622Y-103355579D01*
X120321480Y-103043266D01*
X120491007Y-102635001D01*
X120491393Y-102192938D01*
X120322579Y-101784378D01*
X120010266Y-101471520D01*
X119602001Y-101301993D01*
X119159938Y-101301607D01*
X118751378Y-101470421D01*
X118438520Y-101782734D01*
X118268993Y-102190999D01*
X118268607Y-102633062D01*
X118437421Y-103041622D01*
X118749734Y-103354480D01*
X118794335Y-103373000D01*
X117426460Y-103373000D01*
X117468622Y-103355579D01*
X117781480Y-103043266D01*
X117951007Y-102635001D01*
X117951393Y-102192938D01*
X117782579Y-101784378D01*
X117470266Y-101471520D01*
X117062001Y-101301993D01*
X116619938Y-101301607D01*
X116211378Y-101470421D01*
X115898520Y-101782734D01*
X115728993Y-102190999D01*
X115728607Y-102633062D01*
X115897421Y-103041622D01*
X116209734Y-103354480D01*
X116617999Y-103524007D01*
X116827414Y-103524190D01*
X115544802Y-104806802D01*
X115447254Y-104952793D01*
X115443705Y-104970634D01*
X115438254Y-104978792D01*
X115411059Y-105115512D01*
X115411393Y-104732938D01*
X115242579Y-104324378D01*
X114930266Y-104011520D01*
X114522001Y-103841993D01*
X114079938Y-103841607D01*
X113671378Y-104010421D01*
X113358520Y-104322734D01*
X113188993Y-104730999D01*
X113188607Y-105173062D01*
X113357421Y-105581622D01*
X113669734Y-105894480D01*
X114077999Y-106064007D01*
X114520062Y-106064393D01*
X114928622Y-105895579D01*
X115241480Y-105583266D01*
X115404000Y-105191876D01*
X115404000Y-107255046D01*
X115242579Y-106864378D01*
X114930266Y-106551520D01*
X114522001Y-106381993D01*
X114079938Y-106381607D01*
X113671378Y-106550421D01*
X113358520Y-106862734D01*
X113188993Y-107270999D01*
X113188607Y-107713062D01*
X113357421Y-108121622D01*
X113669734Y-108434480D01*
X114077999Y-108604007D01*
X114520062Y-108604393D01*
X114928622Y-108435579D01*
X115241480Y-108123266D01*
X115404000Y-107731876D01*
X115404000Y-109795046D01*
X115242579Y-109404378D01*
X114930266Y-109091520D01*
X114522001Y-108921993D01*
X114079938Y-108921607D01*
X113671378Y-109090421D01*
X113358520Y-109402734D01*
X113188993Y-109810999D01*
X113188607Y-110253062D01*
X113357421Y-110661622D01*
X113669734Y-110974480D01*
X114077999Y-111144007D01*
X114520062Y-111144393D01*
X114928622Y-110975579D01*
X115241480Y-110663266D01*
X115404000Y-110271876D01*
X115404000Y-112335046D01*
X115242579Y-111944378D01*
X114930266Y-111631520D01*
X114522001Y-111461993D01*
X114079938Y-111461607D01*
X113671378Y-111630421D01*
X113358520Y-111942734D01*
X113188993Y-112350999D01*
X113188607Y-112793062D01*
X113357421Y-113201622D01*
X113669734Y-113514480D01*
X114077999Y-113684007D01*
X114520062Y-113684393D01*
X114928622Y-113515579D01*
X115241480Y-113203266D01*
X115411007Y-112795001D01*
X115411355Y-112395979D01*
X115438254Y-112531208D01*
X115535802Y-112677198D01*
X115553884Y-112689280D01*
X116851802Y-113987198D01*
X116873698Y-114001829D01*
X116619938Y-114001607D01*
X116211378Y-114170421D01*
X115898520Y-114482734D01*
X115728993Y-114890999D01*
X115728607Y-115333062D01*
X115897421Y-115741622D01*
X116209734Y-116054480D01*
X116617999Y-116224007D01*
X117060062Y-116224393D01*
X117468622Y-116055579D01*
X117781480Y-115743266D01*
X117951007Y-115335001D01*
X117951393Y-114892938D01*
X117782579Y-114484378D01*
X117470266Y-114171520D01*
X117358234Y-114125000D01*
X118861305Y-114125000D01*
X118751378Y-114170421D01*
X118438520Y-114482734D01*
X118268993Y-114890999D01*
X118268607Y-115333062D01*
X118437421Y-115741622D01*
X118749734Y-116054480D01*
X119157999Y-116224007D01*
X119600062Y-116224393D01*
X120008622Y-116055579D01*
X120321480Y-115743266D01*
X120491007Y-115335001D01*
X120491393Y-114892938D01*
X120322579Y-114484378D01*
X120010266Y-114171520D01*
X119898234Y-114125000D01*
X121401305Y-114125000D01*
X121291378Y-114170421D01*
X120978520Y-114482734D01*
X120808993Y-114890999D01*
X120808607Y-115333062D01*
X120977421Y-115741622D01*
X121289734Y-116054480D01*
X121697999Y-116224007D01*
X122140062Y-116224393D01*
X122548622Y-116055579D01*
X122861480Y-115743266D01*
X123031007Y-115335001D01*
X123031393Y-114892938D01*
X122862579Y-114484378D01*
X122550266Y-114171520D01*
X122438234Y-114125000D01*
X123941305Y-114125000D01*
X123831378Y-114170421D01*
X123518520Y-114482734D01*
X123348993Y-114890999D01*
X123348607Y-115333062D01*
X123361122Y-115363350D01*
X122725736Y-115998736D01*
X122595672Y-116193390D01*
X122550000Y-116423000D01*
X122550000Y-116711410D01*
X122142001Y-116541993D01*
X121699938Y-116541607D01*
X121291378Y-116710421D01*
X120978520Y-117022734D01*
X120808993Y-117430999D01*
X120808607Y-117873062D01*
X120977421Y-118281622D01*
X121289734Y-118594480D01*
X121697999Y-118764007D01*
X122140062Y-118764393D01*
X122548622Y-118595579D01*
X122550000Y-118594203D01*
X122550000Y-118751472D01*
X120499736Y-120801736D01*
X120369672Y-120996390D01*
X120324000Y-121226000D01*
X120324000Y-125352943D01*
X120040117Y-125542628D01*
X119769151Y-125948157D01*
X119674000Y-126426511D01*
X119674000Y-126475489D01*
X119769151Y-126953843D01*
X120040117Y-127359372D01*
X120445646Y-127630338D01*
X120921542Y-127725000D01*
X115846458Y-127725000D01*
X116322354Y-127630338D01*
X116727883Y-127359372D01*
X116998849Y-126953843D01*
X117010096Y-126897299D01*
X117324104Y-126897299D01*
X117575575Y-127268931D01*
X117937705Y-127510869D01*
X118109000Y-127490230D01*
X118109000Y-126726000D01*
X118659000Y-126726000D01*
X118659000Y-127490230D01*
X118830295Y-127510869D01*
X119192425Y-127268931D01*
X119443896Y-126897299D01*
X119425663Y-126726000D01*
X118659000Y-126726000D01*
X118109000Y-126726000D01*
X117342337Y-126726000D01*
X117324104Y-126897299D01*
X117010096Y-126897299D01*
X117094000Y-126475489D01*
X117094000Y-126426511D01*
X117010097Y-126004701D01*
X117324104Y-126004701D01*
X117342337Y-126176000D01*
X118109000Y-126176000D01*
X118109000Y-125411770D01*
X118659000Y-125411770D01*
X118659000Y-126176000D01*
X119425663Y-126176000D01*
X119443896Y-126004701D01*
X119192425Y-125633069D01*
X118830295Y-125391131D01*
X118659000Y-125411770D01*
X118109000Y-125411770D01*
X117937705Y-125391131D01*
X117575575Y-125633069D01*
X117324104Y-126004701D01*
X117010097Y-126004701D01*
X116998849Y-125948157D01*
X116727883Y-125542628D01*
X116644000Y-125486579D01*
X116644000Y-122344000D01*
X116583104Y-122037853D01*
X116409686Y-121778315D01*
X115100000Y-120468630D01*
X115100000Y-118494885D01*
X116387024Y-118494885D01*
X116478422Y-118618528D01*
X116875437Y-118683402D01*
X117201578Y-118618528D01*
X117292976Y-118494885D01*
X116840000Y-118041909D01*
X116387024Y-118494885D01*
X115100000Y-118494885D01*
X115100000Y-118424500D01*
X115241480Y-118283266D01*
X115411007Y-117875001D01*
X115411169Y-117688437D01*
X115809598Y-117688437D01*
X115874472Y-118014578D01*
X115998115Y-118105976D01*
X116451091Y-117653000D01*
X117228909Y-117653000D01*
X117681885Y-118105976D01*
X117805528Y-118014578D01*
X117828652Y-117873062D01*
X118268607Y-117873062D01*
X118437421Y-118281622D01*
X118749734Y-118594480D01*
X119157999Y-118764007D01*
X119600062Y-118764393D01*
X120008622Y-118595579D01*
X120321480Y-118283266D01*
X120491007Y-117875001D01*
X120491393Y-117432938D01*
X120322579Y-117024378D01*
X120010266Y-116711520D01*
X119602001Y-116541993D01*
X119159938Y-116541607D01*
X118751378Y-116710421D01*
X118438520Y-117022734D01*
X118268993Y-117430999D01*
X118268607Y-117873062D01*
X117828652Y-117873062D01*
X117870402Y-117617563D01*
X117805528Y-117291422D01*
X117681885Y-117200024D01*
X117228909Y-117653000D01*
X116451091Y-117653000D01*
X115998115Y-117200024D01*
X115874472Y-117291422D01*
X115809598Y-117688437D01*
X115411169Y-117688437D01*
X115411393Y-117432938D01*
X115242579Y-117024378D01*
X115029688Y-116811115D01*
X116387024Y-116811115D01*
X116840000Y-117264091D01*
X117292976Y-116811115D01*
X117201578Y-116687472D01*
X116804563Y-116622598D01*
X116478422Y-116687472D01*
X116387024Y-116811115D01*
X115029688Y-116811115D01*
X114930266Y-116711520D01*
X114522001Y-116541993D01*
X114079938Y-116541607D01*
X113671378Y-116710421D01*
X113358520Y-117022734D01*
X113188993Y-117430999D01*
X113188607Y-117873062D01*
X113357421Y-118281622D01*
X113500000Y-118424450D01*
X113500000Y-120800000D01*
X113539064Y-120996390D01*
X113560896Y-121106147D01*
X113734315Y-121365685D01*
X115044000Y-122675371D01*
X115044000Y-125486579D01*
X114960117Y-125542628D01*
X114689151Y-125948157D01*
X114594000Y-126426511D01*
X114594000Y-126475489D01*
X114689151Y-126953843D01*
X114960117Y-127359372D01*
X115365646Y-127630338D01*
X115841542Y-127725000D01*
X110843396Y-127725000D01*
X109816946Y-126698550D01*
X112053783Y-126698550D01*
X112243684Y-127158143D01*
X112595007Y-127510081D01*
X113054269Y-127700783D01*
X113551550Y-127701217D01*
X114011143Y-127511316D01*
X114363081Y-127159993D01*
X114553783Y-126700731D01*
X114554217Y-126203450D01*
X114364316Y-125743857D01*
X114012993Y-125391919D01*
X113553731Y-125201217D01*
X113056450Y-125200783D01*
X112596857Y-125390684D01*
X112244919Y-125742007D01*
X112054217Y-126201269D01*
X112053783Y-126698550D01*
X109816946Y-126698550D01*
X109782000Y-126663604D01*
X109782000Y-115333062D01*
X110648607Y-115333062D01*
X110817421Y-115741622D01*
X111129734Y-116054480D01*
X111537999Y-116224007D01*
X111980062Y-116224393D01*
X112388622Y-116055579D01*
X112701480Y-115743266D01*
X112871007Y-115335001D01*
X112871008Y-115333062D01*
X113188607Y-115333062D01*
X113357421Y-115741622D01*
X113669734Y-116054480D01*
X114077999Y-116224007D01*
X114520062Y-116224393D01*
X114928622Y-116055579D01*
X115241480Y-115743266D01*
X115411007Y-115335001D01*
X115411393Y-114892938D01*
X115242579Y-114484378D01*
X114930266Y-114171520D01*
X114522001Y-114001993D01*
X114079938Y-114001607D01*
X113671378Y-114170421D01*
X113358520Y-114482734D01*
X113188993Y-114890999D01*
X113188607Y-115333062D01*
X112871008Y-115333062D01*
X112871393Y-114892938D01*
X112702579Y-114484378D01*
X112390266Y-114171520D01*
X111982001Y-114001993D01*
X111539938Y-114001607D01*
X111131378Y-114170421D01*
X110818520Y-114482734D01*
X110648993Y-114890999D01*
X110648607Y-115333062D01*
X109782000Y-115333062D01*
X109782000Y-112793062D01*
X110648607Y-112793062D01*
X110817421Y-113201622D01*
X111129734Y-113514480D01*
X111537999Y-113684007D01*
X111980062Y-113684393D01*
X112388622Y-113515579D01*
X112701480Y-113203266D01*
X112871007Y-112795001D01*
X112871393Y-112352938D01*
X112702579Y-111944378D01*
X112390266Y-111631520D01*
X111982001Y-111461993D01*
X111539938Y-111461607D01*
X111131378Y-111630421D01*
X110818520Y-111942734D01*
X110648993Y-112350999D01*
X110648607Y-112793062D01*
X109782000Y-112793062D01*
X109782000Y-110253062D01*
X110648607Y-110253062D01*
X110817421Y-110661622D01*
X111129734Y-110974480D01*
X111537999Y-111144007D01*
X111980062Y-111144393D01*
X112388622Y-110975579D01*
X112701480Y-110663266D01*
X112871007Y-110255001D01*
X112871393Y-109812938D01*
X112702579Y-109404378D01*
X112390266Y-109091520D01*
X111982001Y-108921993D01*
X111539938Y-108921607D01*
X111131378Y-109090421D01*
X110818520Y-109402734D01*
X110648993Y-109810999D01*
X110648607Y-110253062D01*
X109782000Y-110253062D01*
X109782000Y-107713062D01*
X110648607Y-107713062D01*
X110817421Y-108121622D01*
X111129734Y-108434480D01*
X111537999Y-108604007D01*
X111980062Y-108604393D01*
X112388622Y-108435579D01*
X112701480Y-108123266D01*
X112871007Y-107715001D01*
X112871393Y-107272938D01*
X112702579Y-106864378D01*
X112390266Y-106551520D01*
X111982001Y-106381993D01*
X111539938Y-106381607D01*
X111131378Y-106550421D01*
X110818520Y-106862734D01*
X110648993Y-107270999D01*
X110648607Y-107713062D01*
X109782000Y-107713062D01*
X109782000Y-105173062D01*
X110648607Y-105173062D01*
X110817421Y-105581622D01*
X111129734Y-105894480D01*
X111537999Y-106064007D01*
X111980062Y-106064393D01*
X112388622Y-105895579D01*
X112701480Y-105583266D01*
X112871007Y-105175001D01*
X112871393Y-104732938D01*
X112702579Y-104324378D01*
X112390266Y-104011520D01*
X111982001Y-103841993D01*
X111539938Y-103841607D01*
X111131378Y-104010421D01*
X110818520Y-104322734D01*
X110648993Y-104730999D01*
X110648607Y-105173062D01*
X109782000Y-105173062D01*
X109782000Y-102633062D01*
X110648607Y-102633062D01*
X110817421Y-103041622D01*
X111129734Y-103354480D01*
X111537999Y-103524007D01*
X111980062Y-103524393D01*
X112388622Y-103355579D01*
X112701480Y-103043266D01*
X112871007Y-102635001D01*
X112871008Y-102633062D01*
X113188607Y-102633062D01*
X113357421Y-103041622D01*
X113669734Y-103354480D01*
X114077999Y-103524007D01*
X114520062Y-103524393D01*
X114928622Y-103355579D01*
X115241480Y-103043266D01*
X115411007Y-102635001D01*
X115411393Y-102192938D01*
X115242579Y-101784378D01*
X114930266Y-101471520D01*
X114522001Y-101301993D01*
X114079938Y-101301607D01*
X113671378Y-101470421D01*
X113358520Y-101782734D01*
X113188993Y-102190999D01*
X113188607Y-102633062D01*
X112871008Y-102633062D01*
X112871393Y-102192938D01*
X112702579Y-101784378D01*
X112390266Y-101471520D01*
X111982001Y-101301993D01*
X111539938Y-101301607D01*
X111131378Y-101470421D01*
X110818520Y-101782734D01*
X110648993Y-102190999D01*
X110648607Y-102633062D01*
X109782000Y-102633062D01*
X109782000Y-100093062D01*
X113188607Y-100093062D01*
X113357421Y-100501622D01*
X113669734Y-100814480D01*
X114077999Y-100984007D01*
X114520062Y-100984393D01*
X114928622Y-100815579D01*
X115241480Y-100503266D01*
X115411007Y-100095001D01*
X115411008Y-100093062D01*
X115728607Y-100093062D01*
X115897421Y-100501622D01*
X116209734Y-100814480D01*
X116617999Y-100984007D01*
X117060062Y-100984393D01*
X117468622Y-100815579D01*
X117781480Y-100503266D01*
X117951007Y-100095001D01*
X117951008Y-100093062D01*
X118268607Y-100093062D01*
X118437421Y-100501622D01*
X118749734Y-100814480D01*
X119157999Y-100984007D01*
X119600062Y-100984393D01*
X120008622Y-100815579D01*
X120321480Y-100503266D01*
X120491007Y-100095001D01*
X120491008Y-100093062D01*
X120808607Y-100093062D01*
X120977421Y-100501622D01*
X121289734Y-100814480D01*
X121697999Y-100984007D01*
X122140062Y-100984393D01*
X122548622Y-100815579D01*
X122861480Y-100503266D01*
X123031007Y-100095001D01*
X123031008Y-100093062D01*
X123348607Y-100093062D01*
X123517421Y-100501622D01*
X123829734Y-100814480D01*
X124237999Y-100984007D01*
X124680062Y-100984393D01*
X125088622Y-100815579D01*
X125401480Y-100503266D01*
X125571007Y-100095001D01*
X125571008Y-100093062D01*
X125888607Y-100093062D01*
X126057421Y-100501622D01*
X126369734Y-100814480D01*
X126777999Y-100984007D01*
X127220062Y-100984393D01*
X127628622Y-100815579D01*
X127941480Y-100503266D01*
X128111007Y-100095001D01*
X128111020Y-100079550D01*
X132305783Y-100079550D01*
X132495684Y-100539143D01*
X132847007Y-100891081D01*
X133306269Y-101081783D01*
X133803550Y-101082217D01*
X134263143Y-100892316D01*
X134615081Y-100540993D01*
X134805783Y-100081731D01*
X134805784Y-100079550D01*
X155165783Y-100079550D01*
X155355684Y-100539143D01*
X155707007Y-100891081D01*
X156166269Y-101081783D01*
X156663550Y-101082217D01*
X157123143Y-100892316D01*
X157475081Y-100540993D01*
X157665783Y-100081731D01*
X157666217Y-99584450D01*
X157476316Y-99124857D01*
X157124993Y-98772919D01*
X156665731Y-98582217D01*
X156168450Y-98581783D01*
X155708857Y-98771684D01*
X155356919Y-99123007D01*
X155166217Y-99582269D01*
X155165783Y-100079550D01*
X134805784Y-100079550D01*
X134806217Y-99584450D01*
X134616316Y-99124857D01*
X134264993Y-98772919D01*
X133805731Y-98582217D01*
X133308450Y-98581783D01*
X132848857Y-98771684D01*
X132496919Y-99123007D01*
X132306217Y-99582269D01*
X132305783Y-100079550D01*
X128111020Y-100079550D01*
X128111393Y-99652938D01*
X127942579Y-99244378D01*
X127630266Y-98931520D01*
X127222001Y-98761993D01*
X126779938Y-98761607D01*
X126371378Y-98930421D01*
X126058520Y-99242734D01*
X125888993Y-99650999D01*
X125888607Y-100093062D01*
X125571008Y-100093062D01*
X125571393Y-99652938D01*
X125402579Y-99244378D01*
X125090266Y-98931520D01*
X124682001Y-98761993D01*
X124239938Y-98761607D01*
X123831378Y-98930421D01*
X123518520Y-99242734D01*
X123348993Y-99650999D01*
X123348607Y-100093062D01*
X123031008Y-100093062D01*
X123031393Y-99652938D01*
X122862579Y-99244378D01*
X122550266Y-98931520D01*
X122142001Y-98761993D01*
X121699938Y-98761607D01*
X121291378Y-98930421D01*
X120978520Y-99242734D01*
X120808993Y-99650999D01*
X120808607Y-100093062D01*
X120491008Y-100093062D01*
X120491393Y-99652938D01*
X120322579Y-99244378D01*
X120010266Y-98931520D01*
X119602001Y-98761993D01*
X119159938Y-98761607D01*
X118751378Y-98930421D01*
X118438520Y-99242734D01*
X118268993Y-99650999D01*
X118268607Y-100093062D01*
X117951008Y-100093062D01*
X117951393Y-99652938D01*
X117782579Y-99244378D01*
X117470266Y-98931520D01*
X117062001Y-98761993D01*
X116619938Y-98761607D01*
X116211378Y-98930421D01*
X115898520Y-99242734D01*
X115728993Y-99650999D01*
X115728607Y-100093062D01*
X115411008Y-100093062D01*
X115411393Y-99652938D01*
X115242579Y-99244378D01*
X114930266Y-98931520D01*
X114522001Y-98761993D01*
X114079938Y-98761607D01*
X113671378Y-98930421D01*
X113358520Y-99242734D01*
X113188993Y-99650999D01*
X113188607Y-100093062D01*
X109782000Y-100093062D01*
X109782000Y-98673396D01*
X111080396Y-97375000D01*
X156663604Y-97375000D01*
X157726000Y-98437396D01*
M02*
