M48
;DRILL file {KiCad 4.0.7} date 08/06/20 13:21:27
;FORMAT={-:-/ absolute / inch / decimal}
FMAT,2
INCH,TZ
T1C0.031
T2C0.035
T3C0.039
%
G90
G05
M72
T1
X4.4Y-4.032
X4.4Y-4.132
X4.4Y-4.232
X4.4Y-4.332
X4.4Y-4.432
X4.4Y-4.532
X4.5Y-3.932
X4.5Y-4.032
X4.5Y-4.132
X4.5Y-4.232
X4.5Y-4.332
X4.5Y-4.432
X4.5Y-4.532
X4.5Y-4.632
X4.6Y-3.932
X4.6Y-4.032
X4.6Y-4.532
X4.6Y-4.632
X4.7Y-3.932
X4.7Y-4.032
X4.7Y-4.532
X4.7Y-4.632
X4.8Y-3.932
X4.8Y-4.032
X4.8Y-4.532
X4.8Y-4.632
X4.9Y-3.932
X4.9Y-4.032
X4.9Y-4.532
X4.9Y-4.632
X5.Y-3.932
X5.Y-4.032
X5.Y-4.132
X5.Y-4.232
X5.Y-4.332
X5.Y-4.432
X5.Y-4.532
X5.Y-4.632
X5.1Y-4.032
X5.1Y-4.132
X5.1Y-4.232
X5.1Y-4.332
X5.1Y-4.432
X5.1Y-4.532
T2
X5.2581Y-3.9304
X5.2581Y-4.0304
X5.2581Y-4.1304
X5.2581Y-4.2304
X5.2581Y-4.3304
X5.2581Y-4.4304
X5.2581Y-4.5304
X5.2581Y-4.6304
X6.1581Y-3.9304
X6.1581Y-4.0304
X6.1581Y-4.1304
X6.1581Y-4.2304
X6.1581Y-4.3304
X6.1581Y-4.4304
X6.1581Y-4.5304
X6.1581Y-4.6304
T3
X4.4608Y-4.9784
X4.5608Y-4.9784
X4.6608Y-4.9784
X4.7608Y-4.9784
X5.0616Y-4.7773
X5.0616Y-4.8773
X5.0616Y-4.9773
T0
M30
